<svg width="24" height="24" viewBox="0 0 24 24" fill="none" xmlns="http://www.w3.org/2000/svg">
<path fill-rule="evenodd" clip-rule="evenodd" d="M12.7995 0V2.88001H11.5195V0H12.7995Z" fill="#FFCF00"/>
<path fill-rule="evenodd" clip-rule="evenodd" d="M24 12.16L21.12 12.16L21.12 10.88L24 10.88L24 12.16Z" fill="#FFCF00"/>
<path fill-rule="evenodd" clip-rule="evenodd" d="M2.87988 12.16L-0.000126418 12.16L-0.000126362 10.88L2.87988 10.88L2.87988 12.16Z" fill="#FFCF00"/>
<path fill-rule="evenodd" clip-rule="evenodd" d="M21.6873 3.65266L19.6509 5.68913L18.7458 4.78403L20.7822 2.74756L21.6873 3.65266Z" fill="#FFCF00"/>
<path fill-rule="evenodd" clip-rule="evenodd" d="M3.65412 2.74749L5.6906 4.78396L4.7855 5.68906L2.74902 3.65259L3.65412 2.74749Z" fill="#FFCF00"/>
<path d="M18.5605 12.16C18.5605 8.62537 15.6951 5.75998 12.1605 5.75998C8.62586 5.75998 5.76047 8.62537 5.76047 12.16V18.56H4.48047V12.16C4.48047 7.91844 7.91893 4.47998 12.1605 4.47998C16.4021 4.47998 19.8405 7.91844 19.8405 12.16V15.36H18.5605V12.16Z" fill="#F16A5E"/>
<path fill-rule="evenodd" clip-rule="evenodd" d="M19.2 17.92H5.75993V15.36H4.47993V17.984C3.01929 18.2805 1.91992 19.5719 1.91992 21.12V23.04H22.4V21.12C22.4 19.3527 20.9673 17.92 19.2 17.92ZM5.11993 19.2C4.05954 19.2 3.19993 20.0596 3.19993 21.12V21.76H21.12V21.12C21.12 20.0596 20.2604 19.2 19.2 19.2H5.11993Z" fill="#1D5297"/>
<path d="M18.56 12.16C18.56 8.62537 15.6946 5.75998 12.16 5.75998V4.47998C16.4015 4.47998 19.84 7.91844 19.84 12.16V15.36C19.84 15.7135 19.5534 16 19.2 16C18.8465 16 18.56 15.7135 18.56 15.36V12.16Z" fill="#1D5297"/>
<path fill-rule="evenodd" clip-rule="evenodd" d="M12.8008 8.31993C12.8008 7.96647 13.0873 7.67993 13.4408 7.67993C15.2081 7.67993 16.6408 9.11263 16.6408 10.8799C16.6408 11.2334 16.3543 11.5199 16.0008 11.5199C15.6473 11.5199 15.3608 11.2334 15.3608 10.8799C15.3608 9.81955 14.5012 8.95994 13.4408 8.95994C13.0873 8.95994 12.8008 8.6734 12.8008 8.31993Z" fill="#F16A5E"/>
</svg>
