<svg width="80" height="30" viewBox="0 0 61 18" fill="none" xmlns="http://www.w3.org/2000/svg">
<path d="M46.3176 13.6178C45.5641 13.756 44.8018 13.826 44.052 13.826C43.2759 13.826 42.4878 13.7512 41.7092 13.6033C41.6893 13.5995 41.6724 13.5858 41.6642 13.5662C41.656 13.547 41.6574 13.5246 41.668 13.5064L43.9459 9.61775C43.957 9.59893 43.9768 9.58722 43.9978 9.58722C44.0193 9.58722 44.0388 9.59847 44.0501 9.61741L46.359 13.5207C46.3698 13.5388 46.3712 13.5613 46.3629 13.5807V13.5808C46.3545 13.6003 46.3377 13.6142 46.3176 13.6178ZM50.2343 17.1471L44.6964 7.78619C44.572 7.56751 44.2978 7.42632 43.9979 7.42632C43.7091 7.42632 43.4412 7.56464 43.2978 7.78848L38.3984 16.1338C38.3968 16.1356 38.3955 16.1374 38.3942 16.1395L37.7966 17.1473C37.7749 17.1845 37.7634 17.2271 37.7634 17.2706C37.7634 17.399 37.8631 17.505 37.9858 17.5068L39.1303 17.5085L39.1433 17.5084C39.2639 17.5084 39.3744 17.4445 39.4388 17.3368L40.7868 15.0145C40.8 14.9922 40.8286 14.9796 40.853 14.9854C41.9064 15.24 42.9826 15.3691 44.052 15.3691C45.0969 15.3691 46.1505 15.2453 47.1832 15.0011C47.2093 14.9952 47.235 15.0065 47.2489 15.0298L48.222 16.6716C48.2227 16.6735 48.2235 16.6753 48.2247 16.677L48.6151 17.3374C48.6791 17.4444 48.7896 17.5084 48.9104 17.5085L50.0457 17.5068C50.1681 17.505 50.2676 17.399 50.2676 17.2706C50.2676 17.2271 50.2561 17.1845 50.2344 17.1473C50.2344 17.1472 50.2344 17.1472 50.2343 17.1471Z" fill="#0030B9"/>
<path d="M9.05416 13.6178C8.30069 13.756 7.53838 13.826 6.78858 13.826C6.01249 13.826 5.22424 13.7512 4.44574 13.6033C4.42577 13.5995 4.40901 13.5858 4.40074 13.5662C4.39248 13.547 4.39386 13.5246 4.40453 13.5064L6.68251 9.61775C6.69353 9.59893 6.71339 9.58722 6.7344 9.58722C6.75575 9.58722 6.77526 9.59847 6.78663 9.61741L9.0956 13.5207C9.10627 13.5388 9.10776 13.5613 9.0995 13.5807C9.0995 13.5808 9.09938 13.5808 9.09938 13.5808C9.09112 13.6003 9.07413 13.6142 9.05416 13.6178ZM12.9709 17.1471L7.433 7.78619C7.30857 7.56751 7.03434 7.42632 6.7344 7.42632C6.4457 7.42632 6.17779 7.56464 6.03442 7.78848L1.1349 16.1338C1.1334 16.1356 1.13203 16.1374 1.13076 16.1395L0.533174 17.1473C0.511479 17.1845 0.5 17.2271 0.5 17.2706C0.5 17.399 0.599522 17.505 0.722346 17.5068L1.8669 17.5085C1.8669 17.5085 1.87976 17.5084 1.87987 17.5084C2.00052 17.5084 2.11083 17.4445 2.17534 17.3368L3.5233 15.0145C3.5365 14.9922 3.5652 14.9796 3.58942 14.9854C4.64283 15.24 5.71921 15.3691 6.78858 15.3691C7.83338 15.3691 8.88691 15.2453 9.91966 15.0011C9.94584 14.9952 9.97155 15.0065 9.98544 15.0298L10.9585 16.6716C10.9593 16.6735 10.9601 16.6753 10.9611 16.677L11.3517 17.3374C11.4157 17.4444 11.5261 17.5084 11.647 17.5085L12.7823 17.5068C12.9045 17.505 13.0041 17.399 13.0041 17.2706C13.0041 17.2271 12.9927 17.1845 12.971 17.1473C12.971 17.1472 12.9709 17.1472 12.9709 17.1471Z" fill="#0030B9"/>
<path d="M21.2468 11.7192C20.2259 11.3674 19.0072 11.2997 18.026 11.2453C17.776 11.2313 17.5397 11.2181 17.3355 11.2019C15.6919 11.071 15.695 10.4429 15.6967 10.1053C15.7013 9.22811 16.8784 8.9416 17.865 8.85585C18.3735 8.81166 18.9013 8.83863 19.433 8.9362C19.4718 8.94424 19.5387 8.95847 19.5905 8.97006L19.9831 9.05857C20.0087 9.06442 20.0325 9.06717 20.0563 9.06717C20.2056 9.06717 20.3375 8.96685 20.3774 8.82199L20.5796 7.98587C20.5867 7.95809 20.5902 7.93123 20.5902 7.90356C20.5902 7.75066 20.4863 7.61808 20.3374 7.58135L19.9864 7.49721C19.9441 7.48814 19.884 7.47586 19.8071 7.46117C19.1001 7.3271 18.3953 7.28933 17.7124 7.34902C14.4312 7.63439 14.0679 9.36654 14.0641 10.098C14.0595 10.98 14.4601 12.492 17.1958 12.7098C17.4187 12.7274 17.658 12.7408 17.9179 12.7552L17.9302 12.7559C20.4451 12.8956 21.726 13.1828 21.7485 14.3656C21.7561 14.7757 21.6374 15.0821 21.3749 15.3299C20.7995 15.8732 19.6575 15.9923 19.2675 15.9924C19.2428 15.9913 19.2197 15.9927 19.1987 15.9941C19.1764 15.9955 16.9546 16.1305 15.2279 15.1975L14.8129 14.9691C14.7629 14.941 14.7065 14.9262 14.6497 14.9262C14.527 14.9262 14.4148 14.9934 14.3569 15.1016L13.9486 15.8693C13.922 15.9191 13.9086 15.971 13.9086 16.0238C13.9086 16.1412 13.9724 16.2512 14.075 16.3107L14.3981 16.5009C16.0879 17.4165 18.0881 17.5154 18.8697 17.5154C19.073 17.5154 19.2155 17.5092 19.2804 17.5056C19.6279 17.504 21.4175 17.4428 22.5329 16.3969C23.1029 15.8622 23.3962 15.1506 23.3808 14.3392C23.3646 13.4739 22.9811 12.3171 21.2468 11.7192Z" fill="#0030B9"/>
<path d="M58.3654 11.7192C57.3446 11.3674 56.126 11.2997 55.1448 11.2453C54.8947 11.2313 54.6584 11.2181 54.4541 11.2019C52.8105 11.071 52.8138 10.4429 52.8154 10.1053C52.82 9.22811 53.997 8.9416 54.9836 8.85585C55.4921 8.81166 56.0199 8.83863 56.5516 8.9362C56.5904 8.94424 56.6573 8.95847 56.7092 8.97006L57.1018 9.05857C57.1273 9.06442 57.1513 9.06717 57.1749 9.06717C57.3243 9.06717 57.4562 8.96685 57.496 8.82199L57.6982 7.98587C57.7054 7.95809 57.7088 7.93123 57.7088 7.90356C57.7088 7.75066 57.6049 7.61808 57.456 7.58135L57.105 7.49721C57.0628 7.48814 57.0026 7.47586 56.9257 7.46117C56.2187 7.3271 55.514 7.28933 54.8312 7.34902C51.5498 7.63439 51.1865 9.36654 51.1827 10.098C51.1781 10.98 51.5789 12.492 54.3144 12.7098C54.5374 12.7274 54.7768 12.7408 55.0365 12.7552L55.0488 12.7559C57.5637 12.8956 58.8448 13.1828 58.8671 14.3656C58.8748 14.7757 58.7561 15.0821 58.4935 15.3299C57.9182 15.8732 56.7761 15.9923 56.3861 15.9924C56.3615 15.9913 56.3383 15.9927 56.3173 15.9941C56.2952 15.9955 54.0732 16.1305 52.3466 15.1975L51.9315 14.9691C51.8816 14.941 51.8252 14.9262 51.7684 14.9262C51.6457 14.9262 51.5334 14.9934 51.4756 15.1016L51.0673 15.8693C51.0406 15.9191 51.0272 15.971 51.0272 16.0238C51.0272 16.1412 51.091 16.2512 51.1936 16.3107L51.5168 16.5009C53.2066 17.4165 55.2068 17.5154 55.9884 17.5154C56.1916 17.5154 56.3342 17.5092 56.3992 17.5056C56.7465 17.504 58.5361 17.4428 59.6515 16.3969C60.2216 15.8622 60.5149 15.1506 60.4994 14.3392C60.4832 13.4739 60.0997 12.3171 58.3654 11.7192Z" fill="#0030B9"/>
<path d="M38.7153 4.65637C39.5928 3.61478 40.0207 2.27175 39.8889 0.969936C39.853 0.728077 39.7506 0.294405 39.4661 0.105349C39.428 0.0822754 39.3929 0.0637951 39.3589 0.0484142C39.2816 0.0137463 39.2003 -0.00301361 39.1165 0.00031662C39.1048 0.000659943 39.0939 0.00662994 39.0872 0.016386C38.5841 0.739784 37.6135 1.86173 35.846 3.09811C34.9499 3.72509 34.2554 4.14751 33.6748 4.49452C33.6718 4.49612 33.5181 4.58807 33.5181 4.58807C33.3509 4.68771 33.199 4.77827 33.0561 4.86586C32.7836 5.04573 32.5434 5.22962 32.332 5.41087C31.8427 5.84741 30.8876 6.86857 30.7423 8.29562C30.7423 8.29562 30.5738 9.44546 31.3138 10.9707L32.2051 12.6H32.2046L32.6297 13.3763L32.6307 13.3779L32.7047 13.5131C32.7154 13.5312 32.7169 13.5537 32.7085 13.5733C32.7085 13.5733 32.7085 13.5733 32.7085 13.5734C32.7002 13.5929 32.6833 13.6067 32.6633 13.6103C31.9097 13.7485 31.1475 13.8186 30.3977 13.8186C29.6216 13.8186 28.8334 13.7436 28.0548 13.5959C28.0349 13.5921 28.0181 13.5783 28.0098 13.5588C28.0016 13.5394 28.003 13.517 28.0137 13.4989L28.0969 13.3462L29.3785 11.0007C30.1355 9.4605 29.9643 8.29562 29.9643 8.29562C29.815 6.83012 28.8119 5.79255 28.3361 5.37678C28.1344 5.20667 27.9079 5.03437 27.6525 4.86586C27.5095 4.77827 27.3576 4.68771 27.1905 4.58807C27.1905 4.58807 27.0367 4.49612 27.0336 4.49452C26.4531 4.14751 25.7586 3.72509 24.8625 3.09811C23.095 1.86173 22.1243 0.739784 21.6213 0.016386C21.6145 0.00662994 21.6038 0.000659943 21.592 0.00031662C21.5084 -0.00301361 21.4269 0.0137463 21.3496 0.0484142C21.3156 0.0637951 21.2805 0.0822754 21.2424 0.105349C20.958 0.294405 20.8556 0.728077 20.8197 0.969936C20.6879 2.27175 21.1157 3.61478 21.9932 4.65637C22.0073 4.67324 22.0119 4.69597 22.0055 4.71686C21.5444 6.20647 22.1321 7.95356 23.4349 8.96565L23.9227 9.44167C23.9361 9.45464 23.9431 9.47278 23.9421 9.49126C23.8674 10.7801 24.5578 12.0496 25.7012 12.7255L26.4153 13.1476C26.4303 13.1563 26.4411 13.1709 26.4453 13.1877C26.4493 13.2044 26.4466 13.2223 26.4375 13.2369L26.407 13.2862H26.4113L24.744 16.1264C24.7424 16.1281 24.741 16.1299 24.7398 16.132L24.1422 17.1399C24.1205 17.177 24.109 17.2196 24.109 17.2631C24.109 17.3916 24.2086 17.4974 24.3314 17.4994L25.476 17.501L25.4889 17.5009C25.6096 17.5009 25.72 17.4369 25.7845 17.3293L27.1324 15.007C27.1456 14.9846 27.1742 14.9721 27.1985 14.9778C28.252 15.2325 29.3283 15.3615 30.3977 15.3615C31.4425 15.3615 32.496 15.2377 33.5288 14.9937C33.5548 14.9878 33.5807 14.999 33.5946 15.0222L34.5676 16.6641C34.5683 16.666 34.5692 16.6678 34.5703 16.6694L34.9607 17.3299C35.0248 17.4369 35.1353 17.5009 35.2561 17.501L36.3913 17.4994C36.5136 17.4974 36.6133 17.3916 36.6133 17.2631C36.6133 17.2196 36.6017 17.177 36.58 17.1399L36.5799 17.1395L34.3003 13.2862H34.3015L34.2724 13.2392L34.271 13.2367C34.2621 13.2221 34.2592 13.2043 34.2632 13.1877C34.2675 13.1709 34.2784 13.1563 34.2932 13.1476L35.0073 12.7255C36.1507 12.0496 36.8411 10.7801 36.7664 9.49126C36.7654 9.47278 36.7724 9.45464 36.7857 9.44167L37.2737 8.96565C38.5764 7.95356 39.1642 6.20647 38.7031 4.71686C38.6966 4.69597 38.7012 4.67324 38.7153 4.65637Z" fill="#0030B9"/>
</svg>
