<svg width="20" height="20" viewBox="0 0 20 20" fill="none" xmlns="http://www.w3.org/2000/svg">
<path fill-rule="evenodd" clip-rule="evenodd" d="M9.69465 0.109953C9.53451 0.0382522 9.36297 0 9.1838 0C9.00842 0 8.83306 0.0382522 8.67677 0.109953L1.49441 3.11697C0.656463 3.4682 0.0293343 4.28437 0 5.2368C0.0529687 9.00514 1.60689 15.8379 8.17736 18.9436C8.814 19.241 9.55357 19.241 10.1902 18.9436C16.7588 15.8379 18.3142 9.00514 18.3333 5.2368C18.3409 4.28437 17.7119 3.4682 16.8732 3.11697L9.69465 0.109953ZM12.9489 7.55639C13.3624 7.02699 13.5641 6.34422 13.502 5.68257C13.4851 5.55967 13.4369 5.33916 13.3028 5.24301C13.2849 5.23139 13.2683 5.22189 13.2523 5.21418C13.2159 5.19644 13.1775 5.18808 13.1381 5.1897C13.1326 5.18984 13.1275 5.19292 13.1244 5.19791C12.8872 5.56562 12.4298 6.13596 11.5968 6.76446C11.1745 7.08302 10.8472 7.29791 10.5736 7.47426L10.4808 7.53399C10.4093 7.57991 10.3439 7.62203 10.282 7.66305C10.1535 7.75436 10.0404 7.84793 9.94076 7.94006C9.71019 8.16201 9.26012 8.68098 9.19157 9.40641C9.19157 9.40641 9.1121 9.99095 9.46095 10.7661L9.88071 11.5944L10.0811 11.989L10.0816 11.9898L10.1165 12.0585C10.1216 12.0677 10.1222 12.0792 10.1183 12.089C10.1144 12.099 10.1064 12.1059 10.0969 12.1078C9.74185 12.1781 9.38257 12.2137 9.02925 12.2137C8.66352 12.2137 8.29198 12.1756 7.92508 12.1004C7.91568 12.0985 7.90776 12.0914 7.90388 12.0816C7.89999 12.0717 7.90076 12.0603 7.90566 12.0511L8.54883 10.7813C8.9056 9.99834 8.82497 9.40627 8.82497 9.40627C8.75461 8.66133 8.28185 8.13398 8.0577 7.92268C7.96255 7.83617 7.85596 7.74855 7.73542 7.66287C7.66808 7.61841 7.59656 7.57234 7.5177 7.52162C7.5177 7.52162 7.44528 7.4749 7.44379 7.47411C7.17019 7.29773 6.84287 7.08302 6.42057 6.76428C5.5876 6.13579 5.13019 5.56562 4.89305 5.19773C4.88993 5.19274 4.88484 5.18984 4.87933 5.18952C4.8399 5.18776 4.80153 5.19629 4.76508 5.214C4.7491 5.22175 4.73251 5.23125 4.71461 5.24283C4.5805 5.33901 4.53229 5.55949 4.51541 5.68239C4.45329 6.34404 4.65489 7.02681 5.06837 7.55625C5.07508 7.56478 5.07719 7.5764 5.07421 7.58701C4.85693 8.3442 5.13393 9.23232 5.74785 9.7466L5.9778 9.98851C5.98408 9.99511 5.98735 10.0043 5.98691 10.0138C5.95166 10.6689 6.27706 11.3141 6.81586 11.6578L7.15244 11.8723C7.15945 11.8767 7.16453 11.8841 7.16649 11.8928C7.16842 11.9012 7.16707 11.9104 7.16275 11.9178L7.14841 11.9428H7.15048L6.3647 13.3864L6.36278 13.3893L6.08112 13.9017C6.07099 13.9205 6.06544 13.9422 6.06544 13.9643C6.06544 14.0295 6.11235 14.0835 6.17029 14.0843L6.70967 14.0851H6.7158C6.77269 14.0851 6.82465 14.0525 6.85511 13.9979L7.49037 12.8175C7.49665 12.8061 7.51008 12.7998 7.52159 12.8027C8.01813 12.9322 8.52523 12.9977 9.02925 12.9977C9.52158 12.9977 10.0181 12.9348 10.5048 12.8107C10.517 12.8078 10.5293 12.8135 10.5357 12.8252L10.9943 13.6599L10.9955 13.6626L11.1795 13.9983C11.2096 14.0527 11.2617 14.0852 11.3186 14.0852L11.8537 14.0845C11.9113 14.0835 11.9582 14.0297 11.9582 13.9645C11.9582 13.9424 11.9527 13.9205 11.9424 13.9017L10.8687 11.9429L10.8549 11.9191L10.8542 11.9178C10.85 11.9104 10.8487 11.9013 10.8506 11.893C10.8526 11.8844 10.8578 11.877 10.8647 11.8725L11.2013 11.658C11.7401 11.3144 12.0655 10.669 12.0304 10.014C12.0299 10.0045 12.0332 9.99529 12.0395 9.9887L12.2694 9.74674C12.8833 9.23232 13.1603 8.3442 12.9431 7.58719C12.9401 7.57654 12.9423 7.5651 12.9489 7.55639Z" fill="#0030B9"/>
</svg>
