<svg width="56" height="56" viewBox="0 0 56 56" fill="none" xmlns="http://www.w3.org/2000/svg">
<path d="M47 0C49.2091 0 51.0163 1.7936 50.8432 3.99595C50.4244 9.32478 49.1697 14.5632 47.1179 19.5169C44.5549 25.7045 40.7982 31.3267 36.0624 36.0624C31.3267 40.7982 25.7045 44.5549 19.5169 47.1179C14.5632 49.1697 9.32478 50.4244 3.99595 50.8432C1.7936 51.0163 0 49.2091 0 47L0 4C0 1.79086 1.79086 0 4 0L47 0Z" fill="#0030B9"/>
<path fill-rule="evenodd" clip-rule="evenodd" d="M22.576 10.1202C22.4013 10.0418 22.2141 10 22.0187 10C21.8274 10 21.6361 10.0418 21.4656 10.1202L13.6303 13.4074C12.7161 13.7913 12.032 14.6835 12 15.7247C12.0578 19.8441 13.753 27.3134 20.9208 30.7085C21.6153 31.0337 22.4221 31.0337 23.1166 30.7085C30.2823 27.3134 31.9791 19.8441 31.9999 15.7247C32.0082 14.6835 31.322 13.7913 30.4071 13.4074L22.576 10.1202ZM26.1261 18.2604C26.5771 17.6817 26.7972 16.9353 26.7295 16.212C26.711 16.0777 26.6584 15.8366 26.5121 15.7315C26.4926 15.7188 26.4745 15.7084 26.4571 15.7C26.4173 15.6806 26.3755 15.6714 26.3325 15.6732C26.3264 15.6734 26.3209 15.6767 26.3175 15.6822C26.0588 16.0842 25.5598 16.7076 24.6511 17.3947C24.1904 17.7429 23.8333 17.9778 23.5349 18.1706L23.4336 18.2359C23.3556 18.2861 23.2842 18.3322 23.2167 18.377C23.0766 18.4768 22.9531 18.5791 22.8445 18.6798C22.5929 18.9224 22.1019 19.4898 22.0272 20.2828C22.0272 20.2828 21.9405 20.9218 22.321 21.7692L22.779 22.6746L22.9976 23.1059L22.9981 23.1068L23.0362 23.182C23.0417 23.192 23.0424 23.2046 23.0382 23.2153C23.0339 23.2262 23.0251 23.2338 23.0148 23.2359C22.6275 23.3127 22.2355 23.3516 21.8501 23.3516C21.4511 23.3516 21.0458 23.31 20.6455 23.2278C20.6353 23.2257 20.6267 23.218 20.6224 23.2072C20.6182 23.1964 20.619 23.184 20.6244 23.1739L21.326 21.7857C21.7152 20.9299 21.6272 20.2826 21.6272 20.2826C21.5505 19.4683 21.0347 18.8918 20.7902 18.6608C20.6864 18.5662 20.5701 18.4705 20.4386 18.3768C20.3652 18.3282 20.2872 18.2778 20.2011 18.2224C20.2011 18.2224 20.1221 18.1713 20.1205 18.1705C19.822 17.9776 19.465 17.7429 19.0043 17.3945C18.0956 16.7074 17.5966 16.0842 17.3379 15.682C17.3345 15.6765 17.3289 15.6734 17.3229 15.673C17.2799 15.6711 17.238 15.6804 17.1983 15.6998C17.1808 15.7082 17.1627 15.7186 17.1432 15.7313C16.9969 15.8364 16.9443 16.0775 16.9259 16.2118C16.8581 16.9351 17.0781 17.6815 17.5291 18.2602C17.5365 18.2696 17.5388 18.2823 17.5355 18.2939C17.2985 19.1216 17.6007 20.0925 18.2704 20.6547L18.5212 20.9191C18.5281 20.9263 18.5317 20.9364 18.5312 20.9468C18.4927 21.6629 18.8477 22.3682 19.4355 22.7439L19.8027 22.9785C19.8103 22.9832 19.8159 22.9913 19.818 23.0008C19.8201 23.01 19.8186 23.02 19.8139 23.0281L19.7983 23.0554H19.8005L18.9433 24.6336L18.9412 24.6367L18.634 25.1968C18.6229 25.2174 18.6168 25.2412 18.6168 25.2653C18.6168 25.3366 18.668 25.3956 18.7312 25.3965L19.3196 25.3974H19.3263C19.3884 25.3974 19.4451 25.3618 19.4783 25.3021L20.1713 24.0117C20.1782 23.9992 20.1928 23.9923 20.2054 23.9955C20.7471 24.137 21.3003 24.2087 21.8501 24.2087C22.3872 24.2087 22.9289 24.1399 23.4598 24.0043C23.4731 24.0011 23.4865 24.0073 23.4935 24.0201L23.9938 24.9325L23.9951 24.9355L24.1958 25.3025C24.2287 25.362 24.2855 25.3975 24.3476 25.3975L24.9313 25.3967C24.9942 25.3956 25.0453 25.3368 25.0453 25.2655C25.0453 25.2414 25.0393 25.2174 25.0281 25.1968L23.8568 23.0556L23.8418 23.0295L23.841 23.0281C23.8364 23.02 23.835 23.0102 23.8371 23.001C23.8392 22.9917 23.8449 22.9836 23.8524 22.9787L24.2196 22.7441C24.8073 22.3686 25.1623 21.663 25.124 20.9469C25.1235 20.9366 25.1271 20.9265 25.134 20.9193L25.3848 20.6548C26.0545 20.0925 26.3567 19.1216 26.1197 18.2941C26.1165 18.2824 26.1189 18.2699 26.1261 18.2604Z" fill="white"/>
</svg>
