<svg width="141" height="41" viewBox="0 0 141 41" fill="none" xmlns="http://www.w3.org/2000/svg">
<g clip-path="url(#clip0_1593_17396)">
<path d="M107.562 32.1454C105.785 32.4713 103.988 32.6364 102.22 32.6364C100.39 32.6364 98.5323 32.4597 96.6965 32.1113C96.6497 32.1024 96.6099 32.0699 96.5904 32.0239C96.5712 31.9781 96.5745 31.9256 96.5994 31.8826L101.97 22.7125C101.996 22.6681 102.043 22.6408 102.093 22.6405C102.143 22.6405 102.189 22.6673 102.216 22.7117L107.66 31.9161C107.685 31.9592 107.688 32.0119 107.669 32.058V32.0582C107.649 32.1042 107.609 32.1367 107.562 32.1454ZM116.796 40.4676L103.74 18.3934C103.446 17.878 102.8 17.5448 102.093 17.5448C101.412 17.5448 100.78 17.8713 100.442 18.3991L88.8907 38.0786C88.8869 38.0826 88.8837 38.087 88.8807 38.0918L87.4718 40.4685C87.4206 40.5562 87.3936 40.6566 87.3936 40.7592C87.3936 41.0621 87.6285 41.3119 87.9178 41.3163L90.6163 41.3203L90.6469 41.32C90.9314 41.32 91.1917 41.169 91.3435 40.9151L94.5219 35.4391C94.5531 35.386 94.6205 35.3565 94.6778 35.3701C97.1615 35.9707 99.699 36.275 102.22 36.275C104.684 36.275 107.168 35.9829 109.603 35.4074C109.664 35.3936 109.725 35.4202 109.758 35.4748L112.052 39.3467C112.054 39.3511 112.056 39.3554 112.058 39.3592L112.979 40.9167C113.13 41.169 113.39 41.32 113.675 41.3203L116.352 41.3163C116.64 41.3119 116.875 41.0621 116.875 40.7592C116.875 40.6566 116.848 40.5562 116.797 40.4685C116.797 40.4682 116.797 40.4679 116.796 40.4676Z" fill="#0030B9"/>
<path d="M19.7045 32.1454C17.928 32.4713 16.1307 32.6364 14.3629 32.6364C12.5331 32.6364 10.6746 32.4597 8.83911 32.1113C8.79202 32.1024 8.7525 32.0699 8.73302 32.0239C8.71353 31.9781 8.71678 31.9256 8.74195 31.8826L14.1128 22.7125C14.1388 22.6681 14.1856 22.6408 14.2351 22.6405C14.2855 22.6405 14.3315 22.6673 14.3583 22.7117L19.8022 31.9161C19.8274 31.9592 19.8309 32.0119 19.8114 32.058C19.8114 32.058 19.8111 32.058 19.8111 32.0582C19.7916 32.1042 19.7516 32.1367 19.7045 32.1454ZM28.939 40.4676L15.8822 18.3934C15.5889 17.878 14.9423 17.5448 14.2351 17.5448C13.5545 17.5448 12.9228 17.8713 12.5848 18.3991L1.03304 38.0786C1.02952 38.0826 1.02628 38.087 1.0233 38.0918L-0.385652 40.4685C-0.436803 40.5562 -0.463867 40.6566 -0.463867 40.7592C-0.463867 41.0621 -0.229221 41.3119 0.0603632 41.3163L2.75891 41.3203C2.75891 41.3203 2.78922 41.32 2.78949 41.32C3.07394 41.32 3.33402 41.169 3.48612 40.9151L6.66425 35.4391C6.69537 35.386 6.76303 35.3565 6.82013 35.3701C9.3038 35.9707 11.8416 36.275 14.3629 36.275C16.8262 36.275 19.3102 35.9829 21.7451 35.4074C21.8068 35.3936 21.8674 35.4202 21.9002 35.4748L24.1944 39.3467C24.1963 39.3511 24.1982 39.3554 24.2006 39.3592L25.1213 40.9167C25.2724 41.169 25.5327 41.32 25.8177 41.3203L28.4943 41.3163C28.7826 41.3119 29.0175 41.0621 29.0175 40.7592C29.0175 40.6566 28.9904 40.5562 28.9393 40.4685L28.939 40.4676Z" fill="#0030B9"/>
<path d="M48.4519 27.6637C46.0451 26.8343 43.1717 26.6746 40.8582 26.5463C40.2688 26.5133 39.7115 26.4822 39.2301 26.4437C35.3551 26.1354 35.3624 24.6542 35.3664 23.8581C35.3772 21.7893 38.1524 21.1139 40.4785 20.9114C41.6775 20.8075 42.9219 20.8711 44.1755 21.1012C44.267 21.1201 44.4247 21.1537 44.5468 21.181L45.4724 21.3897C45.5327 21.4035 45.589 21.41 45.645 21.41C45.9972 21.41 46.3081 21.1732 46.402 20.8319L46.8789 18.8602C46.8957 18.7944 46.9038 18.7313 46.9038 18.6661C46.9038 18.3055 46.6589 17.9929 46.3078 17.9063L45.4802 17.7079C45.3806 17.6865 45.2388 17.6572 45.0575 17.6229C43.3906 17.3064 41.7289 17.2176 40.1189 17.3584C32.3826 18.0313 31.526 22.1157 31.5171 23.8405C31.5063 25.9205 32.4508 29.486 38.9007 29.9997C39.4263 30.0414 39.9906 30.0728 40.6033 30.1069L40.6323 30.1086C46.5617 30.4377 49.5818 31.1152 49.6348 33.9041C49.6527 34.8713 49.3728 35.594 48.7539 36.1784C47.3974 37.4596 44.7048 37.7403 43.7852 37.7403C43.727 37.7381 43.6726 37.7411 43.6231 37.7446C43.5706 37.7476 38.3321 38.0659 34.2611 35.8661L33.2825 35.3274C33.1648 35.2613 33.0316 35.2264 32.8979 35.2264C32.6086 35.2264 32.3439 35.3845 32.2075 35.64L31.2448 37.4501C31.1821 37.5676 31.1504 37.6902 31.1504 37.8147C31.1504 38.0916 31.3009 38.351 31.5428 38.4912L32.3047 38.9394C36.2888 41.099 41.0047 41.332 42.8474 41.332C43.3267 41.332 43.6626 41.3174 43.8158 41.309C44.635 41.3052 48.8543 41.161 51.4841 38.6945C52.8281 37.4333 53.5196 35.7556 53.4833 33.8419C53.4452 31.8017 52.541 29.0737 48.4519 27.6637Z" fill="#0030B9"/>
<path d="M135.967 27.6637C133.561 26.8343 130.688 26.6746 128.374 26.5463C127.784 26.5133 127.227 26.4822 126.746 26.4437C122.871 26.1354 122.878 24.6542 122.882 23.8581C122.893 21.7893 125.668 21.1139 127.994 20.9114C129.193 20.8075 130.437 20.8711 131.691 21.1012C131.783 21.1201 131.94 21.1537 132.063 21.181L132.988 21.3897C133.048 21.4035 133.105 21.41 133.161 21.41C133.513 21.41 133.824 21.1732 133.918 20.8319L134.395 18.8602C134.411 18.7944 134.419 18.7313 134.419 18.6661C134.419 18.3055 134.174 17.9929 133.823 17.9063L132.996 17.7079C132.896 17.6865 132.754 17.6572 132.573 17.6229C130.906 17.3064 129.245 17.2176 127.635 17.3584C119.898 18.0313 119.042 22.1157 119.033 23.8405C119.022 25.9205 119.967 29.486 126.416 29.9997C126.942 30.0414 127.506 30.0728 128.119 30.1069L128.148 30.1086C134.077 30.4377 137.098 31.1152 137.15 33.9041C137.169 34.8713 136.889 35.594 136.27 36.1784C134.913 37.4596 132.22 37.7403 131.301 37.7403C131.243 37.7381 131.188 37.7411 131.139 37.7446C131.086 37.7476 125.848 38.0659 121.777 35.8661L120.798 35.3274C120.68 35.2613 120.548 35.2264 120.414 35.2264C120.124 35.2264 119.86 35.3845 119.723 35.64L118.76 37.4501C118.698 37.5676 118.666 37.6902 118.666 37.8147C118.666 38.0916 118.816 38.351 119.058 38.4912L119.82 38.9394C123.804 41.099 128.52 41.332 130.363 41.332C130.842 41.332 131.179 41.3174 131.332 41.309C132.151 41.3052 136.37 41.161 139 38.6945C140.344 37.4333 141.035 35.7556 140.999 33.8419C140.961 31.8017 140.057 29.0737 135.967 27.6637Z" fill="#0030B9"/>
<path d="M89.6378 11.0073C91.7068 8.5511 92.7155 5.38433 92.4048 2.31421C92.3201 1.74414 92.0787 0.721485 91.408 0.275394C91.3182 0.221256 91.2354 0.177677 91.1553 0.141403C90.9731 0.0593872 90.7812 0.020134 90.5837 0.0279846C90.5561 0.0287971 90.5303 0.0428734 90.5147 0.0658798C89.3284 1.77175 87.0402 4.41744 82.8729 7.33301C80.76 8.8115 79.1226 9.80762 77.7537 10.6256C77.7467 10.6297 77.3843 10.8465 77.3843 10.8465C76.99 11.0815 76.6319 11.295 76.295 11.5013C75.6525 11.9255 75.0863 12.3594 74.5878 12.7865C73.434 13.816 71.1823 16.224 70.8397 19.5894C70.8397 19.5894 70.4424 22.3009 72.1872 25.8975L74.2884 29.7394H74.2874L75.2895 31.5703L75.292 31.5741L75.4665 31.8929C75.4917 31.9357 75.4952 31.9888 75.4755 32.0345C75.4755 32.0348 75.4755 32.0348 75.4755 32.0348C75.456 32.0808 75.4159 32.1136 75.3688 32.1222C73.5921 32.4479 71.795 32.613 70.0272 32.613C68.1974 32.613 66.3389 32.4365 64.5032 32.0878C64.4564 32.0792 64.4169 32.0464 64.3971 32.0007C64.3779 31.9549 64.3811 31.9022 64.4063 31.8594L64.6025 31.4994L67.6242 25.9684C69.4091 22.3364 69.0053 19.5894 69.0053 19.5894C68.6535 16.1336 66.2883 13.6868 65.1665 12.7064C64.691 12.305 64.157 11.8989 63.5549 11.5013C63.2177 11.295 62.8596 11.0815 62.4655 10.8465C62.4655 10.8465 62.1029 10.6297 62.0956 10.6256C60.727 9.80762 59.0896 8.8115 56.9767 7.33301C52.8094 4.41744 50.5209 1.77175 49.3349 0.0658798C49.3189 0.0428734 49.2935 0.0287971 49.2659 0.0279846C49.0686 0.020134 48.8765 0.0593872 48.6943 0.141403C48.6142 0.177677 48.5314 0.221256 48.4415 0.275394C47.7709 0.721485 47.5295 1.74414 47.445 2.31421C47.1341 5.38433 48.1427 8.5511 50.2118 11.0073C50.2451 11.0474 50.2559 11.101 50.2407 11.15C49.1536 14.6629 50.5393 18.7828 53.6108 21.1694L54.761 22.2917C54.7926 22.3226 54.8091 22.3653 54.8067 22.4089C54.6305 25.4479 56.2584 28.4414 58.9543 30.0355L60.6379 31.0311C60.6731 31.0517 60.6985 31.086 60.7086 31.1256C60.718 31.1648 60.7115 31.2073 60.6901 31.2417L60.6182 31.3578H60.6284L56.6974 38.0551C56.6936 38.0592 56.6904 38.0638 56.6874 38.0687L55.2784 40.445C55.2273 40.5327 55.2002 40.6334 55.2002 40.7357C55.2002 41.0386 55.4351 41.2885 55.7244 41.2931L58.4233 41.2969L58.4536 41.2966C58.7383 41.2966 58.9984 41.1458 59.1505 40.8919L62.3286 35.4157C62.3597 35.3629 62.4271 35.3334 62.4845 35.3469C64.9682 35.9473 67.5059 36.2518 70.0272 36.2518C72.4906 36.2518 74.9745 35.9597 77.4095 35.384C77.4709 35.3705 77.5318 35.3967 77.5645 35.4517L79.8588 39.3233C79.8604 39.3276 79.8625 39.3322 79.865 39.336L80.7854 40.8933C80.9367 41.1458 81.1971 41.2966 81.4821 41.2969L84.1584 41.2931C84.4469 41.2885 84.6818 41.0386 84.6818 40.7357C84.6818 40.6334 84.6545 40.5327 84.6033 40.445C84.6033 40.4448 84.6031 40.4448 84.6031 40.4445L79.2284 31.3578H79.2314L79.1627 31.2468L79.1594 31.2409C79.1383 31.2068 79.1315 31.1645 79.141 31.1256C79.151 31.086 79.1767 31.0517 79.2117 31.0311L80.8953 30.0355C83.5911 28.4414 85.219 25.4479 85.0429 22.4089C85.0404 22.3653 85.0569 22.3226 85.0883 22.2917L86.2388 21.1694C89.3103 18.7828 90.6963 14.6629 89.6091 11.15C89.5937 11.101 89.6045 11.0474 89.6378 11.0073Z" fill="#0030B9"/>
</g>
<defs>
<clipPath id="clip0_1593_17396">
<rect width="141" height="41" fill="white" transform="matrix(1 0 0 -1 0 41)"/>
</clipPath>
</defs>
</svg>
