<svg width="345" height="169" viewBox="0 0 345 169" fill="none" xmlns="http://www.w3.org/2000/svg">
<path d="M133.837 47.872C134.287 47.822 134.937 47.382 134.937 46.462C134.937 45.362 134.137 44.632 132.907 44.632H129.437V51.332H132.917C134.377 51.332 135.127 50.562 135.127 49.452C135.127 48.442 134.457 47.962 133.837 47.912V47.872ZM131.087 45.962H132.587C133.007 45.962 133.337 46.232 133.337 46.652C133.337 47.102 133.017 47.402 132.527 47.402H131.087V45.962ZM131.087 50.002V48.532H132.657C133.127 48.532 133.447 48.812 133.447 49.252C133.447 49.712 133.157 50.002 132.627 50.002H131.087ZM138.509 46.182C136.989 46.182 135.729 47.242 135.729 48.822C135.729 50.412 136.989 51.472 138.509 51.472C139.999 51.472 141.259 50.412 141.259 48.822C141.259 47.242 139.999 46.182 138.509 46.182ZM138.509 50.122C137.859 50.122 137.269 49.612 137.269 48.822C137.269 48.042 137.859 47.522 138.509 47.522C139.129 47.522 139.719 48.042 139.719 48.822C139.719 49.612 139.129 50.122 138.509 50.122ZM143.614 43.632H142.014V49.742C142.014 50.782 142.704 51.482 143.744 51.482C144.324 51.482 144.634 51.312 144.924 51.172L144.674 49.922C144.444 50.002 144.234 50.062 144.094 50.062C143.804 50.062 143.614 49.882 143.614 49.622V43.632ZM150.314 48.822C150.284 47.182 149.144 46.162 147.724 46.162C146.264 46.162 145.064 47.242 145.064 48.822C145.064 50.412 146.264 51.482 147.714 51.482C148.864 51.482 149.774 50.972 150.204 49.912L148.784 49.622C148.514 50.112 148.084 50.202 147.714 50.202C147.174 50.202 146.764 49.832 146.634 49.232H150.314V48.822ZM147.724 47.462C148.184 47.462 148.584 47.712 148.734 48.252H146.664C146.814 47.742 147.274 47.462 147.724 47.462ZM154.496 49.852C154.286 49.972 153.986 50.052 153.766 50.052C153.346 50.052 153.096 49.842 153.096 49.322V47.582H154.576V46.312H153.096V44.632H151.496V46.312H150.586V47.582H151.496V49.482C151.496 50.802 152.246 51.482 153.496 51.482C154.066 51.482 154.476 51.322 154.866 51.112L154.496 49.852ZM157.825 46.182C156.305 46.182 155.045 47.242 155.045 48.822C155.045 50.412 156.305 51.472 157.825 51.472C159.315 51.472 160.575 50.412 160.575 48.822C160.575 47.242 159.315 46.182 157.825 46.182ZM157.825 50.122C157.175 50.122 156.585 49.612 156.585 48.822C156.585 48.042 157.175 47.522 157.825 47.522C158.445 47.522 159.035 48.042 159.035 48.822C159.035 49.612 158.445 50.122 157.825 50.122ZM203.043 46.282C202.203 46.282 201.513 46.632 201.083 47.232V46.402H200.323V53.732H201.083V50.512C201.513 51.112 202.203 51.462 203.043 51.462C204.353 51.462 205.503 50.432 205.503 48.872C205.503 47.312 204.353 46.282 203.043 46.282ZM202.923 50.782C201.993 50.782 201.083 50.042 201.083 48.872C201.083 47.692 201.993 46.952 202.923 46.952C203.943 46.952 204.763 47.692 204.763 48.872C204.763 50.042 203.943 50.782 202.923 50.782ZM208.988 46.292C207.518 46.292 206.368 47.352 206.368 48.862C206.368 50.372 207.518 51.452 208.988 51.452C210.438 51.452 211.598 50.372 211.598 48.862C211.598 47.352 210.438 46.292 208.988 46.292ZM208.988 50.782C207.968 50.782 207.108 50.002 207.108 48.862C207.108 47.732 207.968 46.962 208.988 46.962C209.998 46.962 210.848 47.732 210.848 48.862C210.848 50.002 209.998 50.782 208.988 50.782ZM215.651 46.352C214.741 46.352 214.071 46.882 213.671 47.612V46.402H212.901V51.332H213.671V49.432C213.671 48.102 214.341 47.112 215.651 47.112C215.741 47.112 215.851 47.112 215.941 47.122L216.001 46.392C215.861 46.352 215.771 46.352 215.651 46.352ZM129.864 64.442C129.614 64.622 129.304 64.742 129.024 64.742C128.474 64.742 128.114 64.382 128.114 63.742V61.042H129.874V60.402H128.114V58.632H127.344V60.402H126.274V61.042H127.344V63.792C127.344 64.882 127.994 65.462 128.974 65.462C129.374 65.462 129.714 65.352 130.114 65.072L129.864 64.442ZM133.84 60.352C132.93 60.352 132.26 60.882 131.86 61.612V60.402H131.09V65.332H131.86V63.432C131.86 62.102 132.53 61.112 133.84 61.112C133.93 61.112 134.04 61.112 134.13 61.122L134.19 60.392C134.05 60.352 133.96 60.352 133.84 60.352ZM136.974 60.282C135.894 60.282 135.064 60.892 134.904 61.782L135.634 61.942C135.744 61.322 136.264 60.952 137.014 60.952C137.774 60.952 138.274 61.412 138.274 62.182V62.412H136.614C135.324 62.412 134.634 63.052 134.634 63.952C134.634 64.842 135.344 65.462 136.424 65.462C137.274 65.462 137.894 65.092 138.274 64.582V65.332H139.014V62.132C139.014 60.942 138.204 60.282 136.974 60.282ZM136.534 64.832C135.824 64.832 135.364 64.462 135.364 63.942C135.364 63.402 135.794 63.012 136.604 63.012H138.274V63.272C138.274 64.162 137.494 64.832 136.534 64.832ZM143.153 60.282C142.323 60.282 141.693 60.622 141.293 61.222V60.402H140.533V65.332H141.293V62.962C141.293 61.682 141.973 60.982 143.003 60.982C143.823 60.982 144.373 61.602 144.373 62.522V65.332H145.133V62.382C145.133 61.132 144.343 60.282 143.153 60.282ZM146.354 64.002C146.474 64.962 147.374 65.462 148.504 65.462C149.684 65.462 150.494 64.912 150.494 63.942C150.494 63.192 149.944 62.812 149.224 62.652L148.034 62.392C147.554 62.282 147.284 62.102 147.284 61.712C147.284 61.242 147.674 60.902 148.374 60.902C149.104 60.902 149.574 61.272 149.674 61.812L150.404 61.652C150.224 60.852 149.504 60.282 148.394 60.282C147.264 60.282 146.524 60.882 146.524 61.772C146.524 62.452 146.984 62.862 147.804 63.032L148.934 63.282C149.434 63.392 149.744 63.582 149.744 63.992C149.744 64.502 149.274 64.832 148.564 64.832C147.784 64.832 147.184 64.482 147.114 63.832L146.354 64.002ZM153.722 60.282C152.642 60.282 151.812 60.892 151.652 61.782L152.382 61.942C152.492 61.322 153.012 60.952 153.762 60.952C154.522 60.952 155.022 61.412 155.022 62.182V62.412H153.362C152.072 62.412 151.382 63.052 151.382 63.952C151.382 64.842 152.092 65.462 153.172 65.462C154.022 65.462 154.642 65.092 155.022 64.582V65.332H155.762V62.132C155.762 60.942 154.952 60.282 153.722 60.282ZM153.282 64.832C152.572 64.832 152.112 64.462 152.112 63.942C152.112 63.402 152.542 63.012 153.352 63.012H155.022V63.272C155.022 64.162 154.242 64.832 153.282 64.832ZM159.401 64.752C158.391 64.752 157.571 64.022 157.571 62.872C157.571 61.742 158.391 60.982 159.401 60.982C160.131 60.982 160.771 61.382 161.011 62.142L161.741 61.922C161.421 60.912 160.481 60.282 159.401 60.282C158.011 60.282 156.831 61.322 156.831 62.872C156.831 64.322 157.831 65.292 159.071 65.442L158.131 67.032H158.961L159.681 65.452C160.651 65.352 161.461 64.732 161.731 63.832L161.031 63.642C160.771 64.362 160.131 64.752 159.401 64.752ZM164.364 58.962C164.814 58.962 164.984 59.442 165.584 59.442C166.014 59.442 166.454 59.162 166.454 58.402H165.914C165.914 58.682 165.774 58.872 165.544 58.872C165.094 58.872 164.924 58.392 164.324 58.392C163.894 58.392 163.454 58.662 163.454 59.412H163.994C163.994 59.152 164.134 58.962 164.364 58.962ZM164.904 60.282C163.824 60.282 162.994 60.892 162.834 61.782L163.564 61.942C163.674 61.322 164.194 60.952 164.944 60.952C165.704 60.952 166.204 61.412 166.204 62.182V62.412H164.544C163.254 62.412 162.564 63.052 162.564 63.952C162.564 64.842 163.274 65.462 164.354 65.462C165.204 65.462 165.824 65.092 166.204 64.582V65.332H166.944V62.132C166.944 60.942 166.134 60.282 164.904 60.282ZM164.464 64.832C163.754 64.832 163.294 64.462 163.294 63.942C163.294 63.402 163.724 63.012 164.534 63.012H166.204V63.272C166.204 64.162 165.424 64.832 164.464 64.832ZM170.633 60.292C169.163 60.292 168.013 61.352 168.013 62.862C168.013 64.372 169.163 65.452 170.633 65.452C172.083 65.452 173.243 64.372 173.243 62.862C173.243 61.352 172.083 60.292 170.633 60.292ZM170.633 64.782C169.613 64.782 168.753 64.002 168.753 62.862C168.753 61.732 169.613 60.962 170.633 60.962C171.643 60.962 172.493 61.732 172.493 62.862C172.493 64.002 171.643 64.782 170.633 64.782ZM179.817 60.352C178.907 60.352 178.237 60.882 177.837 61.612V60.402H177.067V65.332H177.837V63.432C177.837 62.102 178.507 61.112 179.817 61.112C179.907 61.112 180.017 61.112 180.107 61.122L180.167 60.392C180.027 60.352 179.937 60.352 179.817 60.352ZM185.581 62.742C185.531 61.272 184.491 60.282 183.161 60.282C181.801 60.282 180.611 61.302 180.611 62.882C180.611 64.452 181.801 65.462 183.111 65.462C184.221 65.462 185.081 64.922 185.471 63.892L184.791 63.732C184.441 64.522 183.811 64.792 183.111 64.792C182.261 64.792 181.421 64.132 181.351 63.022H185.581V62.742ZM183.161 60.952C183.981 60.952 184.671 61.482 184.811 62.452H181.381C181.531 61.482 182.361 60.952 183.161 60.952ZM189.011 64.752C188.001 64.752 187.181 64.022 187.181 62.872C187.181 61.742 188.001 60.982 189.011 60.982C189.741 60.982 190.381 61.382 190.621 62.142L191.351 61.922C191.031 60.912 190.091 60.282 189.011 60.282C187.621 60.282 186.441 61.322 186.441 62.872C186.441 64.442 187.621 65.462 189.011 65.462C190.101 65.462 191.051 64.812 191.341 63.832L190.641 63.642C190.381 64.362 189.741 64.752 189.011 64.752ZM197.172 62.742C197.122 61.272 196.082 60.282 194.752 60.282C193.392 60.282 192.202 61.302 192.202 62.882C192.202 64.452 193.392 65.462 194.702 65.462C195.812 65.462 196.672 64.922 197.062 63.892L196.382 63.732C196.032 64.522 195.402 64.792 194.702 64.792C193.852 64.792 193.012 64.132 192.942 63.022H197.172V62.742ZM194.752 60.952C195.572 60.952 196.262 61.482 196.402 62.452H192.972C193.122 61.482 193.952 60.952 194.752 60.952ZM201.203 60.282C200.363 60.282 199.673 60.632 199.243 61.232V57.632H198.483V65.332H199.243V64.512C199.673 65.112 200.363 65.462 201.203 65.462C202.513 65.462 203.663 64.432 203.663 62.872C203.663 61.312 202.513 60.282 201.203 60.282ZM201.083 64.782C200.153 64.782 199.243 64.042 199.243 62.872C199.243 61.692 200.153 60.952 201.083 60.952C202.103 60.952 202.923 61.692 202.923 62.872C202.923 64.042 202.103 64.782 201.083 64.782ZM205.437 58.402C205.137 58.402 204.917 58.642 204.917 58.912C204.917 59.202 205.137 59.422 205.437 59.422C205.737 59.422 205.967 59.202 205.967 58.912C205.967 58.642 205.737 58.402 205.437 58.402ZM205.827 65.332V60.402H205.057V65.332H205.827ZM212.392 57.632H211.632V61.232C211.202 60.632 210.512 60.282 209.672 60.282C208.362 60.282 207.212 61.312 207.212 62.872C207.212 64.432 208.362 65.462 209.672 65.462C210.512 65.462 211.202 65.112 211.632 64.512V65.332H212.392V57.632ZM209.792 64.782C208.772 64.782 207.952 64.042 207.952 62.872C207.952 61.692 208.772 60.952 209.792 60.952C210.722 60.952 211.632 61.692 211.632 62.872C211.632 64.042 210.722 64.782 209.792 64.782ZM216.046 60.282C214.966 60.282 214.136 60.892 213.976 61.782L214.706 61.942C214.816 61.322 215.336 60.952 216.086 60.952C216.846 60.952 217.346 61.412 217.346 62.182V62.412H215.686C214.396 62.412 213.706 63.052 213.706 63.952C213.706 64.842 214.416 65.462 215.496 65.462C216.346 65.462 216.966 65.092 217.346 64.582V65.332H218.086V62.132C218.086 60.942 217.276 60.282 216.046 60.282ZM215.606 64.832C214.896 64.832 214.436 64.462 214.436 63.942C214.436 63.402 214.866 63.012 215.676 63.012H217.346V63.272C217.346 64.162 216.566 64.832 215.606 64.832Z" fill="#4A4A4A"/>
<path d="M170.06 51.332L167.96 48.952C169.04 48.712 169.72 47.922 169.72 46.822C169.72 45.512 168.76 44.632 167.31 44.632H163.92V51.332H165.57V49.032H166.05L168.07 51.332H170.06ZM165.57 47.652V46.042H167.13C167.72 46.042 168.1 46.362 168.1 46.842C168.1 47.332 167.72 47.652 167.13 47.652H165.57ZM175.797 49.222C175.797 48.222 175.177 47.642 174.077 47.392L172.787 47.102C172.437 47.022 172.297 46.842 172.297 46.582C172.297 46.222 172.627 45.952 173.127 45.952C173.597 45.952 174.167 46.182 174.227 46.982L175.747 46.722C175.647 45.702 174.917 45.002 173.867 44.772V43.632H172.537V44.742C171.417 44.922 170.647 45.622 170.647 46.712C170.647 47.792 171.437 48.292 172.367 48.492L173.637 48.772C174.077 48.872 174.207 49.062 174.207 49.322C174.207 49.692 173.837 49.962 173.287 49.962C172.737 49.962 172.157 49.712 172.057 48.902L170.497 49.202C170.607 50.252 171.477 50.952 172.537 51.182V52.332H173.867V51.212C174.937 51.042 175.797 50.372 175.797 49.222ZM181.745 44.632H180.705L178.545 45.872V47.352L180.145 46.532V51.332H181.745V44.632ZM183.681 52.652L184.831 49.812V49.772H183.061L182.471 52.652H183.681ZM189.358 47.902C189.988 47.612 190.358 47.072 190.358 46.362C190.358 45.262 189.368 44.482 187.948 44.482C186.528 44.482 185.538 45.262 185.538 46.362C185.538 47.082 185.898 47.612 186.528 47.902C185.748 48.192 185.308 48.762 185.308 49.502C185.308 50.662 186.368 51.482 187.948 51.482C189.518 51.482 190.568 50.662 190.568 49.502C190.568 48.772 190.128 48.202 189.358 47.902ZM187.938 45.722C188.398 45.722 188.828 45.992 188.828 46.492C188.828 46.992 188.398 47.272 187.938 47.272C187.468 47.272 187.068 47.002 187.068 46.502C187.068 45.992 187.478 45.722 187.938 45.722ZM187.938 50.182C187.448 50.182 187.028 49.902 187.028 49.382C187.028 48.842 187.448 48.562 187.938 48.562C188.418 48.562 188.868 48.842 188.868 49.362C188.868 49.892 188.418 50.182 187.938 50.182ZM193.711 44.482C192.231 44.482 191.181 45.432 191.181 46.762C191.181 48.072 192.081 48.982 193.511 48.982C194.091 48.982 194.651 48.752 195.021 48.372C195.011 48.922 194.881 49.392 194.571 49.732C194.361 49.962 194.081 50.112 193.751 50.112C193.301 50.112 193.001 49.972 192.871 49.542L191.321 49.842C191.601 50.902 192.501 51.482 193.691 51.482C194.491 51.482 195.141 51.182 195.621 50.692C196.281 50.022 196.551 49.052 196.551 47.862C196.551 45.702 195.421 44.482 193.711 44.482ZM193.751 47.782C193.231 47.782 192.741 47.382 192.741 46.812C192.741 46.242 193.231 45.832 193.751 45.832C194.261 45.832 194.731 46.232 194.731 46.792C194.731 47.382 194.261 47.782 193.751 47.782Z" fill="#2E93EE"/>
<rect x="156" width="36" height="33.3333" rx="15" fill="#0030B9"/>
<path d="M178 20H170V18.6667H178V20ZM178 17.3333H170V16H178V17.3333ZM178 14.6667H170V13.3333H178V14.6667ZM168 23.3333L169 22.3333L170 23.3333L171 22.3333L172 23.3333L173 22.3333L174 23.3333L175 22.3333L176 23.3333L177 22.3333L178 23.3333L179 22.3333L180 23.3333V10L179 11L178 10L177 11L176 10L175 11L174 10L173 11L172 10L171 11L170 10L169 11L168 10V23.3333Z" fill="white"/>
<path d="M20.621 44.3V51H22.271V48.95H23.851C25.401 48.95 26.381 48.02 26.381 46.61C26.381 45.23 25.431 44.3 23.921 44.3H20.621ZM22.271 47.57V45.71H23.731C24.371 45.71 24.761 46.09 24.761 46.63C24.761 47.2 24.371 47.57 23.731 47.57H22.271ZM28.1416 43.59C27.6016 43.59 27.2216 44.01 27.2216 44.5C27.2216 45.01 27.6016 45.39 28.1416 45.39C28.6816 45.39 29.0716 45.01 29.0716 44.5C29.0716 44.01 28.6816 43.59 28.1416 43.59ZM28.9416 51V45.98H27.3416V51H28.9416ZM33.7616 48.57L35.4216 45.97H33.5816L32.6216 47.53L31.6516 45.97H29.8216L31.4716 48.57L29.8216 51H31.6516L32.6216 49.55L33.5816 51H35.4216L33.7616 48.57ZM77.8598 45.95C77.0198 45.95 76.3298 46.3 75.8998 46.9V46.07H75.1398V53.4H75.8998V50.18C76.3298 50.78 77.0198 51.13 77.8598 51.13C79.1698 51.13 80.3198 50.1 80.3198 48.54C80.3198 46.98 79.1698 45.95 77.8598 45.95ZM77.7398 50.45C76.8098 50.45 75.8998 49.71 75.8998 48.54C75.8998 47.36 76.8098 46.62 77.7398 46.62C78.7598 46.62 79.5798 47.36 79.5798 48.54C79.5798 49.71 78.7598 50.45 77.7398 50.45ZM83.8039 45.96C82.3339 45.96 81.1839 47.02 81.1839 48.53C81.1839 50.04 82.3339 51.12 83.8039 51.12C85.2539 51.12 86.4139 50.04 86.4139 48.53C86.4139 47.02 85.2539 45.96 83.8039 45.96ZM83.8039 50.45C82.7839 50.45 81.9239 49.67 81.9239 48.53C81.9239 47.4 82.7839 46.63 83.8039 46.63C84.8139 46.63 85.6639 47.4 85.6639 48.53C85.6639 49.67 84.8139 50.45 83.8039 50.45ZM90.4679 46.02C89.5579 46.02 88.8879 46.55 88.4879 47.28V46.07H87.7179V51H88.4879V49.1C88.4879 47.77 89.1579 46.78 90.4679 46.78C90.5579 46.78 90.6679 46.78 90.7579 46.79L90.8179 46.06C90.6779 46.02 90.5879 46.02 90.4679 46.02ZM12.8644 64.11C12.6144 64.29 12.3044 64.41 12.0244 64.41C11.4744 64.41 11.1144 64.05 11.1144 63.41V60.71H12.8744V60.07H11.1144V58.3H10.3444V60.07H9.27441V60.71H10.3444V63.46C10.3444 64.55 10.9944 65.13 11.9744 65.13C12.3744 65.13 12.7144 65.02 13.1144 64.74L12.8644 64.11ZM16.84 60.02C15.93 60.02 15.26 60.55 14.86 61.28V60.07H14.09V65H14.86V63.1C14.86 61.77 15.53 60.78 16.84 60.78C16.93 60.78 17.04 60.78 17.13 60.79L17.19 60.06C17.05 60.02 16.96 60.02 16.84 60.02ZM19.9741 59.95C18.8941 59.95 18.0641 60.56 17.9041 61.45L18.6341 61.61C18.7441 60.99 19.2641 60.62 20.0141 60.62C20.7741 60.62 21.2741 61.08 21.2741 61.85V62.08H19.6141C18.3241 62.08 17.6341 62.72 17.6341 63.62C17.6341 64.51 18.3441 65.13 19.4241 65.13C20.2741 65.13 20.8941 64.76 21.2741 64.25V65H22.0141V61.8C22.0141 60.61 21.2041 59.95 19.9741 59.95ZM19.5341 64.5C18.8241 64.5 18.3641 64.13 18.3641 63.61C18.3641 63.07 18.7941 62.68 19.6041 62.68H21.2741V62.94C21.2741 63.83 20.4941 64.5 19.5341 64.5ZM26.1533 59.95C25.3233 59.95 24.6933 60.29 24.2933 60.89V60.07H23.5333V65H24.2933V62.63C24.2933 61.35 24.9733 60.65 26.0033 60.65C26.8233 60.65 27.3733 61.27 27.3733 62.19V65H28.1333V62.05C28.1333 60.8 27.3433 59.95 26.1533 59.95ZM29.3536 63.67C29.4736 64.63 30.3736 65.13 31.5036 65.13C32.6836 65.13 33.4936 64.58 33.4936 63.61C33.4936 62.86 32.9436 62.48 32.2236 62.32L31.0336 62.06C30.5536 61.95 30.2836 61.77 30.2836 61.38C30.2836 60.91 30.6736 60.57 31.3736 60.57C32.1036 60.57 32.5736 60.94 32.6736 61.48L33.4036 61.32C33.2236 60.52 32.5036 59.95 31.3936 59.95C30.2636 59.95 29.5236 60.55 29.5236 61.44C29.5236 62.12 29.9836 62.53 30.8036 62.7L31.9336 62.95C32.4336 63.06 32.7436 63.25 32.7436 63.66C32.7436 64.17 32.2736 64.5 31.5636 64.5C30.7836 64.5 30.1836 64.15 30.1136 63.5L29.3536 63.67ZM36.7221 59.95C35.6421 59.95 34.8121 60.56 34.6521 61.45L35.3821 61.61C35.4921 60.99 36.0121 60.62 36.7621 60.62C37.5221 60.62 38.0221 61.08 38.0221 61.85V62.08H36.3621C35.0721 62.08 34.3821 62.72 34.3821 63.62C34.3821 64.51 35.0921 65.13 36.1721 65.13C37.0221 65.13 37.6421 64.76 38.0221 64.25V65H38.7621V61.8C38.7621 60.61 37.9521 59.95 36.7221 59.95ZM36.2821 64.5C35.5721 64.5 35.1121 64.13 35.1121 63.61C35.1121 63.07 35.5421 62.68 36.3521 62.68H38.0221V62.94C38.0221 63.83 37.2421 64.5 36.2821 64.5ZM42.4014 64.42C41.3914 64.42 40.5714 63.69 40.5714 62.54C40.5714 61.41 41.3914 60.65 42.4014 60.65C43.1314 60.65 43.7714 61.05 44.0114 61.81L44.7414 61.59C44.4214 60.58 43.4814 59.95 42.4014 59.95C41.0114 59.95 39.8314 60.99 39.8314 62.54C39.8314 63.99 40.8314 64.96 42.0714 65.11L41.1314 66.7H41.9614L42.6814 65.12C43.6514 65.02 44.4614 64.4 44.7314 63.5L44.0314 63.31C43.7714 64.03 43.1314 64.42 42.4014 64.42ZM47.3638 58.63C47.8138 58.63 47.9838 59.11 48.5838 59.11C49.0138 59.11 49.4538 58.83 49.4538 58.07H48.9138C48.9138 58.35 48.7738 58.54 48.5438 58.54C48.0938 58.54 47.9238 58.06 47.3238 58.06C46.8938 58.06 46.4538 58.33 46.4538 59.08H46.9938C46.9938 58.82 47.1338 58.63 47.3638 58.63ZM47.9038 59.95C46.8238 59.95 45.9938 60.56 45.8338 61.45L46.5638 61.61C46.6738 60.99 47.1938 60.62 47.9438 60.62C48.7038 60.62 49.2038 61.08 49.2038 61.85V62.08H47.5438C46.2538 62.08 45.5638 62.72 45.5638 63.62C45.5638 64.51 46.2738 65.13 47.3538 65.13C48.2038 65.13 48.8238 64.76 49.2038 64.25V65H49.9438V61.8C49.9438 60.61 49.1338 59.95 47.9038 59.95ZM47.4638 64.5C46.7538 64.5 46.2938 64.13 46.2938 63.61C46.2938 63.07 46.7238 62.68 47.5338 62.68H49.2038V62.94C49.2038 63.83 48.4238 64.5 47.4638 64.5ZM53.633 59.96C52.163 59.96 51.013 61.02 51.013 62.53C51.013 64.04 52.163 65.12 53.633 65.12C55.083 65.12 56.243 64.04 56.243 62.53C56.243 61.02 55.083 59.96 53.633 59.96ZM53.633 64.45C52.613 64.45 51.753 63.67 51.753 62.53C51.753 61.4 52.613 60.63 53.633 60.63C54.643 60.63 55.493 61.4 55.493 62.53C55.493 63.67 54.643 64.45 53.633 64.45ZM62.8165 60.02C61.9065 60.02 61.2365 60.55 60.8365 61.28V60.07H60.0665V65H60.8365V63.1C60.8365 61.77 61.5065 60.78 62.8165 60.78C62.9065 60.78 63.0165 60.78 63.1065 60.79L63.1665 60.06C63.0265 60.02 62.9365 60.02 62.8165 60.02ZM68.5807 62.41C68.5307 60.94 67.4907 59.95 66.1607 59.95C64.8007 59.95 63.6107 60.97 63.6107 62.55C63.6107 64.12 64.8007 65.13 66.1107 65.13C67.2207 65.13 68.0807 64.59 68.4707 63.56L67.7907 63.4C67.4407 64.19 66.8107 64.46 66.1107 64.46C65.2607 64.46 64.4207 63.8 64.3507 62.69H68.5807V62.41ZM66.1607 60.62C66.9807 60.62 67.6707 61.15 67.8107 62.12H64.3807C64.5307 61.15 65.3607 60.62 66.1607 60.62ZM72.0107 64.42C71.0007 64.42 70.1807 63.69 70.1807 62.54C70.1807 61.41 71.0007 60.65 72.0107 60.65C72.7407 60.65 73.3807 61.05 73.6207 61.81L74.3507 61.59C74.0307 60.58 73.0907 59.95 72.0107 59.95C70.6207 59.95 69.4407 60.99 69.4407 62.54C69.4407 64.11 70.6207 65.13 72.0107 65.13C73.1007 65.13 74.0507 64.48 74.3407 63.5L73.6407 63.31C73.3807 64.03 72.7407 64.42 72.0107 64.42ZM80.1725 62.41C80.1225 60.94 79.0825 59.95 77.7525 59.95C76.3925 59.95 75.2025 60.97 75.2025 62.55C75.2025 64.12 76.3925 65.13 77.7025 65.13C78.8125 65.13 79.6725 64.59 80.0625 63.56L79.3825 63.4C79.0325 64.19 78.4025 64.46 77.7025 64.46C76.8525 64.46 76.0125 63.8 75.9425 62.69H80.1725V62.41ZM77.7525 60.62C78.5725 60.62 79.2625 61.15 79.4025 62.12H75.9725C76.1225 61.15 76.9525 60.62 77.7525 60.62ZM84.2025 59.95C83.3625 59.95 82.6725 60.3 82.2425 60.9V57.3H81.4825V65H82.2425V64.18C82.6725 64.78 83.3625 65.13 84.2025 65.13C85.5125 65.13 86.6625 64.1 86.6625 62.54C86.6625 60.98 85.5125 59.95 84.2025 59.95ZM84.0825 64.45C83.1525 64.45 82.2425 63.71 82.2425 62.54C82.2425 61.36 83.1525 60.62 84.0825 60.62C85.1025 60.62 85.9225 61.36 85.9225 62.54C85.9225 63.71 85.1025 64.45 84.0825 64.45ZM88.4367 58.07C88.1367 58.07 87.9167 58.31 87.9167 58.58C87.9167 58.87 88.1367 59.09 88.4367 59.09C88.7367 59.09 88.9667 58.87 88.9667 58.58C88.9667 58.31 88.7367 58.07 88.4367 58.07ZM88.8267 65V60.07H88.0567V65H88.8267ZM95.3922 57.3H94.6322V60.9C94.2022 60.3 93.5122 59.95 92.6722 59.95C91.3622 59.95 90.2122 60.98 90.2122 62.54C90.2122 64.1 91.3622 65.13 92.6722 65.13C93.5122 65.13 94.2022 64.78 94.6322 64.18V65H95.3922V57.3ZM92.7922 64.45C91.7722 64.45 90.9522 63.71 90.9522 62.54C90.9522 61.36 91.7722 60.62 92.7922 60.62C93.7222 60.62 94.6322 61.36 94.6322 62.54C94.6322 63.71 93.7222 64.45 92.7922 64.45ZM99.0464 59.95C97.9664 59.95 97.1364 60.56 96.9764 61.45L97.7064 61.61C97.8164 60.99 98.3364 60.62 99.0864 60.62C99.8464 60.62 100.346 61.08 100.346 61.85V62.08H98.6864C97.3964 62.08 96.7064 62.72 96.7064 63.62C96.7064 64.51 97.4164 65.13 98.4964 65.13C99.3464 65.13 99.9664 64.76 100.346 64.25V65H101.086V61.8C101.086 60.61 100.276 59.95 99.0464 59.95ZM98.6064 64.5C97.8964 64.5 97.4364 64.13 97.4364 63.61C97.4364 63.07 97.8664 62.68 98.6764 62.68H100.346V62.94C100.346 63.83 99.5664 64.5 98.6064 64.5Z" fill="#4A4A4A"/>
<path d="M44.8763 51L42.7763 48.62C43.8563 48.38 44.5363 47.59 44.5363 46.49C44.5363 45.18 43.5763 44.3 42.1263 44.3H38.7363V51H40.3863V48.7H40.8663L42.8863 51H44.8763ZM40.3863 47.32V45.71H41.9463C42.5363 45.71 42.9163 46.03 42.9163 46.51C42.9163 47 42.5363 47.32 41.9463 47.32H40.3863ZM50.6134 48.89C50.6134 47.89 49.9934 47.31 48.8934 47.06L47.6034 46.77C47.2534 46.69 47.1134 46.51 47.1134 46.25C47.1134 45.89 47.4434 45.62 47.9434 45.62C48.4134 45.62 48.9834 45.85 49.0434 46.65L50.5634 46.39C50.4634 45.37 49.7334 44.67 48.6834 44.44V43.3H47.3534V44.41C46.2334 44.59 45.4634 45.29 45.4634 46.38C45.4634 47.46 46.2534 47.96 47.1834 48.16L48.4534 48.44C48.8934 48.54 49.0234 48.73 49.0234 48.99C49.0234 49.36 48.6534 49.63 48.1034 49.63C47.5534 49.63 46.9734 49.38 46.8734 48.57L45.3134 48.87C45.4234 49.92 46.2934 50.62 47.3534 50.85V52H48.6834V50.88C49.7534 50.71 50.6134 50.04 50.6134 48.89ZM56.5618 44.3H55.5218L53.3618 45.54V47.02L54.9618 46.2V51H56.5618V44.3ZM58.4978 52.32L59.6478 49.48V49.44H57.8778L57.2878 52.32H58.4978ZM64.1745 47.57C64.8045 47.28 65.1745 46.74 65.1745 46.03C65.1745 44.93 64.1845 44.15 62.7645 44.15C61.3445 44.15 60.3545 44.93 60.3545 46.03C60.3545 46.75 60.7145 47.28 61.3445 47.57C60.5645 47.86 60.1245 48.43 60.1245 49.17C60.1245 50.33 61.1845 51.15 62.7645 51.15C64.3345 51.15 65.3845 50.33 65.3845 49.17C65.3845 48.44 64.9445 47.87 64.1745 47.57ZM62.7545 45.39C63.2145 45.39 63.6445 45.66 63.6445 46.16C63.6445 46.66 63.2145 46.94 62.7545 46.94C62.2845 46.94 61.8845 46.67 61.8845 46.17C61.8845 45.66 62.2945 45.39 62.7545 45.39ZM62.7545 49.85C62.2645 49.85 61.8445 49.57 61.8445 49.05C61.8445 48.51 62.2645 48.23 62.7545 48.23C63.2345 48.23 63.6845 48.51 63.6845 49.03C63.6845 49.56 63.2345 49.85 62.7545 49.85ZM68.527 44.15C67.047 44.15 65.997 45.1 65.997 46.43C65.997 47.74 66.897 48.65 68.327 48.65C68.907 48.65 69.467 48.42 69.837 48.04C69.827 48.59 69.697 49.06 69.387 49.4C69.177 49.63 68.897 49.78 68.567 49.78C68.117 49.78 67.817 49.64 67.687 49.21L66.137 49.51C66.417 50.57 67.317 51.15 68.507 51.15C69.307 51.15 69.957 50.85 70.437 50.36C71.097 49.69 71.367 48.72 71.367 47.53C71.367 45.37 70.237 44.15 68.527 44.15ZM68.567 47.45C68.047 47.45 67.557 47.05 67.557 46.48C67.557 45.91 68.047 45.5 68.567 45.5C69.077 45.5 69.547 45.9 69.547 46.46C69.547 47.05 69.077 47.45 68.567 47.45Z" fill="#2E93EE"/>
<rect x="39" y="1" width="36" height="31.9981" rx="15" fill="#0030B9"/>
<path d="M60.359 20.1772C60.1276 20.1781 59.8983 20.133 59.6844 20.0447C59.4705 19.9564 59.2762 19.8266 59.1127 19.6628L57.3125 17.8615C57.2488 17.8006 57.1641 17.7666 57.076 17.7666C56.9879 17.7666 56.9032 17.8006 56.8396 17.8615L55.0333 19.6678C54.8699 19.8318 54.6757 19.9619 54.4618 20.0504C54.2479 20.139 54.0185 20.1843 53.787 20.1837H53.4346L55.7157 22.4648C56.0578 22.8062 56.5214 22.998 57.0048 22.998C57.4881 22.998 57.9517 22.8062 58.2938 22.4648L60.5795 20.1787L60.359 20.1772Z" fill="white"/>
<path d="M53.7874 13.8133C54.0189 13.8127 54.2483 13.858 54.4622 13.9465C54.6761 14.0351 54.8703 14.1652 55.0337 14.3292L56.8399 16.1359C56.9027 16.1985 56.9878 16.2337 57.0764 16.2337C57.1651 16.2337 57.2501 16.1985 57.3129 16.1359L59.1127 14.3361C59.2759 14.1718 59.4701 14.0416 59.6841 13.9529C59.898 13.8643 60.1274 13.8191 60.359 13.8198H60.5757L58.29 11.5341C58.1207 11.3648 57.9198 11.2304 57.6986 11.1388C57.4774 11.0472 57.2404 11 57.001 11C56.7615 11 56.5245 11.0472 56.3033 11.1388C56.0821 11.2304 55.8812 11.3648 55.7119 11.5341L53.4346 13.8133H53.7874Z" fill="white"/>
<path d="M62.4659 15.7086L61.0847 14.3274C61.0535 14.3401 61.0202 14.3468 60.9866 14.3471H60.3585C60.0317 14.348 59.7184 14.4778 59.4867 14.7083L57.6869 16.507C57.5248 16.6688 57.3052 16.7597 57.0761 16.7597C56.8471 16.7597 56.6274 16.6688 56.4654 16.507L54.6587 14.7015C54.4271 14.4708 54.1138 14.3408 53.7869 14.3399H53.0159C52.9841 14.3392 52.9527 14.3329 52.9231 14.3213L51.5331 15.7086C51.1917 16.0507 51 16.5143 51 16.9976C51 17.481 51.1917 17.9446 51.5331 18.2867L52.9201 19.6736C52.9496 19.6618 52.981 19.6555 53.0128 19.655H53.7869C54.1138 19.654 54.4271 19.5241 54.6587 19.2934L56.465 17.4871C56.7916 17.1609 57.3607 17.1609 57.6869 17.4871L59.4867 19.2866C59.7184 19.5172 60.0317 19.647 60.3585 19.6478H60.9866C61.0203 19.648 61.0536 19.6547 61.0847 19.6675L62.4659 18.2863C62.6352 18.1171 62.7696 17.9161 62.8612 17.6949C62.9528 17.4737 63 17.2367 63 16.9973C63 16.7579 62.9528 16.5208 62.8612 16.2996C62.7696 16.0784 62.6352 15.8775 62.4659 15.7082" fill="white"/>
<path d="M249.745 46.3392C249.515 47.3692 248.835 47.8492 247.985 47.8492C246.925 47.8492 246.075 46.9892 246.075 45.8492C246.075 44.7092 246.925 43.8592 247.985 43.8592C248.845 43.8592 249.525 44.3292 249.735 45.3292L251.355 44.9192C251.035 43.3292 249.635 42.3492 247.985 42.3492C245.995 42.3492 244.425 43.8892 244.425 45.8492C244.425 47.8192 245.995 49.3492 247.985 49.3492C249.705 49.3492 251.055 48.3692 251.365 46.6892L249.745 46.3392ZM254.552 44.0292C253.352 44.0292 252.472 44.6392 252.252 45.6092L253.762 45.9192C253.842 45.4792 254.122 45.2892 254.602 45.2892C255.022 45.2892 255.312 45.5692 255.312 45.9892V46.0892H254.032C252.692 46.0892 251.942 46.7292 251.942 47.7092C251.942 48.6992 252.692 49.3492 253.812 49.3492C254.482 49.3492 254.962 49.1292 255.312 48.8292V49.1992H256.852V46.0192C256.852 44.7392 255.962 44.0292 254.552 44.0292ZM254.262 48.1492C253.842 48.1492 253.562 47.9492 253.562 47.6292C253.562 47.3192 253.812 47.1092 254.212 47.1092H255.312V47.2192C255.312 47.7792 254.812 48.1492 254.262 48.1492ZM261.179 44.1092C260.359 44.1092 259.809 44.5392 259.449 45.1392V44.1792H257.849V49.1992H259.449V47.6292C259.449 46.3292 260.059 45.7492 261.179 45.7492H261.469L261.539 44.1492C261.419 44.1192 261.319 44.1092 261.179 44.1092ZM265.661 47.7192C265.451 47.8392 265.151 47.9192 264.931 47.9192C264.511 47.9192 264.261 47.7092 264.261 47.1892V45.4492H265.741V44.1792H264.261V42.4992H262.661V44.1792H261.751V45.4492H262.661V47.3492C262.661 48.6692 263.411 49.3492 264.661 49.3492C265.231 49.3492 265.641 49.1892 266.031 48.9792L265.661 47.7192ZM268.52 43.0792C268.94 43.0792 269.07 43.4392 269.72 43.4392C270.3 43.4392 270.88 43.0092 270.88 41.8992H269.91C269.88 42.1192 269.79 42.2592 269.6 42.2592C269.19 42.2592 269.03 41.8892 268.39 41.8892C267.83 41.8892 267.24 42.3192 267.24 43.4092H268.21C268.24 43.2092 268.33 43.0792 268.52 43.0792ZM268.99 44.0492C267.47 44.0492 266.21 45.1092 266.21 46.6892C266.21 48.2792 267.47 49.3392 268.99 49.3392C270.48 49.3392 271.74 48.2792 271.74 46.6892C271.74 45.1092 270.48 44.0492 268.99 44.0492ZM268.99 47.9892C268.34 47.9892 267.75 47.4792 267.75 46.6892C267.75 45.9092 268.34 45.3892 268.99 45.3892C269.61 45.3892 270.2 45.9092 270.2 46.6892C270.2 47.4792 269.61 47.9892 268.99 47.9892ZM277.485 46.6892C277.455 45.0492 276.315 44.0292 274.895 44.0292C273.435 44.0292 272.235 45.1092 272.235 46.6892C272.235 48.2792 273.435 49.3492 274.885 49.3492C276.035 49.3492 276.945 48.8392 277.375 47.7792L275.955 47.4892C275.685 47.9792 275.255 48.0692 274.885 48.0692C274.345 48.0692 273.935 47.6992 273.805 47.0992H277.485V46.6892ZM274.895 45.3292C275.355 45.3292 275.755 45.5792 275.905 46.1192H273.835C273.985 45.6092 274.445 45.3292 274.895 45.3292ZM277.977 47.8892C278.147 48.9192 279.157 49.3492 280.337 49.3492C281.657 49.3492 282.617 48.7692 282.617 47.6592C282.617 46.9192 282.177 46.3492 281.227 46.1492L280.047 45.9092C279.727 45.8392 279.667 45.6992 279.667 45.5592C279.667 45.3792 279.807 45.1692 280.237 45.1692C280.727 45.1692 281.027 45.4492 281.077 45.7592L282.537 45.4692C282.337 44.5992 281.507 44.0292 280.257 44.0292C278.987 44.0292 278.097 44.6992 278.097 45.7292C278.097 46.5192 278.627 47.0192 279.557 47.1892L280.577 47.3892C280.947 47.4592 281.077 47.5892 281.077 47.7592C281.077 47.9792 280.847 48.1592 280.427 48.1592C279.997 48.1592 279.607 47.9992 279.537 47.5692L277.977 47.8892ZM287.978 44.1492C286.898 44.1492 286.068 44.7592 285.908 45.6492L286.638 45.8092C286.748 45.1892 287.268 44.8192 288.018 44.8192C288.778 44.8192 289.278 45.2792 289.278 46.0492V46.2792H287.618C286.328 46.2792 285.638 46.9192 285.638 47.8192C285.638 48.7092 286.348 49.3292 287.428 49.3292C288.278 49.3292 288.898 48.9592 289.278 48.4492V49.1992H290.018V45.9992C290.018 44.8092 289.208 44.1492 287.978 44.1492ZM287.538 48.6992C286.828 48.6992 286.368 48.3292 286.368 47.8092C286.368 47.2692 286.798 46.8792 287.608 46.8792H289.278V47.1392C289.278 48.0292 288.498 48.6992 287.538 48.6992ZM296.777 44.1492C295.937 44.1492 295.247 44.4992 294.817 45.0992V44.2692H294.057V51.5992H294.817V48.3792C295.247 48.9792 295.937 49.3292 296.777 49.3292C298.087 49.3292 299.237 48.2992 299.237 46.7392C299.237 45.1792 298.087 44.1492 296.777 44.1492ZM296.657 48.6492C295.727 48.6492 294.817 47.9092 294.817 46.7392C294.817 45.5592 295.727 44.8192 296.657 44.8192C297.677 44.8192 298.497 45.5592 298.497 46.7392C298.497 47.9092 297.677 48.6492 296.657 48.6492ZM302.441 44.1492C301.361 44.1492 300.531 44.7592 300.371 45.6492L301.101 45.8092C301.211 45.1892 301.731 44.8192 302.481 44.8192C303.241 44.8192 303.741 45.2792 303.741 46.0492V46.2792H302.081C300.791 46.2792 300.101 46.9192 300.101 47.8192C300.101 48.7092 300.811 49.3292 301.891 49.3292C302.741 49.3292 303.361 48.9592 303.741 48.4492V49.1992H304.481V45.9992C304.481 44.8092 303.671 44.1492 302.441 44.1492ZM302.001 48.6992C301.291 48.6992 300.831 48.3292 300.831 47.8092C300.831 47.2692 301.261 46.8792 302.071 46.8792H303.741V47.1392C303.741 48.0292 302.961 48.6992 302.001 48.6992ZM308.75 44.2192C307.84 44.2192 307.17 44.7492 306.77 45.4792V44.2692H306V49.1992H306.77V47.2992C306.77 45.9692 307.44 44.9792 308.75 44.9792C308.84 44.9792 308.95 44.9792 309.04 44.9892L309.1 44.2592C308.96 44.2192 308.87 44.2192 308.75 44.2192ZM312.929 48.3092C312.679 48.4892 312.369 48.6092 312.089 48.6092C311.539 48.6092 311.179 48.2492 311.179 47.6092V44.9092H312.939V44.2692H311.179V42.4992H310.409V44.2692H309.339V44.9092H310.409V47.6592C310.409 48.7492 311.059 49.3292 312.039 49.3292C312.439 49.3292 312.779 49.2192 313.179 48.9392L312.929 48.3092ZM314.614 42.2692C314.314 42.2692 314.094 42.5092 314.094 42.7792C314.094 43.0692 314.314 43.2892 314.614 43.2892C314.914 43.2892 315.144 43.0692 315.144 42.7792C315.144 42.5092 314.914 42.2692 314.614 42.2692ZM315.004 49.1992V44.2692H314.234V49.1992H315.004ZM319.59 44.2192C318.68 44.2192 318.01 44.7492 317.61 45.4792V44.2692H316.84V49.1992H317.61V47.2992C317.61 45.9692 318.28 44.9792 319.59 44.9792C319.68 44.9792 319.79 44.9792 319.88 44.9892L319.94 44.2592C319.8 44.2192 319.71 44.2192 319.59 44.2192ZM328.211 41.4992H327.451V45.0992C327.021 44.4992 326.331 44.1492 325.491 44.1492C324.181 44.1492 323.031 45.1792 323.031 46.7392C323.031 48.2992 324.181 49.3292 325.491 49.3292C326.331 49.3292 327.021 48.9792 327.451 48.3792V49.1992H328.211V41.4992ZM325.611 48.6492C324.591 48.6492 323.771 47.9092 323.771 46.7392C323.771 45.5592 324.591 44.8192 325.611 44.8192C326.541 44.8192 327.451 45.5592 327.451 46.7392C327.451 47.9092 326.541 48.6492 325.611 48.6492ZM334.495 46.6092C334.445 45.1392 333.405 44.1492 332.075 44.1492C330.715 44.1492 329.525 45.1692 329.525 46.7492C329.525 48.3192 330.715 49.3292 332.025 49.3292C333.135 49.3292 333.995 48.7892 334.385 47.7592L333.705 47.5992C333.355 48.3892 332.725 48.6592 332.025 48.6592C331.175 48.6592 330.335 47.9992 330.265 46.8892H334.495V46.6092ZM332.075 44.8192C332.895 44.8192 333.585 45.3492 333.725 46.3192H330.295C330.445 45.3492 331.275 44.8192 332.075 44.8192Z" fill="#4A4A4A"/>
<path d="M280.309 61.7592H277.869L278.829 60.8792C279.729 60.0292 280.239 59.4492 280.239 58.5192C280.239 57.1892 279.239 56.3492 277.819 56.3492C276.399 56.3492 275.409 57.1692 275.339 58.5192L276.869 58.8092C276.929 58.0592 277.279 57.7292 277.829 57.7292C278.319 57.7292 278.659 58.0492 278.659 58.5292C278.659 59.1392 278.199 59.5392 277.759 59.9492L275.449 62.1192V63.1992H280.309V61.7592ZM281.946 64.5192L283.096 61.6792V61.6392H281.326L280.736 64.5192H281.946ZM287.623 59.7692C288.253 59.4792 288.623 58.9392 288.623 58.2292C288.623 57.1292 287.633 56.3492 286.213 56.3492C284.793 56.3492 283.803 57.1292 283.803 58.2292C283.803 58.9492 284.163 59.4792 284.793 59.7692C284.013 60.0592 283.573 60.6292 283.573 61.3692C283.573 62.5292 284.633 63.3492 286.213 63.3492C287.783 63.3492 288.833 62.5292 288.833 61.3692C288.833 60.6392 288.393 60.0692 287.623 59.7692ZM286.203 57.5892C286.663 57.5892 287.093 57.8592 287.093 58.3592C287.093 58.8592 286.663 59.1392 286.203 59.1392C285.733 59.1392 285.333 58.8692 285.333 58.3692C285.333 57.8592 285.743 57.5892 286.203 57.5892ZM286.203 62.0492C285.713 62.0492 285.293 61.7692 285.293 61.2492C285.293 60.7092 285.713 60.4292 286.203 60.4292C286.683 60.4292 287.133 60.7092 287.133 61.2292C287.133 61.7592 286.683 62.0492 286.203 62.0492ZM291.975 56.3492C290.495 56.3492 289.445 57.2992 289.445 58.6292C289.445 59.9392 290.345 60.8492 291.775 60.8492C292.355 60.8492 292.915 60.6192 293.285 60.2392C293.275 60.7892 293.145 61.2592 292.835 61.5992C292.625 61.8292 292.345 61.9792 292.015 61.9792C291.565 61.9792 291.265 61.8392 291.135 61.4092L289.585 61.7092C289.865 62.7692 290.765 63.3492 291.955 63.3492C292.755 63.3492 293.405 63.0492 293.885 62.5592C294.545 61.8892 294.815 60.9192 294.815 59.7292C294.815 57.5692 293.685 56.3492 291.975 56.3492ZM292.015 59.6492C291.495 59.6492 291.005 59.2492 291.005 58.6792C291.005 58.1092 291.495 57.6992 292.015 57.6992C292.525 57.6992 292.995 58.0992 292.995 58.6592C292.995 59.2492 292.525 59.6492 292.015 59.6492ZM297.328 56.3492C296.388 56.3492 295.588 56.9992 295.588 58.0292C295.588 59.0392 296.388 59.6992 297.328 59.6992C298.258 59.6992 299.058 59.0392 299.058 58.0292C299.058 56.9992 298.258 56.3492 297.328 56.3492ZM296.598 63.1992H297.528L302.378 56.4992H301.438L296.598 63.1992ZM297.328 57.3392C297.648 57.3392 297.978 57.5892 297.978 58.0192C297.978 58.4592 297.648 58.7092 297.328 58.7092C296.988 58.7092 296.668 58.4592 296.668 58.0192C296.668 57.5892 296.988 57.3392 297.328 57.3392ZM301.708 59.9992C300.768 59.9992 299.968 60.6492 299.968 61.6792C299.968 62.6892 300.768 63.3492 301.708 63.3492C302.638 63.3492 303.438 62.6892 303.438 61.6792C303.438 60.6492 302.638 59.9992 301.708 59.9992ZM301.708 60.9892C302.028 60.9892 302.358 61.2392 302.358 61.6692C302.358 62.1092 302.028 62.3592 301.708 62.3592C301.368 62.3592 301.048 62.1092 301.048 61.6692C301.048 61.2392 301.368 60.9892 301.708 60.9892Z" fill="#2E93EE"/>
<rect x="271" width="38" height="31.2" rx="15" fill="#0030B9"/>
<path d="M295.6 10H284.4C283.623 10 283.007 10.623 283.007 11.4L283 19.8C283 20.577 283.623 21.2 284.4 21.2H295.6C296.377 21.2 297 20.577 297 19.8V11.4C297 10.623 296.377 10 295.6 10ZM295.6 19.8H284.4V15.6H295.6V19.8ZM295.6 12.8H284.4V11.4H295.6V12.8Z" fill="white"/>
<path d="M81.3889 149.58H77.8189V148.32H81.0689V146.98H77.8189V145.72H81.3589V144.3H76.1689V151H81.3889V149.58ZM88.9189 145.83C88.1389 145.83 87.5389 146.16 87.1389 146.68C86.7989 146.13 86.1989 145.83 85.4989 145.83C84.8489 145.83 84.3589 146.06 84.0189 146.44V145.98H82.4189V151H84.0189V148.54C84.0189 147.7 84.3989 147.27 84.9789 147.27C85.4589 147.27 85.8289 147.63 85.8289 148.2V151H87.4289V148.54C87.4289 147.7 87.8189 147.27 88.4089 147.27C88.8789 147.27 89.2489 147.63 89.2489 148.2V151H90.8389V147.86C90.8389 146.64 89.9889 145.83 88.9189 145.83ZM92.8106 143.59C92.2706 143.59 91.8906 144.01 91.8906 144.5C91.8906 145.01 92.2706 145.39 92.8106 145.39C93.3506 145.39 93.7406 145.01 93.7406 144.5C93.7406 144.01 93.3506 143.59 92.8106 143.59ZM93.6106 151V145.98H92.0106V151H93.6106ZM98.2005 149.52C97.9905 149.64 97.6905 149.72 97.4705 149.72C97.0505 149.72 96.8005 149.51 96.8005 148.99V147.25H98.2805V145.98H96.8005V144.3H95.2005V145.98H94.2905V147.25H95.2005V149.15C95.2005 150.47 95.9505 151.15 97.2005 151.15C97.7705 151.15 98.1805 150.99 98.5705 150.78L98.2005 149.52ZM101.534 145.83C100.334 145.83 99.4543 146.44 99.2343 147.41L100.744 147.72C100.824 147.28 101.104 147.09 101.584 147.09C102.004 147.09 102.294 147.37 102.294 147.79V147.89H101.014C99.6743 147.89 98.9243 148.53 98.9243 149.51C98.9243 150.5 99.6743 151.15 100.794 151.15C101.464 151.15 101.944 150.93 102.294 150.63V151H103.834V147.82C103.834 146.54 102.944 145.83 101.534 145.83ZM101.244 149.95C100.824 149.95 100.544 149.75 100.544 149.43C100.544 149.12 100.794 148.91 101.194 148.91H102.294V149.02C102.294 149.58 101.794 149.95 101.244 149.95ZM108.115 143.3H107.355V149.78C107.355 150.59 107.885 151.13 108.695 151.13C109.075 151.13 109.325 151.02 109.565 150.88L109.405 150.24C109.215 150.34 109.005 150.4 108.815 150.4C108.395 150.4 108.115 150.14 108.115 149.74V143.3ZM111.03 144.07C110.73 144.07 110.51 144.31 110.51 144.58C110.51 144.87 110.73 145.09 111.03 145.09C111.33 145.09 111.56 144.87 111.56 144.58C111.56 144.31 111.33 144.07 111.03 144.07ZM111.42 151V146.07H110.65V151H111.42ZM115.876 145.95C115.046 145.95 114.416 146.29 114.016 146.89V146.07H113.256V151H114.016V148.63C114.016 147.35 114.696 146.65 115.726 146.65C116.546 146.65 117.096 147.27 117.096 148.19V151H117.856V148.05C117.856 146.8 117.066 145.95 115.876 145.95ZM124.506 151L121.956 148.14L123.926 146.07H123.006L120.256 148.9V143.3H119.496V151H120.256V149.92L121.436 148.68L123.536 151H124.506ZM124.906 149.67C125.026 150.63 125.926 151.13 127.056 151.13C128.236 151.13 129.046 150.58 129.046 149.61C129.046 148.86 128.496 148.48 127.776 148.32L126.586 148.06C126.106 147.95 125.836 147.77 125.836 147.38C125.836 146.91 126.226 146.57 126.926 146.57C127.656 146.57 128.126 146.94 128.226 147.48L128.956 147.32C128.776 146.52 128.056 145.95 126.946 145.95C125.816 145.95 125.076 146.55 125.076 147.44C125.076 148.12 125.536 148.53 126.356 148.7L127.486 148.95C127.986 149.06 128.296 149.25 128.296 149.66C128.296 150.17 127.826 150.5 127.116 150.5C126.336 150.5 125.736 150.15 125.666 149.5L124.906 149.67ZM135.624 145.95C134.784 145.95 134.094 146.3 133.664 146.9V146.07H132.904V153.4H133.664V150.18C134.094 150.78 134.784 151.13 135.624 151.13C136.934 151.13 138.084 150.1 138.084 148.54C138.084 146.98 136.934 145.95 135.624 145.95ZM135.504 150.45C134.574 150.45 133.664 149.71 133.664 148.54C133.664 147.36 134.574 146.62 135.504 146.62C136.524 146.62 137.344 147.36 137.344 148.54C137.344 149.71 136.524 150.45 135.504 150.45ZM141.289 145.95C140.209 145.95 139.379 146.56 139.219 147.45L139.949 147.61C140.059 146.99 140.579 146.62 141.329 146.62C142.089 146.62 142.589 147.08 142.589 147.85V148.08H140.929C139.639 148.08 138.949 148.72 138.949 149.62C138.949 150.51 139.659 151.13 140.739 151.13C141.589 151.13 142.209 150.76 142.589 150.25V151H143.329V147.8C143.329 146.61 142.519 145.95 141.289 145.95ZM140.849 150.5C140.139 150.5 139.679 150.13 139.679 149.61C139.679 149.07 140.109 148.68 140.919 148.68H142.589V148.94C142.589 149.83 141.809 150.5 140.849 150.5ZM147.598 146.02C146.688 146.02 146.018 146.55 145.618 147.28V146.07H144.848V151H145.618V149.1C145.618 147.77 146.288 146.78 147.598 146.78C147.688 146.78 147.798 146.78 147.888 146.79L147.948 146.06C147.808 146.02 147.718 146.02 147.598 146.02ZM150.732 145.95C149.652 145.95 148.822 146.56 148.662 147.45L149.392 147.61C149.502 146.99 150.022 146.62 150.772 146.62C151.532 146.62 152.032 147.08 152.032 147.85V148.08H150.372C149.082 148.08 148.392 148.72 148.392 149.62C148.392 150.51 149.102 151.13 150.182 151.13C151.032 151.13 151.652 150.76 152.032 150.25V151H152.772V147.8C152.772 146.61 151.962 145.95 150.732 145.95ZM150.292 150.5C149.582 150.5 149.122 150.13 149.122 149.61C149.122 149.07 149.552 148.68 150.362 148.68H152.032V148.94C152.032 149.83 151.252 150.5 150.292 150.5ZM90.4535 159.95C89.6135 159.95 88.9235 160.3 88.4935 160.9V160.07H87.7335V167.4H88.4935V164.18C88.9235 164.78 89.6135 165.13 90.4535 165.13C91.7635 165.13 92.9135 164.1 92.9135 162.54C92.9135 160.98 91.7635 159.95 90.4535 159.95ZM90.3335 164.45C89.4035 164.45 88.4935 163.71 88.4935 162.54C88.4935 161.36 89.4035 160.62 90.3335 160.62C91.3535 160.62 92.1735 161.36 92.1735 162.54C92.1735 163.71 91.3535 164.45 90.3335 164.45ZM96.1177 159.95C95.0377 159.95 94.2077 160.56 94.0477 161.45L94.7777 161.61C94.8877 160.99 95.4077 160.62 96.1577 160.62C96.9177 160.62 97.4177 161.08 97.4177 161.85V162.08H95.7577C94.4677 162.08 93.7777 162.72 93.7777 163.62C93.7777 164.51 94.4877 165.13 95.5677 165.13C96.4177 165.13 97.0377 164.76 97.4177 164.25V165H98.1577V161.8C98.1577 160.61 97.3477 159.95 96.1177 159.95ZM95.6777 164.5C94.9677 164.5 94.5077 164.13 94.5077 163.61C94.5077 163.07 94.9377 162.68 95.7477 162.68H97.4177V162.94C97.4177 163.83 96.6377 164.5 95.6777 164.5ZM104.407 160.07H103.647V160.9C103.217 160.3 102.527 159.95 101.687 159.95C100.377 159.95 99.2269 160.98 99.2269 162.54C99.2269 164.1 100.377 165.13 101.687 165.13C102.527 165.13 103.217 164.78 103.647 164.18V165.11C103.637 166.12 102.817 166.76 101.817 166.76C100.887 166.76 100.387 166.39 100.047 165.73L99.3969 166.22C99.7769 167.02 100.587 167.5 101.817 167.5C103.257 167.5 104.407 166.6 104.407 165.21V160.07ZM101.807 164.45C100.787 164.45 99.9669 163.71 99.9669 162.54C99.9669 161.36 100.787 160.62 101.807 160.62C102.737 160.62 103.647 161.36 103.647 162.54C103.647 163.71 102.737 164.45 101.807 164.45ZM108.061 159.95C106.981 159.95 106.151 160.56 105.991 161.45L106.721 161.61C106.831 160.99 107.351 160.62 108.101 160.62C108.861 160.62 109.361 161.08 109.361 161.85V162.08H107.701C106.411 162.08 105.721 162.72 105.721 163.62C105.721 164.51 106.431 165.13 107.511 165.13C108.361 165.13 108.981 164.76 109.361 164.25V165H110.101V161.8C110.101 160.61 109.291 159.95 108.061 159.95ZM107.621 164.5C106.911 164.5 106.451 164.13 106.451 163.61C106.451 163.07 106.881 162.68 107.691 162.68H109.361V162.94C109.361 163.83 108.581 164.5 107.621 164.5ZM117.6 159.95C116.76 159.95 116.12 160.34 115.74 160.95C115.45 160.32 114.82 159.95 114.06 159.95C113.29 159.95 112.73 160.28 112.38 160.82V160.07H111.62V165H112.38V162.48C112.38 161.32 112.97 160.65 113.88 160.65C114.61 160.65 115.14 161.16 115.14 161.94V165H115.9V162.48C115.9 161.32 116.5 160.65 117.41 160.65C118.15 160.65 118.68 161.16 118.68 161.94V165H119.44V161.81C119.44 160.69 118.64 159.95 117.6 159.95ZM125.603 162.41C125.553 160.94 124.513 159.95 123.183 159.95C121.823 159.95 120.633 160.97 120.633 162.55C120.633 164.12 121.823 165.13 123.133 165.13C124.243 165.13 125.103 164.59 125.493 163.56L124.813 163.4C124.463 164.19 123.833 164.46 123.133 164.46C122.283 164.46 121.443 163.8 121.373 162.69H125.603V162.41ZM123.183 160.62C124.003 160.62 124.693 161.15 124.833 162.12H121.403C121.553 161.15 122.383 160.62 123.183 160.62ZM129.533 159.95C128.703 159.95 128.073 160.29 127.673 160.89V160.07H126.913V165H127.673V162.63C127.673 161.35 128.353 160.65 129.383 160.65C130.203 160.65 130.753 161.27 130.753 162.19V165H131.513V162.05C131.513 160.8 130.723 159.95 129.533 159.95ZM135.863 164.11C135.613 164.29 135.303 164.41 135.023 164.41C134.473 164.41 134.113 164.05 134.113 163.41V160.71H135.873V160.07H134.113V158.3H133.343V160.07H132.273V160.71H133.343V163.46C133.343 164.55 133.993 165.13 134.973 165.13C135.373 165.13 135.713 165.02 136.113 164.74L135.863 164.11ZM139.113 159.96C137.643 159.96 136.493 161.02 136.493 162.53C136.493 164.04 137.643 165.12 139.113 165.12C140.563 165.12 141.723 164.04 141.723 162.53C141.723 161.02 140.563 159.96 139.113 159.96ZM139.113 164.45C138.093 164.45 137.233 163.67 137.233 162.53C137.233 161.4 138.093 160.63 139.113 160.63C140.123 160.63 140.973 161.4 140.973 162.53C140.973 163.67 140.123 164.45 139.113 164.45Z" fill="#4A4A4A"/>
<rect x="98" y="101" width="36" height="32" rx="15" fill="#0030B9"/>
<g clip-path="url(#clip0_1593_17039)">
<path d="M111.564 117C111.564 116.145 112.259 115.45 113.114 115.45H115.114V114.5H113.114C111.734 114.5 110.614 115.62 110.614 117C110.614 118.38 111.734 119.5 113.114 119.5H115.114V118.55H113.114C112.259 118.55 111.564 117.855 111.564 117ZM113.614 117.5H117.614V116.5H113.614V117.5ZM118.114 114.5H116.114V115.45H118.114C118.969 115.45 119.664 116.145 119.664 117C119.664 117.855 118.969 118.55 118.114 118.55H116.114V119.5H118.114C119.494 119.5 120.614 118.38 120.614 117C120.614 115.62 119.494 114.5 118.114 114.5Z" fill="white"/>
</g>
<path d="M189.337 151L186.537 144.3H184.847L182.047 151H183.817L184.287 149.78H187.107L187.577 151H189.337ZM186.557 148.36H184.847L185.697 146.16L186.557 148.36ZM193.028 149.52C192.818 149.64 192.518 149.72 192.298 149.72C191.878 149.72 191.628 149.51 191.628 148.99V147.25H193.108V145.98H191.628V144.3H190.028V145.98H189.118V147.25H190.028V149.15C190.028 150.47 190.778 151.15 192.028 151.15C192.598 151.15 193.008 150.99 193.398 150.78L193.028 149.52ZM198.826 148.49C198.796 146.85 197.656 145.83 196.236 145.83C194.776 145.83 193.576 146.91 193.576 148.49C193.576 150.08 194.776 151.15 196.226 151.15C197.376 151.15 198.286 150.64 198.716 149.58L197.296 149.29C197.026 149.78 196.596 149.87 196.226 149.87C195.686 149.87 195.276 149.5 195.146 148.9H198.826V148.49ZM196.236 147.13C196.696 147.13 197.096 147.38 197.246 147.92H195.176C195.326 147.41 195.786 147.13 196.236 147.13ZM202.798 145.83C202.168 145.83 201.638 146.06 201.258 146.46V145.98H199.658V151H201.258V148.67C201.258 147.7 201.668 147.27 202.298 147.27C202.808 147.27 203.158 147.67 203.158 148.26V151H204.748V147.92C204.748 146.66 203.968 145.83 202.798 145.83ZM211.12 143.3H209.52V146.41C209.14 146.04 208.62 145.83 207.96 145.83C206.63 145.83 205.51 146.91 205.51 148.49C205.51 150.08 206.63 151.15 207.96 151.15C208.62 151.15 209.14 150.94 209.52 150.57V151H211.12V143.3ZM208.29 149.79C207.59 149.79 207.08 149.27 207.08 148.49C207.08 147.72 207.59 147.19 208.29 147.19C208.94 147.19 209.52 147.72 209.52 148.49C209.52 149.27 208.94 149.79 208.29 149.79ZM213.155 143.59C212.615 143.59 212.235 144.01 212.235 144.5C212.235 145.01 212.615 145.39 213.155 145.39C213.695 145.39 214.085 145.01 214.085 144.5C214.085 144.01 213.695 143.59 213.155 143.59ZM213.955 151V145.98H212.355V151H213.955ZM221.695 145.83C220.915 145.83 220.315 146.16 219.915 146.68C219.575 146.13 218.975 145.83 218.275 145.83C217.625 145.83 217.135 146.06 216.795 146.44V145.98H215.195V151H216.795V148.54C216.795 147.7 217.175 147.27 217.755 147.27C218.235 147.27 218.605 147.63 218.605 148.2V151H220.205V148.54C220.205 147.7 220.595 147.27 221.185 147.27C221.655 147.27 222.025 147.63 222.025 148.2V151H223.615V147.86C223.615 146.64 222.765 145.83 221.695 145.83ZM229.627 148.49C229.597 146.85 228.457 145.83 227.037 145.83C225.577 145.83 224.377 146.91 224.377 148.49C224.377 150.08 225.577 151.15 227.027 151.15C228.177 151.15 229.087 150.64 229.517 149.58L228.097 149.29C227.827 149.78 227.397 149.87 227.027 149.87C226.487 149.87 226.077 149.5 225.947 148.9H229.627V148.49ZM227.037 147.13C227.497 147.13 227.897 147.38 228.047 147.92H225.977C226.127 147.41 226.587 147.13 227.037 147.13ZM233.599 145.83C232.969 145.83 232.439 146.06 232.059 146.46V145.98H230.459V151H232.059V148.67C232.059 147.7 232.469 147.27 233.099 147.27C233.609 147.27 233.959 147.67 233.959 148.26V151H235.549V147.92C235.549 146.66 234.769 145.83 233.599 145.83ZM239.991 149.52C239.781 149.64 239.481 149.72 239.261 149.72C238.841 149.72 238.591 149.51 238.591 148.99V147.25H240.071V145.98H238.591V144.3H236.991V145.98H236.081V147.25H236.991V149.15C236.991 150.47 237.741 151.15 238.991 151.15C239.561 151.15 239.971 150.99 240.361 150.78L239.991 149.52ZM243.319 145.85C241.799 145.85 240.539 146.91 240.539 148.49C240.539 150.08 241.799 151.14 243.319 151.14C244.809 151.14 246.069 150.08 246.069 148.49C246.069 146.91 244.809 145.85 243.319 145.85ZM243.319 149.79C242.669 149.79 242.079 149.28 242.079 148.49C242.079 147.71 242.669 147.19 243.319 147.19C243.939 147.19 244.529 147.71 244.529 148.49C244.529 149.28 243.939 149.79 243.319 149.79ZM253.459 150.28H250.209L251.819 148.78C252.849 147.81 253.389 147.21 253.389 146.22C253.389 145 252.499 144.17 251.179 144.17C249.859 144.17 248.959 145.01 248.909 146.31L249.639 146.46C249.679 145.44 250.259 144.86 251.169 144.86C252.039 144.86 252.629 145.41 252.629 146.23C252.629 147.08 252.109 147.56 251.339 148.26L248.949 150.49V151H253.459V150.28ZM259.548 149.39V148.74H258.508V144.3H257.508L254.008 148.63V149.39H257.738V151H258.508V149.39H259.548ZM257.738 148.74H254.868L257.738 145.13V148.74ZM263.359 145.95C262.529 145.95 261.899 146.29 261.499 146.89V143.3H260.739V151H261.499V148.63C261.499 147.35 262.179 146.65 263.209 146.65C264.029 146.65 264.579 147.27 264.579 148.19V151H265.339V148.05C265.339 146.8 264.549 145.95 263.359 145.95ZM272.129 145.95C271.299 145.95 270.669 146.29 270.269 146.89V146.07H269.509V151H270.269V148.63C270.269 147.35 270.949 146.65 271.979 146.65C272.799 146.65 273.349 147.27 273.349 148.19V151H274.109V148.05C274.109 146.8 273.319 145.95 272.129 145.95ZM277.919 145.96C276.449 145.96 275.299 147.02 275.299 148.53C275.299 150.04 276.449 151.12 277.919 151.12C279.369 151.12 280.529 150.04 280.529 148.53C280.529 147.02 279.369 145.96 277.919 145.96ZM277.919 150.45C276.899 150.45 276.039 149.67 276.039 148.53C276.039 147.4 276.899 146.63 277.919 146.63C278.929 146.63 279.779 147.4 279.779 148.53C279.779 149.67 278.929 150.45 277.919 150.45ZM200.495 163.67C200.615 164.63 201.515 165.13 202.645 165.13C203.825 165.13 204.635 164.58 204.635 163.61C204.635 162.86 204.085 162.48 203.365 162.32L202.175 162.06C201.695 161.95 201.425 161.77 201.425 161.38C201.425 160.91 201.815 160.57 202.515 160.57C203.245 160.57 203.715 160.94 203.815 161.48L204.545 161.32C204.365 160.52 203.645 159.95 202.535 159.95C201.405 159.95 200.665 160.55 200.665 161.44C200.665 162.12 201.125 162.53 201.945 162.7L203.075 162.95C203.575 163.06 203.885 163.25 203.885 163.66C203.885 164.17 203.415 164.5 202.705 164.5C201.925 164.5 201.325 164.15 201.255 163.5L200.495 163.67ZM206.434 158.07C206.134 158.07 205.914 158.31 205.914 158.58C205.914 158.87 206.134 159.09 206.434 159.09C206.734 159.09 206.964 158.87 206.964 158.58C206.964 158.31 206.734 158.07 206.434 158.07ZM206.824 165V160.07H206.054V165H206.824ZM211.369 164.11C211.119 164.29 210.809 164.41 210.529 164.41C209.979 164.41 209.619 164.05 209.619 163.41V160.71H211.379V160.07H209.619V158.3H208.849V160.07H207.779V160.71H208.849V163.46C208.849 164.55 209.499 165.13 210.479 165.13C210.879 165.13 211.219 165.02 211.619 164.74L211.369 164.11ZM216.968 162.41C216.918 160.94 215.878 159.95 214.548 159.95C213.188 159.95 211.998 160.97 211.998 162.55C211.998 164.12 213.188 165.13 214.498 165.13C215.608 165.13 216.468 164.59 216.858 163.56L216.178 163.4C215.828 164.19 215.198 164.46 214.498 164.46C213.648 164.46 212.808 163.8 212.738 162.69H216.968V162.41ZM214.548 160.62C215.368 160.62 216.058 161.15 216.198 162.12H212.768C212.918 161.15 213.748 160.62 214.548 160.62ZM225.528 157.3H224.768V160.9C224.338 160.3 223.648 159.95 222.808 159.95C221.498 159.95 220.348 160.98 220.348 162.54C220.348 164.1 221.498 165.13 222.808 165.13C223.648 165.13 224.338 164.78 224.768 164.18V165H225.528V157.3ZM222.928 164.45C221.908 164.45 221.088 163.71 221.088 162.54C221.088 161.36 221.908 160.62 222.928 160.62C223.858 160.62 224.768 161.36 224.768 162.54C224.768 163.71 223.858 164.45 222.928 164.45ZM229.462 159.96C227.992 159.96 226.842 161.02 226.842 162.53C226.842 164.04 227.992 165.12 229.462 165.12C230.912 165.12 232.072 164.04 232.072 162.53C232.072 161.02 230.912 159.96 229.462 159.96ZM229.462 164.45C228.442 164.45 227.582 163.67 227.582 162.53C227.582 161.4 228.442 160.63 229.462 160.63C230.472 160.63 231.322 161.4 231.322 162.53C231.322 163.67 230.472 164.45 229.462 164.45ZM241.846 165L238.846 158.3H238.116L235.116 165H235.966L236.716 163.3H240.246L240.996 165H241.846ZM239.936 162.59H237.026L238.486 159.28L239.936 162.59ZM242.409 163.67C242.529 164.63 243.429 165.13 244.559 165.13C245.739 165.13 246.549 164.58 246.549 163.61C246.549 162.86 245.999 162.48 245.279 162.32L244.089 162.06C243.609 161.95 243.339 161.77 243.339 161.38C243.339 160.91 243.729 160.57 244.429 160.57C245.159 160.57 245.629 160.94 245.729 161.48L246.459 161.32C246.279 160.52 245.559 159.95 244.449 159.95C243.319 159.95 242.579 160.55 242.579 161.44C242.579 162.12 243.039 162.53 243.859 162.7L244.989 162.95C245.489 163.06 245.799 163.25 245.799 163.66C245.799 164.17 245.329 164.5 244.619 164.5C243.839 164.5 243.239 164.15 243.169 163.5L242.409 163.67ZM249.778 159.95C248.698 159.95 247.868 160.56 247.708 161.45L248.438 161.61C248.548 160.99 249.068 160.62 249.818 160.62C250.578 160.62 251.078 161.08 251.078 161.85V162.08H249.418C248.128 162.08 247.438 162.72 247.438 163.62C247.438 164.51 248.148 165.13 249.228 165.13C250.078 165.13 250.698 164.76 251.078 164.25V165H251.818V161.8C251.818 160.61 251.008 159.95 249.778 159.95ZM249.338 164.5C248.628 164.5 248.168 164.13 248.168 163.61C248.168 163.07 248.598 162.68 249.408 162.68H251.078V162.94C251.078 163.83 250.298 164.5 249.338 164.5ZM255.227 159.95C254.147 159.95 253.317 160.56 253.157 161.45L253.887 161.61C253.997 160.99 254.517 160.62 255.267 160.62C256.027 160.62 256.527 161.08 256.527 161.85V162.08H254.867C253.577 162.08 252.887 162.72 252.887 163.62C252.887 164.51 253.597 165.13 254.677 165.13C255.527 165.13 256.147 164.76 256.527 164.25V165H257.267V161.8C257.267 160.61 256.457 159.95 255.227 159.95ZM254.787 164.5C254.077 164.5 253.617 164.13 253.617 163.61C253.617 163.07 254.047 162.68 254.857 162.68H256.527V162.94C256.527 163.83 255.747 164.5 254.787 164.5ZM258.366 163.67C258.486 164.63 259.386 165.13 260.516 165.13C261.696 165.13 262.506 164.58 262.506 163.61C262.506 162.86 261.956 162.48 261.236 162.32L260.046 162.06C259.566 161.95 259.296 161.77 259.296 161.38C259.296 160.91 259.686 160.57 260.386 160.57C261.116 160.57 261.586 160.94 261.686 161.48L262.416 161.32C262.236 160.52 261.516 159.95 260.406 159.95C259.276 159.95 258.536 160.55 258.536 161.44C258.536 162.12 258.996 162.53 259.816 162.7L260.946 162.95C261.446 163.06 261.756 163.25 261.756 163.66C261.756 164.17 261.286 164.5 260.576 164.5C259.796 164.5 259.196 164.15 259.126 163.5L258.366 163.67Z" fill="#4A4A4A"/>
<rect x="215" y="101" width="36" height="32" rx="15" fill="#0030B9"/>
<g clip-path="url(#clip1_1593_17039)">
<path d="M237 112H229C228.45 112 228.005 112.45 228.005 113L228 122L230 120H237C237.55 120 238 119.55 238 119V113C238 112.45 237.55 112 237 112ZM230 115.5H236V116.5H230V115.5ZM234 118H230V117H234V118ZM236 115H230V114H236V115Z" fill="white"/>
</g>
<defs>
<clipPath id="clip0_1593_17039">
<rect width="12" height="12" fill="white" transform="translate(110 111)"/>
</clipPath>
<clipPath id="clip1_1593_17039">
<rect width="12" height="12" fill="white" transform="translate(227 111)"/>
</clipPath>
</defs>
</svg>
