<svg width="120" height="34" viewBox="0 0 120 34" fill="none" xmlns="http://www.w3.org/2000/svg">
<g clip-path="url(#clip0_1172_21536)">
<path d="M53.1964 0.0273438V8.77872C53.9363 8.01909 54.8136 7.40809 55.7821 6.97857C56.7187 6.58004 57.7265 6.37788 58.7438 6.38445C59.8487 6.3718 60.9426 6.59861 61.9519 7.04928C62.9612 7.4999 63.8609 8.16384 64.5909 8.99557C66.1962 10.7344 66.9989 12.9653 66.9989 15.6884C66.9989 18.3124 66.1693 20.5077 64.5107 22.2742C62.8522 24.0407 60.8863 24.924 58.6138 24.924C57.6444 24.9323 56.6829 24.7475 55.7851 24.3804C54.8156 23.9527 53.9338 23.3484 53.1844 22.598V24.4605H48.8067V0.0273438H53.1964ZM57.8346 10.4631C57.1907 10.4448 56.5499 10.5623 55.9539 10.808C55.3584 11.0535 54.8201 11.4219 54.375 11.889C53.4608 12.8396 53.0027 14.0823 53.0007 15.6171C53.0007 17.1816 53.4588 18.448 54.375 19.4165C54.8166 19.8901 55.3529 20.2644 55.9494 20.5143C56.5459 20.7642 57.1883 20.8841 57.8346 20.8661C58.4744 20.8763 59.1087 20.749 59.6953 20.4928C60.2819 20.2366 60.8067 19.8575 61.2349 19.3808C62.1705 18.3583 62.6664 17.0069 62.6151 15.62C62.6684 14.2496 62.1809 12.9133 61.2588 11.9009C60.8226 11.4307 60.2918 11.0592 59.7013 10.8113C59.1107 10.5634 58.4744 10.4446 57.8346 10.4631Z" fill="#080E3F"/>
<path d="M81.9834 6.83283H86.3936V24.4634H81.9834V22.6008C81.2365 23.3502 80.3577 23.9545 79.3917 24.3832C78.499 24.7508 77.5424 24.9357 76.578 24.9268C74.3049 24.9268 72.3411 24.0435 70.6865 22.277C69.0319 20.5105 68.2033 18.3152 68.2014 15.6912C68.2014 12.9681 69.003 10.7372 70.6063 8.99841C71.3348 8.16648 72.2336 7.50239 73.2419 7.05167C74.2502 6.601 75.3436 6.37434 76.4475 6.38724C77.4648 6.38087 78.4726 6.58302 79.4092 6.98136C80.3726 7.40923 81.2435 8.02063 81.9745 8.78156L81.9834 6.83283ZM77.3448 10.4629C76.7084 10.4475 76.0755 10.5689 75.49 10.819C74.9039 11.069 74.3781 11.4419 73.9474 11.9126C73.0696 12.961 72.5901 14.2876 72.5941 15.6569C72.5985 17.0262 73.0865 18.3497 73.9713 19.3926C74.3975 19.869 74.9214 20.248 75.5064 20.5043C76.0915 20.7605 76.7243 20.8879 77.3627 20.8779C78.0065 20.8952 78.6468 20.775 79.2409 20.525C79.8344 20.2751 80.3687 19.9012 80.8073 19.4282C81.7195 18.4637 82.1756 17.1972 82.1756 15.6288C82.1756 14.092 81.7195 12.8493 80.8073 11.9007C80.3632 11.4306 79.8254 11.0596 79.2289 10.8119C78.6324 10.5641 77.9906 10.4452 77.3448 10.4629Z" fill="#080E3F"/>
<path d="M99.9621 9.29704L97.2314 12.036C96.1216 10.9329 95.1148 10.3823 94.21 10.3843C93.7982 10.3594 93.3895 10.47 93.0459 10.6992C92.9169 10.7856 92.8109 10.9027 92.7377 11.04C92.664 11.1773 92.6256 11.3306 92.6256 11.4864C92.6286 11.7311 92.7237 11.9656 92.892 12.1429C93.2859 12.4828 93.731 12.7585 94.21 12.9598L95.8243 13.7708C97.5287 14.6144 98.6973 15.473 99.3312 16.3463C100.067 17.41 100.394 18.7044 100.253 19.991C100.112 21.2776 99.5124 22.4698 98.5644 23.348C97.4152 24.3956 95.8766 24.9194 93.9496 24.9194C92.7591 24.9546 91.578 24.6988 90.5085 24.174C89.4389 23.6492 88.5123 22.8712 87.8092 21.9072L90.5254 18.9367C91.0338 19.5353 91.6497 20.0331 92.3413 20.4042C92.904 20.7376 93.5393 20.9292 94.1926 20.9626C94.6955 20.9875 95.1924 20.8386 95.5992 20.5408C95.7586 20.4329 95.89 20.2885 95.9826 20.1196C96.0753 19.9507 96.127 19.7621 96.1325 19.5694C96.1325 18.8901 95.4917 18.2257 94.21 17.5761L92.7292 16.8305C89.8836 15.3927 88.461 13.5935 88.461 11.4329C88.4565 10.7575 88.5974 10.089 88.8753 9.4736C89.1531 8.85822 89.5604 8.3105 90.0693 7.86819C91.1418 6.87802 92.5131 6.38288 94.1836 6.38288C95.3085 6.37795 96.4188 6.63956 97.4241 7.1465C98.4295 7.65344 99.3013 8.39131 99.968 9.30003L99.9621 9.29704Z" fill="#080E3F"/>
<path d="M119.715 16.9294H105.545C105.702 18.0957 106.287 19.1613 107.186 19.9178C108.15 20.6842 109.357 21.0785 110.587 21.0288C111.375 21.0397 112.157 20.8917 112.887 20.5938C113.617 20.2958 114.28 19.8538 114.837 19.294L118.551 21.0436C117.714 22.2931 116.571 23.3058 115.231 23.9845C113.788 24.6486 112.212 24.9728 110.625 24.9322C107.861 24.9322 105.614 24.0598 103.887 22.3151C102.159 20.5704 101.292 18.386 101.286 15.762C101.286 13.0706 102.15 10.8367 103.878 9.06028C105.606 7.28383 107.777 6.39264 110.394 6.38672C113.159 6.38672 115.41 7.27791 117.147 9.06028C118.885 10.8426 119.753 13.1894 119.751 16.1006L119.715 16.9294ZM115.305 13.4449C115.021 12.4706 114.412 11.6234 113.581 11.0446C112.709 10.4261 111.663 10.1034 110.595 10.1237C109.432 10.1012 108.293 10.4658 107.358 11.1605C106.766 11.5902 106.225 12.3517 105.738 13.4449H115.305Z" fill="#080E3F"/>
<path d="M94.4709 32.7799V28.6953H94.8768V30.3381C95.0316 30.1531 95.2243 30.0041 95.4424 29.9014C95.659 29.8026 95.8945 29.7529 96.1325 29.7558C96.3426 29.752 96.5513 29.7902 96.747 29.8682C96.9422 29.9462 97.1199 30.0626 97.2698 30.2104C97.4192 30.3509 97.5382 30.5207 97.6198 30.7092C97.701 30.8977 97.7428 31.101 97.7428 31.3065C97.7428 31.5119 97.701 31.7152 97.6198 31.9037C97.5382 32.0923 97.4192 32.2621 97.2698 32.4026C97.1184 32.5502 96.9397 32.6661 96.7435 32.7436C96.5473 32.8211 96.3372 32.8587 96.1265 32.8541C95.8865 32.858 95.649 32.805 95.4334 32.6997C95.2163 32.5905 95.0276 32.4318 94.8827 32.2363V32.7799H94.4709ZM96.0882 32.4828C96.3053 32.4854 96.5194 32.4322 96.7101 32.3284C96.8978 32.2256 97.0547 32.0736 97.1632 31.8887C97.2733 31.7102 97.3315 31.5045 97.332 31.2946C97.3295 31.0846 97.2703 30.8792 97.1602 30.7005C97.0512 30.5141 96.8934 30.361 96.7041 30.2579C96.5174 30.1542 96.3073 30.1001 96.0937 30.1004C95.8741 30.1004 95.6575 30.1544 95.4628 30.2579C95.2741 30.3543 95.1163 30.5022 95.0072 30.6845C94.8982 30.8668 94.8429 31.0761 94.8469 31.2887C94.8429 31.4486 94.8728 31.6075 94.9345 31.755C94.9963 31.9025 95.0889 32.035 95.2054 32.1442C95.3219 32.2577 95.4603 32.3467 95.6122 32.4059C95.7636 32.4651 95.9254 32.4932 96.0882 32.4888V32.4828Z" fill="#080E3F"/>
<path d="M98.1377 29.8359H98.5644L99.6424 32.1055L100.691 29.8359H101.12L99.2366 33.8611H98.8099L99.4024 32.5599L98.1377 29.8359Z" fill="#080E3F"/>
<path d="M105.077 28.7949L107.056 32.7815H106.6L105.931 31.4685H104.103L103.443 32.7815H102.969L104.974 28.7949H105.077ZM105.024 29.6415L104.298 31.0853H105.753L105.024 29.6415Z" fill="#080E3F"/>
<path d="M109.227 30.154L108.967 30.4065C108.8 30.2309 108.574 30.1249 108.333 30.1094C108.209 30.1062 108.088 30.1496 107.995 30.2312C107.95 30.2665 107.914 30.3118 107.891 30.3633C107.866 30.4148 107.855 30.4713 107.856 30.5282C107.858 30.6308 107.9 30.7286 107.971 30.8016C108.113 30.9338 108.278 31.0395 108.457 31.1135C108.688 31.2113 108.896 31.3547 109.07 31.5353C109.174 31.6673 109.23 31.8305 109.23 31.9987C109.232 32.1148 109.208 32.23 109.161 32.3362C109.114 32.4424 109.045 32.537 108.958 32.6136C108.773 32.7836 108.53 32.8742 108.279 32.8661C108.101 32.8672 107.924 32.8298 107.761 32.7562C107.603 32.6906 107.463 32.5889 107.352 32.4592L107.604 32.1888C107.685 32.286 107.785 32.3652 107.899 32.4214C108.012 32.4777 108.136 32.5097 108.262 32.5156C108.412 32.5214 108.559 32.4693 108.673 32.37C108.726 32.3294 108.769 32.2773 108.799 32.2176C108.829 32.1579 108.845 32.0922 108.845 32.0254C108.847 31.9156 108.806 31.8094 108.733 31.7283C108.58 31.6016 108.408 31.5012 108.223 31.4313C108.004 31.3381 107.807 31.1995 107.646 31.0243C107.545 30.8932 107.491 30.7323 107.491 30.5668C107.489 30.4614 107.51 30.3568 107.552 30.2603C107.595 30.1638 107.658 30.0778 107.737 30.0084C107.907 29.8582 108.127 29.7785 108.353 29.7856C108.68 29.7958 108.991 29.927 109.227 30.154Z" fill="#080E3F"/>
<path d="M113.068 29.8353V32.7822H112.669V32.2742C112.512 32.4581 112.318 32.6069 112.1 32.7109C111.883 32.8096 111.648 32.8593 111.41 32.8564C111.2 32.8602 110.991 32.8221 110.796 32.744C110.6 32.666 110.422 32.5497 110.273 32.4019C110.121 32.2627 110 32.0934 109.916 31.9047C109.834 31.716 109.791 31.512 109.791 31.3058C109.791 31.0995 109.834 30.8956 109.916 30.7069C110 30.5181 110.121 30.3488 110.273 30.2096C110.58 29.9128 110.992 29.7505 111.419 29.7581C111.661 29.7542 111.9 29.8072 112.118 29.9126C112.333 30.023 112.521 30.1816 112.666 30.3759V29.8353H113.068ZM111.455 30.1324C111.237 30.1309 111.023 30.1851 110.832 30.2898C110.643 30.39 110.487 30.5414 110.379 30.7265C110.269 30.9048 110.21 31.1106 110.21 31.3206C110.21 31.5306 110.269 31.7364 110.379 31.9147C110.488 32.1012 110.646 32.2542 110.835 32.3573C111.023 32.4632 111.236 32.5185 111.452 32.5178C111.67 32.5178 111.886 32.4637 112.079 32.3603C112.268 32.2644 112.426 32.1172 112.536 31.9355C112.642 31.7557 112.697 31.5503 112.695 31.3414C112.699 31.1815 112.67 31.0226 112.608 30.8751C112.546 30.7276 112.453 30.595 112.337 30.4859C112.221 30.3697 112.083 30.2778 111.932 30.2156C111.781 30.1533 111.618 30.122 111.455 30.1234V30.1324Z" fill="#080E3F"/>
<path d="M117.103 29.8353V32.7821H116.712V32.2741C116.554 32.4589 116.36 32.6078 116.14 32.7108C115.924 32.8098 115.688 32.8596 115.45 32.8564C115.24 32.8602 115.031 32.822 114.836 32.7439C114.64 32.6659 114.463 32.5496 114.313 32.4019C114.161 32.2619 114.041 32.0913 113.96 31.9014C113.879 31.7114 113.838 31.5064 113.842 31.2998C113.839 31.0948 113.881 30.8916 113.962 30.7037C114.044 30.5157 114.164 30.3473 114.316 30.2096C114.624 29.9133 115.035 29.751 115.462 29.758C115.704 29.7539 115.943 29.8068 116.161 29.9125C116.378 30.022 116.566 30.1807 116.712 30.3759V29.8353H117.103ZM115.488 30.1323C115.271 30.1308 115.057 30.185 114.866 30.2898C114.678 30.3909 114.522 30.542 114.413 30.7265C114.303 30.9048 114.245 31.1106 114.245 31.3206C114.245 31.5306 114.303 31.7363 114.413 31.9147C114.523 32.1015 114.682 32.2545 114.872 32.3573C115.06 32.4636 115.271 32.5189 115.486 32.5177C115.705 32.5181 115.921 32.4641 116.114 32.3602C116.303 32.2644 116.462 32.1173 116.573 31.9355C116.679 31.7556 116.734 31.5503 116.733 31.3413C116.736 31.1812 116.706 31.0222 116.644 30.8747C116.581 30.7272 116.488 30.5947 116.371 30.4858C116.256 30.3693 116.118 30.2773 115.966 30.215C115.815 30.1527 115.652 30.1216 115.488 30.1234V30.1323Z" fill="#080E3F"/>
<path d="M119.591 30.154L119.33 30.4065C119.164 30.2309 118.937 30.1249 118.696 30.1094C118.573 30.1062 118.452 30.1496 118.359 30.2312C118.314 30.2665 118.278 30.3118 118.254 30.3633C118.23 30.4148 118.218 30.4713 118.219 30.5282C118.222 30.6308 118.263 30.7286 118.335 30.8016C118.477 30.9338 118.642 31.0395 118.821 31.1135C119.052 31.2113 119.26 31.3547 119.434 31.5353C119.538 31.6673 119.594 31.8305 119.594 31.9987C119.596 32.1148 119.572 32.23 119.525 32.3362C119.478 32.4424 119.409 32.537 119.321 32.6136C119.137 32.7836 118.893 32.8742 118.643 32.8661C118.464 32.8672 118.288 32.8298 118.125 32.7562C117.967 32.6906 117.827 32.5889 117.716 32.4592L117.968 32.1888C118.049 32.286 118.149 32.3652 118.262 32.4214C118.375 32.4777 118.499 32.5097 118.625 32.5156C118.776 32.5214 118.923 32.4693 119.037 32.37C119.09 32.3294 119.133 32.2773 119.163 32.2176C119.192 32.1579 119.208 32.0922 119.209 32.0254C119.21 31.9156 119.17 31.8094 119.096 31.7283C118.944 31.6016 118.772 31.5012 118.587 31.4313C118.368 31.3381 118.171 31.1995 118.009 31.0243C117.909 30.8932 117.854 30.7323 117.855 30.5668C117.853 30.4614 117.874 30.3568 117.916 30.2603C117.959 30.1638 118.022 30.0778 118.101 30.0084C118.271 29.8582 118.491 29.7785 118.717 29.7856C119.044 29.7958 119.355 29.927 119.591 30.154Z" fill="#080E3F"/>
<path d="M18.8083 15.2131C18.7354 13.3806 18.1316 11.609 17.0707 10.1153C16.0098 8.62149 14.5378 7.47018 12.8348 6.80227C11.1317 6.1343 9.27146 5.9787 7.48161 6.35438C5.69177 6.73007 4.04988 7.62081 2.75684 8.91765C1.4638 10.2144 0.575688 11.8611 0.201089 13.6562C-0.173508 15.4513 -0.0183352 17.317 0.647654 19.025C1.31365 20.7331 2.46156 22.2094 3.95097 23.2734C5.44037 24.3374 7.20671 24.943 9.0339 25.0161H18.826V15.2131H18.8083Z" fill="#8EBF30"/>
<path d="M41.0346 12.5172C41.0346 9.20473 39.7225 6.02787 37.387 3.68555C35.0515 1.34324 31.884 0.0273438 28.5811 0.0273438C25.2783 0.0273438 22.1107 1.34324 19.7752 3.68555C17.4398 6.02787 16.1277 9.20473 16.1277 12.5172V25.0353H28.6093C31.9098 25.0204 35.0701 23.695 37.3987 21.349C39.7273 19.003 41.0346 15.8275 41.0346 12.5172Z" fill="#0030B9"/>
<path d="M23.8347 21.3362C23.6007 21.0807 23.2423 20.5609 23.2423 20.5609L17.3184 10.4608C17.0798 10.0918 16.8166 9.73956 16.5306 9.40625C16.2738 10.4209 16.1445 11.4637 16.1455 12.5105V15.591C15.9354 17.7819 15.0672 19.8572 13.6556 21.5424C12.244 23.2276 10.3556 24.4432 8.24011 25.0287H29.4297C27.2208 24.4255 25.261 23.1322 23.8347 21.3362Z" fill="url(#paint0_linear_1172_21536)"/>
</g>
<defs>
<linearGradient id="paint0_linear_1172_21536" x1="8.22234" y1="17.2249" x2="29.4119" y2="17.2249" gradientUnits="userSpaceOnUse">
<stop stop-color="#001074"/>
<stop offset="1" stop-color="#0030B9"/>
</linearGradient>
<clipPath id="clip0_1172_21536">
<rect width="120" height="33.8589" fill="white"/>
</clipPath>
</defs>
</svg>
