<svg width="494" height="322" viewBox="0 0 494 322" fill="none" xmlns="http://www.w3.org/2000/svg">
<mask id="mask0_1639_307" style="mask-type:alpha" maskUnits="userSpaceOnUse" x="0" y="0" width="494" height="4">
<rect x="494" y="4" width="494" height="4.00003" transform="rotate(-180 494 4)" fill="#C4C4C4"/>
</mask>
<g mask="url(#mask0_1639_307)">
<path d="M-139.912 3.99999L131.155 4L131.155 -2.6226e-05L-139.912 -3.49117e-05L-139.912 3.99999Z" fill="white"/>
<path d="M-232.827 3.99997L583.202 4L583.202 -0.250102L-232.827 -0.250128L-232.827 3.99997Z" fill="#2E93EE"/>
<path d="M93.48 2.24589C93.48 8.66258 101.887 13.8643 112.257 13.8643C122.627 13.8643 131.033 8.66258 131.033 2.24589C131.033 -4.1708 122.627 -9.37256 112.257 -9.37256C101.887 -9.37256 93.48 -4.1708 93.48 2.24589Z" fill="#F67922"/>
<path d="M47.282 27.7174L47.282 -6.91748L-0.26421 -6.91748L-0.264214 27.7174L47.282 27.7174Z" fill="#1D5297"/>
<path d="M47.1278 12.9263L47.1278 -5.11948L76.2915 -5.11948L47.1278 12.9263Z" fill="#FFCF00"/>
<path d="M215.435 3.99999L486.706 4L486.706 -2.6226e-05L215.435 -3.49182e-05L215.435 3.99999Z" fill="white"/>
<path d="M133.237 3.99997L938.805 4L938.805 -2.6226e-05L133.237 -5.20385e-05L133.237 3.99997Z" fill="#2E93EE"/>
<path d="M252.678 -16.5376L329.807 -16.5376L252.678 37.3413L252.678 -16.5376Z" fill="#F67922"/>
<path d="M212.908 0.571464C212.908 8.10288 223.564 13.862 235.746 13.862C247.927 13.862 257.802 7.75662 257.802 0.225207C257.802 -7.30621 247.927 -13.4116 235.746 -13.4116C223.564 -13.4116 212.908 -6.95995 212.908 0.571464Z" fill="#FFE885"/>
<path d="M449.003 2.24589C449.003 8.66258 457.945 13.8643 468.975 13.8643C480.006 13.8643 495.025 8.66258 495.025 2.24589C495.025 -4.1708 480.006 -9.37256 468.975 -9.37256C457.945 -9.37256 449.003 -4.1708 449.003 2.24589Z" fill="#F67922"/>
<path d="M402.77 27.7174L402.77 -6.91748L355.188 -6.91748L355.188 27.7174L402.77 27.7174Z" fill="#1D5297"/>
<path d="M402.615 12.9258L402.615 -5.11997L431.801 -5.11997L402.615 12.9258Z" fill="#FFCF00"/>
</g>
<mask id="mask1_1639_307" style="mask-type:alpha" maskUnits="userSpaceOnUse" x="0" y="318" width="494" height="4">
<rect x="494" y="322" width="494" height="4.00003" transform="rotate(-180 494 322)" fill="#C4C4C4"/>
</mask>
<g mask="url(#mask1_1639_307)">
<path d="M-139.912 322L131.155 322L131.155 318L-139.912 318L-139.912 322Z" fill="white"/>
<path d="M-232.827 322L583.202 322L583.202 317.75L-232.827 317.75L-232.827 322Z" fill="#2E93EE"/>
<path d="M93.48 320.246C93.48 326.663 101.887 331.864 112.257 331.864C122.627 331.864 131.033 326.663 131.033 320.246C131.033 313.829 122.627 308.627 112.257 308.627C101.887 308.627 93.48 313.829 93.48 320.246Z" fill="#F67922"/>
<path d="M47.282 345.717L47.282 311.083L-0.26421 311.083L-0.264214 345.717L47.282 345.717Z" fill="#1D5297"/>
<path d="M47.1278 330.926L47.1279 312.881L76.2915 312.881L47.1278 330.926Z" fill="#FFCF00"/>
<path d="M215.435 322L486.706 322L486.706 318L215.435 318L215.435 322Z" fill="white"/>
<path d="M133.237 322L938.805 322L938.805 318L133.237 318L133.237 322Z" fill="#2E93EE"/>
<path d="M252.678 301.462L329.807 301.462L252.678 355.341L252.678 301.462Z" fill="#F67922"/>
<path d="M212.908 318.571C212.908 326.103 223.564 331.862 235.746 331.862C247.927 331.862 257.802 325.757 257.802 318.225C257.802 310.694 247.927 304.588 235.746 304.588C223.564 304.588 212.908 311.04 212.908 318.571Z" fill="#FFE885"/>
<path d="M449.003 320.246C449.003 326.663 457.945 331.864 468.975 331.864C480.006 331.864 495.025 326.663 495.025 320.246C495.025 313.829 480.006 308.627 468.975 308.627C457.945 308.627 449.003 313.829 449.003 320.246Z" fill="#F67922"/>
<path d="M402.77 345.717L402.77 311.083L355.188 311.083L355.188 345.717L402.77 345.717Z" fill="#1D5297"/>
<path d="M402.615 330.926L402.615 312.88L431.801 312.88L402.615 330.926Z" fill="#FFCF00"/>
</g>
<mask id="mask2_1639_307" style="mask-type:alpha" maskUnits="userSpaceOnUse" x="0" y="0" width="4" height="322">
<rect y="322" width="322" height="4.00003" transform="rotate(-90 0 322)" fill="#C4C4C4"/>
</mask>
<g mask="url(#mask2_1639_307)">
<path d="M-1.50118e-05 -91.1975L0 85.4897L4.00003 85.4897L4.00001 -91.1975L-1.50118e-05 -91.1975Z" fill="white"/>
<path d="M-4.51919e-05 -151.762L0 380.144L4.2501 380.144L4.25006 -151.762L-4.51919e-05 -151.762Z" fill="#2E93EE"/>
<path d="M1.75411 60.9317C-4.66258 60.9317 -9.86433 66.4113 -9.86433 73.1707C-9.86433 79.9301 -4.66258 85.4097 1.75411 85.4097C8.1708 85.4097 13.3726 79.9301 13.3726 73.1707C13.3726 66.4113 8.1708 60.9317 1.75411 60.9317Z" fill="#F67922"/>
<path d="M-23.7174 30.8198L10.9175 30.8198L10.9175 -0.171824L-23.7174 -0.171824L-23.7174 30.8198Z" fill="#1D5297"/>
<path d="M-8.92627 30.718L9.11948 30.718L9.11948 49.7275L-8.92627 30.718Z" fill="#FFCF00"/>
<path d="M-1.50231e-05 140.425L0 317.245L4.00003 317.245L4.00001 140.425L-1.50231e-05 140.425Z" fill="white"/>
<path d="M-4.46126e-05 86.8475L0 611.935L4.00003 611.935L3.99998 86.8475L-4.46126e-05 86.8475Z" fill="#2E93EE"/>
<path d="M20.5376 164.701L20.5376 214.975L-33.3413 164.701L20.5376 164.701Z" fill="#F67922"/>
<path d="M3.42853 138.778C-4.10288 138.778 -9.86204 145.724 -9.86204 153.664C-9.86204 161.604 -3.75662 168.041 3.77479 168.041C11.3062 168.041 17.4116 161.604 17.4116 153.664C17.4116 145.724 10.9599 138.778 3.42853 138.778Z" fill="#FFE885"/>
<path d="M1.75411 292.671C-4.66258 292.671 -9.86434 298.499 -9.86434 305.689C-9.86434 312.879 -4.66258 322.669 1.75411 322.669C8.1708 322.669 13.3726 312.879 13.3726 305.689C13.3726 298.499 8.1708 292.671 1.75411 292.671Z" fill="#F67922"/>
<path d="M-23.7174 262.534L10.9175 262.534L10.9175 231.519L-23.7174 231.519L-23.7174 262.534Z" fill="#1D5297"/>
<path d="M-8.92578 262.433L9.11996 262.433L9.11997 281.457L-8.92578 262.433Z" fill="#FFCF00"/>
</g>
<mask id="mask3_1639_307" style="mask-type:alpha" maskUnits="userSpaceOnUse" x="490" y="0" width="4" height="322">
<rect x="490" y="322" width="322" height="4.00003" transform="rotate(-90 490 322)" fill="#C4C4C4"/>
</mask>
<g mask="url(#mask3_1639_307)">
<path d="M490 -91.1975L490 85.4897L494 85.4897L494 -91.1975L490 -91.1975Z" fill="white"/>
<path d="M490 -151.762L490 380.144L494.25 380.144L494.25 -151.762L490 -151.762Z" fill="#2E93EE"/>
<path d="M491.754 60.9317C485.337 60.9317 480.136 66.4113 480.136 73.1707C480.136 79.9301 485.337 85.4097 491.754 85.4097C498.171 85.4097 503.373 79.9301 503.373 73.1707C503.373 66.4113 498.171 60.9317 491.754 60.9317Z" fill="#F67922"/>
<path d="M466.283 30.8198L500.917 30.8198L500.917 -0.171824L466.283 -0.171824L466.283 30.8198Z" fill="#1D5297"/>
<path d="M481.074 30.718L499.119 30.718L499.119 49.7275L481.074 30.718Z" fill="#FFCF00"/>
<path d="M490 140.425L490 317.245L494 317.245L494 140.425L490 140.425Z" fill="white"/>
<path d="M490 86.8475L490 611.935L494 611.935L494 86.8475L490 86.8475Z" fill="#2E93EE"/>
<path d="M510.538 164.701L510.538 214.975L456.659 164.701L510.538 164.701Z" fill="#F67922"/>
<path d="M493.429 138.778C485.897 138.778 480.138 145.724 480.138 153.664C480.138 161.604 486.243 168.041 493.775 168.041C501.306 168.041 507.412 161.604 507.412 153.664C507.412 145.724 500.96 138.778 493.429 138.778Z" fill="#FFE885"/>
<path d="M491.754 292.671C485.337 292.671 480.136 298.499 480.136 305.689C480.136 312.879 485.337 322.669 491.754 322.669C498.171 322.669 503.373 312.879 503.373 305.689C503.373 298.499 498.171 292.671 491.754 292.671Z" fill="#F67922"/>
<path d="M466.283 262.534L500.917 262.534L500.917 231.519L466.283 231.519L466.283 262.534Z" fill="#1D5297"/>
<path d="M481.074 262.433L499.12 262.433L499.12 281.457L481.074 262.433Z" fill="#FFCF00"/>
</g>
</svg>

