<?xml version="1.0" encoding="utf-8"?>
<!-- Generator: Adobe Illustrator 25.0.0, SVG Export Plug-In . SVG Version: 6.00 Build 0)  -->
<svg version="1.1" id="Layer_1" xmlns="http://www.w3.org/2000/svg" xmlns:xlink="http://www.w3.org/1999/xlink" x="0px" y="0px"
	 viewBox="0 0 95 40" style="enable-background:new 0 0 95 40;" xml:space="preserve">
<style type="text/css">
	.st0{fill:#24BECA;}
</style>
<g>
	<path class="st0" d="M27.5,30.7c-1.6,2.2-3.7,4.5-6.5,6.3c-2.7,1.7-5.8,3.1-9.4,3.1c-3.3,0-6.1-1.8-7.7-3.2
		c-2.3-2.2-3.5-5.4-3.9-8.3C-1.1,19.4,4.5,7.2,13.3,1.9c2-1.2,4.3-1.8,6.3-1.8c4.2,0,7.3,3,7.8,6.6c0.4,3.2-0.9,6-4.5,7.8
		c-1.8,0.9-2.7,0.9-3,0.4c-0.2-0.3-0.1-0.8,0.3-1.1c3.4-2.8,3.4-5.1,3-8.4C22.9,3.3,21.6,2,20,2C13.4,2,3.8,16.8,5.2,27.6
		c0.5,4.2,3.1,9.1,8.4,9.1c1.8,0,3.6-0.5,5.3-1.3c3.7-1.9,5.4-3.3,7.6-6.3c0.3-0.4,0.6-0.8,0.9-1.3c0.2-0.4,0.5-0.5,0.8-0.5
		s0.6,0.3,0.7,0.7c0,0.3-0.1,0.8-0.4,1.3C28.2,29.7,27.9,30.2,27.5,30.7L27.5,30.7z"/>
	<path class="st0" d="M37.6,36.1c-1.7,0-2.6-0.9-2.9-2.2c-1.1,1.4-2.5,2.2-4.1,2.2c-2.5,0-5-2.2-5.3-5c-0.6-5,3.7-11.6,10.3-11.6
		c2.8,0,5.1,1.1,5.3,3.3c0.3,2.8-2,3.3-2.9,3.3c-0.8,0-2-0.2-2.1-0.9c-0.1-0.8,1.7-0.3,1.5-2.1c-0.1-1.1-1.3-1.5-2.4-1.5
		c-4,0-6.2,5.5-5.8,9c0.2,1.5,1,3.1,2.4,3.1c1.2,0,2.8-1.7,3.5-4.1c0.4-1.7,2-2.8,3.1-2.8c0.6,0,1,0.3,1.1,0.9c0,0.2,0,0.5-0.1,0.8
		c-0.1,0.7-0.7,3.1-0.7,3.6c0,0.4,0.3,1,1,1c0.8,0,4.7-2.3,7-5.4c0.2-0.3,0.6-0.4,0.9-0.4s0.6,0.2,0.7,0.6c0,0.4-0.1,0.9-0.6,1.5
		C44.9,33,39.5,36.1,37.6,36.1L37.6,36.1z"/>
	<path class="st0" d="M92.5,34.2c0.2,1.6,0.9,2.7,1.6,3.3c0.2,0.2,0.4,0.5,0.4,0.7c0.1,0.4-0.3,0.8-0.8,0.8c-0.2,0-0.4,0-0.6-0.1
		c-2.9-1.2-4-3.1-4.4-4.9c-1.1,1.4-2.6,2.2-4.1,2.2c-2.5,0-5-2.2-5.4-5.1c-0.6-5,3.9-11.5,10.3-11.5c2.7,0,5.1,1.1,5.3,3.3
		c0.3,2.8-2.1,3.4-2.9,3.4s-2.1-0.2-2.2-0.9s1.7-0.3,1.5-2c-0.1-1.1-1.3-1.5-2.4-1.5c-3.7,0-6.3,4.9-5.8,8.9
		c0.2,1.6,0.9,3.2,2.4,3.2c1.2,0,2.9-1.7,3.5-4.1c0.4-1.6,2-2.8,3.1-2.8c0.6,0,1,0.3,1.1,0.9c0,0.3-0.1,1.1-0.7,3.7
		C92.4,32.5,92.4,33.4,92.5,34.2L92.5,34.2z"/>
	<path class="st0" d="M58.1,33.2c0.9,0,3.8-1.1,6-4.2c0.2-0.3,0.6-0.4,0.9-0.4c0.4,0,0.7,0.2,0.7,0.6c0,0.3-0.2,0.8-0.6,1.5
		c-2.6,3.6-7,5.4-8.9,5.4c-2,0-3.1-1.2-3.3-3c-0.1-0.6-0.1-1.3,0.1-2.1c0.7-4.1,2.2-6.6,2.1-7.4c0-0.2-0.2-0.3-0.3-0.3
		c-1.3,0-5.7,4.6-6.4,7.6l-0.5,2.4c-0.3,1.7-2,2.8-3.2,2.8c-0.6,0-1-0.3-1.1-0.9c0-0.2,0-0.5,0.1-0.8c0,0,2.2-11.3,2.3-11.9
		c0.2-1.3,0.7-2.7,3.4-2.7c0.6,0,1,0.3,1.1,0.9c0,0.2,0,0.5-0.1,0.8l-0.8,3.4c2.4-3.2,6.1-5.5,8.3-5.5c0.9,0,1.7,0.5,1.8,1.5
		c0.1,0.6-0.1,1.5-0.5,2.5c-0.8,2.2-1.7,5.4-2.3,8.2C56.8,32.3,57,33.2,58.1,33.2L58.1,33.2z"/>
	<path class="st0" d="M73.2,20c0,1.5,0.8,3.2,1.8,4.2c0.4-1.1,0.6-2.1,0.6-3.2c0-2-0.8-2.9-1.4-2.9C73.5,18.1,73.2,19.1,73.2,20
		L73.2,20z M76.6,28.3c-0.3,0-0.6,0-0.9-0.1c-2.5,3.6-5.1,6.1-7.1,7.2c-0.8,0.4-1.6,0.7-2.2,0.7c-0.4,0-0.9-0.1-1.2-0.5
		c-0.9-1.5-1.3-4.5-1.3-7.7c0-2.3,0.2-4.2,0.6-5.6c0.4-1.4,2.3-2.8,3.5-2.8c0.6,0,1.1,0.3,1.1,1c0,0.2-0.1,0.5-0.2,0.8
		c-0.8,2.4-1.3,4.7-1.3,7c0,1.3,0.3,3.3,0.6,4.4c0.1,0.2,0.1,0.4,0.3,0.4c0.4,0,3-2.5,4.9-5.6c-1.7-1.1-2.6-3-2.6-5.4
		c0-4,2.4-6,4.7-6c1.8,0,3.5,1.3,3.5,4c0,1.7-0.7,3.5-1.6,5.4c0,0,0.4,0.1,0.6,0.1c1.4,0,2.5-0.7,3.2-1.4c0.4-0.5,0.8-0.8,1.2-0.8
		c0.3,0,0.4,0.2,0.4,0.5c0,0.2-0.1,0.4-0.2,0.7C81.2,26.8,78.6,28.3,76.6,28.3L76.6,28.3z"/>
</g>
</svg>
