<svg width="37" height="36" viewBox="0 0 37 36" fill="none" xmlns="http://www.w3.org/2000/svg">
<path d="M13.014 18.821L15.6406 21.4477L23.6688 12.7853C24.0237 12.4304 24.505 12.2311 25.0068 12.2311C25.5087 12.2311 25.99 12.4304 26.3449 12.7853C26.6997 13.1402 26.8991 13.6215 26.8991 14.1233C26.8991 14.6252 26.6997 15.1065 26.3449 15.4614L16.9786 25.4618C16.6238 25.8167 16.1425 26.016 15.6406 26.016C15.1388 26.016 14.6574 25.8166 14.3026 25.4618L10.3379 21.4971C9.98306 21.1422 9.78372 20.661 9.78372 20.1591C9.78372 19.6572 9.98306 19.1759 10.3379 18.8211C10.6928 18.4662 11.1741 18.2668 11.676 18.2668C12.1778 18.2668 12.6591 18.4662 13.014 18.821Z" fill="#35CF8B"/>
<path d="M18.5 35C27.8888 35 35.5 27.3888 35.5 18C35.5 8.61116 27.8888 1 18.5 1C9.11116 1 1.5 8.61116 1.5 18C1.5 27.3888 9.11116 35 18.5 35Z" stroke="#35CF8B" stroke-width="2"/>
</svg>
