<svg id="logo" xmlns="http://www.w3.org/2000/svg" width="141.797" height="29.846" viewBox="0 0 141.797 29.846">
  <path id="Caminho_247530" data-name="Caminho 247530" d="M14.923,0A14.923,14.923,0,1,0,25.476,4.371,14.923,14.923,0,0,0,14.923,0ZM8.1,19.544a1.257,1.257,0,0,1-2.512,0V10.3a1.257,1.257,0,0,1,2.512,0Zm5.377,0a1.26,1.26,0,1,1-2.52,0V10.3a1.26,1.26,0,1,1,2.52,0Zm5.376,0a1.26,1.26,0,1,1-2.52,0V10.3a1.26,1.26,0,1,1,2.52,0Zm5.413,0a1.26,1.26,0,1,1-2.52,0V10.3a1.26,1.26,0,1,1,2.52,0Z" fill="#fff"/>
  <path id="Caminho_247531" data-name="Caminho 247531" d="M130.38,12.485h-1.526a.778.778,0,0,0-.011-.144.946.946,0,0,1-.012-.168A5.406,5.406,0,0,1,128.952,11a6.74,6.74,0,0,1,.363-1.126H134.2L132,22.383a11.108,11.108,0,0,1-1.742.146,9.812,9.812,0,0,1-1.621-.146Zm.7-4.72a8.034,8.034,0,0,1,.108-1.61,10.772,10.772,0,0,1,.423-1.61,6.751,6.751,0,0,1,.921-.133q.484-.035.87-.035c.257,0,.545.012.861.035a6.033,6.033,0,0,1,.882.133A8.73,8.73,0,0,1,135,6.168a10.776,10.776,0,0,1-.435,1.6,8.09,8.09,0,0,1-.907.1c-.316.015-.6.024-.861.024s-.524,0-.84-.024a6.545,6.545,0,0,1-.882-.1Zm-35.854,4.72h2.016l-1.7,9.454a9.508,9.508,0,0,1-.47,1.848,3.8,3.8,0,0,1-.63,1.1,1.725,1.725,0,0,1-.763.533,2.8,2.8,0,0,1-.87.133,3.019,3.019,0,0,1-.521-.06,3.8,3.8,0,0,1-.593-.156,6.12,6.12,0,0,0-.8,2.613,7.346,7.346,0,0,0,2.2.336,6.8,6.8,0,0,0,1.984-.279,4.063,4.063,0,0,0,1.645-.968,6.117,6.117,0,0,0,1.272-1.848,11.9,11.9,0,0,0,.858-2.928l1.743-9.777h2.643a7.256,7.256,0,0,0,.363-1.319,8.142,8.142,0,0,0,.1-1.3h-2.638l.047-.217a6.381,6.381,0,0,1,.351-1.235,2.248,2.248,0,0,1,.484-.749,1.6,1.6,0,0,1,.63-.376,2.664,2.664,0,0,1,.787-.108,3.74,3.74,0,0,1,.672.059c.21.042.42.094.63.158a8.5,8.5,0,0,0,.558-1.258,12.148,12.148,0,0,0,.388-1.428,7.041,7.041,0,0,0-1.1-.242,9.473,9.473,0,0,0-1.247-.072,5.133,5.133,0,0,0-3.655,1.282,6.978,6.978,0,0,0-1.863,3.994l-.049.193H95.688a6.535,6.535,0,0,0-.363,1.332A8.286,8.286,0,0,0,95.228,12.485Zm-33.608-3.1a24.578,24.578,0,0,0,.435-3.848c0-.178,0-.326-.012-.449,0-.044-.008-.089-.012-.135h0c-.007-.083-.014-.17-.025-.263a8.8,8.8,0,0,1,.944-.109c.354-.024.662-.037.921-.037a9.2,9.2,0,0,1,1.549.146,3.006,3.006,0,0,1,.119.919A14.2,14.2,0,0,1,65.25,8.2l-.6,3.36a8.629,8.629,0,0,1,.64-.714,4.622,4.622,0,0,1,.812-.642,4.033,4.033,0,0,1,1.065-.46,5.229,5.229,0,0,1,1.4-.168,3.11,3.11,0,0,1,2.6,1.161,5.393,5.393,0,0,1,.911,3.375,10.961,10.961,0,0,1-.437,3.024A7.456,7.456,0,0,1,70.178,19.9a7.576,7.576,0,0,1-2.724,2.016,11.172,11.172,0,0,1-8.051.049Zm1.6,10.286a2.2,2.2,0,0,0,.5.109,5.3,5.3,0,0,0,.617.037,3.278,3.278,0,0,0,1.828-.5,4.238,4.238,0,0,0,1.258-1.258,5.481,5.481,0,0,0,.726-1.68,7.387,7.387,0,0,0,.23-1.791,2.917,2.917,0,0,0-.351-1.463,1.268,1.268,0,0,0-1.2-.618,2.426,2.426,0,0,0-1.912.944A6.578,6.578,0,0,0,63.75,16.57Zm-19.6.774a4.061,4.061,0,0,0-.435-1.04,7.182,7.182,0,0,1-1.3.412,5.817,5.817,0,0,1-1.053.1,2.433,2.433,0,0,1-1.721-.633,2.571,2.571,0,0,1-.672-1.961,7.392,7.392,0,0,1,.23-1.863,4.95,4.95,0,0,1,.7-1.583,3.76,3.76,0,0,1,1.176-1.112,3.125,3.125,0,0,1,1.647-.423,5.087,5.087,0,0,1,1.149.121,6.988,6.988,0,0,1,1.052.336,4.927,4.927,0,0,0,.6-1.368,5.938,5.938,0,0,0,.218-1.344A7.273,7.273,0,0,0,43.734,9.7a10.327,10.327,0,0,0-1.6-.121,6.422,6.422,0,0,0-3.11.724,7.319,7.319,0,0,0-2.263,1.875,8.179,8.179,0,0,0-1.391,2.589,9.186,9.186,0,0,0-.472,2.868,5.126,5.126,0,0,0,1.282,3.7,5.367,5.367,0,0,0,4.042,1.344,11.781,11.781,0,0,0,1.912-.145,6.97,6.97,0,0,0,1.645-.484A6.049,6.049,0,0,0,43.615,20.448Zm3.544.927a4.691,4.691,0,0,0,3.666,1.307,6.515,6.515,0,0,0,3.122-.719,6.628,6.628,0,0,0,2.2-1.875,8.115,8.115,0,0,0,1.294-2.614,10.486,10.486,0,0,0,.432-2.96A5.25,5.25,0,0,0,56.7,10.908,4.689,4.689,0,0,0,53,9.577a6.216,6.216,0,0,0-3.093.751,6.858,6.858,0,0,0-2.184,1.912,8.4,8.4,0,0,0-1.307,2.638,10.171,10.171,0,0,0-.435,2.917A5.169,5.169,0,0,0,47.159,21.375Zm5.529-1.887a2.2,2.2,0,0,1-1.549.58v-.008q-1.719,0-1.719-2.144a10.743,10.743,0,0,1,.158-1.719,7.408,7.408,0,0,1,.544-1.84,4.846,4.846,0,0,1,.993-1.475,2.06,2.06,0,0,1,1.524-.606q1.815,0,1.815,2.228a10.01,10.01,0,0,1-.168,1.729,7.329,7.329,0,0,1-.57,1.816A4.515,4.515,0,0,1,52.688,19.488Zm22.478-6.942q-.133,1.173-.4,2.7l-1.3,7.144a9.512,9.512,0,0,0,1.67.146,11.567,11.567,0,0,0,1.766-.146l.9-4.872q.193-1.063.435-1.936a5.163,5.163,0,0,1,.654-1.489,2.832,2.832,0,0,1,1.053-.956A3.484,3.484,0,0,1,81.57,12.8a3.044,3.044,0,0,1,.435.025c.113.015.218.032.316.049a4.225,4.225,0,0,0,.459-1.211,6.185,6.185,0,0,0,.168-1.4v-.218a.839.839,0,0,0-.024-.193,2.772,2.772,0,0,0-.872-.121,3.389,3.389,0,0,0-1.2.2,3.961,3.961,0,0,0-.991.544A5.329,5.329,0,0,0,78.446,12.1c.032-.21.049-.386.061-.533s.012-.291.012-.437h0a4.693,4.693,0,0,0-.049-.8c-.032-.178-.064-.331-.1-.46-.271-.049-.533-.084-.775-.108a7,7,0,0,0-.726-.037,9.011,9.011,0,0,0-1.6.144,3.93,3.93,0,0,1,.023.4v.447A17.246,17.246,0,0,1,75.167,12.546Zm11.21,5.1a2.7,2.7,0,0,0,.775,1.731,2.659,2.659,0,0,0,1.84.568,6.365,6.365,0,0,0,1.707-.2,13.709,13.709,0,0,0,1.561-.544,2.662,2.662,0,0,1,.519,1.176,7.686,7.686,0,0,1,.134,1.463,6.618,6.618,0,0,1-.956.351c-.363.1-.739.193-1.126.265s-.775.129-1.163.168a10.124,10.124,0,0,1-1.04.06,7.788,7.788,0,0,1-2.52-.363,4.635,4.635,0,0,1-1.742-1.028,4.007,4.007,0,0,1-1.03-1.626,6.5,6.5,0,0,1-.328-2.119,8.594,8.594,0,0,1,.5-2.9,8.339,8.339,0,0,1,1.44-2.554,7.171,7.171,0,0,1,2.275-1.815,6.492,6.492,0,0,1,3.023-.691,5.481,5.481,0,0,1,1.487.2,3.394,3.394,0,0,1,1.2.593,2.84,2.84,0,0,1,.8.979,3,3,0,0,1,.291,1.356,3.447,3.447,0,0,1-.5,1.887,4.535,4.535,0,0,1-1.356,1.356,7.972,7.972,0,0,1-1.924.907,13.542,13.542,0,0,1-2.24.521Zm1.379-2.468a7.324,7.324,0,0,0,1.5-.375,3.487,3.487,0,0,0,.919-.5,1.4,1.4,0,0,0,.581-1.149.994.994,0,0,0-.3-.751,1.119,1.119,0,0,0-.81-.3,2.4,2.4,0,0,0-1.149.277,3.071,3.071,0,0,0-.907.738,4.827,4.827,0,0,0-.672,1.053,6.373,6.373,0,0,0-.424,1.2Zm26.693,1.8q-.267,1.512-.386,2.688t-.121,1.826v.449a3.339,3.339,0,0,0,.024.4,8.881,8.881,0,0,1-1.573.145,8.78,8.78,0,0,1-1.5-.145c-.034-.129-.066-.282-.1-.46a4.954,4.954,0,0,1-.049-.8v-.46a3.861,3.861,0,0,1,.049-.558A6.364,6.364,0,0,1,109,21.921a4.367,4.367,0,0,1-2.54.761,2.869,2.869,0,0,1-2.4-1.008,4.216,4.216,0,0,1-.8-2.688,11.358,11.358,0,0,1,.546-3.528,8.965,8.965,0,0,1,1.621-3,7.993,7.993,0,0,1,2.673-2.094,8.373,8.373,0,0,1,3.727-.786,12.678,12.678,0,0,1,1.986.144,13.833,13.833,0,0,1,1.815.412Zm-2.491-4.508a2.587,2.587,0,0,0-.425-.061c-.069,0-.137,0-.2-.007s-.131-.007-.195-.007a3.3,3.3,0,0,0-1.972.581,4.935,4.935,0,0,0-1.344,1.452,6.453,6.453,0,0,0-.773,1.877,7.815,7.815,0,0,0-.244,1.826q0,1.791,1.187,1.791a2.682,2.682,0,0,0,2.153-1.416,10.005,10.005,0,0,0,1.452-3.98Zm-.025-7.478a14.666,14.666,0,0,1,2.184-.146c.42,0,.779.013,1.077.037s.61.06.932.109l-3.419,2.976c-.21.034-.46.066-.749.1a8.445,8.445,0,0,1-.921.049,8.728,8.728,0,0,1-1.573-.146ZM125.8,20.448a4.1,4.1,0,0,0-.437-1.04,7.187,7.187,0,0,1-1.3.407,5.818,5.818,0,0,1-1.053.1,2.432,2.432,0,0,1-1.719-.628,2.571,2.571,0,0,1-.672-1.961,7.409,7.409,0,0,1,.23-1.863,4.953,4.953,0,0,1,.706-1.583,3.765,3.765,0,0,1,1.176-1.112,3.127,3.127,0,0,1,1.647-.423,5.092,5.092,0,0,1,1.149.121,7.027,7.027,0,0,1,1.052.336,4.9,4.9,0,0,0,.6-1.368,5.888,5.888,0,0,0,.219-1.344,7.265,7.265,0,0,0-1.477-.386,10.327,10.327,0,0,0-1.6-.121,6.418,6.418,0,0,0-3.113.731,7.316,7.316,0,0,0-2.264,1.875,8.185,8.185,0,0,0-1.394,2.582,9.169,9.169,0,0,0-.472,2.868,5.135,5.135,0,0,0,1.282,3.7,5.362,5.362,0,0,0,4.042,1.344,11.791,11.791,0,0,0,1.912-.145,6.973,6.973,0,0,0,1.645-.484A6.138,6.138,0,0,0,125.8,20.448Zm12.33-13.3q-.109.956-.375,2.238l-1.6,8.268c-.048.284-.089.538-.121.788a5.682,5.682,0,0,0-.048.714,3.187,3.187,0,0,0,.944,2.552,3.841,3.841,0,0,0,2.589.812,8.849,8.849,0,0,0,1.284-.086,4.181,4.181,0,0,0,.944-.23c.009-.076.016-.15.022-.222,0-.049.008-.1.013-.141a3.5,3.5,0,0,0,.012-.363,5.678,5.678,0,0,0-.084-.991,8.844,8.844,0,0,0-.205-.9,2.777,2.777,0,0,1-.484.109,3.345,3.345,0,0,1-.364.035,2.732,2.732,0,0,1-.436-.035.926.926,0,0,1-.386-.158.876.876,0,0,1-.279-.336,1.365,1.365,0,0,1-.109-.6,4.213,4.213,0,0,1,.072-.672l1.865-9.73q.143-.775.242-1.426a8.087,8.087,0,0,0,.1-1.163,2.976,2.976,0,0,0-.121-.919,9.173,9.173,0,0,0-1.549-.146c-.257,0-.565.013-.919.037a8.765,8.765,0,0,0-.945.109c.011.093.018.18.025.263q.006.07.012.135c.012.123.012.271.012.449A14.68,14.68,0,0,1,138.131,7.149Z" fill="#fff"/>
</svg>
