<svg xmlns="http://www.w3.org/2000/svg" width="203.463" height="21" viewBox="0 0 203.463 21">
  <g id="Grupo_39732" data-name="Grupo 39732" transform="translate(22.842)">
    <g id="Grupo_3" data-name="Grupo 3" transform="translate(87 3)">
      <g id="Grupo_1166" data-name="Grupo 1166">
        <path id="Caminho_2379" data-name="Caminho 2379" d="M6349.351,824.759c.138.849.909,1.165,1.757,1.165.83,0,1.492-.356,1.511-.79.03-.656-.484-1.045-1.214-1.186-.5-.1-2.013-.395-2.013-.395-1.836-.336-2.883-.867-2.883-2.427,0-2.033,1.757-3.356,4.265-3.356,2.468,0,4.105,1.125,4.5,2.843l-2.882.572a1.54,1.54,0,0,0-1.658-1.165c-.849,0-1.274.357-1.354.77-.051.272.081.5.979.691.58.125,2.329.474,2.329.474,1.875.395,2.743,1.52,2.743,2.981,0,2.191-1.895,3.336-4.5,3.336-2.33,0-4.323-.849-4.66-2.882Z" transform="translate(-6322.182 -814.501)" fill="#fff"/>
        <g id="Grupo_1165" data-name="Grupo 1165">
          <path id="Caminho_2380" data-name="Caminho 2380" d="M6438.858,809.172a9.844,9.844,0,0,1,.079,1.21,6.656,6.656,0,0,1-6.882,6.921,6.943,6.943,0,1,1-.059-13.881c2.953,0,5.552,1.388,6.485,3.986l-3.154.912a3.422,3.422,0,0,0-3.331-1.9,3.8,3.8,0,0,0-3.808,3.946,3.854,3.854,0,0,0,3.906,3.966,3.484,3.484,0,0,0,3.51-2.38h-4.065v-2.776Z" transform="translate(-6382.895 -803.421)" fill="#fff"/>
          <g id="Text-Default" transform="translate(0 0.072)">
            <g id="Grupo_1164" data-name="Grupo 1164">
              <g id="Grupo_1163" data-name="Grupo 1163">
                <path id="Caminho_2381" data-name="Caminho 2381" d="M6252.655,817.021H6249.4v-5.255h-5.592v5.255h-3.271V803.735h3.271v5.176h5.592v-5.176h3.252Z" transform="translate(-6240.54 -803.735)" fill="#fff"/>
                <path id="Caminho_2382" data-name="Caminho 2382" d="M6308.25,822.461a5.489,5.489,0,1,1-5.454-5.235A5.234,5.234,0,0,1,6308.25,822.461Zm-3.054,0a2.433,2.433,0,1,0-2.4,2.578A2.476,2.476,0,0,0,6305.2,822.461Z" transform="translate(-6284.355 -814.152)" fill="#fff"/>
                <path id="Caminho_2383" data-name="Caminho 2383" d="M6396.587,816.585a5.4,5.4,0,0,1-2.717.734c-2.478,0-3.965-1.349-3.965-3.966v-3.768h-1.8v-2.518h1.8v-2.648l3.172-.683v3.332h2.935v2.518h-2.935v3.45c0,1.031.5,1.448,1.329,1.448a3.242,3.242,0,0,0,1.448-.4Z" transform="translate(-6354.482 -803.735)" fill="#fff"/>
                <path id="Caminho_2384" data-name="Caminho 2384" d="M6497.574,821V827.3h-3.055v-.734a4.394,4.394,0,0,1-2.975,1.031c-2.22,0-3.707-1.289-3.707-3.252,0-1.943,1.487-3.212,4.145-3.212h2.537v-.2a1.326,1.326,0,0,0-1.406-1.388,1.449,1.449,0,0,0-1.666,1.249l-3-.615c.437-1.924,2.182-3.133,4.562-3.133C6495.808,817.052,6497.574,818.46,6497.574,821Zm-3.055,2.38v-.218h-2.181c-.793,0-1.288.417-1.288,1.031,0,.635.555,1.031,1.388,1.031A1.949,1.949,0,0,0,6494.519,823.378Z" transform="translate(-6431.496 -814.018)" fill="#fff"/>
                <path id="Caminho_2385" data-name="Caminho 2385" d="M6541.144,816.585a5.4,5.4,0,0,1-2.716.734c-2.479,0-3.967-1.349-3.967-3.966v-3.768h-1.8v-2.518h1.8v-2.648l3.174-.683v3.332h2.935v2.518h-2.935v3.45c0,1.031.5,1.448,1.328,1.448a3.247,3.247,0,0,0,1.448-.4Z" transform="translate(-6466.104 -803.735)" fill="#fff"/>
                <path id="Caminho_2386" data-name="Caminho 2386" d="M6578.7,822.461a5.489,5.489,0,1,1-5.452-5.235A5.234,5.234,0,0,1,6578.7,822.461Zm-3.053,0a2.433,2.433,0,1,0-2.4,2.578A2.476,2.476,0,0,0,6575.646,822.461Z" transform="translate(-6493.189 -814.152)" fill="#fff"/>
                <path id="Caminho_2387" data-name="Caminho 2387" d="M6626.659,817.827l-.14,3.173h-.575c-2.221,0-3.431,1.15-3.431,3.728v3.113h-3.173V818.57l3.173-.683v1.9a3.846,3.846,0,0,1,3.431-2.043A2.725,2.725,0,0,1,6626.659,817.827Z" transform="translate(-6533.038 -814.555)" fill="#fff"/>
              </g>
            </g>
          </g>
        </g>
      </g>
    </g>
    <text id="_" data-name="+" transform="translate(70.465)" fill="#fff" font-size="16" font-family="Roboto-Medium, Roboto" font-weight="500" letter-spacing="0.001em"><tspan x="0" y="17">+</tspan></text>
    <g id="logo" transform="translate(-22.842 2)">
      <path id="Caminho_247530" data-name="Caminho 247530" d="M9.027,0A9.027,9.027,0,1,0,15.41,2.644,9.027,9.027,0,0,0,9.027,0ZM4.9,11.822a.76.76,0,0,1-1.519,0V6.232a.76.76,0,0,1,1.519,0Zm3.252,0a.762.762,0,1,1-1.524,0V6.232a.762.762,0,1,1,1.524,0Zm3.252,0a.762.762,0,1,1-1.524,0V6.232a.762.762,0,1,1,1.524,0Zm3.275,0a.762.762,0,1,1-1.524,0V6.232a.762.762,0,1,1,1.524,0Z" transform="translate(0 0)" fill="#fff"/>
      <path id="Caminho_247531" data-name="Caminho 247531" d="M92.655,9.282h-.923a.471.471,0,0,0-.007-.087.573.573,0,0,1-.007-.1,3.272,3.272,0,0,1,.073-.711,4.078,4.078,0,0,1,.22-.681h2.957l-1.333,7.568a6.719,6.719,0,0,1-1.054.088,5.935,5.935,0,0,1-.981-.088Zm.425-2.855a4.86,4.86,0,0,1,.065-.974A6.515,6.515,0,0,1,93.4,4.48a4.084,4.084,0,0,1,.557-.08q.293-.021.526-.021c.155,0,.33.007.521.021a3.65,3.65,0,0,1,.534.08,5.281,5.281,0,0,1-.088.981,6.518,6.518,0,0,1-.263.967,4.893,4.893,0,0,1-.549.059c-.191.009-.364.014-.521.014s-.317,0-.508-.014a3.959,3.959,0,0,1-.534-.059ZM71.392,9.282h1.22L71.586,15a5.751,5.751,0,0,1-.285,1.118,2.3,2.3,0,0,1-.381.666,1.043,1.043,0,0,1-.461.322,1.692,1.692,0,0,1-.526.08,1.827,1.827,0,0,1-.315-.037,2.3,2.3,0,0,1-.359-.094,3.7,3.7,0,0,0-.483,1.58,4.444,4.444,0,0,0,1.332.2,4.111,4.111,0,0,0,1.2-.169,2.458,2.458,0,0,0,.995-.585,3.7,3.7,0,0,0,.769-1.118,7.2,7.2,0,0,0,.519-1.771l1.054-5.914h1.6a4.389,4.389,0,0,0,.22-.8,4.926,4.926,0,0,0,.059-.784h-1.6l.028-.131a3.86,3.86,0,0,1,.212-.747,1.359,1.359,0,0,1,.293-.453.97.97,0,0,1,.381-.228,1.611,1.611,0,0,1,.476-.065,2.262,2.262,0,0,1,.406.036c.127.025.254.057.381.1a5.144,5.144,0,0,0,.338-.761,7.351,7.351,0,0,0,.235-.864,4.259,4.259,0,0,0-.667-.146,5.73,5.73,0,0,0-.754-.044,3.105,3.105,0,0,0-2.211.775A4.221,4.221,0,0,0,72.92,7.584L72.89,7.7h-1.22a3.953,3.953,0,0,0-.22.806A5.011,5.011,0,0,0,71.392,9.282ZM51.063,7.408a14.866,14.866,0,0,0,.263-2.327c0-.108,0-.2-.007-.271,0-.027,0-.054-.007-.082h0c0-.05-.009-.1-.015-.159a5.323,5.323,0,0,1,.571-.066c.214-.014.4-.022.557-.022a5.563,5.563,0,0,1,.937.088,1.818,1.818,0,0,1,.072.556,8.588,8.588,0,0,1-.175,1.566l-.366,2.033a5.218,5.218,0,0,1,.387-.432,2.8,2.8,0,0,1,.491-.388,2.439,2.439,0,0,1,.644-.278,3.163,3.163,0,0,1,.849-.1,1.881,1.881,0,0,1,1.574.7,3.262,3.262,0,0,1,.551,2.042,6.631,6.631,0,0,1-.264,1.829,4.51,4.51,0,0,1-.885,1.669,4.583,4.583,0,0,1-1.647,1.22,6.758,6.758,0,0,1-4.87.029Zm.967,6.222a1.328,1.328,0,0,0,.3.066,3.2,3.2,0,0,0,.373.022,1.983,1.983,0,0,0,1.106-.3,2.563,2.563,0,0,0,.761-.761,3.315,3.315,0,0,0,.439-1.016,4.469,4.469,0,0,0,.139-1.083,1.765,1.765,0,0,0-.212-.885.767.767,0,0,0-.725-.374,1.467,1.467,0,0,0-1.157.571,3.979,3.979,0,0,0-.7,1.888ZM40.172,14.1a2.457,2.457,0,0,0-.263-.629,4.344,4.344,0,0,1-.786.249,3.519,3.519,0,0,1-.637.058,1.472,1.472,0,0,1-1.041-.383,1.555,1.555,0,0,1-.406-1.186,4.471,4.471,0,0,1,.139-1.127,2.994,2.994,0,0,1,.423-.957,2.274,2.274,0,0,1,.711-.673,1.891,1.891,0,0,1,1-.256,3.077,3.077,0,0,1,.7.073,4.227,4.227,0,0,1,.636.2,2.98,2.98,0,0,0,.366-.827,3.592,3.592,0,0,0,.132-.813,4.4,4.4,0,0,0-.893-.234,6.246,6.246,0,0,0-.966-.073,3.885,3.885,0,0,0-1.881.438A4.427,4.427,0,0,0,36.028,9.1a4.947,4.947,0,0,0-.842,1.566A5.557,5.557,0,0,0,34.9,12.4a3.1,3.1,0,0,0,.775,2.236,3.247,3.247,0,0,0,2.445.813,7.126,7.126,0,0,0,1.157-.087,4.216,4.216,0,0,0,.995-.293A3.659,3.659,0,0,0,40.172,14.1Zm2.144.561a2.838,2.838,0,0,0,2.218.791,3.941,3.941,0,0,0,1.888-.435,4.009,4.009,0,0,0,1.332-1.134,4.909,4.909,0,0,0,.783-1.581,6.343,6.343,0,0,0,.261-1.791,3.176,3.176,0,0,0-.711-2.181,2.837,2.837,0,0,0-2.236-.8,3.76,3.76,0,0,0-1.871.454,4.148,4.148,0,0,0-1.321,1.157,5.081,5.081,0,0,0-.791,1.6,6.152,6.152,0,0,0-.263,1.764A3.126,3.126,0,0,0,42.316,14.659Zm3.345-1.141a1.333,1.333,0,0,1-.937.351v-.005q-1.04,0-1.04-1.3a6.5,6.5,0,0,1,.1-1.04,4.481,4.481,0,0,1,.329-1.113,2.931,2.931,0,0,1,.6-.892,1.246,1.246,0,0,1,.922-.367q1.1,0,1.1,1.348a6.055,6.055,0,0,1-.1,1.046,4.433,4.433,0,0,1-.345,1.1A2.731,2.731,0,0,1,45.661,13.518Zm13.6-4.2q-.08.709-.242,1.632l-.789,4.321a5.754,5.754,0,0,0,1.01.088,7,7,0,0,0,1.068-.088l.542-2.947q.117-.643.263-1.171a3.123,3.123,0,0,1,.4-.9,1.713,1.713,0,0,1,.637-.578,2.107,2.107,0,0,1,.988-.2,1.841,1.841,0,0,1,.263.015c.068.009.132.019.191.03a2.555,2.555,0,0,0,.277-.733,3.741,3.741,0,0,0,.1-.849V7.8a.507.507,0,0,0-.014-.117,1.677,1.677,0,0,0-.527-.073,2.05,2.05,0,0,0-.725.124,2.4,2.4,0,0,0-.6.329,3.224,3.224,0,0,0-.857.982c.019-.127.03-.234.037-.322s.007-.176.007-.264h0a2.84,2.84,0,0,0-.029-.483c-.019-.108-.039-.2-.058-.278-.164-.029-.322-.051-.469-.065a4.233,4.233,0,0,0-.439-.022,5.451,5.451,0,0,0-.966.087,2.378,2.378,0,0,1,.014.242v.27A10.431,10.431,0,0,1,59.257,9.319ZM66.038,12.4a1.631,1.631,0,0,0,.469,1.047,1.608,1.608,0,0,0,1.113.344,3.85,3.85,0,0,0,1.033-.124,8.292,8.292,0,0,0,.944-.329,1.61,1.61,0,0,1,.314.711,4.648,4.648,0,0,1,.081.885,4,4,0,0,1-.578.212c-.22.063-.447.117-.681.161s-.468.078-.7.1a6.125,6.125,0,0,1-.629.037,4.711,4.711,0,0,1-1.524-.22,2.8,2.8,0,0,1-1.054-.622,2.424,2.424,0,0,1-.623-.984,3.932,3.932,0,0,1-.2-1.282,5.2,5.2,0,0,1,.3-1.756,5.044,5.044,0,0,1,.871-1.545,4.338,4.338,0,0,1,1.376-1.1,3.927,3.927,0,0,1,1.828-.418,3.315,3.315,0,0,1,.9.12A2.053,2.053,0,0,1,70,8a1.718,1.718,0,0,1,.483.592,1.812,1.812,0,0,1,.176.82,2.085,2.085,0,0,1-.3,1.141,2.743,2.743,0,0,1-.82.82,4.822,4.822,0,0,1-1.164.549,8.191,8.191,0,0,1-1.355.315Zm.834-1.493a4.43,4.43,0,0,0,.909-.227,2.109,2.109,0,0,0,.556-.3.849.849,0,0,0,.352-.7.6.6,0,0,0-.184-.454.677.677,0,0,0-.49-.18,1.453,1.453,0,0,0-.7.168,1.858,1.858,0,0,0-.549.446,2.92,2.92,0,0,0-.406.637,3.855,3.855,0,0,0-.256.725Zm16.146,1.086q-.162.915-.233,1.626t-.073,1.1V15a2.02,2.02,0,0,0,.015.242,5.372,5.372,0,0,1-.951.087,5.311,5.311,0,0,1-.907-.087c-.021-.078-.04-.171-.059-.278a3,3,0,0,1-.03-.483V14.2a2.336,2.336,0,0,1,.03-.337,3.849,3.849,0,0,1-1.083,1.128,2.641,2.641,0,0,1-1.536.46,1.735,1.735,0,0,1-1.449-.61,2.55,2.55,0,0,1-.484-1.626,6.87,6.87,0,0,1,.33-2.134,5.423,5.423,0,0,1,.981-1.815A4.835,4.835,0,0,1,79.183,8a5.065,5.065,0,0,1,2.254-.476,7.668,7.668,0,0,1,1.2.087,8.368,8.368,0,0,1,1.1.249ZM81.512,9.268a1.565,1.565,0,0,0-.257-.037c-.042,0-.083,0-.123,0s-.079,0-.118,0a2,2,0,0,0-1.193.352,2.985,2.985,0,0,0-.813.878,3.9,3.9,0,0,0-.468,1.135,4.728,4.728,0,0,0-.148,1.1q0,1.083.718,1.083a1.622,1.622,0,0,0,1.3-.857,6.052,6.052,0,0,0,.878-2.408ZM81.5,4.744a8.871,8.871,0,0,1,1.321-.088c.254,0,.471.008.651.022s.369.037.564.066l-2.068,1.8c-.127.02-.278.04-.453.059a5.109,5.109,0,0,1-.557.029A5.279,5.279,0,0,1,80,6.544ZM89.885,14.1a2.478,2.478,0,0,0-.264-.629,4.348,4.348,0,0,1-.786.246,3.519,3.519,0,0,1-.637.058,1.471,1.471,0,0,1-1.04-.38,1.555,1.555,0,0,1-.406-1.186,4.481,4.481,0,0,1,.139-1.127,3,3,0,0,1,.427-.957,2.277,2.277,0,0,1,.711-.673,1.891,1.891,0,0,1,1-.256,3.08,3.08,0,0,1,.7.073,4.25,4.25,0,0,1,.636.2,2.964,2.964,0,0,0,.365-.827,3.561,3.561,0,0,0,.132-.813,4.394,4.394,0,0,0-.893-.234A6.247,6.247,0,0,0,89,7.523a3.882,3.882,0,0,0-1.883.442A4.426,4.426,0,0,0,85.744,9.1a4.951,4.951,0,0,0-.843,1.562,5.546,5.546,0,0,0-.285,1.735,3.106,3.106,0,0,0,.775,2.236,3.243,3.243,0,0,0,2.445.813,7.132,7.132,0,0,0,1.157-.087,4.218,4.218,0,0,0,1-.293A3.713,3.713,0,0,0,89.885,14.1Zm7.458-8.044q-.066.578-.227,1.354l-.967,5c-.029.172-.054.325-.073.477a3.436,3.436,0,0,0-.029.432,1.927,1.927,0,0,0,.571,1.544,2.323,2.323,0,0,0,1.566.491,5.352,5.352,0,0,0,.777-.052,2.529,2.529,0,0,0,.571-.139c.005-.046.01-.091.013-.134s0-.058.008-.085a2.122,2.122,0,0,0,.007-.22,3.433,3.433,0,0,0-.051-.6,5.35,5.35,0,0,0-.124-.542,1.679,1.679,0,0,1-.293.066,2.024,2.024,0,0,1-.22.021,1.652,1.652,0,0,1-.264-.021.56.56,0,0,1-.233-.1.53.53,0,0,1-.169-.2.826.826,0,0,1-.066-.366,2.547,2.547,0,0,1,.044-.407l1.128-5.885q.086-.469.146-.863a4.891,4.891,0,0,0,.058-.7,1.8,1.8,0,0,0-.073-.556,5.549,5.549,0,0,0-.937-.088c-.155,0-.342.008-.556.022a5.3,5.3,0,0,0-.572.066c.007.056.011.109.015.159l.007.082c.007.074.007.164.007.271A8.88,8.88,0,0,1,97.344,6.054Z" transform="translate(-13.79 -2.379)" fill="#fff"/>
    </g>
  </g>
</svg>
