<?xml version="1.0" encoding="utf-8"?>
<!-- Generator: Adobe Illustrator 24.0.0, SVG Export Plug-In . SVG Version: 6.00 Build 0)  -->
<svg version="1.1" id="Layer_1" xmlns="http://www.w3.org/2000/svg" xmlns:xlink="http://www.w3.org/1999/xlink" x="0px" y="0px"
	 viewBox="0 0 282 60.122" style="enable-background:new 0 0 282 60.122;" xml:space="preserve">
<style type="text/css">
	.st0{fill-rule:evenodd;clip-rule:evenodd;fill:#00AF74;}
	.st1{fill-rule:evenodd;clip-rule:evenodd;}
	.st2{fill:#091B2A;}
	.st3{fill:#00AF74;}
</style>
<g id="CodeGuard_Logo_3_">
	<path class="st0" d="M94.865,20.455l-3.593,3.38c-2.444-2.549-5.186-3.825-8.242-3.825c-2.575,0-4.75,0.873-6.512,2.612
		c-1.768,1.739-2.65,3.881-2.65,6.43c0,1.776,0.394,3.355,1.175,4.728c0.782,1.38,1.887,2.464,3.312,3.249
		c1.431,0.786,3.018,1.177,4.768,1.177c1.487,0,2.85-0.272,4.081-0.823c1.237-0.551,2.594-1.553,4.068-3.002l3.48,3.603
		c-1.987,1.925-3.868,3.262-5.636,4.004c-1.768,0.749-3.793,1.121-6.061,1.121c-4.187,0-7.617-1.313-10.285-3.942
		c-2.668-2.624-4-5.998-4-10.1c0-2.661,0.606-5.02,1.825-7.087c1.212-2.067,2.95-3.726,5.218-4.983
		c2.262-1.257,4.7-1.888,7.318-1.888c2.219,0,4.356,0.464,6.417,1.393C91.604,17.429,93.378,18.747,94.865,20.455L94.865,20.455z"/>
	<path class="st0" d="M108.164,22.237c1.881,0,3.649,0.464,5.305,1.393c1.662,0.928,2.949,2.184,3.881,3.776
		c0.93,1.596,1.393,3.311,1.393,5.156c0,1.857-0.468,3.59-1.4,5.205c-0.938,1.615-2.212,2.879-3.825,3.788
		c-1.619,0.91-3.393,1.368-5.337,1.368c-2.862,0-5.305-1.002-7.323-3.008c-2.024-2.011-3.036-4.45-3.036-7.316
		c0-3.076,1.144-5.639,3.43-7.687C103.258,23.129,105.558,22.237,108.164,22.237L108.164,22.237z M108.238,26.879
		c-1.556,0-2.849,0.533-3.881,1.596c-1.031,1.071-1.55,2.432-1.55,4.097c0,1.708,0.512,3.095,1.53,4.153
		c1.019,1.058,2.312,1.59,3.881,1.59c1.563,0,2.862-0.538,3.905-1.609c1.038-1.071,1.556-2.451,1.556-4.134
		c0-1.689-0.512-3.058-1.53-4.115C111.133,27.406,109.826,26.879,108.238,26.879L108.238,26.879z"/>
	<path class="st0" d="M137.533,15.107h4.987V42.44h-4.987v-2.099c-0.975,0.916-1.955,1.572-2.937,1.974
		c-0.981,0.402-2.05,0.607-3.194,0.607c-2.581,0-4.805-0.983-6.686-2.959c-1.881-1.968-2.819-4.419-2.819-7.346
		c0-3.039,0.912-5.527,2.731-7.471c1.818-1.937,4.024-2.909,6.623-2.909c1.2,0,2.318,0.223,3.368,0.663
		c1.049,0.445,2.018,1.114,2.912,1.998v-9.791C137.531,15.107,137.533,15.107,137.533,15.107z M132.278,26.768
		c-1.55,0-2.837,0.538-3.855,1.622c-1.025,1.076-1.537,2.464-1.537,4.153c0,1.702,0.518,3.101,1.562,4.203
		c1.044,1.095,2.325,1.646,3.849,1.646c1.569,0,2.874-0.538,3.905-1.622c1.038-1.076,1.556-2.495,1.556-4.246
		c0-1.715-0.518-3.101-1.556-4.166C135.171,27.3,133.86,26.768,132.278,26.768L132.278,26.768z"/>
	<path class="st0" d="M167.478,33.972H151.45c0.232,1.404,0.85,2.525,1.849,3.361c1.001,0.829,2.28,1.244,3.831,1.244
		c1.862,0,3.456-0.65,4.793-1.95l4.187,1.963c-1.044,1.473-2.299,2.562-3.756,3.274c-1.463,0.706-3.194,1.058-5.199,1.058
		c-3.112,0-5.649-0.972-7.605-2.922c-1.955-1.944-2.937-4.382-2.937-7.311c0-3.002,0.981-5.497,2.937-7.477
		c1.955-1.987,4.406-2.977,7.361-2.977c3.131,0,5.68,0.991,7.643,2.965c1.963,1.981,2.943,4.586,2.943,7.836L167.478,33.972
		L167.478,33.972z M162.511,30.11c-0.331-1.076-0.981-1.955-1.95-2.631c-0.975-0.674-2.1-1.009-3.387-1.009
		c-1.394,0-2.612,0.378-3.669,1.139c-0.656,0.471-1.268,1.306-1.831,2.501L162.511,30.11L162.511,30.11z"/>
	<path class="st1" d="M197.005,21.131l-3.606,3.534c-2.28-2.389-4.943-3.584-7.979-3.584c-2.643,0-4.861,0.866-6.649,2.605
		c-1.786,1.739-2.681,3.851-2.681,6.339c0,2.568,0.925,4.747,2.781,6.536c1.857,1.789,4.143,2.68,6.861,2.68
		c1.768,0,3.262-0.372,4.475-1.108c1.212-0.737,2.193-1.888,2.937-3.46h-7.792v-4.754h13.535l0.037,1.121
		c0,2.333-0.613,4.543-1.831,6.635c-1.225,2.086-2.806,3.683-4.742,4.785c-1.944,1.095-4.224,1.646-6.837,1.646
		c-2.793,0-5.286-0.6-7.479-1.801c-2.193-1.207-3.924-2.914-5.205-5.138c-1.275-2.229-1.912-4.624-1.912-7.199
		c0-3.529,1.181-6.598,3.537-9.203c2.793-3.106,6.436-4.661,10.916-4.661c2.343,0,4.536,0.427,6.58,1.287
		C193.667,18.116,195.355,19.367,197.005,21.131L197.005,21.131z"/>
	<path class="st1" d="M203.042,23.719h5.062v9.482c0,1.845,0.132,3.125,0.388,3.844s0.668,1.275,1.237,1.678
		c0.568,0.397,1.275,0.594,2.106,0.594c0.832,0,1.543-0.198,2.124-0.588c0.581-0.389,1.012-0.965,1.293-1.726
		c0.206-0.57,0.312-1.782,0.312-3.639V23.72h4.986v8.344c0,3.441-0.275,5.793-0.825,7.063c-0.668,1.547-1.662,2.73-2.967,3.559
		c-1.306,0.823-2.967,1.238-4.98,1.238c-2.187,0-3.949-0.482-5.299-1.449s-2.299-2.309-2.849-4.035
		c-0.394-1.194-0.587-3.367-0.587-6.518L203.042,23.719L203.042,23.719z"/>
	<path class="st1" d="M240.279,23.719h4.986v19.72h-4.986V41.34c-0.975,0.916-1.955,1.572-2.937,1.974
		c-0.981,0.402-2.05,0.607-3.194,0.607c-2.581,0-4.805-0.983-6.686-2.959c-1.881-1.968-2.819-4.419-2.819-7.346
		c0-3.039,0.912-5.527,2.731-7.471c1.818-1.937,4.024-2.909,6.623-2.909c1.2,0,2.318,0.223,3.368,0.663
		c1.049,0.439,2.018,1.108,2.912,1.987v-2.167C240.277,23.719,240.279,23.719,240.279,23.719z M235.024,27.765
		c-1.55,0-2.837,0.538-3.856,1.622c-1.025,1.076-1.537,2.464-1.537,4.153c0,1.702,0.518,3.101,1.562,4.203
		c1.044,1.095,2.325,1.646,3.849,1.646c1.569,0,2.874-0.538,3.905-1.622c1.038-1.076,1.556-2.495,1.556-4.246
		c0-1.715-0.518-3.101-1.556-4.166C237.917,28.298,236.604,27.765,235.024,27.765L235.024,27.765z"/>
	<path class="st1" d="M249.134,23.719h4.312v2.507c0.462-0.978,1.075-1.721,1.837-2.229c0.769-0.507,1.606-0.762,2.512-0.762
		c0.644,0,1.318,0.167,2.024,0.508l-1.55,4.27c-0.581-0.291-1.062-0.434-1.437-0.434c-0.762,0-1.411,0.471-1.937,1.411
		c-0.531,0.94-0.793,2.786-0.793,5.534l0.019,0.959v7.953h-4.986L249.134,23.719L249.134,23.719z"/>
	<path class="st1" d="M277.023,16.105h4.986v27.333h-4.986v-2.099c-0.975,0.916-1.955,1.572-2.937,1.974
		c-0.981,0.402-2.05,0.607-3.194,0.607c-2.581,0-4.805-0.983-6.686-2.959c-1.881-1.968-2.819-4.419-2.819-7.346
		c0-3.039,0.912-5.527,2.731-7.471c1.818-1.937,4.024-2.909,6.623-2.909c1.2,0,2.318,0.223,3.368,0.663
		c1.049,0.445,2.018,1.114,2.912,1.998v-9.791C277.021,16.105,277.023,16.105,277.023,16.105z M271.767,27.765
		c-1.55,0-2.837,0.538-3.855,1.622c-1.025,1.076-1.537,2.464-1.537,4.153c0,1.702,0.518,3.101,1.562,4.203
		c1.044,1.095,2.325,1.646,3.849,1.646c1.569,0,2.874-0.538,3.905-1.622c1.038-1.076,1.556-2.495,1.556-4.246
		c0-1.715-0.518-3.101-1.556-4.166C274.66,28.298,273.349,27.765,271.767,27.765L271.767,27.765z"/>
	<path class="st1" d="M32.496,23.621v8.416c3.238-0.185,7.199,0.346,9.713,1.51c-2.298,4.247-5.534,7.739-9.713,9.68v9.442
		c9.494-3.506,16.817-12.334,20.217-23.91c-1.968-1.058-4.579-2.133-7.498-3.023C41.264,24.529,36.749,23.659,32.496,23.621
		L32.496,23.621z M32.496,12.831c5.045,0.301,9.843,1.347,13.935,2.933c0.009,1.446-0.066,2.912-0.22,4.377
		c2.902,0.966,5.627,1.922,7.813,3.105c0.716-3.881,0.978-7.771,0.812-12.023c-7.312-3.685-14.678-5.892-22.34-6.291V12.831
		L32.496,12.831z"/>
	<path class="st0" d="M6.22,11.242c-0.879,19.863,8.388,36.375,22.298,41.476v-9.68c-9.018-5.1-13.051-15.481-13.987-27.225
		c4.491-1.784,9.27-2.721,13.987-2.972V4.932C21.461,5.396,14.103,7.423,6.22,11.242L6.22,11.242z"/>
	<path class="st1" d="M3.26,10.675c16.383-9.64,38.335-10.082,54.582-0.113c0.845,21.084-6.725,39.148-27.351,46.095
		C9.223,50.042,2.93,31.258,3.26,10.675L3.26,10.675z M0.158,8.751c-1.42,23.387,7.249,43.859,30.271,51.416
		c24.036-8.149,31.522-27.668,30.572-51.47C42.262-2.775,19.328-2.831,0.604,8.481L0.158,8.751L0.158,8.751z"/>
	<path class="st2" d="M201.622,56.286l-0.968,0.001c-0.121,0-0.155-0.068-0.105-0.206l2.07-5.856
		c0.058-0.135,0.164-0.206,0.318-0.206l1.342-0.003c0.168,0,0.263,0.068,0.286,0.204l1.115,5.851
		c0.03,0.135-0.017,0.206-0.137,0.206l-0.968,0.001c-0.073,0-0.124-0.014-0.147-0.043c-0.026-0.03-0.042-0.083-0.048-0.161
		l-0.196-1.07l-1.965,0.004l-0.37,1.072c-0.02,0.078-0.046,0.131-0.079,0.161C201.739,56.27,201.689,56.286,201.622,56.286z
		 M203.498,51.199l-0.955,2.815l1.492-0.003l-0.496-2.812H203.498z"/>
	<path class="st2" d="M244.516,56.283l-1.101,0.003c-0.531,0.001-0.93-0.135-1.198-0.408c-0.268-0.272-0.38-0.666-0.338-1.179
		l0.252-3.09c0.043-0.513,0.218-0.907,0.531-1.18c0.312-0.273,0.732-0.411,1.265-0.413l1.101-0.003
		c0.526-0.001,0.922,0.138,1.193,0.413c0.269,0.276,0.384,0.667,0.342,1.175l-0.037,0.457c-0.011,0.144-0.092,0.216-0.24,0.216
		l-0.847,0.001c-0.142,0-0.207-0.072-0.196-0.214l0.033-0.4c0.017-0.208-0.016-0.355-0.101-0.443
		c-0.083-0.088-0.233-0.131-0.447-0.131l-0.686,0.001c-0.208,0-0.361,0.044-0.46,0.132c-0.098,0.088-0.155,0.236-0.173,0.443
		l-0.242,2.974c-0.017,0.208,0.016,0.355,0.099,0.443c0.083,0.088,0.23,0.132,0.439,0.132l0.686-0.001
		c0.216,0,0.372-0.044,0.47-0.134c0.098-0.088,0.155-0.236,0.173-0.443l0.033-0.4c0.011-0.144,0.088-0.216,0.23-0.216l0.847-0.001
		c0.147,0,0.216,0.072,0.204,0.214l-0.037,0.459c-0.042,0.507-0.22,0.899-0.534,1.175C245.461,56.144,245.042,56.283,244.516,56.283
		z"/>
	<path class="st2" d="M249.907,56.284l-1.13,0.003c-0.531,0.001-0.93-0.135-1.197-0.408c-0.268-0.272-0.38-0.664-0.338-1.178
		l0.252-3.089c0.043-0.513,0.218-0.906,0.531-1.181c0.312-0.273,0.732-0.411,1.264-0.413l1.13-0.003
		c0.531-0.001,0.93,0.135,1.198,0.408c0.266,0.272,0.38,0.666,0.337,1.178l-0.252,3.089c-0.043,0.513-0.22,0.906-0.529,1.179
		C250.859,56.145,250.439,56.283,249.907,56.284z M249.066,55.213l0.716-0.001c0.216,0,0.371-0.044,0.47-0.134
		c0.098-0.088,0.155-0.235,0.173-0.443l0.242-2.973c0.017-0.208-0.016-0.355-0.101-0.443c-0.083-0.088-0.233-0.131-0.447-0.131
		l-0.716,0.001c-0.216,0-0.37,0.044-0.465,0.132c-0.095,0.088-0.15,0.235-0.167,0.443l-0.242,2.973
		c-0.017,0.208,0.014,0.355,0.095,0.443C248.703,55.17,248.851,55.215,249.066,55.213z"/>
	<path class="st2" d="M257.321,50.02l1.492-0.003c0.141,0,0.207,0.068,0.196,0.204l-0.478,5.853
		c-0.011,0.135-0.086,0.206-0.227,0.206l-0.826,0.001c-0.141,0-0.207-0.068-0.196-0.204l0.377-4.615h-0.042l-1.295,3.264
		c-0.051,0.13-0.141,0.196-0.269,0.196l-0.846,0.001c-0.128,0-0.207-0.065-0.236-0.194l-0.783-3.27h-0.042l-0.378,4.625
		c-0.007,0.078-0.024,0.131-0.052,0.161c-0.03,0.03-0.088,0.043-0.175,0.043l-0.826,0.001c-0.141,0-0.207-0.068-0.196-0.204
		l0.478-5.853c0.011-0.135,0.088-0.206,0.227-0.206l1.502-0.003c0.095,0,0.154,0.045,0.181,0.135l0.788,3.434h0.061l1.36-3.44
		C257.145,50.065,257.213,50.02,257.321,50.02z"/>
	<path class="st2" d="M260.616,56.286l-0.858,0.001c-0.142,0-0.207-0.068-0.196-0.204l0.479-5.858
		c0.011-0.136,0.088-0.204,0.228-0.206l2.462-0.004c0.525-0.001,0.92,0.136,1.187,0.413c0.266,0.276,0.38,0.666,0.337,1.174
		l-0.076,0.936c-0.042,0.507-0.218,0.898-0.529,1.175c-0.312,0.278-0.729,0.417-1.255,0.418l-1.271,0.003
		c-0.081,0-0.125,0.036-0.131,0.106l-0.15,1.842C260.835,56.218,260.758,56.286,260.616,56.286z M261.204,53.051l1.07-0.003
		c0.216,0,0.37-0.044,0.465-0.132c0.095-0.088,0.15-0.233,0.165-0.434l0.066-0.817c0.017-0.208-0.014-0.355-0.095-0.443
		c-0.081-0.088-0.228-0.131-0.443-0.131l-1.07,0.003c-0.073,0-0.115,0.036-0.121,0.108l-0.142,1.743
		C261.095,53.015,261.129,53.051,261.204,53.051z"/>
	<path class="st2" d="M265.308,56.287l-0.968,0.001c-0.121,0-0.155-0.068-0.105-0.206l2.071-5.858
		c0.058-0.135,0.164-0.206,0.318-0.206l1.342-0.003c0.168,0,0.263,0.068,0.286,0.204l1.116,5.853
		c0.03,0.135-0.017,0.206-0.137,0.206l-0.968,0.001c-0.073,0-0.124-0.014-0.147-0.044c-0.026-0.03-0.042-0.083-0.048-0.161
		l-0.196-1.07l-1.966,0.004l-0.37,1.072c-0.02,0.078-0.046,0.132-0.079,0.161C265.425,56.271,265.376,56.287,265.308,56.287z
		 M267.185,51.199l-0.957,2.816l1.493-0.003l-0.496-2.813H267.185z"/>
	<path class="st2" d="M271.163,56.288l-0.836,0.001c-0.141,0-0.207-0.068-0.196-0.204l0.479-5.854
		c0.011-0.135,0.088-0.204,0.227-0.206l0.755-0.001c0.141,0,0.232,0.045,0.27,0.135l1.735,3.687h0.042l0.296-3.623
		c0.011-0.135,0.088-0.204,0.227-0.206l0.837-0.001c0.141,0,0.207,0.068,0.196,0.204l-0.479,5.854
		c-0.011,0.135-0.088,0.206-0.227,0.206l-0.736,0.001c-0.148,0-0.25-0.065-0.307-0.194l-1.721-3.618h-0.042l-0.296,3.614
		C271.38,56.219,271.305,56.287,271.163,56.288z"/>
	<path class="st2" d="M277.99,56.286l-0.858,0.001c-0.142,0-0.207-0.068-0.196-0.204l0.17-2.087l-1.54-3.759
		c-0.021-0.058-0.016-0.108,0.017-0.151c0.034-0.043,0.081-0.063,0.141-0.063l1.07-0.001c0.108,0,0.183,0.068,0.226,0.204
		l0.816,2.367h0.071l1.182-2.371c0.058-0.136,0.144-0.204,0.259-0.206l1.07-0.001c0.066,0,0.115,0.02,0.142,0.058
		c0.027,0.039,0.021,0.091-0.017,0.155l-2.153,3.766l-0.17,2.087C278.207,56.216,278.132,56.285,277.99,56.286z"/>
	<g>
		<path class="st3" d="M212.399,51.089c0.196,0,0.387-0.103,0.5-0.271l0.344-0.507c0.089-0.13,0.009-0.295-0.145-0.295h-1.389
			h-0.618h-0.455c-0.518,0-0.93,0.136-1.236,0.409c-0.305,0.271-0.48,0.661-0.527,1.169l0,0l-0.117,1.33l0,0
			c-0.043,0.508,0.063,0.899,0.319,1.169c0.258,0.273,0.647,0.409,1.164,0.409h0.563c0.109,0,0.172-0.086,0.182-0.205l0.057-0.653
			c0.01-0.119-0.079-0.215-0.198-0.215h-0.313c-0.203,0-0.345-0.044-0.427-0.132c-0.082-0.087-0.112-0.236-0.093-0.444l0.106-1.193
			c0.019-0.208,0.076-0.356,0.172-0.444c0.096-0.087,0.246-0.132,0.449-0.132C210.737,51.089,212.399,51.089,212.399,51.089z"/>
		<path class="st3" d="M210.989,51.798c-0.113,0-0.172,0.086-0.182,0.205l-0.057,0.654c-0.01,0.119,0.077,0.215,0.198,0.215h0.313
			c0.203,0,0.345,0.044,0.427,0.132c0.082,0.087,0.112,0.236,0.093,0.444l-0.106,1.193c-0.019,0.208-0.076,0.356-0.172,0.444
			c-0.096,0.087-0.246,0.132-0.449,0.132h-0.258h-0.412h-1.029c-0.196,0-0.387,0.103-0.5,0.271l-0.344,0.507
			c-0.089,0.13-0.009,0.295,0.145,0.295h1.425h0.618h0.455c0.518,0,0.93-0.136,1.236-0.409c0.305-0.271,0.48-0.661,0.527-1.169l0,0
			l0.117-1.33l0,0c0.043-0.508-0.063-0.899-0.319-1.169c-0.258-0.273-0.647-0.409-1.164-0.409h-0.563L210.989,51.798L210.989,51.798
			z"/>
	</g>
	<path class="st2" d="M216.985,56.286h-3.217c-0.137,0-0.2-0.069-0.189-0.205l0.518-5.859c0.011-0.136,0.087-0.205,0.225-0.205
		h3.217c0.132,0,0.19,0.069,0.179,0.205l-0.059,0.663c-0.011,0.136-0.083,0.205-0.215,0.205h-2.057
		c-0.079,0-0.122,0.036-0.127,0.107l-0.112,1.267c-0.006,0.072,0.03,0.107,0.109,0.107h1.682c0.137,0,0.2,0.069,0.189,0.205
		l-0.059,0.663c-0.011,0.136-0.087,0.205-0.225,0.205h-1.682c-0.079,0-0.122,0.036-0.127,0.107l-0.12,1.355
		c-0.006,0.072,0.03,0.107,0.109,0.107h2.057c0.132,0,0.19,0.069,0.179,0.205l-0.059,0.663
		C217.188,56.217,217.117,56.286,216.985,56.286"/>
	<path class="st2" d="M220.456,56.284h-1.073c-0.518,0-0.908-0.136-1.164-0.409c-0.258-0.273-0.365-0.666-0.319-1.179l0.273-3.091
		c0.046-0.514,0.222-0.908,0.528-1.179c0.306-0.273,0.719-0.409,1.236-0.409h1.074c0.512,0,0.899,0.137,1.159,0.415
		c0.261,0.278,0.369,0.668,0.325,1.174l-0.04,0.458c-0.013,0.143-0.092,0.215-0.236,0.215h-0.827c-0.137,0-0.2-0.072-0.188-0.215
		l0.036-0.399c0.019-0.208-0.013-0.356-0.093-0.444c-0.082-0.087-0.226-0.132-0.437-0.132h-0.67c-0.203,0-0.354,0.044-0.449,0.132
		c-0.096,0.087-0.153,0.236-0.172,0.444l-0.263,2.974c-0.019,0.208,0.013,0.356,0.093,0.444c0.082,0.087,0.223,0.132,0.427,0.132
		h0.67c0.21,0,0.364-0.044,0.46-0.132c0.096-0.087,0.153-0.236,0.172-0.444l0.036-0.399c0.013-0.143,0.087-0.215,0.226-0.215h0.827
		c0.145,0,0.21,0.072,0.198,0.215l-0.04,0.458c-0.044,0.507-0.222,0.899-0.533,1.174C221.379,56.147,220.967,56.284,220.456,56.284"
		/>
	<path class="st2" d="M225.029,56.285h-0.827c-0.145,0-0.21-0.069-0.199-0.205l0.432-4.884c0.006-0.072-0.027-0.107-0.099-0.107
		h-1.121c-0.137,0-0.2-0.069-0.189-0.205l0.059-0.663c0.011-0.136,0.087-0.205,0.225-0.205h3.72c0.137,0,0.2,0.069,0.189,0.205
		l-0.059,0.663c-0.011,0.136-0.087,0.205-0.225,0.205h-1.121c-0.079,0-0.122,0.036-0.127,0.107l-0.432,4.884
		C225.24,56.216,225.166,56.285,225.029,56.285"/>
	<path class="st2" d="M229.105,50.222l-0.518,5.859c-0.011,0.136-0.087,0.205-0.225,0.205h-0.837c-0.137,0-0.2-0.069-0.189-0.205
		l0.518-5.859c0.013-0.136,0.087-0.205,0.225-0.205h0.837C229.055,50.018,229.118,50.086,229.105,50.222"/>
	<path class="st2" d="M236.329,55.213h0.699c0.21,0,0.364-0.044,0.46-0.132s0.153-0.236,0.172-0.444l0.263-2.974
		c0.019-0.208-0.013-0.356-0.093-0.444c-0.082-0.087-0.226-0.132-0.437-0.132h-0.699c-0.21,0-0.362,0.044-0.455,0.132
		c-0.093,0.087-0.149,0.236-0.167,0.444l-0.263,2.974c-0.019,0.208,0.011,0.356,0.089,0.444
		C235.974,55.169,236.119,55.213,236.329,55.213 M237.139,56.284h-1.101c-0.518,0-0.908-0.136-1.164-0.409
		c-0.258-0.273-0.365-0.666-0.319-1.179l0.273-3.091c0.046-0.514,0.222-0.908,0.528-1.179c0.306-0.273,0.719-0.409,1.236-0.409
		h1.101c0.518,0,0.908,0.136,1.164,0.409c0.258,0.273,0.365,0.667,0.319,1.179l-0.273,3.091c-0.046,0.514-0.222,0.908-0.528,1.179
		C238.07,56.148,237.657,56.284,237.139,56.284"/>
	<path class="st2" d="M232.956,52.112h0.837c0.137,0,0.213-0.072,0.226-0.215l0.026-0.292c0.044-0.507-0.062-0.899-0.319-1.174
		c-0.258-0.276-0.643-0.414-1.154-0.414h-1.044c-0.518,0-0.93,0.136-1.236,0.409c-0.306,0.273-0.482,0.667-0.528,1.179l-0.273,3.091
		c-0.046,0.514,0.062,0.908,0.319,1.179c0.258,0.273,0.647,0.409,1.164,0.409h1.044c0.512,0,0.922-0.137,1.227-0.415
		c0.306-0.276,0.482-0.668,0.527-1.174l0.145-1.628c0.013-0.149-0.056-0.225-0.206-0.225h-1.722h-0.226
		c-0.153,0-0.263,0.165-0.198,0.295l0.253,0.507c0.084,0.167,0.256,0.271,0.452,0.271h0.213c0.072,0,0.104,0.036,0.099,0.107
		l-0.054,0.614c-0.019,0.208-0.074,0.356-0.167,0.444c-0.093,0.087-0.245,0.132-0.455,0.132h-0.64c-0.203,0-0.345-0.044-0.427-0.132
		c-0.082-0.087-0.112-0.236-0.093-0.444l0.263-2.974c0.019-0.208,0.076-0.356,0.172-0.444c0.096-0.087,0.246-0.132,0.449-0.132h0.64
		c0.21,0,0.354,0.044,0.431,0.132c0.077,0.087,0.107,0.236,0.089,0.444l-0.02,0.235C232.756,52.04,232.819,52.112,232.956,52.112"/>
</g>
</svg>
