<svg width="255" height="262" viewBox="0 0 255 262" fill="none" xmlns="http://www.w3.org/2000/svg">
<path d="M-1.50787 -8.39233e-05L-1.50787 262.384H255V-8.39233e-05H-1.50787Z" fill="#4480C5"/>
<path d="M0 -4.32187L0 131.191L107.855 -4.32187L0 -4.32187Z" fill="#F67922"/>
<path d="M255 97.7145V183.669L186.589 97.7145H255Z" fill="#F67922"/>
<path d="M259.419 -24.9006C209.04 -24.9006 168.199 -6.87688 168.199 15.3565C168.199 37.5899 209.04 55.6137 259.419 55.6137C309.798 55.6137 350.638 37.5899 350.638 15.3565C350.638 -6.87688 309.798 -24.9006 259.419 -24.9006Z" fill="#FFCF00"/>
<path d="M46.7394 205.594C3.40189 205.594 -31.7301 220.551 -31.7301 239.002C-31.7301 257.452 3.40189 272.409 46.7394 272.409C90.0769 272.409 125.209 257.452 125.209 239.002C125.209 220.551 90.0769 205.594 46.7394 205.594Z" fill="#30B47A"/>
<path d="M50.2271 57.6756C6.88956 57.6756 -28.2424 72.6324 -28.2424 91.0826C-28.2424 109.533 6.88956 124.49 50.2271 124.49C93.5646 124.49 128.697 109.533 128.697 91.0826C128.697 72.6324 93.5646 57.6756 50.2271 57.6756Z" fill="#30B47A"/>
<path d="M50.227 114.769L279.186 114.769V53.0902L50.227 53.0902V114.769Z" fill="#1D5297"/>
<path d="M125.209 198.099H-1.50787L-1.50787 108.746L125.209 198.099Z" fill="#FBCE3B"/>
</svg>
