<svg xmlns="http://www.w3.org/2000/svg" width="212.92" height="21" viewBox="0 0 212.92 21">
  <g id="Grupo_39732" data-name="Grupo 39732" transform="translate(31.546)">
    <g id="Grupo_3" data-name="Grupo 3" transform="translate(87.752 4)">
      <g id="Grupo_1166" data-name="Grupo 1166">
        <path id="Caminho_2379" data-name="Caminho 2379" d="M6349.351,824.759c.138.849.909,1.165,1.757,1.165.83,0,1.492-.356,1.511-.79.03-.656-.484-1.045-1.214-1.186-.5-.1-2.013-.395-2.013-.395-1.836-.336-2.883-.867-2.883-2.427,0-2.033,1.757-3.356,4.265-3.356,2.468,0,4.105,1.125,4.5,2.843l-2.882.572a1.54,1.54,0,0,0-1.658-1.165c-.849,0-1.274.357-1.354.77-.051.272.081.5.979.691.58.125,2.329.474,2.329.474,1.875.395,2.743,1.52,2.743,2.981,0,2.191-1.895,3.336-4.5,3.336-2.33,0-4.323-.849-4.66-2.882Z" transform="translate(-6322.182 -814.501)" fill="#fff"/>
        <g id="Grupo_1165" data-name="Grupo 1165">
          <path id="Caminho_2380" data-name="Caminho 2380" d="M6438.858,809.172a9.844,9.844,0,0,1,.079,1.21,6.656,6.656,0,0,1-6.882,6.921,6.943,6.943,0,1,1-.059-13.881c2.953,0,5.552,1.388,6.485,3.986l-3.154.912a3.422,3.422,0,0,0-3.331-1.9,3.8,3.8,0,0,0-3.808,3.946,3.854,3.854,0,0,0,3.906,3.966,3.484,3.484,0,0,0,3.51-2.38h-4.065v-2.776Z" transform="translate(-6382.895 -803.421)" fill="#fff"/>
          <g id="Text-Default" transform="translate(0 0.072)">
            <g id="Grupo_1164" data-name="Grupo 1164">
              <g id="Grupo_1163" data-name="Grupo 1163">
                <path id="Caminho_2381" data-name="Caminho 2381" d="M6252.655,817.021H6249.4v-5.255h-5.592v5.255h-3.271V803.735h3.271v5.176h5.592v-5.176h3.252Z" transform="translate(-6240.54 -803.735)" fill="#fff"/>
                <path id="Caminho_2382" data-name="Caminho 2382" d="M6308.25,822.461a5.489,5.489,0,1,1-5.454-5.235A5.234,5.234,0,0,1,6308.25,822.461Zm-3.054,0a2.433,2.433,0,1,0-2.4,2.578A2.476,2.476,0,0,0,6305.2,822.461Z" transform="translate(-6284.355 -814.152)" fill="#fff"/>
                <path id="Caminho_2383" data-name="Caminho 2383" d="M6396.587,816.585a5.4,5.4,0,0,1-2.717.734c-2.478,0-3.965-1.349-3.965-3.966v-3.768h-1.8v-2.518h1.8v-2.648l3.172-.683v3.332h2.935v2.518h-2.935v3.45c0,1.031.5,1.448,1.329,1.448a3.242,3.242,0,0,0,1.448-.4Z" transform="translate(-6354.482 -803.735)" fill="#fff"/>
                <path id="Caminho_2384" data-name="Caminho 2384" d="M6497.574,821V827.3h-3.055v-.734a4.394,4.394,0,0,1-2.975,1.031c-2.22,0-3.707-1.289-3.707-3.252,0-1.943,1.487-3.212,4.145-3.212h2.537v-.2a1.326,1.326,0,0,0-1.406-1.388,1.449,1.449,0,0,0-1.666,1.249l-3-.615c.437-1.924,2.182-3.133,4.562-3.133C6495.808,817.052,6497.574,818.46,6497.574,821Zm-3.055,2.38v-.218h-2.181c-.793,0-1.288.417-1.288,1.031,0,.635.555,1.031,1.388,1.031A1.949,1.949,0,0,0,6494.519,823.378Z" transform="translate(-6431.496 -814.018)" fill="#fff"/>
                <path id="Caminho_2385" data-name="Caminho 2385" d="M6541.144,816.585a5.4,5.4,0,0,1-2.716.734c-2.479,0-3.967-1.349-3.967-3.966v-3.768h-1.8v-2.518h1.8v-2.648l3.174-.683v3.332h2.935v2.518h-2.935v3.45c0,1.031.5,1.448,1.328,1.448a3.247,3.247,0,0,0,1.448-.4Z" transform="translate(-6466.104 -803.735)" fill="#fff"/>
                <path id="Caminho_2386" data-name="Caminho 2386" d="M6578.7,822.461a5.489,5.489,0,1,1-5.452-5.235A5.234,5.234,0,0,1,6578.7,822.461Zm-3.053,0a2.433,2.433,0,1,0-2.4,2.578A2.476,2.476,0,0,0,6575.646,822.461Z" transform="translate(-6493.189 -814.152)" fill="#fff"/>
                <path id="Caminho_2387" data-name="Caminho 2387" d="M6626.659,817.827l-.14,3.173h-.575c-2.221,0-3.431,1.15-3.431,3.728v3.113h-3.173V818.57l3.173-.683v1.9a3.846,3.846,0,0,1,3.431-2.043A2.725,2.725,0,0,1,6626.659,817.827Z" transform="translate(-6533.038 -814.555)" fill="#fff"/>
              </g>
            </g>
          </g>
        </g>
      </g>
    </g>
    <text id="_" data-name="+" transform="translate(70.752)" fill="#fff" font-size="16" font-family="Roboto-Medium, Roboto" font-weight="500" letter-spacing="0.001em"><tspan x="0" y="17">+</tspan></text>
    <g id="svg_1" transform="translate(-31.646 0.901)">
      <path id="svg_2" d="M64.454,5.015a.5.5,0,0,0-.467-.467,4.375,4.375,0,0,0-2.916,1.283,5.178,5.178,0,0,0-1.225,3.674v4.432a.5.5,0,0,0,.467.467h.35a.5.5,0,0,0,.467-.467V9.506a4.026,4.026,0,0,1,.875-2.8,2.929,2.929,0,0,1,2.041-.933.46.46,0,0,0,.467-.467C64.454,5.365,64.454,5.015,64.454,5.015Zm1.516,3.849a3.413,3.413,0,0,1,1.108-2.333,4.921,4.921,0,0,1,5.249,0,3.414,3.414,0,0,1,1.108,2.333Zm3.616,4.49a3.782,3.782,0,0,1-2.8-.933,3.518,3.518,0,0,1-.933-2.158h7.989a.713.713,0,0,0,.525-.175.864.864,0,0,0,.175-.525A4.981,4.981,0,0,0,73.2,5.89a4.981,4.981,0,0,0-3.674-1.341A4.89,4.89,0,0,0,65.854,5.89a5.5,5.5,0,0,0-1.283,3.732A4.981,4.981,0,0,0,65.912,13.3a5.249,5.249,0,0,0,3.674,1.341A5.124,5.124,0,0,0,73.319,13.3a3.489,3.489,0,0,0,.933-1.458.307.307,0,0,0-.292-.467h-.583c-.292,0-.35.175-.525.467A3.619,3.619,0,0,1,69.586,13.355Zm13.821-1.108a3.726,3.726,0,0,1-2.741.933,3.637,3.637,0,0,1-2.741-.933,3.782,3.782,0,0,1-.933-2.8,3.637,3.637,0,0,1,.933-2.741,3.726,3.726,0,0,1,2.741-.933,3.552,3.552,0,0,1,2.741.933,3.637,3.637,0,0,1,.933,2.741A3.782,3.782,0,0,1,83.407,12.247ZM85.274.7h-.35a.5.5,0,0,0-.467.467V6.123A3.791,3.791,0,0,0,82.824,4.9a5.869,5.869,0,0,0-2.1-.35A4.981,4.981,0,0,0,77.051,5.89,4.841,4.841,0,0,0,75.71,9.506a4.981,4.981,0,0,0,1.341,3.674,4.981,4.981,0,0,0,3.674,1.341,5.22,5.22,0,0,0,3.732-1.341A4.981,4.981,0,0,0,85.8,9.506V1.167A.553.553,0,0,0,85.274.7ZM50.4,9.564a4.953,4.953,0,0,0,1.283,3.674,4.981,4.981,0,0,0,3.674,1.341,5.378,5.378,0,0,0,2.858-.7.739.739,0,0,0,.35-.758v-.233c0-.583-.467-.35-.758-.233a4.6,4.6,0,0,1-2.449.641,3.57,3.57,0,0,1-2.741-.991,3.782,3.782,0,0,1-.933-2.8,3.782,3.782,0,0,1,.933-2.8,3.752,3.752,0,0,1,2.741-.991,4.647,4.647,0,0,1,2.1.467c.233.117.758.35.758-.175V5.832c0-.292.058-.525-.35-.758a4.838,4.838,0,0,0-2.508-.583,4.981,4.981,0,0,0-3.674,1.341A5.189,5.189,0,0,0,50.4,9.564Zm46.012,4.257a.46.46,0,0,0-.467-.467,3.049,3.049,0,0,1-2.041-.933,4.026,4.026,0,0,1-.875-2.8V5.949h2.1a.5.5,0,0,0,.467-.467v-.35a.5.5,0,0,0-.467-.467h-2.1V1.633a.5.5,0,0,0-.467-.467h-.35a.5.5,0,0,0-.467.467V4.666h-.933a.5.5,0,0,0-.467.467v.35a.5.5,0,0,0,.467.467h.933V9.622A5.178,5.178,0,0,0,92.971,13.3a4.443,4.443,0,0,0,2.974,1.341.5.5,0,0,0,.467-.467ZM88.364.7h-.35a.5.5,0,0,0-.467.467V2.391a.429.429,0,0,0,.467.467h.35a.5.5,0,0,0,.467-.467V1.167A.46.46,0,0,0,88.364.7Zm0,3.849h-.35a.5.5,0,0,0-.467.467V13.88a.46.46,0,0,0,.467.467h.35a.5.5,0,0,0,.467-.467V5.015A.5.5,0,0,0,88.364,4.549Zm15.921,6.59c0,1.575-.991,2.1-3.441,2.1-1.75,0-2.741-.583-2.741-1.808,0-1.341,1.05-1.866,3.441-1.866h2.741Zm-.058-3.732v1.05h-2.741c-3.207,0-4.607.933-4.607,2.974,0,1.924,1.516,3.032,4.024,3.032,3.266,0,4.665-.991,4.665-3.266V7.406a2.518,2.518,0,0,0-.933-2.041,4.2,4.2,0,0,0-1.808-.7,9.885,9.885,0,0,0-1.341-.058,9.449,9.449,0,0,0-1.283.058,3.184,3.184,0,0,0-1.924.7,2.368,2.368,0,0,0-.933,2.041.42.42,0,0,0,.467.408h.35a.451.451,0,0,0,.467-.408,1.294,1.294,0,0,1,.758-1.225,5.774,5.774,0,0,1,2.158-.35,5.376,5.376,0,0,1,2.1.35c-.175,0,.583.233.583,1.225Zm6.706,2.566c2.333,0,3.207.117,3.207,1.516,0,1.225-1.225,1.75-2.916,1.75a4.2,4.2,0,0,1-2.8-.641,1.54,1.54,0,0,1-.408-.991.416.416,0,0,0-.467-.408h-.35a.475.475,0,0,0-.467.408,2.569,2.569,0,0,0,.933,2.1,6.235,6.235,0,0,0,3.5.758c2.508,0,4.2-1.108,4.2-2.974,0-2.1-1.283-2.683-4.432-2.683a4.929,4.929,0,0,1-2.041-.35,1.164,1.164,0,0,1-.758-1.108,1.261,1.261,0,0,1,.758-1.166,6.128,6.128,0,0,1,4.082,0,1.288,1.288,0,0,1,.758.991.416.416,0,0,0,.467.408h.35a.359.359,0,0,0,.408-.408,2.216,2.216,0,0,0-.933-1.75,3.475,3.475,0,0,0-1.866-.7,9.029,9.029,0,0,0-1.283-.058,8.613,8.613,0,0,0-1.225.058,4.167,4.167,0,0,0-1.866.7,2.469,2.469,0,0,0-.933,1.983,2.443,2.443,0,0,0,.933,1.924,7.847,7.847,0,0,0,3.149.641Z" transform="translate(-20.967 -0.25)" fill="#fff"/>
      <path id="logo-principal-horizontal-b" d="M24.943,12.055a2.207,2.207,0,0,1-.058.467,9.05,9.05,0,0,1-8.514,6.007,9.327,9.327,0,0,1-3.616-.758,9.184,9.184,0,0,1-3.616.758A9.123,9.123,0,0,1,.1,9.314,9.123,9.123,0,0,1,9.139.1a8.836,8.836,0,0,1,3.616.758A9.327,9.327,0,0,1,16.37.1a9.19,9.19,0,0,1,8.514,6.007,1.614,1.614,0,0,1,.058.467h0a1.3,1.3,0,0,1-.175.583,1.323,1.323,0,0,1-1.05.525h-5.89c-.991,0-1.4-1.166-1.4-1.166a7.909,7.909,0,0,0-3.674-4.2,8.029,8.029,0,0,0-4.2,7,7.915,7.915,0,0,0,4.2,7,7.909,7.909,0,0,0,3.674-4.2s.408-1.166,1.4-1.166h5.89a1.247,1.247,0,0,1,1.05.525.766.766,0,0,1,.175.583Zm-7.29-6.3a9.163,9.163,0,0,0-3.324-4.082,8.755,8.755,0,0,1,2.158-.292A7.884,7.884,0,0,1,23.777,6.4H18.353C17.887,6.34,17.653,5.757,17.653,5.757Zm-16.27,3.5A7.816,7.816,0,0,1,9.139,1.383a8.292,8.292,0,0,1,2.1.292,9.23,9.23,0,0,0,0,15.162,8.674,8.674,0,0,1-2.1.292A7.853,7.853,0,0,1,1.383,9.256Zm12.946,7.7a9.163,9.163,0,0,0,3.324-4.082s.233-.583.641-.583h5.423a7.911,7.911,0,0,1-7.29,5.015A8.781,8.781,0,0,1,14.329,16.954Z" transform="translate(0 0)" fill="#fff"/>
    </g>
  </g>
</svg>
