<svg width="250" height="75" viewBox="0 0 250 75" fill="none" xmlns="http://www.w3.org/2000/svg">
<path fill-rule="evenodd" clip-rule="evenodd" d="M115.645 25.4215C115.645 24.814 115.159 24.2064 114.552 24.328C111.514 24.571 109.084 25.6645 107.383 27.4871C105.317 29.6742 104.345 32.7118 104.345 36.4785V47.414C104.345 48.0215 104.831 48.5075 105.439 48.5075H106.289C106.897 48.5075 107.383 48.0215 107.383 47.414V36.4785C107.383 33.5624 108.112 31.2538 109.448 29.6742C110.663 28.3376 112.243 27.6086 114.43 27.3656C115.038 27.3656 115.524 26.8796 115.524 26.272C115.645 26.272 115.645 25.4215 115.645 25.4215ZM119.412 34.8989C119.655 32.4688 120.505 30.5247 122.085 29.1882C123.664 27.8516 125.73 27.2441 128.525 27.2441C131.319 27.2441 133.385 27.8516 134.964 29.1882C136.544 30.5247 137.395 32.4688 137.638 34.8989H119.412ZM128.282 45.8344C125.244 45.8344 123.057 45.1054 121.477 43.5258C120.262 42.3107 119.533 40.4882 119.29 38.3011H138.974C139.582 38.3011 139.946 38.1796 140.189 37.9366C140.675 37.4505 140.675 36.7215 140.675 36.7215C140.675 32.8333 139.582 29.9172 137.395 27.7301C135.207 25.543 132.17 24.4495 128.282 24.4495C124.393 24.4495 121.477 25.543 119.169 27.7301C115.645 31.2538 115.888 36.843 115.888 36.843C115.888 40.7312 116.982 43.6473 119.169 45.8344C122.692 49.3581 128.16 49.1151 128.16 49.1151C132.048 49.1151 135.086 48.0215 137.273 45.8344C138.488 44.6194 139.096 43.8903 139.582 42.1892C139.946 40.9742 138.853 41.0957 138.853 41.0957H137.395C136.787 41.0957 136.544 41.5817 136.179 42.1892C134.478 44.9839 131.319 45.8344 128.282 45.8344ZM162.06 43.1613C160.481 44.7409 158.293 45.4699 155.256 45.4699C152.34 45.4699 150.031 44.7409 148.452 43.1613C146.872 41.5817 146.143 39.2731 146.143 36.357C146.143 33.3194 146.872 31.2538 148.452 29.6742C150.031 28.0946 152.218 27.3656 155.256 27.3656C158.172 27.3656 160.481 28.0946 162.06 29.6742C163.64 31.2538 164.369 33.4409 164.369 36.357C164.369 39.3946 163.64 41.5817 162.06 43.1613ZM166.677 14.8505H165.827C165.219 14.8505 164.733 15.3366 164.733 15.9441V28.0946C163.761 26.7581 162.303 25.6645 160.724 25.057C159.144 24.4495 157.564 24.2064 155.62 24.2064C151.732 24.2064 148.695 25.3 146.629 27.3656C144.442 29.5527 143.348 32.4688 143.348 36.357C143.348 40.2452 144.442 43.2828 146.629 45.3484C148.816 47.5355 151.854 48.5075 155.62 48.5075C159.509 48.5075 162.546 47.414 164.733 45.3484C166.92 43.1613 168.014 40.1237 168.014 36.357V16.0656C167.892 15.3366 167.285 14.8505 166.677 14.8505ZM81.1376 36.6C81.1376 40.4882 82.2311 43.5258 84.2967 45.7129C86.4838 47.9 89.3999 48.9935 93.2881 48.9935C96.8118 48.9935 99.1204 48.0215 100.335 47.171C101.186 46.5634 101.186 45.9559 101.186 45.2269V44.6194C101.186 43.1613 99.9709 43.7688 99.3634 44.1333C97.9053 44.8624 96.4472 45.7129 93.4096 45.7129C90.4935 45.7129 88.1849 44.9839 86.6053 43.4043C85.0257 41.8247 84.2967 39.5161 84.2967 36.6C84.2967 33.6839 85.0257 31.3753 86.6053 29.7957C88.1849 28.2161 90.372 27.4871 93.4096 27.4871C95.4752 27.4871 97.1763 27.8516 98.5128 28.5806C99.1204 28.9452 100.335 29.5527 100.335 28.0946V27.4871C100.335 26.7581 100.457 26.1505 99.4849 25.6645C97.5408 24.6925 95.9612 24.328 93.2881 24.328C89.3999 24.328 86.4838 25.4215 84.2967 27.6086C82.2311 29.7957 81.1376 32.8333 81.1376 36.6ZM193.895 46.928C193.895 46.1989 193.409 45.8344 192.801 45.8344C190.735 45.5914 189.034 44.8624 187.819 43.5258C186.361 41.9462 185.754 39.6376 185.754 36.7215V27.7301H190.978C191.586 27.7301 192.072 27.2441 192.072 26.6366V25.786C192.072 25.1785 191.586 24.6925 190.978 24.6925H185.754V17.0376C185.754 16.4301 185.268 15.9441 184.66 15.9441H183.81C183.202 15.9441 182.716 16.4301 182.716 17.0376V24.571H180.286C179.678 24.571 179.192 25.057 179.192 25.6645V26.515C179.192 27.1226 179.678 27.6086 180.286 27.6086H182.473V36.7215C182.473 40.6097 183.445 43.6473 185.511 45.8344C187.333 47.7785 189.642 48.872 192.679 48.9935C193.287 48.9935 193.773 48.5075 193.773 47.9C193.895 47.9 193.895 46.928 193.895 46.928ZM174.332 14.8505H173.482C172.874 14.8505 172.388 15.3366 172.388 16.0656V19.1032C172.388 19.7107 172.874 20.3183 173.482 20.3183H174.332C174.94 20.3183 175.426 19.8323 175.426 19.1032V15.9441C175.426 15.3366 174.94 14.8505 174.332 14.8505ZM174.332 24.328H173.482C172.874 24.328 172.388 24.814 172.388 25.4215V47.0495C172.388 47.657 172.874 48.143 173.482 48.143H174.332C174.94 48.143 175.426 47.657 175.426 47.0495V25.4215C175.426 24.814 174.94 24.328 174.332 24.328ZM213.214 40.3667C213.214 44.2548 210.784 45.5914 204.83 45.5914C200.577 45.5914 198.026 44.1333 198.026 41.0957C198.026 37.815 200.577 36.4785 206.41 36.4785H213.092V40.3667H213.214ZM213.214 31.2538V33.8054H206.41C198.633 33.8054 195.11 36.114 195.11 41.0957C195.11 45.8344 198.755 48.629 204.952 48.629C212.971 48.629 216.373 46.1989 216.373 40.6097V31.2538C216.373 27.7301 214.064 26.272 214.064 26.272C212.849 25.3 211.391 24.814 209.569 24.571C208.475 24.4495 207.503 24.328 206.41 24.328C205.316 24.328 204.344 24.328 203.372 24.4495C201.428 24.6925 199.848 25.1785 198.633 26.1505C197.054 27.3656 196.325 29.0667 196.325 31.1323C196.325 31.1323 196.325 32.1043 197.418 32.1043H198.269C198.876 32.1043 199.362 31.7398 199.362 31.1323C199.362 28.8237 201.306 28.0946 201.306 28.0946C201.914 27.8516 203.858 27.2441 206.531 27.2441C209.326 27.2441 211.148 27.8516 211.634 28.0946C211.27 28.2161 213.214 28.9452 213.214 31.2538ZM229.617 37.572C235.328 37.572 237.393 37.9366 237.393 41.2172C237.393 44.2548 234.477 45.4699 230.225 45.4699C226.823 45.4699 224.635 44.9839 223.299 43.8903C222.205 42.9183 222.327 41.5817 222.327 41.5817C222.327 40.9742 221.841 40.6097 221.233 40.6097H220.383C219.289 40.6097 219.289 41.5817 219.289 41.5817C219.289 45.1054 221.598 46.6849 221.598 46.6849C223.42 47.9 226.215 48.5075 230.225 48.5075C236.421 48.5075 240.431 45.8344 240.431 41.0957C240.431 35.9925 237.393 34.4129 229.496 34.4129C226.093 34.4129 224.514 33.5624 224.514 33.5624C222.57 32.7118 222.691 30.8892 222.691 30.8892C222.691 28.7021 224.514 27.9731 224.514 27.9731C225.121 27.7301 226.701 27.1226 229.496 27.1226C232.169 27.1226 233.991 27.7301 234.599 27.9731C234.599 27.9731 236.3 28.7021 236.421 30.4032C236.421 31.0107 236.907 31.3753 237.515 31.3753H238.366C239.459 31.3753 239.459 30.4032 239.459 30.4032C239.459 28.9452 238.73 27.2441 237.15 26.029C235.935 25.057 234.356 24.571 232.533 24.328C231.44 24.2064 230.589 24.2064 229.374 24.2064C228.159 24.2064 227.43 24.2064 226.336 24.4495C224.514 24.6925 222.934 25.3 221.841 26.1505C221.841 26.1505 219.532 27.7301 219.532 31.0107C219.532 31.0107 219.411 33.9269 221.841 35.7495C222.084 35.7495 224.028 37.572 229.617 37.572Z" fill="white"/>
<path fill-rule="evenodd" clip-rule="evenodd" d="M70.3236 43.2828C70.3236 43.8903 70.0806 44.3763 70.0806 44.3763C66.9214 53.2462 58.5376 59.2 49.3032 59.2C46.144 59.2 43.2279 58.471 40.4333 57.3774C40.4333 57.3774 36.6666 59.2 31.6849 59.2C19.4128 59.2 9.57089 49.1151 9.57089 36.6C9.44939 24.0849 19.4128 14 31.6849 14C36.7881 14 40.4333 15.8226 40.4333 15.8226C43.1064 14.6075 46.144 14 49.3032 14C58.5376 14 66.9214 19.9538 70.0806 28.8237C70.0806 28.8237 70.3236 29.3097 70.3236 29.9172C70.3236 30.4032 70.2021 30.8892 69.9591 31.2538C69.473 31.9828 68.501 32.4688 67.4075 32.4688H52.8268C50.3967 32.4688 49.4247 29.6742 49.4247 29.6742C47.7236 25.1785 44.4429 21.5333 40.4333 19.3462C34.358 22.6269 30.2268 29.0667 30.2268 36.4785C30.2268 43.8903 34.358 50.4516 40.4333 53.6108C44.4429 51.4237 47.7236 47.7785 49.4247 43.2828C49.4247 43.2828 50.3967 40.4882 52.8268 40.4882H67.2859C68.3795 40.4882 69.3515 40.9742 69.8376 41.7032C70.2021 42.3108 70.3236 42.7968 70.3236 43.2828ZM52.3408 27.8516C50.6397 23.7204 47.8451 20.3183 44.3214 17.8882C46.0225 17.4022 47.7236 17.1591 49.5462 17.1591C57.3225 17.1591 64.4913 22.0194 67.4075 29.4312H53.9204C52.8268 29.3097 52.3408 27.8516 52.3408 27.8516ZM12.487 36.357C12.487 25.6645 20.9924 17.0376 31.4419 17.0376C33.2644 17.0376 34.9655 17.2806 36.5451 17.7667C30.7128 21.7763 26.8247 28.5806 26.8247 36.357C26.8247 44.0118 30.7128 50.9376 36.5451 54.9473C34.844 55.4333 33.1429 55.6763 31.4419 55.6763C20.9924 55.6763 12.487 47.0495 12.487 36.357ZM44.1999 55.3118C47.7236 52.8817 50.5182 49.4796 52.2193 45.3484C52.2193 45.3484 52.8268 43.8903 53.7989 43.8903H67.1644C64.2483 51.1806 57.201 56.1624 49.3032 56.1624C47.6021 56.0409 45.901 55.7979 44.1999 55.3118Z" fill="url(#paint0_linear_1_9)"/>
<defs>
<linearGradient id="paint0_linear_1_9" x1="59.7083" y1="18.6126" x2="32.3235" y2="65.0534" gradientUnits="userSpaceOnUse">
<stop stop-color="white"/>
<stop offset="1" stop-color="white"/>
</linearGradient>
</defs>
</svg>
