<svg width="250" height="75" viewBox="0 0 145 29" fill="none" xmlns="http://www.w3.org/2000/svg">
<path fill-rule="evenodd" clip-rule="evenodd" d="M66.7249 7.161C66.7123 6.97526 66.6328 6.80039 66.5012 6.66875C66.3696 6.53711 66.1947 6.45762 66.0089 6.445C64.3225 6.51545 62.7245 7.21844 61.5329 8.414C60.2005 9.97976 59.5267 12.0009 59.653 14.053V20.853C59.6656 21.0387 59.7451 21.2136 59.8767 21.3452C60.0083 21.4769 60.1832 21.5564 60.3689 21.569H60.9059C61.0917 21.5564 61.2666 21.4769 61.3982 21.3452C61.5298 21.2136 61.6093 21.0387 61.622 20.853V14.053C61.5127 12.5017 61.9922 10.9663 62.9649 9.753C63.3675 9.32025 63.8514 8.97105 64.389 8.72534C64.9266 8.47964 65.5073 8.34224 66.0979 8.321C66.1923 8.32235 66.2861 8.30474 66.3735 8.26924C66.461 8.23373 66.5405 8.18104 66.6072 8.11429C66.674 8.04753 66.7267 7.96806 66.7622 7.88058C66.7977 7.79311 66.8153 7.6994 66.8139 7.605C66.7249 7.698 66.7249 7.161 66.7249 7.161ZM69.053 13.069C69.1287 11.6987 69.7391 10.4129 70.7529 9.488C71.9185 8.64147 73.3435 8.22966 74.7809 8.324C76.2184 8.22966 77.6434 8.64147 78.8089 9.488C79.8224 10.4128 80.4328 11.6981 80.5089 13.068L69.053 13.069ZM74.6029 19.961C73.8268 20.0232 73.046 19.9284 72.3073 19.6824C71.5685 19.4364 70.8869 19.0441 70.303 18.529C69.46 17.6219 68.9544 16.4525 68.8709 15.217H81.137C81.2824 15.2282 81.4287 15.2101 81.5671 15.1639C81.7056 15.1177 81.8333 15.0443 81.943 14.948C82.1186 14.7161 82.2131 14.4329 82.2119 14.142C82.2669 13.1119 82.1127 12.0814 81.7589 11.1125C81.405 10.1435 80.8588 9.25624 80.153 8.504C79.4005 7.79794 78.5128 7.25151 77.5435 6.89765C76.5742 6.54379 75.5433 6.38981 74.513 6.445C73.4819 6.38165 72.4489 6.53183 71.4786 6.88613C70.5083 7.24042 69.6216 7.7912 68.874 8.504C66.726 10.652 66.9049 14.233 66.9049 14.233C66.8499 15.2632 67.0039 16.2939 67.3578 17.2631C67.7117 18.2322 68.258 19.1196 68.9639 19.872C71.1119 22.11 74.6029 21.931 74.6029 21.931C75.6468 21.9857 76.6911 21.8318 77.6747 21.4783C78.6584 21.1247 79.5618 20.5787 80.332 19.872C80.9889 19.2589 81.481 18.4903 81.763 17.637C81.8087 17.5622 81.8327 17.4761 81.8322 17.3884C81.8318 17.3007 81.8069 17.2148 81.7604 17.1405C81.7138 17.0661 81.6475 17.0062 81.5688 16.9674C81.4902 16.9287 81.4022 16.9126 81.3149 16.921H80.415C79.9669 16.921 79.878 17.19 79.609 17.637C78.541 19.424 76.4819 19.961 74.6019 19.961H74.6029ZM95.817 18.261C95.2467 18.7683 94.5808 19.1564 93.8582 19.4023C93.1357 19.6483 92.3713 19.7471 91.61 19.693C90.848 19.755 90.0815 19.66 89.3578 19.4136C88.6342 19.1673 87.9688 18.775 87.403 18.261C86.8878 17.6771 86.4956 16.9954 86.2496 16.2567C86.0035 15.5179 85.9088 14.7372 85.971 13.961C85.9092 13.1996 86.0043 12.4337 86.2505 11.7106C86.4966 10.9875 86.8885 10.3226 87.402 9.757C87.9722 9.24966 88.6381 8.86159 89.3607 8.61565C90.0832 8.36971 90.8476 8.27089 91.609 8.325C92.3714 8.25488 93.1401 8.34616 93.865 8.59289C94.5898 8.83962 95.2546 9.23627 95.816 9.757C96.3299 10.3228 96.7223 10.9882 96.9686 11.7119C97.2149 12.4355 97.31 13.2021 97.248 13.964C97.3097 14.7394 97.2148 15.5194 96.969 16.2574C96.7232 16.9954 96.3314 17.6765 95.817 18.26V18.261ZM98.681 0.536998H98.1439C97.9582 0.549625 97.7833 0.629115 97.6517 0.760753C97.5201 0.892391 97.4406 1.06726 97.428 1.253V8.862C96.7802 8.01799 95.9135 7.36775 94.9219 6.982C93.8896 6.60814 92.7977 6.42615 91.6999 6.445C90.6697 6.38995 89.639 6.54399 88.6699 6.89785C87.7008 7.25171 86.8133 7.79806 86.0609 8.504C85.3557 9.23861 84.8091 10.1104 84.4549 11.0651C84.1007 12.0198 83.9465 13.0372 84.0019 14.054C83.947 15.0842 84.101 16.1149 84.4549 17.084C84.8087 18.0531 85.3551 18.9406 86.0609 19.693C86.8133 20.3989 87.7008 20.9453 88.6699 21.2991C89.639 21.653 90.6697 21.807 91.6999 21.752C93.8061 21.8462 95.8646 21.1064 97.429 19.693C98.1349 18.9406 98.6812 18.0532 99.0351 17.0841C99.389 16.1149 99.543 15.0842 99.4879 14.054V1.253C99.4573 1.05862 99.36 0.88094 99.2128 0.750338C99.0656 0.619737 98.8776 0.544325 98.681 0.536998ZM45.153 14.143C45.0833 15.1672 45.2219 16.1949 45.5603 17.164C45.8987 18.1332 46.4299 19.0238 47.1219 19.782C47.8746 20.4872 48.7623 21.0328 49.7314 21.386C50.7005 21.7392 51.731 21.8926 52.7609 21.837C54.2944 21.8936 55.8132 21.5217 57.1469 20.763C57.3433 20.6457 57.4997 20.4718 57.5955 20.2641C57.6913 20.0564 57.7222 19.8245 57.6839 19.599V19.241C57.6839 18.341 56.9679 18.704 56.5199 18.883C55.3839 19.5568 54.0815 19.8981 52.7609 19.868C51.9922 19.9252 51.2201 19.8195 50.495 19.5579C49.7699 19.2964 49.1081 18.8848 48.5529 18.35C48.0378 17.7661 47.6456 17.0844 47.3996 16.3457C47.1535 15.6069 47.0588 14.8262 47.1209 14.05C47.0597 13.275 47.155 12.4956 47.401 11.7581C47.647 11.0206 48.0387 10.3401 48.5529 9.757C49.1175 9.23573 49.7806 8.8327 50.5033 8.57165C51.226 8.31061 51.9936 8.19682 52.7609 8.237C53.8762 8.22048 54.9797 8.46571 55.9829 8.953C56.3409 9.132 57.1469 9.49 57.1469 8.684V8.414C57.1469 7.966 57.2369 7.608 56.6099 7.25C55.4318 6.60777 54.1017 6.29675 52.7609 6.35C51.7307 6.29495 50.7 6.44899 49.7309 6.80285C48.7618 7.15671 47.8743 7.70306 47.1219 8.409C45.7354 9.98605 45.0278 12.0468 45.153 14.143ZM115.778 20.677C115.779 20.5826 115.762 20.4889 115.726 20.4014C115.691 20.3139 115.638 20.2345 115.571 20.1677C115.504 20.101 115.425 20.0483 115.338 20.0128C115.25 19.9773 115.156 19.9597 115.062 19.961C113.874 19.8994 112.753 19.3874 111.929 18.529C110.956 17.3157 110.477 15.7803 110.586 14.229V8.593H113.808C113.994 8.58037 114.169 8.50088 114.3 8.36924C114.432 8.23761 114.511 8.06273 114.524 7.877V7.337C114.511 7.15126 114.432 6.97639 114.3 6.84475C114.169 6.71311 113.994 6.63363 113.808 6.621H110.586V1.969C110.573 1.78326 110.494 1.60839 110.362 1.47675C110.231 1.34511 110.056 1.26563 109.87 1.253H109.333C109.147 1.26563 108.972 1.34511 108.841 1.47675C108.709 1.60839 108.63 1.78326 108.617 1.969V6.624H107.185C106.999 6.63663 106.824 6.71611 106.693 6.84775C106.561 6.97939 106.482 7.15426 106.469 7.34V7.877C106.482 8.06273 106.561 8.23761 106.693 8.36924C106.824 8.50088 106.999 8.58037 107.185 8.593H108.617V14.237C108.491 16.2891 109.165 18.3102 110.497 19.876C111.702 21.1165 113.334 21.8525 115.062 21.935C115.248 21.9224 115.423 21.8429 115.554 21.7112C115.686 21.5796 115.765 21.4047 115.778 21.219V20.677ZM103.425 0.536998H102.888C102.702 0.549625 102.527 0.629115 102.396 0.760753C102.264 0.892391 102.185 1.06726 102.172 1.253V3.137C102.163 3.23322 102.176 3.33018 102.209 3.42103C102.241 3.51187 102.294 3.59438 102.362 3.66269C102.431 3.73101 102.513 3.78347 102.604 3.81636C102.695 3.84924 102.792 3.86175 102.888 3.853H103.425C103.611 3.84037 103.786 3.76088 103.917 3.62924C104.049 3.49761 104.128 3.32273 104.141 3.137V1.253C104.142 1.1586 104.125 1.06489 104.089 0.977411C104.054 0.889934 104.001 0.810466 103.934 0.743709C103.867 0.676952 103.788 0.624262 103.701 0.588757C103.613 0.553251 103.519 0.535651 103.425 0.536998ZM103.425 6.445H102.888C102.702 6.45762 102.527 6.53711 102.396 6.66875C102.264 6.80039 102.185 6.97526 102.172 7.161V20.767C102.171 20.8614 102.188 20.9551 102.224 21.0426C102.259 21.1301 102.312 21.2095 102.379 21.2763C102.445 21.343 102.525 21.3957 102.612 21.4312C102.7 21.4667 102.794 21.4843 102.888 21.483H103.425C103.611 21.4704 103.786 21.3909 103.917 21.2592C104.049 21.1276 104.128 20.9527 104.141 20.767V7.161C104.128 6.97526 104.049 6.80039 103.917 6.66875C103.786 6.53711 103.611 6.45762 103.425 6.445ZM127.862 16.56C127.862 18.977 126.34 19.782 122.581 19.782C119.896 19.782 118.374 18.882 118.374 17.007C118.374 14.948 119.985 14.143 123.655 14.143H127.862V16.56ZM127.772 10.831V12.442H123.565C118.642 12.442 116.494 13.874 116.494 17.007C116.494 19.961 118.821 21.662 122.67 21.662C127.683 21.662 129.831 20.14 129.831 16.649V10.831C129.851 10.2336 129.732 9.63976 129.483 9.09614C129.235 8.55252 128.864 8.07393 128.399 7.698C127.57 7.12835 126.62 6.76053 125.624 6.624C124.94 6.54736 124.253 6.51729 123.565 6.534C122.907 6.5193 122.249 6.54937 121.596 6.624C120.52 6.64694 119.481 7.02447 118.642 7.698C118.163 8.06108 117.781 8.53733 117.531 9.0841C117.281 9.63087 117.171 10.2311 117.21 10.831C117.212 10.9205 117.232 11.0086 117.27 11.0897C117.308 11.1709 117.363 11.2432 117.43 11.3022C117.497 11.3612 117.576 11.4055 117.662 11.4323C117.747 11.4591 117.837 11.4679 117.926 11.458H118.463C118.64 11.4649 118.813 11.4038 118.946 11.2871C119.079 11.1705 119.162 11.0073 119.179 10.831C119.165 10.4376 119.268 10.0488 119.475 9.71413C119.683 9.37941 119.985 9.1138 120.343 8.951C121.403 8.56276 122.527 8.38049 123.655 8.414C124.754 8.37649 125.849 8.55907 126.877 8.951C126.608 8.951 127.777 9.309 127.777 10.831H127.772ZM138.066 14.77C141.646 14.77 142.989 14.949 142.989 17.097C142.989 18.977 141.109 19.782 138.513 19.782C136.365 19.782 135.022 19.513 134.213 18.797C133.828 18.3811 133.606 17.841 133.586 17.275C133.585 17.1852 133.565 17.0965 133.528 17.0149C133.49 16.9332 133.436 16.8604 133.368 16.8012C133.301 16.742 133.221 16.6978 133.135 16.6714C133.05 16.645 132.959 16.637 132.87 16.648H132.333C132.158 16.6496 131.99 16.7137 131.859 16.8288C131.727 16.9438 131.642 17.1021 131.617 17.275C131.589 17.8863 131.704 18.4957 131.953 19.0549C132.201 19.6141 132.577 20.1079 133.049 20.497C134.213 21.303 136.003 21.661 138.42 21.661C142.269 21.661 144.865 19.961 144.865 17.096C144.865 13.874 142.896 12.978 138.065 12.978C136.994 13.0229 135.926 12.8398 134.932 12.441C134.586 12.3124 134.289 12.08 134.08 11.7756C133.872 11.4713 133.763 11.1098 133.768 10.741C133.765 10.3614 133.874 9.98929 134.081 9.67102C134.288 9.35276 134.584 9.10237 134.932 8.951C136.959 8.23485 139.171 8.23485 141.198 8.951C141.505 9.08522 141.773 9.29532 141.977 9.56156C142.18 9.8278 142.313 10.1414 142.362 10.473C142.363 10.5628 142.383 10.6515 142.42 10.7331C142.458 10.8148 142.512 10.8876 142.58 10.9468C142.647 11.006 142.727 11.0502 142.812 11.0766C142.898 11.103 142.989 11.111 143.078 11.1H143.615C143.7 11.1129 143.787 11.1055 143.869 11.0786C143.951 11.0516 144.026 11.0058 144.087 10.9448C144.148 10.8838 144.194 10.8093 144.221 10.7274C144.247 10.6454 144.255 10.5583 144.242 10.473C144.228 9.94497 144.092 9.42741 143.843 8.96135C143.595 8.49529 143.241 8.09355 142.81 7.788C141.981 7.15813 140.985 6.78479 139.946 6.714C139.293 6.6373 138.635 6.60723 137.977 6.624C137.349 6.60929 136.721 6.63937 136.097 6.714C135.07 6.83525 134.087 7.20377 133.233 7.788C132.776 8.15076 132.409 8.6141 132.161 9.14191C131.912 9.66973 131.789 10.2478 131.801 10.831C131.8 11.3998 131.928 11.9613 132.176 12.4731C132.425 12.9849 132.786 13.4335 133.233 13.785C134.759 14.4434 136.405 14.7787 138.067 14.77H138.066Z" fill="#666666"/>
<path fill-rule="evenodd" clip-rule="evenodd" d="M38.261 18.35C38.2566 18.5912 38.2264 18.8312 38.171 19.066C37.2083 21.7623 35.436 24.0952 33.0966 25.7456C30.7572 27.396 27.965 28.2833 25.102 28.286C23.1929 28.272 21.3058 27.8762 19.552 27.122C17.7999 27.8819 15.9117 28.2779 14.002 28.286C12.1621 28.2694 10.3435 27.8903 8.65025 27.1704C6.95699 26.4504 5.42225 25.4037 4.1338 24.0902C2.84535 22.7767 1.82846 21.2221 1.14128 19.5152C0.454094 17.8084 0.110102 15.9829 0.128971 14.143C0.110103 12.3031 0.454127 10.4774 1.14137 8.77055C1.82861 7.06367 2.8456 5.509 4.13415 4.19545C5.42271 2.88191 6.95756 1.83527 8.65094 1.11538C10.3443 0.395489 12.163 0.0164738 14.003 1.01448e-05C15.9143 -0.0073912 17.8057 0.389278 19.553 1.16401C21.3068 0.409822 23.1939 0.014059 25.103 1.01448e-05C27.9585 0.0333004 30.7366 0.932558 33.07 2.57886C35.4034 4.22517 37.1821 6.54097 38.171 9.22001C38.2358 9.453 38.2661 9.69423 38.261 9.93601C38.244 10.2531 38.1518 10.5616 37.992 10.836C37.8035 11.0852 37.5601 11.2876 37.2807 11.4274C37.0013 11.5672 36.6934 11.6406 36.381 11.642H27.341C25.819 11.642 25.193 9.85201 25.193 9.85201C24.1598 7.08724 22.1548 4.79356 19.553 3.40001C17.6167 4.45088 15.9976 6.00156 14.8641 7.89061C13.7306 9.77967 13.1242 11.938 13.108 14.141C13.1054 16.3479 13.704 18.5138 14.8395 20.4062C15.9749 22.2985 17.6044 23.8459 19.553 24.882C22.1531 23.49 24.1576 21.199 25.192 18.437C25.192 18.437 25.819 16.647 27.34 16.647H36.381C36.695 16.6388 37.0063 16.7081 37.2872 16.8486C37.5682 16.9892 37.8102 17.1968 37.992 17.453C38.0962 17.5765 38.174 17.7201 38.2202 17.875C38.2665 18.0298 38.2804 18.1926 38.261 18.353V18.35ZM27.072 8.68301C26.0213 6.14053 24.2482 3.96197 21.972 2.41701C23.053 2.13044 24.1656 1.97994 25.284 1.96901C27.7053 1.98557 30.0661 2.72824 32.0608 4.10097C34.0555 5.47369 35.5925 7.41333 36.473 9.66901H28.146C27.429 9.57801 27.072 8.68301 27.072 8.68301ZM2.09797 14.053C2.07561 10.8723 3.31699 7.8128 5.54932 5.5469C7.78164 3.28101 10.8223 1.99411 14.003 1.96901C15.0917 1.97992 16.1746 2.13048 17.225 2.41701C15.3466 3.72137 13.8119 5.46106 12.752 7.48745C11.6921 9.51383 11.1385 11.7667 11.1385 14.0535C11.1385 16.3403 11.6921 18.5932 12.752 20.6196C13.8119 22.646 15.3466 24.3856 17.225 25.69C16.1733 25.9705 15.0912 26.1209 14.003 26.138C10.8266 26.0988 7.79406 24.8072 5.56475 22.5442C3.33544 20.2812 2.08956 17.2296 2.09797 14.053ZM21.97 25.869C24.2462 24.3241 26.0193 22.1455 27.07 19.603C27.07 19.603 27.428 18.703 28.055 18.703H36.38C35.4946 20.9553 33.9564 22.8917 31.9627 24.2637C29.9691 25.6357 27.611 26.3807 25.191 26.403C24.0996 26.3562 23.018 26.1769 21.97 25.869Z" fill="#11BB77"/>
</svg>
