<svg width="37" height="36" viewBox="0 0 37 36" fill="none" xmlns="http://www.w3.org/2000/svg">
<path d="M18.5 35C27.8888 35 35.5 27.3888 35.5 18C35.5 8.61116 27.8888 1 18.5 1C9.11116 1 1.5 8.61116 1.5 18C1.5 27.3888 9.11116 35 18.5 35Z" stroke="#EEC100" stroke-width="2"/>
<path d="M18.4977 8.87178C17.7876 8.87178 17.0669 8.98103 16.3415 9.17078C15.8295 9.3059 15.5484 9.82724 15.6826 10.339C15.8169 10.8507 16.3386 11.1622 16.8503 11.028C17.4234 10.8776 17.9601 10.7884 18.4977 10.7884C19.0516 10.7884 19.6036 10.8776 20.1748 11.028C20.6866 11.1622 21.2079 10.8507 21.343 10.339C21.4772 9.82724 21.1657 9.3059 20.654 9.17078C19.9295 8.98103 19.2222 8.87178 18.4977 8.87178ZM18.4977 11.7468C14.2635 11.7468 10.8311 15.1795 10.8311 19.4134C10.8311 23.6474 14.2635 27.0801 18.4977 27.0801C22.7316 27.0801 26.1644 23.6474 26.1644 19.4134C26.1644 15.1795 22.7316 11.7468 18.4977 11.7468ZM25.2061 11.7468C24.6771 11.7468 24.2477 12.1761 24.2477 12.7051C24.2477 13.2341 24.6771 13.6634 25.2061 13.6634C25.7351 13.6634 26.1644 13.2341 26.1644 12.7051C26.1644 12.1761 25.7351 11.7468 25.2061 11.7468ZM18.4977 13.6634C21.6736 13.6634 24.2477 16.2375 24.2477 19.4134C24.2477 22.5894 21.6736 25.1634 18.4977 25.1634C15.3221 25.1634 12.7477 22.5894 12.7477 19.4134C12.7477 16.2375 15.3221 13.6634 18.4977 13.6634ZM18.4977 15.5801C17.9687 15.5801 17.5394 16.0094 17.5394 16.5384V19.4134C17.5394 19.6674 17.6295 19.9223 17.8087 20.1025L19.7253 22.0192C20.1001 22.3929 20.7287 22.3929 21.1034 22.0192C21.4772 21.6444 21.4772 21.0158 21.1034 20.6411L19.4561 18.9937V16.5384C19.4561 16.0094 19.0267 15.5801 18.4977 15.5801Z" fill="#FBCE3B"/>
<rect x="7.0005" y="7.0005" width="22.999" height="22.999" stroke="#EEC100" stroke-width="0.001"/>
</svg>
