<svg xmlns="http://www.w3.org/2000/svg" xmlns:xlink="http://www.w3.org/1999/xlink" width="285" height="5" viewBox="0 0 285 5">
  <defs>
    <clipPath id="clip-path">
      <path id="Retângulo_15729" data-name="Retângulo 15729" d="M0,0H283a2,2,0,0,1,2,2V5a0,0,0,0,1,0,0H0A0,0,0,0,1,0,5V0A0,0,0,0,1,0,0Z" fill="#3c97ff"/>
    </clipPath>
  </defs>
  <g id="Linha_Colorida" data-name="Linha Colorida" transform="translate(765 57) rotate(180)">
    <g id="Grupo_39718" data-name="Grupo 39718" transform="translate(480 52)" clip-path="url(#clip-path)">
      <rect id="Retângulo_15726" data-name="Retângulo 15726" width="285" height="5" fill="#fff"/>
      <rect id="Retângulo_15727" data-name="Retângulo 15727" width="857.975" height="5.313" transform="translate(-475.283)" fill="#3c97ff"/>
      <path id="Caminho_247559" data-name="Caminho 247559" d="M67.357,0V81.033L0,0Z" transform="translate(245.872 -41.681) rotate(90)" fill="#f67922"/>
      <ellipse id="Elipse_311" data-name="Elipse 311" cx="17.049" cy="23.173" rx="17.049" ry="23.173" transform="translate(240.489 21.767) rotate(-90)" fill="#ffcf00"/>
      <ellipse id="Elipse_312" data-name="Elipse 312" cx="14.525" cy="19.742" rx="14.525" ry="19.742" transform="translate(0.129 16.718) rotate(-90)" fill="#f67922"/>
      <rect id="Retângulo_15728" data-name="Retângulo 15728" width="43.3" height="49.99" transform="translate(88.184 13.648) rotate(-90)" fill="#1d5297"/>
      <path id="Caminho_247560" data-name="Caminho 247560" d="M30.663,0V22.56H0Z" transform="translate(57.684 -11.159)" fill="#fbce3b"/>
    </g>
  </g>
</svg>
