<svg xmlns="http://www.w3.org/2000/svg" xmlns:xlink="http://www.w3.org/1999/xlink" width="74.191" height="33.344" viewBox="0 0 74.191 33.344">
  <defs>
    <clipPath id="clip-path">
      <rect id="Retângulo_16273" data-name="Retângulo 16273" width="74.191" height="33.344" transform="translate(0)" fill="none"/>
    </clipPath>
  </defs>
  <g id="Grupo_40776" data-name="Grupo 40776" transform="translate(-514.809 -338.656)">
    <g id="Grupo_40776-2" data-name="Grupo 40776" transform="translate(514.809 338.656)" clip-path="url(#clip-path)">
      <g id="LightBlue_Snappy" data-name="LightBlue Snappy" transform="translate(1.116 0.917)">
        <path id="Caminho_248080" data-name="Caminho 248080" d="M71.42,125.6s15.645,11.326,15.071,14.068-5.143,1.667-7.58,5.125c0,0,9.3,8.763,8.118,11.935s-7.652.986-9.767,3.333c0,0,.645,6.792-1.219,8.96s-1.326.143-3.871,2.885C72.173,171.89,77.029,147.625,71.42,125.6Z" transform="translate(-15.118 -108.059)" fill="#3c97ff" fill-rule="evenodd"/>
        <g id="Head" transform="translate(0)">
          <path id="Caminho_248081" data-name="Caminho 248081" d="M197.234,50.94s-.358-21.415-8.978-23.1c-5.663-1.111-9.641,5.717-9.641,5.717a18.42,18.42,0,0,0-10.286,1.434s-1.147-3.118-4.014-2.6-6.7,6.111-7.15,16.236a8.745,8.745,0,0,0-6.864,3.315,4.651,4.651,0,0,0,2.688,2.348c1.774.43,9.946-1.219,11.774.95s2.527,3.692,1.756,7.043c0,0,8.638.466,13.225-3.817S189.009,45.241,197.234,50.94Z" transform="translate(-139.355 -27.718)" fill="#3c97ff" fill-rule="evenodd"/>
          <path id="Caminho_248082" data-name="Caminho 248082" d="M323.609,95.31s-1.057-7.33-4.857-9.91a74.76,74.76,0,0,1-2.652,9.964,62.078,62.078,0,0,1,7.509-.054Z" transform="translate(-295.442 -75.063)" fill="#f1f1f2"/>
          <path id="Caminho_248083" data-name="Caminho 248083" d="M204.088,76.2s-5.645,1.72-10.788,12.132c0,0,8.494-.09,12.1.753C205.414,89.085,202.995,82.347,204.088,76.2Z" transform="translate(-155.223 -67.512)" fill="#f1f1f2"/>
          <path id="Caminho_248084" data-name="Caminho 248084" d="M209.181,101.308c-1.29-.2-2.545,1.075-2.814,2.849s.556,3.369,1.846,3.566,2.545-1.075,2.814-2.849-.556-3.369-1.846-3.566" transform="translate(-163.237 -88.103)" fill="#24578f" fill-rule="evenodd"/>
          <path id="Caminho_248085" data-name="Caminho 248085" d="M323,109.991a2.237,2.237,0,0,1-1.47-2.706c.2-1.344,1.183-2.294,2.2-2.151a1.434,1.434,0,0,1,.538.215,6.552,6.552,0,0,1,.932,2.312.609.609,0,0,1-.018.179C325.011,109.185,324.026,110.134,323,109.991Z" transform="translate(-298.01 -91.249)" fill="#24578f" fill-rule="evenodd"/>
          <path id="Caminho_248086" data-name="Caminho 248086" d="M206.209,172.942s4.211-3.6,7.186.287c2.455,3.226-.412,7.563-.412,7.563s.412-4.068-1.505-4.068c0,0-3.1,9.8-19.318,17.6s-20.179,6.272-23.243,4.946-6.469-3.512-4.839-5.9,10.107-7.634,10.107-7.634,2.975,3.029,9.713,1.756,18.207-6.452,24.874-13.3c0,0-.018-1.918-2.348-1.2" transform="translate(-158.903 -145.669)" fill="#f47924" fill-rule="evenodd"/>
          <path id="Caminho_248087" data-name="Caminho 248087" d="M248.743,236.757a25.175,25.175,0,0,0-23.96,2.706l1.774-.645s-7.491-1.523-8.692-.627-7.706,3.333-9.821,12.079c-.627,2.545,5.269,4.928,19.892.233C237.023,247.563,248.743,236.757,248.743,236.757Z" transform="translate(-201.204 -197.765)" fill="#e05406" fill-rule="evenodd"/>
          <path id="Caminho_248088" data-name="Caminho 248088" d="M302.041,240.8l-.34.108Z" transform="translate(-271.293 -202.614)" fill="#c56428" fill-rule="evenodd"/>
          <path id="Caminho_248089" data-name="Caminho 248089" d="M343.7,249.776s.681,7.778,3.638,7.383c1-.143.932-2.33,1.541-3.728s2.115-4.032,2.115-4.032Z" transform="translate(-327.773 -209.673)" fill="#ebeef2" fill-rule="evenodd"/>
          <path id="Caminho_248090" data-name="Caminho 248090" d="M419.644,223.8s-.573,7.8,2.4,7.867c1,.036,1.29-2.15,2.115-3.423s2.724-3.638,2.724-3.638Z" transform="translate(-417.266 -188.66)" fill="#ebeef2" fill-rule="evenodd"/>
          <path id="Caminho_248091" data-name="Caminho 248091" d="M128.636,152.113c1.2-5.358,8.709-6.649,13.369-2.043,4.426-.3,9.641-2.437,13.279,2.509,2.581,3.495.394,6.147.394,6.147s9.14-.09,12.9-4.158,8.674-9.534,13.118-9.3c2.33.125,6.254.376,7.831,5.09s1.487,12.8-17.007,22.759S146.2,185.356,142.578,184.8c-4.606-.717-4.641-2.473-9.82-4.014-2.652-.788-4.014-5.717-.43-9.247s11.326-7.276,11.326-7.276-8.476,5.251-10.107,7.634,1.774,4.57,4.839,5.9,7.025,2.849,23.243-4.946,19.283-17.6,19.283-17.6c1.9.018,1.505,4.068,1.505,4.068s2.867-4.337.412-7.563c-2.957-3.889-7.186-.287-7.186-.287l.215.054c2.33-.717,2.348,1.2,2.348,1.2-6.666,6.846-18.118,12.043-24.856,13.315s-9.713-1.756-9.713-1.756-6.774-1.147-8.978-2.115S127.005,159.371,128.636,152.113Z" transform="translate(-128.336 -124.195)" fill="#ffcf00" fill-rule="evenodd"/>
          <path id="Caminho_248092" data-name="Caminho 248092" d="M349.764,197.691c-1.416-.7-2.867,1.129-1.039,2.312.161.789-.412,1.523-1.649,1.631,3.692,1.362,4.516-2.957,2.688-3.943" transform="translate(-328.085 -167.104)" fill="#eca93e" fill-rule="evenodd"/>
          <path id="Caminho_248093" data-name="Caminho 248093" d="M439.881,180.519c1.29-.215,1.989,1.595.251,2.079-.323.573-.054,1.308.914,1.685-3.244.161-2.831-3.423-1.165-3.763" transform="translate(-434.958 -153.121)" fill="#eca93e" fill-rule="evenodd"/>
        </g>
      </g>
    </g>
  </g>
</svg>
