<svg id="Short-Default" xmlns="http://www.w3.org/2000/svg" xmlns:xlink="http://www.w3.org/1999/xlink" width="161.447" height="30" viewBox="0 0 161.447 30">
  <defs>
    <clipPath id="clip-path">
      <rect id="Retângulo_14994" data-name="Retângulo 14994" width="161.092" height="30" fill="none"/>
    </clipPath>
  </defs>
  <g id="Short-Default-2" data-name="Short-Default">
    <g id="Grupo_38528" data-name="Grupo 38528" clip-path="url(#clip-path)">
      <g id="LightBlue_Snappy" data-name="LightBlue Snappy" transform="translate(-7.281 1.542)">
        <g id="Back_Leg" data-name="Back Leg" transform="translate(27.045 42.002)">
          <path id="Caminho_246127" data-name="Caminho 246127" d="M71.834,149.5c-1.654,1.573-3.309,3.728-4.934,5.3.8,4.107-.768,5.913,1.123,7.369.679.524,4.786,1.66,7.061.349.059-2.126-1.123-2.767-2.393-3.553-1.27-2.709-.827-6.816-.857-9.466" transform="translate(-66.9 -149.5)" fill="#3c97ff" fill-rule="evenodd"/>
          <path id="Caminho_246128" data-name="Caminho 246128" d="M81.234,189.709A3.714,3.714,0,0,0,78.9,187a2.951,2.951,0,0,1,1.448,2.709Z" transform="translate(-75.355 -176.078)" fill="#4580c2" fill-rule="evenodd"/>
          <path id="Caminho_246129" data-name="Caminho 246129" d="M88,188.35a3.715,3.715,0,0,0-2.3-2.651,2.925,2.925,0,0,1,1.418,2.942A4.653,4.653,0,0,0,88,188.35Z" transform="translate(-80.146 -175.156)" fill="#4580c2" fill-rule="evenodd"/>
        </g>
        <g id="Back_Arm" data-name="Back Arm" transform="translate(29.595 19.81)">
          <path id="Caminho_246130" data-name="Caminho 246130" d="M76,74.267c-.857,1.223-1.241,3.786,5.554,7.544A56.489,56.489,0,0,1,77.8,87.549c-.916.9-1.477,3.262-.561,4.427A10.654,10.654,0,0,0,78.8,93.694s2.245.408,3.22-.116a4.264,4.264,0,0,0,.65-4.748s5.7-5.883,5.347-7.66S78.685,70.393,76,74.267Z" transform="translate(-75.534 -73.308)" fill="#3c97ff" fill-rule="evenodd"/>
          <path id="Caminho_246131" data-name="Caminho 246131" d="M92.6,126.6s-2.3,1.893-2.9,2.214a6.845,6.845,0,0,0,1.359-.582s1.034,1.223.266,2.272a1.778,1.778,0,0,0,.443-2.563,10.744,10.744,0,0,0,.857-1.223Z" transform="translate(-85.515 -111.078)" fill="#4580c2" fill-rule="evenodd"/>
        </g>
        <g id="Body" transform="translate(0 6.381)">
          <g id="Tail_Spines" data-name="Tail Spines" transform="translate(3.601 25.092)">
            <path id="Caminho_246132" data-name="Caminho 246132" d="M17.189,119.858a2.394,2.394,0,0,1-.384,1.223c-.384.612-.62.524.355,1.049a7.4,7.4,0,0,0,2.3.7c1.359.233,1.064.058.443-1.194A10.537,10.537,0,0,0,18.962,120c-1.329-1.835-1.743-1.718-1.8-.175" transform="translate(-7.926 -117.105)" fill="#9ccaff" fill-rule="evenodd"/>
            <path id="Caminho_246133" data-name="Caminho 246133" d="M2.022,115.489c-.5.9.266,1.049,1.241,1.4a5.083,5.083,0,0,0,1.123.262c1.123.117.827-.029.325-.932a16.186,16.186,0,0,0-.975-1.573c-1.95-2.738-1-.5-1.743.845" transform="translate(2.367 -113.347)" fill="#9ccaff" fill-rule="evenodd"/>
            <path id="Caminho_246134" data-name="Caminho 246134" d="M-12.263,115.571a5.026,5.026,0,0,1-.03.641c-.059.757-.148.641.8.728a5.633,5.633,0,0,0,1.27,0c1.211-.175.768-.612.148-1.311a5.345,5.345,0,0,0-.709-.67c-2.422-1.835-1.507-.553-1.477.612" transform="translate(12.456 -113.837)" fill="#9ccaff" fill-rule="evenodd"/>
          </g>
          <path id="Caminho_246135" data-name="Caminho 246135" d="M23.466,27.2s-6.913,3.5-6.854,4.631,1.95.961,2.718,2.447c0,0-4.224,2.883-3.959,4.194s2.984.845,3.693,1.893c0,0-.679,2.621-.059,3.583s.5.146,1.359,1.369C20.364,45.316,19.921,35.5,23.466,27.2Z" transform="translate(-3.541 -27.2)" fill="#3c97ff" fill-rule="evenodd"/>
          <path id="Caminho_246136" data-name="Caminho 246136" d="M-6.17,36.783c2.422,2.272,5.524,3.7,8.331,5.476A18.773,18.773,0,0,1,7.183,46.6c1.388,1.777.709,4.835,1.093,7.544.118.932.207,1.864.236,2.8a35.353,35.353,0,0,1-.148,5.1c-.414,4.049-.62,7.34-3.515,10.369-3.6,3.786-7.415,5.126-11.935,1.864a25.473,25.473,0,0,1-4.49-4.136c-.916-1.049-2.068-1.748-3.072-2.738a15.083,15.083,0,0,0-4.431-3.146c-1.566-.583-2.954.233-3.811.612s-1.064.583-1.536.2a.491.491,0,0,1-.177-.612,4.458,4.458,0,0,1,1.152-1.6c2.659-2.388,6.972-2.447,10.162-.757A10.191,10.191,0,0,0-9.36,63.55a3.79,3.79,0,0,0,2.747-.786A3.568,3.568,0,0,0-5.49,60.7a6.322,6.322,0,0,0-.236-3.35C-6.258,55.8-7.174,54.4-7.795,52.86c-2.068-5.184-2.747-11.126.591-15.99l.473-.67Z" transform="translate(24.647 -33.579)" fill="#3c97ff" fill-rule="evenodd"/>
          <g id="Grupo_38527" data-name="Grupo 38527" transform="translate(6.1 9.524)">
            <path id="Caminho_246137" data-name="Caminho 246137" d="M-4,81.249c2.334,1.136,4.786,3.728,7.179,6.5,3.1,3.641,10.871,9,17.252.583,6.027-7.922,3.191-19.049,2.836-20.3V67.91c-.207-.262-5.583-7.019-10.517-8.01-1.3,1.136-1.566,3.116.177,6.524,2.954,5.738,5.288,14.126.059,19.252A7.105,7.105,0,0,1,10.21,87.4c-3.722,1.223-5.7-1.019-8.006-3.146a11.289,11.289,0,0,0-6.2-3Z" transform="translate(4 -59.9)" fill="#ffcf00" fill-rule="evenodd"/>
            <path id="Caminho_246138" data-name="Caminho 246138" d="M66.4,147.9a12.3,12.3,0,0,1-6.2-2.5,8.58,8.58,0,0,0,5.495,3.524Z" transform="translate(-41.234 -120.497)" fill="#eca93e" fill-rule="evenodd"/>
            <path id="Caminho_246139" data-name="Caminho 246139" d="M45.8,155.7a14.24,14.24,0,0,0,3.752,4.806,8.207,8.207,0,0,0,1.477-.5A11.873,11.873,0,0,1,45.8,155.7Z" transform="translate(-31.088 -127.797)" fill="#eca93e" fill-rule="evenodd"/>
            <path id="Caminho_246140" data-name="Caminho 246140" d="M19,151.661l.384.437.177.2a2.368,2.368,0,0,1,.177-1.6A8.577,8.577,0,0,0,19,151.661Z" transform="translate(-12.205 -124.253)" fill="#eca93e" fill-rule="evenodd"/>
            <path id="Caminho_246141" data-name="Caminho 246141" d="M27.8,158.477l.827.641a3.688,3.688,0,0,1,.03-2.417,8.742,8.742,0,0,0-.857,1.777Z" transform="translate(-18.406 -128.506)" fill="#eca93e" fill-rule="evenodd"/>
            <path id="Caminho_246142" data-name="Caminho 246142" d="M10.6,143.27l.591.612a5.115,5.115,0,0,1,.148-1.282,6.288,6.288,0,0,0-.739.67Z" transform="translate(-6.287 -118.513)" fill="#edb248" fill-rule="evenodd"/>
            <path id="Caminho_246143" data-name="Caminho 246143" d="M65.8,127.106a12.667,12.667,0,0,1,7.208,0q.089-.5.148-.99C68.459,125.008,65.8,127.106,65.8,127.106Z" transform="translate(-45.18 -106.601)" fill="#eca93e" fill-rule="evenodd"/>
            <path id="Caminho_246144" data-name="Caminho 246144" d="M72.91,102.426c-.03-.408-.089-.786-.118-1.136h0c-5.022-.117-7.592,2.272-7.592,2.272A12.6,12.6,0,0,1,72.91,102.426Z" transform="translate(-44.757 -89.232)" fill="#eca93e" fill-rule="evenodd"/>
            <path id="Caminho_246145" data-name="Caminho 246145" d="M66.915,81.228l-.65-.728c-5.318,0-6.765,2.447-6.765,2.447A11.921,11.921,0,0,1,66.915,81.228Z" transform="translate(-40.741 -74.5)" fill="#eca93e" fill-rule="evenodd"/>
            <path id="Caminho_246146" data-name="Caminho 246146" d="M61.44,76.8a30.674,30.674,0,0,0-.591-3.524l-.384-.233c-1.684-1.078-9.158-5.563-11.374-6.845a4.279,4.279,0,0,0-.03.99C51.4,70.336,56.566,75.724,61.44,76.8Z" transform="translate(-33.375 -64.365)" fill="#eca93e" fill-rule="evenodd"/>
          </g>
        </g>
        <g id="Front_Leg" data-name="Front Leg" transform="translate(13.169 39.718)">
          <path id="Caminho_246147" data-name="Caminho 246147" d="M23.968,143.126a3.415,3.415,0,0,1,3.1-1.456c3.427.437,2.334,4.427,1.507,6.786A18.924,18.924,0,0,0,27.6,153.7c0,2.33.886,3.029-.207,3.932a8.859,8.859,0,0,1-5.967,1.631c-2.3-.291-1.95-4.282,1.064-5.272a11.545,11.545,0,0,0,.739-5.563c-.03-1.311-.148-4.019.709-5.33" transform="translate(-19.93 -141.658)" fill="#3c97ff" fill-rule="evenodd"/>
          <path id="Caminho_246148" data-name="Caminho 246148" d="M31.1,194.062l.8-.146a3.405,3.405,0,0,1,.945-3.116A3.673,3.673,0,0,0,31.1,194.062Z" transform="translate(-27.8 -176.487)" fill="#4580c2" fill-rule="evenodd"/>
          <path id="Caminho_246149" data-name="Caminho 246149" d="M23,193.666a3.893,3.893,0,0,1,.916-3.466,3.5,3.5,0,0,0-1.713,3A1.541,1.541,0,0,0,23,193.666Z" transform="translate(-21.529 -176.061)" fill="#4580c2" fill-rule="evenodd"/>
        </g>
        <g id="Front_Arm" data-name="Front Arm" transform="translate(9.645 18.685)">
          <path id="Caminho_246150" data-name="Caminho 246150" d="M30.7,119.6s-.384,2.243,1.152,2.971,2.9.641,3.693-.291,2.747-3.99-1.684-6.612c-2.747-1.631-2.866,3.874-2.866,3.874Z" transform="translate(-23.963 -101.989)" fill="#4580c2" fill-rule="evenodd"/>
          <path id="Caminho_246151" data-name="Caminho 246151" d="M32.1,86.013c.591,1.223,1.093,2.184,1.123,2.272s3.575-4.369,2.925-5.1S32.661,85.023,32.1,86.013Z" transform="translate(-24.98 -79.094)" fill="#24578f" fill-rule="evenodd"/>
          <path id="Caminho_246152" data-name="Caminho 246152" d="M18.605,69.957c3.84,3.641-4.136,8.476-4.136,8.476.857.553,1.95,2.388,2.777,3.728S18.4,83.3,19.4,84.4s-1.861,2.8-1.861,2.8S7.97,82.1,8,78.84a24.008,24.008,0,0,1,4.461-6.291C13.583,71.413,16.774,68.209,18.605,69.957Z" transform="translate(-8 -69.446)" fill="#3c97ff" fill-rule="evenodd"/>
          <path id="Caminho_246153" data-name="Caminho 246153" d="M31.025,120.491s-.709,3.466,1.388,4.485a4.911,4.911,0,0,0,2.57-.5s2.157-3.262.561-4.951S31.025,120.491,31.025,120.491Z" transform="translate(-24.142 -104.543)" fill="#3c97ff" fill-rule="evenodd"/>
          <path id="Caminho_246154" data-name="Caminho 246154" d="M31.13,125.1s2.777,1.456,3.25,1.6a2.633,2.633,0,0,1-1.418-.2s-.709,1.34.118,2.155c0,0-1.27-.233-.827-2.33L31.1,125.158Z" transform="translate(-24.276 -108.89)" fill="#4580c2" fill-rule="evenodd"/>
        </g>
        <g id="Head" transform="translate(16.957)">
          <path id="Caminho_246155" data-name="Caminho 246155" d="M39.6,13.829S41.018,5.441,44.563,5.3c2.3-.087,3.486,2.825,3.486,2.825a7.494,7.494,0,0,1,4.019,1.166s.648-1.166,1.742-.787,2.3,2.8,1.861,6.786A3.516,3.516,0,0,1,58.211,17,1.864,1.864,0,0,1,57,17.761c-.739.058-3.87-1.078-4.727-.32a2.663,2.663,0,0,0-1.123,2.65s-3.456-.32-5.022-2.272S43.2,12.053,39.6,13.829Z" transform="translate(-37.578 -5.293)" fill="#3c97ff" fill-rule="evenodd"/>
          <path id="Caminho_246156" data-name="Caminho 246156" d="M80.2,27.812s.857-2.825,2.541-3.612a29.939,29.939,0,0,0,.443,4.078,25.321,25.321,0,0,0-2.984-.466Z" transform="translate(-66.184 -18.693)" fill="#f1f1f2"/>
          <path id="Caminho_246157" data-name="Caminho 246157" d="M51.529,16.8s2.157,1.019,3.545,5.388a30.256,30.256,0,0,0-4.874-.437A10.63,10.63,0,0,0,51.529,16.8Z" transform="translate(-45.046 -13.449)" fill="#f1f1f2"/>
          <path id="Caminho_246158" data-name="Caminho 246158" d="M55.445,23.5c.532,0,.945.583.945,1.282s-.414,1.282-.945,1.282-.945-.583-.945-1.282.414-1.282.945-1.282" transform="translate(-48.076 -18.197)" fill="#24578f" fill-rule="evenodd"/>
          <path id="Caminho_246159" data-name="Caminho 246159" d="M83.034,30.522a.995.995,0,0,0,0-1.922l-.236.058a2.613,2.613,0,0,0-.5.845v.058A.835.835,0,0,0,83.034,30.522Z" transform="translate(-67.659 -21.812)" fill="#24578f" fill-rule="evenodd"/>
          <path id="Caminho_246160" data-name="Caminho 246160" d="M44.455,40.149s-1.448-1.66-2.866-.32a2.355,2.355,0,0,0-.3,3s.089-1.631.857-1.515c0,0,.65,4.019,6.617,8.068s7.622,3.641,8.922,3.32,2.777-.99,2.275-2.039-3.575-3.583-3.575-3.583-1.359,1.019-3.959.117a21.629,21.629,0,0,1-9.069-6.7s.118-.757,1-.32" transform="translate(-38.474 -29.4)" fill="#f47924" fill-rule="evenodd"/>
          <path id="Caminho_246161" data-name="Caminho 246161" d="M50.3,57.228A10.263,10.263,0,0,1,59.665,59.7l-.679-.35s3.072-.146,3.486.262a7.21,7.21,0,0,1,3.191,5.33c.089,1.049-2.393,1.631-7.917-1.107C54.288,62.179,50.3,57.228,50.3,57.228Z" transform="translate(-45.117 -41.905)" fill="#e05406" fill-rule="evenodd"/>
          <path id="Caminho_246162" data-name="Caminho 246162" d="M73,60.3l.118.058Z" transform="translate(-61.111 -44.279)" fill="#c56428" fill-rule="evenodd"/>
          <path id="Caminho_246163" data-name="Caminho 246163" d="M85.766,64.483s-.739,3-1.891,2.68c-.384-.116-.236-.961-.384-1.544S82.9,63.9,82.9,63.9Z" transform="translate(-68.086 -46.83)" fill="#ebeef2" fill-rule="evenodd"/>
          <path id="Caminho_246164" data-name="Caminho 246164" d="M104.925,61.717s-.236,3.087-1.418,2.942c-.414-.058-.384-.932-.65-1.456S102,61.6,102,61.6Z" transform="translate(-81.543 -45.2)" fill="#ebeef2" fill-rule="evenodd"/>
          <path id="Caminho_246165" data-name="Caminho 246165" d="M57.406,38.343c-.148-2.184-3.072-3.117-5.2-1.6-1.743-.379-3.693-1.544-5.436.2a1.9,1.9,0,0,0-.532,2.359s-3.634-.583-4.874-2.388-2.9-4.252-4.668-4.427a3.025,3.025,0,0,0-3.427,1.544c-.916,1.777-1.359,4.922,5.377,9.932s9.749,6.379,11.2,6.379,1.979-.7,4.165-.99c1.093-.146,1.95-2.01.739-3.612a21.429,21.429,0,0,0-4.077-3.524s3.072,2.563,3.545,3.612-.975,1.689-2.275,2.039-2.954.7-8.951-3.32-6.588-8.1-6.588-8.1c-.768-.117-.857,1.515-.857,1.515s-.886-1.864.3-3,2.9.32,2.9.32h-.089c-.886-.408-1,.32-1,.32a21.81,21.81,0,0,0,9.069,6.7c2.6.9,3.959-.087,3.959-.087a27.892,27.892,0,0,0,3.693-.291C55.308,41.693,57.612,41.285,57.406,38.343Z" transform="translate(-32.754 -24.536)" fill="#ffcf00" fill-rule="evenodd"/>
          <path id="Caminho_246166" data-name="Caminho 246166" d="M85.6,51.822c.62-.2,1.063.612.266.961-.118.291.059.612.561.728-1.566.32-1.625-1.427-.827-1.718" transform="translate(-69.631 -38.247)" fill="#eca93e" fill-rule="evenodd"/>
          <path id="Caminho_246167" data-name="Caminho 246167" d="M108.309,50.948c-.5-.146-.886.5-.236.786.089.233-.059.524-.473.612,1.27.262,1.329-1.165.679-1.4" transform="translate(-85.489 -37.636)" fill="#eca93e" fill-rule="evenodd"/>
        </g>
      </g>
    </g>
    <g id="Grupo_38531" data-name="Grupo 38531" transform="translate(40.029 6.816)">
      <path id="Caminho_246168" data-name="Caminho 246168" d="M245.218,46.713c.177,1.078,1.182,1.485,2.275,1.485s1.92-.466,1.95-1.019a1.813,1.813,0,0,0-1.566-1.515l-2.6-.466c-2.393-.437-3.752-1.107-3.752-3.116,0-2.592,2.275-4.282,5.524-4.282s5.318,1.427,5.849,3.641l-3.752.728a1.973,1.973,0,0,0-2.157-1.485c-1.27,0-1.654.466-1.743.99s.089.641,1.27.874l3.013.612c2.422.5,3.545,1.951,3.545,3.816,0,2.8-2.452,4.252-5.849,4.252s-5.613-1.078-6.027-3.7Z" transform="translate(-209.974 -33.606)" fill="#ff9442"/>
      <g id="Grupo_38530" data-name="Grupo 38530">
        <path id="Caminho_246169" data-name="Caminho 246169" d="M338.009,30.769a12.151,12.151,0,0,1,.089,1.544,8.566,8.566,0,0,1-8.922,8.854,8.891,8.891,0,1,1-.059-17.767c3.84,0,7.208,1.777,8.419,5.1l-4.077,1.165a4.475,4.475,0,0,0-4.313-2.447,4.892,4.892,0,0,0-4.934,5.039,4.978,4.978,0,0,0,5.052,5.068,4.514,4.514,0,0,0,4.549-3.029h-5.288V30.769Z" transform="translate(-265.425 -23.4)" fill="#ff9442"/>
        <g id="Text-Default" transform="translate(0 0.087)">
          <g id="Grupo_38529" data-name="Grupo 38529">
            <path id="Caminho_246170" data-name="Caminho 246170" d="M151.216,40.71h-4.225V33.982h-7.238V40.71H135.5V23.7h4.254v6.641h7.238V23.7h4.225Z" transform="translate(-135.5 -23.7)" fill="#ff9442"/>
            <path id="Caminho_246171" data-name="Caminho 246171" d="M206.51,43.9a6.763,6.763,0,0,1-7.061,6.728c-3.811,0-7.149-2.709-7.149-6.728s3.25-6.7,7.149-6.7S206.51,39.909,206.51,43.9Zm-3.959,0a3.172,3.172,0,0,0-3.1-3.291,3.242,3.242,0,0,0-2.3.981,3.336,3.336,0,0,0,2.3,5.6A3.1,3.1,0,0,0,202.551,43.9Z" transform="translate(-175.52 -33.268)" fill="#ff9442"/>
            <path id="Caminho_246172" data-name="Caminho 246172" d="M294.19,40.127a7.078,7.078,0,0,1-3.515.932c-3.22,0-5.14-1.718-5.14-5.068V31.185H283.2v-3.2h2.3V24.574l4.106-.874v4.282h3.811v3.2h-3.811v4.427c0,1.311.65,1.864,1.713,1.864a4.242,4.242,0,0,0,1.891-.5Z" transform="translate(-239.567 -23.7)" fill="#ff9442"/>
            <path id="Caminho_246173" data-name="Caminho 246173" d="M395.444,42.068v8.068h-3.959v-.961a5.753,5.753,0,0,1-3.87,1.311c-2.866,0-4.815-1.66-4.815-4.165s1.95-4.078,5.377-4.078h3.279v-.262a1.676,1.676,0,0,0-.5-1.284,1.727,1.727,0,0,0-1.3-.492,1.878,1.878,0,0,0-2.157,1.6l-3.87-.786c.561-2.447,2.836-4.019,5.908-4.019C393.14,37.029,395.444,38.806,395.444,42.068ZM391.485,45.1v-.291h-2.836c-1.034,0-1.684.524-1.684,1.311s.709,1.311,1.8,1.311S391.485,46.524,391.485,45.1Z" transform="translate(-309.743 -33.126)" fill="#ff9442"/>
            <path id="Caminho_246174" data-name="Caminho 246174" d="M438.69,40.127a7.077,7.077,0,0,1-3.515.961c-3.22,0-5.14-1.718-5.14-5.068V31.185H427.7v-3.2h2.334V24.574l4.106-.874v4.282h3.811v3.2H434.14v4.427c0,1.311.65,1.864,1.714,1.864a4.242,4.242,0,0,0,1.891-.5Z" transform="translate(-341.379 -23.7)" fill="#ff9442"/>
            <path id="Caminho_246175" data-name="Caminho 246175" d="M476.939,43.9a6.763,6.763,0,0,1-7.06,6.728c-3.811,0-7.179-2.709-7.179-6.728s3.25-6.7,7.149-6.7S476.939,39.909,476.939,43.9Zm-3.959,0a3.172,3.172,0,0,0-3.1-3.291,3.242,3.242,0,0,0-2.3.981,3.336,3.336,0,0,0,2.3,5.6A3.1,3.1,0,0,0,472.981,43.9Z" transform="translate(-366.039 -33.268)" fill="#ff9442"/>
            <path id="Caminho_246176" data-name="Caminho 246176" d="M523.813,37.88l-.207,4.049h-.739c-2.865,0-4.461,1.456-4.461,4.777V50.7H514.3V38.841l4.106-.874v2.447a5,5,0,0,1,4.461-2.621A3.564,3.564,0,0,1,523.813,37.88Z" transform="translate(-402.395 -33.686)" fill="#ff9442"/>
          </g>
        </g>
      </g>
    </g>
  </g>
</svg>
