<svg xmlns="http://www.w3.org/2000/svg" xmlns:xlink="http://www.w3.org/1999/xlink" width="72" height="72" viewBox="0 0 72 72">
  <defs>
    <clipPath id="clip-path">
      <rect id="Retângulo_14906" data-name="Retângulo 14906" width="72" height="72" fill="#f1f3f6"/>
    </clipPath>
  </defs>
  <g id="Créditos_HG" data-name="Créditos HG" transform="translate(-56 -23.5)">
    <g id="Grupo_de_máscara_11" data-name="Grupo de máscara 11" transform="translate(56 23.5)" clip-path="url(#clip-path)">
      <rect id="Retângulo_14908" data-name="Retângulo 14908" width="72" height="72" fill="#ebeff3" opacity="0.4"/>
      <g id="Grupo_38609" data-name="Grupo 38609" transform="translate(43.338 5.006)">
        <circle id="Elipse_318" data-name="Elipse 318" cx="10.899" cy="10.899" r="10.899" transform="translate(0 0.006)" fill="#eca93e"/>
        <circle id="Elipse_315" data-name="Elipse 315" cx="10.899" cy="10.899" r="10.899" transform="translate(1.87)" fill="#ffd54c"/>
        <text id="_" data-name="$" transform="translate(12.661 15.993)" fill="#eca93e" font-size="12" font-family="Roboto-Bold, Roboto" font-weight="700" letter-spacing="0.001em"><tspan x="-3" y="0">$</tspan></text>
      </g>
      <g id="Grupo_29449" data-name="Grupo 29449" transform="translate(70.467 72.411) rotate(164.991)">
        <path id="Caminho_37320" data-name="Caminho 37320" d="M0,33.972s12.9-6.589,12.79-8.681-3.206-2.885-5.054-4.61c0,0,7.9-5.412,7.393-7.892s-5.6-1.578-6.864-3.545c0,0,1.264-4.936.114-6.739S7.406,2.255,5.851,0C5.738-.051,6.647,18.364,0,33.972Z" transform="translate(40.556 9.56)" fill="#3c97ff"/>
        <path id="Caminho_37321" data-name="Caminho 37321" d="M26.968,32.52c-4.55-4.284-10.288-6.977-15.52-10.3a34.106,34.106,0,0,1-9.365-8.18C.134,11.456-.406,5.312.291,0l33.4,8.949c.437,6.193-1.6,17.79-5.3,23.273L28.093,33.5Z" transform="translate(16.293 5.024)" fill="#3c97ff"/>
        <path id="Caminho_37322" data-name="Caminho 37322" d="M0,0A53.178,53.178,0,0,0,1.454,7.935l.076.251c.379.476,10.414,13.178,19.614,15.032,2.45-2.1,2.932-5.825-.329-12.239-.863-1.692-1.374-3.472-2.131-5.364Z" transform="translate(13.991 2.476)" fill="#ffd54c"/>
        <path id="Caminho_37323" data-name="Caminho 37323" d="M0,0A61.232,61.232,0,0,0,1.1,6.627l.72.438C4.993,9.12,18.97,17.45,23.065,19.955a8.108,8.108,0,0,0,0-1.854C18.768,12.139,9.125,2.042,0,0Z" transform="translate(13.965 2.281)" fill="#eca93e"/>
        <path id="Caminho_37324" data-name="Caminho 37324" d="M14.105,4.291C12.134,1.963,10.348.165,10.256,0S-1.991,8.239.283,9.6,12.18,6.113,14.105,4.291Z" transform="matrix(0.643, -0.766, 0.766, 0.643, 35.703, 10.805)" fill="#034796"/>
        <path id="Caminho_37325" data-name="Caminho 37325" d="M1.323,14.076C-3.155,9.773,5.172,0,5.172,0L20.645,4.139C16.241,10.8,5.638,18.217,1.323,14.076Z" transform="translate(42.418 6.425)" fill="#3c97ff"/>
        <path id="Caminho_37326" data-name="Caminho 37326" d="M34.864,11.774s-2.7,15.665-9.306,15.927c-4.348.188-6.542-5.264-6.542-5.264a14.113,14.113,0,0,1-7.5-2.2S10.244,22.4,8.228,21.7s-4.31-5.238-3.486-12.7A6.619,6.619,0,0,1,0,5.8,3.543,3.543,0,0,1,2.269,4.365c1.369-.112,7.277,2.008,8.874.624A5.015,5.015,0,0,0,13.261,0s6.529.649,9.432,4.3S28.094,15.042,34.864,11.774Z" transform="translate(7.543 27.751)" fill="#3c97ff"/>
        <path id="Caminho_37327" data-name="Caminho 37327" d="M5.591.862S3.968,6.126.849,7.6A56.3,56.3,0,0,0,0,0,49.169,49.169,0,0,0,5.591.86Z" transform="translate(14.339 37.529)" fill="#fff"/>
        <path id="Caminho_37328" data-name="Caminho 37328" d="M6.719,10.1S2.7,8.194,0,0A58.315,58.315,0,0,0,9.1.8a21.26,21.26,0,0,0-2.383,9.3Z" transform="translate(27.333 39.077)" fill="#fff"/>
        <path id="Caminho_37329" data-name="Caminho 37329" d="M1.775,4.8C.8,4.8,0,3.73,0,2.395S.8,0,1.775,0,3.549,1.072,3.55,2.395,2.764,4.8,1.775,4.8" transform="translate(30.63 40.736)" fill="#034796"/>
        <path id="Caminho_37330" data-name="Caminho 37330" d="M1.395,0A1.646,1.646,0,0,0,0,1.821,1.646,1.646,0,0,0,1.395,3.642a1.286,1.286,0,0,0,.431-.1,4.794,4.794,0,0,0,.95-1.659.417.417,0,0,0,0-.125A1.6,1.6,0,0,0,1.395,0Z" transform="translate(15.999 39.152)" fill="#034796"/>
        <path id="Caminho_37331" data-name="Caminho 37331" d="M29.62,24.18c-.465.569,3.022,3.7,5.672,1.13,2.193-2.1-.187-7.2-.187-7.2s.346,3.107-1.074,2.895c0,0-1.192-6.505-12.4-14.075S7.231-.334,4.8.29-.768,2.627.17,4.522,8.087,11.85,8.087,11.85s1.785-2.007,6.692-.324a36.583,36.583,0,0,1,16,12.038s.543.728-1.118-.058Z" transform="translate(5.32 11.205)" fill="#ff9144"/>
        <path id="Caminho_37332" data-name="Caminho 37332" d="M28.808,16.085a19.236,19.236,0,0,1-17.559-4.652l1.268.674s-5.756.276-6.555-.511A13.394,13.394,0,0,1,0,1.618C-.161-.315,4.492-1.413,14.863,3.663,21.3,6.856,28.808,16.085,28.808,16.085Z" transform="translate(7.678 10.731)" fill="#e05406"/>
        <path id="Caminho_37333" data-name="Caminho 37333" d="M.241.125,0,0Z" transform="translate(23.644 25.407)" fill="#c56428"/>
        <path id="Caminho_37334" data-name="Caminho 37334" d="M0,5.039S1.395-.586,3.55.05c.723.212.431,1.807.723,2.906S5.4,6.149,5.4,6.149Z" transform="translate(13.058 17.425)" fill="#fff"/>
        <path id="Caminho_37335" data-name="Caminho 37335" d="M0,5.51S.444-.265,2.675.009C3.423.1,3.4,1.718,3.867,2.753S5.489,5.734,5.489,5.734Z" transform="translate(2.396 19.087)" fill="#fff"/>
        <path id="Caminho_37336" data-name="Caminho 37336" d="M.025,22.412c.279,4.067,5.73,5.849,9.736,2.994,3.271.711,6.9,2.856,10.142-.362a3.7,3.7,0,0,0,1-4.465s6.8,1.072,9.141,4.477,5.414,7.969,8.7,8.293c1.75.162,4.7.412,6.415-2.869s2.536-9.2-10.142-18.583S16.786-.012,14.021,0C10.51,0,10.294,1.247,6.25,1.846c-2.066.287-3.639,3.742-1.369,6.735s6.99,5.962,6.99,5.962S6.757,10.389,5.82,8.456,7.658,5.3,10.092,4.715s5.566-1.247,16.76,6.236S39.25,26,39.25,26c1.42.212,1.585-2.818,1.585-2.818s1.635,3.5-.558,5.6c-2.65,2.494-5.388-.586-5.388-.586h.165c1.661.786,1.889-.624,1.889-.624A40.925,40.925,0,0,0,20.031,14.967c-4.881-1.685-7.443.212-7.443.212a48.168,48.168,0,0,0-6.921.549C3.917,16.189-.368,16.912.025,22.412Z" transform="translate(0 7.248)" fill="#ffd54c"/>
        <path id="Caminho_37337" data-name="Caminho 37337" d="M1.559,3.369c-1.141.349-2.016-1.16-.521-1.807C1.256,1,.913.388,0,.176a1.814,1.814,0,0,1,2.4.829,1.759,1.759,0,0,1-.843,2.363" transform="translate(14.706 26.728)" fill="#eca93e"/>
        <path id="Caminho_37338" data-name="Caminho 37338" d="M.77,2.69c.938.3,1.661-.948.418-1.5C1.023.732,1.3.233,2.063.059-.346-.428-.473,2.254.8,2.69" transform="translate(2.641 27.868)" fill="#eca93e"/>
      </g>
    </g>
  </g>
</svg>
