<svg xmlns="http://www.w3.org/2000/svg" xmlns:xlink="http://www.w3.org/1999/xlink" width="126.315" height="46.313" viewBox="0 0 126.315 46.313">
  <defs>
    <clipPath id="clip-path">
      <rect id="Ret창ngulo_10952" data-name="Ret창ngulo 10952" width="59.683" height="26.823" fill="none"/>
    </clipPath>
  </defs>
  <g id="Grupo_32055" data-name="Grupo 32055" transform="translate(-772.307 -567.44)">
    <path id="Caminho_37494" data-name="Caminho 37494" d="M11.188-4.263A4.528,4.528,0,0,1,9.664-1.011,5.355,5.355,0,0,1,6.038.176,4.816,4.816,0,0,1,2.167-1.481,6.793,6.793,0,0,1,.756-6.029v-.782a7.671,7.671,0,0,1,.65-3.252,4.874,4.874,0,0,1,1.859-2.158,5.207,5.207,0,0,1,2.808-.751,5.217,5.217,0,0,1,3.568,1.187,4.866,4.866,0,0,1,1.564,3.331H8.569a2.673,2.673,0,0,0-.69-1.8,2.555,2.555,0,0,0-1.806-.558A2.24,2.24,0,0,0,4.1-9.866a5.3,5.3,0,0,0-.672,2.931v.967a5.667,5.667,0,0,0,.628,3.032,2.2,2.2,0,0,0,1.982.958,2.6,2.6,0,0,0,1.824-.558,2.521,2.521,0,0,0,.69-1.727Zm6.458-2.865a6.9,6.9,0,0,0-.914-.07,1.86,1.86,0,0,0-1.89.976V0H12.3V-9.51h2.4l.07,1.134a2.354,2.354,0,0,1,2.118-1.31,2.662,2.662,0,0,1,.791.114ZM21.1,0H18.55V-9.51H21.1ZM18.4-11.971a1.251,1.251,0,0,1,.382-.94,1.436,1.436,0,0,1,1.042-.369,1.44,1.44,0,0,1,1.037.369,1.244,1.244,0,0,1,.387.94,1.247,1.247,0,0,1-.391.949,1.443,1.443,0,0,1-1.033.369,1.443,1.443,0,0,1-1.033-.369A1.247,1.247,0,0,1,18.4-11.971ZM28.252,0A2.821,2.821,0,0,1,28-.853,3.073,3.073,0,0,1,25.6.176a3.376,3.376,0,0,1-2.316-.809,2.6,2.6,0,0,1-.918-2.039,2.687,2.687,0,0,1,1.121-2.32,5.529,5.529,0,0,1,3.239-.817h1.169v-.545a1.567,1.567,0,0,0-.338-1.055,1.331,1.331,0,0,0-1.068-.4,1.513,1.513,0,0,0-1.006.308,1.045,1.045,0,0,0-.365.844h-2.54a2.551,2.551,0,0,1,.51-1.529,3.37,3.37,0,0,1,1.441-1.1,5.253,5.253,0,0,1,2.092-.4,4.15,4.15,0,0,1,2.791.883A3.09,3.09,0,0,1,30.44-6.319V-2.2a4.546,4.546,0,0,0,.378,2.048V0Zm-2.1-1.767a2.188,2.188,0,0,0,1.037-.25,1.645,1.645,0,0,0,.7-.672V-4.324h-.949q-1.907,0-2.03,1.318l-.009.149a1.017,1.017,0,0,0,.334.782A1.3,1.3,0,0,0,26.151-1.767Zm5.395-3.059a5.731,5.731,0,0,1,1-3.542,3.237,3.237,0,0,1,2.729-1.318,2.913,2.913,0,0,1,2.294,1.037V-13.5h2.549V0H37.821L37.7-1.011A2.989,2.989,0,0,1,35.255.176a3.228,3.228,0,0,1-2.694-1.323A5.916,5.916,0,0,1,31.546-4.825Zm2.54.189a3.754,3.754,0,0,0,.466,2.051,1.517,1.517,0,0,0,1.354.713,1.7,1.7,0,0,0,1.661-.995V-6.625a1.675,1.675,0,0,0-1.644-.995Q34.086-7.62,34.086-4.636Zm7.153-.207a5.64,5.64,0,0,1,.545-2.522,3.989,3.989,0,0,1,1.569-1.714,4.577,4.577,0,0,1,2.377-.606,4.33,4.33,0,0,1,3.142,1.178,4.727,4.727,0,0,1,1.358,3.2l.018.65a4.97,4.97,0,0,1-1.222,3.511A4.247,4.247,0,0,1,45.747.176a4.268,4.268,0,0,1-3.283-1.318,5.058,5.058,0,0,1-1.226-3.586Zm2.54.18a3.555,3.555,0,0,0,.51,2.073,1.682,1.682,0,0,0,1.459.717,1.686,1.686,0,0,0,1.441-.709,3.89,3.89,0,0,0,.519-2.267,3.519,3.519,0,0,0-.519-2.06,1.686,1.686,0,0,0-1.459-.731,1.658,1.658,0,0,0-1.441.726A3.955,3.955,0,0,0,43.778-4.662ZM56.705-7.128a6.9,6.9,0,0,0-.914-.07,1.86,1.86,0,0,0-1.89.976V0h-2.54V-9.51h2.4l.07,1.134a2.354,2.354,0,0,1,2.118-1.31,2.662,2.662,0,0,1,.791.114Zm4.409,2.3a5.731,5.731,0,0,1,1-3.542A3.237,3.237,0,0,1,64.84-9.686a2.913,2.913,0,0,1,2.294,1.037V-13.5h2.549V0H67.389l-.123-1.011A2.989,2.989,0,0,1,64.823.176a3.228,3.228,0,0,1-2.694-1.323A5.916,5.916,0,0,1,61.114-4.825Zm2.54.189a3.754,3.754,0,0,0,.466,2.051,1.517,1.517,0,0,0,1.354.713,1.7,1.7,0,0,0,1.661-.995V-6.625a1.675,1.675,0,0,0-1.644-.995Q63.654-7.62,63.654-4.636ZM75.579.176a4.668,4.668,0,0,1-3.406-1.283,4.561,4.561,0,0,1-1.314-3.419v-.246a5.745,5.745,0,0,1,.554-2.562,4.064,4.064,0,0,1,1.569-1.74A4.4,4.4,0,0,1,75.3-9.686a3.947,3.947,0,0,1,3.072,1.23A5,5,0,0,1,79.49-4.966v1.037H73.434a2.36,2.36,0,0,0,.743,1.494,2.245,2.245,0,0,0,1.569.563A2.742,2.742,0,0,0,78.04-2.936l1.248,1.4A3.813,3.813,0,0,1,77.741-.277,5.075,5.075,0,0,1,75.579.176Zm-.29-7.813a1.587,1.587,0,0,0-1.226.512,2.651,2.651,0,0,0-.6,1.466h3.533v-.2a1.891,1.891,0,0,0-.457-1.311A1.638,1.638,0,0,0,75.289-7.638Zm16.028,4.28A1.353,1.353,0,0,0,90.789-4.5a6.917,6.917,0,0,0-1.9-.844,13.458,13.458,0,0,1-2.171-.875A3.547,3.547,0,0,1,84.54-9.4a3.09,3.09,0,0,1,.584-1.85,3.812,3.812,0,0,1,1.679-1.27,6.318,6.318,0,0,1,2.457-.457,5.751,5.751,0,0,1,2.443.5,3.891,3.891,0,0,1,1.666,1.4,3.668,3.668,0,0,1,.593,2.057H91.325a1.726,1.726,0,0,0-.554-1.367,2.276,2.276,0,0,0-1.556-.488,2.432,2.432,0,0,0-1.5.409,1.289,1.289,0,0,0-.536,1.077,1.235,1.235,0,0,0,.628,1.046,7.1,7.1,0,0,0,1.85.791,7.994,7.994,0,0,1,3.278,1.679,3.343,3.343,0,0,1,1.028,2.5A3.08,3.08,0,0,1,92.705-.769a5.5,5.5,0,0,1-3.384.945,6.534,6.534,0,0,1-2.689-.541,4.256,4.256,0,0,1-1.85-1.481,3.793,3.793,0,0,1-.637-2.18H86.79q0,2.118,2.531,2.118a2.462,2.462,0,0,0,1.468-.382A1.244,1.244,0,0,0,91.317-3.357ZM97.81,0H95.261V-9.51H97.81Zm-2.7-11.971a1.251,1.251,0,0,1,.382-.94,1.436,1.436,0,0,1,1.042-.369,1.44,1.44,0,0,1,1.037.369,1.244,1.244,0,0,1,.387.94,1.247,1.247,0,0,1-.391.949,1.443,1.443,0,0,1-1.033.369,1.443,1.443,0,0,1-1.033-.369A1.247,1.247,0,0,1,95.112-11.971Zm7.381.123V-9.51h1.626v1.863h-1.626V-2.9a1.133,1.133,0,0,0,.2.756,1.015,1.015,0,0,0,.773.229,4.051,4.051,0,0,0,.747-.062V-.053a5.229,5.229,0,0,1-1.538.229,2.425,2.425,0,0,1-2.725-2.7V-7.646H98.564V-9.51h1.389v-2.338ZM109.461.176a4.668,4.668,0,0,1-3.406-1.283,4.561,4.561,0,0,1-1.314-3.419v-.246a5.745,5.745,0,0,1,.554-2.562,4.064,4.064,0,0,1,1.569-1.74,4.4,4.4,0,0,1,2.316-.611,3.947,3.947,0,0,1,3.072,1.23,5,5,0,0,1,1.121,3.489v1.037h-6.056a2.36,2.36,0,0,0,.743,1.494,2.245,2.245,0,0,0,1.569.563,2.742,2.742,0,0,0,2.294-1.063l1.248,1.4a3.813,3.813,0,0,1-1.547,1.261A5.075,5.075,0,0,1,109.461.176Zm-.29-7.813a1.587,1.587,0,0,0-1.226.512,2.651,2.651,0,0,0-.6,1.466h3.533v-.2a1.891,1.891,0,0,0-.457-1.311A1.638,1.638,0,0,0,109.171-7.638Zm10.343,5.01a.818.818,0,0,0-.461-.734,5.241,5.241,0,0,0-1.481-.479q-3.393-.712-3.393-2.883a2.613,2.613,0,0,1,1.05-2.114,4.237,4.237,0,0,1,2.747-.848,4.56,4.56,0,0,1,2.9.853,2.687,2.687,0,0,1,1.085,2.215h-2.54a1.229,1.229,0,0,0-.352-.9,1.488,1.488,0,0,0-1.1-.356,1.52,1.52,0,0,0-.993.29.916.916,0,0,0-.352.738.783.783,0,0,0,.4.681,4.114,4.114,0,0,0,1.349.448,11.019,11.019,0,0,1,1.6.426,2.628,2.628,0,0,1,2.013,2.558,2.481,2.481,0,0,1-1.116,2.1,4.815,4.815,0,0,1-2.883.8,5.029,5.029,0,0,1-2.123-.426,3.561,3.561,0,0,1-1.455-1.169,2.716,2.716,0,0,1-.527-1.6h2.408a1.326,1.326,0,0,0,.5,1.037,1.987,1.987,0,0,0,1.248.36,1.839,1.839,0,0,0,1.1-.277A.861.861,0,0,0,119.514-2.628Z" transform="translate(774 613.578)" fill="#4480c5"/>
    <g id="Grupo_31627" data-name="Grupo 31627" transform="translate(802.307 567.44)">
      <g id="Grupo_31626" data-name="Grupo 31626" transform="translate(3.316 0)">
        <g id="Grupo_31625" data-name="Grupo 31625" transform="translate(0)" clip-path="url(#clip-path)">
          <g id="LightBlue_Snappy" data-name="LightBlue Snappy" transform="translate(0.853 0.751)">
            <path id="Caminho_37290" data-name="Caminho 37290" d="M28.764,136.1s-12.579,9.112-12.12,11.318,4.141,1.339,6.1,4.116c0,0-7.48,7.044-6.536,9.607s6.149.787,7.852,2.681c0,0-.52,5.467.975,7.208s1.061.111,3.12,2.32C28.156,173.35,24.263,153.825,28.764,136.1Z" transform="translate(-16.127 -122.002)" fill="#4580c2" fill-rule="evenodd"/>
            <g id="Head" transform="translate(8.214)">
              <path id="Caminho_37291" data-name="Caminho 37291" d="M95.045,56.991s.292-17.23,7.223-18.58c4.555-.887,7.752,4.605,7.752,4.605a14.811,14.811,0,0,1,8.282,1.147s.928-2.506,3.228-2.1,5.394,4.922,5.745,13.06a7.033,7.033,0,0,1,5.515,2.666,3.736,3.736,0,0,1-2.161,1.891c-1.426.344-8-.978-9.469.765a5.448,5.448,0,0,0-1.419,5.663s-6.951.382-10.643-3.068S101.651,52.4,95.045,56.991Z" transform="translate(-91.882 -38.314)" fill="#4580c2" fill-rule="evenodd"/>
              <path id="Caminho_37292" data-name="Caminho 37292" d="M260.806,103.9s.856-5.9,3.908-7.977a61.575,61.575,0,0,0,2.126,8.012A49.927,49.927,0,0,0,260.806,103.9Z" transform="translate(-233.746 -87.619)" fill="#f1f1f2"/>
              <path id="Caminho_37293" data-name="Caminho 37293" d="M139.015,86.793s4.548,1.384,8.682,9.753c0,0-6.839-.067-9.736.6C137.961,97.15,139.905,91.733,139.015,86.793Z" transform="translate(-128.611 -79.804)" fill="#f1f1f2"/>
              <path id="Caminho_37294" data-name="Caminho 37294" d="M152.564,111.888c1.033-.157,2.047.869,2.264,2.293s-.446,2.705-1.48,2.862-2.047-.869-2.263-2.293.446-2.705,1.479-2.862" transform="translate(-139.808 -101.267)" fill="#2e578c" fill-rule="evenodd"/>
              <path id="Caminho_37295" data-name="Caminho 37295" d="M267.919,119.579A1.784,1.784,0,0,0,269.1,117.4c-.164-1.078-.957-1.851-1.771-1.727a1.158,1.158,0,0,0-.436.172,5.294,5.294,0,0,0-.752,1.861c0,.048,0,.094.011.143C266.312,118.93,267.105,119.7,267.919,119.579Z" transform="translate(-238.309 -104.512)" fill="#2e578c" fill-rule="evenodd"/>
              <path id="Caminho_37296" data-name="Caminho 37296" d="M114.95,183.191s-3.394-2.9-5.778.233c-1.974,2.592.326,6.087.326,6.087s-.326-3.268,1.209-3.275c0,0,2.491,7.88,15.534,14.155s16.226,5.052,18.693,3.985,5.2-2.821,3.892-4.745-8.133-6.145-8.133-6.145-2.4,2.441-7.812,1.419-14.634-5.2-19.993-10.708c0,0,.009-1.545,1.89-.967" transform="translate(-103.288 -161.26)" fill="#f68b51" fill-rule="evenodd"/>
              <path id="Caminho_37297" data-name="Caminho 37297" d="M152.746,246.925a20.288,20.288,0,0,1,19.279,2.173l-1.433-.52s6.027-1.225,7-.511,6.192,2.688,7.907,9.717c.5,2.048-4.241,3.967-16,.188C162.171,255.616,152.746,246.925,152.746,246.925Z" transform="translate(-141.265 -215.569)" fill="#f26a23" fill-rule="evenodd"/>
              <g id="Grupo_31624" data-name="Grupo 31624" transform="translate(24.985 30.714)">
                <path id="Caminho_37298" data-name="Caminho 37298" d="M246.413,251.367c.087.029.177.058.273.086Z" transform="translate(-246.413 -251.367)" fill="#c56428" fill-rule="evenodd"/>
              </g>
              <path id="Caminho_37299" data-name="Caminho 37299" d="M294.295,260.235s-.554,6.258-2.927,5.936c-.8-.109-.746-1.87-1.24-2.995s-1.694-3.249-1.694-3.249Z" transform="translate(-257.391 -227.979)" fill="#ebeef2" fill-rule="evenodd"/>
              <path id="Caminho_37300" data-name="Caminho 37300" d="M370.115,234.367s.466,6.265-1.928,6.331c-.808.022-1.039-1.725-1.708-2.755s-2.2-2.932-2.2-2.932Z" transform="translate(-322.305 -206.103)" fill="#ebeef2" fill-rule="evenodd"/>
              <path id="Caminho_37301" data-name="Caminho 37301" d="M122.588,161.357c-.967-4.31-7.009-5.352-10.76-1.643-3.567-.242-7.751-1.959-10.677,2.017-2.069,2.812-.316,4.951-.316,4.951s-7.347-.067-10.382-3.342-6.981-7.674-10.551-7.484c-1.876.1-5.029.3-6.3,4.1s-1.2,10.288,13.675,18.313,21.181,9.839,24.084,9.394c3.712-.57,3.728-1.985,7.906-3.233,2.133-.637,3.222-4.6.345-7.435s-9.1-5.859-9.1-5.859,6.825,4.222,8.133,6.145-1.425,3.677-3.892,4.745-5.65,2.29-18.693-3.985-15.534-14.155-15.534-14.155c-1.535.008-1.209,3.275-1.209,3.275s-2.3-3.5-.326-6.087c2.384-3.131,5.778-.233,5.778-.233l-.172.039c-1.881-.578-1.89.967-1.89.967,5.359,5.506,14.578,9.686,19.993,10.708s7.812-1.419,7.812-1.419a50.4,50.4,0,0,0,7.216-1.7C119.5,168.656,123.9,167.2,122.588,161.357Z" transform="translate(-73.104 -138.905)" fill="#fbce3b" fill-rule="evenodd"/>
              <path id="Caminho_37302" data-name="Caminho 37302" d="M292.573,208.183c1.141-.569,2.311.908.836,1.857-.132.63.325,1.227,1.332,1.31-2.975,1.1-3.63-2.372-2.168-3.166" transform="translate(-260.292 -183.586)" fill="#eca93e" fill-rule="evenodd"/>
              <path id="Caminho_37303" data-name="Caminho 37303" d="M384.411,191.1c-1.039-.169-1.6,1.282-.2,1.667.258.463.045,1.047-.728,1.359,2.614.136,2.278-2.76.931-3.026" transform="translate(-338.645 -169.061)" fill="#eca93e" fill-rule="evenodd"/>
            </g>
          </g>
        </g>
      </g>
      <rect id="Ret창ngulo_10953" data-name="Ret창ngulo 10953" width="126.315" height="0.432" transform="translate(-30 26.734)" fill="#4580c2"/>
    </g>
  </g>
</svg>
