<svg width="40" height="40" viewBox="0 0 40 40" fill="none" xmlns="http://www.w3.org/2000/svg">
<g id="icone-split-fatura">
<path id="Vector" d="M12 24C18.6274 24 24 18.6274 24 12C24 5.37258 18.6274 0 12 0C5.37258 0 0 5.37258 0 12C0 18.6274 5.37258 24 12 24Z" fill="#FF9442"/>
<g id="finance_chip">
<mask id="mask0_327_1774" style="mask-type:alpha" maskUnits="userSpaceOnUse" x="0" y="0" width="40" height="40">
<rect id="Bounding box" width="40" height="40" fill="#D9D9D9"/>
</mask>
<g mask="url(#mask0_327_1774)">
<path id="finance_chip_2" d="M19.6634 26.5868H20.7115V25.2695C21.4893 25.1606 22.149 24.8477 22.6907 24.3306C23.2323 23.8135 23.5032 23.1467 23.5032 22.3302C23.5032 21.6226 23.2254 21.0307 22.6698 20.5545C22.1143 20.0782 21.4754 19.6873 20.7532 19.3817V16.1541C21.0523 16.2268 21.3055 16.363 21.5128 16.5628C21.72 16.7626 21.8707 16.996 21.9647 17.2631L23.3044 16.7022C23.0993 16.1616 22.7656 15.7246 22.3033 15.3912C21.841 15.0578 21.3242 14.8377 20.7532 14.7311V13.4137H19.6634V14.7054C18.8856 14.7864 18.2259 15.0629 17.6842 15.5351C17.1426 16.0073 16.8717 16.6346 16.8717 17.4171C16.8717 18.1456 17.1565 18.7579 17.7259 19.2537C18.2954 19.7497 18.9412 20.1491 19.6634 20.4522V23.8561C19.1763 23.7385 18.7719 23.5158 18.4503 23.1878C18.1287 22.8598 17.907 22.4736 17.7852 22.0292L16.4711 22.59C16.6933 23.3304 17.0822 23.9386 17.6378 24.4145C18.1933 24.8905 18.8686 25.184 19.6634 25.2952V26.5868ZM20.7532 23.8304V20.8721C21.1007 21.0306 21.4087 21.2209 21.6773 21.4429C21.9458 21.6649 22.0801 21.9778 22.0801 22.3817C22.0801 22.8432 21.9556 23.175 21.7067 23.3769C21.4578 23.5788 21.1399 23.73 20.7532 23.8304ZM19.6634 18.9202C19.3258 18.7599 19.0133 18.5692 18.7259 18.348C18.4385 18.1269 18.2948 17.8165 18.2948 17.417C18.2948 17.0004 18.4359 16.6954 18.7179 16.502C19 16.3085 19.3151 16.184 19.6634 16.1285V18.9202ZM13.3333 30.8336C10.3155 30.8336 7.75546 29.7828 5.65329 27.6812C3.5511 25.5796 2.5 23.0203 2.5 20.0034C2.5 16.9864 3.5511 14.4261 5.65329 12.3225C7.75546 10.2188 10.3155 9.16699 13.3333 9.16699H26.6666C29.6845 9.16699 32.2445 10.2178 34.3466 12.3194C36.4488 14.421 37.4999 16.9802 37.4999 19.9972C37.4999 23.0142 36.4488 25.5745 34.3466 27.6781C32.2445 29.7818 29.6845 30.8336 26.6666 30.8336H13.3333ZM13.3333 28.7396H26.6666C29.0845 28.7396 31.1455 27.8882 32.8497 26.1855C34.5539 24.4827 35.406 22.4235 35.406 20.0076C35.406 17.5918 34.5539 15.53 32.8497 13.8224C31.1455 12.1148 29.0845 11.261 26.6666 11.261H13.3333C10.9154 11.261 8.85438 12.1123 7.15021 13.8151C5.44604 15.5178 4.59396 17.5771 4.59396 19.993C4.59396 22.4088 5.44604 24.4706 7.15021 26.1782C8.85438 27.8858 10.9154 28.7396 13.3333 28.7396Z" fill="#1F2044"/>
</g>
</g>
</g>
</svg>
