<svg xmlns="http://www.w3.org/2000/svg" width="34.269" height="28" viewBox="0 0 34.269 28">
  <g id="icn_mail_titan_hg" transform="translate(-217.286 -9)">
    <path id="Caminho_247588" data-name="Caminho 247588" d="M0,0H11.867V14a4,4,0,0,1-4,4H0Z" transform="matrix(0.342, 0.94, -0.94, 0.342, 234.2, 13.192)" fill="#4eb0ff"/>
    <g id="Grupo_39993" data-name="Grupo 39993" transform="translate(221 18.06) rotate(-20)">
      <g id="Caminho_247480" data-name="Caminho 247480" fill="none">
        <path d="M2.071,0H24.419a2.071,2.071,0,0,1,2.071,2.071V14.485a2.071,2.071,0,0,1-2.071,2.071H2.071A2.071,2.071,0,0,1,0,14.485V2.071A2.071,2.071,0,0,1,2.071,0Z" stroke="none"/>
        <path d="M 2.070749282836914 1.999996185302734 C 2.031740188598633 1.999996185302734 2 2.031736373901367 2 2.070755958557129 L 2 14.48515605926514 C 2 14.5241756439209 2.031740188598633 14.55591583251953 2.070749282836914 14.55591583251953 L 24.41871070861816 14.55591583251953 C 24.45771980285645 14.55591583251953 24.48945999145508 14.5241756439209 24.48945999145508 14.48515605926514 L 24.48945999145508 2.070755958557129 C 24.48945999145508 2.031736373901367 24.45771980285645 1.999996185302734 24.41871070861816 1.999996185302734 L 2.070749282836914 1.999996185302734 M 2.070749282836914 -3.814697265625e-06 L 24.41871070861816 -3.814697265625e-06 C 25.56234931945801 -3.814697265625e-06 26.48945999145508 0.9271059036254883 26.48945999145508 2.070755958557129 L 26.48945999145508 14.48515605926514 C 26.48945999145508 15.62880611419678 25.56234931945801 16.55591583251953 24.41871070861816 16.55591583251953 L 2.070749282836914 16.55591583251953 C 0.9271106719970703 16.55591583251953 0 15.62880611419678 0 14.48515605926514 L 0 2.070755958557129 C 0 0.9271059036254883 0.9271106719970703 -3.814697265625e-06 2.070749282836914 -3.814697265625e-06 Z" stroke="none" fill="#4a4a4a"/>
      </g>
      <g id="Grupo_39179" data-name="Grupo 39179" transform="translate(0.917 1.091)">
        <path id="Caminho_247479" data-name="Caminho 247479" d="M-9388.752-12723.682l12.321,9.245,12.322-9.245" transform="translate(9388.752 12723.682)" fill="none" stroke="#4a4a4a" stroke-linejoin="round" stroke-width="2"/>
      </g>
    </g>
    <g id="Grupo_39994" data-name="Grupo 39994" transform="translate(225.79 10.161)">
      <path id="Path_85" data-name="Path 85" d="M257.377,540.8c0,5.832-2.368,8.159-8.323,8.212h-.182v-1.76c4.988,0,6.806-1.7,6.842-6.311V540.8Z" transform="translate(-231.663 -522.175)" fill="#4a4a4a"/>
      <path id="Path_85_Copy" data-name="Path 85 Copy" d="M254.049,540.8c.021,3.64-1.278,4.829-5.049,4.861h-.117l-.009-1.693h.2c2.626-.032,3.384-.7,3.42-2.991V540.8Z" transform="translate(-231.663 -522.175)" fill="#4a4a4a"/>
    </g>
  </g>
</svg>
