<svg width="41" height="40" viewBox="0 0 41 40" fill="none" xmlns="http://www.w3.org/2000/svg">
<g id="icon-email">
<path id="Rectangle" d="M25.5137 2.43555H1.51367V38.1407H25.5137V2.43555Z" fill="#FFCF00" stroke="#FFCF00" stroke-width="1.44727"/>
<path id="Caminho 239090" d="M10.6934 2.43164L24.7505 15.4139L39.0837 2.43164" fill="#FCFCFC"/>
<g id="Rectangle 2">
<path id="Caminho 239091" d="M9.07227 1.34863V21.3612H40.4437V1.34863H9.07227ZM35.2854 4.05378L24.7665 13.5801L14.4465 4.05378H35.2854ZM11.7774 18.6629V5.27436L24.7494 17.2487L37.7403 5.48352V18.6629H11.7774Z" fill="#1F2044"/>
</g>
<path id="Path 85" d="M40.4433 24.0669C40.4433 34.824 36.0753 39.1149 25.0919 39.2126H24.749V35.9675C33.9496 35.9675 37.3028 32.8304 37.3679 24.3275V24.0669H40.4433Z" fill="#1F2044"/>
<path id="Path 85 Copy" d="M34.4932 24.0669C34.4932 30.9566 31.9218 33.2041 24.9738 33.2623H24.7578V29.9127H25.1281C29.9727 29.8527 31.3698 28.6286 31.4367 24.3961V24.0669H34.4932Z" fill="#1F2044"/>
</g>
</svg>
