<svg width="49" height="48" viewBox="0 0 49 48" fill="none" xmlns="http://www.w3.org/2000/svg">
<g id="icons-steps">
<rect width="48" height="48" transform="translate(0.333008)" fill="white"/>
<path id="Vector" d="M3.75977 5.25049V44.5745H44.9026L3.75977 5.25049Z" fill="#2E93EE"/>
<path id="Vector_2" fill-rule="evenodd" clip-rule="evenodd" d="M24.3261 7.26743C25.0015 6.56859 25.583 6.34446 26.0476 6.34446C26.5121 6.34446 27.0936 6.56859 27.7691 7.26743C28.4488 7.97056 29.128 9.06436 29.7293 10.5351C30.7696 13.0794 31.4909 16.5409 31.6644 20.4563H20.4307C20.604 16.5409 21.3256 13.0794 22.3658 10.5351C22.9672 9.06436 23.6464 7.97056 24.3261 7.26743ZM17.5139 20.4563C17.6887 16.2253 18.4648 12.3758 19.6682 9.4322C19.9877 8.65067 20.3436 7.91768 20.736 7.25065C15.0949 9.24334 10.9103 14.3207 10.2087 20.4563H17.5139ZM10.1409 23.3706H17.4893C17.5992 27.895 18.3941 32.0262 19.6682 35.1424C19.9877 35.924 20.3436 36.657 20.736 37.324C14.8672 35.2509 10.5749 29.8391 10.1409 23.3706ZM20.4045 23.3706H31.6907C31.5809 27.5926 30.8354 31.3343 29.7293 34.0395C29.128 35.5103 28.4488 36.604 27.7691 37.3072C27.0936 38.006 26.5121 38.2302 26.0476 38.2302C25.583 38.2302 25.0015 38.006 24.3261 37.3072C23.6464 36.604 22.9672 35.5103 22.3658 34.0395C21.2597 31.3343 20.5142 27.5924 20.4045 23.3706ZM34.6058 23.3706C34.4959 27.895 33.701 32.0262 32.4269 35.1424C32.1074 35.924 31.7515 36.657 31.3591 37.324C37.228 35.2509 41.5202 29.8391 41.9543 23.3706H34.6058ZM41.8864 20.4563C41.1849 14.3207 37.0003 9.24334 31.3591 7.25065C31.7515 7.91766 32.1074 8.65067 32.4269 9.4322C33.6304 12.3758 34.4064 16.2253 34.5813 20.4563H41.8864ZM44.9047 22.2874C44.9047 32.7018 36.462 41.1445 26.0476 41.1445C15.6331 41.1445 7.19043 32.7018 7.19043 22.2874C7.19043 11.8728 15.6331 3.43018 26.0476 3.43018C36.462 3.43018 44.9047 11.8728 44.9047 22.2874Z" fill="#1F2044"/>
</g>
</svg>
