<?xml version="1.0" encoding="utf-8"?>
<!-- Generator: Adobe Illustrator 25.0.0, SVG Export Plug-In . SVG Version: 6.00 Build 0)  -->
<svg version="1.1" id="Warstwa_1" xmlns="http://www.w3.org/2000/svg" xmlns:xlink="http://www.w3.org/1999/xlink" x="0px" y="0px"
	 viewBox="0 0 134.8 40" style="enable-background:new 0 0 134.8 40;" xml:space="preserve">
<style type="text/css">
	.st0{fill:#393646;}
	.st1{fill:#15BE60;}
</style>
<g>
	<path class="st0" d="M16.9,14.7h-2.5c-0.5,0-0.9,0.4-0.9,0.9v16.3c0,0.5,0.4,0.9,0.9,0.9H17c0.5,0,0.9-0.4,0.9-0.9V15.6
		C17.9,15,17.4,14.6,16.9,14.7z"/>
	<path class="st0" d="M49.3,14.1c-5.2,0.1-9.3,4.3-9.3,9.5v0.3c0.1,5.3,4.5,9.5,9.8,9.3c5.3-0.1,9.5-4.5,9.3-9.8
		C58.9,18.2,54.6,14.1,49.3,14.1z M49.3,29.2c-3-0.1-5.3-2.6-5.2-5.6V23c0-2.9,2.4-5.2,5.2-5.2c2.9,0,5.2,2.4,5.2,5.2
		c0,0.2,0,0.3,0,0.5c0.2,2.9-2.1,5.5-5.1,5.6C49.4,29.2,49.4,29.2,49.3,29.2z"/>
	<path class="st0" d="M7.3,13.8H0.9c-0.5,0-0.9,0.4-0.9,0.8c0,0,0,0,0,0.1v2.5c0,0.5,0.4,0.9,0.9,0.9h3v15c0,1.5-1.2,2.7-2.6,2.7
		c0,0,0,0,0,0H0.9c-0.5,0-0.9,0.4-0.9,0.9v2.5C0,39.6,0.4,40,0.9,40H1c3.9,0,7-3.1,7.1-7V14.7C8.2,14.2,7.8,13.8,7.3,13.8
		C7.3,13.8,7.3,13.8,7.3,13.8z"/>
	<path class="st0" d="M37.9,14.7h-2.1c-0.4-0.1-0.9,0.1-1.2,0.4l-5,10.7l-4.7-10.7c-0.1-0.4-0.5-0.6-0.9-0.4h-2.7
		c-0.2,0-0.3,0-0.4,0.1c-0.3,0.1-0.4,0.5-0.2,0.8c0,0,0.1,0.1,0.1,0.1l8.1,17c0.1,0.3,0.4,0.5,0.7,0.4h0.3c0.3,0,0.6-0.2,0.7-0.4
		l8.1-17c0.1-0.1,0.2-0.3,0.1-0.4C38.7,14.8,38.4,14.5,37.9,14.7z"/>
	<path class="st0" d="M111.6,14.1c-2.2,0-4.3,0.3-6.4,1c-0.4,0.2-0.6,0.6-0.6,1l0.3,1.6v0.1c0.1,0.4,0.6,0.7,1,0.6c0,0,0,0,0,0
		c1.7-0.5,3.4-0.7,5.2-0.7c2.4,0,3,1.2,2.8,4c-1.2-0.3-2.4-0.5-3.6-0.6c-4.7,0-7.4,2.5-7.4,5.8v0.7c0.2,3.1,2.8,5.5,5.9,5.3
		c0,0,0,0,0,0c2.1,0,4.1-0.9,5.6-2.4l0.4,1.2c0,0.4,0.4,0.6,0.7,0.6h1.3c0.5,0,0.9-0.4,0.9-0.9v-9.3
		C117.9,17.6,117.5,14.1,111.6,14.1z M113.9,27.7c-1,1.3-2.5,2.2-4.1,2.2h-0.3c-1.5-0.1-2.6-1.3-2.5-2.8c0,0,0,0,0,0
		c0-1.9,1.5-3,3.7-3c1.1,0,2.2,0.3,3.3,0.7V27.7z"/>
	<path class="st0" d="M134.7,30.7l-0.9-1.9c0-0.1,0-0.1-0.1-0.1c-0.1-0.3-0.5-0.4-0.8-0.2c0,0-0.1,0.1-0.1,0.1
		c-0.9,0.5-1.8,0.7-2.8,0.7c-0.9,0-1.5-0.3-1.5-1.8v-8.9h4.7c0.5,0,0.9-0.4,0.9-0.9v-2.1c0-0.4-0.3-0.7-0.7-0.8c-0.1,0-0.1,0-0.2,0
		h-4.7V9.5c0-0.5-0.4-0.9-0.8-0.9c0,0,0,0-0.1,0h-2.7c-0.5,0-0.9,0.4-0.9,0.9v5h-1.9c-0.5,0-0.9,0.4-0.9,0.9v2.1
		c0,0.5,0.4,0.9,0.9,0.9h1.9v9.3c0,3.3,1,5.3,4.7,5.3c1.8-0.1,3.6-0.6,5.3-1.3h0.1C134.8,31.4,135,31,134.7,30.7z"/>
	<path class="st0" d="M91.7,14.1c-2,0.1-3.9,0.7-5.5,1.9V5.3c0-0.5-0.4-0.9-0.9-0.9h-2.7c-0.5,0-0.9,0.4-0.9,0.9v26.4
		c0,0.5,0.4,0.9,0.9,0.9h2.8c0.4,0,0.8-0.4,0.7-0.9V20.9c1-1.7,2.9-2.8,4.9-2.8c2.4,0,3.9,1.6,3.9,4.6v9.2c0,0.5,0.4,0.9,0.9,0.9
		h2.5c0.5,0,0.9-0.4,0.9-0.9v-9C99.3,17.8,96.9,14.1,91.7,14.1z"/>
	<path class="st0" d="M77.5,28l-1.2-1c-0.3-0.3-0.8-0.3-1.1,0.1c0,0-0.1,0.1-0.1,0.1c-1,1.3-2.6,2.1-4.3,2.1
		c-2.9-0.2-5.1-2.5-5.3-5.3c-0.3-2.8,1.7-5.4,4.5-5.7c1.7-0.2,3.4,0.5,4.5,1.7c0.3,0.3,0.7,0.7,1.2,0.1l1.5-1.3
		c0.4-0.2,0.5-0.7,0.2-1.1c0,0,0-0.1-0.1-0.1c-1.6-2.1-4.1-3.3-6.7-3.3c-5.3,0-9.5,4.2-9.6,9.5c0,5.2,4.2,9.4,9.4,9.3
		c0.1,0,0.2,0,0.2,0c2.9,0.1,5.6-1.4,7.1-3.9V29C78.1,28.7,77.9,28.3,77.5,28z"/>
	<path class="st1" d="M0.3,0c-0.4,9.8,7.4,11.1,7.4,11.1C7.3,0.4,0.3,0,0.3,0z"/>
</g>
</svg>
