<svg width="41" height="40" viewBox="0 0 41 40" fill="none" xmlns="http://www.w3.org/2000/svg">
<g id="lock">
<mask id="mask0_9266_3912" style="mask-type:alpha" maskUnits="userSpaceOnUse" x="0" y="0" width="41" height="40">
<rect id="Bounding box" x="0.666016" width="40" height="40" fill="#D9D9D9"/>
</mask>
<g mask="url(#mask0_9266_3912)">
<path id="lock_2" d="M10.7728 35.8333C10.0588 35.8333 9.44585 35.5774 8.93393 35.0654C8.42199 34.5535 8.16602 33.9405 8.16602 33.2265V16.8975C8.16602 16.178 8.42199 15.5636 8.93393 15.0545C9.44585 14.5453 10.0588 14.2907 10.7728 14.2907H13.369V10.6305C13.369 8.60543 14.0793 6.88301 15.4998 5.46321C16.9203 4.0434 18.6436 3.3335 20.6696 3.3335C22.6957 3.3335 24.4177 4.0434 25.8358 5.46321C27.2539 6.88301 27.9629 8.60543 27.9629 10.6305V14.2907H30.5591C31.2731 14.2907 31.8861 14.5453 32.398 15.0545C32.91 15.5636 33.1659 16.178 33.1659 16.8975V33.2265C33.1659 33.9405 32.91 34.5535 32.398 35.0654C31.8861 35.5774 31.2731 35.8333 30.5591 35.8333H10.7728ZM10.7728 33.7394H30.5591C30.7087 33.7394 30.8316 33.6913 30.9277 33.5951C31.0239 33.499 31.072 33.3761 31.072 33.2265V16.8975C31.072 16.7479 31.0239 16.6251 30.9277 16.5289C30.8316 16.4327 30.7087 16.3847 30.5591 16.3847H10.7728C10.6233 16.3847 10.5004 16.4327 10.4042 16.5289C10.3081 16.6251 10.26 16.7479 10.26 16.8975V33.2265C10.26 33.3761 10.3081 33.499 10.4042 33.5951C10.5004 33.6913 10.6233 33.7394 10.7728 33.7394ZM20.6706 27.9167C21.4588 27.9167 22.1309 27.6413 22.6868 27.0905C23.2427 26.5397 23.5206 25.875 23.5206 25.0962C23.5206 24.3348 23.2411 23.663 22.6821 23.0807C22.1231 22.4985 21.4495 22.2073 20.6613 22.2073C19.8731 22.2073 19.2011 22.4985 18.6452 23.0807C18.0893 23.663 17.8113 24.3394 17.8113 25.1101C17.8113 25.8807 18.0908 26.5411 18.6498 27.0914C19.2088 27.6416 19.8824 27.9167 20.6706 27.9167ZM15.463 14.2907H25.869V10.6305C25.869 9.18518 25.3635 7.95669 24.3526 6.945C23.3416 5.9333 22.1141 5.42745 20.6699 5.42745C19.2257 5.42745 17.9968 5.9333 16.9833 6.945C15.9697 7.95669 15.463 9.18518 15.463 10.6305V14.2907Z" fill="#A6B6CC"/>
</g>
</g>
</svg>
