<svg id="logo-titan" xmlns="http://www.w3.org/2000/svg" width="24" height="24" viewBox="0 0 24 24">
  <rect id="boundary" width="24" height="24" fill="none"/>
  <path id="logo" d="M17.135,1.1a.428.428,0,0,0-.6-.382L8.393,4.261a.418.418,0,0,0-.254.382v10.4a.428.428,0,0,0,.62.374L13.9,12.911a.417.417,0,0,0,.237-.374V6.929l2.783-1.551a.417.417,0,0,0,.215-.343V1.1Zm-.857.644V4.773L13.5,6.324a.417.417,0,0,0-.215.343V12.28L9,14.369V4.914ZM.857,0A.839.839,0,0,0,.013,1,.412.412,0,0,0,0,1.1V5.035a.417.417,0,0,0,.215.343L3,6.929v5.608a.417.417,0,0,0,.237.374l5.141,2.508A.428.428,0,0,0,9,15.045V4.908L16.625,1.6A.833.833,0,0,0,16.3,0H.857Zm0,1.75,2.93,1.271L8.139,4.914v9.454l-4.284-2.09V6.667a.417.417,0,0,0-.215-.343L.856,4.772ZM.868.836H16.277L8.567,4.179,4.143,2.261Zm-.7,0H0V1.17H.171Zm16.964,0h-.171V1.17h.171Z" transform="translate(3.501 4.5)" fill="#959ea3" stroke="#959ea3" stroke-width="0.3"/>
</svg>
