<svg xmlns="http://www.w3.org/2000/svg" width="24.034" height="24" viewBox="0 0 24.034 24">
  <g id="logo-cpanel" transform="translate(-581.996 -632)">
    <rect id="boundary" width="24" height="24" transform="translate(582 632)" fill="#fff" opacity="0"/>
    <g id="logo" transform="translate(582 635.75)">
      <g id="g3003" transform="translate(0 3.969)">
        <path id="path3005" d="M5.369,0H9.925L9.219,2.7a1.707,1.707,0,0,1-.6.907,1.633,1.633,0,0,1-1.028.343H5.47a2.05,2.05,0,0,0-1.28.423,2.214,2.214,0,0,0-.776,1.149,2.143,2.143,0,0,0-.03,1.028,2.217,2.217,0,0,0,.393.857A2.031,2.031,0,0,0,4.5,8a2.129,2.129,0,0,0,.968.222H6.76a.727.727,0,0,1,.595.292.7.7,0,0,1,.131.655L6.68,12.155H5.269A5.7,5.7,0,0,1,2.6,11.52,6.026,6.026,0,0,1,.572,9.837a5.931,5.931,0,0,1-1.1-2.389A5.879,5.879,0,0,1-.456,4.7l.081-.3A5.959,5.959,0,0,1,1.751,1.22a6.042,6.042,0,0,1,1.683-.9A5.852,5.852,0,0,1,5.369,0" transform="translate(0.657 0)" fill="#959ea3" stroke="#707070" stroke-width="0.007"/>
      </g>
      <path id="path3202" d="M1.209,15.153c.138-.5,1.016-3.788,1.951-7.306S4.927,1.282,5.007,1.076A1.839,1.839,0,0,1,5.572.4C5.955.129,6.179.1,8.108.055c3.667-.083,5.038.266,6.55,1.666a5.657,5.657,0,0,1,1.7,5.66A6.021,6.021,0,0,1,11.743,12a19.137,19.137,0,0,1-2.708.153H7.04l.388-1.426c.577-2.123.739-2.271,2.621-2.4,1.3-.086,1.882-.375,2.314-1.144a2.152,2.152,0,0,0-.778-2.948c-.422-.285-.584-.307-1.946-.273l-1.486.038L6.664,9.53c-.82,3.037-1.565,5.658-1.657,5.823-.311.56-.833.708-2.5.708H.959l.25-.909h0Z" transform="translate(7.455 -0.044)" fill="#959ea3" stroke="#707070" stroke-width="0.011"/>
    </g>
  </g>
</svg>
