<svg xmlns="http://www.w3.org/2000/svg" xmlns:xlink="http://www.w3.org/1999/xlink" width="53.772" height="121" viewBox="0 0 53.772 121">
  <defs>
    <clipPath id="clip-path">
      <rect id="Ret칙ngulo_15832" data-name="Ret칙ngulo 15832" width="40.767" height="66.767" transform="translate(34 8)" fill="#ffd54c" stroke="#707070" stroke-width="1"/>
    </clipPath>
  </defs>
  <g id="Grupo_39851" data-name="Grupo 39851" transform="translate(53.772 -18.931) rotate(90)">
    <g id="Grupo_39633" data-name="Grupo 39633">
      <ellipse id="Elipse_1062" data-name="Elipse 1062" cx="1.372" cy="1.372" rx="1.372" ry="1.372" transform="translate(27.437 41.156)" fill="#ccd6e3"/>
      <ellipse id="Elipse_1062-2" data-name="Elipse 1062" cx="1.372" cy="1.372" rx="1.372" ry="1.372" transform="translate(41.156 41.156)" fill="#ccd6e3"/>
      <ellipse id="Elipse_1062-3" data-name="Elipse 1062" cx="1.372" cy="1.372" rx="1.372" ry="1.372" transform="translate(54.875 41.156)" fill="#ccd6e3"/>
      <ellipse id="Elipse_1062-4" data-name="Elipse 1062" cx="1.372" cy="1.372" rx="1.372" ry="1.372" transform="translate(68.593 41.156)" fill="#ccd6e3"/>
      <ellipse id="Elipse_1062-5" data-name="Elipse 1062" cx="1.372" cy="1.372" rx="1.372" ry="1.372" transform="translate(82.312 41.156)" fill="#ccd6e3"/>
      <ellipse id="Elipse_1062-6" data-name="Elipse 1062" cx="1.372" cy="1.372" rx="1.372" ry="1.372" transform="translate(96.031 41.156)" fill="#ccd6e3"/>
      <ellipse id="Elipse_1062-7" data-name="Elipse 1062" cx="1.372" cy="1.372" rx="1.372" ry="1.372" transform="translate(109.75 41.156)" fill="#ccd6e3"/>
      <ellipse id="Elipse_1062-8" data-name="Elipse 1062" cx="1.372" cy="1.372" rx="1.372" ry="1.372" transform="translate(123.468 41.156)" fill="#ccd6e3"/>
      <ellipse id="Elipse_1062-9" data-name="Elipse 1062" cx="1.372" cy="1.372" rx="1.372" ry="1.372" transform="translate(137.187 41.156)" fill="#ccd6e3"/>
      <ellipse id="Elipse_1062-10" data-name="Elipse 1062" cx="1.372" cy="1.372" rx="1.372" ry="1.372" transform="translate(27.437 27.437)" fill="#ccd6e3"/>
      <ellipse id="Elipse_1062-11" data-name="Elipse 1062" cx="1.372" cy="1.372" rx="1.372" ry="1.372" transform="translate(41.156 27.437)" fill="#ccd6e3"/>
      <ellipse id="Elipse_1062-12" data-name="Elipse 1062" cx="1.372" cy="1.372" rx="1.372" ry="1.372" transform="translate(54.875 27.437)" fill="#ccd6e3"/>
      <ellipse id="Elipse_1062-13" data-name="Elipse 1062" cx="1.372" cy="1.372" rx="1.372" ry="1.372" transform="translate(68.593 27.437)" fill="#ccd6e3"/>
      <ellipse id="Elipse_1062-14" data-name="Elipse 1062" cx="1.372" cy="1.372" rx="1.372" ry="1.372" transform="translate(82.312 27.437)" fill="#ccd6e3"/>
      <ellipse id="Elipse_1062-15" data-name="Elipse 1062" cx="1.372" cy="1.372" rx="1.372" ry="1.372" transform="translate(96.031 27.437)" fill="#ccd6e3"/>
      <ellipse id="Elipse_1062-16" data-name="Elipse 1062" cx="1.372" cy="1.372" rx="1.372" ry="1.372" transform="translate(109.75 27.437)" fill="#ccd6e3"/>
      <ellipse id="Elipse_1062-17" data-name="Elipse 1062" cx="1.372" cy="1.372" rx="1.372" ry="1.372" transform="translate(123.468 27.437)" fill="#ccd6e3"/>
      <ellipse id="Elipse_1062-18" data-name="Elipse 1062" cx="1.372" cy="1.372" rx="1.372" ry="1.372" transform="translate(137.187 27.437)" fill="#ccd6e3"/>
      <ellipse id="Elipse_1062-19" data-name="Elipse 1062" cx="1.372" cy="1.372" rx="1.372" ry="1.372" transform="translate(27.437 13.719)" fill="#ccd6e3"/>
      <ellipse id="Elipse_1062-20" data-name="Elipse 1062" cx="1.372" cy="1.372" rx="1.372" ry="1.372" transform="translate(41.156 13.719)" fill="#ccd6e3"/>
      <ellipse id="Elipse_1062-21" data-name="Elipse 1062" cx="1.372" cy="1.372" rx="1.372" ry="1.372" transform="translate(54.875 13.719)" fill="#ccd6e3"/>
      <ellipse id="Elipse_1062-22" data-name="Elipse 1062" cx="1.372" cy="1.372" rx="1.372" ry="1.372" transform="translate(68.593 13.719)" fill="#ccd6e3"/>
      <ellipse id="Elipse_1062-23" data-name="Elipse 1062" cx="1.372" cy="1.372" rx="1.372" ry="1.372" transform="translate(82.312 13.719)" fill="#ccd6e3"/>
      <ellipse id="Elipse_1062-24" data-name="Elipse 1062" cx="1.372" cy="1.372" rx="1.372" ry="1.372" transform="translate(96.031 13.719)" fill="#ccd6e3"/>
      <ellipse id="Elipse_1062-25" data-name="Elipse 1062" cx="1.372" cy="1.372" rx="1.372" ry="1.372" transform="translate(109.75 13.719)" fill="#ccd6e3"/>
      <ellipse id="Elipse_1062-26" data-name="Elipse 1062" cx="1.372" cy="1.372" rx="1.372" ry="1.372" transform="translate(123.468 13.719)" fill="#ccd6e3"/>
      <ellipse id="Elipse_1062-27" data-name="Elipse 1062" cx="1.372" cy="1.372" rx="1.372" ry="1.372" transform="translate(137.187 13.719)" fill="#ccd6e3"/>
      <ellipse id="Elipse_1062-28" data-name="Elipse 1062" cx="1.372" cy="1.372" rx="1.372" ry="1.372" transform="translate(27.437)" fill="#ccd6e3"/>
      <ellipse id="Elipse_1062-29" data-name="Elipse 1062" cx="1.372" cy="1.372" rx="1.372" ry="1.372" transform="translate(41.156)" fill="#ccd6e3"/>
      <ellipse id="Elipse_1062-30" data-name="Elipse 1062" cx="1.372" cy="1.372" rx="1.372" ry="1.372" transform="translate(54.875)" fill="#ccd6e3"/>
      <ellipse id="Elipse_1062-31" data-name="Elipse 1062" cx="1.372" cy="1.372" rx="1.372" ry="1.372" transform="translate(68.593)" fill="#ccd6e3"/>
      <ellipse id="Elipse_1062-32" data-name="Elipse 1062" cx="1.372" cy="1.372" rx="1.372" ry="1.372" transform="translate(82.312)" fill="#ccd6e3"/>
      <ellipse id="Elipse_1062-33" data-name="Elipse 1062" cx="1.372" cy="1.372" rx="1.372" ry="1.372" transform="translate(96.031)" fill="#ccd6e3"/>
      <ellipse id="Elipse_1062-34" data-name="Elipse 1062" cx="1.372" cy="1.372" rx="1.372" ry="1.372" transform="translate(109.75)" fill="#ccd6e3"/>
      <ellipse id="Elipse_1062-35" data-name="Elipse 1062" cx="1.372" cy="1.372" rx="1.372" ry="1.372" transform="translate(123.468)" fill="#ccd6e3"/>
      <ellipse id="Elipse_1062-36" data-name="Elipse 1062" cx="1.372" cy="1.372" rx="1.372" ry="1.372" transform="translate(137.187)" fill="#ccd6e3"/>
    </g>
    <g id="Grupo_de_m치scara_188" data-name="Grupo de m치scara 188" transform="translate(10.931 87.772) rotate(-90)" clip-path="url(#clip-path)">
      <ellipse id="Elipse_1182" data-name="Elipse 1182" cx="71.68" cy="71.68" rx="71.68" ry="71.68" transform="translate(-71.337 -72.023)" fill="#ffd54c"/>
    </g>
  </g>
</svg>
