<svg width="650" height="24" viewBox="0 0 650 24" fill="none" xmlns="http://www.w3.org/2000/svg">
<path d="M0 0H650V24H0V0Z" fill="#F16A5E"/>
<path d="M7.4145 11.9635C8.024 11.9635 8.4725 12.4465 8.4725 12.9985C8.4725 13.585 8.024 14.0335 7.4145 14.0335C6.805 14.0335 6.368 13.585 6.368 12.9985C6.368 12.4465 6.805 11.9635 7.4145 11.9635Z" fill="white"/>
<path d="M19.5299 8.295V16H17.9659L14.0674 11.538V16H12.1699V8.295H13.7454L17.6439 12.895V8.295H19.5299Z" fill="white"/>
<path d="M23.8301 7.03C23.6116 7.03 23.5081 7.1795 23.4736 7.4095H22.3581C22.3581 6.156 23.0366 5.6615 23.6806 5.6615C24.4166 5.6615 24.6006 6.087 25.0721 6.087C25.2906 6.087 25.3941 5.926 25.4286 5.673H26.5441C26.5441 6.9495 25.8771 7.444 25.2101 7.444C24.4626 7.444 24.3131 7.03 23.8301 7.03ZM28.5451 16H26.5211L25.9806 14.597H22.7376L22.1971 16H20.1616L23.3816 8.295H25.3251L28.5451 16ZM25.3481 12.964L24.3591 10.434L23.3816 12.964H25.3481Z" fill="white"/>
<path d="M32.7443 8.1225C35.0443 8.1225 36.8498 9.905 36.8498 12.159C36.8498 14.4015 35.0443 16.1725 32.7443 16.1725C30.4443 16.1725 28.6388 14.4015 28.6388 12.159C28.6388 9.905 30.4443 8.1225 32.7443 8.1225ZM32.7443 14.436C33.9978 14.436 34.9523 13.47 34.9523 12.159C34.9523 10.8365 33.9978 9.859 32.7443 9.859C31.4908 9.859 30.5363 10.8365 30.5363 12.159C30.5363 13.47 31.4908 14.436 32.7443 14.436Z" fill="white"/>
<path d="M40.5942 8.295H43.6417C46.1832 8.295 47.8622 9.859 47.8622 12.1475C47.8622 14.436 46.1832 16 43.6417 16H40.5942V8.295ZM42.4917 14.3555H43.5727C45.0102 14.3555 45.9532 13.4815 45.9532 12.1475C45.9532 10.8135 45.0102 9.9395 43.5727 9.9395H42.4917V14.3555Z" fill="white"/>
<path d="M54.9303 14.367V16H48.9272V8.295H54.8958V9.928H50.8248V11.377H54.5623V12.918H50.8248V14.367H54.9303Z" fill="white"/>
<path d="M59.1393 8.1225C60.8183 8.1225 62.0372 8.9505 62.3247 10.3535L60.4618 10.733C60.3237 10.0085 59.7257 9.652 59.1162 9.652C58.4837 9.652 58.0812 9.997 58.0812 10.434C58.0812 10.7445 58.2192 10.9745 58.7023 11.078L60.3008 11.4345C61.6348 11.7335 62.4168 12.458 62.4168 13.677C62.4168 15.3215 60.9563 16.1725 59.2428 16.1725C57.5063 16.1725 56.0802 15.3445 55.8732 13.838L57.8283 13.4585C58.0238 14.252 58.5758 14.597 59.3463 14.597C60.0593 14.597 60.4847 14.275 60.4847 13.8035C60.4847 13.4585 60.3238 13.24 59.7718 13.125L58.1618 12.78C57.0578 12.527 56.0918 11.952 56.0918 10.549C56.0918 9.054 57.3338 8.1225 59.1393 8.1225Z" fill="white"/>
<path d="M66.4588 9.951V14.344H67.9193V16H63.1123V14.344H64.5728V9.951H63.1123V8.295H67.9193V9.951H66.4588Z" fill="white"/>
<path d="M71.8409 8.1225C73.5199 8.1225 74.7389 8.9505 75.0264 10.3535L73.1634 10.733C73.0254 10.0085 72.4274 9.652 71.8179 9.652C71.1854 9.652 70.7829 9.997 70.7829 10.434C70.7829 10.7445 70.9209 10.9745 71.4039 11.078L73.0024 11.4345C74.3364 11.7335 75.1184 12.458 75.1184 13.677C75.1184 15.3215 73.6579 16.1725 71.9444 16.1725C70.2079 16.1725 68.7819 15.3445 68.5749 13.838L70.5299 13.4585C70.7254 14.252 71.2774 14.597 72.0479 14.597C72.7609 14.597 73.1864 14.275 73.1864 13.8035C73.1864 13.4585 73.0254 13.24 72.4734 13.125L70.8634 12.78C69.7594 12.527 68.7934 11.952 68.7934 10.549C68.7934 9.054 70.0354 8.1225 71.8409 8.1225Z" fill="white"/>
<path d="M82.5113 9.951H80.0158V16H78.1298V9.951H75.6343V8.295H82.5113V9.951Z" fill="white"/>
<path d="M90.3127 16H88.2887L87.7482 14.597H84.5052L83.9647 16H81.9292L85.1492 8.295H87.0927L90.3127 16ZM87.1157 12.964L86.1267 10.434L85.1492 12.964H87.1157Z" fill="white"/>
<path d="M93.647 8.295H96.6945C99.236 8.295 100.915 9.859 100.915 12.1475C100.915 14.436 99.236 16 96.6945 16H93.647V8.295ZM95.5445 14.3555H96.6255C98.063 14.3555 99.006 13.4815 99.006 12.1475C99.006 10.8135 98.063 9.9395 96.6255 9.9395H95.5445V14.3555Z" fill="white"/>
<path d="M105.821 8.1225C108.121 8.1225 109.926 9.905 109.926 12.159C109.926 14.4015 108.121 16.1725 105.821 16.1725C103.521 16.1725 101.715 14.4015 101.715 12.159C101.715 9.905 103.521 8.1225 105.821 8.1225ZM105.821 14.436C107.074 14.436 108.029 13.47 108.029 12.159C108.029 10.8365 107.074 9.859 105.821 9.859C104.567 9.859 103.613 10.8365 103.613 12.159C103.613 13.47 104.567 14.436 105.821 14.436Z" fill="white"/>
<path d="M114.023 8.1225C115.702 8.1225 116.921 8.9505 117.208 10.3535L115.345 10.733C115.207 10.0085 114.609 9.652 114 9.652C113.367 9.652 112.965 9.997 112.965 10.434C112.965 10.7445 113.103 10.9745 113.586 11.078L115.184 11.4345C116.518 11.7335 117.3 12.458 117.3 13.677C117.3 15.3215 115.84 16.1725 114.126 16.1725C112.39 16.1725 110.964 15.3445 110.757 13.838L112.712 13.4585C112.907 14.252 113.459 14.597 114.23 14.597C114.943 14.597 115.368 14.275 115.368 13.8035C115.368 13.4585 115.207 13.24 114.655 13.125L113.045 12.78C111.941 12.527 110.975 11.952 110.975 10.549C110.975 9.054 112.217 8.1225 114.023 8.1225Z" fill="white"/>
<path d="M124.13 8.1225C125.809 8.1225 127.028 8.9505 127.315 10.3535L125.452 10.733C125.314 10.0085 124.716 9.652 124.107 9.652C123.474 9.652 123.072 9.997 123.072 10.434C123.072 10.7445 123.21 10.9745 123.693 11.078L125.291 11.4345C126.625 11.7335 127.407 12.458 127.407 13.677C127.407 15.3215 125.947 16.1725 124.233 16.1725C122.497 16.1725 121.071 15.3445 120.864 13.838L122.819 13.4585C123.014 14.252 123.566 14.597 124.337 14.597C125.05 14.597 125.475 14.275 125.475 13.8035C125.475 13.4585 125.314 13.24 124.762 13.125L123.152 12.78C122.048 12.527 121.082 11.952 121.082 10.549C121.082 9.054 122.324 8.1225 124.13 8.1225Z" fill="white"/>
<path d="M134.543 14.367V16H128.54V8.295H134.509V9.928H130.438V11.377H134.175V12.918H130.438V14.367H134.543Z" fill="white"/>
<path d="M142.616 8.295V12.527C142.616 14.735 141.248 16.1725 139.201 16.1725C137.108 16.1725 135.705 14.735 135.705 12.527V8.295H137.602V12.527C137.602 13.7 138.235 14.4245 139.201 14.4245C140.109 14.4245 140.719 13.7 140.719 12.527V8.295H142.616Z" fill="white"/>
<path d="M146.95 8.1225C148.629 8.1225 149.848 8.9505 150.136 10.3535L148.273 10.733C148.135 10.0085 147.537 9.652 146.927 9.652C146.295 9.652 145.892 9.997 145.892 10.434C145.892 10.7445 146.03 10.9745 146.513 11.078L148.112 11.4345C149.446 11.7335 150.228 12.458 150.228 13.677C150.228 15.3215 148.767 16.1725 147.054 16.1725C145.317 16.1725 143.891 15.3445 143.684 13.838L145.639 13.4585C145.835 14.252 146.387 14.597 147.157 14.597C147.87 14.597 148.296 14.275 148.296 13.8035C148.296 13.4585 148.135 13.24 147.583 13.125L145.973 12.78C144.869 12.527 143.903 11.952 143.903 10.549C143.903 9.054 145.145 8.1225 146.95 8.1225Z" fill="white"/>
<path d="M154.033 8.295H157.828C159.565 8.295 160.657 9.3645 160.657 10.9515C160.657 12.573 159.53 13.6425 157.748 13.6425H155.931V16H154.033V8.295ZM155.931 12.0555H157.61C158.346 12.0555 158.794 11.63 158.794 10.9745C158.794 10.3535 158.346 9.9165 157.61 9.9165H155.931V12.0555Z" fill="white"/>
<path d="M168.731 16H166.442L164.119 13.355H163.567V16H161.67V8.295H165.568C167.236 8.295 168.34 9.307 168.34 10.8135C168.34 12.0785 167.558 12.987 166.316 13.263L168.731 16ZM163.567 11.768H165.361C166.04 11.768 166.477 11.4 166.477 10.8365C166.477 10.2845 166.04 9.9165 165.361 9.9165H163.567V11.768Z" fill="white"/>
<path d="M173.204 8.1225C175.504 8.1225 177.309 9.905 177.309 12.159C177.309 14.4015 175.504 16.1725 173.204 16.1725C170.904 16.1725 169.098 14.4015 169.098 12.159C169.098 9.905 170.904 8.1225 173.204 8.1225ZM173.204 14.436C174.457 14.436 175.412 13.47 175.412 12.159C175.412 10.8365 174.457 9.859 173.204 9.859C171.95 9.859 170.996 10.8365 170.996 12.159C170.996 13.47 171.95 14.436 173.204 14.436Z" fill="white"/>
<path d="M184.062 8.295V13.2285C184.062 14.9535 182.82 16.1725 180.957 16.1725C179.209 16.1725 178.105 15.126 177.875 13.585L179.715 13.217C179.795 13.999 180.221 14.482 180.957 14.482C181.681 14.482 182.164 13.9645 182.164 13.2285V9.951H179.784V8.295H184.062Z" fill="white"/>
<path d="M191.38 14.367V16H185.377V8.295H191.346V9.928H187.275V11.377H191.012V12.918H187.275V14.367H191.38Z" fill="white"/>
<path d="M199.005 9.951H196.509V16H194.623V9.951H192.128V8.295H199.005V9.951Z" fill="white"/>
<path d="M203.425 8.1225C205.725 8.1225 207.53 9.905 207.53 12.159C207.53 14.4015 205.725 16.1725 203.425 16.1725C201.125 16.1725 199.319 14.4015 199.319 12.159C199.319 9.905 201.125 8.1225 203.425 8.1225ZM203.425 14.436C204.678 14.436 205.633 13.47 205.633 12.159C205.633 10.8365 204.678 9.859 203.425 9.859C202.171 9.859 201.217 10.8365 201.217 12.159C201.217 13.47 202.171 14.436 203.425 14.436Z" fill="white"/>
<path d="M211.627 8.1225C213.306 8.1225 214.525 8.9505 214.812 10.3535L212.949 10.733C212.811 10.0085 212.213 9.652 211.604 9.652C210.971 9.652 210.569 9.997 210.569 10.434C210.569 10.7445 210.707 10.9745 211.19 11.078L212.788 11.4345C214.122 11.7335 214.904 12.458 214.904 13.677C214.904 15.3215 213.444 16.1725 211.73 16.1725C209.994 16.1725 208.568 15.3445 208.361 13.838L210.316 13.4585C210.511 14.252 211.063 14.597 211.834 14.597C212.547 14.597 212.972 14.275 212.972 13.8035C212.972 13.4585 212.811 13.24 212.259 13.125L210.649 12.78C209.545 12.527 208.579 11.952 208.579 10.549C208.579 9.054 209.821 8.1225 211.627 8.1225Z" fill="white"/>
<path d="M219.457 11.9635C220.066 11.9635 220.515 12.4465 220.515 12.9985C220.515 13.585 220.066 14.0335 219.457 14.0335C218.847 14.0335 218.41 13.585 218.41 12.9985C218.41 12.4465 218.847 11.9635 219.457 11.9635Z" fill="white"/>
<path d="M231.572 8.295V16H230.008L226.11 11.538V16H224.212V8.295H225.788L229.686 12.895V8.295H231.572Z" fill="white"/>
<path d="M235.873 7.03C235.654 7.03 235.551 7.1795 235.516 7.4095H234.401C234.401 6.156 235.079 5.6615 235.723 5.6615C236.459 5.6615 236.643 6.087 237.115 6.087C237.333 6.087 237.437 5.926 237.471 5.673H238.587C238.587 6.9495 237.92 7.444 237.253 7.444C236.505 7.444 236.356 7.03 235.873 7.03ZM240.588 16H238.564L238.023 14.597H234.78L234.24 16H232.204L235.424 8.295H237.368L240.588 16ZM237.391 12.964L236.402 10.434L235.424 12.964H237.391Z" fill="white"/>
<path d="M244.787 8.1225C247.087 8.1225 248.892 9.905 248.892 12.159C248.892 14.4015 247.087 16.1725 244.787 16.1725C242.487 16.1725 240.681 14.4015 240.681 12.159C240.681 9.905 242.487 8.1225 244.787 8.1225ZM244.787 14.436C246.04 14.436 246.995 13.47 246.995 12.159C246.995 10.8365 246.04 9.859 244.787 9.859C243.533 9.859 242.579 10.8365 242.579 12.159C242.579 13.47 243.533 14.436 244.787 14.436Z" fill="white"/>
<path d="M252.637 8.295H255.684C258.226 8.295 259.905 9.859 259.905 12.1475C259.905 14.436 258.226 16 255.684 16H252.637V8.295ZM254.534 14.3555H255.615C257.053 14.3555 257.996 13.4815 257.996 12.1475C257.996 10.8135 257.053 9.9395 255.615 9.9395H254.534V14.3555Z" fill="white"/>
<path d="M266.973 14.367V16H260.97V8.295H266.938V9.928H262.867V11.377H266.605V12.918H262.867V14.367H266.973Z" fill="white"/>
<path d="M271.182 8.1225C272.861 8.1225 274.08 8.9505 274.367 10.3535L272.504 10.733C272.366 10.0085 271.768 9.652 271.159 9.652C270.526 9.652 270.124 9.997 270.124 10.434C270.124 10.7445 270.262 10.9745 270.745 11.078L272.343 11.4345C273.677 11.7335 274.459 12.458 274.459 13.677C274.459 15.3215 272.999 16.1725 271.285 16.1725C269.549 16.1725 268.123 15.3445 267.916 13.838L269.871 13.4585C270.066 14.252 270.618 14.597 271.389 14.597C272.102 14.597 272.527 14.275 272.527 13.8035C272.527 13.4585 272.366 13.24 271.814 13.125L270.204 12.78C269.1 12.527 268.134 11.952 268.134 10.549C268.134 9.054 269.376 8.1225 271.182 8.1225Z" fill="white"/>
<path d="M278.501 9.951V14.344H279.962V16H275.155V14.344H276.615V9.951H275.155V8.295H279.962V9.951H278.501Z" fill="white"/>
<path d="M283.883 8.1225C285.562 8.1225 286.781 8.9505 287.069 10.3535L285.206 10.733C285.068 10.0085 284.47 9.652 283.86 9.652C283.228 9.652 282.825 9.997 282.825 10.434C282.825 10.7445 282.963 10.9745 283.446 11.078L285.045 11.4345C286.379 11.7335 287.161 12.458 287.161 13.677C287.161 15.3215 285.7 16.1725 283.987 16.1725C282.25 16.1725 280.824 15.3445 280.617 13.838L282.572 13.4585C282.768 14.252 283.32 14.597 284.09 14.597C284.803 14.597 285.229 14.275 285.229 13.8035C285.229 13.4585 285.068 13.24 284.516 13.125L282.906 12.78C281.802 12.527 280.836 11.952 280.836 10.549C280.836 9.054 282.078 8.1225 283.883 8.1225Z" fill="white"/>
<path d="M294.554 9.951H292.058V16H290.172V9.951H287.677V8.295H294.554V9.951Z" fill="white"/>
<path d="M302.355 16H300.331L299.791 14.597H296.548L296.007 16H293.972L297.192 8.295H299.135L302.355 16ZM299.158 12.964L298.169 10.434L297.192 12.964H299.158Z" fill="white"/>
<path d="M305.689 8.295H308.737C311.278 8.295 312.957 9.859 312.957 12.1475C312.957 14.436 311.278 16 308.737 16H305.689V8.295ZM307.587 14.3555H308.668C310.105 14.3555 311.048 13.4815 311.048 12.1475C311.048 10.8135 310.105 9.9395 308.668 9.9395H307.587V14.3555Z" fill="white"/>
<path d="M317.863 8.1225C320.163 8.1225 321.969 9.905 321.969 12.159C321.969 14.4015 320.163 16.1725 317.863 16.1725C315.563 16.1725 313.758 14.4015 313.758 12.159C313.758 9.905 315.563 8.1225 317.863 8.1225ZM317.863 14.436C319.117 14.436 320.071 13.47 320.071 12.159C320.071 10.8365 319.117 9.859 317.863 9.859C316.61 9.859 315.655 10.8365 315.655 12.159C315.655 13.47 316.61 14.436 317.863 14.436Z" fill="white"/>
<path d="M326.065 8.1225C327.744 8.1225 328.963 8.9505 329.251 10.3535L327.388 10.733C327.25 10.0085 326.652 9.652 326.042 9.652C325.41 9.652 325.007 9.997 325.007 10.434C325.007 10.7445 325.145 10.9745 325.628 11.078L327.227 11.4345C328.561 11.7335 329.343 12.458 329.343 13.677C329.343 15.3215 327.882 16.1725 326.169 16.1725C324.432 16.1725 323.006 15.3445 322.799 13.838L324.754 13.4585C324.95 14.252 325.501 14.597 326.272 14.597C326.985 14.597 327.411 14.275 327.411 13.8035C327.411 13.4585 327.25 13.24 326.698 13.125L325.088 12.78C323.984 12.527 323.018 11.952 323.018 10.549C323.018 9.054 324.259 8.1225 326.065 8.1225Z" fill="white"/>
<path d="M336.172 8.1225C337.851 8.1225 339.07 8.9505 339.358 10.3535L337.495 10.733C337.357 10.0085 336.759 9.652 336.149 9.652C335.517 9.652 335.114 9.997 335.114 10.434C335.114 10.7445 335.252 10.9745 335.735 11.078L337.334 11.4345C338.668 11.7335 339.45 12.458 339.45 13.677C339.45 15.3215 337.989 16.1725 336.276 16.1725C334.539 16.1725 333.113 15.3445 332.906 13.838L334.861 13.4585C335.057 14.252 335.609 14.597 336.379 14.597C337.092 14.597 337.518 14.275 337.518 13.8035C337.518 13.4585 337.357 13.24 336.805 13.125L335.195 12.78C334.091 12.527 333.125 11.952 333.125 10.549C333.125 9.054 334.367 8.1225 336.172 8.1225Z" fill="white"/>
<path d="M346.586 14.367V16H340.583V8.295H346.551V9.928H342.48V11.377H346.217V12.918H342.48V14.367H346.586Z" fill="white"/>
<path d="M354.659 8.295V12.527C354.659 14.735 353.29 16.1725 351.243 16.1725C349.15 16.1725 347.747 14.735 347.747 12.527V8.295H349.645V12.527C349.645 13.7 350.277 14.4245 351.243 14.4245C352.152 14.4245 352.761 13.7 352.761 12.527V8.295H354.659Z" fill="white"/>
<path d="M358.993 8.1225C360.672 8.1225 361.891 8.9505 362.178 10.3535L360.315 10.733C360.177 10.0085 359.579 9.652 358.97 9.652C358.337 9.652 357.935 9.997 357.935 10.434C357.935 10.7445 358.073 10.9745 358.556 11.078L360.154 11.4345C361.488 11.7335 362.27 12.458 362.27 13.677C362.27 15.3215 360.81 16.1725 359.096 16.1725C357.36 16.1725 355.934 15.3445 355.727 13.838L357.682 13.4585C357.877 14.252 358.429 14.597 359.2 14.597C359.913 14.597 360.338 14.275 360.338 13.8035C360.338 13.4585 360.177 13.24 359.625 13.125L358.015 12.78C356.911 12.527 355.945 11.952 355.945 10.549C355.945 9.054 357.187 8.1225 358.993 8.1225Z" fill="white"/>
<path d="M366.076 8.295H369.871C371.607 8.295 372.7 9.3645 372.7 10.9515C372.7 12.573 371.573 13.6425 369.79 13.6425H367.973V16H366.076V8.295ZM367.973 12.0555H369.652C370.388 12.0555 370.837 11.63 370.837 10.9745C370.837 10.3535 370.388 9.9165 369.652 9.9165H367.973V12.0555Z" fill="white"/>
<path d="M380.773 16H378.485L376.162 13.355H375.61V16H373.712V8.295H377.611C379.278 8.295 380.382 9.307 380.382 10.8135C380.382 12.0785 379.6 12.987 378.358 13.263L380.773 16ZM375.61 11.768H377.404C378.082 11.768 378.519 11.4 378.519 10.8365C378.519 10.2845 378.082 9.9165 377.404 9.9165H375.61V11.768Z" fill="white"/>
<path d="M385.246 8.1225C387.546 8.1225 389.352 9.905 389.352 12.159C389.352 14.4015 387.546 16.1725 385.246 16.1725C382.946 16.1725 381.141 14.4015 381.141 12.159C381.141 9.905 382.946 8.1225 385.246 8.1225ZM385.246 14.436C386.5 14.436 387.454 13.47 387.454 12.159C387.454 10.8365 386.5 9.859 385.246 9.859C383.993 9.859 383.038 10.8365 383.038 12.159C383.038 13.47 383.993 14.436 385.246 14.436Z" fill="white"/>
<path d="M396.104 8.295V13.2285C396.104 14.9535 394.862 16.1725 392.999 16.1725C391.251 16.1725 390.147 15.126 389.917 13.585L391.757 13.217C391.838 13.999 392.263 14.482 392.999 14.482C393.724 14.482 394.207 13.9645 394.207 13.2285V9.951H391.826V8.295H396.104Z" fill="white"/>
<path d="M403.423 14.367V16H397.42V8.295H403.388V9.928H399.317V11.377H403.055V12.918H399.317V14.367H403.423Z" fill="white"/>
<path d="M411.047 9.951H408.552V16H406.666V9.951H404.17V8.295H411.047V9.951Z" fill="white"/>
<path d="M415.467 8.1225C417.767 8.1225 419.573 9.905 419.573 12.159C419.573 14.4015 417.767 16.1725 415.467 16.1725C413.167 16.1725 411.362 14.4015 411.362 12.159C411.362 9.905 413.167 8.1225 415.467 8.1225ZM415.467 14.436C416.721 14.436 417.675 13.47 417.675 12.159C417.675 10.8365 416.721 9.859 415.467 9.859C414.214 9.859 413.259 10.8365 413.259 12.159C413.259 13.47 414.214 14.436 415.467 14.436Z" fill="white"/>
<path d="M423.669 8.1225C425.348 8.1225 426.567 8.9505 426.855 10.3535L424.992 10.733C424.854 10.0085 424.256 9.652 423.646 9.652C423.014 9.652 422.611 9.997 422.611 10.434C422.611 10.7445 422.749 10.9745 423.232 11.078L424.831 11.4345C426.165 11.7335 426.947 12.458 426.947 13.677C426.947 15.3215 425.486 16.1725 423.773 16.1725C422.036 16.1725 420.61 15.3445 420.403 13.838L422.358 13.4585C422.553 14.252 423.105 14.597 423.876 14.597C424.589 14.597 425.015 14.275 425.015 13.8035C425.015 13.4585 424.854 13.24 424.302 13.125L422.692 12.78C421.588 12.527 420.622 11.952 420.622 10.549C420.622 9.054 421.863 8.1225 423.669 8.1225Z" fill="white"/>
<path d="M431.499 11.9635C432.109 11.9635 432.557 12.4465 432.557 12.9985C432.557 13.585 432.109 14.0335 431.499 14.0335C430.89 14.0335 430.453 13.585 430.453 12.9985C430.453 12.4465 430.89 11.9635 431.499 11.9635Z" fill="white"/>
<path d="M443.615 8.295V16H442.051L438.152 11.538V16H436.255V8.295H437.83L441.729 12.895V8.295H443.615Z" fill="white"/>
<path d="M447.915 7.03C447.697 7.03 447.593 7.1795 447.559 7.4095H446.443C446.443 6.156 447.122 5.6615 447.766 5.6615C448.502 5.6615 448.686 6.087 449.157 6.087C449.376 6.087 449.479 5.926 449.514 5.673H450.629C450.629 6.9495 449.962 7.444 449.295 7.444C448.548 7.444 448.398 7.03 447.915 7.03ZM452.63 16H450.606L450.066 14.597H446.823L446.282 16H444.247L447.467 8.295H449.41L452.63 16ZM449.433 12.964L448.444 10.434L447.467 12.964H449.433Z" fill="white"/>
<path d="M456.829 8.1225C459.129 8.1225 460.935 9.905 460.935 12.159C460.935 14.4015 459.129 16.1725 456.829 16.1725C454.529 16.1725 452.724 14.4015 452.724 12.159C452.724 9.905 454.529 8.1225 456.829 8.1225ZM456.829 14.436C458.083 14.436 459.037 13.47 459.037 12.159C459.037 10.8365 458.083 9.859 456.829 9.859C455.576 9.859 454.621 10.8365 454.621 12.159C454.621 13.47 455.576 14.436 456.829 14.436Z" fill="white"/>
<path d="M464.679 8.295H467.727C470.268 8.295 471.947 9.859 471.947 12.1475C471.947 14.436 470.268 16 467.727 16H464.679V8.295ZM466.577 14.3555H467.658C469.095 14.3555 470.038 13.4815 470.038 12.1475C470.038 10.8135 469.095 9.9395 467.658 9.9395H466.577V14.3555Z" fill="white"/>
<path d="M479.015 14.367V16H473.012V8.295H478.981V9.928H474.91V11.377H478.647V12.918H474.91V14.367H479.015Z" fill="white"/>
<path d="M483.224 8.1225C484.903 8.1225 486.122 8.9505 486.41 10.3535L484.547 10.733C484.409 10.0085 483.811 9.652 483.201 9.652C482.569 9.652 482.166 9.997 482.166 10.434C482.166 10.7445 482.304 10.9745 482.787 11.078L484.386 11.4345C485.72 11.7335 486.502 12.458 486.502 13.677C486.502 15.3215 485.041 16.1725 483.328 16.1725C481.591 16.1725 480.165 15.3445 479.958 13.838L481.913 13.4585C482.109 14.252 482.661 14.597 483.431 14.597C484.144 14.597 484.57 14.275 484.57 13.8035C484.57 13.4585 484.409 13.24 483.857 13.125L482.247 12.78C481.143 12.527 480.177 11.952 480.177 10.549C480.177 9.054 481.419 8.1225 483.224 8.1225Z" fill="white"/>
<path d="M490.544 9.951V14.344H492.004V16H487.197V14.344H488.658V9.951H487.197V8.295H492.004V9.951H490.544Z" fill="white"/>
<path d="M495.926 8.1225C497.605 8.1225 498.824 8.9505 499.111 10.3535L497.248 10.733C497.11 10.0085 496.512 9.652 495.903 9.652C495.27 9.652 494.868 9.997 494.868 10.434C494.868 10.7445 495.006 10.9745 495.489 11.078L497.087 11.4345C498.421 11.7335 499.203 12.458 499.203 13.677C499.203 15.3215 497.743 16.1725 496.029 16.1725C494.293 16.1725 492.867 15.3445 492.66 13.838L494.615 13.4585C494.81 14.252 495.362 14.597 496.133 14.597C496.846 14.597 497.271 14.275 497.271 13.8035C497.271 13.4585 497.11 13.24 496.558 13.125L494.948 12.78C493.844 12.527 492.878 11.952 492.878 10.549C492.878 9.054 494.12 8.1225 495.926 8.1225Z" fill="white"/>
<path d="M506.596 9.951H504.101V16H502.215V9.951H499.719V8.295H506.596V9.951Z" fill="white"/>
<path d="M514.398 16H512.374L511.833 14.597H508.59L508.05 16H506.014L509.234 8.295H511.178L514.398 16ZM511.201 12.964L510.212 10.434L509.234 12.964H511.201Z" fill="white"/>
<path d="M517.732 8.295H520.779C523.321 8.295 525 9.859 525 12.1475C525 14.436 523.321 16 520.779 16H517.732V8.295ZM519.629 14.3555H520.71C522.148 14.3555 523.091 13.4815 523.091 12.1475C523.091 10.8135 522.148 9.9395 520.71 9.9395H519.629V14.3555Z" fill="white"/>
<path d="M529.906 8.1225C532.206 8.1225 534.011 9.905 534.011 12.159C534.011 14.4015 532.206 16.1725 529.906 16.1725C527.606 16.1725 525.8 14.4015 525.8 12.159C525.8 9.905 527.606 8.1225 529.906 8.1225ZM529.906 14.436C531.159 14.436 532.114 13.47 532.114 12.159C532.114 10.8365 531.159 9.859 529.906 9.859C528.652 9.859 527.698 10.8365 527.698 12.159C527.698 13.47 528.652 14.436 529.906 14.436Z" fill="white"/>
<path d="M538.107 8.1225C539.786 8.1225 541.005 8.9505 541.293 10.3535L539.43 10.733C539.292 10.0085 538.694 9.652 538.084 9.652C537.452 9.652 537.049 9.997 537.049 10.434C537.049 10.7445 537.188 10.9745 537.67 11.078L539.269 11.4345C540.603 11.7335 541.385 12.458 541.385 13.677C541.385 15.3215 539.924 16.1725 538.211 16.1725C536.474 16.1725 535.048 15.3445 534.841 13.838L536.797 13.4585C536.992 14.252 537.544 14.597 538.315 14.597C539.028 14.597 539.453 14.275 539.453 13.8035C539.453 13.4585 539.292 13.24 538.74 13.125L537.13 12.78C536.026 12.527 535.06 11.952 535.06 10.549C535.06 9.054 536.302 8.1225 538.107 8.1225Z" fill="white"/>
<path d="M548.215 8.1225C549.894 8.1225 551.113 8.9505 551.4 10.3535L549.537 10.733C549.399 10.0085 548.801 9.652 548.192 9.652C547.559 9.652 547.157 9.997 547.157 10.434C547.157 10.7445 547.295 10.9745 547.778 11.078L549.376 11.4345C550.71 11.7335 551.492 12.458 551.492 13.677C551.492 15.3215 550.032 16.1725 548.318 16.1725C546.582 16.1725 545.156 15.3445 544.949 13.838L546.904 13.4585C547.099 14.252 547.651 14.597 548.422 14.597C549.135 14.597 549.56 14.275 549.56 13.8035C549.56 13.4585 549.399 13.24 548.847 13.125L547.237 12.78C546.133 12.527 545.167 11.952 545.167 10.549C545.167 9.054 546.409 8.1225 548.215 8.1225Z" fill="white"/>
<path d="M558.628 14.367V16H552.625V8.295H558.593V9.928H554.522V11.377H558.26V12.918H554.522V14.367H558.628Z" fill="white"/>
<path d="M566.701 8.295V12.527C566.701 14.735 565.332 16.1725 563.285 16.1725C561.192 16.1725 559.789 14.735 559.789 12.527V8.295H561.687V12.527C561.687 13.7 562.319 14.4245 563.285 14.4245C564.194 14.4245 564.803 13.7 564.803 12.527V8.295H566.701Z" fill="white"/>
<path d="M571.035 8.1225C572.714 8.1225 573.933 8.9505 574.221 10.3535L572.358 10.733C572.22 10.0085 571.622 9.652 571.012 9.652C570.38 9.652 569.977 9.997 569.977 10.434C569.977 10.7445 570.115 10.9745 570.598 11.078L572.197 11.4345C573.531 11.7335 574.313 12.458 574.313 13.677C574.313 15.3215 572.852 16.1725 571.139 16.1725C569.402 16.1725 567.976 15.3445 567.769 13.838L569.724 13.4585C569.92 14.252 570.472 14.597 571.242 14.597C571.955 14.597 572.381 14.275 572.381 13.8035C572.381 13.4585 572.22 13.24 571.668 13.125L570.058 12.78C568.954 12.527 567.988 11.952 567.988 10.549C567.988 9.054 569.23 8.1225 571.035 8.1225Z" fill="white"/>
<path d="M578.118 8.295H581.913C583.65 8.295 584.742 9.3645 584.742 10.9515C584.742 12.573 583.615 13.6425 581.833 13.6425H580.016V16H578.118V8.295ZM580.016 12.0555H581.695C582.431 12.0555 582.879 11.63 582.879 10.9745C582.879 10.3535 582.431 9.9165 581.695 9.9165H580.016V12.0555Z" fill="white"/>
<path d="M592.816 16H590.527L588.204 13.355H587.652V16H585.755V8.295H589.653C591.321 8.295 592.425 9.307 592.425 10.8135C592.425 12.0785 591.643 12.987 590.401 13.263L592.816 16ZM587.652 11.768H589.446C590.125 11.768 590.562 11.4 590.562 10.8365C590.562 10.2845 590.125 9.9165 589.446 9.9165H587.652V11.768Z" fill="white"/>
<path d="M597.289 8.1225C599.589 8.1225 601.394 9.905 601.394 12.159C601.394 14.4015 599.589 16.1725 597.289 16.1725C594.989 16.1725 593.183 14.4015 593.183 12.159C593.183 9.905 594.989 8.1225 597.289 8.1225ZM597.289 14.436C598.542 14.436 599.497 13.47 599.497 12.159C599.497 10.8365 598.542 9.859 597.289 9.859C596.035 9.859 595.081 10.8365 595.081 12.159C595.081 13.47 596.035 14.436 597.289 14.436Z" fill="white"/>
<path d="M608.147 8.295V13.2285C608.147 14.9535 606.905 16.1725 605.042 16.1725C603.294 16.1725 602.19 15.126 601.96 13.585L603.8 13.217C603.88 13.999 604.306 14.482 605.042 14.482C605.766 14.482 606.249 13.9645 606.249 13.2285V9.951H603.869V8.295H608.147Z" fill="white"/>
<path d="M615.465 14.367V16H609.462V8.295H615.431V9.928H611.36V11.377H615.097V12.918H611.36V14.367H615.465Z" fill="white"/>
<path d="M623.09 9.951H620.594V16H618.708V9.951H616.213V8.295H623.09V9.951Z" fill="white"/>
<path d="M627.51 8.1225C629.81 8.1225 631.615 9.905 631.615 12.159C631.615 14.4015 629.81 16.1725 627.51 16.1725C625.21 16.1725 623.404 14.4015 623.404 12.159C623.404 9.905 625.21 8.1225 627.51 8.1225ZM627.51 14.436C628.763 14.436 629.718 13.47 629.718 12.159C629.718 10.8365 628.763 9.859 627.51 9.859C626.256 9.859 625.302 10.8365 625.302 12.159C625.302 13.47 626.256 14.436 627.51 14.436Z" fill="white"/>
<path d="M635.711 8.1225C637.391 8.1225 638.609 8.9505 638.897 10.3535L637.034 10.733C636.896 10.0085 636.298 9.652 635.688 9.652C635.056 9.652 634.654 9.997 634.654 10.434C634.654 10.7445 634.792 10.9745 635.274 11.078L636.873 11.4345C638.207 11.7335 638.989 12.458 638.989 13.677C638.989 15.3215 637.529 16.1725 635.815 16.1725C634.078 16.1725 632.652 15.3445 632.445 13.838L634.4 13.4585C634.596 14.252 635.148 14.597 635.918 14.597C636.631 14.597 637.057 14.275 637.057 13.8035C637.057 13.4585 636.896 13.24 636.344 13.125L634.734 12.78C633.63 12.527 632.664 11.952 632.664 10.549C632.664 9.054 633.906 8.1225 635.711 8.1225Z" fill="white"/>
<path d="M643.542 11.9635C644.151 11.9635 644.6 12.4465 644.6 12.9985C644.6 13.585 644.151 14.0335 643.542 14.0335C642.932 14.0335 642.495 13.585 642.495 12.9985C642.495 12.4465 642.932 11.9635 643.542 11.9635Z" fill="white"/>
</svg>
