<svg width="94" height="48" viewBox="0 0 94 48" fill="none" xmlns="http://www.w3.org/2000/svg">
<g clip-path="url(#clip0_1172_21361)">
<path d="M17.1975 28.6888C17.1975 28.6888 16.4048 39.0445 21.6288 42.123C21.6288 42.123 21.5813 37.8313 22.3284 36.4318C22.3284 36.4318 25.1723 38.0177 28.9515 37.0841C28.9515 37.0841 23.4024 33.726 22.2827 26.4014L20.5109 25.9355L17.34 27.8484L17.1993 28.6888H17.1975Z" fill="#E2C322"/>
<path d="M10.1563 26.4023C10.1563 26.4023 0.875501 38.5302 4.28023 47.1612C4.28023 47.1612 6.14516 44.2215 7.07854 43.5692C7.07854 43.5692 9.50422 47.0205 12.4888 48.0016C12.4888 48.0016 10.0175 43.5235 11.4623 36.6667C11.4623 36.6667 13.2341 30.8822 14.9127 28.5491L14.8195 27.2903L10.1563 26.4042V26.4023Z" fill="#E2C322"/>
<path d="M15.9574 0L18.1602 3.12058L21.2965 0.940926L22.2974 4.62789L25.9907 3.65225L25.6729 7.4598L29.4758 7.80694L27.8739 11.2747L31.3298 12.9026L28.6393 15.6139L31.3298 18.3252L27.8739 19.9513L29.4758 23.419L25.6729 23.768L25.9907 27.5737L22.2974 26.5999L21.2965 30.285L18.1602 28.1072L15.9574 31.2259L13.7545 28.1072L10.6183 30.285L9.61553 26.5999L5.92403 27.5737L6.24185 23.768L2.43893 23.419L4.03901 19.9513L0.584961 18.3252L3.27367 15.6139L0.584961 12.9026L4.03901 11.2747L2.43893 7.80694L6.24185 7.4598L5.92403 3.65225L9.61553 4.62789L10.6183 0.940926L13.7545 3.12058L15.9574 0Z" fill="#009C4E"/>
<path d="M15.8112 26.5353C21.9285 26.5353 26.8875 21.575 26.8875 15.4561C26.8875 9.33727 21.9285 4.37695 15.8112 4.37695C9.69391 4.37695 4.73486 9.33727 4.73486 15.4561C4.73486 21.575 9.69391 26.5353 15.8112 26.5353Z" fill="#68C52F"/>
<path d="M3.61523 8.48254C3.61523 8.48254 11.9627 16.4594 14.6222 23.0824C14.6222 23.0824 24.0418 8.76208 35.8414 2.37109C35.8414 2.37109 26.3268 3.53674 14.9948 15.5733C14.9948 15.5733 10.5635 10.6293 3.61523 8.48254Z" fill="white"/>
<path d="M55.9921 31.2297H52.3883C52.2093 30.3089 52.0285 29.3863 51.8403 28.4179C51.6577 28.2608 51.3837 28.3083 51.1188 28.3083C50.37 28.3083 49.6229 28.2973 48.8758 28.3247C48.7662 28.3284 48.642 28.5129 48.5671 28.639C48.5196 28.7194 48.5525 28.8473 48.5416 28.9532C48.4995 29.3808 48.516 29.8284 48.3881 30.2303C48.3023 30.4971 48.2877 30.7529 48.2511 31.016C48.2237 31.2078 48.0666 31.2444 47.9023 31.2462C47.4292 31.2462 46.9561 31.2462 46.4848 31.2462C45.0839 31.2498 43.6847 31.2535 42.2837 31.259C41.9403 31.259 41.8727 31.1987 41.8253 30.8735C41.8161 30.8132 41.7175 30.7693 41.6919 30.7054C41.6389 30.561 41.6152 30.4057 41.5622 30.2632C41.5275 30.1719 41.449 30.097 41.4143 30.0056C41.3357 29.7973 41.3029 29.5653 41.1914 29.3789C41.0216 29.0903 41.0289 28.7413 40.7987 28.4636C40.6471 28.2809 40.6288 27.9904 40.5485 27.7492C40.4919 27.5793 40.4352 27.4094 40.3695 27.2431C40.2179 26.8521 40.0644 26.463 39.9092 26.0738C39.8233 25.8619 39.7393 25.65 39.637 25.4472C39.6041 25.3814 39.511 25.3448 39.4105 25.2663V31.248C38.9484 31.248 38.5319 31.248 38.1155 31.248C37.4908 31.248 36.8661 31.2444 36.2414 31.2498C36.0168 31.2517 35.9254 31.1841 35.9346 30.9301C35.9546 30.3619 35.9273 29.7937 35.9273 29.2236C35.9273 24.7474 35.9273 20.2693 35.9273 15.7931C35.9273 15.477 35.9108 15.1591 35.9035 14.843C35.8962 14.5196 36.1063 14.3241 36.3894 14.326C37.5931 14.3388 38.7968 14.3223 40.0005 14.3369C40.395 14.3424 40.8316 14.315 41.1732 14.4685C41.5732 14.6475 42.0097 14.4922 42.3787 14.7169C42.5796 14.8394 42.7842 14.9526 42.9869 15.0714C43.0162 15.0878 43.0436 15.1262 43.0691 15.1244C43.471 15.1043 43.6098 15.4825 43.882 15.6579C44.2546 15.8972 44.3551 16.3521 44.6583 16.65C44.693 16.6847 44.6747 16.7687 44.6875 16.8272C44.7039 16.9076 44.7039 17.0117 44.7532 17.0592C44.967 17.2602 44.9469 17.5123 44.956 17.7699C44.9816 18.424 45.0455 19.0781 45.0528 19.7322C45.0565 20.1159 45.0272 20.5123 44.9304 20.8814C44.8354 21.2468 44.6382 21.5866 44.4829 21.9356C44.4245 22.0671 44.3642 22.1969 44.2966 22.3247C44.2729 22.3704 44.2272 22.407 44.1888 22.4435C43.9916 22.6335 43.7943 22.8217 43.597 23.0099C43.5715 23.0336 43.5514 23.0702 43.5221 23.0848C43.2317 23.2383 42.9395 23.3881 42.618 23.5543C42.4919 23.8467 42.7093 24.1043 42.8153 24.3838C42.9522 24.7456 43.0947 25.1037 43.25 25.4581C43.4052 25.8126 43.5824 26.1579 43.745 26.5105C43.7998 26.6274 43.8308 26.7553 43.882 26.8741C44.0537 27.2742 44.2382 27.667 44.3989 28.0708C44.5468 28.4398 44.6674 28.8217 44.8099 29.1926C44.83 29.2437 44.8957 29.2858 44.9505 29.3077C44.9688 29.315 45.0345 29.2456 45.0491 29.2017C45.0912 29.0775 45.1167 28.9459 45.1533 28.818C45.2227 28.5769 45.2957 28.3375 45.367 28.0982C45.3816 28.0489 45.3998 28.0014 45.409 27.9502C45.4747 27.6031 45.5332 27.2523 45.6063 26.9051C45.6647 26.6256 45.6976 26.3314 45.8108 26.0757C46.0282 25.5842 45.8894 25.0141 46.1981 24.5373C46.3186 24.3528 46.2839 24.0732 46.3387 23.8412C46.3661 23.7279 46.452 23.6274 46.4775 23.5141C46.5305 23.2876 46.5615 23.0556 46.5963 22.8254C46.6401 22.5275 46.6693 22.2261 46.7241 21.9283C46.746 21.8059 46.8337 21.6981 46.8648 21.5775C46.9853 21.1152 47.1387 20.6548 47.1954 20.1853C47.2483 19.7523 47.3707 19.3485 47.4986 18.9374C47.5753 18.6908 47.5242 18.3911 47.6411 18.1755C47.8402 17.812 47.7397 17.3954 47.9223 17.0391C47.9735 16.9405 48.0009 16.8126 47.9863 16.7048C47.9443 16.3869 48.1415 16.1439 48.2219 15.8662C48.231 15.8333 48.2603 15.7986 48.2566 15.7693C48.1854 15.3455 48.4575 15.0001 48.5105 14.6092C48.5397 14.4027 48.653 14.3497 48.8101 14.3442C49.2283 14.3314 49.6466 14.3333 50.0649 14.3314C50.6439 14.3296 51.2248 14.3278 51.8038 14.326C51.9883 14.326 52.1709 14.2876 52.2057 14.5708C52.2349 14.8083 52.3938 15.0403 52.3774 15.2669C52.3536 15.5976 52.56 15.8424 52.6039 16.1384C52.613 16.206 52.6586 16.2736 52.6513 16.3375C52.6166 16.7084 52.8139 17.0172 52.9071 17.3552C52.9838 17.6311 53.0368 17.9143 53.0897 18.1975C53.1683 18.614 53.1555 19.069 53.329 19.438C53.5263 19.8619 53.3948 20.3205 53.5829 20.7188C53.7802 21.1353 53.7875 21.5921 53.8898 22.0269C54.0286 22.6189 54.2021 23.1999 54.2806 23.8101C54.3482 24.329 54.5291 24.8333 54.6496 25.3467C54.6953 25.5422 54.7117 25.745 54.7519 25.9405C54.7756 26.0519 54.8286 26.1579 54.8542 26.2693C54.9181 26.5397 54.9894 26.812 55.0295 27.086C55.0661 27.329 55.0533 27.583 55.2469 27.7766C55.2688 27.7986 55.2743 27.8406 55.2798 27.8753C55.3547 28.3357 55.4241 28.7979 55.5044 29.2584C55.5903 29.7444 55.678 30.2285 55.7821 30.7109C55.815 30.868 55.9026 31.0123 55.994 31.2279L55.9921 31.2297ZM39.3886 21.5208C40.0973 21.6195 40.4224 21.5556 40.9668 21.2504C41.1549 21.1445 41.2755 21.0093 41.3229 20.7955C41.354 20.6621 41.3814 20.4849 41.4745 20.4173C41.8033 20.1798 41.575 19.7852 41.765 19.5184C41.6517 18.8753 41.6864 18.1883 41.2024 17.6585C41.175 17.6293 41.1677 17.569 41.1385 17.5562C40.7713 17.4045 40.4188 17.1981 40.0115 17.1798C39.385 17.1506 39.405 17.2858 39.3941 17.7791C39.3795 18.4112 39.3904 19.0416 39.3904 19.6737C39.3904 20.2858 39.3904 20.8978 39.3904 21.5227L39.3886 21.5208ZM51.2668 25.2955C51.1956 25.2023 51.1207 25.1512 51.1115 25.0872C51.0257 24.5702 50.938 24.0549 50.8796 23.5342C50.8412 23.1908 50.8668 22.8564 50.7481 22.5074C50.5161 21.8241 50.6732 21.0714 50.4558 20.3716C50.3773 20.1213 50.3572 19.8528 50.3097 19.5933L50.2183 19.5769C50.1782 19.7358 50.1197 19.8911 50.1014 20.0519C50.0521 20.4959 50.0229 20.9435 49.9736 21.3875C49.9681 21.435 49.8877 21.4733 49.8603 21.4971C49.8731 21.7017 49.8969 21.8972 49.895 22.0945C49.895 22.195 49.8476 22.2937 49.8238 22.3942C49.7946 22.5257 49.7654 22.6573 49.738 22.7888C49.6795 23.0647 49.6046 23.3388 49.5699 23.6183C49.537 23.8741 49.6083 24.1536 49.5261 24.3875C49.3891 24.7785 49.3617 25.1493 49.4749 25.5001C49.6083 25.48 49.7325 25.4526 49.8567 25.4435C50.0101 25.4325 50.1635 25.4307 50.317 25.4344C50.5307 25.438 50.7444 25.4472 50.9581 25.4545L50.9453 25.5111L51.2668 25.2973V25.2955Z" fill="#016835"/>
<path d="M68.917 31.4395C68.7416 31.3792 68.5443 31.3116 68.3489 31.2421C68.2886 31.2202 68.2283 31.1965 68.1736 31.1636C67.7023 30.8804 67.2877 30.5314 66.9571 30.0875C66.8602 29.9577 66.7123 29.8627 66.6264 29.7275C66.4876 29.5083 66.3835 29.2689 66.263 29.0387C66.2082 28.9346 66.1461 28.8359 66.0986 28.73C65.9725 28.4577 65.7606 28.1873 65.7515 27.9096C65.7387 27.5607 65.5232 27.2921 65.5013 26.9614C65.494 26.8591 65.4794 26.7549 65.4538 26.6544C65.3826 26.3749 65.3004 26.099 65.2273 25.8195C65.2127 25.761 65.2072 25.6989 65.2072 25.6386C65.2017 23.8828 65.1889 22.127 65.2035 20.3731C65.2054 20.0552 65.3186 19.7373 65.3789 19.4194C65.4392 19.0942 65.4921 18.7671 65.5597 18.4437C65.62 18.1514 65.6145 17.797 65.7826 17.5868C65.9506 17.3749 65.9068 17.1136 66.0401 16.9547C66.3159 16.624 66.3433 16.1636 66.6703 15.8658C66.8274 15.7233 66.9077 15.4985 67.0612 15.3506C67.3662 15.0564 67.6548 14.7367 68.0676 14.5777C68.274 14.4992 68.4621 14.3694 68.6704 14.3018C68.8494 14.2434 69.0941 14.3 69.2275 14.1977C69.4759 14.0077 69.7389 14.0552 69.9764 14.0935C70.433 14.1666 70.8787 14.3128 71.3317 14.4242C71.4084 14.4425 71.4906 14.4352 71.5691 14.4498C71.6276 14.4608 71.7189 14.4717 71.7317 14.5065C71.8157 14.7458 72.0349 14.7915 72.2285 14.8755C72.2742 14.8956 72.3217 14.9303 72.3454 14.9724C72.6377 15.4657 73.1016 15.8256 73.3592 16.3609C73.498 16.6478 73.6021 16.9346 73.7008 17.2324C73.8067 17.554 73.9455 17.8664 74.0679 18.1843C74.0862 18.2336 74.1081 18.283 74.1154 18.3341C74.1574 18.6429 74.183 18.9553 74.2378 19.2622C74.2798 19.5034 74.362 19.7354 74.4149 19.9748C74.4515 20.1374 74.4898 20.3037 74.4898 20.4681C74.4898 22.1088 74.4807 23.7495 74.4789 25.3883C74.4789 25.6861 74.4789 25.9583 74.2725 26.2306C74.141 26.4005 74.1355 26.7038 74.1501 26.9413C74.1702 27.2555 73.9583 27.4803 73.9163 27.7635C73.9053 27.8311 73.8743 27.895 73.867 27.9626C73.8505 28.1051 73.8542 28.2257 73.7245 28.3554C73.593 28.487 73.5893 28.7391 73.4816 28.909C73.3172 29.1721 73.3044 29.5192 73.014 29.7202C72.9208 29.786 72.8989 29.9504 72.8331 30.0637C72.7893 30.1368 72.7327 30.2062 72.6687 30.2647C72.4587 30.4547 72.2468 30.6465 72.0258 30.8238C71.9509 30.884 71.8304 30.8859 71.7555 30.9462C71.4029 31.2312 70.9755 31.381 70.5572 31.4596C70.1115 31.5436 69.6257 31.6112 69.1727 31.3865C69.1051 31.3536 68.9937 31.4066 68.9024 31.4194C68.9206 31.4449 68.9389 31.4705 68.9224 31.4468L68.917 31.4395ZM68.6503 24.959H68.6649C68.6649 25.2805 68.6649 25.6002 68.6649 25.9218C68.6649 26.0022 68.6649 26.0844 68.6832 26.1611C68.7617 26.49 68.8421 26.8189 68.9334 27.1459C68.9645 27.2592 69.0667 27.3615 69.074 27.473C69.0941 27.8128 69.3152 27.9845 69.5764 28.1252C69.8211 28.2568 70.1937 28.1398 70.3819 27.9206C70.6814 27.5716 70.7508 27.1149 70.8276 26.7111C70.9481 26.0716 70.8714 25.3974 71.0011 24.7452C71.0431 24.5296 71.023 24.3012 71.0193 24.0783C70.9993 22.8122 71.1344 21.546 70.897 20.2817C70.7819 19.6697 70.9152 19.0211 70.718 18.409C70.6851 18.3067 70.7034 18.1459 70.6376 18.1021C70.4403 17.9705 70.3253 17.8225 70.3581 17.5795C70.3581 17.5722 70.3326 17.5613 70.3198 17.5521C70.0805 17.3859 69.6385 17.4169 69.5051 17.5357C69.1161 17.881 68.8932 18.3195 68.8275 18.8274C68.7745 19.2403 68.8128 19.6496 68.7033 20.0716C68.5663 20.6015 68.5736 21.1788 68.5754 21.7342C68.5791 22.8104 68.6247 23.8847 68.6521 24.959H68.6503Z" fill="#90C31B"/>
<path d="M84.3679 22.9126C84.399 22.7865 84.43 22.7116 84.4319 22.6349C84.4428 22.1544 84.4373 21.672 84.4592 21.1915C84.483 20.6891 84.4757 20.1757 84.5871 19.6897C84.6547 19.3937 84.5579 19.0576 84.799 18.7835C84.883 18.6885 84.8136 18.4711 84.8501 18.3176C84.8921 18.1459 84.9743 17.9814 85.0401 17.8152C85.0492 17.7932 85.0766 17.7786 85.0839 17.7549C85.2081 17.3822 85.3123 17.0021 85.462 16.6404C85.5753 16.3645 85.7433 16.1087 85.8949 15.8474C85.9917 15.6812 86.0867 15.5113 86.2128 15.3688C86.3753 15.1842 86.5598 15.0161 86.7498 14.859C86.9196 14.7183 87.1005 14.5868 87.2941 14.4808C87.4311 14.4041 87.5918 14.3657 87.7471 14.3273C87.9115 14.2853 88.0813 14.2652 88.2476 14.2305C88.4905 14.1794 88.7298 14.1154 88.9745 14.0679C89.3946 13.9857 89.7618 14.2232 90.16 14.2762C90.3353 14.2999 90.507 14.3657 90.6732 14.4297C90.907 14.5192 91.1372 14.6233 91.3655 14.7293C91.3929 14.7421 91.3929 14.8097 91.4148 14.8462C91.4824 14.9668 91.5372 15.0819 91.6925 15.1385C91.7984 15.1787 91.8751 15.3085 91.9537 15.409C92.0925 15.5825 92.224 15.7634 92.3592 15.9406C92.4925 16.1178 92.6258 16.2932 92.7555 16.4723C92.7738 16.4979 92.7793 16.5344 92.7884 16.5673C92.8871 16.9254 92.9254 17.3164 93.0989 17.6343C93.3473 18.0892 93.3875 18.5679 93.4588 19.0539C93.5318 19.5563 93.6177 20.0569 93.7127 20.5557C93.9081 21.5862 93.8844 22.6276 93.8405 23.6672C93.8204 24.155 93.7492 24.641 93.6999 25.1288C93.6652 25.4686 93.6414 25.8103 93.5921 26.1465C93.5665 26.3237 93.4843 26.4918 93.446 26.6672C93.3729 26.9997 93.3528 27.3487 93.2378 27.6647C93.088 28.0667 93.0186 28.5052 92.7537 28.8633C92.6989 28.9382 92.6788 29.0478 92.6642 29.1465C92.6167 29.4735 92.308 29.6252 92.1747 29.8846C91.9774 30.2683 91.6285 30.4674 91.3089 30.7104C91.1463 30.8328 91.0313 31.0338 90.8559 31.1197C90.6203 31.2348 90.339 31.253 90.0906 31.3462C89.5188 31.5618 88.9289 31.496 88.3425 31.4851C88.2403 31.4851 88.1398 31.3882 88.0393 31.3371C87.9754 31.3042 87.9151 31.2512 87.8494 31.2457C87.6229 31.2256 87.4475 31.1562 87.2466 31.0137C87.0128 30.8474 86.7644 30.6867 86.5653 30.4875C86.2621 30.1842 86.0027 29.8353 85.7433 29.4918C85.6246 29.3347 85.5442 29.1483 85.4474 28.9766C85.4219 28.9327 85.389 28.8907 85.3744 28.8414C85.2739 28.5052 85.2154 28.1507 85.0693 27.8383C84.9049 27.4912 84.8684 27.1312 84.8154 26.7658C84.799 26.6526 84.6784 26.5521 84.662 26.4388C84.6145 26.1172 84.5853 25.792 84.567 25.4668C84.5214 24.6757 84.4885 23.8828 84.4428 23.0917C84.4392 23.0131 84.3862 22.9382 84.3734 22.9071L84.3679 22.9126ZM88.1234 18.9406C88.0612 19.2859 87.9681 19.5764 87.9626 19.8669C87.937 21.5058 87.9553 23.1446 87.9115 24.7817C87.8932 25.4705 88.1252 26.1318 88.0466 26.8188C88.043 26.8444 88.043 26.8755 88.0539 26.8974C88.2293 27.2317 88.3973 27.5697 88.5855 27.8949C88.7389 28.158 88.9946 28.1946 89.2723 28.1434C89.5499 28.0904 89.7417 27.8876 89.8257 27.6666C89.939 27.3688 89.9499 27.0417 90.096 26.7366C90.2111 26.4936 90.202 26.1848 90.2184 25.9035C90.2403 25.5216 90.2312 25.1379 90.2367 24.7543C90.2422 24.3706 90.1673 23.965 90.2751 23.6124C90.3846 23.247 90.3591 22.8998 90.3646 22.5435C90.3682 22.3426 90.3317 22.1398 90.3134 21.9242C90.3298 21.8639 90.3755 21.778 90.37 21.6958C90.328 21.102 90.2805 20.5082 90.2257 19.9144C90.2075 19.7226 90.1709 19.5308 90.1308 19.3426C90.0833 19.1124 89.9992 18.8858 89.9755 18.6519C89.9481 18.3834 89.9865 18.1111 89.7508 17.8992C89.6613 17.8188 89.6376 17.6727 89.5645 17.5685C89.5316 17.521 89.4513 17.479 89.3965 17.4826C89.1554 17.4973 88.9124 17.5174 88.6768 17.5667C88.622 17.5776 88.6037 17.7202 88.5508 17.7896C88.3754 18.0216 88.1672 18.2336 88.1763 18.5551C88.1763 18.5862 88.1599 18.6282 88.1361 18.6483C87.9882 18.7707 88.0539 18.8748 88.1215 18.9406H88.1234Z" fill="#90C31B"/>
<path d="M74.7767 22.6954C74.7767 22.1528 74.7164 21.6011 74.7986 21.0694C74.8516 20.7204 74.7803 20.3422 74.9959 20.0024C75.089 19.8526 75.005 19.6004 75.0342 19.3995C75.0982 18.9628 75.1365 18.5152 75.2735 18.1023C75.3667 17.8209 75.4872 17.5542 75.5365 17.2527C75.5731 17.0389 75.7046 16.838 75.805 16.637C75.9165 16.4159 76.0334 16.1985 76.163 15.9866C76.2252 15.8861 76.322 15.8075 76.3987 15.7162C76.6014 15.4732 76.7676 15.179 77.0161 15C77.3138 14.7825 77.5768 14.4866 77.9805 14.4263C78.2928 14.3788 78.5997 14.2874 78.9084 14.2198C79.1349 14.1723 79.3742 14.07 79.5897 14.1047C80.103 14.1851 80.6126 14.313 81.1094 14.4646C81.2975 14.5213 81.4327 14.735 81.619 14.8136C81.8145 14.8958 81.9569 15.0127 82.1049 15.1589C82.2401 15.2905 82.3387 15.422 82.4282 15.5901C82.5378 15.8002 82.7296 15.9646 82.8775 16.1565C82.9122 16.2003 82.8976 16.2807 82.9287 16.3319C83.1351 16.6772 83.2721 17.0499 83.4237 17.4226C83.5369 17.7021 83.5826 17.9872 83.6575 18.2685C83.7068 18.4512 83.7908 18.6285 83.8182 18.8148C83.8986 19.3611 83.9132 19.922 84.0374 20.4573C84.2055 21.1808 84.1781 21.908 84.1908 22.6352C84.2018 23.2143 84.2511 23.8063 84.1488 24.369C84.0465 24.9409 84.0392 25.5054 83.999 26.0755C83.9753 26.408 83.9242 26.7606 83.7872 27.0584C83.6209 27.4202 83.6191 27.8039 83.5095 28.1693C83.4584 28.3392 83.3433 28.4908 83.2648 28.6534C83.1333 28.9238 83.0328 29.2125 82.8757 29.4683C82.5871 29.936 82.198 30.3215 81.7889 30.6906C81.6355 30.8294 81.5277 31.0085 81.2848 30.9866C81.2555 30.9847 81.208 31.0231 81.1898 31.056C81.1094 31.1967 80.9962 31.2423 80.8318 31.2515C80.5742 31.2661 80.3368 31.3447 80.103 31.478C79.966 31.5566 79.7541 31.4981 79.5769 31.5073C78.9522 31.5383 78.3458 31.3885 77.807 31.1218C77.206 30.824 76.6581 30.4074 76.3165 29.7953C76.1229 29.4482 76.0114 29.0389 75.7612 28.743C75.4927 28.4269 75.5347 28.0012 75.279 27.7015C75.2498 27.6687 75.2625 27.5992 75.2552 27.5462C75.1785 26.9269 75.1712 26.2892 75.0087 25.6936C74.7383 24.6997 74.8114 23.6967 74.7803 22.6954H74.7767ZM79.8308 28.1821C79.8929 28.0249 79.9039 27.9153 79.9641 27.8587C80.2363 27.5992 80.355 27.2612 80.4372 26.9159C80.4847 26.7131 80.4354 26.4884 80.4628 26.2783C80.5286 25.7704 80.6838 25.2624 80.6765 24.7564C80.6582 23.2673 80.8354 21.7746 80.5797 20.2838C80.5048 19.8471 80.355 19.3739 80.5249 18.908C80.5432 18.8568 80.4993 18.7801 80.4774 18.7162C80.4062 18.4951 80.3623 18.2576 80.2491 18.0602C80.1231 17.8392 79.9678 17.5633 79.7596 17.4792C79.566 17.4007 79.228 17.4683 79.049 17.5998C78.7915 17.7898 78.5942 18.0822 78.554 18.433C78.5339 18.5974 78.5376 18.7655 78.5029 18.9263C78.4773 19.045 78.3659 19.151 78.3604 19.2661C78.3166 20.1285 78.2654 20.9926 78.2618 21.8568C78.2581 22.8069 78.2746 23.7588 78.3348 24.7052C78.3823 25.4543 78.1887 26.2271 78.5193 26.9525C78.6582 27.2576 78.797 27.5645 78.9449 27.866C78.976 27.9299 79.0344 28.0103 79.0965 28.0268C79.3468 28.0907 79.6043 28.1345 79.8363 28.1802L79.8308 28.1821Z" fill="#90C31B"/>
<path d="M62.25 22.6012C62.25 25.2394 62.25 27.8795 62.25 30.5177C62.25 30.6895 62.2244 30.8649 62.2573 31.0293C62.3084 31.2906 62.1166 31.2485 61.9961 31.2485C61.2106 31.2558 60.427 31.2449 59.6416 31.2485C59.459 31.2485 59.2781 31.2796 59.0973 31.307C58.9512 31.3271 58.774 31.1206 58.7649 30.8941C58.7539 30.6456 58.7521 30.3953 58.7521 30.145C58.7557 26.142 58.7612 22.1389 58.7667 18.1359C58.7667 18.0372 58.7667 17.9404 58.7667 17.8417C58.7758 17.4635 58.5475 17.2918 58.1694 17.3777C58.0689 17.4014 57.9557 17.3703 57.8479 17.3649C57.7986 17.3612 57.7438 17.3429 57.6981 17.3576C57.3474 17.4635 57.1922 17.3539 57.1922 16.994C57.1922 16.4331 57.1958 15.8703 57.1867 15.3094C57.1867 15.2236 57.1319 15.1414 57.1063 15.0555C57.0917 15.0062 57.0735 14.955 57.0716 14.9038C57.0662 14.5622 57.2945 14.332 57.6379 14.332C59.0169 14.3301 60.3978 14.332 61.7769 14.3228C62.2774 14.3192 62.2408 14.2333 62.2427 14.8161C62.25 17.4105 62.2463 20.0049 62.2463 22.5993H62.25V22.6012Z" fill="#90C31B"/>
<path d="M72.8679 11.9182C72.5829 11.867 72.2797 11.8597 72.0204 11.7501C71.7829 11.6496 71.5838 11.4468 71.3865 11.2677C71.2057 11.1051 71.0431 10.9206 70.8897 10.7324C70.8349 10.6666 70.802 10.5643 70.8002 10.4766C70.7874 10.0528 70.7673 9.62527 70.7966 9.20323C70.8075 9.03697 70.9281 8.87071 71.023 8.72089C71.0998 8.6003 71.2112 8.50347 71.3116 8.39933C71.666 8.03392 72.0569 7.73794 72.603 7.7489C72.8752 7.75438 73.1528 7.72332 73.4195 7.76169C73.5784 7.78362 73.7337 7.87862 73.8853 7.96997C74.0387 8.06315 74.1757 8.15451 74.2981 8.28423C74.5483 8.55097 74.7365 8.83782 74.8954 9.17947C75.0433 9.49738 75.0598 9.79701 75.0086 10.082C74.9593 10.3506 74.9392 10.6721 74.6671 10.8768C74.5648 10.9535 74.5392 11.1252 74.446 11.2239C74.2926 11.3828 74.1501 11.5345 73.9145 11.624C73.3337 11.8469 73.3446 11.8761 72.8697 11.92L72.8679 11.9182ZM71.0979 9.84817C70.9573 10.5808 71.5199 10.9425 71.9455 11.3226C72.1573 11.5126 72.5373 11.582 72.8441 11.5875C73.456 11.6003 73.9711 11.2988 74.3401 10.8347C74.5063 10.6246 74.5593 10.2976 74.5922 10.0144C74.7419 8.7081 73.7118 8.05036 72.8496 8.04123C72.0806 8.03392 71.5235 8.53088 71.1801 9.20871C71.0888 9.38958 71.1217 9.63258 71.0979 9.84817Z" fill="#686868"/>
<path d="M44.9653 9.89169C44.9945 10.2352 45.0255 10.5129 45.0383 10.7906C45.0511 11.0665 45.0621 11.3442 45.0347 11.6164C45.0255 11.7078 44.8922 11.7882 44.8155 11.8722C44.7205 11.7827 44.5488 11.6986 44.5433 11.6055C44.5178 11.0464 44.5305 10.4837 44.5305 9.92275C44.5305 9.33079 44.5378 8.737 44.5305 8.14504C44.5269 7.82897 44.5926 7.75223 44.9233 7.7504C45.1023 7.7504 45.2813 7.76137 45.4584 7.74858C45.8037 7.723 46.0484 7.89839 46.2767 8.12312C46.5197 8.36246 46.6548 8.65296 46.5982 8.99279C46.5745 9.14078 46.4685 9.27598 46.3973 9.41666C46.3827 9.44407 46.3535 9.46599 46.3425 9.49523C46.2219 9.82775 46.063 9.94285 45.7251 9.94651C45.6301 9.94651 45.537 9.94651 45.4164 9.94651C45.8731 10.5915 46.306 11.2035 46.7535 11.8357C46.4174 11.8905 46.2037 11.7498 46.063 11.5105C45.9023 11.2382 45.6904 10.9971 45.5132 10.734C45.3854 10.5439 45.2794 10.3393 45.1571 10.1457C45.1114 10.0726 45.0529 10.0068 44.9634 9.89169H44.9653ZM44.9963 8.12677V9.55369C45.4128 9.61581 45.5753 9.59206 45.8804 9.41118C46.0923 9.28512 46.2676 9.10241 46.2183 8.85394C46.1781 8.65479 46.0356 8.47208 45.9169 8.29669C45.8658 8.21995 45.7616 8.14139 45.6758 8.13408C45.4402 8.11216 45.1991 8.12677 44.9963 8.12677Z" fill="#686868"/>
<path d="M66.738 11.8721V7.75761C67.3262 7.77771 67.9253 7.63155 68.4769 7.87637C68.7509 7.99878 68.9683 8.26188 69.1911 8.4793C69.4012 8.68575 69.4669 8.98904 69.6058 9.2229C69.8103 9.56821 69.7665 9.90621 69.6989 10.1839C69.6222 10.5018 69.5382 10.8782 69.2477 11.123C68.9993 11.3313 68.7674 11.5615 68.5025 11.7497C68.3874 11.8319 68.2139 11.8611 68.0641 11.8666C67.6294 11.8812 67.1947 11.8721 66.738 11.8721ZM67.1271 8.13398V11.4811C68.6413 11.6931 69.2167 10.8618 69.3062 9.88064C69.3427 9.4933 69.2423 9.1078 69.0541 8.82461C68.8532 8.51766 68.497 8.2564 68.1262 8.15043C67.8212 8.06456 67.4741 8.13216 67.1253 8.13216L67.1271 8.13398Z" fill="#686868"/>
<path d="M63.8665 7.59375C63.9742 7.77646 64.0838 7.92628 64.1551 8.09254C64.2774 8.3739 64.3779 8.6644 64.4857 8.95125C64.6282 9.33127 64.7195 9.74418 64.9277 10.084C65.0866 10.3434 65.0337 10.6869 65.3095 10.8933C65.388 10.9518 65.3825 11.1217 65.4172 11.2405C65.4739 11.436 65.5287 11.6333 65.5926 11.858H65.2419L64.7578 10.5992H63.0646C62.9495 10.7965 62.8308 10.9737 62.7413 11.1656C62.6755 11.3063 62.6408 11.4652 62.6134 11.6205C62.5751 11.8434 62.4509 11.8982 62.2317 11.8525C62.2317 11.5657 62.3066 11.3318 62.4691 11.0943C62.6007 10.9007 62.6116 10.6284 62.723 10.4165C62.8728 10.1296 62.8838 9.78255 63.1249 9.53224C63.2034 9.45185 63.229 9.30569 63.2473 9.18511C63.2783 8.97134 63.3331 8.78316 63.492 8.61872C63.5669 8.54016 63.5614 8.38669 63.6034 8.26976C63.6765 8.06879 63.7587 7.86964 63.8683 7.59375H63.8665ZM63.2071 10.1991H64.5934C64.3012 9.64004 64.2245 9.03346 63.8446 8.51458C63.7532 8.78864 63.682 9.00606 63.6071 9.2253C63.5687 9.33675 63.5578 9.48291 63.4811 9.54869C63.2783 9.72408 63.3368 9.97256 63.2071 10.1991Z" fill="#686868"/>
<path d="M41.5971 9.40995H43.1077V9.83384H41.5898V11.4983C42.0263 11.4983 42.4665 11.4983 42.9086 11.4983C43.2118 11.4983 43.2392 11.5312 43.2209 11.8582H41.2153V7.76562H43.2173C43.2392 8.07621 43.1972 8.12555 42.9122 8.12738C42.4775 8.12738 42.0428 8.12738 41.5971 8.12738V9.41178V9.40995Z" fill="#686868"/>
<path d="M61.1742 8.67288C61.0774 8.64913 60.9696 8.64365 60.9642 8.61807C60.9112 8.34767 60.6573 8.38056 60.4966 8.27276C60.3669 8.18689 60.2354 8.16497 60.1112 8.10833C59.8646 7.99688 59.6636 7.99871 59.4298 8.11929C59.2618 8.20516 59.0609 8.22343 58.8947 8.3093C58.7065 8.40796 58.5056 8.52124 58.3741 8.68019C58.2462 8.83366 58.1932 9.05291 58.1202 9.24657C58.0563 9.41832 57.9759 9.59554 57.9613 9.77459C57.9302 10.129 58.1238 10.4305 58.259 10.7411C58.3576 10.9676 58.5805 11.0791 58.7595 11.2362C59.0225 11.4646 59.3385 11.5139 59.6344 11.5706C59.8774 11.6181 60.1568 11.5212 60.4107 11.4482C60.5879 11.397 60.745 11.2801 60.9148 11.1924L61.0774 10.9384L61.1486 10.9713V11.4153C61.0135 11.5285 60.9112 11.6491 60.7833 11.7131C60.6262 11.7916 60.4509 11.8538 60.2774 11.8665C59.9577 11.8903 59.6308 11.9086 59.3166 11.8611C59.1157 11.83 58.8618 11.8538 58.723 11.6199C58.6901 11.5633 58.6042 11.5139 58.5385 11.5066C58.259 11.4756 58.164 11.2874 58.1111 11.0517C58.1037 11.0188 58.0672 10.9877 58.0362 10.9658C57.8279 10.8069 57.7384 10.5858 57.6836 10.341C57.6544 10.2076 57.5795 10.0742 57.585 9.9445C57.5978 9.66679 57.6161 9.37995 57.7001 9.11868C57.7549 8.94511 57.932 8.81357 58.0453 8.65461C58.1001 8.57788 58.1184 8.47556 58.1732 8.39883C58.2809 8.24718 58.4508 8.16862 58.5896 8.05717C58.975 7.74657 59.4116 7.73196 59.8591 7.75206C60.1349 7.76302 60.4144 7.79956 60.6774 7.87447C60.8454 7.92197 61.0281 8.03525 61.1231 8.1741C61.1998 8.28555 61.1578 8.47922 61.1724 8.67836L61.1742 8.67288Z" fill="#686868"/>
<path d="M39.7247 10.9847C39.8142 11.3629 39.7411 11.372 39.4416 11.6205C38.9265 12.0462 38.3438 11.8873 37.8123 11.8343C37.4981 11.8032 37.1017 11.6187 36.888 11.2551C36.7711 11.0578 36.5593 10.9189 36.4168 10.7326C36.3401 10.6321 36.2871 10.4896 36.2816 10.3635C36.2634 10.0164 36.2542 9.66745 36.2853 9.32213C36.2981 9.18145 36.4643 9.06087 36.4972 8.91653C36.5702 8.59863 36.8442 8.45429 37.0214 8.22774C37.0743 8.16014 37.131 8.08706 37.2004 8.04138C37.763 7.67414 38.3986 7.69059 39.0215 7.76732C39.2571 7.79656 39.5055 7.96647 39.6827 8.14004C39.7813 8.23505 39.7466 8.46891 39.7813 8.69729C39.469 8.4817 39.2334 8.20764 38.963 8.16562C38.6763 8.11994 38.4004 7.90252 38.0424 8.09254C37.8397 8.20033 37.5566 8.24783 37.3867 8.40496C37.1657 8.61142 36.9392 8.80691 36.7784 9.10654C36.5501 9.53407 36.7072 9.93602 36.6615 10.3416C36.6469 10.4676 36.773 10.6284 36.8716 10.7435C37.0579 10.9628 37.2643 11.1674 37.478 11.3629C37.5529 11.4305 37.6826 11.4999 37.7666 11.4798C38.0662 11.4141 38.3109 11.6589 38.6616 11.531C38.9758 11.4177 39.2644 11.2789 39.5494 11.1199C39.6096 11.0852 39.6608 11.0322 39.7229 10.9829L39.7247 10.9847Z" fill="#686868"/>
<path d="M54.5765 9.40423V9.82445H53.2303C53.2541 9.97792 53.2888 10.1058 53.2906 10.2318C53.2979 10.6685 53.2943 11.1052 53.2943 11.5418C53.2943 11.8725 53.2796 11.8853 52.9253 11.8469V7.76172H54.5582V8.11982H53.1847C53.3491 8.55831 53.318 8.96757 53.234 9.40423H54.5729H54.5765Z" fill="#686868"/>
<path d="M48.916 11.86H48.5379V8.13652H47.5242V7.76562H49.9553C49.9864 8.03785 49.9243 8.11825 49.6649 8.12555C49.4256 8.13103 49.1845 8.12555 48.916 8.12555V11.8582V11.86Z" fill="#686868"/>
<path d="M51.0129 7.76172H51.3563V11.8597H51.0129V7.76172Z" fill="#686868"/>
<path d="M56.0435 7.75769H56.3777V11.8557L56.0435 11.8722V7.75586V7.75769Z" fill="#686868"/>
<path d="M84.7188 41.2511C84.5654 40.9989 84.4119 40.7468 84.2549 40.4983C84.2055 40.4198 84.116 40.3978 84.0265 40.3997C83.8311 40.4033 83.6357 40.3887 83.4457 40.3412C82.9598 40.2151 82.6219 39.9137 82.4009 39.4734C82.2584 39.1902 82.1854 38.8869 82.158 38.5763C82.0831 37.6865 82.2091 36.8241 82.5269 35.991C82.7114 35.5069 82.989 35.0848 83.3927 34.7523C83.7617 34.4472 84.1873 34.29 84.664 34.2645C84.9709 34.248 85.2723 34.2718 85.5609 34.3832C85.9938 34.5513 86.2805 34.8674 86.4595 35.2876C86.6057 35.6311 86.6732 35.991 86.6787 36.3601C86.6897 37.0854 86.6038 37.798 86.3627 38.4849C86.1837 38.9928 85.9262 39.4533 85.5371 39.8315C85.528 39.8406 85.5207 39.8497 85.5097 39.8625C85.7179 40.111 85.9243 40.3595 86.1362 40.6134C85.9992 40.6755 85.8714 40.7322 85.7417 40.7907C85.4239 40.9332 85.1042 41.0757 84.7864 41.22C84.7681 41.2273 84.7517 41.2401 84.7334 41.2492H84.7206L84.7188 41.2511ZM83.8 38.125C83.7982 38.3114 83.8037 38.474 83.853 38.6329C83.9078 38.8047 84.0521 38.9051 84.2293 38.9015C84.3498 38.8978 84.4467 38.8449 84.5289 38.7645C84.633 38.6622 84.7024 38.5379 84.7353 38.3991C84.8047 38.1086 84.8759 37.8162 84.9252 37.5221C84.9727 37.2298 84.991 36.9319 85.0257 36.636C85.0512 36.4076 85.033 36.181 84.9782 35.9581C84.9581 35.8814 84.927 35.812 84.8613 35.7608C84.6969 35.6347 84.3955 35.6804 84.2804 35.8522C84.1781 36.0038 84.0978 36.1682 84.0503 36.3473C83.8914 36.9374 83.8183 37.5385 83.8 38.1268V38.125Z" fill="#016835"/>
<path d="M87.3398 34.3785H88.9965C88.9746 34.5448 88.9527 34.7092 88.9307 34.8736C88.8832 35.2299 88.8358 35.5862 88.7883 35.9406C88.7371 36.3261 88.686 36.7135 88.6348 37.099C88.58 37.5155 88.5234 37.9321 88.4704 38.3505C88.4631 38.4035 88.465 38.4565 88.465 38.5113C88.4704 38.7524 88.6129 38.8712 88.8522 38.8328C89.0495 38.8018 89.1499 38.7159 89.1865 38.5168C89.2413 38.2116 89.2887 37.9065 89.3326 37.5996C89.3874 37.2159 89.4367 36.8304 89.486 36.4467C89.539 36.0502 89.5901 35.6538 89.6413 35.2573C89.6778 34.9833 89.7143 34.7074 89.749 34.4333C89.7545 34.3913 89.7673 34.373 89.813 34.373C90.3317 34.373 90.8486 34.373 91.3674 34.373C91.382 34.373 91.3948 34.3749 91.4167 34.3785C91.4021 34.5027 91.3875 34.6252 91.3729 34.7457C91.3217 35.1367 91.2706 35.5259 91.2176 35.9169C91.1665 36.3024 91.1135 36.6897 91.0623 37.0752C91.0149 37.4297 90.9692 37.7823 90.9217 38.1367C90.8687 38.5259 90.7884 38.9096 90.6221 39.2677C90.3427 39.8688 89.8714 40.2269 89.2212 40.3438C88.7536 40.4278 88.2841 40.4351 87.8202 40.3127C87.2503 40.1629 86.916 39.7847 86.8284 39.2019C86.7754 38.8529 86.7918 38.5058 86.8357 38.1587C86.8886 37.7311 86.9471 37.3036 87.0019 36.8779C87.0567 36.4595 87.1133 36.0393 87.1699 35.6209C87.2247 35.208 87.2813 34.7951 87.338 34.3767L87.3398 34.3785Z" fill="#016835"/>
<path d="M80.2401 40.2853V40.2158C80.2401 39.9728 80.2401 39.7317 80.2401 39.4887C80.2401 39.4448 80.2291 39.4266 80.1816 39.4284C79.8876 39.4284 79.5935 39.4284 79.2994 39.4284C79.2611 39.4284 79.2446 39.4412 79.2355 39.4777C79.1752 39.7043 79.1113 39.929 79.051 40.1537C79.0181 40.2743 78.9907 40.2981 78.8665 40.2981C78.3989 40.2981 77.9331 40.2962 77.4655 40.2944C77.4454 40.2944 77.4253 40.2944 77.3979 40.2908C77.4381 40.1702 77.4765 40.0569 77.5149 39.9418C78.1523 38.1257 78.7916 36.3096 79.4291 34.4936C79.4675 34.3839 79.4839 34.373 79.599 34.373C80.1597 34.373 80.7223 34.373 81.2831 34.373C81.3287 34.373 81.3415 34.3894 81.3452 34.4314C81.3927 34.9942 81.442 35.5569 81.4913 36.1178C81.5297 36.5672 81.568 37.0185 81.6064 37.468C81.6447 37.9174 81.6867 38.3669 81.7251 38.8182C81.7635 39.2676 81.8018 39.7171 81.8402 40.1683C81.8438 40.2067 81.8475 40.2451 81.8511 40.2871H80.2364L80.2401 40.2853ZM79.5752 38.2171H80.2328C80.2182 37.5118 80.2054 36.8102 80.1908 36.1087L80.167 36.105C79.9698 36.8066 79.7743 37.5082 79.5752 38.2171Z" fill="#016835"/>
<path d="M91.203 40.2908C91.2194 40.1574 91.2359 40.0314 91.2523 39.9071C91.3035 39.5125 91.3564 39.1178 91.4076 38.7232C91.4587 38.3322 91.5117 37.9431 91.5628 37.5521C91.614 37.1629 91.6651 36.7756 91.7163 36.3864C91.7674 35.9954 91.8204 35.6063 91.8715 35.2153C91.9062 34.9522 91.9409 34.6909 91.9738 34.4278C91.9775 34.3913 91.9848 34.373 92.0268 34.373C92.551 34.373 93.0752 34.373 93.5995 34.373C93.6086 34.373 93.6196 34.3749 93.6342 34.3767C93.6122 34.5539 93.5922 34.7275 93.5684 34.9029C93.5209 35.261 93.4734 35.6191 93.4259 35.9753C93.3784 36.3316 93.331 36.6861 93.2835 37.0423C93.236 37.4004 93.1885 37.7585 93.1428 38.1166C93.0917 38.5058 93.0405 38.8931 92.9894 39.2823C92.951 39.5783 92.909 39.8761 92.8707 40.1721C92.8579 40.2689 92.8433 40.2853 92.7428 40.2853C92.2551 40.2853 91.7692 40.2853 91.2815 40.2872C91.2578 40.2872 91.2341 40.2872 91.2012 40.2872L91.203 40.2908Z" fill="#016835"/>
<path d="M63.5927 33.6641C63.5379 34.099 63.4831 34.5356 63.4265 34.9705C63.3717 35.3889 63.3133 35.8073 63.2566 36.2257C63.2055 36.6112 63.1562 36.9985 63.105 37.384C63.0612 37.7129 63.0155 38.0417 62.9735 38.3724C62.9297 38.7031 62.8895 39.0356 62.8475 39.3682C62.8183 39.5965 62.789 39.8231 62.7598 40.0515C62.7525 40.1081 62.7269 40.1355 62.663 40.1337C62.2173 40.13 61.7698 40.1337 61.3241 40.1337C61.2492 40.1337 61.2456 40.1264 61.2565 40.0515C61.2894 39.8176 61.3205 39.5838 61.3515 39.3499C61.3826 39.1124 61.4155 38.8749 61.4465 38.6355C61.4812 38.3706 61.5141 38.1075 61.5506 37.8426C61.5853 37.5758 61.6219 37.3109 61.6566 37.0442C61.6913 36.7792 61.7242 36.5161 61.7607 36.2512C61.7917 36.0174 61.8246 35.7835 61.8538 35.5496C61.8849 35.314 61.9141 35.0783 61.9452 34.8426C61.9799 34.5795 62.0164 34.3182 62.0511 34.0551C62.0675 33.9254 62.084 33.7939 62.1004 33.6641C62.5991 33.6641 63.0959 33.6641 63.5946 33.6641H63.5927Z" fill="#90C31B"/>
<path d="M69.5325 40.1253C69.549 39.9974 69.5636 39.8695 69.5818 39.7416C69.6129 39.5059 69.644 39.2702 69.675 39.0345C69.7061 38.7988 69.7371 38.5631 69.7682 38.3275C69.7992 38.0936 69.8357 37.8597 69.8558 37.6259C69.8686 37.4815 69.823 37.3938 69.728 37.3573C69.6038 37.308 69.4796 37.3354 69.3864 37.4395C69.2951 37.5437 69.2732 37.6734 69.2567 37.8049C69.2202 38.0717 69.1855 38.3384 69.1508 38.6033C69.1197 38.839 69.0905 39.0747 69.0594 39.3122C69.0266 39.5662 68.9937 39.8201 68.9608 40.0759C68.9553 40.1125 68.9462 40.1399 68.8969 40.1399C68.4329 40.1381 67.9708 40.1399 67.5069 40.1399C67.4977 40.1399 67.4868 40.1381 67.4685 40.1362C67.4813 40.0284 67.4922 39.9225 67.5069 39.8183C67.5379 39.5808 67.569 39.3415 67.6 39.1039C67.6347 38.8354 67.6713 38.5668 67.706 38.2982C67.7407 38.0333 67.7754 37.7684 67.8101 37.5053C67.8411 37.2751 67.874 37.0467 67.9032 36.8165C67.9343 36.5826 67.9653 36.3488 67.9946 36.1149C68.0073 36.0089 68.0293 35.9888 68.1334 35.9888C68.548 35.9888 68.9608 35.9888 69.3754 35.9888C69.4485 35.9888 69.4449 35.9888 69.4357 36.0638C69.4156 36.2081 69.3992 36.3524 69.3827 36.4968C69.3809 36.515 69.3882 36.5333 69.3919 36.568C69.4229 36.5351 69.443 36.515 69.4613 36.4931C69.6787 36.2264 69.9417 36.0254 70.2814 35.945C70.4769 35.8975 70.676 35.8865 70.8732 35.9267C71.1673 35.987 71.3427 36.1734 71.4303 36.4529C71.4413 36.4876 71.4523 36.5223 71.4669 36.5698C71.4906 36.5461 71.5071 36.5296 71.5253 36.5132C71.6459 36.3926 71.7555 36.2574 71.8888 36.1551C72.2541 35.8719 72.6633 35.8354 73.0907 35.9852C73.3245 36.0674 73.4578 36.2538 73.4871 36.4931C73.509 36.674 73.4998 36.8622 73.4852 37.0467C73.4688 37.2678 73.4341 37.487 73.4049 37.7063C73.3756 37.9383 73.3428 38.1703 73.3117 38.4024C73.2807 38.6344 73.2496 38.8664 73.2186 39.0985C73.1875 39.3323 73.1565 39.5662 73.1254 39.8001C73.1144 39.8768 73.1035 39.9553 73.0943 40.0321C73.0852 40.1143 73.0633 40.1362 72.9811 40.1381C72.5372 40.1417 72.0916 40.1417 71.6477 40.1454C71.5929 40.1454 71.5819 40.1271 71.5893 40.0741C71.6276 39.8037 71.6623 39.5333 71.697 39.2629C71.7317 38.9998 71.7701 38.7385 71.803 38.4754C71.8395 38.1849 71.8742 37.8926 71.9052 37.6021C71.9162 37.5016 71.8888 37.4085 71.7829 37.3628C71.6714 37.3153 71.5564 37.3372 71.4705 37.4212C71.3792 37.5108 71.3463 37.6277 71.3299 37.7501C71.2933 38.0223 71.2568 38.2946 71.2221 38.5668C71.1874 38.8354 71.1545 39.1039 71.118 39.3725C71.0869 39.6119 71.0522 39.853 71.0194 40.0924C71.0157 40.1253 71.0029 40.1454 70.9646 40.1454C70.4915 40.1454 70.0184 40.1454 69.5435 40.1435C69.5417 40.1435 69.5398 40.1435 69.5271 40.1362L69.5325 40.1253Z" fill="#90C31B"/>
<path d="M54.5803 40.1355H54.5164C53.9812 40.1355 53.446 40.1355 52.9108 40.1355C52.8542 40.1355 52.8359 40.1154 52.8268 40.0661C52.7099 39.4595 52.5912 38.8548 52.4724 38.2482C52.4542 38.1569 52.4377 38.0673 52.4195 37.976C52.4158 37.9577 52.4085 37.9413 52.4012 37.923H52.3775C52.3683 37.9833 52.3555 38.0436 52.3482 38.1039C52.308 38.4072 52.266 38.7105 52.2277 39.0119C52.193 39.2768 52.1601 39.5399 52.1254 39.8048C52.1126 39.898 52.0998 39.9912 52.0889 40.0862C52.0852 40.1209 52.0669 40.1355 52.0322 40.1355C51.519 40.1355 51.0075 40.1355 50.4943 40.1355C50.4395 40.1355 50.4395 40.1045 50.4449 40.0679C50.4614 39.9346 50.4815 39.7994 50.4979 39.666C50.529 39.4303 50.56 39.1946 50.5911 38.9589C50.6221 38.7269 50.6513 38.4949 50.6824 38.2628C50.7134 38.029 50.7445 37.7951 50.7756 37.5612C50.8066 37.3237 50.8395 37.0862 50.8705 36.8469C50.9016 36.613 50.9308 36.3791 50.9619 36.1453C50.9929 35.9114 51.024 35.6776 51.055 35.4437C51.0861 35.2117 51.1153 34.9796 51.1463 34.7476C51.1683 34.585 51.1884 34.4224 51.2084 34.2598C51.2139 34.2141 51.245 34.2141 51.2797 34.2141C51.5719 34.2141 51.8642 34.2141 52.1564 34.2141C52.5181 34.2141 52.8816 34.2105 53.2433 34.2159C53.5392 34.2214 53.8296 34.2634 54.1017 34.3858C54.5602 34.5941 54.8744 34.9303 54.9474 35.4401C55.057 36.2202 54.8068 36.9675 53.9976 37.395C53.9392 37.426 53.8807 37.4553 53.8205 37.479C53.7711 37.4991 53.762 37.5229 53.7784 37.5722C53.9355 38.0637 54.089 38.5552 54.2424 39.0466C54.3502 39.3883 54.4561 39.7281 54.5639 40.0698C54.5693 40.0862 54.573 40.1045 54.5803 40.1319V40.1355ZM52.5163 36.8377C52.5327 36.8432 52.5382 36.8469 52.5437 36.8469C52.7391 36.8816 53.0295 36.7701 53.1556 36.5271C53.2633 36.3189 53.2944 36.0941 53.2707 35.8639C53.2414 35.5679 53.0368 35.4035 52.7428 35.4419C52.7245 35.4437 52.6971 35.4693 52.6935 35.4876C52.677 35.5753 52.6661 35.6666 52.6551 35.7543C52.624 35.9936 52.5912 36.233 52.5601 36.4742C52.5437 36.5929 52.5309 36.7135 52.5144 36.8359L52.5163 36.8377Z" fill="#90C31B"/>
<path d="M65.9945 36.409C66.0109 36.3049 66.0292 36.1989 66.0438 36.0948C66.0584 35.9906 66.0566 35.9906 66.157 35.9906C66.5936 35.9906 67.0301 35.9906 67.4667 35.9906H67.5489C67.5361 36.0948 67.5251 36.1916 67.5123 36.2884C67.4813 36.5241 67.4502 36.7598 67.4192 36.9955C67.3881 37.2294 67.3571 37.4632 67.326 37.6971C67.295 37.9291 67.2657 38.1611 67.2347 38.3932C67.2036 38.6307 67.1708 38.8682 67.1397 39.1076C67.1087 39.3414 67.0794 39.5753 67.0484 39.8091C67.0356 39.9041 67.0246 40.001 67.01 40.096C67.0082 40.1106 66.9826 40.1234 66.9662 40.1344C66.9589 40.1398 66.9461 40.1344 66.9351 40.1344C66.484 40.1344 66.0328 40.1344 65.5835 40.1344C65.5104 40.1344 65.5122 40.1344 65.5214 40.0613C65.5378 39.948 65.5488 39.8347 65.5652 39.7013C65.5305 39.7287 65.5122 39.7434 65.4921 39.7598C65.3625 39.8676 65.2419 39.99 65.1013 40.0795C64.7652 40.2896 64.4053 40.3189 64.0437 40.149C63.8245 40.0467 63.693 39.8566 63.598 39.6392C63.4738 39.3579 63.4336 39.0601 63.4336 38.7549C63.4336 38.216 63.503 37.6861 63.6729 37.1727C63.777 36.8585 63.9195 36.5643 64.1441 36.314C64.3852 36.0436 64.683 35.8847 65.0483 35.8719C65.399 35.8591 65.673 36.0052 65.8812 36.283C65.9141 36.3268 65.947 36.3706 65.9798 36.4145L65.9981 36.4108L65.9945 36.409ZM64.9606 38.3987C64.9734 38.5083 64.9825 38.6197 65.0026 38.7275C65.0245 38.8353 65.0812 38.9285 65.1962 38.9541C65.3204 38.9833 65.4246 38.9303 65.4885 38.828C65.5561 38.7202 65.6145 38.6069 65.6584 38.4882C65.7351 38.2854 65.7497 38.068 65.7716 37.8542C65.788 37.6898 65.7753 37.5253 65.7296 37.3664C65.7004 37.2641 65.6419 37.1819 65.5323 37.1581C65.4227 37.1344 65.3314 37.1782 65.2675 37.2659C65.2163 37.3372 65.167 37.4121 65.1341 37.4943C65.0154 37.783 64.9734 38.0881 64.9606 38.3987Z" fill="#90C31B"/>
<path d="M57.3165 38.2327C56.9713 38.2327 56.6242 38.2327 56.279 38.2327C56.2479 38.2327 56.2187 38.2272 56.2114 38.2729C56.1858 38.4629 56.1639 38.6511 56.195 38.843C56.2516 39.1956 56.6133 39.2321 56.8215 39.0567C56.9092 38.9836 56.9676 38.8886 57.0096 38.7863C57.0352 38.7224 57.0717 38.6931 57.143 38.695C57.5046 38.695 57.8681 38.6913 58.2298 38.6895C58.2901 38.6895 58.301 38.7023 58.2827 38.7589C58.1074 39.3399 57.7841 39.804 57.2142 40.0598C56.8617 40.2187 56.4909 40.2735 56.1073 40.2461C55.9246 40.2333 55.7456 40.1913 55.5758 40.1201C55.1429 39.941 54.8926 39.614 54.8031 39.159C54.7447 38.8631 54.7246 38.5634 54.7429 38.2638C54.783 37.5677 55.0168 36.9465 55.4844 36.4258C55.7621 36.117 56.1183 35.9508 56.5292 35.8941C56.8818 35.8466 57.2306 35.874 57.574 35.9635C58.0599 36.0914 58.3394 36.4221 58.449 36.9026C58.5202 37.2169 58.5166 37.5348 58.4782 37.8527C58.4654 37.9495 58.4508 38.0482 58.438 38.145C58.4307 38.2035 58.3984 38.2327 58.3412 38.2327C57.9996 38.2327 57.6581 38.2327 57.3165 38.2327ZM56.3082 37.5348C56.3393 37.5348 56.3594 37.5384 56.3795 37.5384C56.6224 37.5384 56.8653 37.5384 57.1064 37.5384C57.185 37.5384 57.2179 37.5129 57.2179 37.4343C57.2179 37.332 57.2197 37.2279 57.2051 37.1274C57.1795 36.952 57.0681 36.8442 56.911 36.8259C56.7667 36.8095 56.6407 36.8551 56.5603 36.9739C56.4872 37.0835 56.4306 37.2059 56.374 37.3247C56.3448 37.3886 56.3301 37.4599 56.3064 37.5348H56.3082Z" fill="#90C31B"/>
<path d="M77.1805 38.6951C77.1257 38.8943 77.0618 39.0733 76.9686 39.2414C76.6508 39.8041 76.1686 40.1293 75.5311 40.2225C75.164 40.2755 74.7987 40.2682 74.4535 40.1184C74.0279 39.9357 73.7685 39.6105 73.679 39.1555C73.6278 38.8943 73.6077 38.6293 73.6169 38.3644C73.6443 37.6775 73.847 37.0508 74.2836 36.5136C74.5448 36.1921 74.8864 35.9984 75.2937 35.918C75.69 35.8394 76.0828 35.8486 76.4682 35.9692C76.9303 36.1117 77.2134 36.4259 77.323 36.8955C77.376 37.1257 77.4015 37.3614 77.3778 37.5989C77.3595 37.7852 77.334 37.9698 77.3139 38.1543C77.3084 38.2128 77.2846 38.2329 77.2244 38.2329C76.5595 38.231 75.8946 38.2329 75.2297 38.2329C75.2097 38.2329 75.1877 38.231 75.1676 38.2329C75.1202 38.242 75.0873 38.2621 75.0873 38.3224C75.0873 38.474 75.0781 38.6257 75.0763 38.7792C75.0763 38.971 75.1402 39.0843 75.2772 39.1318C75.4581 39.1957 75.6407 39.15 75.7503 39.0057C75.8051 38.9345 75.8471 38.8541 75.891 38.7737C75.9202 38.717 75.9585 38.6951 76.0225 38.6969C76.3787 38.6988 76.7348 38.6969 77.091 38.6969C77.1166 38.6969 77.144 38.6969 77.1824 38.6969L77.1805 38.6951ZM75.164 37.5295C75.1823 37.5331 75.1914 37.5368 75.2005 37.5368C75.4727 37.5368 75.743 37.5368 76.0152 37.5368C76.07 37.5368 76.0955 37.5057 76.0937 37.4546C76.0882 37.334 76.0882 37.2116 76.0718 37.0928C76.048 36.9101 75.88 36.7895 75.7047 36.8224C75.5604 36.848 75.4526 36.932 75.385 37.0599C75.3211 37.1768 75.2699 37.3011 75.2133 37.4217C75.1969 37.4564 75.1823 37.4911 75.1658 37.5313L75.164 37.5295Z" fill="#90C31B"/>
<path d="M61.0337 38.7948C61.0227 38.8916 61.0136 38.9757 61.0026 39.0615C60.9716 39.3063 60.9387 39.5493 60.9058 39.7942C60.8967 39.8618 60.8894 39.9294 60.8784 39.9951C60.8693 40.0499 60.8419 40.0865 60.7852 40.1066C60.5259 40.2052 60.2592 40.2619 59.9797 40.2582C59.3295 40.2491 58.7632 39.7686 58.6536 39.1291C58.6007 38.8185 58.5769 38.5043 58.6062 38.19C58.6683 37.4994 58.9075 36.8819 59.3952 36.3776C59.6601 36.1017 59.9925 35.9482 60.3706 35.8916C60.6939 35.8441 61.0099 35.8605 61.315 35.9884C61.3734 36.0122 61.4026 36.0341 61.3917 36.1127C61.335 36.4964 61.2876 36.88 61.2364 37.2728C61.1688 37.2546 61.1049 37.2327 61.0391 37.218C60.8127 37.1705 60.6336 37.2436 60.5058 37.4355C60.3195 37.7186 60.2373 38.0274 60.2738 38.3672C60.2811 38.4385 60.2866 38.5116 60.3049 38.581C60.3597 38.7984 60.5642 38.9081 60.8035 38.8532C60.8748 38.8368 60.946 38.8167 61.0318 38.7948H61.0337Z" fill="#90C31B"/>
</g>
<defs>
<clipPath id="clip0_1172_21361">
<rect width="94" height="48" fill="white"/>
</clipPath>
</defs>
</svg>
