<svg xmlns="http://www.w3.org/2000/svg" width="184.043" height="46.33" viewBox="0 0 184.043 46.33">
  <g id="Grupo_32086" data-name="Grupo 32086" transform="translate(-549.886 -437.111)">
    <g id="Grupo_32082" data-name="Grupo 32082" transform="translate(549.886 437.111)">
      <g id="Grupo_32080" data-name="Grupo 32080" transform="translate(0 4.139)">
        <path id="Caminho_37496" data-name="Caminho 37496" d="M573,560.527h0l23.116,8.573v-7.689L573,552.839l-23.116,8.573V569.1Z" transform="translate(-549.886 -531.048)"/>
        <path id="Caminho_37497" data-name="Caminho 37497" d="M573,464.156h0l-23.116-8.573v7.689L573,471.845l23.116-8.573v-7.689Z" transform="translate(-549.887 -455.583)"/>
      </g>
      <g id="Grupo_32081" data-name="Grupo 32081" transform="translate(0 0)">
        <path id="Caminho_37498" data-name="Caminho 37498" d="M573,587.155l-23.116,8.573,8.584,4.139L573,594.477l14.532,5.39,8.584-4.139L573,587.155h0Z" transform="translate(-549.886 -553.537)" fill="#19c1ce"/>
        <path id="Caminho_37499" data-name="Caminho 37499" d="M573,449.822l23.116-8.573-8.584-4.139L573,442.5l-14.532-5.389-8.584,4.139L573,449.822h0Z" transform="translate(-549.886 -437.111)" fill="#19c1ce"/>
      </g>
    </g>
    <g id="Grupo_32085" data-name="Grupo 32085" transform="translate(607.742 442.829)">
      <g id="Grupo_32083" data-name="Grupo 32083" transform="translate(0.02 0)">
        <path id="Caminho_37500" data-name="Caminho 37500" d="M967.2,472.609a2.6,2.6,0,0,0,.612,1.089,3.74,3.74,0,0,0,2.9,1.066c2.268,0,3.175-.907,3.175-1.814,0-1.452-2.2-1.792-4.423-2.268s-4.422-1.406-4.422-3.969c0-2.155,1.927-4.082,5.556-4.082a5.929,5.929,0,0,1,4.853,2.041,5.464,5.464,0,0,1,1.044,2.041h-2.721a2.2,2.2,0,0,0-.567-.839,3.622,3.622,0,0,0-2.608-.862c-2.063,0-2.835.68-2.835,1.588,0,1.021,1.248,1.5,2.79,1.814,2.608.522,6.055,1.156,6.055,4.422,0,2.268-2.019,4.309-5.9,4.309-2.88,0-4.49-1.112-5.352-2.268a5.392,5.392,0,0,1-1-2.268Z" transform="translate(-929.372 -462.63)"/>
        <path id="Caminho_37501" data-name="Caminho 37501" d="M1022.052,464.655h12.36v2.495h-4.876v11.113h-2.608V467.149h-4.876Z" transform="translate(-974.137 -464.201)"/>
        <path id="Caminho_37502" data-name="Caminho 37502" d="M1085.331,472.479l-1.474-5.33h-2.5l-1.474,5.33Zm-5.806-7.824h6.169l3.832,13.607h-2.608l-.907-3.289h-6.8l-.907,3.289h-2.608Z" transform="translate(-1015.759 -464.201)"/>
        <path id="Caminho_37503" data-name="Caminho 37503" d="M1135.913,464.655h12.36v2.495H1143.4v11.113h-2.608V467.149h-4.876Z" transform="translate(-1062.486 -464.201)"/>
        <rect id="Ret창ngulo_11041" data-name="Ret창ngulo 11041" width="2.608" height="13.607" transform="translate(87.599 0.454)"/>
        <path id="Caminho_37504" data-name="Caminho 37504" d="M1229.537,474.65a4.764,4.764,0,1,0-4.876-4.762,4.678,4.678,0,0,0,4.876,4.762m0-12.02a7.265,7.265,0,1,1-7.6,7.257,7.249,7.249,0,0,1,7.6-7.257" transform="translate(-1129.238 -462.63)"/>
        <path id="Caminho_37505" data-name="Caminho 37505" d="M1300.884,464.655h3.515l6.236,10.205h.227l-.227-1.814v-8.391h2.609v13.607h-3.515l-6.237-10.205h-.227l.227,1.814v8.391h-2.608Z" transform="translate(-1190.494 -464.201)"/>
        <path id="Caminho_37506" data-name="Caminho 37506" d="M815.562,469.494h-3.039v-3.288h3.039a1.656,1.656,0,1,1,0,3.288m3.753,2.527a4.29,4.29,0,0,0,1.256-.933,4.5,4.5,0,0,0,1.282-3.239c0-3.073-2.411-5.219-5.863-5.219H808.2v14.514h4.325v-4.183h2.648l2.36,4.183h4.359l-2.817-5.008Z" transform="translate(-808.198 -462.63)"/>
        <path id="Caminho_37507" data-name="Caminho 37507" d="M883.391,473.462v-7.149h1.644a3.576,3.576,0,1,1,0,7.149Zm9.867-3.575c0-4.205-3.413-7.257-8.115-7.257h-6.077v14.514h6.077c4.7,0,8.115-3.052,8.115-7.257" transform="translate(-863.187 -462.63)"/>
      </g>
      <g id="Grupo_32084" data-name="Grupo 32084" transform="translate(0 20.338)">
        <path id="Caminho_37508" data-name="Caminho 37508" d="M808.109,556.846h4.028l3.692,8.051h.336l3.692-8.051h4.028v13.607h-2.573v-8.732l.224-1.927h-.224l-3.468,7.484h-3.692l-3.468-7.484h-.224l.224,1.927v8.732h-2.573Z" transform="translate(-808.109 -556.075)"/>
        <path id="Caminho_37509" data-name="Caminho 37509" d="M892.652,555.474h6.223l3.867,13.914h-2.631l-.916-3.362h-6.864l-.916,3.362h-2.631Zm5.858,8-1.487-5.45h-2.517l-1.488,5.45Z" transform="translate(-870.709 -555.01)"/>
        <path id="Caminho_37510" data-name="Caminho 37510" d="M959.757,555.473h6.75c3.2,0,5.377,2.227,5.377,4.638a4.232,4.232,0,0,1-1.6,3.316,6.619,6.619,0,0,1-1.6.974l3.089,4.986h-3.089l-2.86-4.637h-3.432v4.637h-2.631Zm6.75,6.726c1.739,0,2.631-.9,2.631-2.087s-.892-2.087-2.631-2.087h-4.119V562.2Z" transform="translate(-925.779 -555.01)"/>
        <path id="Caminho_37511" data-name="Caminho 37511" d="M1025.625,555.473h2.631v5.566h2.631l3.776-5.566h2.974l-4.576,6.725,4.919,7.189h-3.089l-3.89-5.8h-2.746v5.8h-2.631Z" transform="translate(-976.889 -555.01)"/>
        <path id="Caminho_37512" data-name="Caminho 37512" d="M1088.428,555.473h10.3v2.552h-7.665v3.014h6.292v2.551h-6.292v3.247h7.665v2.551h-10.3Z" transform="translate(-1025.621 -555.01)"/>
        <path id="Caminho_37513" data-name="Caminho 37513" d="M1138.978,555.473h12.47v2.552h-4.92v11.363H1143.9V558.025h-4.919Z" transform="translate(-1064.845 -555.01)"/>
        <rect id="Ret창ngulo_11042" data-name="Ret창ngulo 11042" width="2.631" height="13.914" transform="translate(88.433 0.463)"/>
        <path id="Caminho_37514" data-name="Caminho 37514" d="M1228.841,555.473h3.547l6.292,10.436h.229l-.229-1.856v-8.58h2.632v13.914h-3.547l-6.292-10.436h-.229l.229,1.855v8.58h-2.631Z" transform="translate(-1134.573 -555.01)"/>
        <path id="Caminho_37515" data-name="Caminho 37515" d="M1303.4,553.4a7.239,7.239,0,0,1,5.789,2.55,7.933,7.933,0,0,1,1.419,2.552h-2.631a4.606,4.606,0,0,0-.984-1.392,4.858,4.858,0,0,0-3.592-1.392,5.106,5.106,0,0,0,0,10.2,4.729,4.729,0,0,0,3.707-1.624,6.132,6.132,0,0,0,.984-1.623H1305.8V560.13h6.865v2.551h-1.945a9.4,9.4,0,0,1-1.441,2.783,7.042,7.042,0,0,1-5.881,2.783,7.425,7.425,0,1,1,0-14.842" transform="translate(-1186.476 -553.404)"/>
      </g>
    </g>
  </g>
</svg>
