<svg width="64" height="87" viewBox="0 0 64 87" fill="none" xmlns="http://www.w3.org/2000/svg">
<g clip-path="url(#clip0_2_922)">
<path fill-rule="evenodd" clip-rule="evenodd" d="M22.4461 70.4769C20.2295 69.716 17.7132 70.6029 16.4974 72.7087L14.9614 75.3692L42.9238 91.5133L44.4598 88.8528C45.6757 86.7469 45.1855 84.1241 43.4179 82.5849L47.9929 74.6609C47.9969 74.654 48.0009 74.6471 48.0048 74.6403C51.3484 68.849 49.3642 61.4438 43.573 58.1003C37.7818 54.7567 30.3766 56.7409 27.033 62.5321L27.033 62.5321L22.4461 70.4769Z" fill="#1D5297"/>
<path fill-rule="evenodd" clip-rule="evenodd" d="M45.7265 52.3531L43.4563 56.2853L41.7086 55.2763L43.9789 51.3441L45.7265 52.3531Z" fill="white"/>
<path fill-rule="evenodd" clip-rule="evenodd" d="M51.432 77.7844L47.4998 75.5141L48.5088 73.7665L52.441 76.0367L51.432 77.7844Z" fill="white"/>
<path fill-rule="evenodd" clip-rule="evenodd" d="M22.5965 61.1357L18.6642 58.8654L19.6732 57.1177L23.6055 59.388L22.5965 61.1357Z" fill="white"/>
<path fill-rule="evenodd" clip-rule="evenodd" d="M54.9834 64.3469L50.5975 65.5221L50.0752 63.5728L54.4611 62.3976L54.9834 64.3469Z" fill="white"/>
<path fill-rule="evenodd" clip-rule="evenodd" d="M31.0708 48.8934L32.246 53.2792L30.2968 53.8015L29.1216 49.4157L31.0708 48.8934Z" fill="white"/>
<path d="M44.0052 73.4963C46.7915 68.6703 45.138 62.4993 40.312 59.713C35.486 56.9267 29.315 58.5802 26.5287 63.4062L21.4836 72.1445L19.736 71.1355L24.781 62.3972C28.1246 56.606 35.5298 54.6218 41.321 57.9654C47.1122 61.3089 49.0964 68.7141 45.7529 74.5053L43.2304 78.8745L41.4827 77.8655L44.0052 73.4963Z" fill="white"/>
<path fill-rule="evenodd" clip-rule="evenodd" d="M40.3377 81.865L21.9874 71.2705L24.0054 67.7751L22.2577 66.7661L20.1892 70.3488C17.9612 69.6023 15.4423 70.4988 14.2219 72.6126L12.7084 75.234L40.6708 91.3782L42.1843 88.7567C43.5775 86.3437 42.7507 83.2582 40.3377 81.865ZM20.1045 72.5136C18.6567 71.6777 16.8054 72.1738 15.9695 73.6216L15.465 74.4954L39.9322 88.6215L40.4367 87.7477C41.2726 86.2999 40.7765 84.4486 39.3287 83.6127L20.1045 72.5136Z" fill="white"/>
<path d="M44.0044 73.4961C46.7907 68.6701 45.1372 62.4991 40.3112 59.7128L41.3202 57.9651C47.1114 61.3087 49.0956 68.7139 45.7521 74.5051L43.2296 78.8742C42.9509 79.3568 42.3338 79.5222 41.8512 79.2436C41.3686 78.9649 41.2033 78.3478 41.4819 77.8652L44.0044 73.4961Z" fill="white"/>
<path fill-rule="evenodd" clip-rule="evenodd" d="M39.1672 63.7126C39.4459 63.23 40.063 63.0647 40.5456 63.3433C42.9586 64.7365 43.7853 67.822 42.3922 70.235C42.1136 70.7176 41.4965 70.8829 41.0139 70.6043C40.5313 70.3257 40.3659 69.7086 40.6445 69.226C41.4804 67.7782 40.9844 65.9269 39.5366 65.091C39.054 64.8123 38.8886 64.1952 39.1672 63.7126Z" fill="white"/>
<path fill-rule="evenodd" clip-rule="evenodd" d="M17.8028 32.7659C16.882 34.2771 16.7938 36.2314 17.7409 37.872L17.8473 38.0562L35.9046 27.6308L35.7983 27.4466C34.8512 25.8062 33.115 24.9055 31.346 24.9471L28.1091 19.3407L28.1088 19.3409C28.1088 19.3409 28.1088 19.3408 28.1088 19.3408C25.9496 15.601 21.1676 14.3197 17.4278 16.4789C13.688 18.638 12.4066 23.4201 14.5658 27.1599C14.578 27.181 14.5903 27.2021 14.6027 27.2231L17.8028 32.7659Z" fill="#1D5297"/>
<path fill-rule="evenodd" clip-rule="evenodd" d="M14.9099 13.4188L16.3759 15.9581L15.2473 16.6097L13.7813 14.0704L14.9099 13.4188Z" fill="white"/>
<path fill-rule="evenodd" clip-rule="evenodd" d="M30.9754 18.4394L28.4361 19.9054L27.7845 18.7768L30.3238 17.3108L30.9754 18.4394Z" fill="white"/>
<path fill-rule="evenodd" clip-rule="evenodd" d="M12.3539 29.19L9.8146 30.656L9.16302 29.5275L11.7023 28.0614L12.3539 29.19Z" fill="white"/>
<path fill-rule="evenodd" clip-rule="evenodd" d="M24.6061 12.1141L23.8473 14.9463L22.5885 14.609L23.3474 11.7768L24.6061 12.1141Z" fill="white"/>
<path fill-rule="evenodd" clip-rule="evenodd" d="M8.24305 20.4972L11.0753 21.2561L10.738 22.5149L7.90576 21.756L8.24305 20.4972Z" fill="white"/>
<path d="M26.1791 21.208C24.3798 18.0915 20.3948 17.0238 17.2783 18.8231C14.1618 20.6224 13.094 24.6074 14.8933 27.7239L18.1512 33.3668L17.0226 34.0184L13.7647 28.3755C11.6055 24.6357 12.8869 19.8537 16.6267 17.6945C20.3665 15.5353 25.1485 16.8167 27.3077 20.5565L28.9367 23.3779L27.8081 24.0295L26.1791 21.208Z" fill="white"/>
<path fill-rule="evenodd" clip-rule="evenodd" d="M29.6749 25.9613L17.8248 32.803L16.5216 30.5458L15.3931 31.1974L16.7288 33.511C15.5919 34.516 15.28 36.2142 16.068 37.5792L17.0454 39.2721L35.1027 28.8467L34.1254 27.1538C33.2257 25.5956 31.2332 25.0617 29.6749 25.9613ZM17.9121 34.2573C16.9772 34.7971 16.6568 35.9927 17.1966 36.9276L17.5224 37.4919L33.3226 28.3697L32.9968 27.8054C32.457 26.8704 31.2615 26.5501 30.3265 27.0899L17.9121 34.2573Z" fill="white"/>
<path d="M26.1791 21.208C24.3798 18.0915 20.3948 17.0238 17.2783 18.8231L16.6267 17.6945C20.3665 15.5353 25.1485 16.8167 27.3077 20.5565L28.9367 23.3779C29.1166 23.6896 29.0092 24.0885 28.6975 24.2684C28.3859 24.4484 27.988 24.3411 27.8081 24.0295L26.1791 21.208Z" fill="white"/>
<path fill-rule="evenodd" clip-rule="evenodd" d="M19.1451 20.755C18.9652 20.4433 19.072 20.0448 19.3836 19.8649C20.9419 18.9652 22.9344 19.4991 23.834 21.0574C24.014 21.369 23.9072 21.7675 23.5955 21.9474C23.2839 22.1274 22.8854 22.0206 22.7054 21.7089C22.1657 20.774 20.9701 20.4537 20.0352 20.9935C19.7235 21.1734 19.325 21.0666 19.1451 20.755Z" fill="white"/>
</g>
<defs>
<clipPath id="clip0_2_922">
<rect width="64" height="87" fill="white"/>
</clipPath>
</defs>
</svg>
