<svg xmlns="http://www.w3.org/2000/svg" width="147" height="134" viewBox="0 0 147 134">
  <g id="Grupo_40213" data-name="Grupo 40213" transform="translate(-710 -3459)">
    <path id="Retângulo_16005" data-name="Retângulo 16005" d="M0,0H147a0,0,0,0,1,0,0V124a10,10,0,0,1-10,10H10A10,10,0,0,1,0,124V0A0,0,0,0,1,0,0Z" transform="translate(710 3459)" fill="#1d5297"/>
    <path id="Caminho_247951" data-name="Caminho 247951" d="M48.163,15.551h1.88a2.649,2.649,0,0,0,1.99-.671A2.46,2.46,0,0,0,52.68,13.1a2.175,2.175,0,0,0-.641-1.672,2.484,2.484,0,0,0-1.764-.6,2.6,2.6,0,0,0-1.7.555,1.776,1.776,0,0,0-.684,1.447H44.367a4.339,4.339,0,0,1,.751-2.5,5,5,0,0,1,2.1-1.727,7.007,7.007,0,0,1,2.972-.623,6.646,6.646,0,0,1,4.419,1.349,4.6,4.6,0,0,1,1.6,3.717,3.74,3.74,0,0,1-.745,2.246,4.838,4.838,0,0,1-1.953,1.575,4.416,4.416,0,0,1,2.24,1.611,4.371,4.371,0,0,1,.739,2.539,4.679,4.679,0,0,1-1.727,3.8,6.945,6.945,0,0,1-4.572,1.428,6.585,6.585,0,0,1-4.352-1.4,4.585,4.585,0,0,1-1.691-3.711h3.528a2.044,2.044,0,0,0,.751,1.636,3.132,3.132,0,0,0,3.821-.031,2.3,2.3,0,0,0,.714-1.764q0-2.661-2.93-2.661H48.163Zm22.717,3.1a9,9,0,0,1-1.526,5.64,5.326,5.326,0,0,1-4.468,1.953,5.363,5.363,0,0,1-4.443-1.917,8.74,8.74,0,0,1-1.575-5.493V15.563a8.886,8.886,0,0,1,1.544-5.652,6.11,6.11,0,0,1,8.893-.018A8.713,8.713,0,0,1,70.88,15.38Zm-3.528-3.6a6.508,6.508,0,0,0-.6-3.22,2.042,2.042,0,0,0-1.886-1.008,2.006,2.006,0,0,0-1.837.959,6.091,6.091,0,0,0-.629,3v4.325a6.832,6.832,0,0,0,.592,3.232,2.015,2.015,0,0,0,1.9,1.057,1.981,1.981,0,0,0,1.868-1.014,6.669,6.669,0,0,0,.6-3.1ZM79.865,26V8.227h5.469a8.3,8.3,0,0,1,4.193,1.056,7.363,7.363,0,0,1,2.887,3,9.262,9.262,0,0,1,1.038,4.425v.818a9.288,9.288,0,0,1-1.019,4.407,7.3,7.3,0,0,1-2.875,2.991A8.368,8.368,0,0,1,85.37,26Zm3.662-14.807V23.058H85.3a3.977,3.977,0,0,0,3.284-1.4,6.344,6.344,0,0,0,1.16-4.016V16.7a6.444,6.444,0,0,0-1.123-4.108,3.963,3.963,0,0,0-3.284-1.4ZM100.006,26H96.344V8.227h3.662Zm13.428-3.662h-6.421L105.793,26H101.9l6.616-17.773h3.394L118.561,26h-3.894ZM108,19.372h4.443l-2.234-6.653Zm21.436,1.965a1.879,1.879,0,0,0-.732-1.593,9.607,9.607,0,0,0-2.637-1.172,18.692,18.692,0,0,1-3.015-1.215q-3.027-1.636-3.027-4.407a4.292,4.292,0,0,1,.812-2.57,5.3,5.3,0,0,1,2.332-1.764,8.776,8.776,0,0,1,3.412-.635,7.988,7.988,0,0,1,3.394.69,5.4,5.4,0,0,1,2.313,1.947,5.1,5.1,0,0,1,.824,2.856H129.45a2.4,2.4,0,0,0-.769-1.9,3.161,3.161,0,0,0-2.161-.677,3.377,3.377,0,0,0-2.087.568,1.79,1.79,0,0,0-.745,1.5,1.715,1.715,0,0,0,.873,1.453,9.861,9.861,0,0,0,2.57,1.1,11.1,11.1,0,0,1,4.553,2.332,4.643,4.643,0,0,1,1.428,3.467,4.277,4.277,0,0,1-1.746,3.619,7.642,7.642,0,0,1-4.7,1.312,9.075,9.075,0,0,1-3.735-.751,5.911,5.911,0,0,1-2.57-2.057,5.268,5.268,0,0,1-.885-3.027h3.674q0,2.942,3.516,2.942a3.42,3.42,0,0,0,2.039-.531A1.728,1.728,0,0,0,129.438,21.337ZM60.37,55.754a6.356,6.356,0,0,1-2.8,1.837,11.707,11.707,0,0,1-4,.653,7.932,7.932,0,0,1-4.047-1.007,6.717,6.717,0,0,1-2.686-2.924,10.29,10.29,0,0,1-.97-4.5V48.6a10.928,10.928,0,0,1,.9-4.608,6.637,6.637,0,0,1,2.588-2.979,7.454,7.454,0,0,1,3.961-1.031,7.424,7.424,0,0,1,4.944,1.508,6.443,6.443,0,0,1,2.112,4.388H56.806a3.544,3.544,0,0,0-1.08-2.234,3.45,3.45,0,0,0-2.3-.708,3.247,3.247,0,0,0-2.844,1.4,7.382,7.382,0,0,0-.989,4.175V49.65a7.027,7.027,0,0,0,1.062,4.224A3.637,3.637,0,0,0,53.766,55.3a4.062,4.062,0,0,0,2.942-.879V51.359H53.376v-2.7H60.37Zm9.546-4.26H67V58H63.337V40.227h6.6a7.465,7.465,0,0,1,4.858,1.4A4.845,4.845,0,0,1,76.508,45.6a5.468,5.468,0,0,1-.787,3.033,5.37,5.37,0,0,1-2.386,1.935l3.845,7.263V58H73.249ZM67,48.527h2.954a3.025,3.025,0,0,0,2.136-.7,2.509,2.509,0,0,0,.757-1.935,2.685,2.685,0,0,0-.714-1.978,2.968,2.968,0,0,0-2.191-.72H67Zm22.327,5.811H82.9L81.684,58H77.79l6.616-17.773H87.8L94.452,58H90.558Zm-5.432-2.966h4.443L86.1,44.719Zm2.966-15.906H90.7L87.323,39.25H84.455Zm22.632,7.727h-5.444V58h-3.662V43.193H95.014V40.227h14.478ZM115.473,58h-3.662V40.227h3.662Zm12.61-4.663a1.879,1.879,0,0,0-.732-1.593,9.607,9.607,0,0,0-2.637-1.172,18.692,18.692,0,0,1-3.015-1.215q-3.027-1.636-3.027-4.407a4.292,4.292,0,0,1,.812-2.57,5.3,5.3,0,0,1,2.332-1.764,8.776,8.776,0,0,1,3.412-.635,7.988,7.988,0,0,1,3.394.69,5.4,5.4,0,0,1,2.313,1.947,5.1,5.1,0,0,1,.824,2.856h-3.662a2.4,2.4,0,0,0-.769-1.9,3.161,3.161,0,0,0-2.161-.677,3.377,3.377,0,0,0-2.087.568,1.79,1.79,0,0,0-.745,1.5,1.715,1.715,0,0,0,.873,1.453,9.861,9.861,0,0,0,2.57,1.1,11.1,11.1,0,0,1,4.553,2.332,4.643,4.643,0,0,1,1.428,3.467,4.277,4.277,0,0,1-1.746,3.619,7.642,7.642,0,0,1-4.7,1.312,9.075,9.075,0,0,1-3.735-.751,5.911,5.911,0,0,1-2.57-2.057,5.268,5.268,0,0,1-.885-3.027H121.8q0,2.942,3.516,2.942a3.42,3.42,0,0,0,2.039-.531A1.728,1.728,0,0,0,128.083,53.337Z" transform="translate(694.853 3494)" fill="#fff"/>
  </g>
</svg>
