<svg width="133" height="60" viewBox="0 0 133 60" fill="none" xmlns="http://www.w3.org/2000/svg">
<path d="M32.9005 52.3979C38.4756 52.3969 43.8221 50.1817 47.7642 46.2396C51.7064 42.2974 53.9216 36.9509 53.9226 31.3758H11.8784C11.8784 36.9512 14.0933 42.2982 18.0357 46.2407C21.9781 50.1831 27.3251 52.3979 32.9005 52.3979Z" fill="#CDD8DF"/>
<path d="M25.9567 39.2603C30.3108 39.2603 33.8406 35.7306 33.8406 31.3764C33.8406 27.0222 30.3108 23.4925 25.9567 23.4925C21.6025 23.4925 18.0728 27.0222 18.0728 31.3764C18.0728 35.7306 21.6025 39.2603 25.9567 39.2603Z" fill="white"/>
<path d="M25.9567 39.2585C24.3974 39.2585 22.8731 38.7961 21.5766 37.9298C20.2801 37.0635 19.2696 35.8322 18.6729 34.3916C18.0762 32.951 17.92 31.3658 18.2242 29.8365C18.5284 28.3071 19.2793 26.9024 20.3819 25.7998C21.4845 24.6972 22.8893 23.9464 24.4186 23.6422C25.9479 23.338 27.5332 23.494 28.9737 24.0907C30.4143 24.6875 31.6456 25.698 32.5119 26.9945C33.3782 28.291 33.8406 29.8153 33.8406 31.3745C33.8383 33.4648 33.0069 35.4687 31.5289 36.9468C30.0509 38.4248 28.0469 39.2561 25.9567 39.2585ZM25.9567 27.1648C25.1243 27.1648 24.3107 27.4116 23.6186 27.8741C22.9265 28.3365 22.3871 28.9937 22.0686 29.7627C21.75 30.5318 21.6667 31.378 21.829 32.1943C21.9914 33.0107 22.3923 33.7606 22.9808 34.3491C23.5694 34.9377 24.3193 35.3385 25.1357 35.5009C25.952 35.6633 26.7982 35.58 27.5672 35.2615C28.3362 34.9429 28.9935 34.4035 29.4559 33.7114C29.9184 33.0193 30.1652 32.2057 30.1652 31.3733C30.1652 30.2571 29.7218 29.1867 28.9325 28.3975C28.1433 27.6082 27.0729 27.1648 25.9567 27.1648Z" fill="#1F2044"/>
<path d="M31.8765 52.2257H18.7103L17.8941 46.3593C17.2179 46.0261 16.5663 45.6451 15.9442 45.2192L10.5178 47.4191L7.2938 42.3511L3.93975 36.0434L8.58315 32.382L8.50535 31.2929L8.58568 30.1515L3.89258 26.5271L10.4604 15.1464L15.9544 17.3526C16.5753 16.9322 17.2247 16.5554 17.8979 16.2252L18.7129 10.3728L25.0218 10.341L31.8765 10.3716L32.6927 16.2239C33.3669 16.5545 34.0172 16.9316 34.6389 17.3526L40.1226 15.1502L43.4384 20.736L46.6879 26.5399L42.0075 30.1554L42.0879 31.2955L42.0075 32.4356L46.7121 36.0702L43.3032 41.9008L40.1533 47.4459L34.6427 45.2396C34.0209 45.6595 33.3711 46.0361 32.6978 46.367L31.8765 52.2257ZM21.9088 48.549H28.6781L29.3387 43.8075L30.3143 43.407C31.3664 42.9741 32.3553 42.401 33.2539 41.7032L34.0866 41.0554L38.5362 42.8407L41.9017 37.0025L38.1969 34.1419L38.3959 31.2955L38.1969 28.449L41.9259 25.5694L40.2489 22.5711L38.5655 19.7348L34.0866 21.5331L33.2539 20.8852C32.3555 20.1864 31.3661 19.6132 30.313 19.1814L29.3374 18.7797L28.6756 14.0305L25.0205 14.0151L21.9113 14.0305L21.2494 18.7784L20.2751 19.1801C19.2226 19.6122 18.2337 20.1854 17.3355 20.8839L16.5028 21.5317L12.0392 19.7374L8.67368 25.5745L12.3899 28.4439L12.191 31.2865L12.3912 34.0578L8.62651 37.0254L10.5063 40.558L11.9729 42.8599L16.5092 41.0196L17.3483 41.6866C18.2371 42.391 19.2207 42.9667 20.27 43.3968L21.2482 43.7972L21.9088 48.549Z" fill="#1F2044"/>
<path d="M76.676 21.7V23.392H80.444V25.12H76.676V28H74.696V19.96H80.912V21.7H76.676ZM84.4627 21.796C86.1547 21.796 87.2227 22.648 87.2227 24.184V28H85.3747V27.556C84.9547 27.916 84.3787 28.18 83.5747 28.18C82.2307 28.18 81.3307 27.4 81.3307 26.212C81.3307 25.036 82.2307 24.268 83.8387 24.268H85.3747V24.148C85.3747 23.644 85.0267 23.308 84.5227 23.308C83.9467 23.308 83.6107 23.536 83.5147 24.064L81.7027 23.692C81.9667 22.528 83.0227 21.796 84.4627 21.796ZM84.1147 26.74C84.7747 26.74 85.3747 26.296 85.3747 25.624V25.492H84.0547C83.5747 25.492 83.2747 25.744 83.2747 26.116C83.2747 26.5 83.6107 26.74 84.1147 26.74ZM91.3107 26.5C91.9227 26.5 92.4147 26.176 92.6187 25.444L94.3827 25.828C94.1307 27.04 93.1707 27.892 91.9587 28.12L91.4067 29.92H89.4147L90.5547 28.096C89.1147 27.796 88.0227 26.62 88.0227 24.988C88.0227 23.092 89.5107 21.796 91.3107 21.796C92.7747 21.796 94.0467 22.696 94.3827 24.112L92.5827 24.544C92.4147 23.812 91.9227 23.476 91.3107 23.476C90.4467 23.476 89.8707 24.112 89.8707 24.988C89.8707 25.876 90.4467 26.5 91.3107 26.5ZM98.0096 21.796C99.7016 21.796 100.77 22.648 100.77 24.184V28H98.9216V27.556C98.5016 27.916 97.9256 28.18 97.1216 28.18C95.7776 28.18 94.8776 27.4 94.8776 26.212C94.8776 25.036 95.7776 24.268 97.3856 24.268H98.9216V24.148C98.9216 23.644 98.5736 23.308 98.0696 23.308C97.4936 23.308 97.1576 23.536 97.0616 24.064L95.2496 23.692C95.5136 22.528 96.5696 21.796 98.0096 21.796ZM97.6616 26.74C98.3216 26.74 98.9216 26.296 98.9216 25.624V25.492H97.6016C97.1216 25.492 96.8216 25.744 96.8216 26.116C96.8216 26.5 97.1576 26.74 97.6616 26.74ZM111.091 21.964L108.595 28H106.639L104.143 21.964H106.171L107.623 25.684L109.063 21.964H111.091ZM114.597 21.82C116.385 21.82 117.897 23.092 117.897 24.988C117.897 26.896 116.385 28.168 114.597 28.168C112.773 28.168 111.261 26.896 111.261 24.988C111.261 23.092 112.773 21.82 114.597 21.82ZM114.597 26.548C115.341 26.548 116.049 25.936 116.049 24.988C116.049 24.052 115.341 23.428 114.597 23.428C113.817 23.428 113.109 24.052 113.109 24.988C113.109 25.936 113.817 26.548 114.597 26.548ZM121.779 26.5C122.391 26.5 122.883 26.176 123.087 25.444L124.851 25.828C124.551 27.256 123.279 28.18 121.779 28.18C119.979 28.18 118.491 26.896 118.491 24.988C118.491 23.092 119.979 21.796 121.779 21.796C123.243 21.796 124.515 22.696 124.851 24.112L123.051 24.544C122.883 23.812 122.391 23.476 121.779 23.476C120.915 23.476 120.339 24.112 120.339 24.988C120.339 25.876 120.915 26.5 121.779 26.5ZM128.188 21.268H126.34L127.72 19.408H129.628L131.02 21.268H129.16L128.68 20.596L128.188 21.268ZM131.752 24.988V25.48H127.336C127.492 26.2 127.984 26.644 128.632 26.644C129.076 26.644 129.592 26.536 129.916 25.948L131.62 26.296C131.104 27.568 130.012 28.18 128.632 28.18C126.892 28.18 125.452 26.896 125.452 24.988C125.452 23.092 126.892 21.796 128.644 21.796C130.348 21.796 131.716 23.02 131.752 24.988ZM128.644 23.356C128.104 23.356 127.552 23.692 127.372 24.304H129.856C129.676 23.656 129.196 23.356 128.644 23.356ZM82.496 37.796C83.78 37.796 84.8 38.768 84.8 40.232V44H82.892V40.64C82.892 39.956 82.448 39.524 81.884 39.524C81.176 39.524 80.708 40.04 80.708 41.048V44H78.788V40.64C78.788 39.956 78.344 39.524 77.768 39.524C77.072 39.524 76.616 40.04 76.616 41.048V44H74.696V37.976H76.616V38.528C77.024 38.072 77.612 37.796 78.392 37.796C79.232 37.796 79.952 38.156 80.36 38.816C80.84 38.192 81.56 37.796 82.496 37.796ZM92.0141 40.988V41.48H87.5981C87.7541 42.2 88.2461 42.644 88.8941 42.644C89.3381 42.644 89.8541 42.536 90.1781 41.948L91.8821 42.296C91.3661 43.568 90.2741 44.18 88.8941 44.18C87.1541 44.18 85.7141 42.896 85.7141 40.988C85.7141 39.092 87.1541 37.796 88.9061 37.796C90.6101 37.796 91.9781 39.02 92.0141 40.988ZM88.9061 39.356C88.3661 39.356 87.8141 39.692 87.6341 40.304H90.1181C89.9381 39.656 89.4581 39.356 88.9061 39.356ZM92.6044 42.428L94.4764 42.044C94.5604 42.56 95.0284 42.752 95.5444 42.752C96.0484 42.752 96.3244 42.536 96.3244 42.272C96.3244 42.068 96.1684 41.912 95.7244 41.828L94.5004 41.588C93.3844 41.384 92.7484 40.784 92.7484 39.836C92.7484 38.6 93.8164 37.796 95.3404 37.796C96.8404 37.796 97.8364 38.48 98.0764 39.524L96.3244 39.872C96.2644 39.5 95.9044 39.164 95.3164 39.164C94.8004 39.164 94.6324 39.416 94.6324 39.632C94.6324 39.8 94.7044 39.968 95.0884 40.052L96.5044 40.34C97.6444 40.58 98.1724 41.264 98.1724 42.152C98.1724 43.484 97.0204 44.18 95.4364 44.18C94.0204 44.18 92.8084 43.664 92.6044 42.428ZM106.953 37.796C108.237 37.796 109.257 38.768 109.257 40.232V44H107.349V40.64C107.349 39.956 106.905 39.524 106.341 39.524C105.633 39.524 105.165 40.04 105.165 41.048V44H103.245V40.64C103.245 39.956 102.801 39.524 102.225 39.524C101.529 39.524 101.073 40.04 101.073 41.048V44H99.153V37.976H101.073V38.528C101.481 38.072 102.069 37.796 102.849 37.796C103.689 37.796 104.409 38.156 104.817 38.816C105.297 38.192 106.017 37.796 106.953 37.796ZM113.507 37.82C115.295 37.82 116.807 39.092 116.807 40.988C116.807 42.896 115.295 44.168 113.507 44.168C111.683 44.168 110.171 42.896 110.171 40.988C110.171 39.092 111.683 37.82 113.507 37.82ZM113.507 42.548C114.251 42.548 114.959 41.936 114.959 40.988C114.959 40.052 114.251 39.428 113.507 39.428C112.727 39.428 112.019 40.052 112.019 40.988C112.019 41.936 112.727 42.548 113.507 42.548Z" fill="#1F2044"/>
<line x1="64.5" y1="13" x2="64.5" y2="48" stroke="#1F2044"/>
</svg>
