<svg width="150" height="60" viewBox="0 0 150 60" fill="none" xmlns="http://www.w3.org/2000/svg">
<path d="M32.9005 52.3979C38.4756 52.3969 43.8221 50.1817 47.7642 46.2396C51.7064 42.2974 53.9216 36.9509 53.9226 31.3758H11.8784C11.8784 36.9512 14.0933 42.2982 18.0357 46.2407C21.9781 50.1831 27.3251 52.3979 32.9005 52.3979Z" fill="#CDD8DF"/>
<path d="M25.9567 39.2603C30.3108 39.2603 33.8406 35.7306 33.8406 31.3764C33.8406 27.0222 30.3108 23.4925 25.9567 23.4925C21.6025 23.4925 18.0728 27.0222 18.0728 31.3764C18.0728 35.7306 21.6025 39.2603 25.9567 39.2603Z" fill="white"/>
<path d="M25.9567 39.2585C24.3974 39.2585 22.8731 38.7961 21.5766 37.9298C20.2801 37.0635 19.2696 35.8322 18.6729 34.3916C18.0762 32.951 17.92 31.3658 18.2242 29.8365C18.5284 28.3071 19.2793 26.9024 20.3819 25.7998C21.4845 24.6972 22.8893 23.9464 24.4186 23.6422C25.9479 23.338 27.5332 23.494 28.9737 24.0907C30.4143 24.6875 31.6456 25.698 32.5119 26.9945C33.3782 28.291 33.8406 29.8153 33.8406 31.3745C33.8383 33.4648 33.0069 35.4687 31.5289 36.9468C30.0509 38.4248 28.0469 39.2561 25.9567 39.2585ZM25.9567 27.1648C25.1243 27.1648 24.3107 27.4116 23.6186 27.8741C22.9265 28.3365 22.3871 28.9937 22.0686 29.7627C21.75 30.5318 21.6667 31.378 21.829 32.1943C21.9914 33.0107 22.3923 33.7606 22.9808 34.3491C23.5694 34.9377 24.3193 35.3385 25.1357 35.5009C25.952 35.6633 26.7982 35.58 27.5672 35.2615C28.3362 34.9429 28.9935 34.4035 29.4559 33.7114C29.9184 33.0193 30.1652 32.2057 30.1652 31.3733C30.1652 30.2571 29.7218 29.1867 28.9325 28.3975C28.1433 27.6082 27.0729 27.1648 25.9567 27.1648Z" fill="#1F2044"/>
<path d="M31.8765 52.2257H18.7103L17.8941 46.3593C17.2179 46.0261 16.5663 45.6451 15.9442 45.2192L10.5178 47.4191L7.2938 42.3511L3.93975 36.0434L8.58315 32.382L8.50535 31.2929L8.58568 30.1515L3.89258 26.5271L10.4604 15.1464L15.9544 17.3526C16.5753 16.9322 17.2247 16.5554 17.8979 16.2252L18.7129 10.3728L25.0218 10.341L31.8765 10.3716L32.6927 16.2239C33.3669 16.5545 34.0172 16.9316 34.6389 17.3526L40.1226 15.1502L43.4384 20.736L46.6879 26.5399L42.0075 30.1554L42.0879 31.2955L42.0075 32.4356L46.7121 36.0702L43.3032 41.9008L40.1533 47.4459L34.6427 45.2396C34.0209 45.6595 33.3711 46.0361 32.6978 46.367L31.8765 52.2257ZM21.9088 48.549H28.6781L29.3387 43.8075L30.3143 43.407C31.3664 42.9741 32.3553 42.401 33.2539 41.7032L34.0866 41.0554L38.5362 42.8407L41.9017 37.0025L38.1969 34.1419L38.3959 31.2955L38.1969 28.449L41.9259 25.5694L40.2489 22.5711L38.5655 19.7348L34.0866 21.5331L33.2539 20.8852C32.3555 20.1864 31.3661 19.6132 30.313 19.1814L29.3374 18.7797L28.6756 14.0305L25.0205 14.0151L21.9113 14.0305L21.2494 18.7784L20.2751 19.1801C19.2226 19.6122 18.2337 20.1854 17.3355 20.8839L16.5028 21.5317L12.0392 19.7374L8.67368 25.5745L12.3899 28.4439L12.191 31.2865L12.3912 34.0578L8.62651 37.0254L10.5063 40.558L11.9729 42.8599L16.5092 41.0196L17.3483 41.6866C18.2371 42.391 19.2207 42.9667 20.27 43.3968L21.2482 43.7972L21.9088 48.549Z" fill="#1F2044"/>
<path d="M82.028 19.96V28H80.06V24.82H76.676V28H74.696V19.96H76.676V23.092H80.06V19.96H82.028ZM86.9905 21.196H85.2865L86.1385 19.372H88.4185L86.9905 21.196ZM86.1385 21.796C87.8305 21.796 88.8985 22.648 88.8985 24.184V28H87.0505V27.556C86.6305 27.916 86.0545 28.18 85.2505 28.18C83.9065 28.18 83.0065 27.4 83.0065 26.212C83.0065 25.036 83.9065 24.268 85.5145 24.268H87.0505V24.148C87.0505 23.644 86.7025 23.308 86.1985 23.308C85.6225 23.308 85.2865 23.536 85.1905 24.064L83.3785 23.692C83.6425 22.528 84.6985 21.796 86.1385 21.796ZM85.7905 26.74C86.4505 26.74 87.0505 26.296 87.0505 25.624V25.492H85.7305C85.2505 25.492 84.9505 25.744 84.9505 26.116C84.9505 26.5 85.2865 26.74 85.7905 26.74ZM96.4304 21.976V28.12C96.4304 29.98 94.8464 31 92.8904 31C91.5104 31 90.4664 30.52 89.8784 29.548L91.4744 28.564C91.9184 29.104 92.2664 29.308 92.8904 29.308C93.7544 29.308 94.5104 28.876 94.5104 27.928V27.484C94.0544 27.928 93.4304 28.18 92.6384 28.18C91.0424 28.18 89.6984 26.896 89.6984 24.988C89.6984 23.092 91.0424 21.796 92.6384 21.796C93.4304 21.796 94.0544 22.048 94.5104 22.492V21.976H96.4304ZM93.0344 26.548C93.8144 26.548 94.5104 25.924 94.5104 24.988C94.5104 24.064 93.8144 23.428 93.0344 23.428C92.1944 23.428 91.5824 24.064 91.5824 24.988C91.5824 25.924 92.1944 26.548 93.0344 26.548ZM100.529 21.796C102.221 21.796 103.289 22.648 103.289 24.184V28H101.441V27.556C101.021 27.916 100.445 28.18 99.6411 28.18C98.2971 28.18 97.3971 27.4 97.3971 26.212C97.3971 25.036 98.2971 24.268 99.9051 24.268H101.441V24.148C101.441 23.644 101.093 23.308 100.589 23.308C100.013 23.308 99.6771 23.536 99.5811 24.064L97.7691 23.692C98.0331 22.528 99.0891 21.796 100.529 21.796ZM100.181 26.74C100.841 26.74 101.441 26.296 101.441 25.624V25.492H100.121C99.6411 25.492 99.3411 25.744 99.3411 26.116C99.3411 26.5 99.6771 26.74 100.181 26.74ZM106.298 18.76V25.948C106.298 26.26 106.526 26.476 106.874 26.476C107.042 26.476 107.294 26.404 107.57 26.308L107.87 27.808C107.522 27.976 107.15 28.18 106.454 28.18C105.206 28.18 104.378 27.34 104.378 26.092V18.76H106.298ZM111.374 21.82C113.162 21.82 114.674 23.092 114.674 24.988C114.674 26.896 113.162 28.168 111.374 28.168C109.55 28.168 108.038 26.896 108.038 24.988C108.038 23.092 109.55 21.82 111.374 21.82ZM111.374 26.548C112.118 26.548 112.826 25.936 112.826 24.988C112.826 24.052 112.118 23.428 111.374 23.428C110.594 23.428 109.886 24.052 109.886 24.988C109.886 25.936 110.594 26.548 111.374 26.548ZM80.72 37.976V44H78.8V43.424C78.344 43.904 77.708 44.18 76.952 44.18C75.548 44.18 74.612 43.184 74.612 41.672V37.976H76.52V41.264C76.52 41.972 76.94 42.452 77.552 42.452C78.308 42.452 78.8 41.936 78.8 40.772V37.976H80.72ZM81.6708 42.428L83.5428 42.044C83.6268 42.56 84.0948 42.752 84.6108 42.752C85.1148 42.752 85.3908 42.536 85.3908 42.272C85.3908 42.068 85.2348 41.912 84.7908 41.828L83.5668 41.588C82.4508 41.384 81.8148 40.784 81.8148 39.836C81.8148 38.6 82.8828 37.796 84.4068 37.796C85.9068 37.796 86.9028 38.48 87.1428 39.524L85.3908 39.872C85.3308 39.5 84.9708 39.164 84.3828 39.164C83.8668 39.164 83.6988 39.416 83.6988 39.632C83.6988 39.8 83.7708 39.968 84.1548 40.052L85.5708 40.34C86.7108 40.58 87.2388 41.264 87.2388 42.152C87.2388 43.484 86.0868 44.18 84.5028 44.18C83.0868 44.18 81.8748 43.664 81.6708 42.428ZM92.2746 42.224L92.7186 43.736C92.2506 43.988 91.7586 44.18 91.0746 44.18C89.5746 44.18 88.6746 43.364 88.6746 41.78V39.5H87.5826V37.976H88.6746V35.96H90.5946V37.976H92.3706V39.5H90.5946V41.588C90.5946 42.212 90.8946 42.464 91.3986 42.464C91.6626 42.464 92.0226 42.368 92.2746 42.224ZM99.2328 40.988V41.48H94.8168C94.9728 42.2 95.4648 42.644 96.1128 42.644C96.5568 42.644 97.0728 42.536 97.3968 41.948L99.1008 42.296C98.5848 43.568 97.4928 44.18 96.1128 44.18C94.3728 44.18 92.9328 42.896 92.9328 40.988C92.9328 39.092 94.3728 37.796 96.1248 37.796C97.8288 37.796 99.1968 39.02 99.2328 40.988ZM96.1248 39.356C95.5848 39.356 95.0328 39.692 94.8528 40.304H97.3368C97.1568 39.656 96.6768 39.356 96.1248 39.356ZM106.567 34.76V44H104.647V43.484C104.191 43.928 103.567 44.18 102.775 44.18C101.179 44.18 99.8352 42.896 99.8352 40.988C99.8352 39.092 101.179 37.796 102.775 37.796C103.567 37.796 104.191 38.048 104.647 38.492V34.76H106.567ZM103.171 42.548C103.951 42.548 104.647 41.924 104.647 40.988C104.647 40.064 103.951 39.428 103.171 39.428C102.331 39.428 101.719 40.064 101.719 40.988C101.719 41.924 102.331 42.548 103.171 42.548ZM118.543 37.796C119.827 37.796 120.847 38.768 120.847 40.232V44H118.939V40.64C118.939 39.956 118.495 39.524 117.931 39.524C117.223 39.524 116.755 40.04 116.755 41.048V44H114.835V40.64C114.835 39.956 114.391 39.524 113.815 39.524C113.119 39.524 112.663 40.04 112.663 41.048V44H110.743V37.976H112.663V38.528C113.071 38.072 113.659 37.796 114.439 37.796C115.279 37.796 115.999 38.156 116.407 38.816C116.887 38.192 117.607 37.796 118.543 37.796ZM123.213 35.108C123.861 35.108 124.329 35.612 124.329 36.2C124.329 36.812 123.861 37.268 123.213 37.268C122.565 37.268 122.109 36.812 122.109 36.2C122.109 35.612 122.565 35.108 123.213 35.108ZM124.173 44H122.253V37.976H124.173V44ZM125.253 42.428L127.125 42.044C127.209 42.56 127.677 42.752 128.193 42.752C128.697 42.752 128.973 42.536 128.973 42.272C128.973 42.068 128.817 41.912 128.373 41.828L127.149 41.588C126.033 41.384 125.397 40.784 125.397 39.836C125.397 38.6 126.465 37.796 127.989 37.796C129.489 37.796 130.485 38.48 130.725 39.524L128.973 39.872C128.913 39.5 128.553 39.164 127.965 39.164C127.449 39.164 127.281 39.416 127.281 39.632C127.281 39.8 127.353 39.968 127.737 40.052L129.153 40.34C130.293 40.58 130.821 41.264 130.821 42.152C130.821 43.484 129.669 44.18 128.085 44.18C126.669 44.18 125.457 43.664 125.253 42.428ZM139.601 37.796C140.885 37.796 141.905 38.768 141.905 40.232V44H139.997V40.64C139.997 39.956 139.553 39.524 138.989 39.524C138.281 39.524 137.813 40.04 137.813 41.048V44H135.893V40.64C135.893 39.956 135.449 39.524 134.873 39.524C134.177 39.524 133.721 40.04 133.721 41.048V44H131.801V37.976H133.721V38.528C134.129 38.072 134.717 37.796 135.497 37.796C136.337 37.796 137.057 38.156 137.465 38.816C137.945 38.192 138.665 37.796 139.601 37.796ZM146.156 37.82C147.944 37.82 149.456 39.092 149.456 40.988C149.456 42.896 147.944 44.168 146.156 44.168C144.332 44.168 142.82 42.896 142.82 40.988C142.82 39.092 144.332 37.82 146.156 37.82ZM146.156 42.548C146.9 42.548 147.608 41.936 147.608 40.988C147.608 40.052 146.9 39.428 146.156 39.428C145.376 39.428 144.668 40.052 144.668 40.988C144.668 41.936 145.376 42.548 146.156 42.548Z" fill="#1F2044"/>
<line x1="64.5" y1="13" x2="64.5" y2="48" stroke="#1F2044"/>
</svg>
