<svg width="140" height="39" viewBox="0 0 140 39" fill="none" xmlns="http://www.w3.org/2000/svg">
<path d="M79.2131 34.1796L78.4671 36.378H79.625L79.2131 34.1796ZM77.7776 38.1346H77.0321C76.9428 38.1346 76.9096 38.0686 76.9428 37.9801L78.5347 33.428C78.568 33.34 78.6572 33.2734 78.7797 33.2734H79.8035C79.926 33.2734 80.0263 33.3394 80.0263 33.428L80.8949 37.9801C80.9282 38.0686 80.8949 38.1346 80.8057 38.1346H80.0602C79.9931 38.1346 79.9709 38.1346 79.9376 38.1016C79.9038 38.0686 79.9038 38.0356 79.9038 37.9801L79.7481 37.1405H78.2226L77.9444 37.9801C77.9112 38.0461 77.9111 38.0686 77.8779 38.1016C77.8779 38.1016 77.8108 38.1346 77.7776 38.1346Z" fill="#1B1B1B"/>
<path d="M111.727 38.045H110.881C110.481 38.045 110.169 37.957 109.946 37.7358C109.723 37.5146 109.668 37.2055 109.701 36.8407L109.89 34.4541C109.924 34.0563 110.046 33.7472 110.291 33.526C110.536 33.3048 110.848 33.2168 111.259 33.2168H112.105C112.506 33.2168 112.817 33.3054 113.04 33.526C113.263 33.7472 113.352 34.0558 113.285 34.4205L113.252 34.7633C113.252 34.8849 113.185 34.9179 113.063 34.9179H112.406C112.284 34.9179 112.25 34.8519 112.25 34.7633L112.284 34.4541C112.284 34.2995 112.284 34.1779 112.217 34.1113C112.15 34.0453 112.028 34.0233 111.872 34.0233H111.338C111.182 34.0233 111.059 34.0563 110.992 34.1113C110.926 34.1773 110.87 34.2989 110.87 34.4541L110.681 36.7411C110.681 36.8957 110.681 37.0173 110.748 37.0839C110.814 37.1499 110.937 37.1719 111.093 37.1719H111.627C111.783 37.1719 111.905 37.1389 112.005 37.0839C112.072 37.0179 112.127 36.8963 112.127 36.7411L112.161 36.4319C112.161 36.3103 112.228 36.2773 112.35 36.2773H113.006C113.129 36.2773 113.162 36.3433 113.162 36.4319L113.129 36.7747C113.096 37.1725 112.973 37.4596 112.728 37.6692C112.439 37.946 112.128 38.045 111.727 38.045Z" fill="#1B1B1B"/>
<path d="M115.278 37.2055H115.834C115.991 37.2055 116.113 37.1719 116.213 37.1169C116.279 37.0503 116.335 36.9293 116.335 36.7741L116.524 34.4871C116.524 34.3325 116.524 34.2109 116.457 34.1443C116.391 34.0783 116.268 34.0558 116.112 34.0558H115.556C115.4 34.0558 115.278 34.0893 115.177 34.1443C115.11 34.2109 115.055 34.3319 115.055 34.4871L114.866 36.7741C114.866 36.9287 114.866 37.0503 114.932 37.1169C114.999 37.1725 115.122 37.2055 115.278 37.2055ZM115.935 38.045H115.067C114.666 38.045 114.354 37.957 114.131 37.7358C113.909 37.5146 113.853 37.2055 113.887 36.8407L114.076 34.4541C114.109 34.0563 114.232 33.7472 114.477 33.526C114.722 33.3048 115.033 33.2168 115.445 33.2168H116.313C116.714 33.2168 117.025 33.3054 117.248 33.526C117.471 33.7472 117.526 34.0558 117.493 34.4205L117.304 36.8071C117.271 37.2049 117.148 37.5141 116.903 37.7352C116.68 37.946 116.335 38.045 115.935 38.045Z" fill="#1B1B1B"/>
<path d="M121.734 33.1855H122.892C123.014 33.1855 123.048 33.2516 123.048 33.3401L122.669 37.8922C122.669 37.9802 122.602 38.0468 122.48 38.0468H121.823C121.734 38.0468 121.668 37.9807 121.668 37.8922L121.946 34.3013H121.913L120.911 36.8419C120.878 36.9305 120.822 36.9965 120.688 36.9965H120.031C119.942 36.9965 119.876 36.9305 119.842 36.8419L119.252 34.3013H119.219L118.941 37.8922C118.941 37.9582 118.907 37.9802 118.907 38.0138C118.874 38.0468 118.841 38.0468 118.785 38.0468H118.128C118.039 38.0468 117.972 37.9807 117.972 37.8922L118.351 33.3401C118.351 33.2516 118.417 33.1855 118.54 33.1855H119.698C119.765 33.1855 119.82 33.2185 119.82 33.2741L120.444 35.9363H120.51L121.568 33.2741C121.612 33.2191 121.634 33.1855 121.734 33.1855Z" fill="#1B1B1B"/>
<path d="M124.784 35.5391H125.63C125.786 35.5391 125.908 35.5056 126.008 35.4506C126.075 35.3846 126.13 35.263 126.13 35.1078L126.197 34.4889C126.197 34.3343 126.197 34.2127 126.13 34.1461C126.064 34.0801 125.941 34.0575 125.785 34.0575H124.939C124.873 34.0575 124.85 34.0911 124.85 34.1461L124.728 35.505C124.694 35.5056 124.728 35.5391 124.784 35.5391ZM124.35 38.0468H123.693C123.604 38.0468 123.537 37.9807 123.537 37.8922L123.916 33.3401C123.916 33.2521 123.982 33.1855 124.105 33.1855H126.008C126.409 33.1855 126.72 33.2736 126.909 33.4947C127.132 33.7159 127.188 34.0251 127.154 34.3893L127.087 35.0962C127.054 35.494 126.932 35.7812 126.687 35.9913C126.442 36.2009 126.13 36.3005 125.718 36.3005H124.717C124.65 36.3005 124.627 36.3335 124.627 36.3891L124.505 37.814C124.505 37.9807 124.439 38.0468 124.35 38.0468Z" fill="#1B1B1B"/>
<path d="M129.459 34.0805L128.713 36.2789H129.871L129.459 34.0805ZM128.001 38.0136H127.256C127.166 38.0136 127.133 37.9475 127.166 37.859L128.758 33.3069C128.792 33.2189 128.881 33.1523 129.003 33.1523H130.027C130.15 33.1523 130.25 33.2189 130.25 33.3069L131.119 37.859C131.152 37.9475 131.119 38.0136 131.029 38.0136H130.284C130.217 38.0136 130.195 38.0136 130.161 37.9805C130.127 37.9475 130.127 37.914 130.127 37.859L129.972 37.0194H128.436L128.158 37.859C128.124 37.925 128.124 37.9475 128.091 37.9805C128.09 38.0136 128.057 38.0136 128.001 38.0136Z" fill="#1B1B1B"/>
<path d="M132.487 38.0134H131.83C131.741 38.0134 131.674 37.9473 131.674 37.8588L132.053 33.3067C132.053 33.2187 132.12 33.1521 132.242 33.1521H132.832C132.921 33.1521 133.021 33.1851 133.055 33.2407L134.391 36.0911H134.424L134.647 33.2737C134.647 33.1851 134.714 33.1191 134.836 33.1191H135.493C135.582 33.1191 135.649 33.1851 135.649 33.2737L135.27 37.8258C135.27 37.9138 135.203 37.9803 135.081 37.9803H134.524C134.402 37.9803 134.335 37.9138 134.279 37.8258L132.944 35.0084H132.91L132.688 37.7928C132.643 37.9473 132.576 38.0134 132.487 38.0134Z" fill="#1B1B1B"/>
<path d="M137.907 38.013H137.25C137.161 38.013 137.094 37.947 137.094 37.8584L137.217 36.2453L136.037 33.3399C136.004 33.3069 136.037 33.2519 136.037 33.2189C136.07 33.1853 136.103 33.1523 136.159 33.1523H137.005C137.094 33.1523 137.161 33.2189 137.194 33.3069L137.817 35.1302H137.884L138.785 33.3069C138.819 33.2189 138.908 33.1523 138.974 33.1523H139.82C139.887 33.1523 139.909 33.1523 139.909 33.1853C139.943 33.2189 139.943 33.2519 139.909 33.3069L138.262 36.2129L138.14 37.826C138.096 37.947 138.029 38.013 137.907 38.013Z" fill="#1B1B1B"/>
<path d="M86.0705 34.0804C86.2262 34.0804 86.3487 33.9918 86.449 33.8592L86.694 33.4614C86.7605 33.3728 86.694 33.2402 86.5715 33.2402H85.514H85.0461H84.7346C84.3339 33.2402 84.0224 33.3288 83.7995 33.5494C83.5767 33.7706 83.421 34.0468 83.3988 34.444L83.3095 35.4601C83.2763 35.8579 83.3766 36.145 83.5545 36.3546C83.7435 36.5758 84.0556 36.6638 84.4558 36.6638H84.8898C84.979 36.6638 85.0123 36.5978 85.0123 36.5092L85.0455 36.0119C85.0455 35.9233 84.979 35.8573 84.8898 35.8573H84.6448C84.489 35.8573 84.3998 35.8243 84.3333 35.7687C84.2668 35.7027 84.2446 35.5811 84.2668 35.4259L84.356 34.4978C84.356 34.3432 84.4225 34.2216 84.4785 34.155C84.545 34.0885 84.6675 34.0665 84.8239 34.0665L86.0705 34.0804Z" fill="#1B1B1B"/>
<path d="M84.9795 34.6426C84.8903 34.6426 84.857 34.7086 84.857 34.7972L84.8238 35.2945C84.8238 35.3831 84.8903 35.4491 84.9795 35.4491H85.2239C85.3803 35.4491 85.4689 35.4821 85.5354 35.5377C85.6025 35.5927 85.6247 35.7253 85.6025 35.8805L85.5133 36.8086C85.5133 36.9632 85.4468 37.0848 85.3908 37.1513C85.3243 37.2174 85.2018 37.2399 85.0454 37.2399H84.8564H84.5449H83.7656C83.6098 37.2399 83.4873 37.3279 83.387 37.4611L83.142 37.8589C83.0755 37.9475 83.142 38.08 83.2645 38.08H84.3554H84.8226H85.1679C85.5687 38.08 85.8802 37.9915 86.103 37.7709C86.3259 37.5497 86.481 37.2735 86.5038 36.8763L86.593 35.8602C86.6263 35.4624 86.5265 35.1752 86.348 34.9657C86.159 34.7445 85.8469 34.6565 85.4468 34.6565L84.9795 34.6426Z" fill="#1B1B1B"/>
<path d="M89.5991 38.0798H87.1391C87.0505 38.0798 86.9834 38.0138 86.9834 37.9252L87.3841 33.4397C87.3841 33.3512 87.4506 33.2852 87.5731 33.2852H90.0331C90.1223 33.2852 90.1894 33.3512 90.1556 33.4397L90.1223 33.9371C90.1223 34.0251 90.0558 34.0917 89.9666 34.0917H88.4085C88.342 34.0917 88.3192 34.1253 88.3192 34.1803L88.2306 35.1414C88.2306 35.2074 88.2638 35.2294 88.3192 35.2294H89.5996C89.6883 35.2294 89.7554 35.296 89.7554 35.3846L89.7221 35.8814C89.7221 35.9699 89.6556 36.0359 89.5331 36.0359H88.2527C88.1862 36.0359 88.1641 36.0689 88.1641 36.1245L88.0748 37.1742C88.0748 37.2408 88.1081 37.2628 88.1641 37.2628H89.7221C89.8108 37.2628 89.8779 37.3288 89.8441 37.4174L89.8108 37.9142C89.7548 38.0132 89.6877 38.0798 89.5991 38.0798Z" fill="#1B1B1B"/>
<path d="M92.2479 38.0792H91.4353C91.0346 38.0792 90.7452 37.9906 90.5341 37.77C90.3451 37.5488 90.2558 37.2727 90.2891 36.8755L90.5119 34.4889C90.5451 34.0911 90.6676 33.8039 90.9126 33.5943C91.1576 33.3732 91.4691 33.2852 91.8477 33.2852H92.6603C93.0611 33.2852 93.3504 33.3732 93.5283 33.5943C93.7173 33.8155 93.8066 34.1247 93.7733 34.4889L93.7401 34.8316C93.7401 34.9532 93.6736 34.9862 93.5511 34.9862H92.9281C92.8388 34.9862 92.7717 34.9196 92.7717 34.8316L92.805 34.5225C92.805 34.3679 92.805 34.2463 92.7385 34.1797C92.672 34.1137 92.5495 34.0911 92.3931 34.0911H91.8926C91.7363 34.0911 91.6144 34.1247 91.5473 34.1797C91.4808 34.2463 91.4248 34.3673 91.4248 34.5225L91.2358 36.8095C91.2358 36.9641 91.2358 37.0857 91.3023 37.1522C91.3688 37.2182 91.4581 37.2408 91.6138 37.2408H92.1149C92.2706 37.2408 92.3931 37.2072 92.4596 37.1522C92.5267 37.0857 92.5821 36.9646 92.5821 36.8095L92.616 36.5003C92.616 36.3787 92.6825 36.3457 92.805 36.3457H93.4286C93.5511 36.3457 93.5843 36.4117 93.5843 36.5003L93.5511 36.8431C93.5178 37.2408 93.3953 37.528 93.1503 37.7376C92.9269 37.9796 92.6154 38.0792 92.2479 38.0792Z" fill="#1B1B1B"/>
<path d="M95.7324 38.0804H95.1088C94.9863 38.0804 94.953 38.0144 94.953 37.9258L95.2978 34.1803C95.2978 34.1143 95.2645 34.0917 95.2313 34.0917H94.3633C94.274 34.0917 94.2075 34.0257 94.2075 33.9371L94.2408 33.4397C94.2408 33.3512 94.3073 33.2852 94.4298 33.2852H97.2683C97.3569 33.2852 97.424 33.3512 97.424 33.4397L97.3908 33.9371C97.3908 34.0251 97.3243 34.0917 97.2018 34.0917H96.3338C96.2673 34.0917 96.2445 34.1253 96.2445 34.1803L95.8998 37.9258C95.8881 38.0138 95.8321 38.0804 95.7324 38.0804Z" fill="#1B1B1B"/>
<path d="M98.8481 33.4397L98.4474 37.9252C98.4474 38.0138 98.3803 38.0798 98.2578 38.0798H97.6015C97.5123 38.0798 97.4458 38.0138 97.4458 37.9252L97.8465 33.4397C97.8465 33.3512 97.9136 33.2852 98.0355 33.2852H98.6924C98.826 33.2852 98.8481 33.3402 98.8481 33.4397Z" fill="#1B1B1B"/>
<path d="M104.993 38.0798H104.147C103.746 38.0798 103.457 37.9912 103.246 37.7706C103.057 37.5494 102.968 37.2732 103.001 36.8761L103.224 34.4895C103.257 34.0917 103.38 33.8045 103.625 33.5943C103.869 33.3732 104.181 33.2852 104.56 33.2852H105.405C105.806 33.2852 106.096 33.3737 106.307 33.5943C106.53 33.8155 106.585 34.1247 106.552 34.4895L106.329 36.8761C106.295 37.2738 106.173 37.561 105.928 37.7706C105.705 37.9802 105.393 38.0798 104.993 38.0798ZM104.369 37.2732H104.904C105.06 37.2732 105.182 37.2402 105.249 37.1852C105.316 37.1187 105.372 36.9971 105.372 36.8425L105.561 34.5555C105.561 34.4009 105.561 34.2793 105.494 34.2127C105.427 34.1467 105.305 34.1241 105.149 34.1241H104.614C104.459 34.1241 104.336 34.1577 104.269 34.2127C104.202 34.2787 104.147 34.4003 104.147 34.5555L103.958 36.8425C103.958 36.9971 103.958 37.1187 104.024 37.1852C104.124 37.2067 104.214 37.2732 104.369 37.2732Z" fill="#1B1B1B"/>
<path d="M101.787 34.8867H102.444C102.533 34.8867 102.6 34.8207 102.633 34.7321L102.666 34.5109C102.699 34.1132 102.6 33.826 102.421 33.6158C102.232 33.3946 101.92 33.3066 101.553 33.3066H100.741C100.34 33.3066 100.028 33.3946 99.8055 33.6158C99.5611 33.837 99.4269 34.1462 99.4047 34.5109L99.1819 36.8975C99.1487 37.2953 99.2157 37.5825 99.4269 37.7921C99.6159 38.0133 99.928 38.1013 100.328 38.1013H101.141C101.541 38.1013 101.853 38.0127 102.076 37.7921C102.321 37.5709 102.454 37.2617 102.477 36.8975L102.599 35.6602C102.599 35.5387 102.566 35.4721 102.443 35.4721H101.13H100.941C100.818 35.4721 100.752 35.5937 100.785 35.6932L100.974 36.091C101.04 36.2126 101.163 36.3122 101.319 36.3122H101.475C101.542 36.3122 101.564 36.3452 101.542 36.4008L101.508 36.8645C101.508 37.0197 101.442 37.1407 101.386 37.2073C101.319 37.2733 101.197 37.2953 101.04 37.2953H100.539C100.384 37.2953 100.295 37.2623 100.228 37.2073C100.161 37.1407 100.139 37.0197 100.161 36.8645L100.35 34.5775C100.35 34.4229 100.417 34.3013 100.473 34.2348C100.539 34.1682 100.662 34.1462 100.818 34.1462H101.319C101.475 34.1462 101.597 34.1792 101.665 34.2348C101.732 34.2903 101.754 34.4224 101.732 34.5775L101.698 34.7651C101.653 34.8317 101.687 34.8867 101.787 34.8867Z" fill="#1B1B1B"/>
<path d="M107.386 33.9698H107.464C107.553 33.9698 107.62 33.9362 107.62 33.8702C107.62 33.8152 107.575 33.7706 107.475 33.7706C107.431 33.7706 107.409 33.7706 107.386 33.7816V33.9698ZM107.386 34.3346H107.23V33.6826C107.285 33.6716 107.375 33.6606 107.486 33.6606C107.609 33.6606 107.664 33.6826 107.709 33.7046C107.742 33.7382 107.775 33.7822 107.775 33.8482C107.775 33.9258 107.72 33.9808 107.642 34.0028V34.0138C107.708 34.0358 107.742 34.0914 107.764 34.1684C107.787 34.268 107.798 34.312 107.809 34.334H107.642C107.62 34.312 107.609 34.2454 107.586 34.1794C107.575 34.1018 107.53 34.0798 107.452 34.0798H107.374L107.386 34.3346ZM106.985 33.9918C106.985 34.279 107.197 34.5111 107.497 34.5111C107.787 34.5111 107.998 34.279 107.998 33.9918C107.998 33.7046 107.787 33.4614 107.497 33.4614C107.197 33.473 106.985 33.7046 106.985 33.9918ZM108.165 33.9918C108.165 34.3676 107.876 34.6547 107.486 34.6547C107.108 34.6547 106.807 34.3676 106.807 33.9918C106.807 33.627 107.108 33.3398 107.486 33.3398C107.876 33.3404 108.165 33.6276 108.165 33.9918Z" fill="#1B1B1B"/>
<path d="M25.0386 20.9712L29.3838 20.5821C29.6452 21.8785 30.1795 22.8326 30.9868 23.4458C31.7942 24.0584 32.8745 24.3652 34.2278 24.3652C35.6762 24.3652 36.7566 24.0943 37.4688 23.5518C38.1303 23.1343 38.5433 22.4204 38.5731 21.6428C38.5836 21.1976 38.4173 20.7657 38.1099 20.4408C37.6532 20.0326 37.1031 19.7414 36.5069 19.5926C35.9848 19.4276 34.7977 19.1451 32.9457 18.7444C30.5476 18.2262 28.8617 17.5777 27.8882 16.8001C26.5348 15.7163 25.8582 14.3962 25.8582 12.841C25.8628 11.8202 26.2006 10.8279 26.8195 10.0132C27.5195 9.1013 28.4727 8.41346 29.5617 8.03364C30.9571 7.54961 32.4294 7.32148 33.907 7.36201C36.6854 7.36201 38.7743 7.90395 40.1755 8.9884C41.5417 10.0115 42.3566 11.6025 42.384 13.3013L37.932 13.4779C37.7418 12.4647 37.3382 11.734 36.721 11.2864C36.1038 10.8389 35.1658 10.6148 33.9076 10.6148C32.6021 10.6148 31.5929 10.8504 30.8807 11.3217C30.4356 11.5765 30.1637 12.0489 30.1684 12.559C30.1818 13.0454 30.4344 13.4947 30.8451 13.761C31.415 14.1854 32.7806 14.6214 34.9412 15.069C36.5903 15.3677 38.2027 15.8413 39.7491 16.4829C40.7361 16.9235 41.5848 17.6194 42.2067 18.4977C43.4439 20.4484 43.3733 22.9467 42.0287 24.8255C41.2792 25.8411 40.2356 26.6059 39.0368 27.017C37.4799 27.5503 35.839 27.8021 34.1928 27.7593C31.3911 27.7593 29.2421 27.182 27.7464 26.0269C26.2496 24.8719 25.3472 23.187 25.0386 20.9712Z" fill="#1B1B1B"/>
<path d="M44.1646 12.6272H48.4386V27.4748H44.1646V12.6272ZM44.1646 7.32422H48.4386V11.2127H44.1646V7.32422Z" fill="#1B1B1B"/>
<path d="M58.4111 12.6282V15.8098H55.5621V21.8191C55.5312 22.5273 55.5545 23.2359 55.6333 23.9406C55.6951 24.149 55.8351 24.3262 56.0253 24.4356C56.2364 24.5746 56.4838 24.6487 56.7375 24.6475C57.3238 24.6035 57.8995 24.4721 58.4467 24.2584L58.8031 27.2987C57.7356 27.7075 56.5993 27.9113 55.4554 27.8997C54.7507 27.9096 54.0501 27.7897 53.3898 27.5459C52.8619 27.3688 52.3934 27.0509 52.0364 26.6265C51.7168 26.1743 51.5091 25.6532 51.4309 25.1067C51.3114 24.1924 51.2635 23.2707 51.2886 22.3489V15.8098H49.1519V12.6282H51.2886V9.69392L55.5627 7.39648V12.6282H58.4111Z" fill="#1B1B1B"/>
<path d="M69.0242 19.0251C69.0003 17.9175 68.6794 17.0692 68.0623 16.4798C66.7632 15.2825 64.7484 15.2975 63.4679 16.5151C62.8228 17.1885 62.4874 18.0975 62.5416 19.0251H69.0242ZM68.8107 22.6663L73.1204 23.3027C72.6263 24.6355 71.6988 25.7674 70.4849 26.5195C69.2972 27.2502 67.8015 27.6156 65.9973 27.6156C63.1483 27.6156 61.0465 26.7905 59.6932 25.141C58.3399 23.4914 57.7933 21.8181 58.0546 20.1211C58.0546 17.694 58.7669 15.7966 60.1914 14.4296C61.6299 13.0505 63.5706 12.3105 65.5697 12.3794C67.9917 12.3794 69.915 13.0979 71.3394 14.5356C72.7645 15.9732 73.4406 18.1769 73.3694 21.1459H62.5066C62.4693 22.1435 62.842 23.1133 63.5397 23.8324C64.2082 24.4693 65.106 24.8138 66.0329 24.7866C66.6413 24.8075 67.2404 24.6338 67.742 24.2916C68.2501 23.8857 68.6124 23.3276 68.7751 22.7011" fill="#1B1B1B"/>
<path d="M75.1504 27.4737V7.32422H79.7803V23.9389H91.1775V27.4737H75.1504Z" fill="#F3000B"/>
<path d="M95.7717 20.1217C95.7717 21.5831 96.1515 22.6907 96.911 23.4445C98.4918 24.9898 101.029 24.9898 102.61 23.4445C103.37 22.6669 103.749 21.5472 103.749 20.0864C103.749 18.625 103.37 17.5295 102.61 16.7983C101.029 15.253 98.4918 15.253 96.911 16.7983C96.152 17.5764 95.7717 18.6841 95.7717 20.1217ZM91.2485 19.8739C91.262 18.5636 91.6312 17.2812 92.3172 16.162C93.023 14.9606 94.0783 14 95.3441 13.4048C96.6986 12.7575 98.1861 12.4304 99.6894 12.4501C102.159 12.4501 104.189 13.1692 105.78 14.6068C107.342 15.986 108.214 17.9765 108.166 20.0511C108.225 22.1482 107.353 24.1648 105.78 25.5659C104.189 27.0273 102.183 27.758 99.7605 27.758C98.2864 27.7568 96.8293 27.443 95.4865 26.8386C94.2002 26.2972 93.117 25.3702 92.3878 24.1874C91.6417 22.8864 91.2719 21.4059 91.3191 19.9098" fill="#F3000B"/>
<path d="M123.874 17.1161L119.599 17.7878C119.513 17.1098 119.168 16.4908 118.638 16.0554C118.056 15.6501 117.354 15.451 116.644 15.4898C115.686 15.4486 114.757 15.8076 114.079 16.4798C113.438 17.1393 113.118 18.2475 113.118 19.8027C113.118 21.3578 113.451 22.5951 114.115 23.514C114.794 24.2348 115.758 24.6228 116.75 24.5747C117.481 24.6042 118.199 24.379 118.78 23.9384C119.303 23.514 119.671 22.7955 119.885 21.7816L124.088 22.4533C123.636 24.1972 122.793 25.5167 121.559 26.4124C120.325 27.3075 118.65 27.7557 116.537 27.7557C114.139 27.7557 112.227 27.084 110.803 25.7408C109.378 24.3975 108.666 22.5355 108.666 20.1553C108.666 17.7513 109.378 15.8777 110.803 14.5344C112.227 13.1912 114.163 12.5195 116.608 12.5195C118.603 12.5195 120.182 12.8965 121.345 13.6509C122.573 14.4904 123.466 15.7277 123.874 17.1503" fill="#F3000B"/>
<path d="M125.013 27.4737V7.32422H129.287V17.8584L134.273 12.6266H139.545L134.024 18.0709L139.936 27.4737H135.342L131.281 20.828L129.287 22.737V27.4737H125.013Z" fill="#F3000B"/>
<path d="M19.2331 25H3.91767V11.2136H19.2325L19.2331 25ZM11.4327 4.14301C13.538 4.14127 15.4303 5.41679 16.2056 7.35988H6.83842C7.53958 5.43821 9.37358 4.15459 11.4327 4.14301ZM19.8742 7.32514C19.0476 3.35095 15.5213 0.5 11.4327 0.5C7.34475 0.5 3.81908 3.35095 2.99192 7.32514H0V28.5359H23.1508V7.32514H19.8742Z" fill="#1B1B1B"/>
<path d="M17.7731 9.94141L11.2193 18.4254L7.80042 15.5976L5.37842 18.602L11.5046 23.6218L20.6933 11.921L17.7731 9.94141Z" fill="#F3000B"/>
</svg>
