<svg xmlns="http://www.w3.org/2000/svg" width="205.326" height="41.445" viewBox="0 0 205.326 41.445">
  <g id="logo.b34a702" transform="translate(-0.048)">
    <path id="Caminho_247693" data-name="Caminho 247693" d="M42.971,31.967l6.376-.575A6.752,6.752,0,0,0,51.7,35.625a7.635,7.635,0,0,0,4.755,1.359,7.766,7.766,0,0,0,4.755-1.2,3.5,3.5,0,0,0,1.62-2.822,2.51,2.51,0,0,0-.68-1.777A5.53,5.53,0,0,0,59.8,29.929q-1.149-.366-5.225-1.254-5.278-1.149-7.421-2.874a7.277,7.277,0,0,1-2.979-5.853,7,7,0,0,1,1.411-4.18,8.672,8.672,0,0,1,4.024-2.926,17.832,17.832,0,0,1,6.376-.993q6.115,0,9.2,2.4a8.15,8.15,0,0,1,3.241,6.376l-6.532.261a4.927,4.927,0,0,0-1.777-3.24,7,7,0,0,0-4.128-.993A7.975,7.975,0,0,0,51.543,17.7,2.088,2.088,0,0,0,50.5,19.532a2.194,2.194,0,0,0,.993,1.777q1.254.941,6.01,1.934a34.235,34.235,0,0,1,7.054,2.09,8.837,8.837,0,0,1,3.606,2.979,8.413,8.413,0,0,1-.261,9.354,9.145,9.145,0,0,1-4.39,3.24A20.17,20.17,0,0,1,56.4,42q-6.166,0-9.459-2.561a10.9,10.9,0,0,1-3.973-7.474" transform="translate(-6.184 -1.706)" fill="#1b1b1b"/>
    <path id="Caminho_247694" data-name="Caminho 247694" d="M75.758,19.626h6.271V41.576H75.758Zm0-7.839h6.271v5.748H75.758Z" transform="translate(-10.908 -1.698)" fill="#1b1b1b"/>
    <path id="Caminho_247695" data-name="Caminho 247695" d="M97.894,19.644v4.7h-4.18v8.884a20.417,20.417,0,0,0,.1,3.136,1.256,1.256,0,0,0,.575.732,1.875,1.875,0,0,0,1.045.313,8.626,8.626,0,0,0,2.508-.575l.523,4.494a13.273,13.273,0,0,1-4.912.888,8.358,8.358,0,0,1-3.031-.523,4.438,4.438,0,0,1-1.986-1.359,5.181,5.181,0,0,1-.888-2.247,26.17,26.17,0,0,1-.209-4.077V24.347H84.308v-4.7h3.135V15.306l6.271-3.4v7.734Z" transform="translate(-12.14 -1.716)" fill="#1b1b1b"/>
    <path id="Caminho_247696" data-name="Caminho 247696" d="M115.65,30.342a5.142,5.142,0,0,0-1.411-3.763,4.913,4.913,0,0,0-6.741.052,4.967,4.967,0,0,0-1.359,3.71Zm-.313,5.383,6.324.941a9.456,9.456,0,0,1-3.867,4.755,12.3,12.3,0,0,1-6.585,1.62q-6.27,0-9.25-3.658t-2.4-7.421q0-5.382,3.135-8.414a10.817,10.817,0,0,1,7.892-3.031,11.334,11.334,0,0,1,8.466,3.187q3.137,3.188,2.979,9.772H106.087a5.434,5.434,0,0,0,1.516,3.971,5.066,5.066,0,0,0,3.658,1.411,4.174,4.174,0,0,0,2.508-.732,4.442,4.442,0,0,0,1.516-2.351" transform="translate(-14.324 -2.955)" fill="#1b1b1b"/>
    <path id="Caminho_247697" data-name="Caminho 247697" d="M128.877,41.575V11.788h6.793V36.349h16.723v5.225Z" transform="translate(-18.562 -1.698)" fill="#f3000b"/>
    <path id="Caminho_247698" data-name="Caminho 247698" d="M163.111,31.981a6.659,6.659,0,0,0,1.672,4.912,5.957,5.957,0,0,0,8.361,0,6.845,6.845,0,0,0,1.672-4.964,6.476,6.476,0,0,0-1.672-4.861,5.957,5.957,0,0,0-8.361,0,6.777,6.777,0,0,0-1.672,4.913m-6.637-.366a10.769,10.769,0,0,1,1.568-5.487,10.191,10.191,0,0,1,4.441-4.076,14.264,14.264,0,0,1,6.376-1.411,12.764,12.764,0,0,1,8.937,3.188,10.449,10.449,0,0,1,3.5,8.048,10.556,10.556,0,0,1-3.5,8.153,12.5,12.5,0,0,1-8.832,3.241,15.214,15.214,0,0,1-6.271-1.359,9.828,9.828,0,0,1-4.547-3.919,12.023,12.023,0,0,1-1.568-6.324" transform="translate(-22.538 -2.974)" fill="#f3000b"/>
    <path id="Caminho_247699" data-name="Caminho 247699" d="M208.646,27.556l-6.271.993a3.975,3.975,0,0,0-1.411-2.561,4.651,4.651,0,0,0-2.926-.836,5.013,5.013,0,0,0-3.763,1.464q-1.411,1.462-1.411,4.912a9.231,9.231,0,0,0,1.463,5.486,4.963,4.963,0,0,0,3.867,1.568,4.6,4.6,0,0,0,2.979-.941,5.413,5.413,0,0,0,1.62-3.188l6.167.993a10.039,10.039,0,0,1-3.71,5.853,12.246,12.246,0,0,1-7.369,1.986,11.712,11.712,0,0,1-8.414-2.979q-3.135-2.979-3.135-8.257,0-5.331,3.135-8.309t8.518-2.979a12.586,12.586,0,0,1,6.951,1.672,9.408,9.408,0,0,1,3.71,5.173" transform="translate(-26.84 -2.991)" fill="#f3000b"/>
    <path id="Caminho_247700" data-name="Caminho 247700" d="M214.356,41.575V11.788h6.27V27.361l7.316-7.734h7.735l-8.1,8.048,8.675,13.9h-6.741l-5.958-9.824-2.926,2.822v7Z" transform="translate(-30.878 -1.698)" fill="#f3000b"/>
    <path id="Caminho_247701" data-name="Caminho 247701" d="M28.269,36.218H5.8V15.838H28.268v20.38ZM16.823,5.385a7.526,7.526,0,0,1,7,4.755H10.082a7.212,7.212,0,0,1,6.741-4.755m12.386,4.7a12.647,12.647,0,0,0-24.771,0H.048V41.445H34.017V10.09Z" fill="#1b1b1b"/>
    <path id="Caminho_247702" data-name="Caminho 247702" d="M27.455,16.306,17.838,28.848l-5.017-4.18L9.268,29.109l8.989,7.421,13.482-17.3Z" transform="translate(-1.328 -2.349)" fill="#f3000b"/>
  </g>
</svg>
