<?xml version="1.0" encoding="utf-8"?>
<!-- Generator: Adobe Illustrator 25.0.0, SVG Export Plug-In . SVG Version: 6.00 Build 0)  -->
<svg version="1.1" id="Camada_1" xmlns="http://www.w3.org/2000/svg" xmlns:xlink="http://www.w3.org/1999/xlink" x="0px" y="0px"
	 viewBox="0 0 141.7 40" style="enable-background:new 0 0 141.7 40;" xml:space="preserve">
<style type="text/css">
	.st0{fill:#C32026;}
</style>
<g>
	<path d="M10.6,0.1h1.1c1.6,0.1,3.3,0.7,4.5,1.7c1.6,1.2,2.7,3,3.1,4.9c1,0,2,0,3,0c0,6.9,0,13.8,0,20.7c-7.4,0-14.7,0-22.1,0
		c0-6.9,0-13.8,0-20.7c0.9,0,1.8,0,2.7,0c0.3-1.1,0.7-2.3,1.4-3.2C5.7,1.5,8.1,0.2,10.6,0.1z M8.6,4.2C7.7,4.8,7,5.6,6.6,6.6
		c3,0,6.1,0,9.1,0c-0.4-1-1.1-1.8-2-2.4C12.1,3.3,10.1,3.3,8.6,4.2z M17.4,9.1c-0.3,0.4-0.6,0.8-0.9,1.2c-4.2,0-8.5,0-12.7,0
		c0,4.5,0,9,0,13.5c5,0,9.9,0,14.9,0c0-3.6,0-7.2,0-10.8c0.5-0.7,1-1.3,1.5-2C19.2,10.4,18.2,9.7,17.4,9.1z M29.4,6.3
		c1.9-0.6,4-0.6,6-0.4c1.9,0.2,3.8,0.8,5.1,2.3c0.9,1,1.4,2.3,1.4,3.7c-1.5,0.1-3,0.1-4.5,0.2c-0.2-0.7-0.4-1.5-1-2
		c-0.8-0.7-1.8-0.8-2.8-0.8c-1.2,0-2.4,0.1-3.4,0.8c-0.5,0.3-0.8,1-0.6,1.6c0.2,0.6,0.8,1,1.4,1.2c1.8,0.7,3.8,1,5.7,1.5
		c1.5,0.4,3.1,0.9,4.3,2c1,0.9,1.6,2.2,1.6,3.6c0.2,1.7-0.5,3.3-1.7,4.5c-1.6,1.6-4.1,2.1-6.3,2.2c-2.5,0.1-5.3-0.1-7.4-1.7
		c-1.7-1.2-2.5-3.2-2.8-5.2c1.5-0.1,2.9-0.3,4.4-0.4c0.3,0.9,0.5,1.8,1.2,2.5c1,1,2.4,1.3,3.8,1.3c1.3,0,2.8-0.2,3.7-1.3
		c0.6-0.6,0.7-1.4,0.5-2.2c-0.3-0.7-1.1-1.1-1.8-1.3c-2.5-0.8-5.2-1-7.6-2.1c-1.1-0.5-2.1-1.4-2.7-2.4c-0.8-1.5-0.8-3.5,0.1-4.9
		C26.6,7.6,28,6.8,29.4,6.3L29.4,6.3z M44.1,6.2c1.4,0,2.9,0,4.3,0c0,1.2,0,2.4,0,3.5c-1.4,0-2.9,0-4.3,0
		C44.1,8.5,44.1,7.3,44.1,6.2L44.1,6.2z M50.7,8.8c1.4-0.7,2.9-1.5,4.3-2.2c0,1.7,0,3.4,0,5.1c1,0,1.9,0,2.9,0c0,1,0,2.1,0,3.1
		c-1,0-1.9,0-2.9,0c0,2.3,0,4.7,0,7c0,0.5,0,1.1,0.5,1.4c0.8,0.4,1.6,0,2.4-0.2c0.1,1,0.2,2,0.4,3c-1.8,0.6-3.9,0.9-5.7,0.1
		c-0.8-0.3-1.5-1-1.6-1.9c-0.3-1.4-0.2-2.8-0.2-4.2c0-1.7,0-3.5,0-5.2c-0.7,0-1.3,0-1.9,0c0-1,0-2,0-3.1c0.7,0,1.3,0,2,0
		C50.7,10.7,50.7,9.7,50.7,8.8L50.7,8.8z M63.6,11.4c2.4-0.3,5.1,0.1,6.9,1.9c1.8,1.7,2.2,4.4,2.2,6.8c-3.6,0-7.2,0-10.7,0
		c0.1,0.9,0.3,1.9,1,2.6c1,1,2.6,1.3,3.9,0.7c0.7-0.3,1.1-1.1,1.3-1.8c1.4,0.2,2.8,0.4,4.3,0.6c-0.7,1.9-2.4,3.5-4.4,4
		c-2.1,0.5-4.4,0.5-6.5-0.3c-2-0.8-3.4-2.6-3.8-4.7c-0.4-2-0.3-4.1,0.6-6C59.2,13.2,61.3,11.8,63.6,11.4L63.6,11.4z M63,15.2
		c-0.7,0.6-0.9,1.6-1,2.5c2.1,0,4.3,0,6.4,0c-0.1-0.8-0.2-1.7-0.8-2.3C66.5,14,64.1,14,63,15.2z M44.1,11.7c1.4,0,2.9,0,4.3,0
		c0,4.8,0,9.7,0,14.5c-1.4,0.1-2.9,0-4.3,0c-0.1-0.8,0-1.6,0-2.4C44.1,19.8,44.1,15.7,44.1,11.7L44.1,11.7z M1.6,30.5
		c1.1-0.4,2.3-0.4,3.3,0.1c0.7,0.3,1,1.1,1.2,1.9c-0.5,0-1,0.1-1.5,0.1c-0.2-0.3-0.3-0.8-0.7-1c-0.5-0.2-1.1-0.2-1.6,0
		C2,31.7,1.7,32,1.9,32.3c0.2,0.4,0.6,0.5,1,0.6c0.9,0.3,2,0.4,2.7,1c1.1,1,0.8,2.9-0.5,3.6c-1,0.5-2.2,0.5-3.2,0.2
		s-1.6-1.2-1.7-2.2v-0.2c0.5,0,0.9-0.1,1.4-0.1c0.2,0.4,0.3,0.9,0.7,1.1c0.5,0.3,1.1,0.3,1.7,0.2c0.5-0.2,0.9-0.7,0.7-1.2
		c-0.2-0.4-0.8-0.5-1.3-0.7c-1-0.2-2.1-0.4-2.7-1.3C0,32.4,0.5,31,1.6,30.5z M44.7,30.6c0.7-0.5,1.6-0.3,2.4-0.2
		c-0.1,0.3-0.1,0.7-0.2,1c-0.4,0-0.7-0.1-1.1,0c-0.2,0.3-0.2,0.6-0.2,1c0.4,0,0.7,0,1.1,0c0,0.4,0,0.8,0,1.1c-0.4,0-0.7,0-1.1,0
		c0,1.4,0,2.9,0,4.3c-0.5,0-1,0-1.4,0c0-1.4,0-2.9,0-4.3c-0.3,0-0.5,0-0.8,0c0-0.4,0-0.7,0-1.1c0.3,0,0.5,0,0.8-0.1
		C44.2,31.8,44.1,31,44.7,30.6L44.7,30.6z M63.6,30.3c1.2-0.2,2.5,0,3.4,0.9s1.1,2.2,1,3.4c-0.1,1-0.5,2-1.3,2.6
		c-0.9,0.7-2.2,0.9-3.3,0.6c-1-0.2-1.9-0.9-2.3-1.8c-0.5-1-0.5-2.2-0.2-3.2C61.2,31.6,62.3,30.5,63.6,30.3L63.6,30.3z M63.7,31.7
		c-0.7,0.2-1.2,0.9-1.3,1.7c-0.1,0.9-0.1,1.9,0.4,2.6c0.6,0.8,1.9,1,2.7,0.4c0.6-0.4,0.9-1.1,0.9-1.8c0-0.8,0-1.6-0.5-2.2
		C65.5,31.6,64.6,31.4,63.7,31.7L63.7,31.7z M28.9,30.4c0.5,0,1,0,1.5,0c0,0.4,0,0.9,0,1.3c-0.5,0-1,0-1.5,0
		C28.9,31.3,28.9,30.8,28.9,30.4z M75.1,30.4c0.5,0,1,0,1.5,0c0,2.5,0,5,0,7.5c-0.5,0-1,0-1.5,0C75.1,35.4,75.1,32.9,75.1,30.4
		L75.1,30.4z M78.1,30.4c0.5,0,1,0,1.5,0c0,0.4,0,0.9,0,1.3c-0.5,0-1,0-1.5,0C78.1,31.3,78.1,30.8,78.1,30.4z M95.4,30.4
		c1.2,0,2.4,0,3.6,0c0.6,0,1.3,0.1,1.8,0.6c0.6,0.5,0.7,1.4,0.4,2.1c-0.2,0.4-0.5,0.6-0.8,0.8c0.4,0.2,0.8,0.4,1,0.8
		c0.5,0.9,0.2,2.2-0.7,2.8c-0.5,0.3-1.1,0.3-1.6,0.4c-1.2,0-2.5,0-3.7,0C95.4,35.4,95.4,32.9,95.4,30.4L95.4,30.4z M96.9,31.6
		c0,0.6,0,1.1,0,1.7c0.8,0,1.6,0.1,2.3-0.1c0.7-0.2,0.8-1.3,0-1.5C98.6,31.6,97.8,31.7,96.9,31.6L96.9,31.6z M96.9,34.6
		c0,0.7,0,1.3,0,2c0.7,0,1.5,0,2.2,0c0.3,0,0.6-0.1,0.8-0.4c0.3-0.5,0.1-1.3-0.5-1.4C98.6,34.5,97.8,34.6,96.9,34.6L96.9,34.6z
		 M113.8,30.4c0.5,0,1,0,1.4,0c0,0.4,0,0.9,0,1.3c-0.5,0-1,0-1.5,0C113.8,31.3,113.8,30.8,113.8,30.4z M31.7,31.4
		c0.5-0.3,1-0.6,1.5-0.9c0,0.6,0,1.3,0,1.9c0.3,0,0.7,0,1,0c0,0.4,0,0.8,0,1.1c-0.3,0-0.7,0-1,0c0,1-0.1,2,0.1,3
		c0.2,0.3,0.6,0.1,0.9,0.1c0,0.4,0.1,0.7,0.1,1.1c-0.7,0.2-1.5,0.3-2.1-0.1c-0.3-0.2-0.4-0.6-0.4-0.9c-0.1-1.1-0.1-2.2-0.1-3.3
		c-0.2,0-0.4,0-0.6,0c0-0.4,0-0.8,0-1.2c0.2,0,0.4,0,0.6,0C31.7,32.1,31.7,31.7,31.7,31.4L31.7,31.4z M7.5,33.1
		c1-1.2,3.1-1.1,3.9,0.2c0.4,0.7,0.5,1.5,0.5,2.2c-1.2,0-2.4,0-3.6,0c0.1,0.6,0.4,1.2,1,1.3c0.6,0.2,0.9-0.3,1.2-0.7
		c0.5,0.1,1,0.2,1.4,0.2c-0.2,0.4-0.5,0.9-0.9,1.2C10.2,38,9.2,38,8.5,37.8c-0.9-0.3-1.4-1.1-1.6-1.9C6.6,34.9,6.7,33.9,7.5,33.1
		L7.5,33.1z M8.6,33.7c-0.3,0.2-0.3,0.6-0.4,1c0.7,0,1.5,0,2.2,0c-0.1-0.3-0.1-0.7-0.4-1C9.6,33.3,9.1,33.3,8.6,33.7z M13.1,33.1
		c0.8-0.9,2.3-1,3.4-0.5c0.6,0.3,0.8,0.9,1.1,1.4c-0.5,0.1-0.9,0.2-1.4,0.2c-0.1-0.2-0.2-0.5-0.4-0.6c-0.6-0.4-1.5-0.1-1.7,0.6
		c-0.2,0.6-0.2,1.4,0.1,2c0.2,0.6,1.1,0.8,1.6,0.4c0.2-0.2,0.3-0.6,0.5-0.8c0.5,0.1,0.9,0.2,1.4,0.2c-0.2,0.5-0.3,1-0.7,1.3
		c-0.7,0.7-1.7,0.7-2.6,0.5s-1.7-1.1-1.8-2C12.4,34.9,12.5,33.9,13.1,33.1L13.1,33.1z M26.7,32.4c0.4-0.1,0.9,0,1.3,0.2
		c-0.1,0.4-0.3,0.8-0.4,1.3c-0.3-0.1-0.7-0.3-1.1-0.1s-0.5,0.6-0.5,1c-0.1,1.1,0,2.1-0.1,3.2c-0.5,0-1,0-1.4,0c0-1.8,0-3.6,0-5.4
		c0.4,0,0.9,0,1.3,0c0,0.2,0,0.5,0,0.7C26.1,32.8,26.4,32.5,26.7,32.4L26.7,32.4z M49.6,32.4c0.9-0.2,2,0,2.6,0.7
		c1.2,1.1,1.1,3.4-0.2,4.4c-1.2,0.9-3.1,0.7-4-0.5c-0.8-1.1-0.7-2.9,0.3-3.9C48.6,32.7,49.1,32.5,49.6,32.4L49.6,32.4z M49.8,33.6
		c-0.6,0.2-0.9,0.9-0.9,1.5s0.2,1.4,0.8,1.6c0.7,0.3,1.5-0.2,1.7-0.9c0.1-0.6,0.2-1.4-0.3-1.9C50.8,33.5,50.2,33.4,49.8,33.6
		L49.8,33.6z M56.2,32.4c0.5-0.2,1,0,1.4,0.2c-0.1,0.4-0.3,0.8-0.4,1.3c-0.3-0.1-0.7-0.3-1.1-0.1s-0.5,0.7-0.6,1.1
		c-0.1,1,0,2.1-0.1,3.1c-0.5,0-1,0-1.4,0c0-1.8,0-3.6,0-5.4c0.4,0,0.9,0,1.3,0c0,0.2,0,0.4,0,0.7C55.6,32.8,55.8,32.6,56.2,32.4
		L56.2,32.4z M71.6,32.4c0.6-0.1,1.3-0.1,1.9,0.3c0.4,0.4,0.5,1,0.5,1.5c0,1.2,0,2.4,0,3.6c-0.5,0-1,0-1.4,0c0-1.1,0-2.1,0-3.2
		c0-0.4,0-0.8-0.4-1.1s-1-0.2-1.3,0.2c-0.3,0.3-0.3,0.7-0.3,1.1c0,1,0,2,0,2.9c-0.5,0-1,0-1.4,0c0-1.8,0-3.6,0-5.4
		c0.4,0,0.9,0,1.3,0c0,0.2,0,0.5,0,0.7C70.7,32.8,71.1,32.5,71.6,32.4z M83.3,32.4c0.7-0.1,1.4-0.1,1.9,0.4c0.4,0.4,0.5,1,0.5,1.6
		c0,1.2,0,2.3,0,3.5c-0.5,0-1,0-1.5,0c0-1.2,0-2.3,0-3.5c0-0.4-0.2-0.9-0.7-0.9c-0.6-0.1-1.3,0.4-1.3,1.1c-0.1,1.1,0,2.2,0,3.4
		c-0.5,0-1,0-1.4,0c-0.1-1.8,0-3.6,0-5.4c0.4,0,0.9,0,1.4,0c0,0.2,0,0.5,0,0.7C82.4,32.8,82.8,32.5,83.3,32.4L83.3,32.4z M87.1,33.2
		c0.9-1.2,3-1.2,3.9,0c0.5,0.7,0.5,1.5,0.6,2.3c-1.2,0-2.4,0-3.7,0c0.1,0.3,0.2,0.7,0.4,1c0.3,0.3,0.9,0.4,1.3,0.2
		c0.2-0.2,0.3-0.4,0.5-0.6c0.5,0.1,0.9,0.2,1.4,0.3c-0.3,0.5-0.6,1.1-1.1,1.3c-0.8,0.4-1.7,0.4-2.5,0.1c-0.7-0.3-1.2-1.1-1.3-1.9
		C86.4,35,86.6,34,87.1,33.2L87.1,33.2z M88.4,33.6c-0.3,0.2-0.4,0.7-0.5,1c0.7,0,1.5,0,2.2,0c-0.1-0.3-0.1-0.5-0.2-0.8
		C89.6,33.4,88.9,33.3,88.4,33.6z M108.6,32.9c0.4-0.5,1.1-0.6,1.7-0.6c0.6,0,1.3,0,1.8,0.4c0.4,0.2,0.5,0.7,0.7,1
		c-0.4,0.1-0.9,0.2-1.3,0.2c-0.2-0.3-0.5-0.7-0.9-0.6c-0.4,0-1.2,0-1.1,0.6c0.9,0.6,2.2,0.4,3.1,1.2c0.6,0.6,0.5,1.7-0.1,2.2
		c-0.8,0.7-1.9,0.7-2.9,0.5c-0.8-0.1-1.5-0.8-1.7-1.6c0.5-0.1,1-0.1,1.4-0.2c0.2,0.3,0.3,0.7,0.7,0.8c0.5,0.1,1.1,0.1,1.4-0.2
		c0.1-0.2,0.1-0.5-0.2-0.6c-0.9-0.3-1.8-0.3-2.6-0.9C108.1,34.7,107.9,33.5,108.6,32.9L108.6,32.9z M113.8,32.4c0.5,0,1,0,1.4,0
		c0,1.8,0,3.6,0,5.5c-0.5,0-1,0-1.4,0C113.8,36.1,113.8,34.2,113.8,32.4L113.8,32.4z M116.3,32.4c0.4,0,0.9,0,1.3,0
		c0,0.2,0,0.5,0,0.7c0.3-0.3,0.7-0.6,1.2-0.7c0.7-0.2,1.4-0.1,2,0.4c0.4,0.4,0.5,0.9,0.5,1.4c0,1.2,0,2.4,0,3.6c-0.5,0-1,0-1.4,0
		c0-1.1,0-2.1,0-3.2c0-0.3,0-0.7-0.3-1c-0.4-0.4-1-0.2-1.4,0.1c-0.3,0.3-0.4,0.8-0.4,1.2c0,1,0,2,0,2.9c-0.5,0-1,0-1.4,0
		C116.3,36,116.3,34.2,116.3,32.4L116.3,32.4z M122.8,33.1c1-1.2,3.1-1.1,3.9,0.2c0.4,0.7,0.5,1.5,0.5,2.2c-1.2,0-2.4,0-3.6,0
		c0.1,0.6,0.4,1.3,1.1,1.3c0.5,0.1,0.9-0.4,1.1-0.8c0.5,0.1,1,0.2,1.4,0.2c-0.3,0.6-0.7,1.2-1.4,1.5c-0.8,0.3-1.8,0.2-2.5-0.2
		s-1-1.3-1.1-2.1C122.1,34.7,122.1,33.8,122.8,33.1L122.8,33.1z M123.9,33.7c-0.3,0.2-0.3,0.6-0.4,1c0.7,0,1.5,0,2.2,0
		c-0.1-0.3-0.1-0.8-0.4-1C124.9,33.3,124.3,33.3,123.9,33.7L123.9,33.7z M128.6,32.6c0.8-0.4,1.8-0.4,2.7-0.1c0.6,0.2,1,0.7,1.2,1.3
		c-0.4,0.1-0.9,0.2-1.3,0.2c-0.3-0.7-1.2-0.7-1.9-0.5c-0.1,0.1-0.2,0.3-0.2,0.4c1,0.7,2.3,0.5,3.2,1.3c0.6,0.6,0.5,1.6-0.1,2.2
		c-0.7,0.7-1.9,0.7-2.8,0.6c-0.8-0.1-1.5-0.8-1.8-1.6c0.5-0.1,1-0.1,1.4-0.2c0.3,0.8,1.3,1.1,2,0.7c0.2-0.1,0.2-0.4,0.2-0.6
		c-0.9-0.5-2.1-0.4-2.9-1.1C127.4,34.4,127.8,33,128.6,32.6L128.6,32.6z M134.1,32.7c0.8-0.5,1.8-0.4,2.7-0.2
		c0.7,0.1,1.1,0.7,1.3,1.3c-0.4,0.1-0.9,0.2-1.3,0.2c-0.2-0.3-0.4-0.6-0.8-0.6c-0.4,0-0.9-0.1-1.2,0.3c0,0.2,0.1,0.4,0.3,0.4
		c0.9,0.3,1.8,0.4,2.6,0.9c0.6,0.4,0.7,1.3,0.4,1.9c-0.3,0.6-1,1-1.7,1c-0.9,0.1-1.8,0-2.5-0.5c-0.4-0.3-0.5-0.7-0.7-1.1
		c0.5-0.1,1-0.2,1.4-0.2c0.2,0.3,0.3,0.7,0.7,0.8c0.5,0.1,1.1,0.1,1.4-0.2c0.1-0.2,0.2-0.5-0.1-0.6c-0.9-0.4-2-0.4-2.8-1
		C133.1,34.5,133.3,33.1,134.1,32.7L134.1,32.7z M18.4,32.4c0.5,0,1,0,1.4,0c0,1.1,0,2.1,0,3.2c0,0.4,0,0.9,0.3,1.1
		c0.6,0.4,1.6-0.1,1.6-0.8c0.1-1.1,0-2.3,0.1-3.5c0.5,0,1,0,1.4,0c0,1.8,0,3.6,0,5.4c-0.4,0-0.9,0-1.3,0c0-0.2,0-0.5,0-0.7
		c-0.7,0.9-2.1,1.2-3,0.4c-0.5-0.4-0.5-1.1-0.5-1.7C18.4,34.7,18.4,33.6,18.4,32.4L18.4,32.4z M28.9,32.5c0.5,0,1-0.1,1.4,0
		c0.1,1.8,0,3.6,0,5.4c-0.5,0-1,0-1.4,0C28.9,36.1,28.9,34.3,28.9,32.5L28.9,32.5z M34.7,32.4c0.5,0,1,0,1.5,0
		c0.4,1.3,0.9,2.5,1.3,3.8c0.4-1.2,0.8-2.5,1.2-3.8c0.5,0,1,0,1.5,0c-0.7,2-1.5,3.9-2.1,5.9c-0.2,0.4-0.3,0.8-0.6,1.2
		c-0.3,0.3-0.7,0.4-1,0.6h-1c-0.1,0-0.3,0-0.4,0c0-0.4-0.1-0.8-0.2-1.1c0.4,0,0.8,0.1,1.1-0.1c0.4-0.2,0.7-0.8,0.5-1.3
		C36.1,35.8,35.3,34.1,34.7,32.4L34.7,32.4z M78.1,32.4c0.5,0,1,0,1.5,0c0,1.8,0,3.6,0,5.4c-0.5,0-1,0-1.5,0
		C78.1,36,78.1,34.2,78.1,32.4L78.1,32.4z M102.4,32.4c0.5,0,1,0,1.5,0c0,1.1,0,2.2,0,3.3c0,0.3,0,0.7,0.3,1c0.6,0.4,1.6,0,1.6-0.8
		c0.1-1.1,0-2.3,0.1-3.5c0.5,0,1,0,1.4,0c0,1.8,0,3.6,0,5.4c-0.4,0-0.9,0-1.3,0c0-0.2,0-0.5,0-0.7c-0.3,0.3-0.7,0.6-1.2,0.7
		c-0.7,0.2-1.5,0.1-2-0.5c-0.4-0.5-0.4-1.1-0.4-1.6C102.4,34.7,102.4,33.5,102.4,32.4L102.4,32.4z"/>
	<path class="st0" d="M122.6,6.2c1.4,0,2.9,0,4.3,0c0,3.5,0,7.1,0,10.6c1.6-1.6,3.2-3.3,4.8-4.9c0.2-0.2,0.5-0.1,0.7-0.2
		c1.6,0,3.2,0,4.7,0c-1.8,1.8-3.7,3.5-5.5,5.3c2,3.1,3.9,6.1,5.9,9.2c-1.3,0.1-2.7,0-4,0c-0.3,0-0.6,0.1-0.7-0.2
		c-1.3-2.1-2.6-4.2-3.9-6.3c-0.7,0.6-1.3,1.2-2,1.8c0,1.5,0,3.1,0,4.6c-1.4,0.1-2.8,0-4.2,0C122.6,19.5,122.6,12.8,122.6,6.2
		L122.6,6.2z M74.1,6.3c1.5,0,3,0,4.5,0c0,5.5,0,11,0,16.5c3.7,0,7.4,0,11.2,0c0,1.1,0,2.3,0,3.4c-5.2,0-10.5,0-15.7,0
		C74.1,19.6,74.1,12.9,74.1,6.3L74.1,6.3z M17.4,9.1c1,0.6,1.9,1.3,2.9,1.9c-0.5,0.7-1,1.3-1.5,2c-2.5,3.2-4.9,6.4-7.4,9.5
		c-2-1.6-4-3.3-6-4.9c0.8-1,1.6-2,2.4-3c1.1,1.1,2.2,2.1,3.3,3.2c1.8-2.5,3.7-5,5.5-7.5C16.7,9.9,17.1,9.5,17.4,9.1z M98.9,11.4
		c2.2,0.2,4.3,1.1,5.8,2.8c1.6,1.8,2,4.4,1.5,6.7c-0.4,1.9-1.8,3.5-3.5,4.5s-3.8,1.3-5.8,1.1c-2.1-0.2-4.2-1.1-5.6-2.7
		c-1.2-1.4-1.6-3.3-1.6-5.2c0.1-2.3,1.3-4.6,3.2-5.8C94.6,11.6,96.8,11.2,98.9,11.4L98.9,11.4z M97.1,14.6c-1.1,0.3-2.2,1.1-2.6,2.2
		c-0.4,1-0.5,2.1-0.3,3.2c0.1,1,0.6,1.9,1.3,2.5c1.5,1.3,4.1,1.2,5.4-0.3c0.8-0.9,1.1-2.2,1.1-3.4s-0.4-2.5-1.3-3.3
		C99.8,14.6,98.3,14.3,97.1,14.6L97.1,14.6z M109.1,13c1.9-1.5,4.5-1.8,6.9-1.5c1.6,0.2,3.3,0.8,4.3,2.1c0.6,0.7,1,1.5,1.3,2.4
		c-1.4,0.2-2.8,0.5-4.2,0.7c-0.2-0.7-0.5-1.5-1.2-1.9c-1.1-0.6-2.5-0.6-3.6,0c-0.9,0.5-1.4,1.5-1.5,2.5c-0.2,1.3-0.2,2.6,0.2,3.9
		c0.3,1,1.2,1.8,2.2,2.1c1,0.2,2.2,0.2,3-0.5c0.6-0.5,0.9-1.4,1.1-2.1c1.4,0.2,2.8,0.4,4.2,0.7c-0.4,1.3-1,2.7-2.1,3.6
		c-1.6,1.4-3.8,1.7-5.9,1.7c-2.1,0-4.3-0.8-5.7-2.4c-1.5-1.7-1.9-4.2-1.6-6.4C106.8,15.9,107.6,14.1,109.1,13L109.1,13z M138.4,24.5
		c0.1-1,1.1-1.6,2-1.5c0.7,0.1,1.2,0.6,1.4,1.2v0.7c-0.2,0.7-0.9,1.4-1.7,1.3C139.1,26.4,138.4,25.5,138.4,24.5z M138.9,24.5
		c-0.1,0.4,0.1,1.1,0.6,1.1c0-0.6,0-1.2,0-1.8c0.4,0,0.8,0,1.3,0.1c0.1,0.3,0.1,0.6-0.1,0.8c0.1,0.3,0.2,0.6,0.3,0.9
		c-0.5,0.1-0.6-0.3-0.7-0.7c-0.1,0-0.3-0.1-0.4-0.1c0,0.2,0,0.4,0,0.6c-0.1,0.1-0.4,0.3-0.2,0.5c0.5,0.2,1.2,0,1.5-0.5
		c0.4-0.7,0.1-1.6-0.7-1.9C139.8,23.2,138.9,23.8,138.9,24.5L138.9,24.5z M139.9,24.1c0,0.2,0,0.4,0,0.6c0.2-0.1,0.5-0.2,0.5-0.5
		C140.3,24.2,140.1,24.2,139.9,24.1L139.9,24.1z"/>
</g>
</svg>
