<svg width="343" height="190" viewBox="0 0 343 190" fill="none" xmlns="http://www.w3.org/2000/svg">
<path d="M19.3315 119.576V37.8415H61.0283V18.7461H3.46133V108.705L19.3315 119.576Z" fill="#1D5297"/>
<path d="M189.806 37.8398H19.3316V141.659H189.806V37.8398Z" fill="#F1F3F6"/>
<path d="M19.356 68.7461V141.666H128.674L19.356 68.7461Z" fill="#E6E9EF"/>
<path d="M180.462 107.285H153.247V125.933H180.462V107.285Z" fill="#1F2044"/>
<path d="M148.293 83.291H121.078V101.938H148.293V83.291Z" fill="#1F2044"/>
<path d="M148.293 59.7344H121.078V78.3817H148.293V59.7344Z" fill="#1F2044"/>
<path d="M121.091 59.7344V78.3817H148.305L121.091 59.7344Z" fill="#2E93EE"/>
<path d="M148.293 101.938V83.291H121.091L148.293 101.938Z" fill="#2E93EE"/>
<path d="M180.462 83.291H153.247V101.938H180.462V83.291Z" fill="#1F2044"/>
<path d="M153.247 83.291V101.938H180.462L153.247 83.291Z" fill="#2E93EE"/>
<path d="M180.462 59.7344H153.247V78.3817H180.462V59.7344Z" fill="#1F2044"/>
<path d="M180.462 125.933V107.285H153.247L180.462 125.933Z" fill="#1F2044"/>
<path d="M105.343 61.4355H27.6122V64.5721H105.343V61.4355Z" fill="#A6B6CC"/>
<path d="M112.412 68.752H27.6121V71.8885H112.412V68.752Z" fill="#A6B6CC"/>
<path d="M112.406 76.0547H66.6486V79.1912H112.406V76.0547Z" fill="#A6B6CC"/>
<path d="M180.462 36.3613H19.1848V52.1852H180.462V36.3613Z" fill="#1F2044"/>
<path d="M143.29 114.902H80.5495V118.039H143.29V114.902Z" fill="#A6B6CC"/>
<path d="M143.29 122.748H80.5495V125.885H143.29V122.748Z" fill="#A6B6CC"/>
<path d="M122.815 107.066H80.5495V110.203H122.815V107.066Z" fill="#A6B6CC"/>
<path d="M15.7661 35.1833L61.0589 35.1035V39.707H15.7661V35.1833Z" fill="#1D5297"/>
<path d="M167.178 38.3688V19.7889H5.60192V38.3688H167.178ZM169.319 40.5171H3.46143V17.6406H169.319V40.5171Z" fill="white"/>
<path d="M90.5121 27.8965H37.1955V29.8913H90.5121V27.8965Z" fill="#FAFAFA"/>
<path d="M163.142 26.5513L161.845 25.25L159.607 27.4965L157.369 25.25L156.072 26.5513L158.31 28.7978L156.072 31.0443L157.369 32.3456L159.607 30.099L161.845 32.3456L163.142 31.0443L160.903 28.7978L163.142 26.5513Z" fill="#FAFAFA"/>
<path d="M189.806 75.1953V141.658H51.5673L70.8684 154.885H201.97V75.1953H189.806Z" fill="#1D5297"/>
<path fill-rule="evenodd" clip-rule="evenodd" d="M19.1816 22.0729C19.0768 22.0254 18.9645 22 18.8472 22C18.7324 22 18.6176 22.0254 18.5153 22.0729L13.8142 24.0661C13.2657 24.2989 12.8552 24.8399 12.836 25.4712C12.8707 27.969 13.8878 32.498 18.1885 34.5566C18.6052 34.7538 19.0892 34.7538 19.506 34.5566C23.8054 32.498 24.8235 27.969 24.836 25.4712C24.8409 24.8399 24.4292 24.2989 23.8802 24.0661L19.1816 22.0729ZM21.3116 27.0087C21.5823 26.6578 21.7143 26.2052 21.6737 25.7666C21.6626 25.6852 21.6311 25.539 21.5433 25.4753C21.5315 25.4676 21.5207 25.4613 21.5103 25.4562C21.4864 25.4444 21.4613 25.4389 21.4355 25.44C21.4319 25.44 21.4285 25.4421 21.4265 25.4454C21.2713 25.6891 20.9719 26.0672 20.4267 26.4838C20.1502 26.6949 19.936 26.8374 19.7569 26.9543L19.6961 26.9938C19.6494 27.0243 19.6065 27.0522 19.566 27.0794C19.482 27.1399 19.4079 27.2019 19.3427 27.263C19.1918 27.4101 18.8972 27.7541 18.8523 28.235C18.8523 28.235 18.8003 28.6224 19.0286 29.1363L19.3034 29.6852L19.4345 29.9468L19.4577 29.9929C19.461 29.999 19.4614 30.0066 19.4589 30.0131C19.4564 30.0197 19.4511 30.0243 19.4449 30.0256C19.2125 30.0721 18.9773 30.0957 18.7461 30.0957C18.5067 30.0957 18.2635 30.0705 18.0233 30.0207C18.0172 30.0194 18.012 30.0147 18.0094 30.0082C18.0069 30.0017 18.0074 29.9941 18.0106 29.988L18.4316 29.1463C18.6651 28.6273 18.6123 28.2349 18.6123 28.2349C18.5663 27.7411 18.2568 27.3915 18.1101 27.2515C18.0478 27.1941 17.9781 27.1361 17.8992 27.0793C17.8551 27.0498 17.8083 27.0193 17.7567 26.9856L17.7083 26.9542C17.5292 26.8372 17.315 26.6949 17.0386 26.4837C16.4933 26.0671 16.1939 25.6891 16.0387 25.4453C16.0367 25.442 16.0334 25.44 16.0297 25.4398C16.0039 25.4387 15.9788 25.4443 15.955 25.4561C15.9445 25.4612 15.9336 25.4675 15.9219 25.4752C15.8341 25.5389 15.8026 25.6851 15.7915 25.7665C15.7509 26.2051 15.8828 26.6577 16.1535 27.0086C16.1579 27.0143 16.1592 27.022 16.1573 27.029C16.0151 27.5309 16.1964 28.1196 16.5982 28.4605L16.7487 28.6208C16.7529 28.6252 16.755 28.6313 16.7547 28.6376C16.7316 29.0718 16.9446 29.4995 17.2973 29.7273L17.5176 29.8695C17.5222 29.8724 17.5255 29.8773 17.5268 29.8831C17.5281 29.8886 17.5272 29.8947 17.5243 29.8996L17.515 29.9162H17.5163L17.002 30.8731L17.0007 30.875L16.8164 31.2146C16.8097 31.2271 16.8061 31.2415 16.8061 31.2561C16.8061 31.2994 16.8368 31.3351 16.8747 31.3357L17.2278 31.3362H17.2318C17.269 31.3362 17.303 31.3146 17.323 31.2784L17.7388 30.496C17.7429 30.4884 17.7517 30.4842 17.7592 30.4862C18.0842 30.572 18.4162 30.6154 18.7461 30.6154C19.0683 30.6154 19.3933 30.5737 19.7119 30.4915C19.7199 30.4896 19.7279 30.4933 19.7321 30.5011L20.0323 31.0543L20.033 31.0562L20.1535 31.2786C20.1732 31.3147 20.2073 31.3363 20.2446 31.3363L20.5948 31.3358C20.6325 31.3351 20.6632 31.2995 20.6632 31.2562C20.6632 31.2416 20.6596 31.2271 20.6528 31.2146L19.9501 29.9163L19.9411 29.9005C19.9383 29.8956 19.937 29.8887 19.9382 29.8832C19.9395 29.8775 19.9429 29.8726 19.9474 29.8696L20.1677 29.7274C20.5204 29.4997 20.7334 29.0719 20.7104 28.6377C20.7101 28.6314 20.7123 28.6253 20.7164 28.6209L20.8669 28.4606C21.2687 28.1196 21.45 27.5309 21.3078 27.0291C21.3059 27.0221 21.3073 27.0145 21.3116 27.0087Z" fill="white"/>
<circle cx="52.2905" cy="91.5455" r="9.54545" fill="#0198FF"/>
<path d="M42.8469 101.485C38.2858 100.234 36.819 98.9397 36.819 96.9245C36.819 94.6124 38.8484 93.0003 42.2441 93.0003C45.8206 93.0003 47.1468 94.8033 47.2673 97.4548H51.7078C51.5672 93.8063 49.4574 90.4548 45.258 89.373V84.7275H39.2302V89.3094C35.3322 90.2003 32.1977 92.873 32.1977 96.9669C32.1977 101.867 36.0354 104.306 41.6413 105.728C46.6645 107 47.6692 108.867 47.6692 110.84C47.6692 112.303 46.6846 114.637 42.2441 114.637C38.105 114.637 36.4775 112.685 36.2564 110.182H31.836C32.0771 114.828 35.3723 117.437 39.2302 118.306V122.909H45.258V118.349C49.1761 117.564 52.2905 115.167 52.2905 110.818C52.2905 104.794 47.408 102.737 42.8469 101.485Z" fill="#1F2044"/>
<path d="M233.268 132.297C238.922 137.488 244.575 145.079 250.229 150.269C247.516 163.803 252.292 175.353 245.891 180.204C243.579 181.954 229.526 185.676 221.652 181.362C221.473 174.337 225.526 172.25 229.846 169.612C234.212 160.704 232.645 147.168 232.733 138.392" fill="#2E93EE"/>
<path d="M229.492 183.322C230.501 179.575 232.622 176.354 237.457 174.422C233.632 177.147 232.231 180.147 232.494 183.338C231.494 183.377 230.488 183.376 229.492 183.322Z" fill="#24578F"/>
<path d="M222.743 181.884C223.768 178.201 225.896 175.04 230.666 173.133C226.525 176.084 225.22 179.359 225.799 182.847C224.727 182.617 223.701 182.298 222.743 181.884Z" fill="#24578F"/>
<path d="M246.24 101.593C238.075 114.37 230.64 110.597 230.343 110.877C230.343 110.877 242.5 86.9398 248.616 85.4416C251.952 84.6244 247.749 97.0472 246.223 101.616" fill="#24578F"/>
<path d="M219.747 99.3674C217.418 99.3656 216.461 100.032 210.336 102.308C204.211 104.583 197.639 105.912 186.282 103.713C174.925 101.514 181.59 113.455 181.59 113.455C181.59 113.455 224.421 125.611 230.83 116.493C231.633 115.37 242.853 93.5577 246.888 82.6402C249.039 76.8189 244.256 69.1564 236.232 70.6216C227.723 74.0655 219.747 99.3674 219.747 99.3674Z" fill="#2E93EE"/>
<path d="M192.896 108.195C192.896 108.195 189.534 114.029 182.274 113.533C175.014 113.037 171.038 111.079 167.407 105.499C167.407 105.499 164.564 101.953 165.498 98.7625C165.831 97.7552 166.772 96.6857 167.424 96.5312C167.662 96.4746 167.918 96.681 168.192 97.15C168.27 96.2763 168.468 95.5744 168.787 95.0448C169.04 94.6235 169.732 93.7363 170.138 93.5325C170.45 93.3753 171.24 93.8268 171.539 93.8554C171.648 93.8656 171.832 93.887 172.09 93.9197C172.263 93.3988 172.552 92.9496 172.905 92.5859C173.079 92.4068 174.024 91.3961 174.313 91.2975C174.517 91.2282 175.31 91.5234 175.492 91.549C176.034 91.6252 176.486 91.9202 176.708 92.4709C177.045 93.3047 177.856 95.2546 179.164 97.1866C180.338 98.051 182.62 99.2454 185.062 99.5887C186.067 94.8348 187.557 92.5388 189.532 92.6997C190.186 92.7532 190.609 92.9346 190.869 93.1966C190.934 93.2623 191.119 93.0505 191.976 93.0559C191.997 94.6325 190.648 96.3255 190.587 96.8688C190.333 99.1056 191.217 99.4729 191.348 100.822C191.942 106.9 192.896 108.195 192.896 108.195Z" fill="#2E93EE"/>
<path d="M298.201 112.831C298.252 114.199 298.668 115.55 299.549 116.879C300.884 118.895 301.658 118.654 298.321 120.385C296.21 121.48 293.525 122.236 290.383 122.722C285.683 123.451 286.781 122.951 288.856 118.782C289.857 116.764 290.917 114.941 292.064 113.417C296.609 107.372 298.013 107.784 298.201 112.831Z" fill="#2E93EE"/>
<path d="M314.837 110.644C316.543 113.663 313.925 114.137 310.548 115.257C309.299 115.67 308.005 115.944 306.669 116.078C302.869 116.467 303.855 115.945 305.515 113.03C306.499 111.3 307.607 109.57 308.876 107.841C315.516 98.7827 312.343 106.224 314.837 110.644Z" fill="#2E93EE"/>
<path d="M329.213 109.291C329.194 109.953 329.219 110.646 329.292 111.37C329.543 113.884 329.839 113.46 326.559 113.737C324.995 113.87 323.467 113.876 322.185 113.694C318.002 113.099 319.528 111.716 321.705 109.409C322.439 108.635 323.257 107.905 324.176 107.233C332.44 101.194 329.325 105.442 329.213 109.291Z" fill="#2E93EE"/>
<path d="M273.823 20.832C273.823 20.832 297.495 32.4136 297.285 36.0754C297.077 39.7373 290.61 39.2413 288.003 44.1895C288.003 44.1895 302.497 53.6915 301.558 58.0461C300.619 62.4007 291.338 60.8158 288.938 64.2798C288.938 64.2798 291.229 72.9469 289.143 76.1132C287.057 79.2806 287.372 76.5509 284.452 80.6086C284.452 80.6086 286.02 48.2463 273.823 20.832Z" fill="#2E93EE"/>
<path d="M279.349 31.5101C271.048 39.0315 260.45 43.7645 250.862 49.575C244.314 53.5419 238.354 57.9869 233.673 63.9356C227.923 71.2394 231.223 79.8461 229.91 88.8054C229.463 91.8526 229.244 94.9369 229.113 98.0105C228.875 103.605 229.025 109.227 229.626 114.801C231.069 128.159 231.797 139.027 241.714 149.02C254.112 161.516 267.482 162.393 282.955 151.609C288.95 147.429 293.193 146.864 298.011 141.533C301.174 138.032 305.448 135.062 308.677 131.613C312.29 127.753 316.269 123.611 323.747 122.086C330.01 120.808 333.863 122.879 336.8 124.151C338.324 124.812 340.4 126.089 342.09 124.815C342.804 124.278 342.98 123.514 342.67 122.806C341.822 120.871 340.545 119.084 338.77 117.545C329.641 109.621 314.919 109.441 303.906 115.015C299.747 117.122 295.218 119.524 290.423 119.822C287.033 120.034 283.59 119.428 280.958 117.268C278.796 115.495 277.611 113.022 277.076 110.397C276.3 106.589 276.6 103.033 277.887 99.3606C279.678 94.2614 282.893 89.6322 284.969 84.6047C292.052 67.4532 294.349 47.9107 282.973 31.8828L281.393 29.6583L279.349 31.5101Z" fill="#2E93EE"/>
<path d="M321.437 122.985C313.457 126.771 304.988 135.247 296.83 144.437C286.188 156.425 259.587 174.09 237.647 146.323C216.982 120.17 226.719 83.5189 227.922 79.3461C227.967 79.2054 228.014 79.0642 228.06 78.9235C228.757 78.0743 247.191 55.7597 264.074 52.4771C268.576 56.1893 269.449 62.7218 263.452 73.9861C253.363 92.9324 245.295 120.563 263.221 137.539C265.913 140.087 269.089 142.106 272.769 143.258C285.517 147.25 292.267 139.912 300.24 132.837C306.81 127.008 313.924 124.044 321.437 122.985Z" fill="#FFCF00"/>
<path d="M297.939 142.685C297.5 143.169 297.063 143.656 296.628 144.145C296.431 144.367 296.227 144.592 296.019 144.817C296.335 142.806 296.29 140.851 295.446 139.494C295.446 139.494 296.75 140.901 297.939 142.685Z" fill="#ECA93E"/>
<path d="M289.088 151.154C288.169 151.866 287.208 152.563 286.212 153.24C286.894 150.208 287.185 147.052 286.111 145.281C287.508 147.585 288.569 149.467 289.088 151.154Z" fill="#ECA93E"/>
<path d="M306.457 133.906C305.776 134.561 305.094 135.229 304.411 135.907C304.43 134.576 304.303 133.162 303.939 131.713C303.939 131.713 305.187 132.607 306.457 133.906Z" fill="#ECA93E"/>
<path d="M270.841 144.492C270.841 144.492 266.881 153.319 257.988 160.317C256.307 159.947 254.619 159.415 252.93 158.701C257.792 156.581 266.015 152.097 270.841 144.492Z" fill="#ECA93E"/>
<path d="M235.159 142.809C240.274 142.192 249.043 140.31 256.457 134.547C256.457 134.547 251.197 143.289 237.624 146.196C236.746 145.086 235.929 143.955 235.159 142.809Z" fill="#ECA93E"/>
<path d="M250.88 120.025C240.371 116.828 230.479 118.719 226.122 119.994C225.911 118.9 225.725 117.813 225.566 116.731C241.79 113.122 250.88 120.025 250.88 120.025Z" fill="#ECA93E"/>
<path d="M225.077 95.9681C225.194 94.6478 225.332 93.3825 225.485 92.1781C225.485 92.1776 225.485 92.1771 225.485 92.1766C242.667 91.7819 251.521 99.7064 251.521 99.7064C241.249 94.3856 230.352 95.1376 225.077 95.9681Z" fill="#ECA93E"/>
<path d="M231.556 74.4375C232.226 73.7142 232.976 72.9229 233.794 72.0823C252.057 72.089 256.985 80.1349 256.985 80.1349C246.441 73.8048 235.905 74.0012 231.556 74.4375Z" fill="#ECA93E"/>
<path d="M227.353 81.8186C227.794 81.5677 228.233 81.3118 228.66 81.0482C234.497 77.4403 260.149 62.692 267.679 58.4579C267.847 59.4397 267.921 60.4761 267.759 61.7211C259.775 72.139 242.063 89.8803 225.331 93.4758" fill="#ECA93E"/>
<path d="M255.903 129.806C251.113 126.775 244.952 124.959 253.799 118.711C253.958 118.599 256.15 117.688 256.304 117.575C266.25 110.347 265.483 104.409 272.083 97.5063C274.087 95.4106 279.287 107.526 279.931 116.21C281.328 117.627 282.385 118.712 285.068 119.52C278.713 123.285 269.3 127.722 255.903 129.806Z" fill="#24578F"/>
<path d="M280.99 88.9261C282.971 103.958 273.799 105.841 273.739 106.246C273.739 106.246 267.292 80.1013 271.558 75.0271C273.886 72.2587 279.068 84.475 280.992 88.955" fill="#24578F"/>
<path d="M275.586 96.448C273.554 97.9414 273.194 99.0662 269.473 104.742C265.752 110.418 260.967 115.656 249.494 121.262C238.022 126.868 252.854 132.018 252.854 132.018C252.854 132.018 298.36 113.553 297.454 102.453C297.354 101.077 291.601 77.1625 287.342 66.2076C285.072 60.3662 275.441 57.5668 269.487 63.8403C264.518 71.9423 275.586 96.448 275.586 96.448Z" fill="#2E93EE"/>
<path d="M258.432 120.467C258.432 120.467 259.653 127.095 252.965 131.374C246.278 135.652 241.415 136.704 234.273 134.757C234.273 134.757 229.267 133.864 227.81 130.819C227.383 129.833 227.442 128.41 227.901 127.873C228.068 127.677 228.439 127.671 229.012 127.854C228.457 127.135 228.131 126.47 228.031 125.859C227.952 125.374 227.924 124.25 228.133 123.833C228.293 123.513 229.304 123.352 229.586 123.181C229.688 123.119 229.863 123.018 230.112 122.877C229.892 122.367 229.824 121.837 229.873 121.332C229.897 121.083 230.002 119.702 230.184 119.441C230.313 119.257 231.215 118.974 231.392 118.877C231.919 118.588 232.523 118.524 233.109 118.804C233.997 119.227 236.093 120.201 238.61 120.842C240.251 120.751 243.092 120.202 245.467 118.898C242.959 114.609 242.623 111.894 244.461 110.749C245.07 110.371 245.568 110.239 245.981 110.273C246.085 110.281 246.096 110 246.847 109.454C247.988 110.649 248.017 112.812 248.35 113.268C249.722 115.145 250.754 114.86 251.83 115.809C256.676 120.086 258.432 120.467 258.432 120.467Z" fill="#2E93EE"/>
<path d="M277.32 28.1393C277.32 28.1393 272.386 0.491682 260.288 0.0154281C252.339 -0.297833 248.334 9.32008 248.334 9.32008C248.334 9.32008 241.891 8.9125 234.589 13.1908C234.589 13.1908 232.371 9.38642 228.577 10.6092C224.783 11.8309 220.702 19.8457 222.202 33.0235C222.202 33.0235 216.69 33.4989 213.54 38.661C213.54 38.661 215.186 40.9709 217.692 41.1749C220.196 41.3789 231.007 37.6434 233.941 40.0891C236.876 42.5353 238.163 44.3697 237.805 48.8529C237.805 48.8529 249.687 47.7667 255.056 41.3146C260.427 34.8624 264.938 22.3639 277.32 28.1393Z" fill="#2E93EE"/>
<path d="M236.191 30.1316C236.191 30.1316 233.221 20.8534 227.511 18.2551C227.511 18.2551 227.223 25.7266 225.97 31.6646C225.97 31.6646 230.09 30.7248 236.191 30.1316Z" fill="#F1F1F2"/>
<path d="M262.032 11.1078C262.032 11.1078 254.679 14.4468 249.827 28.9202C249.827 28.9202 261.404 27.1405 266.488 27.5119C266.488 27.5119 261.796 19.2727 262.032 11.1078Z" fill="#F1F1F2"/>
<path d="M256.259 19.097C254.467 19.0968 253.013 20.9954 253.012 23.3397C253.012 25.6829 254.465 27.5823 256.258 27.5825C258.05 27.5827 259.503 25.6836 259.503 23.3404C259.504 20.9961 258.051 19.0972 256.259 19.097Z" fill="#24578F"/>
<path d="M229.66 24.1438C228.299 24.1437 227.196 25.5989 227.196 27.394C227.195 29.1891 228.298 30.6446 229.659 30.6447C231.021 30.6449 232.124 29.1897 232.124 27.3946C232.124 25.5994 231.022 24.144 229.66 24.1438Z" fill="#24578F"/>
<path d="M274.528 33.7861C269.849 29.1713 263.061 35.4996 263.061 35.4996L264.284 37.2741C267.324 35.8851 266.54 36.6067 266.54 36.6067C258.873 46.7743 245.541 55.8812 236.624 58.8493C227.706 61.8174 223.014 58.4771 223.014 58.4771C223.014 58.4771 211.624 67.2257 209.903 70.6396C208.182 74.0539 213.493 77.8781 217.951 78.9926C222.409 80.106 229.337 80.5461 249.832 67.2619C270.327 53.9778 272.512 41.3926 272.512 41.3926C275.117 41.0292 274.365 46.6027 274.365 46.6027C274.365 46.6027 279.448 38.6379 274.528 33.7861Z" fill="#F47924"/>
<path d="M269.933 48.8302C269.933 48.8302 249.07 45.6196 234.363 58.7816L236.657 57.5942C236.657 57.5942 226.124 57.0983 224.663 58.4834C223.204 59.869 213.942 64.462 212.845 76.1894C212.525 79.606 222.91 83.9335 241.867 74.9796C253.683 69.3972 269.427 54.2533 269.427 54.2533L269.933 48.8302Z" fill="#E05406"/>
<path d="M223.621 58.2354C223.621 58.2354 226.171 68.1679 230.111 67.0691C231.441 66.6984 230.894 63.8771 231.442 61.9469C231.989 60.0172 233.476 56.3067 233.476 56.3067L223.621 58.2354Z" fill="white"/>
<path d="M204.101 54.4786C204.101 54.4786 204.925 64.6714 209 64.1924C210.376 64.03 210.317 61.1625 211.186 59.3426C212.056 57.5221 214.156 54.088 214.156 54.088L204.101 54.4786Z" fill="white"/>
<path d="M199.766 45.5416C200.295 38.3717 210.27 35.2178 217.584 40.2668C223.569 39.0051 230.219 35.2205 236.202 40.9002C240.436 44.9177 238.014 48.7866 238.014 48.7866C238.014 48.7866 250.451 46.8831 254.754 40.8712C259.057 34.8599 264.612 26.8194 270.714 26.2506C273.918 25.9517 279.317 25.5094 282.445 31.2995C285.573 37.0887 287.143 47.6341 263.987 64.1832C240.832 80.7333 230.615 85.1917 225.579 85.185C219.138 85.1757 218.747 82.904 211.344 81.9178C207.563 81.4145 204.715 75.2519 208.847 69.9968C212.99 64.7257 222.76 58.3104 222.76 58.3104C222.76 58.3104 212.302 66.8159 210.582 70.2302C208.86 73.6441 213.926 75.8316 218.384 76.945C222.843 78.0585 228.552 79.2477 249.047 65.963C269.542 52.6788 271.731 39.3278 271.731 39.3278C274.336 38.9643 274.639 44.2879 274.639 44.2879C274.639 44.2879 277.623 38.0856 273.609 34.3989C268.761 29.9445 263.75 35.4532 263.75 35.4532L264.052 35.474C267.092 34.0841 267.505 36.5676 267.505 36.5676C259.837 46.7357 245.287 55.7155 236.37 58.6837C227.452 61.6518 222.76 58.3104 222.76 58.3104C222.76 58.3104 213.296 58.161 210.089 57.3449C206.882 56.5282 199.05 55.259 199.766 45.5416Z" fill="#FFCF00"/>
<path d="M229.484 44.7836C227.403 44.1474 225.8 46.81 228.545 47.9745C228.931 48.955 228.31 50.0277 226.625 50.407C231.952 51.4499 232.166 45.7033 229.484 44.7836Z" fill="#ECA93E"/>
<path d="M205.963 43.9641C207.681 43.4385 209.002 45.6361 206.737 46.5969C206.418 47.4061 206.93 48.2915 208.321 48.6046C203.924 49.4635 203.749 44.7217 205.963 43.9641Z" fill="#ECA93E"/>
<path d="M226.847 13.3311L226.846 17.5217C226.846 17.5217 231.687 20.7722 232.776 22.0681C233.865 23.3641 237.006 30.3489 237.006 30.3489L240.149 28.2539L226.847 13.3311Z" fill="#2E93EE"/>
<path d="M261.015 4.38144L262.685 9.96919C262.685 9.96919 256.065 15.556 254.173 18.5142C253.267 19.9313 249.311 29.0163 249.311 29.0163L246.57 27.6826L261.015 4.38144Z" fill="#2E93EE"/>
<path d="M265.097 137.225C263.897 141.29 265.551 148.157 267.399 153.242C269.61 159.333 270.738 167.029 270.727 170.551C270.704 178.213 267.643 180.52 271.401 183.513C274.662 186.11 283.987 189.834 291.9 188.936C298.42 187.536 298.6 174.809 288.206 171.562C285.317 165.618 285.447 159.549 285.673 153.205C285.823 148.914 287.555 143.583 284.532 139.347L281.59 141.252C278.071 141.544 276.821 140.34 273.546 140.748C269.497 141.25 265.89 134.544 265.097 137.225Z" fill="#2E93EE"/>
<path d="M285.703 188.86C284.777 188.737 283.859 188.573 282.957 188.377C283.658 184.686 282.813 181.217 279.717 178.072C283.968 180.381 285.371 184.315 285.703 188.86Z" fill="#24578F"/>
<path d="M292.009 188.95C292.811 185.088 292.04 180.701 288.862 177.475C292.821 179.625 294.311 183.185 294.765 187.336C294.051 188.117 293.127 188.687 292.009 188.95Z" fill="#24578F"/>
</svg>
