<svg id="Componente_70_1" data-name="Componente 70 – 1" xmlns="http://www.w3.org/2000/svg" width="384.319" height="394.813" viewBox="0 0 384.319 394.813">
  <g id="Grupo_40212" data-name="Grupo 40212" transform="translate(-916 -394.509)">
    <g id="Grupo_40210" data-name="Grupo 40210">
      <circle id="Elipse_1569" data-name="Elipse 1569" cx="93" cy="93" r="93" transform="translate(916 394.509)" fill="#1d5297"/>
      <path id="Caminho_247950" data-name="Caminho 247950" d="M8.743,11.378H4.525v2.856H9.476V16H2.327V5.336H9.461v1.78H4.525V9.657H8.743Zm5.837-2.366,2-3.677h2.527L16,10.624,19.188,16H16.632l-2.051-3.735L12.53,16H9.974l3.186-5.376L10.054,5.336h2.527Zm7.91,3.23V16h-2.2V5.336h4.16a4.813,4.813,0,0,1,2.113.439,3.238,3.238,0,0,1,1.4,1.249,3.482,3.482,0,0,1,.491,1.842,3.062,3.062,0,0,1-1.073,2.472,4.469,4.469,0,0,1-2.97.9Zm0-1.78h1.963a1.93,1.93,0,0,0,1.329-.41,1.492,1.492,0,0,0,.458-1.172,1.759,1.759,0,0,0-.461-1.267,1.724,1.724,0,0,0-1.274-.5H22.491Zm13.894.916H32.166v2.856h4.951V16H29.969V5.336H37.1v1.78H32.166V9.657h4.219Zm5.969.718H40.6V16h-2.2V5.336h3.962a4.479,4.479,0,0,1,2.915.842,2.907,2.907,0,0,1,1.025,2.38,3.281,3.281,0,0,1-.472,1.82,3.222,3.222,0,0,1-1.432,1.161L46.712,15.9V16H44.354Zm-1.75-1.78h1.772A1.815,1.815,0,0,0,43.658,9.9a1.505,1.505,0,0,0,.454-1.161,1.611,1.611,0,0,0-.428-1.187,1.781,1.781,0,0,0-1.315-.432H40.6ZM50.316,16h-2.2V5.336h2.2ZM55.223,5.336l2.739,7.734,2.725-7.734h2.886V16h-2.2V13.085l.22-5.032L58.709,16H57.2L54.329,8.061l.22,5.024V16h-2.2V5.336Zm16.685,6.042H67.689v2.856H72.64V16H65.491V5.336h7.134v1.78H67.689V9.657h4.219ZM82.6,16H80.4L76.126,8.983V16h-2.2V5.336h2.2l4.285,7.031V5.336H82.6Zm9.946-8.884H89.281V16h-2.2V7.116H83.861V5.336h8.687Zm7.668,4.263H96v2.856h4.951V16H93.8V5.336h7.134v1.78H96V9.657h4.219Zm7.954.864V16h-2.2V5.336h4.16a4.813,4.813,0,0,1,2.113.439,3.238,3.238,0,0,1,1.4,1.249,3.482,3.482,0,0,1,.491,1.842,3.062,3.062,0,0,1-1.073,2.472,4.469,4.469,0,0,1-2.97.9Zm0-1.78h1.963a1.93,1.93,0,0,0,1.329-.41,1.492,1.492,0,0,0,.458-1.172,1.759,1.759,0,0,0-.461-1.267,1.724,1.724,0,0,0-1.274-.5H108.17Zm16.238.447a6.438,6.438,0,0,1-.557,2.761,4.192,4.192,0,0,1-1.593,1.831,4.707,4.707,0,0,1-4.742.007,4.233,4.233,0,0,1-1.611-1.82,6.253,6.253,0,0,1-.579-2.721v-.527a6.4,6.4,0,0,1,.568-2.772,4.226,4.226,0,0,1,1.6-1.838,4.7,4.7,0,0,1,4.739,0,4.226,4.226,0,0,1,1.6,1.838,6.386,6.386,0,0,1,.568,2.765Zm-2.227-.483a4.488,4.488,0,0,0-.6-2.549,2.122,2.122,0,0,0-3.42-.011,4.436,4.436,0,0,0-.608,2.523v.52a4.544,4.544,0,0,0,.6,2.534,2.1,2.1,0,0,0,3.428.033,4.517,4.517,0,0,0,.6-2.531Zm7.771,1.67H128.2V16H126V5.336h3.962a4.479,4.479,0,0,1,2.915.842,2.907,2.907,0,0,1,1.025,2.38,3.281,3.281,0,0,1-.472,1.82A3.222,3.222,0,0,1,132,11.54L134.31,15.9V16h-2.358Zm-1.75-1.78h1.772a1.815,1.815,0,0,0,1.282-.421,1.505,1.505,0,0,0,.454-1.161,1.611,1.611,0,0,0-.428-1.187,1.781,1.781,0,0,0-1.315-.432H128.2ZM27.479,37.551h1.88a2.649,2.649,0,0,0,1.99-.671A2.46,2.46,0,0,0,32,35.1a2.175,2.175,0,0,0-.641-1.672,2.484,2.484,0,0,0-1.764-.6,2.6,2.6,0,0,0-1.7.555,1.776,1.776,0,0,0-.684,1.447H23.682a4.339,4.339,0,0,1,.751-2.5,5,5,0,0,1,2.1-1.727,7.007,7.007,0,0,1,2.972-.623,6.646,6.646,0,0,1,4.419,1.349,4.6,4.6,0,0,1,1.6,3.717,3.74,3.74,0,0,1-.745,2.246,4.838,4.838,0,0,1-1.953,1.575,4.416,4.416,0,0,1,2.24,1.611A4.371,4.371,0,0,1,35.8,43.02a4.679,4.679,0,0,1-1.727,3.8,6.945,6.945,0,0,1-4.572,1.428,6.585,6.585,0,0,1-4.352-1.4,4.585,4.585,0,0,1-1.691-3.711H26.99a2.044,2.044,0,0,0,.751,1.636,3.132,3.132,0,0,0,3.821-.031,2.3,2.3,0,0,0,.714-1.764q0-2.661-2.93-2.661H27.479Zm22.717,3.1a9,9,0,0,1-1.526,5.64A5.326,5.326,0,0,1,44.2,48.244a5.363,5.363,0,0,1-4.443-1.917,8.74,8.74,0,0,1-1.575-5.493V37.563a8.886,8.886,0,0,1,1.544-5.652,5.366,5.366,0,0,1,4.449-1.929,5.371,5.371,0,0,1,4.443,1.91A8.713,8.713,0,0,1,50.2,37.38Zm-3.528-3.6a6.508,6.508,0,0,0-.6-3.22,2.042,2.042,0,0,0-1.886-1.008,2.006,2.006,0,0,0-1.837.959,6.091,6.091,0,0,0-.629,3v4.325a6.832,6.832,0,0,0,.592,3.232A2.015,2.015,0,0,0,44.2,45.4a1.981,1.981,0,0,0,1.868-1.014,6.669,6.669,0,0,0,.6-3.1ZM59.18,48V30.227h5.469a8.3,8.3,0,0,1,4.193,1.056,7.363,7.363,0,0,1,2.887,3,9.262,9.262,0,0,1,1.038,4.425v.818a9.288,9.288,0,0,1-1.019,4.407,7.3,7.3,0,0,1-2.875,2.991A8.368,8.368,0,0,1,64.686,48Zm3.662-14.807V45.058h1.77s2.527-.468,3.284-1.4a6.344,6.344,0,0,0,1.16-4.016V38.7a6.444,6.444,0,0,0-1.123-4.108,3.963,3.963,0,0,0-3.284-1.4ZM79.322,48H75.66V30.227h3.662ZM92.75,44.338H86.329L85.108,48H81.214L87.83,30.227h3.394L97.877,48H93.983Zm-5.432-2.966h4.443l-2.234-6.653Zm21.436,1.965a1.879,1.879,0,0,0-.732-1.593,9.607,9.607,0,0,0-2.637-1.172,18.692,18.692,0,0,1-3.015-1.215q-3.027-1.636-3.027-4.407a4.292,4.292,0,0,1,.812-2.57,5.3,5.3,0,0,1,2.332-1.764,8.776,8.776,0,0,1,3.412-.635,7.988,7.988,0,0,1,3.394.69,5.4,5.4,0,0,1,2.313,1.947,5.1,5.1,0,0,1,.824,2.856h-3.662a2.4,2.4,0,0,0-.769-1.9,3.161,3.161,0,0,0-2.161-.677,3.377,3.377,0,0,0-2.087.568,1.79,1.79,0,0,0-.745,1.5,1.715,1.715,0,0,0,.873,1.453,9.861,9.861,0,0,0,2.57,1.1A11.1,11.1,0,0,1,111,39.846a4.643,4.643,0,0,1,1.428,3.467,4.277,4.277,0,0,1-1.746,3.619,7.642,7.642,0,0,1-4.7,1.312,9.075,9.075,0,0,1-3.735-.751,5.911,5.911,0,0,1-2.57-2.057,5.268,5.268,0,0,1-.885-3.027h3.674q0,2.942,3.516,2.942a3.42,3.42,0,0,0,2.039-.531A1.728,1.728,0,0,0,108.753,43.337ZM39.686,77.754a6.356,6.356,0,0,1-2.8,1.837,11.707,11.707,0,0,1-4,.653,7.932,7.932,0,0,1-4.047-1.007,6.717,6.717,0,0,1-2.686-2.924,10.29,10.29,0,0,1-.97-4.5V70.6a10.928,10.928,0,0,1,.9-4.608,6.637,6.637,0,0,1,2.588-2.979,7.454,7.454,0,0,1,3.961-1.031,7.424,7.424,0,0,1,4.944,1.508,6.443,6.443,0,0,1,2.112,4.388H36.121a3.544,3.544,0,0,0-1.08-2.234,3.45,3.45,0,0,0-2.3-.708,3.247,3.247,0,0,0-2.844,1.4,7.382,7.382,0,0,0-.989,4.175V71.65a7.027,7.027,0,0,0,1.062,4.224A3.637,3.637,0,0,0,33.082,77.3a4.062,4.062,0,0,0,2.942-.879V73.359H32.691v-2.7h6.995Zm9.546-4.26H46.314V80H42.652V62.227h6.6a7.465,7.465,0,0,1,4.858,1.4A4.845,4.845,0,0,1,55.823,67.6a5.468,5.468,0,0,1-.787,3.033,5.37,5.37,0,0,1-2.386,1.935l3.845,7.263V80H52.564Zm-2.917-2.966h2.954a3.025,3.025,0,0,0,2.136-.7,2.509,2.509,0,0,0,.757-1.935,2.685,2.685,0,0,0-.714-1.978,2.968,2.968,0,0,0-2.191-.72H46.314Zm22.327,5.811H62.22L61,80H57.105l6.616-17.773h3.394L73.768,80H69.874Zm-5.432-2.966h4.443l-2.234-6.653Zm2.966-15.906H70.02L66.639,61.25H63.77Zm22.632,7.727H83.363V80H79.7V65.193H74.329V62.227H88.807ZM94.788,80H91.126V62.227h3.662Zm12.61-4.663a1.879,1.879,0,0,0-.732-1.593,9.607,9.607,0,0,0-2.637-1.172,18.692,18.692,0,0,1-3.015-1.215q-3.027-1.636-3.027-4.407a4.292,4.292,0,0,1,.812-2.57,5.3,5.3,0,0,1,2.332-1.764,8.776,8.776,0,0,1,3.412-.635,7.988,7.988,0,0,1,3.394.69,5.4,5.4,0,0,1,2.313,1.947,5.1,5.1,0,0,1,.824,2.856H107.41a2.4,2.4,0,0,0-.769-1.9,3.161,3.161,0,0,0-2.161-.677,3.377,3.377,0,0,0-2.087.568,1.79,1.79,0,0,0-.745,1.5,1.715,1.715,0,0,0,.873,1.453,9.861,9.861,0,0,0,2.57,1.1,11.1,11.1,0,0,1,4.553,2.332,4.643,4.643,0,0,1,1.428,3.467,4.277,4.277,0,0,1-1.746,3.619,7.642,7.642,0,0,1-4.7,1.312,9.075,9.075,0,0,1-3.735-.751,5.911,5.911,0,0,1-2.57-2.057,5.268,5.268,0,0,1-.885-3.027h3.674q0,2.942,3.516,2.942a3.42,3.42,0,0,0,2.039-.531A1.728,1.728,0,0,0,107.4,75.337Z" transform="translate(941 445.509)" fill="#fff"/>
    </g>
    <g id="Snappy-Default_4_" data-name="Snappy-Default (4)" transform="translate(1053.018 449.011)">
      <path id="Caminho_247905" data-name="Caminho 247905" d="M216.376,309.482c9.688,9.335,19.384,22.072,29.072,31.406-4.651,24.339,4.452,35.06-6.517,43.786-3.963,3.148-28.05,9.84-41.547,2.086-.309-12.633,6.639-16.39,14.044-21.132C218.911,349.608,216.228,325.263,216.376,309.482Z" transform="translate(-157.141 -60.182)" fill="#2e93ee" fill-rule="evenodd"/>
      <path id="Caminho_247906" data-name="Caminho 247906" d="M223.407,405.939a22.09,22.09,0,0,1,4.8-9.757,21.867,21.867,0,0,1,8.854-6.25,17.755,17.755,0,0,0-8.5,16.034C226.836,406.036,225.112,406.036,223.407,405.939Z" transform="translate(-169.721 -75.826)" fill="#1d5297" fill-rule="evenodd"/>
      <path id="Caminho_247907" data-name="Caminho 247907" d="M237.862,402.787a21.979,21.979,0,0,1,13.581-15.742,17.485,17.485,0,0,0-8.364,17.491A27.223,27.223,0,0,1,237.862,402.787Z" transform="translate(-195.749 -75.264)" fill="#1d5297" fill-rule="evenodd"/>
      <path id="Caminho_247908" data-name="Caminho 247908" d="M286.631,151.632c4.986,7.23,7.224,22.453-32.591,44.7a341.123,341.123,0,0,0,22.021,34.029c5.288,5.26,8.634,19.3,3.345,26.315a62.955,62.955,0,0,1-9.161,10.171,38.789,38.789,0,0,1-18.85-.7,25.327,25.327,0,0,1-3.789-28.154S214.043,203.01,216.16,192.47,270.779,128.654,286.631,151.632Z" transform="translate(-216.063 -28.379)" fill="#2e93ee" fill-rule="evenodd"/>
      <path id="Caminho_247909" data-name="Caminho 247909" d="M246.865,260.257s13.6,11.162,17.016,13.093a39.934,39.934,0,0,1-7.914-3.407s-6.034,7.339-1.608,13.552a10.706,10.706,0,0,1-4.606-7.064,10.756,10.756,0,0,1,1.923-8.225,63.728,63.728,0,0,1-4.986-7.229Z" transform="translate(-215.3 -50.609)" fill="#1d5297" fill-rule="evenodd"/>
      <path id="Caminho_247910" data-name="Caminho 247910" d="M107.74,250.534a14.323,14.323,0,0,0,2.31,7.281c2.29,3.627,3.616,3.194-2.1,6.31a43.135,43.135,0,0,1-13.606,4.2c-8.055,1.3-6.176.415-2.619-7.087a62.657,62.657,0,0,1,5.495-9.652c7.79-10.871,10.2-10.132,10.518-1.056" transform="translate(63.865 -47.367)" fill="#2e93ee" fill-rule="evenodd"/>
      <path id="Caminho_247911" data-name="Caminho 247911" d="M75.868,244.481c2.927,5.429-1.563,6.283-7.347,8.3a29.655,29.655,0,0,1-6.652,1.477c-6.51.7-4.825-.24-1.975-5.481a96.248,96.248,0,0,1,5.79-9.335c11.381-16.293,5.944-2.909,10.216,5.04" transform="translate(124.3 -45.062)" fill="#2e93ee" fill-rule="evenodd"/>
      <path id="Caminho_247912" data-name="Caminho 247912" d="M43.087,242.323a30.262,30.262,0,0,0,.135,3.739c.431,4.534.939,3.757-4.684,4.256a32.848,32.848,0,0,1-7.495-.077c-7.167-1.069-4.555-3.556-.823-7.709a31.421,31.421,0,0,1,4.233-3.888c14.153-10.864,8.827-3.239,8.634,3.7" transform="translate(181.712 -45.349)" fill="#2e93ee" fill-rule="evenodd"/>
      <path id="Caminho_247913" data-name="Caminho 247913" d="M.179,185.587c.225-5.526.6-11.078,1.364-16.559,2.245-16.111-3.41-31.587,6.433-44.7A107.744,107.744,0,0,1,37.492,98.475C53.421,88.343,70.946,80.019,85,67.192A192.65,192.65,0,0,0,77.8,47.058S118.359,67.852,118,74.467c-.347,6.342-10.609,5.778-15.362,13.669.16.544.321,1.095.476,1.646,4.645,3.31,23.636,17.322,22.22,24.2s-14.038,5.5-19.776,9.393q-.335,3.357-.862,6.705a28.538,28.538,0,0,1-.643,16.4c-2.181,3.473-2.831,3.006-4.137,3.763q-1.781,5.689-3.969,11.227c-3.558,9.07-9.071,17.368-12.134,26.56a37.908,37.908,0,0,0-1.39,19.849,21.255,21.255,0,0,0,6.659,12.36,22.107,22.107,0,0,0,16.225,4.593,59.875,59.875,0,0,0,23.109-8.648c18.875-10.028,44.107-9.717,59.759,4.534a26.482,26.482,0,0,1,6.684,9.459,2.966,2.966,0,0,1-.991,3.614c-2.9,2.293-6.433,0-9.065-1.192-5.037-2.287-12.114-7.612-22.375-3.712a84.435,84.435,0,0,0-26.055,18.735c-5.854,5.9-12.629,9.944-18.052,16.241a128.881,128.881,0,0,1-25.347,21.65c-26.531,19.376-49.9,14.259-71.153-8.188-17-17.97-18.251-37.515-20.728-61.543a211.83,211.83,0,0,1-.913-30.194Z" transform="translate(52.19 -9.151)" fill="#2e93ee" fill-rule="evenodd"/>
      <path id="Caminho_247914" data-name="Caminho 247914" d="M210.758,243.852c-13.677,6.809-28.191,22.026-42.171,38.585-18.238,21.559-63.825,53.334-101.44,3.407C31.719,238.812,48.4,172.9,50.459,165.389l.238-.758c1.2-1.529,32.811-41.661,61.722-47.569,7.72,6.672,9.219,18.424-1.062,38.68-17.287,34.075-31.112,83.769-.379,114.294a41.725,41.725,0,0,0,16.366,10.281c21.873,7.177,33.421-6.018,47.086-18.748a66.159,66.159,0,0,1,36.329-17.718Z" transform="translate(0.499 -22.764)" fill="#ffcf00" fill-rule="evenodd"/>
      <path id="Caminho_247915" data-name="Caminho 247915" d="M182.954,315.438a73.151,73.151,0,0,0,36.5-14.861,50.5,50.5,0,0,1-32.276,20.957Q184.924,318.531,182.954,315.438Z" transform="translate(-119.533 -58.45)" fill="#eca93e" fill-rule="evenodd"/>
      <path id="Caminho_247916" data-name="Caminho 247916" d="M182.69,322.793a84.328,84.328,0,0,1-22.028,28.458,47.941,47.941,0,0,1-8.672-2.9A70.326,70.326,0,0,0,182.69,322.793Z" transform="translate(-57.823 -62.77)" fill="#eca93e" fill-rule="evenodd"/>
      <path id="Caminho_247917" data-name="Caminho 247917" d="M98.579,317.717q-1.126,1.3-2.245,2.624c-.334.4-.688.8-1.042,1.212a15.027,15.027,0,0,0-.984-9.575A50.871,50.871,0,0,1,98.579,317.717Z" transform="translate(72.753 -60.667)" fill="#eca93e" fill-rule="evenodd"/>
      <path id="Caminho_247918" data-name="Caminho 247918" d="M118.243,335.463c-1.576,1.3-3.217,2.533-4.927,3.751a22.779,22.779,0,0,0-.174-14.31A52.063,52.063,0,0,1,118.243,335.463Z" transform="translate(37.917 -63.18)" fill="#eca93e" fill-rule="evenodd"/>
      <path id="Caminho_247919" data-name="Caminho 247919" d="M80.508,298.552q-1.75,1.768-3.506,3.6a30.592,30.592,0,0,0-.811-7.541A37.132,37.132,0,0,1,80.508,298.552Z" transform="translate(105.418 -57.29)" fill="#eca93e" fill-rule="evenodd"/>
      <path id="Caminho_247920" data-name="Caminho 247920" d="M238.528,266.271a73.794,73.794,0,0,0-42.46-.052q-.54-2.947-.952-5.869C222.947,253.859,238.528,266.271,238.528,266.271Z" transform="translate(-148.401 -50.262)" fill="#eca93e" fill-rule="evenodd"/>
      <path id="Caminho_247921" data-name="Caminho 247921" d="M193.758,212.768c.2-2.378.437-4.652.7-6.816a65.186,65.186,0,0,1,44.628,13.54,72.2,72.2,0,0,0-45.323-6.724Z" transform="translate(-147.86 -40.017)" fill="#eca93e" fill-rule="evenodd"/>
      <path id="Caminho_247922" data-name="Caminho 247922" d="M181.438,165.728c1.145-1.3,2.432-2.721,3.86-4.237,31.3,0,39.752,14.479,39.752,14.479a69.5,69.5,0,0,0-43.612-10.242Z" transform="translate(-123.904 -31.403)" fill="#eca93e" fill-rule="evenodd"/>
      <path id="Caminho_247923" data-name="Caminho 247923" d="M159.1,193.677a183.833,183.833,0,0,1,3.461-20.931c.752-.454,1.506-.913,2.239-1.386,10-6.478,53.957-33.038,66.862-40.664a25.683,25.683,0,0,1,.135,5.869C218.112,155.3,187.778,187.206,159.1,193.677Z" transform="translate(-112.762 -25.415)" fill="#eca93e" fill-rule="evenodd"/>
      <path id="Caminho_247924" data-name="Caminho 247924" d="M129.445,301.3a19.95,19.95,0,0,0-18.142-8.674c-20.13,2.591-13.76,26.321-8.929,40.281a113.283,113.283,0,0,1,5.706,31.1c-.039,13.779-5.288,17.931,1.158,23.321a54.877,54.877,0,0,0,35.132,9.749c11.175-2.52,11.484-25.408-6.33-31.244a69.618,69.618,0,0,1-4.343-33.039c.257-7.722.933-23.93-4.246-31.542" transform="translate(16.606 -56.89)" fill="#2e93ee" fill-rule="evenodd"/>
      <path id="Caminho_247925" data-name="Caminho 247925" d="M130.6,417.4c-1.583-.22-3.159-.518-4.709-.868a20.348,20.348,0,0,0-5.553-18.534A21.994,21.994,0,0,1,130.6,417.4Z" transform="translate(19.747 -77.393)" fill="#1d5297" fill-rule="evenodd"/>
      <path id="Caminho_247926" data-name="Caminho 247926" d="M106.478,417.3a23.3,23.3,0,0,0-5.4-20.64,21.16,21.16,0,0,1,10.12,17.737A9.093,9.093,0,0,1,106.478,417.3Z" transform="translate(54.677 -77.133)" fill="#1d5297" fill-rule="evenodd"/>
      <path id="Caminho_247927" data-name="Caminho 247927" d="M155.108,261.389s2.322,13.261-6.7,17.711c-7.643,3.77-17.029,3.887-21.719-1.736-6.479-7.774-16.083-23.73,9.92-39.3,16.083-9.62,16.894,23.062,16.894,23.062Z" transform="translate(-4.309 -45.949)" fill="#1d5297" fill-rule="evenodd"/>
      <path id="Caminho_247928" data-name="Caminho 247928" d="M146.737,184.276c-3.391,7.32-6.434,12.956-6.594,13.487,0,0-21.005-25.913-17.094-30.182C127.379,162.84,143.462,178.543,146.737,184.276Z" transform="translate(1.834 -32.417)" fill="#1d5297" fill-rule="evenodd"/>
      <path id="Caminho_247929" data-name="Caminho 247929" d="M76.635,140.724C54.119,162.348,100.9,191.053,100.9,191.053c-5.1,3.207-11.528,14.149-16.353,22.162s-6.7,6.672-12.6,13.345,10.937,16.584,10.937,16.584,56.3-30.285,56.118-49.687a145.02,145.02,0,0,0-26.281-37.379C106.068,149.353,87.4,130.359,76.635,140.724Z" transform="translate(51.504 -26.776)" fill="#2e93ee" fill-rule="evenodd"/>
      <path id="Caminho_247930" data-name="Caminho 247930" d="M150,252.98s4.207,20.64-8.177,26.651a28.879,28.879,0,0,1-15.144-2.98s-12.7-19.4-3.217-29.45S150,252.98,150,252.98Z" transform="translate(-0.009 -47.421)" fill="#2e93ee" fill-rule="evenodd"/>
      <path id="Caminho_247931" data-name="Caminho 247931" d="M139.4,257.011s-16.282,8.693-19.113,9.484a15.3,15.3,0,0,0,8.318-1.244s4.188,7.9-.644,12.84c0,0,7.483-1.3,4.8-13.74l6.794-6.983Z" transform="translate(10.856 -49.978)" fill="#1d5297" fill-rule="evenodd"/>
      <path id="Caminho_247932" data-name="Caminho 247932" d="M247.93,50.6S239.464.882,218.729.013c-13.626-.564-20.49,16.733-20.49,16.733a43.692,43.692,0,0,0-23.559,6.964,9.165,9.165,0,0,0-10.293-4.645c-6.5,2.2-13.511,16.617-10.937,40.314A20.708,20.708,0,0,0,138.6,69.518a10.977,10.977,0,0,0,7.115,4.535c4.3.369,22.819-6.355,27.85-1.943a15.918,15.918,0,0,1,6.626,15.761s20.368-1.943,29.593-13.559S226.706,40.217,247.93,50.6Z" transform="translate(-112.278 0)" fill="#2e93ee" fill-rule="evenodd"/>
      <path id="Caminho_247933" data-name="Caminho 247933" d="M243.62,62.112s-5.1-16.688-14.88-21.378A179.534,179.534,0,0,1,226.1,64.853,147.354,147.354,0,0,1,243.62,62.112Z" transform="translate(-178.454 -7.921)" fill="#f1f3f6"/>
      <path id="Caminho_247934" data-name="Caminho 247934" d="M182.562,24.8s-12.6,6.005-20.915,32.041A181.418,181.418,0,0,1,190.205,54.3,67.854,67.854,0,0,1,182.562,24.8Z" transform="translate(-73.117 -4.822)" fill="#f1f3f6"/>
      <path id="Caminho_247935" data-name="Caminho 247935" d="M176.287,39.129c-3.068,0-5.565,3.414-5.565,7.631s2.49,7.631,5.565,7.631,5.565-3.414,5.565-7.631S179.362,39.129,176.287,39.129Z" transform="translate(-72.074 -7.609)" fill="#1d5297" fill-rule="evenodd"/>
      <path id="Caminho_247936" data-name="Caminho 247936" d="M234.909,61.507a5.943,5.943,0,0,1-3.161-2.141,6.02,6.02,0,0,1,0-7.268,5.944,5.944,0,0,1,3.161-2.141,3.413,3.413,0,0,1,1.344.3,15.484,15.484,0,0,1,3.011,5.053v.415a5.259,5.259,0,0,1-1.022,3.772A5.193,5.193,0,0,1,234.909,61.507Z" transform="translate(-177.697 -9.715)" fill="#1d5297" fill-rule="evenodd"/>
      <path id="Caminho_247937" data-name="Caminho 247937" d="M163.418,116.127a148.777,148.777,0,0,1-21.718-1.736c-5.495-1.471-18.921-3.751-17.7-21.223.9-12.891,18.013-18.566,30.539-9.49,10.262-2.267,21.655-9.069,31.916,1.134a11.664,11.664,0,0,1,3.107,14.181s21.32-3.427,28.693-14.252S235.15,59.475,245.6,58.445a17.776,17.776,0,0,1,20.11,9.069c5.366,10.41,8.042,29.236-31.638,59s-57.2,37.787-65.826,37.774c-11.039,0-11.709-4.1-24.4-5.876-6.478-.907-11.4-11.881-4.291-21.378a128.5,128.5,0,0,1,23.861-20.911Z" transform="translate(-121.272 -11.261)" fill="#ffcf00" fill-rule="evenodd"/>
      <path id="Caminho_247938" data-name="Caminho 247938" d="M233.794,77.936s8.582-9.879,16.894-1.872c6.884,6.627,1.744,17.757,1.744,17.757s-.5-9.594-4.961-8.946c0,0-3.751,23.9-38.883,47.789s-44.911,21.76-52.554,19.758-16.36-5.876-13.407-12.011,20.914-21.377,20.914-21.377,8.042,6,23.328.648A128.239,128.239,0,0,0,240.228,79.9s-.708-4.464-5.919-1.944" transform="translate(-121.392 -14.183)" fill="#f67922" fill-rule="evenodd"/>
      <path id="Caminho_247939" data-name="Caminho 247939" d="M211.465,117.971l-.76.379Z" transform="translate(-133.895 -22.941)" fill="#c56428" fill-rule="evenodd"/>
      <path id="Caminho_247940" data-name="Caminho 247940" d="M179.935,127.6a28.967,28.967,0,0,0,21.095-.519,118.744,118.744,0,0,0,28.056-15.45,59.632,59.632,0,0,1,22.928.687,112.974,112.974,0,0,1-29.265,27.713c-35.126,23.892-44.911,21.76-52.554,19.758a43.212,43.212,0,0,1-7.772-2.753A41.239,41.239,0,0,1,179.935,127.6Z" transform="translate(-135.551 -21.554)" fill="#e05406" fill-rule="evenodd"/>
      <path id="Caminho_247941" data-name="Caminho 247941" d="M241.729,99.939c-3.564-1.147-6.311,3.647-1.608,5.74.643,1.762-.405,3.693-3.294,4.372,9.129,1.872,9.5-8.461,4.9-10.112" transform="translate(-188.09 -19.4)" fill="#eca93e" fill-rule="evenodd"/>
      <path id="Caminho_247942" data-name="Caminho 247942" d="M287.789,98.124c2.947-.946,5.211,3.006,1.325,4.735-.546,1.458.335,3.051,2.715,3.609C284.3,108.016,283.993,99.484,287.789,98.124Z" transform="translate(-274.431 -19.053)" fill="#eca93e" fill-rule="evenodd"/>
      <path id="Caminho_247943" data-name="Caminho 247943" d="M245.442,146.134c-5.719,1.678-9.733-10.89-10.827-14.764a25.1,25.1,0,0,0,14.385,1.5c-.5,1.464-.978,2.928-1.286,4.055C246.78,140.394,247.72,145.466,245.442,146.134Z" transform="translate(-190.691 -25.546)" fill="#f1f3f6" fill-rule="evenodd"/>
      <path id="Caminho_247944" data-name="Caminho 247944" d="M287.571,127.143a28.374,28.374,0,0,0,3.371.648c-.573,1.082-1.1,2.131-1.486,2.98-1.493,3.271-1.39,8.421-3.744,8.719-5.79.719-7.765-11.822-8.261-16.072a34.635,34.635,0,0,0,10.12,3.725Z" transform="translate(-267.139 -24)" fill="#f1f3f6" fill-rule="evenodd"/>
    </g>
  </g>
</svg>
