<svg width="147" height="202" viewBox="0 0 147 202" fill="none" xmlns="http://www.w3.org/2000/svg">
<path fill-rule="evenodd" clip-rule="evenodd" d="M35.784 147.797C41.5 153.329 47.2161 160.878 52.9321 166.409C50.1891 180.833 55.559 187.186 49.086 192.356C46.748 194.221 32.541 198.188 24.581 193.591C24.4 186.105 28.4971 183.88 32.8651 181.069C37.2791 171.575 35.695 157.15 35.784 147.798" fill="#3C97FF"/>
<path fill-rule="evenodd" clip-rule="evenodd" d="M32.5131 195.681C32.9578 193.554 33.9274 191.572 35.3337 189.915C36.7401 188.258 38.5384 186.979 40.5651 186.195C36.6981 189.095 35.2811 192.295 35.5471 195.695C34.5341 195.74 33.5131 195.738 32.5131 195.681Z" fill="#24578F"/>
<path fill-rule="evenodd" clip-rule="evenodd" d="M25.686 194.149C26.1481 192.054 27.1214 190.106 28.5192 188.479C29.917 186.851 31.6958 185.595 33.697 184.822C29.51 187.967 28.19 191.457 28.776 195.174C27.7138 194.938 26.6785 194.595 25.686 194.149Z" fill="#24578F"/>
<path fill-rule="evenodd" clip-rule="evenodd" d="M42.474 73.104C45.417 77.388 46.735 86.409 23.249 99.611C23.249 99.611 33.122 116.659 36.239 119.777C39.356 122.895 41.331 131.211 38.214 135.369C36.6387 137.569 34.828 139.591 32.814 141.398C32.814 141.398 25.02 142.853 21.695 140.982C21.695 140.982 15.095 134.589 19.461 124.298C19.461 124.298 -0.338963 103.561 0.911037 97.323C2.16104 91.085 33.122 59.487 42.474 73.104Z" fill="#3C97FF"/>
<path fill-rule="evenodd" clip-rule="evenodd" d="M19.457 124.298C19.457 124.298 27.479 130.911 29.496 132.058C27.8723 131.557 26.3078 130.88 24.83 130.041C24.83 130.041 21.271 134.392 23.881 138.07C23.881 138.07 19.097 135.34 22.3 129.012C21.2232 127.653 20.2412 126.222 19.361 124.728L19.457 124.298Z" fill="#24578F"/>
<path fill-rule="evenodd" clip-rule="evenodd" d="M102.067 120.459C102.125 121.993 102.596 123.483 103.43 124.772C104.781 126.921 105.563 126.664 102.189 128.509C99.6723 129.78 96.9611 130.622 94.1671 131.001C89.4151 131.778 90.5261 131.246 92.6231 126.801C93.5324 124.803 94.617 122.889 95.8641 121.082C100.464 114.64 101.878 115.082 102.069 120.457" fill="#3C97FF"/>
<path fill-rule="evenodd" clip-rule="evenodd" d="M118.916 118.237C120.641 121.455 117.996 121.959 114.581 123.153C113.312 123.595 111.996 123.889 110.659 124.029C106.818 124.444 107.815 123.888 109.493 120.781C110.52 118.874 111.656 117.028 112.893 115.25C119.605 105.595 116.393 113.527 118.92 118.237" fill="#3C97FF"/>
<path fill-rule="evenodd" clip-rule="evenodd" d="M133.449 116.793C133.43 117.533 133.457 118.273 133.529 119.009C133.783 121.688 134.082 121.235 130.767 121.531C129.296 121.686 127.813 121.671 126.345 121.487C122.116 120.852 123.659 119.378 125.86 116.92C126.621 116.072 127.457 115.296 128.36 114.601C136.714 108.164 133.56 112.692 133.453 116.793" fill="#3C97FF"/>
<path fill-rule="evenodd" clip-rule="evenodd" d="M31.7551 104.618C31.8871 101.343 32.1081 98.055 32.5551 94.808C33.8811 85.261 30.5431 76.089 36.3551 68.308C41.0921 61.964 47.1171 57.226 53.7361 52.998C63.1361 46.993 73.4851 42.059 81.7551 34.459C80.5611 30.4068 79.1439 26.4237 77.5101 22.528C77.5101 22.528 101.447 34.867 101.234 38.77C101.034 42.527 94.9751 42.194 92.1711 46.87C92.2711 47.194 92.3621 47.519 92.4501 47.844C95.1891 49.804 106.391 58.108 105.557 62.184C104.717 66.29 97.2781 65.444 93.8941 67.751C93.7608 69.0763 93.5914 70.4007 93.3861 71.724C93.8941 74.724 94.3561 79.281 93.0071 81.44C91.7221 83.496 91.3381 83.221 90.5661 83.67C89.8641 85.9167 89.0834 88.1347 88.2241 90.324C86.1241 95.683 82.8751 100.617 81.0671 106.051C79.7559 109.829 79.4729 113.888 80.2471 117.812C80.6904 120.628 82.0747 123.21 84.1741 125.138C86.8361 127.438 90.3171 128.084 93.7441 127.859C98.5911 127.54 103.17 124.981 107.375 122.735C118.508 116.792 133.392 116.983 142.624 125.427C144.336 126.982 145.683 128.897 146.568 131.033C146.731 131.403 146.761 131.818 146.655 132.207C146.548 132.597 146.31 132.938 145.982 133.174C144.275 134.533 142.175 133.174 140.634 132.468C137.664 131.112 133.487 127.956 127.434 130.268C122.043 132.329 116.056 137.325 112.064 141.368C108.61 144.868 104.615 147.262 101.418 150.993C96.5471 156.676 92.5261 159.366 86.4651 163.821C70.8241 175.316 57.0381 172.296 44.5001 158.98C34.4751 148.329 33.7381 136.748 32.2761 122.512C31.6788 116.567 31.5047 110.587 31.7551 104.618Z" fill="#3C97FF"/>
<path fill-rule="evenodd" clip-rule="evenodd" d="M125.46 131.077C117.392 135.112 108.831 144.147 100.585 153.942C89.8281 166.719 62.9361 185.549 40.7511 155.959C19.8511 128.089 29.6931 89.029 30.9081 84.581C30.9541 84.431 31.0011 84.281 31.0481 84.13C31.7481 83.225 50.3861 59.441 67.4551 55.941C72.0051 59.897 72.8901 66.864 66.8281 78.864C56.6281 99.057 48.4781 128.504 66.6041 146.594C69.3 149.354 72.6074 151.441 76.2591 152.687C89.1481 156.94 95.9711 149.119 104.031 141.579C109.899 135.922 117.394 132.249 125.46 131.077Z" fill="#FFCF00"/>
<path fill-rule="evenodd" clip-rule="evenodd" d="M38.2581 152.349C43.4301 151.69 52.2951 149.683 59.7901 143.541C59.7901 143.541 54.4731 152.858 40.7511 155.958C39.8581 154.774 39.0361 153.569 38.2581 152.349Z" fill="#ECA93E"/>
<path fill-rule="evenodd" clip-rule="evenodd" d="M74.5101 154.14C71.4408 160.63 67.0097 166.382 61.5181 171.006C59.7623 170.597 58.0498 170.021 56.4041 169.285C61.3221 167.022 69.6341 162.24 74.5101 154.14Z" fill="#ECA93E"/>
<path fill-rule="evenodd" clip-rule="evenodd" d="M101.91 152.386C101.467 152.902 101.025 153.42 100.585 153.941C100.385 154.178 100.18 154.417 99.969 154.657C100.288 152.514 100.242 150.43 99.389 148.985C100.308 150.058 101.15 151.195 101.91 152.386Z" fill="#ECA93E"/>
<path fill-rule="evenodd" clip-rule="evenodd" d="M92.9631 161.414C92.0341 162.173 91.0631 162.914 90.0561 163.637C90.7441 160.406 91.0381 157.037 89.9561 155.156C91.19 157.123 92.1987 159.222 92.9631 161.414Z" fill="#ECA93E"/>
<path fill-rule="evenodd" clip-rule="evenodd" d="M110.52 143.027C109.832 143.725 109.143 144.436 108.452 145.16C108.478 143.656 108.317 142.155 107.973 140.691C108.882 141.401 109.734 142.182 110.52 143.027Z" fill="#ECA93E"/>
<path fill-rule="evenodd" clip-rule="evenodd" d="M54.013 128.065C45.8541 125.593 37.1471 125.582 28.982 128.034C28.7687 126.87 28.5814 125.711 28.42 124.557C44.823 120.709 54.013 128.065 54.013 128.065Z" fill="#ECA93E"/>
<path fill-rule="evenodd" clip-rule="evenodd" d="M27.9221 102.429C28.0401 101.021 28.1801 99.674 28.3331 98.39C45.7041 97.968 54.6571 106.412 54.6571 106.412C44.2721 100.741 33.2551 101.544 27.9221 102.429Z" fill="#ECA93E"/>
<path fill-rule="evenodd" clip-rule="evenodd" d="M34.7861 79.662C35.4631 78.891 36.2211 78.048 37.0481 77.152C55.5131 77.152 60.4951 85.73 60.4951 85.73C52.8345 80.9145 43.7914 78.7801 34.7861 79.662Z" fill="#ECA93E"/>
<path fill-rule="evenodd" clip-rule="evenodd" d="M28.1771 99.771C28.6192 95.602 29.3007 91.4618 30.2181 87.371C30.6631 87.103 31.1071 86.831 31.5381 86.549C37.4381 82.704 63.3621 66.966 70.9751 62.449C71.1342 63.6015 71.1614 64.7684 71.0561 65.927C62.9861 77.033 45.0941 95.937 28.1771 99.771Z" fill="#ECA93E"/>
<path fill-rule="evenodd" clip-rule="evenodd" d="M86.9941 144.902C85.8274 143.173 84.2213 141.785 82.3407 140.882C80.4602 139.979 78.3731 139.593 76.2941 139.764C64.4221 141.314 68.1751 155.364 71.0261 163.635C73.0002 169.596 74.1318 175.803 74.3881 182.077C74.3651 190.242 71.2701 192.702 75.0701 195.892C78.3701 198.659 87.7951 202.628 95.7941 201.671C102.386 200.179 102.567 186.616 92.0601 183.155C89.1391 176.82 89.2701 170.355 89.4981 163.592C89.6501 159.018 90.0501 149.413 86.9981 144.899" fill="#3C97FF"/>
<path fill-rule="evenodd" clip-rule="evenodd" d="M89.5291 201.547C88.5941 201.416 87.6651 201.241 86.7531 201.032C87.1567 199.074 87.0688 197.046 86.4971 195.13C85.9255 193.214 84.8878 191.469 83.4771 190.052C87.7751 192.511 89.1941 196.702 89.5291 201.547Z" fill="#24578F"/>
<path fill-rule="evenodd" clip-rule="evenodd" d="M95.9061 201.642C96.3835 199.497 96.3439 197.269 95.7904 195.143C95.237 193.016 94.1856 191.052 92.7231 189.412C96.7231 191.704 98.2321 195.497 98.6921 199.922C97.9657 200.772 96.9915 201.373 95.9061 201.642Z" fill="#24578F"/>
<path fill-rule="evenodd" clip-rule="evenodd" d="M89.794 127.734C89.794 127.734 91.165 135.591 85.84 138.228C81.332 140.461 75.797 140.522 73.029 137.2C69.207 132.612 63.54 123.137 78.881 113.908C88.357 108.208 88.845 127.575 88.845 127.575L89.794 127.734Z" fill="#24578F"/>
<path fill-rule="evenodd" clip-rule="evenodd" d="M88.483 90.055C86.483 94.391 84.683 97.746 84.594 98.046C84.594 98.046 72.204 82.698 74.513 80.16C77.067 77.353 86.55 86.657 88.483 90.055Z" fill="#24578F"/>
<path fill-rule="evenodd" clip-rule="evenodd" d="M76.429 67.59C63.143 80.404 90.742 97.412 90.742 97.412C87.737 99.312 83.942 105.797 81.095 110.543C78.248 115.289 77.141 114.498 73.661 118.453C70.181 122.408 80.101 128.279 80.101 128.279C80.101 128.279 113.306 110.332 113.201 98.836C113.188 97.412 105.493 84.62 97.701 76.687C93.788 72.703 82.782 61.465 76.429 67.59Z" fill="#3C97FF"/>
<path fill-rule="evenodd" clip-rule="evenodd" d="M89.32 121.88C89.32 121.88 91.8 134.111 84.498 137.672C84.498 137.672 78.576 138.064 75.566 135.905C75.566 135.905 68.075 124.412 73.666 118.453C79.257 112.494 89.32 121.88 89.32 121.88Z" fill="#3C97FF"/>
<path fill-rule="evenodd" clip-rule="evenodd" d="M89.477 122.75C89.477 122.75 79.872 127.901 78.203 128.371C79.8757 128.591 81.5766 128.335 83.111 127.634C83.111 127.634 85.58 132.313 82.718 135.244C82.718 135.244 87.131 134.457 85.549 127.101L89.556 122.961L89.477 122.75Z" fill="#2E578C"/>
<path fill-rule="evenodd" clip-rule="evenodd" d="M80.863 30.051C80.863 30.051 75.869 0.589008 63.639 0.0820078C55.601 -0.250992 51.553 9.99901 51.553 9.99901C46.6215 10.011 41.7978 11.4435 37.659 14.125C37.659 14.125 35.415 10.074 31.579 11.374C27.743 12.674 23.618 21.219 25.138 35.263C23.3197 35.5397 21.5875 36.2241 20.0712 37.2651C18.5548 38.306 17.2936 39.6766 16.382 41.274C16.8706 41.9757 17.4933 42.5736 18.2142 43.0335C18.935 43.4933 19.7398 43.8058 20.582 43.953C23.115 44.17 34.043 40.188 37.01 42.794C39.977 45.4 41.28 47.355 40.918 52.133C40.918 52.133 52.931 50.974 58.359 44.097C63.787 37.22 68.343 23.898 80.863 30.051Z" fill="#3C97FF"/>
<path d="M39.281 32.178C39.281 32.178 36.281 22.29 30.503 19.522C30.3063 24.3152 29.7868 29.0897 28.948 33.813C32.3562 33.0601 35.8068 32.5141 39.281 32.178Z" fill="#F1F1F2"/>
<path d="M65.405 11.902C65.405 11.902 57.972 15.462 53.069 30.887C53.069 30.887 64.769 28.987 69.913 29.387C69.913 29.384 65.168 20.603 65.405 11.902Z" fill="#F1F1F2"/>
<path fill-rule="evenodd" clip-rule="evenodd" d="M62.321 18.741C60.509 18.741 59.039 20.765 59.039 23.263C59.039 25.761 60.509 27.784 62.321 27.784C64.133 27.784 65.602 25.76 65.602 23.263C65.602 20.766 64.132 18.741 62.321 18.741Z" fill="#24578F"/>
<path fill-rule="evenodd" clip-rule="evenodd" d="M34.594 30.763C33.167 30.763 32.01 29.231 32.01 27.339C32.01 25.447 33.167 23.917 34.594 23.917C34.8679 23.9226 35.1378 23.9842 35.387 24.098C36.1637 24.9739 36.7658 25.9901 37.161 27.092C37.161 27.175 37.18 27.255 37.18 27.339C37.182 29.228 36.022 30.763 34.594 30.763Z" fill="#24578F"/>
<path fill-rule="evenodd" clip-rule="evenodd" d="M25.707 62.21C25.707 62.21 16.138 62.052 12.896 61.182C9.65402 60.312 1.73501 58.961 2.45801 48.605C2.99101 40.964 13.076 37.605 20.471 42.982C26.522 41.637 33.245 37.602 39.295 43.654C43.576 47.936 41.128 52.054 41.128 52.054C41.128 52.054 53.702 50.024 58.051 43.617C62.4 37.21 68.015 28.64 74.183 28.033C77.424 27.714 82.883 27.242 86.045 33.412C89.207 39.582 90.79 50.735 67.382 68.375C43.974 86.015 33.645 90.767 28.554 90.761C22.043 90.752 21.647 88.331 14.161 87.28C10.338 86.744 7.43902 80.24 11.63 74.624C15.821 69.008 25.707 62.21 25.707 62.21Z" fill="#FFCF00"/>
<path fill-rule="evenodd" clip-rule="evenodd" d="M67.144 37.848C67.144 37.848 72.205 31.994 77.108 36.74C81.167 40.669 78.136 47.26 78.136 47.26C78.136 47.26 77.844 41.573 75.21 41.96C75.21 41.96 72.996 56.12 52.277 70.279C31.558 84.438 25.786 83.173 21.277 81.986C16.768 80.799 11.629 78.506 13.369 74.867C15.109 71.228 25.706 62.211 25.706 62.211C25.706 62.211 30.451 65.77 39.466 62.611C48.481 59.452 63.19 49.875 70.94 39.038C70.94 39.038 70.523 36.392 67.449 37.873" fill="#F47924"/>
<path fill-rule="evenodd" clip-rule="evenodd" d="M46.6021 56.38C46.4611 56.452 46.314 56.525 46.157 56.597C46.305 56.524 46.4531 56.452 46.6021 56.38Z" fill="#C56428"/>
<path fill-rule="evenodd" clip-rule="evenodd" d="M27.025 62.915C29.008 63.759 33.207 64.803 39.466 62.606C45.3709 60.3174 50.9378 57.2376 56.014 53.451C60.5052 52.7061 65.0986 52.844 69.537 53.857C64.8141 60.3213 58.9674 65.8838 52.276 70.279C31.557 84.438 25.785 83.173 21.276 81.986C19.6996 81.5895 18.1649 81.0427 16.693 80.353C17.937 69.595 24.658 64.81 27.025 62.915Z" fill="#E05406"/>
<path fill-rule="evenodd" clip-rule="evenodd" d="M32.503 47.796C30.403 47.118 28.779 49.955 31.555 51.196C31.945 52.241 31.318 53.384 29.613 53.788C34.999 54.899 35.213 48.775 32.503 47.795" fill="#ECA93E"/>
<path fill-rule="evenodd" clip-rule="evenodd" d="M8.72303 46.923C10.46 46.363 11.796 48.704 9.50503 49.729C9.18303 50.591 9.70503 51.535 11.105 51.868C6.66003 52.784 6.48204 47.732 8.72004 46.923" fill="#ECA93E"/>
<path fill-rule="evenodd" clip-rule="evenodd" d="M33.141 71.522C29.766 72.515 27.399 65.07 26.754 62.772C29.4331 63.8987 32.3855 64.2083 35.24 63.662C34.94 64.53 34.665 65.397 34.485 66.062C33.931 68.121 34.485 71.126 33.141 71.522Z" fill="#EBEEF2"/>
<path fill-rule="evenodd" clip-rule="evenodd" d="M12.895 61.182C13.5497 61.344 14.2136 61.4662 14.883 61.548C14.546 62.19 14.234 62.81 14.006 63.313C13.127 65.253 13.187 68.313 11.797 68.482C8.37203 68.908 7.21803 61.482 6.92603 58.957C8.78675 60.007 10.801 60.7578 12.895 61.182Z" fill="#EBEEF2"/>
</svg>
