<svg width="94" height="50" viewBox="0 0 94 50" fill="none" xmlns="http://www.w3.org/2000/svg">
<g clip-path="url(#clip0_2256_1030)">
<path fill-rule="evenodd" clip-rule="evenodd" d="M73.1426 22.7828C73.1426 22.7828 93.4262 37.4268 92.682 40.9719C91.9377 44.517 86.0138 43.1266 82.8539 47.5983C82.8539 47.5983 94.9125 58.9291 93.3789 63.0302C91.8453 67.1313 83.458 64.3045 80.7162 67.34C80.7162 67.34 81.5525 76.1219 79.1364 78.9256C76.7203 81.7292 77.418 79.111 74.1179 82.6577C74.1187 82.6337 80.4149 51.26 73.1426 22.7828Z" fill="#3C97FF"/>
<path fill-rule="evenodd" clip-rule="evenodd" d="M75.187 30.1285C75.187 30.1285 74.7223 2.43929 63.5466 0.260957C56.2044 -1.17552 51.0466 7.65243 51.0466 7.65243C51.0466 7.65243 45.1219 6.35496 37.7103 9.5063C37.7103 9.5063 36.2233 5.47448 32.5058 6.14664C28.7883 6.8188 23.8161 14.048 23.2352 27.1397C21.524 27.1383 19.8345 27.5232 18.2936 28.2656C16.7527 29.008 15.4003 30.0885 14.3377 31.4263C14.3377 31.4263 15.5215 33.9055 17.823 34.4619C20.1246 35.0183 30.7179 32.8864 33.0878 35.6901C35.4576 38.4937 36.3638 40.4634 35.3648 44.7964C35.3648 44.7964 46.5638 45.3989 52.5106 39.8609C58.4574 34.3229 64.5226 22.7599 75.187 30.1285Z" fill="#3C97FF"/>
<path d="M36.6651 26.2823C36.6651 26.2823 35.2942 16.8054 30.3685 13.4686C30.3685 13.4686 28.9976 20.7211 26.9317 26.3516C30.1724 26.1325 33.4235 26.1092 36.667 26.2819L36.6651 26.2823Z" fill="#F1F1F2"/>
<path d="M63.5004 11.3365C63.5004 11.3365 56.1816 13.561 49.5134 27.0232C49.5134 27.0232 60.5264 26.909 65.1967 27.9962C65.2196 27.9966 62.0829 19.284 63.5004 11.3365Z" fill="#F1F1F2"/>
<path fill-rule="evenodd" clip-rule="evenodd" d="M59.7129 17.1755C58.04 16.9208 56.4136 18.5659 56.0653 20.8597C55.7171 23.1534 56.7855 25.216 58.4585 25.4707C60.1314 25.7255 61.7578 24.0803 62.1061 21.7866C62.4543 19.4929 61.3859 17.4303 59.7129 17.1755Z" fill="#24578F"/>
<path fill-rule="evenodd" clip-rule="evenodd" d="M32.5523 24.3351C31.2513 24.1264 30.3917 22.5742 30.6472 20.8365C30.9027 19.0988 32.1808 17.8706 33.5051 18.0564C33.7539 18.1009 33.9911 18.1955 34.202 18.3344C34.7928 19.2445 35.203 20.2593 35.4102 21.3235C35.414 21.4015 35.4061 21.4795 35.3869 21.5551C35.1547 23.2924 33.8766 24.5206 32.5523 24.3351Z" fill="#24578F"/>
<path fill-rule="evenodd" clip-rule="evenodd" d="M61.4791 35.3648C61.4791 35.3648 66.9398 30.7073 70.7966 35.7358C73.9799 39.9066 70.262 45.5139 70.262 45.5139C70.262 45.5139 70.7966 40.2539 68.3103 40.2539C68.3103 40.2539 64.2908 52.9286 43.2637 63.008C22.2366 73.0873 17.102 71.1196 13.1291 69.4032C9.15615 67.6868 4.74139 64.8618 6.85578 61.7798C8.97018 58.6978 19.9599 51.9087 19.9599 51.9087C19.9599 51.9087 23.8168 55.8248 32.5527 54.1796C41.2887 52.5344 56.1585 45.8395 64.8017 36.9868C64.8017 36.9868 64.7784 34.5076 61.7578 35.4342" fill="#F47924"/>
<path fill-rule="evenodd" clip-rule="evenodd" d="M61.7812 50.5189C61.7812 50.5189 46.3306 43.22 30.7172 54.0176L33.0175 53.1835C33.0175 53.1835 23.3055 51.2139 21.7491 52.3724C20.1926 53.5309 11.7568 56.6822 9.01648 67.9894C8.20311 71.2797 15.8473 74.3614 34.8066 68.2906C46.586 64.4907 61.7812 50.5189 61.7812 50.5189Z" fill="#E05406"/>
<path fill-rule="evenodd" clip-rule="evenodd" d="M40.0107 49.4763L39.5693 49.6153L40.0107 49.4763Z" fill="#C56428"/>
<path fill-rule="evenodd" clip-rule="evenodd" d="M3.23103 45.5369C3.23103 45.5369 2.48753 55.6162 6.34438 55.7088C7.6454 55.7552 8.01734 52.9287 9.08618 51.2832C10.155 49.6376 12.6177 46.5796 12.6177 46.5796L3.23103 45.5369Z" fill="#EBEEF2"/>
<path fill-rule="evenodd" clip-rule="evenodd" d="M0.535751 36.1993C2.09262 29.2713 11.8275 27.6029 17.8687 33.5579C23.6074 33.1641 30.3687 30.4065 35.0851 36.8017C38.431 41.3203 35.5964 44.7492 35.5964 44.7492C35.5964 44.7492 47.4457 44.635 52.3252 39.3735C57.2047 34.112 63.5704 27.0465 69.3328 27.3477C72.3533 27.5099 77.4417 27.8344 79.4862 33.9284C81.5307 40.0224 81.4147 50.4727 57.4369 63.3557C33.4591 76.2387 23.3057 79.1814 18.6125 78.4631C12.6413 77.5362 12.5947 75.2642 5.88036 73.2728C2.44356 72.2533 0.675903 65.8813 5.32283 61.3148C9.96976 56.7483 20.0067 51.9084 20.0067 51.9084C20.0067 51.9084 9.01701 58.6974 6.90261 61.7794C4.78822 64.8615 9.20298 67.688 13.1759 69.4029C17.1488 71.1177 22.2838 73.087 43.3105 63.0076C64.3372 52.9283 68.3105 40.2536 68.3105 40.2536C70.7732 40.2768 70.2622 45.5135 70.2622 45.5135C70.2622 45.5135 73.9797 39.9062 70.7969 35.7354C66.9633 30.7085 61.4793 35.3645 61.4793 35.3645L61.7581 35.4342C64.7786 34.5073 64.8019 36.9868 64.8019 36.9868C56.1588 45.838 41.3122 52.5577 32.5762 54.2029C23.8403 55.8481 19.9834 51.932 19.9834 51.932C19.9834 51.932 11.2005 50.4491 8.34301 49.1977C5.4855 47.9463 -1.57864 45.5832 0.535751 36.1993Z" fill="#FFCF00"/>
<path fill-rule="evenodd" clip-rule="evenodd" d="M28.2543 39.6516C26.4187 38.7479 24.5368 41.1113 26.9067 42.6407C27.116 43.6602 26.3721 44.6103 24.7682 44.7493C29.5545 46.5103 30.6234 40.9262 28.2535 39.6516" fill="#ECA93E"/>
<path fill-rule="evenodd" clip-rule="evenodd" d="M6.53036 35.5267C8.20331 35.2487 9.10947 37.5889 6.8557 38.2146C6.43565 38.9561 6.78583 39.9063 8.03949 40.3926C3.83401 40.6013 4.36861 35.967 6.52921 35.5267" fill="#ECA93E"/>
</g>
<defs>
<clipPath id="clip0_2256_1030">
<rect width="93.5897" height="50" fill="white" transform="matrix(-1 0 0 1 93.5898 0)"/>
</clipPath>
</defs>
</svg>
