<svg xmlns="http://www.w3.org/2000/svg" xmlns:xlink="http://www.w3.org/1999/xlink" width="230.105" height="281.904" viewBox="0 0 230.105 281.904">
  <defs>
    <clipPath id="clip-path">
      <rect id="Ret칙ngulo_15995" data-name="Ret칙ngulo 15995" width="230.105" height="281.904" transform="translate(183.839 3594.171)" fill="#fff" stroke="#707070" stroke-width="1"/>
    </clipPath>
  </defs>
  <g id="Grupo_de_m치scara_85" data-name="Grupo de m치scara 85" transform="translate(-183.839 -3594.171)" clip-path="url(#clip-path)">
    <g id="Snappy-Default_4_" data-name="Snappy-Default (4)" transform="translate(183.606 3593.596)">
      <path id="Caminho_247905" data-name="Caminho 247905" d="M221.351,309.482c-7.99,7.7-15.986,18.2-23.977,25.9,3.836,20.073-3.672,28.915,5.375,36.112,3.269,2.6,23.133,8.116,34.265,1.72.254-10.418-5.476-13.517-11.582-17.428C219.261,342.575,221.474,322.5,221.351,309.482Z" transform="translate(-66.248 -103.877)" fill="#2e93ee" fill-rule="evenodd"/>
      <path id="Caminho_247906" data-name="Caminho 247906" d="M234.666,403.133a18.218,18.218,0,0,0-3.957-8.047,18.034,18.034,0,0,0-7.3-5.155,14.643,14.643,0,0,1,7.014,13.223C231.838,403.214,233.26,403.214,234.666,403.133Z" transform="translate(-74.986 -130.88)" fill="#1d5297" fill-rule="evenodd"/>
      <path id="Caminho_247907" data-name="Caminho 247907" d="M249.062,400.028a18.127,18.127,0,0,0-11.2-12.983,14.421,14.421,0,0,1,6.9,14.425A22.451,22.451,0,0,0,249.062,400.028Z" transform="translate(-79.838 -129.911)" fill="#1d5297" fill-rule="evenodd"/>
      <path id="Caminho_247908" data-name="Caminho 247908" d="M218.279,150.634c-4.112,5.963-5.958,18.518,26.879,36.865A281.325,281.325,0,0,1,227,215.564c-4.361,4.338-7.121,15.916-2.759,21.7a51.922,51.922,0,0,0,7.555,8.388,31.99,31.99,0,0,0,15.546-.577,20.888,20.888,0,0,0,3.125-23.219s27.68-28.851,25.935-37.544S231.353,131.683,218.279,150.634Z" transform="translate(-72.521 -48.983)" fill="#2e93ee" fill-rule="evenodd"/>
      <path id="Caminho_247909" data-name="Caminho 247909" d="M260.725,260.257s-11.216,9.205-14.034,10.8a32.933,32.933,0,0,0,6.527-2.81s4.977,6.053,1.326,11.177a8.829,8.829,0,0,0,3.8-5.826,8.871,8.871,0,0,0-1.586-6.784,52.555,52.555,0,0,0,4.112-5.962Z" transform="translate(-82.801 -87.355)" fill="#1d5297" fill-rule="evenodd"/>
      <path id="Caminho_247910" data-name="Caminho 247910" d="M92.191,249.315a11.812,11.812,0,0,1-1.9,6.005c-1.889,2.992-2.982,2.634,1.735,5.2a35.575,35.575,0,0,0,11.221,3.467c6.643,1.068,5.094.342,2.16-5.845a51.674,51.674,0,0,0-4.532-7.96c-6.425-8.965-8.409-8.356-8.675-.871" transform="translate(-29.762 -81.757)" fill="#2e93ee" fill-rule="evenodd"/>
      <path id="Caminho_247911" data-name="Caminho 247911" d="M58.129,242.246c-2.414,4.477,1.289,5.182,6.059,6.843a24.459,24.459,0,0,0,5.486,1.218c5.369.577,3.979-.2,1.629-4.52a79.384,79.384,0,0,0-4.775-7.7c-9.386-13.437-4.9-2.4-8.426,4.157" transform="translate(-19.256 -77.78)" fill="#2e93ee" fill-rule="evenodd"/>
      <path id="Caminho_247912" data-name="Caminho 247912" d="M27.459,240.724a24.959,24.959,0,0,1-.111,3.083c-.355,3.74-.775,3.1,3.863,3.51a27.091,27.091,0,0,0,6.181-.064c5.911-.882,3.756-2.933.679-6.358a25.912,25.912,0,0,0-3.491-3.206c-11.673-8.959-7.28-2.671-7.12,3.051" transform="translate(-8.901 -78.274)" fill="#2e93ee" fill-rule="evenodd"/>
      <path id="Caminho_247913" data-name="Caminho 247913" d="M160.766,161.307c-.185-4.557-.494-9.136-1.125-13.656-1.852-13.287,2.812-26.051-5.306-36.864a88.859,88.859,0,0,0-24.343-21.323c-13.137-8.356-27.59-15.221-39.178-25.8a158.883,158.883,0,0,1,5.932-16.605S63.3,64.208,63.6,69.663c.287,5.231,8.75,4.766,12.67,11.273-.132.449-.265.9-.393,1.357-3.831,2.73-19.493,14.286-18.326,19.96s11.577,4.536,16.31,7.747q.276,2.768.711,5.53a23.536,23.536,0,0,0,.53,13.522c1.8,2.864,2.335,2.479,3.412,3.1q1.469,4.692,3.273,9.259c2.934,7.48,7.481,14.324,10.007,21.905a31.264,31.264,0,0,1,1.146,16.37,17.529,17.529,0,0,1-5.492,10.194,18.233,18.233,0,0,1-13.381,3.788,49.381,49.381,0,0,1-19.058-7.132c-15.567-8.271-36.376-8.014-49.285,3.74a21.84,21.84,0,0,0-5.513,7.8,2.446,2.446,0,0,0,.817,2.981c2.388,1.891,5.306,0,7.476-.983,4.154-1.886,9.991-6.277,18.453-3.061a69.636,69.636,0,0,1,21.488,15.452c4.828,4.867,10.415,8.2,14.888,13.394a106.29,106.29,0,0,0,20.9,17.855c21.881,15.98,41.151,11.76,58.682-6.753,14.018-14.82,15.052-30.94,17.1-50.756a174.7,174.7,0,0,0,.753-24.9Z" transform="translate(0 -15.795)" fill="#2e93ee" fill-rule="evenodd"/>
      <path id="Caminho_247914" data-name="Caminho 247914" d="M44.745,221.629c11.28,5.616,23.25,18.165,34.779,31.822,15.042,17.78,52.638,43.986,83.661,2.81,29.219-38.788,15.461-93.151,13.763-99.343l-.2-.625c-.987-1.261-27.06-34.359-50.9-39.231-6.366,5.5-7.6,15.194.876,31.9,14.257,28.1,25.659,69.087.313,94.262a34.412,34.412,0,0,1-13.5,8.479c-18.039,5.919-27.563-4.963-38.833-15.462a54.563,54.563,0,0,0-29.962-14.612Z" transform="translate(-15.019 -39.292)" fill="#ffcf00" fill-rule="evenodd"/>
      <path id="Caminho_247915" data-name="Caminho 247915" d="M213.059,312.833a60.33,60.33,0,0,1-30.105-12.256,41.648,41.648,0,0,0,26.619,17.284Q211.435,315.384,213.059,312.833Z" transform="translate(-61.408 -100.888)" fill="#eca93e" fill-rule="evenodd"/>
      <path id="Caminho_247916" data-name="Caminho 247916" d="M151.99,322.793a69.548,69.548,0,0,0,18.167,23.47,39.538,39.538,0,0,0,7.152-2.393A58,58,0,0,1,151.99,322.793Z" transform="translate(-51.015 -108.345)" fill="#eca93e" fill-rule="evenodd"/>
      <path id="Caminho_247917" data-name="Caminho 247917" d="M94.308,316.711q.929,1.068,1.852,2.164c.276.331.568.662.859,1a12.393,12.393,0,0,1,.812-7.9A41.962,41.962,0,0,0,94.308,316.711Z" transform="translate(-31.654 -104.714)" fill="#eca93e" fill-rule="evenodd"/>
      <path id="Caminho_247918" data-name="Caminho 247918" d="M113.142,333.612c1.3,1.068,2.653,2.089,4.064,3.093a18.787,18.787,0,0,1,.144-11.8A42.937,42.937,0,0,0,113.142,333.612Z" transform="translate(-37.976 -109.053)" fill="#eca93e" fill-rule="evenodd"/>
      <path id="Caminho_247919" data-name="Caminho 247919" d="M76.191,297.862q1.443,1.458,2.892,2.97a25.231,25.231,0,0,1,.669-6.219A30.627,30.627,0,0,0,76.191,297.862Z" transform="translate(-25.573 -98.886)" fill="#eca93e" fill-rule="evenodd"/>
      <path id="Caminho_247920" data-name="Caminho 247920" d="M195.116,264.9a60.859,60.859,0,0,1,35.018-.043q.445-2.431.785-4.84C207.967,254.668,195.116,264.9,195.116,264.9Z" transform="translate(-65.49 -86.755)" fill="#eca93e" fill-rule="evenodd"/>
      <path id="Caminho_247921" data-name="Caminho 247921" d="M231.137,211.545c-.165-1.961-.361-3.837-.573-5.621a53.761,53.761,0,0,0-36.806,11.166,59.547,59.547,0,0,1,37.379-5.545Z" transform="translate(-65.034 -69.071)" fill="#eca93e" fill-rule="evenodd"/>
      <path id="Caminho_247922" data-name="Caminho 247922" d="M217.406,164.985c-.945-1.069-2.006-2.244-3.184-3.495-25.817,0-32.784,11.941-32.784,11.941a57.319,57.319,0,0,1,35.968-8.447Z" transform="translate(-60.899 -54.204)" fill="#eca93e" fill-rule="evenodd"/>
      <path id="Caminho_247923" data-name="Caminho 247923" d="M219.142,182.638a151.61,151.61,0,0,0-2.855-17.263c-.621-.374-1.242-.753-1.846-1.143-8.251-5.343-44.5-27.248-55.143-33.537a21.18,21.18,0,0,0-.112,4.84C170.473,150.988,195.489,177.3,219.142,182.638Z" transform="translate(-53.401 -43.868)" fill="#eca93e" fill-rule="evenodd"/>
      <path id="Caminho_247924" data-name="Caminho 247924" d="M116.214,299.768a16.453,16.453,0,0,1,14.963-7.154c16.6,2.137,11.348,21.708,7.364,33.221a93.427,93.427,0,0,0-4.706,25.645c.032,11.364,4.361,14.789-.955,19.234a45.258,45.258,0,0,1-28.974,8.041c-9.216-2.078-9.471-20.954,5.22-25.768a57.416,57.416,0,0,0,3.582-27.248c-.212-6.368-.769-19.736,3.5-26.013" transform="translate(-32.71 -98.196)" fill="#2e93ee" fill-rule="evenodd"/>
      <path id="Caminho_247925" data-name="Caminho 247925" d="M120.351,414c1.305-.181,2.606-.427,3.884-.716a16.781,16.781,0,0,1,4.579-15.285,18.14,18.14,0,0,0-8.463,16Z" transform="translate(-40.392 -133.586)" fill="#1d5297" fill-rule="evenodd"/>
      <path id="Caminho_247926" data-name="Caminho 247926" d="M104.974,413.679a19.214,19.214,0,0,1,4.452-17.022,17.452,17.452,0,0,0-8.346,14.628A7.5,7.5,0,0,0,104.974,413.679Z" transform="translate(-33.927 -133.137)" fill="#1d5297" fill-rule="evenodd"/>
      <path id="Caminho_247927" data-name="Caminho 247927" d="M119.686,256.99s-1.915,10.937,5.528,14.607c6.3,3.109,14.044,3.205,17.912-1.432,5.343-6.412,13.264-19.57-8.181-32.414-13.264-7.934-13.933,19.02-13.933,19.02Z" transform="translate(-40.098 -79.31)" fill="#1d5297" fill-rule="evenodd"/>
      <path id="Caminho_247928" data-name="Caminho 247928" d="M122.564,181.2c2.8,6.037,5.306,10.685,5.438,11.123,0,0,17.324-21.371,14.1-24.892C138.529,163.517,125.265,176.467,122.564,181.2Z" transform="translate(-41.138 -55.953)" fill="#1d5297" fill-rule="evenodd"/>
      <path id="Caminho_247929" data-name="Caminho 247929" d="M121.942,140.193c18.57,17.834-20.013,41.507-20.013,41.507,4.2,2.645,9.508,11.669,13.487,18.278s5.529,5.5,10.394,11.006-9.02,13.677-9.02,13.677-46.43-24.977-46.282-40.979a119.6,119.6,0,0,1,21.674-30.827C97.668,147.309,113.06,131.644,121.942,140.193Z" transform="translate(-23.666 -46.216)" fill="#2e93ee" fill-rule="evenodd"/>
      <path id="Caminho_247930" data-name="Caminho 247930" d="M120.514,251.382s-3.47,17.022,6.744,21.98a23.818,23.818,0,0,0,12.49-2.457s10.473-16,2.653-24.288S120.514,251.382,120.514,251.382Z" transform="translate(-40.26 -81.851)" fill="#2e93ee" fill-rule="evenodd"/>
      <path id="Caminho_247931" data-name="Caminho 247931" d="M120.412,257.011s13.429,7.17,15.763,7.821a12.618,12.618,0,0,1-6.86-1.026s-3.454,6.513.531,10.589c0,0-6.171-1.068-3.958-11.332l-5.6-5.759Z" transform="translate(-40.373 -86.265)" fill="#1d5297" fill-rule="evenodd"/>
      <path id="Caminho_247932" data-name="Caminho 247932" d="M138.6,41.732S145.584.727,162.685.011c11.238-.465,16.9,13.8,16.9,13.8a36.034,36.034,0,0,1,19.43,5.743,7.558,7.558,0,0,1,8.489-3.831c5.365,1.811,11.143,13.7,9.02,33.248a17.079,17.079,0,0,1,12.246,8.361,9.053,9.053,0,0,1-5.868,3.74c-3.544.3-18.82-5.241-22.969-1.6a13.128,13.128,0,0,0-5.465,13s-16.8-1.6-24.406-11.182S156.106,33.168,138.6,41.732Z" transform="translate(-46.521 0)" fill="#2e93ee" fill-rule="evenodd"/>
      <path id="Caminho_247933" data-name="Caminho 247933" d="M226.1,58.365s4.2-13.763,12.272-17.631a148.068,148.068,0,0,0,2.175,19.891A121.525,121.525,0,0,0,226.1,58.365Z" transform="translate(-75.891 -13.672)" fill="#f1f3f6"/>
      <path id="Caminho_247934" data-name="Caminho 247934" d="M167.95,24.8s10.394,4.953,17.249,26.425a149.62,149.62,0,0,0-23.553-2.094A55.962,55.962,0,0,0,167.95,24.8Z" transform="translate(-54.256 -8.323)" fill="#f1f3f6"/>
      <path id="Caminho_247935" data-name="Caminho 247935" d="M175.311,39.129c2.53,0,4.589,2.816,4.589,6.294s-2.054,6.294-4.589,6.294-4.589-2.816-4.589-6.294S172.775,39.129,175.311,39.129Z" transform="translate(-57.302 -13.134)" fill="#1d5297" fill-rule="evenodd"/>
      <path id="Caminho_247936" data-name="Caminho 247936" d="M234.148,59.482a4.9,4.9,0,0,0,2.607-1.766,4.965,4.965,0,0,0,0-5.994,4.9,4.9,0,0,0-2.607-1.766,2.815,2.815,0,0,0-1.109.251,12.77,12.77,0,0,0-2.483,4.167v.342a4.337,4.337,0,0,0,.843,3.111A4.283,4.283,0,0,0,234.148,59.482Z" transform="translate(-77.376 -16.768)" fill="#1d5297" fill-rule="evenodd"/>
      <path id="Caminho_247937" data-name="Caminho 247937" d="M210.792,105.922a122.7,122.7,0,0,0,17.912-1.432c4.532-1.213,15.6-3.094,14.6-17.5-.743-10.632-14.856-15.312-25.186-7.827-8.463-1.87-17.859-7.48-26.322.935a9.62,9.62,0,0,0-2.562,11.7s-17.583-2.826-23.664-11.754S151.633,59.2,143.011,58.351a14.66,14.66,0,0,0-16.586,7.48c-4.425,8.586-6.632,24.111,26.093,48.661s47.174,31.164,54.289,31.153c9.1,0,9.656-3.382,20.125-4.846,5.343-.748,9.4-9.8,3.539-17.631a105.974,105.974,0,0,0-19.679-17.246Z" transform="translate(-41.594 -19.436)" fill="#ffcf00" fill-rule="evenodd"/>
      <path id="Caminho_247938" data-name="Caminho 247938" d="M158.93,77.06S151.852,68.912,145,75.516c-5.678,5.466-1.438,14.644-1.438,14.644s.409-7.913,4.091-7.378c0,0,3.093,19.709,32.068,39.413s37.04,17.946,43.343,16.3,13.492-4.846,11.057-9.905-17.249-17.631-17.249-17.631-6.632,4.952-19.239.534a105.762,105.762,0,0,1-44.006-32.81s.584-3.681,4.882-1.6" transform="translate(-47.675 -24.48)" fill="#f67922" fill-rule="evenodd"/>
      <path id="Caminho_247939" data-name="Caminho 247939" d="M210.7,117.971l.626.312Z" transform="translate(-70.723 -39.597)" fill="#c56428" fill-rule="evenodd"/>
      <path id="Caminho_247940" data-name="Caminho 247940" d="M221.869,124.665a23.89,23.89,0,0,1-17.4-.428A97.931,97.931,0,0,1,181.332,111.5a49.18,49.18,0,0,0-18.909.567,93.172,93.172,0,0,0,24.136,22.856c28.969,19.7,37.04,17.946,43.342,16.3a35.64,35.64,0,0,0,6.41-2.27,34.011,34.011,0,0,0-14.442-24.277Z" transform="translate(-54.517 -37.203)" fill="#e05406" fill-rule="evenodd"/>
      <path id="Caminho_247941" data-name="Caminho 247941" d="M239.209,99.909c2.939-.946,5.2,3.008,1.326,4.734-.53,1.453.334,3.045,2.717,3.606-7.529,1.544-7.831-6.978-4.038-8.34" transform="translate(-79.491 -33.486)" fill="#eca93e" fill-rule="evenodd"/>
      <path id="Caminho_247942" data-name="Caminho 247942" d="M288.734,98.1c-2.43-.78-4.3,2.479-1.093,3.905.45,1.2-.276,2.517-2.24,2.976C291.615,106.257,291.865,99.22,288.734,98.1Z" transform="translate(-95.794 -32.887)" fill="#eca93e" fill-rule="evenodd"/>
      <path id="Caminho_247943" data-name="Caminho 247943" d="M237.549,143.546c4.717,1.384,8.027-8.981,8.93-12.176a20.7,20.7,0,0,1-11.864,1.24c.414,1.207.806,2.415,1.061,3.344C236.446,138.813,235.671,143,237.549,143.546Z" transform="translate(-78.748 -44.094)" fill="#f1f3f6" fill-rule="evenodd"/>
      <path id="Caminho_247944" data-name="Caminho 247944" d="M280.231,126.49a23.4,23.4,0,0,1-2.78.534c.472.892.908,1.758,1.226,2.458,1.231,2.7,1.146,6.945,3.088,7.191,4.775.593,6.4-9.75,6.813-13.255a28.565,28.565,0,0,1-8.346,3.072Z" transform="translate(-93.126 -41.425)" fill="#f1f3f6" fill-rule="evenodd"/>
    </g>
  </g>
</svg>
