<svg width="3736" height="656" viewBox="0 0 3736 656" fill="none" xmlns="http://www.w3.org/2000/svg">
<path fill-rule="evenodd" clip-rule="evenodd" d="M361.11 480.584C342.486 498.597 323.939 523.327 305.162 541.187C314.093 588.128 296.614 608.737 317.68 625.605C325.313 631.635 371.109 644.534 397.442 629.574C397.976 605.226 384.695 597.975 370.498 588.892C356.072 558.361 361.263 511.038 360.957 480.584" fill="#4580C2"/>
<path fill-rule="evenodd" clip-rule="evenodd" d="M371.796 636.443C370.29 629.578 367.102 623.194 362.519 617.866C357.936 612.537 352.102 608.429 345.539 605.913C350.733 609.087 354.985 613.591 357.856 618.958C360.728 624.325 362.114 630.361 361.873 636.443C365.232 636.596 368.514 636.596 371.796 636.443ZM394.007 631.406C392.541 624.546 389.386 618.161 384.828 612.829C380.269 607.498 374.452 603.389 367.903 600.875C381.489 611.332 385.84 622.552 383.932 634.764C387.389 633.968 390.763 632.844 394.007 631.406V631.406Z" fill="#2E578C"/>
<path fill-rule="evenodd" clip-rule="evenodd" d="M339.357 237.559C329.74 251.527 325.465 280.837 401.945 323.809C401.945 323.809 369.811 379.298 359.66 389.45C349.508 399.601 343.326 426.621 353.248 440.207C358.385 447.352 364.27 453.928 370.804 459.823C370.804 459.823 396.144 464.555 406.982 458.449C413.535 451.204 417.765 442.16 419.126 432.486C420.486 422.812 418.915 412.953 414.615 404.181C414.615 404.181 479.111 336.708 474.99 316.405C470.868 296.102 369.811 193.29 339.357 237.559Z" fill="#4580C2"/>
<path fill-rule="evenodd" clip-rule="evenodd" d="M414.234 404.181C414.234 404.181 388.13 425.705 381.566 429.369C386.884 427.759 392.004 425.557 396.831 422.804C396.831 422.804 408.433 437.001 399.96 448.985C399.96 448.985 415.226 440.054 405.074 419.522C408.592 415.089 411.805 410.422 414.692 405.555L414.234 404.181Z" fill="#2E578C"/>
<path fill-rule="evenodd" clip-rule="evenodd" d="M145.41 391.663C145.225 396.657 143.695 401.509 140.983 405.707C136.556 412.653 134.038 411.89 145.029 417.843C153.213 421.988 162.038 424.724 171.132 425.934C186.398 428.453 182.963 426.773 176.17 412.271C173.183 405.742 169.634 399.485 165.561 393.571C150.295 372.581 146.021 374.032 145.41 391.51V391.663ZM90.6076 384.412C84.9594 394.869 93.5843 396.548 104.652 400.441C108.8 401.884 113.104 402.832 117.475 403.265C129.916 404.639 126.71 402.807 121.215 392.732C117.905 386.518 114.235 380.504 110.224 374.719C88.3177 343.272 98.7745 369.147 90.6076 384.412V384.412ZM43.2849 379.756C43.4704 382.144 43.4704 384.543 43.2849 386.931C42.5216 395.632 41.5294 394.182 52.2915 395.174C57.0849 395.714 61.9238 395.714 66.7172 395.174C80.4561 393.113 75.4185 388.305 68.2438 380.29C65.7926 377.498 63.0838 374.942 60.1531 372.658C32.9808 351.744 43.2086 366.475 43.5902 379.832" fill="#4580C2"/>
<path fill-rule="evenodd" clip-rule="evenodd" d="M225.324 72.9984C225.324 72.9984 147.395 113.146 148.082 125.893C148.769 138.64 170.064 136.884 178.612 153.981C178.612 153.981 130.908 186.954 133.961 202.067C137.014 217.18 167.774 211.684 175.407 223.668C175.407 223.668 167.774 253.74 174.72 264.732C181.666 275.723 180.597 266.258 189.985 279.997C190.672 280.302 185.177 168.102 225.324 72.9984Z" fill="#4580C2"/>
<path fill-rule="evenodd" clip-rule="evenodd" d="M208.991 109.483C236.468 135.586 271.121 151.997 302.72 172.223C324.471 185.227 343.643 202.122 359.278 222.065C378.207 247.405 366.911 277.249 371.643 308.314C373.093 318.847 373.78 329.533 374.238 340.219C375.053 359.647 374.492 379.108 372.559 398.456C367.75 444.71 365.384 482.416 332.716 517.068C291.958 560.346 249.062 568.055 198.305 530.96C178.612 516.458 163.5 509.817 147.7 491.346C137.243 479.134 124.268 471.348 113.048 459.976C98.8002 444.873 81.8075 432.62 62.9773 423.873C43.2849 416.24 29.6987 426.621 20.0052 431.048C15.044 433.338 8.17458 437.765 2.60272 433.338C1.55916 432.556 0.805305 431.449 0.459851 430.191C0.114398 428.934 0.196965 427.597 0.694544 426.392C3.59942 419.436 8.00395 413.207 13.5938 408.15C43.5902 380.672 92.0578 380.061 128.084 399.372C141.747 407.005 156.63 415.019 172.43 416.011C177.948 416.654 183.538 416.202 188.882 414.683C194.225 413.164 199.217 410.607 203.571 407.157C210.394 400.891 214.888 392.496 216.318 383.343C218.864 370.613 217.941 357.432 213.646 345.18C207.769 327.472 197.236 311.444 190.367 293.965C167.469 234.506 159.836 166.728 197.007 111.162L202.197 103.529L208.991 109.483Z" fill="#4580C2"/>
<path fill-rule="evenodd" clip-rule="evenodd" d="M69.2361 426.239C95.4925 439.367 123.428 468.753 150.219 500.429C185.253 542.027 272.342 603.318 344.929 506.993C412.936 416.317 380.955 289.232 376.986 274.807L376.528 273.28C374.238 270.38 313.635 192.984 258.069 181.688C243.261 194.511 240.361 217.18 260.053 256.259C293.255 321.977 319.817 417.767 260.817 476.615C252.032 485.599 241.26 492.397 229.37 496.46C187.466 510.275 165.255 484.858 138.999 460.281C119.888 441.901 95.4838 429.993 69.2361 426.239V426.239Z" fill="#FBCE3B"/>
<path fill-rule="evenodd" clip-rule="evenodd" d="M353.096 495.391C327.548 492.493 303.298 482.587 283.028 466.769C297.508 487.886 319.766 502.405 344.929 507.146C347.829 503.329 350.959 499.36 353.096 495.391ZM235.094 501.269C245.062 522.4 259.488 541.122 277.379 556.148C283.095 554.805 288.667 552.914 294.019 550.499C270.02 540.149 249.548 523.044 235.094 501.269V501.269ZM145.945 495.544L150.219 500.582L152.203 502.948C150.843 496.745 151.512 490.27 154.112 484.477C151.135 487.971 148.406 491.669 145.945 495.544ZM175.407 524.93C178.46 527.372 181.589 529.815 184.871 532.563C182.658 522.029 181.666 511.038 185.253 504.932C181.241 511.213 177.939 517.92 175.407 524.93Z" fill="#ECA93E"/>
<path fill-rule="evenodd" clip-rule="evenodd" d="M117.856 465.09L124.649 472.035C124.537 467.131 125.05 462.232 126.176 457.457C123.212 459.785 120.431 462.337 117.856 465.09V465.09Z" fill="#EDB248"/>
<path fill-rule="evenodd" clip-rule="evenodd" d="M301.804 416.469C328.36 408.457 356.689 408.457 383.245 416.469C383.932 412.653 384.542 408.837 385.077 405.173C331.724 392.503 301.804 416.469 301.804 416.469ZM386.68 332.968C386.298 328.388 385.84 324.038 385.382 319.84C328.824 318.466 299.667 345.943 299.667 345.943C326.487 332.268 357.036 327.713 386.68 332.968V332.968ZM364.392 258.931C362.179 256.412 359.736 253.664 356.759 250.764C296.69 250.764 280.432 278.699 280.432 278.699C305.44 262.952 334.986 255.995 364.392 258.931V258.931Z" fill="#ECA93E"/>
<path fill-rule="evenodd" clip-rule="evenodd" d="M385.916 324.343C384.437 310.773 382.22 297.294 379.276 283.966L374.925 281.294C355.767 268.777 271.35 218.019 246.62 202.754C246.192 206.507 246.192 210.297 246.62 214.05C272.571 250.382 330.808 311.902 385.916 324.343V324.343Z" fill="#ECA93E"/>
<path fill-rule="evenodd" clip-rule="evenodd" d="M194.489 471.196C198.298 465.594 203.53 461.108 209.646 458.197C215.763 455.287 222.544 454.056 229.294 454.633C267.915 459.67 255.703 505.39 246.467 532.257C240.051 551.573 236.352 571.687 235.476 592.021C235.476 618.583 245.628 626.597 233.263 636.978C213.58 650.767 189.766 657.393 165.79 655.754C144.342 650.869 143.807 606.752 178.002 595.532C187.466 574.924 187.085 553.858 186.322 531.876C185.787 516.61 184.49 486.08 194.489 470.814" fill="#4580C2"/>
<path fill-rule="evenodd" clip-rule="evenodd" d="M186.169 655.525C189.222 655.067 192.275 654.533 195.252 653.846C193.93 647.461 194.215 640.848 196.08 634.6C197.945 628.352 201.332 622.665 205.938 618.049C191.893 626.063 187.314 639.725 186.169 655.525ZM165.484 655.83C163.912 648.848 164.027 641.592 165.819 634.663C167.611 627.734 171.028 621.332 175.788 615.988C169.946 619.601 165.107 624.628 161.719 630.604C158.331 636.58 156.502 643.313 156.401 650.182C158.751 652.984 161.933 654.963 165.484 655.83V655.83Z" fill="#2E578C"/>
<path fill-rule="evenodd" clip-rule="evenodd" d="M185.329 415.324C185.329 415.324 180.902 440.894 198.305 449.443C212.96 457.075 230.973 457.075 239.979 446.16C252.421 430.895 270.51 400.364 220.974 370.368C190.443 351.82 188.535 414.79 188.535 414.79L185.329 415.324ZM189.604 292.743C196.091 306.864 201.969 317.779 202.274 318.771C202.579 319.763 242.574 268.777 235.094 260.534C227.614 252.29 195.939 281.676 189.604 292.743V292.743Z" fill="#2E578C"/>
<path fill-rule="evenodd" clip-rule="evenodd" d="M228.836 219.622C272.113 261.373 182.276 316.634 182.276 316.634C192.046 322.816 204.411 343.959 213.647 359.377C222.882 374.795 226.546 372.276 237.842 385.099C249.139 397.922 216.929 417.08 216.929 417.08C216.929 417.08 108.85 358.69 109.155 321.29C109.155 316.634 134.267 275.036 159.607 249.237C172.354 236.262 208.151 199.701 228.836 219.622Z" fill="#4580C2"/>
<path fill-rule="evenodd" clip-rule="evenodd" d="M186.856 396.319C186.856 396.319 179.223 436.085 202.579 447.687C202.579 447.687 221.89 448.908 231.66 441.886C231.66 441.886 256.008 404.486 237.842 385.099C219.676 365.712 186.856 396.319 186.856 396.319V396.319Z" fill="#4580C2"/>
<path fill-rule="evenodd" clip-rule="evenodd" d="M186.398 399.143C186.398 399.143 217.616 415.859 223.035 417.385C217.6 418.133 212.066 417.312 207.082 415.019C207.082 415.019 199.45 430.285 208.38 439.749C208.38 439.749 194.031 437.23 199.144 413.264L186.093 399.83L186.398 399.143Z" fill="#2E578C"/>
<path fill-rule="evenodd" clip-rule="evenodd" d="M214.41 97.4993C214.41 97.4993 230.667 1.63278 270.434 0.0299124C296.614 -1.11499 309.818 32.2399 309.818 32.2399C325.854 32.3107 341.534 36.9723 355.004 45.6734C355.004 45.6734 362.637 32.4688 374.773 36.7431C386.909 41.0174 400.724 68.8004 395.762 114.444C401.69 115.354 407.336 117.591 412.279 120.988C417.221 124.384 421.334 128.853 424.309 134.06C421.093 138.676 416.181 141.831 410.646 142.838C402.403 143.524 366.835 130.549 357.217 139.021C352.418 142.38 348.673 147.033 346.416 152.438C344.159 157.843 343.485 163.778 344.471 169.552C344.471 169.552 305.162 165.583 287.684 143.219C270.205 120.855 255.168 77.5017 214.41 97.4993V97.4993Z" fill="#4580C2"/>
<path d="M349.737 104.445C349.737 104.445 359.507 72.2351 378.284 63.2286C378.95 78.8196 380.659 94.3486 383.397 109.712C372.29 107.302 361.05 105.543 349.737 104.445V104.445ZM264.709 38.4223C264.709 38.4223 288.905 50.1003 305.162 100.247C287.054 97.1647 268.728 95.5312 250.36 95.3622C259.363 77.7026 264.268 58.2398 264.709 38.4223V38.4223Z" fill="#F1F1F2"/>
<path fill-rule="evenodd" clip-rule="evenodd" d="M274.632 60.7098C280.509 60.7098 285.317 67.2739 285.317 75.4409C285.317 83.6078 280.509 90.0956 274.632 90.0956C268.754 90.0956 263.946 83.5315 263.946 75.4409C263.946 67.3502 268.678 60.7098 274.632 60.7098ZM365.003 99.7891C369.659 99.7891 373.399 94.8279 373.399 88.6454C373.399 82.4629 369.659 77.5017 365.003 77.5017C364.108 77.5514 363.23 77.7581 362.407 78.1123C359.842 81.0812 357.896 84.5325 356.683 88.2638C356.645 88.5168 356.645 88.774 356.683 89.0271C356.607 94.8279 360.347 99.7891 365.003 99.7891Z" fill="#2E578C"/>
<path fill-rule="evenodd" clip-rule="evenodd" d="M259.366 122.84C259.366 122.84 242.574 103.529 226.622 119.253C213.417 132.075 223.264 153.523 223.264 153.523C223.264 153.523 224.256 134.976 232.805 136.273C232.805 136.273 239.979 182.07 307.452 228.4C374.925 274.73 393.702 270.38 408.356 266.563C423.011 262.747 439.727 255.267 434.078 243.665C428.43 232.064 393.931 202.525 393.931 202.525C393.931 202.525 378.665 214.127 349.127 203.823C308.753 187.513 273.413 160.811 246.696 126.427C246.696 126.427 248.07 117.802 258.069 122.611" fill="#F68B51"/>
<path fill-rule="evenodd" clip-rule="evenodd" d="M250.054 175.276C268.651 170.815 288.068 171.084 306.534 176.057C325 181.03 341.926 190.55 355.767 203.746L348.134 199.625C348.134 199.625 382.787 197.946 387.596 202.754C397.748 209.615 406.238 218.659 412.445 229.224C418.652 239.789 422.418 251.607 423.469 263.816C424.461 275.646 396.449 282.363 334.014 251.298C295.24 231.758 250.054 175.276 250.054 175.276V175.276Z" fill="#F26A23"/>
<path fill-rule="evenodd" clip-rule="evenodd" d="M325.923 183.138L327.374 183.901L325.923 183.138Z" fill="#C56428"/>
<path fill-rule="evenodd" clip-rule="evenodd" d="M391.106 201.914C391.106 201.914 382.71 236.338 369.735 232.445C365.384 231.148 367.14 221.378 365.384 214.661C363.629 207.944 358.591 195.121 358.591 195.121L391.106 201.914ZM455.297 188.863C455.297 188.863 452.626 224.202 439.192 222.523C434.689 221.988 434.842 212.066 432.018 205.731C429.194 199.396 422.248 187.489 422.248 187.489L455.297 188.863Z" fill="#EBEEF2"/>
<path fill-rule="evenodd" clip-rule="evenodd" d="M469.57 157.874C467.891 132.991 435.071 122.077 410.951 139.555C391.259 135.205 369.43 122.077 349.89 141.769C346.005 145.016 343.307 149.459 342.215 154.403C341.124 159.347 341.703 164.514 343.86 169.094C343.86 169.094 302.949 162.53 288.828 141.693C274.708 120.855 256.237 92.9197 236.468 90.9352C225.935 89.943 208.151 88.4165 197.847 108.49C187.543 128.564 182.581 164.82 258.908 222.217C335.235 279.615 368.666 295.11 385.306 295.033C406.448 295.033 407.746 287.401 432.094 283.737C444.535 281.981 454 260.839 440.337 242.52C426.675 224.202 394.541 202.143 394.541 202.143C394.541 202.143 429.041 231.453 434.689 243.284C440.337 255.114 423.622 262.594 408.967 266.182C394.312 269.769 375.459 273.814 308.063 228.018C240.666 182.222 233.415 135.892 233.415 135.892C224.867 134.594 223.874 153.142 223.874 153.142C223.874 153.142 214.028 131.694 227.233 118.871C243.185 103.606 259.672 122.458 259.672 122.458H258.679C248.68 117.65 247.307 126.275 247.307 126.275C273.884 160.489 309.001 187.103 349.127 203.441C378.513 213.745 393.931 202.143 393.931 202.143C407.885 202.044 421.814 200.922 435.605 198.785C446.138 195.961 471.937 191.534 469.57 157.874V157.874Z" fill="#FBCE3B"/>
<path fill-rule="evenodd" clip-rule="evenodd" d="M371.796 155.202C378.665 153.065 383.932 162.301 374.925 166.27C373.628 169.705 375.688 173.445 381.184 174.742C378.593 175.987 375.613 176.152 372.901 175.2C370.188 174.248 367.965 172.258 366.72 169.666C365.475 167.075 365.31 164.096 366.262 161.383C367.214 158.671 369.205 156.447 371.796 155.202V155.202ZM449.191 152.378C443.543 150.547 439.192 158.179 446.672 161.538C447.665 164.362 445.985 167.415 441.406 168.483C455.908 171.46 456.671 155.05 449.039 152.378" fill="#ECA93E"/>
<path d="M1509.52 442.726C1514.1 471.196 1540.05 481.805 1568.37 481.805C1596.69 481.805 1618.37 469.822 1618.98 455.32C1619.97 433.338 1602.72 420.286 1578.29 415.553C1561.43 412.348 1510.82 402.349 1510.82 402.349C1449.3 391.129 1414.27 373.345 1414.27 321.061C1414.27 252.977 1473.12 208.631 1557.15 208.631C1639.81 208.631 1694.54 246.337 1707.9 303.887L1611.34 323.045C1608.06 302.513 1588.45 284.042 1555.78 284.042C1527.38 284.042 1513.11 295.949 1510.52 309.841C1508.76 318.924 1513.11 326.48 1543.26 332.739C1562.72 336.937 1621.27 348.615 1621.27 348.615C1684.08 361.819 1712.86 399.525 1712.86 448.45C1712.86 521.877 1649.35 560.269 1562.04 560.269C1484.03 560.269 1417.02 531.799 1405.95 463.716L1509.52 442.726ZM2474.14 291.751C2475.87 305.193 2476.77 318.729 2476.81 332.281C2476.81 467.15 2380.49 564.162 2246.31 564.162C2112.12 564.162 2006.49 462.265 2006.49 331.594C2006.49 200.922 2110.75 99.1022 2244.32 99.1022C2343.55 99.1022 2430.33 145.585 2461.55 232.674L2355.91 263.205C2329.96 212.677 2287.22 199.396 2244.32 199.396C2171.89 199.396 2116.78 256.565 2116.78 331.594C2116.78 406.623 2173.19 464.479 2247.6 464.479C2306.07 464.479 2348.59 433.948 2365.22 384.794H2228.98V291.751H2474.14Z" fill="#F68B51"/>
<path d="M1005.23 546.607H896.314V370.673H708.932V546.607H599.326V101.468H708.932V274.883H896.314V101.468H1005.23V546.607ZM1399.84 379.832C1399.84 485.469 1315.88 555.919 1217.12 555.919C1116.14 555.919 1032.4 485.469 1032.4 379.832C1032.4 274.196 1116.36 204.281 1217.12 204.281C1316.11 204.51 1399.84 274.883 1399.84 379.832ZM1297.41 379.832C1297.41 328.006 1258.26 293.507 1217.04 293.507C1205.93 293.632 1194.95 295.98 1184.76 300.413C1174.57 304.847 1165.37 311.276 1157.7 319.321C1150.03 327.366 1144.05 336.865 1140.11 347.257C1136.17 357.65 1134.35 368.726 1134.76 379.832C1134.76 432.345 1173.91 466.234 1217.12 466.234C1258.33 466.234 1297.41 432.345 1297.41 379.832V379.832ZM2009.92 532.028C1982.29 548.092 1950.9 556.57 1918.94 556.605C1835.9 556.605 1785.9 511.42 1785.9 424.102V297.476H1725.61V213.516H1785.9V124.366L1892.23 101.468V213.135H1990.54V297.094H1892.76V413.111C1892.76 447.611 1909.32 461.579 1937.26 461.579C1954.23 460.985 1970.83 456.437 1985.73 448.298L2009.92 532.028ZM2813.03 335.334V546.607H2710.76V522.029C2682.93 545.448 2647.43 557.761 2611.07 556.605C2536.73 556.605 2486.89 513.404 2486.89 447.611C2486.89 381.817 2536.73 340.142 2625.5 340.142H2710.53V333.502C2710.87 327.261 2709.89 321.018 2707.66 315.181C2705.42 309.344 2701.98 304.044 2697.56 299.628C2693.13 295.212 2687.83 291.779 2681.99 289.554C2676.15 287.328 2669.9 286.361 2663.66 286.714C2631.76 286.714 2613.13 299.308 2607.87 328.541L2507.57 307.933C2522.15 243.513 2580.62 202.983 2660.23 202.983C2753.96 203.136 2813.03 250.306 2813.03 335.334V335.334ZM2710.76 415.095V407.463H2637.64C2611.07 407.463 2594.51 421.431 2594.51 442.039C2594.51 462.647 2613.06 476.539 2640.99 476.539C2677.55 476.844 2710.76 452.267 2710.76 415.095ZM3113.3 532.028C3085.69 548.065 3054.33 556.542 3022.4 556.605C2939.36 556.605 2889.59 511.42 2889.59 423.72V297.476H2829.14V213.516H2889.59V124.366L2995.84 101.468V213.135H3094.15V297.094H2995.68V413.111C2995.68 447.611 3012.32 461.579 3040.18 461.579C3057.18 460.994 3073.8 456.446 3088.73 448.298L3113.3 532.028Z" fill="#F68B51"/>
<path d="M3464.03 379.832C3464.03 485.469 3380.07 555.919 3281.38 555.919C3180.4 555.919 3096.67 485.469 3096.67 379.832C3096.67 274.196 3180.62 204.281 3281.38 204.281C3380.37 204.51 3464.03 274.883 3464.03 379.832V379.832ZM3361.75 379.832C3361.75 328.006 3322.52 293.507 3281.38 293.507C3270.25 293.611 3259.26 295.945 3249.05 300.369C3238.84 304.794 3229.62 311.219 3221.93 319.267C3214.25 327.314 3208.26 336.819 3204.31 347.222C3200.36 357.625 3198.53 368.713 3198.94 379.832C3198.94 432.345 3238.18 466.234 3281.38 466.234C3322.52 466.234 3361.75 432.345 3361.75 379.832V379.832ZM3735.75 211.15L3731.09 317.244H3711.78C3637.44 317.244 3596.91 355.408 3596.91 442.192V546.607H3490.59V236.033L3596.91 213.135V276.867C3620.8 237.025 3657.36 208.173 3711.78 208.173C3719.87 208.069 3727.93 209.071 3735.75 211.15V211.15Z" fill="#F68B51"/>
</svg>
