<svg width="297" height="342" viewBox="0 0 297 342" fill="none" xmlns="http://www.w3.org/2000/svg">
  <g opacity="0.11">
    <path d="M26.663 153.875C27.6195 153.875 28.3948 154.649 28.3948 155.604C28.3948 156.56 27.6195 157.334 26.663 157.334C25.7065 157.334 24.9312 156.56 24.9312 155.604C24.9312 154.649 25.7065 153.875 26.663 153.875Z" fill="#EBEFF3" />
    <path d="M43.9812 153.875C44.9377 153.875 45.7131 154.649 45.7131 155.604C45.7131 156.56 44.9377 157.334 43.9812 157.334C43.0248 157.334 42.2494 156.56 42.2494 155.604C42.2494 154.649 43.0248 153.875 43.9812 153.875Z" fill="#EBEFF3" />
    <path d="M61.3004 153.875C62.2569 153.875 63.0323 154.649 63.0323 155.604C63.0323 156.56 62.2569 157.334 61.3004 157.334C60.344 157.334 59.5686 156.56 59.5686 155.604C59.5686 154.649 60.344 153.875 61.3004 153.875Z" fill="#EBEFF3" />
    <path d="M78.6186 153.875C79.575 153.875 80.3504 154.649 80.3504 155.604C80.3504 156.56 79.575 157.334 78.6186 157.334C77.6621 157.334 76.8867 156.56 76.8867 155.604C76.8867 154.649 77.6621 153.875 78.6186 153.875Z" fill="#EBEFF3" />
    <path d="M95.9373 153.875C96.8938 153.875 97.6691 154.649 97.6691 155.604C97.6691 156.56 96.8938 157.334 95.9373 157.334C94.9808 157.334 94.2054 156.56 94.2054 155.604C94.2054 154.649 94.9808 153.875 95.9373 153.875Z" fill="#EBEFF3" />
    <path d="M113.257 153.875C114.213 153.875 114.988 154.649 114.988 155.604C114.988 156.56 114.213 157.334 113.257 157.334C112.3 157.334 111.525 156.56 111.525 155.604C111.525 154.649 112.3 153.875 113.257 153.875Z" fill="#EBEFF3" />
    <path d="M130.575 153.875C131.532 153.875 132.307 154.649 132.307 155.604C132.307 156.56 131.532 157.334 130.575 157.334C129.619 157.334 128.843 156.56 128.843 155.604C128.843 154.649 129.619 153.875 130.575 153.875Z" fill="#EBEFF3" />
    <path d="M26.663 136.568C27.6195 136.568 28.3948 137.342 28.3948 138.297C28.3948 139.252 27.6195 140.026 26.663 140.026C25.7065 140.026 24.9312 139.252 24.9312 138.297C24.9312 137.342 25.7065 136.568 26.663 136.568Z" fill="#EBEFF3" />
    <path d="M43.9812 136.571C44.9377 136.571 45.7131 137.345 45.7131 138.299C45.7131 139.253 44.9377 140.027 43.9812 140.027C43.0248 140.027 42.2494 139.253 42.2494 138.299C42.2494 137.345 43.0248 136.571 43.9812 136.571Z" fill="#EBEFF3" />
    <path d="M61.3004 136.571C62.2569 136.571 63.0323 137.345 63.0323 138.299C63.0323 139.253 62.2569 140.027 61.3004 140.027C60.344 140.027 59.5686 139.253 59.5686 138.299C59.5686 137.345 60.344 136.571 61.3004 136.571Z" fill="#EBEFF3" />
    <path d="M78.6186 136.571C79.575 136.571 80.3504 137.345 80.3504 138.299C80.3504 139.253 79.575 140.027 78.6186 140.027C77.6621 140.027 76.8867 139.253 76.8867 138.299C76.8867 137.345 77.6621 136.571 78.6186 136.571Z" fill="#EBEFF3" />
    <path d="M95.9373 136.571C96.8938 136.571 97.6691 137.345 97.6691 138.299C97.6691 139.253 96.8938 140.027 95.9373 140.027C94.9808 140.027 94.2054 139.253 94.2054 138.299C94.2054 137.345 94.9808 136.571 95.9373 136.571Z" fill="#EBEFF3" />
    <path d="M113.257 136.571C114.213 136.571 114.988 137.345 114.988 138.299C114.988 139.253 114.213 140.027 113.257 140.027C112.3 140.027 111.525 139.253 111.525 138.299C111.525 137.345 112.3 136.571 113.257 136.571Z" fill="#EBEFF3" />
    <path d="M130.575 136.571C131.532 136.571 132.307 137.345 132.307 138.299C132.307 139.253 131.532 140.027 130.575 140.027C129.619 140.027 128.843 139.253 128.843 138.299C128.843 137.345 129.619 136.571 130.575 136.571Z" fill="#EBEFF3" />
    <path d="M26.663 119.259C27.6195 119.259 28.3948 120.033 28.3948 120.988C28.3948 121.943 27.6195 122.717 26.663 122.717C25.7065 122.717 24.9312 121.943 24.9312 120.988C24.9312 120.033 25.7065 119.259 26.663 119.259Z" fill="#EBEFF3" />
    <path d="M43.9812 119.259C44.9377 119.259 45.7131 120.033 45.7131 120.988C45.7131 121.943 44.9377 122.717 43.9812 122.717C43.0248 122.717 42.2494 121.943 42.2494 120.988C42.2494 120.033 43.0248 119.259 43.9812 119.259Z" fill="#EBEFF3" />
    <path d="M61.3004 119.259C62.2569 119.259 63.0323 120.033 63.0323 120.988C63.0323 121.943 62.2569 122.717 61.3004 122.717C60.344 122.717 59.5686 121.943 59.5686 120.988C59.5686 120.033 60.344 119.259 61.3004 119.259Z" fill="#EBEFF3" />
    <path d="M78.6186 119.259C79.575 119.259 80.3504 120.033 80.3504 120.988C80.3504 121.943 79.575 122.717 78.6186 122.717C77.6621 122.717 76.8867 121.943 76.8867 120.988C76.8867 120.033 77.6621 119.259 78.6186 119.259Z" fill="#EBEFF3" />
    <path d="M95.9373 119.259C96.8938 119.259 97.6691 120.033 97.6691 120.988C97.6691 121.943 96.8938 122.717 95.9373 122.717C94.9808 122.717 94.2054 121.943 94.2054 120.988C94.2054 120.033 94.9808 119.259 95.9373 119.259Z" fill="#EBEFF3" />
    <path d="M113.257 119.259C114.213 119.259 114.988 120.033 114.988 120.988C114.988 121.943 114.213 122.717 113.257 122.717C112.3 122.717 111.525 121.943 111.525 120.988C111.525 120.033 112.3 119.259 113.257 119.259Z" fill="#EBEFF3" />
    <path d="M130.575 119.259C131.532 119.259 132.307 120.033 132.307 120.988C132.307 121.943 131.532 122.717 130.575 122.717C129.619 122.717 128.843 121.943 128.843 120.988C128.843 120.033 129.619 119.259 130.575 119.259Z" fill="#EBEFF3" />
    <path d="M26.663 101.953C27.6195 101.953 28.3948 102.727 28.3948 103.681C28.3948 104.636 27.6195 105.41 26.663 105.41C25.7065 105.41 24.9312 104.636 24.9312 103.681C24.9312 102.727 25.7065 101.953 26.663 101.953Z" fill="#EBEFF3" />
    <path d="M43.9812 101.953C44.9377 101.953 45.7131 102.727 45.7131 103.681C45.7131 104.636 44.9377 105.41 43.9812 105.41C43.0248 105.41 42.2494 104.636 42.2494 103.681C42.2494 102.727 43.0248 101.953 43.9812 101.953Z" fill="#EBEFF3" />
    <path d="M61.3004 101.953C62.2569 101.953 63.0323 102.727 63.0323 103.681C63.0323 104.636 62.2569 105.41 61.3004 105.41C60.344 105.41 59.5686 104.636 59.5686 103.681C59.5686 102.727 60.344 101.953 61.3004 101.953Z" fill="#EBEFF3" />
    <path d="M78.6186 101.953C79.575 101.953 80.3504 102.727 80.3504 103.681C80.3504 104.636 79.575 105.41 78.6186 105.41C77.6621 105.41 76.8867 104.636 76.8867 103.681C76.8867 102.727 77.6621 101.953 78.6186 101.953Z" fill="#EBEFF3" />
    <path d="M95.9373 101.953C96.8938 101.953 97.6691 102.727 97.6691 103.681C97.6691 104.636 96.8938 105.41 95.9373 105.41C94.9808 105.41 94.2054 104.636 94.2054 103.681C94.2054 102.727 94.9808 101.953 95.9373 101.953Z" fill="#EBEFF3" />
    <path d="M113.257 101.953C114.213 101.953 114.988 102.727 114.988 103.681C114.988 104.636 114.213 105.41 113.257 105.41C112.3 105.41 111.525 104.636 111.525 103.681C111.525 102.727 112.3 101.953 113.257 101.953Z" fill="#EBEFF3" />
    <path d="M130.575 101.953C131.532 101.953 132.307 102.727 132.307 103.681C132.307 104.636 131.532 105.41 130.575 105.41C129.619 105.41 128.843 104.636 128.843 103.681C128.843 102.727 129.619 101.953 130.575 101.953Z" fill="#EBEFF3" />
    <path d="M26.663 84.6451C27.6195 84.6451 28.3948 85.4189 28.3948 86.3735C28.3948 87.328 27.6195 88.1018 26.663 88.1018C25.7065 88.1018 24.9312 87.328 24.9312 86.3735C24.9312 85.4189 25.7065 84.6451 26.663 84.6451Z" fill="#EBEFF3" />
    <path d="M43.9812 84.6451C44.9377 84.6451 45.7131 85.4189 45.7131 86.3735C45.7131 87.328 44.9377 88.1018 43.9812 88.1018C43.0248 88.1018 42.2494 87.328 42.2494 86.3735C42.2494 85.4189 43.0248 84.6451 43.9812 84.6451Z" fill="#EBEFF3" />
    <path d="M61.3004 84.6451C62.2569 84.6451 63.0323 85.4189 63.0323 86.3735C63.0323 87.328 62.2569 88.1018 61.3004 88.1018C60.344 88.1018 59.5686 87.328 59.5686 86.3735C59.5686 85.4189 60.344 84.6451 61.3004 84.6451Z" fill="#EBEFF3" />
    <path d="M78.6186 84.6451C79.575 84.6451 80.3504 85.4189 80.3504 86.3735C80.3504 87.328 79.575 88.1018 78.6186 88.1018C77.6621 88.1018 76.8867 87.328 76.8867 86.3735C76.8867 85.4189 77.6621 84.6451 78.6186 84.6451Z" fill="#EBEFF3" />
    <path d="M95.9373 84.6451C96.8938 84.6451 97.6691 85.4189 97.6691 86.3735C97.6691 87.328 96.8938 88.1018 95.9373 88.1018C94.9808 88.1018 94.2054 87.328 94.2054 86.3735C94.2054 85.4189 94.9808 84.6451 95.9373 84.6451Z" fill="#EBEFF3" />
    <path d="M113.257 84.6451C114.213 84.6451 114.988 85.4189 114.988 86.3735C114.988 87.328 114.213 88.1018 113.257 88.1018C112.3 88.1018 111.525 87.328 111.525 86.3735C111.525 85.4189 112.3 84.6451 113.257 84.6451Z" fill="#EBEFF3" />
    <path d="M130.575 84.6451C131.532 84.6451 132.307 85.4189 132.307 86.3735C132.307 87.328 131.532 88.1018 130.575 88.1018C129.619 88.1018 128.843 87.328 128.843 86.3735C128.843 85.4189 129.619 84.6451 130.575 84.6451Z" fill="#EBEFF3" />
    <path d="M26.663 67.3357C27.6195 67.3357 28.3948 68.1097 28.3948 69.0645C28.3948 70.0193 27.6195 70.7933 26.663 70.7933C25.7065 70.7933 24.9312 70.0193 24.9312 69.0645C24.9312 68.1097 25.7065 67.3357 26.663 67.3357Z" fill="#EBEFF3" />
    <path d="M43.9812 67.3357C44.9377 67.3357 45.7131 68.1097 45.7131 69.0645C45.7131 70.0193 44.9377 70.7933 43.9812 70.7933C43.0248 70.7933 42.2494 70.0193 42.2494 69.0645C42.2494 68.1097 43.0248 67.3357 43.9812 67.3357Z" fill="#EBEFF3" />
    <path d="M61.3004 67.3357C62.2569 67.3357 63.0323 68.1097 63.0323 69.0645C63.0323 70.0193 62.2569 70.7933 61.3004 70.7933C60.344 70.7933 59.5686 70.0193 59.5686 69.0645C59.5686 68.1097 60.344 67.3357 61.3004 67.3357Z" fill="#EBEFF3" />
    <path d="M78.6186 67.3357C79.575 67.3357 80.3504 68.1097 80.3504 69.0645C80.3504 70.0193 79.575 70.7933 78.6186 70.7933C77.6621 70.7933 76.8867 70.0193 76.8867 69.0645C76.8867 68.1097 77.6621 67.3357 78.6186 67.3357Z" fill="#EBEFF3" />
    <path d="M95.9373 67.3357C96.8938 67.3357 97.6691 68.1097 97.6691 69.0645C97.6691 70.0193 96.8938 70.7933 95.9373 70.7933C94.9808 70.7933 94.2054 70.0193 94.2054 69.0645C94.2054 68.1097 94.9808 67.3357 95.9373 67.3357Z" fill="#EBEFF3" />
    <path d="M113.257 67.3357C114.213 67.3357 114.988 68.1097 114.988 69.0645C114.988 70.0193 114.213 70.7933 113.257 70.7933C112.3 70.7933 111.525 70.0193 111.525 69.0645C111.525 68.1097 112.3 67.3357 113.257 67.3357Z" fill="#EBEFF3" />
    <path d="M130.575 67.3357C131.532 67.3357 132.307 68.1097 132.307 69.0645C132.307 70.0193 131.532 70.7933 130.575 70.7933C129.619 70.7933 128.843 70.0193 128.843 69.0645C128.843 68.1097 129.619 67.3357 130.575 67.3357Z" fill="#EBEFF3" />
    <path d="M26.663 50.0276C27.6195 50.0276 28.3948 50.8016 28.3948 51.7564C28.3948 52.7112 27.6195 53.4852 26.663 53.4852C25.7065 53.4852 24.9312 52.7112 24.9312 51.7564C24.9312 50.8016 25.7065 50.0276 26.663 50.0276Z" fill="#EBEFF3" />
    <path d="M43.9812 50.0276C44.9377 50.0276 45.7131 50.8016 45.7131 51.7564C45.7131 52.7112 44.9377 53.4852 43.9812 53.4852C43.0248 53.4852 42.2494 52.7112 42.2494 51.7564C42.2494 50.8016 43.0248 50.0276 43.9812 50.0276Z" fill="#EBEFF3" />
    <path d="M61.3004 50.0276C62.2569 50.0276 63.0323 50.8016 63.0323 51.7564C63.0323 52.7112 62.2569 53.4852 61.3004 53.4852C60.344 53.4852 59.5686 52.7112 59.5686 51.7564C59.5686 50.8016 60.344 50.0276 61.3004 50.0276Z" fill="#EBEFF3" />
    <path d="M78.6186 50.0276C79.575 50.0276 80.3504 50.8016 80.3504 51.7564C80.3504 52.7112 79.575 53.4852 78.6186 53.4852C77.6621 53.4852 76.8867 52.7112 76.8867 51.7564C76.8867 50.8016 77.6621 50.0276 78.6186 50.0276Z" fill="#EBEFF3" />
    <path d="M95.9373 50.0276C96.8938 50.0276 97.6691 50.8016 97.6691 51.7564C97.6691 52.7112 96.8938 53.4852 95.9373 53.4852C94.9808 53.4852 94.2054 52.7112 94.2054 51.7564C94.2054 50.8016 94.9808 50.0276 95.9373 50.0276Z" fill="#EBEFF3" />
    <path d="M113.257 50.0276C114.213 50.0276 114.988 50.8016 114.988 51.7564C114.988 52.7112 114.213 53.4852 113.257 53.4852C112.3 53.4852 111.525 52.7112 111.525 51.7564C111.525 50.8016 112.3 50.0276 113.257 50.0276Z" fill="#EBEFF3" />
    <path d="M130.575 50.0276C131.532 50.0276 132.307 50.8016 132.307 51.7564C132.307 52.7112 131.532 53.4852 130.575 53.4852C129.619 53.4852 128.843 52.7112 128.843 51.7564C128.843 50.8016 129.619 50.0276 130.575 50.0276Z" fill="#EBEFF3" />
  </g>
  <path d="M84.1244 142.333C85.0958 145.662 89.3409 146.731 88.781 147.898C97.9712 156.374 117.127 173.646 120.227 174.923C129.272 168.534 147.447 161.185 149.457 160.598C151.88 167.732 154.432 183.488 145.259 189.438C135.375 195.848 122.837 199.234 115.094 198.95C112.885 198.868 110.876 197.808 109.169 196.402C102.996 191.319 99.8756 188.343 92.0685 180.072L72.2125 156.948L70.9442 156.716C64.306 158.653 56.6492 156.07 51.2388 151.929L84.1244 142.333Z" fill="#2E93EE" />
  <path opacity="0.1" d="M149.816 341.485C216.134 341.485 269.895 334.006 269.895 324.779C269.895 315.552 216.134 308.073 149.816 308.073C83.4979 308.073 29.7365 315.552 29.7365 324.779C29.7365 334.006 83.4979 341.485 149.816 341.485Z" fill="white" />
  <path d="M152.382 242.637C160.913 250.901 168.669 258.99 177.27 267.184C170.529 290.176 182.142 305.391 170.618 310.484C167.517 311.854 159.818 314.574 152.88 314.96C146.228 315.333 139.825 314.929 134.089 311.665C131.547 301.094 137.359 300.029 148.082 292.324C154.69 278.321 152.312 256.61 152.452 242.637" fill="#3C97FF" />
  <path d="M146.908 315C148.37 308.643 149.222 304.615 155.002 300.164C151.92 303.131 152.456 309.354 152.691 315C151.086 315.07 148.477 315.07 146.908 315Z" fill="#24578F" />
  <path d="M145.559 299.486C141.363 303.953 141.394 309.373 142.127 314.375C140.492 314.008 138.252 313.958 136.787 312.886C136.787 312.886 137.55 303.209 145.559 299.486Z" fill="#24578F" />
  <path d="M237.307 213.176C237.382 215.186 238.004 217.137 239.106 218.819C240.877 221.641 241.908 221.288 237.47 223.693C234.155 225.346 230.59 226.443 226.918 226.938C220.668 227.947 222.133 227.256 224.892 221.465C226.091 218.86 227.518 216.368 229.158 214.016C235.202 205.622 237.065 206.193 237.314 213.198" fill="#3C97FF" />
  <path d="M259.387 210.326C261.695 214.648 258.157 215.332 253.6 216.93C251.9 217.525 250.138 217.92 248.347 218.109C243.211 218.669 244.542 217.92 246.792 213.744C248.162 211.182 249.679 208.7 251.334 206.311C260.313 193.34 256.026 203.997 259.395 210.326" fill="#3C97FF" />
  <path d="M205.121 83.9242C205.121 83.9242 236.56 100.234 236.283 105.393C236.006 110.552 227.42 109.858 223.955 116.84C223.955 116.84 243.201 130.222 241.958 136.356C240.716 142.489 228.382 140.266 225.204 145.146C225.204 145.146 228.244 157.355 225.474 161.821C222.705 166.286 223.126 162.436 219.246 168.154C219.246 168.154 221.327 122.561 205.121 83.9389" fill="#3C97FF" />
  <path d="M211.232 99.0706C200.115 109.628 185.897 116.273 173.082 124.429C164.315 130.004 156.336 136.242 150.083 144.562C142.382 154.814 146.802 166.89 145.069 179.495C144.467 183.776 144.18 188.1 144.001 192.413C143.677 200.277 143.917 208.153 144.717 215.982C146.652 234.725 147.625 249.981 160.912 264.005C177.516 281.543 195.423 282.769 216.138 267.634C224.167 261.763 229.848 260.968 236.301 253.489C240.535 248.572 245.828 245.417 250.405 240.813C255.688 235.481 263.621 228.9 270.762 226.192C278.777 223.147 284.307 227.304 288.24 229.086C290.281 230.013 293.067 231.81 295.324 230.021C295.765 229.711 296.085 229.256 296.228 228.735C296.37 228.215 296.327 227.661 296.104 227.169C294.927 224.354 293.142 221.834 290.875 219.79C278.648 208.668 258.936 208.416 244.188 216.225C238.622 219.184 232.556 222.556 226.137 222.976C221.595 223.275 216.983 222.42 213.458 219.411C210.693 216.873 208.861 213.478 208.258 209.773C207.233 204.605 207.606 199.257 209.339 194.281C211.739 187.152 216.044 180.629 218.823 173.57C228.308 149.495 231.381 122.069 216.141 99.5762L214.025 96.4538L211.232 99.0706Z" fill="#3C97FF" />
  <path d="M235.558 257.62C220.867 273.897 185.78 299.352 156.454 260.285C128.834 223.491 141.838 171.92 143.446 166.05C143.503 165.849 174.611 130.314 197.18 125.691C203.197 130.915 204.329 140.107 196.351 155.959C182.871 182.618 169.679 224.805 193.642 248.683C197.205 252.33 201.678 251.777 206.505 253.421C210.454 254.721 208.365 256.02 217.675 255.451C226.985 254.883 249.166 229.321 267.771 227.702C267.771 227.702 248.815 242.93 235.558 257.62Z" fill="#FFCF00" />
  <path d="M237.141 255.58L235.307 257.677C235.038 257.998 234.755 258.32 234.464 258.648C234.908 255.726 234.835 252.942 233.661 250.991C234.926 252.438 236.089 253.971 237.141 255.58" fill="#ECA93E" />
  <path d="M223.915 267.53C222.41 268.777 220.833 269.991 219.208 271.181C220.329 265.848 220.804 260.348 219.042 257.256C221.335 261.281 223.067 264.578 223.915 267.53Z" fill="#ECA93E" />
  <path d="M245.449 246.118C245.487 244.241 245.268 242.367 244.799 240.549C246.031 241.429 247.195 242.401 248.279 243.459C247.341 244.329 246.395 245.22 245.449 246.118Z" fill="#EDB248" />
  <path d="M200.93 257.27C196.934 265.821 191.148 273.412 183.964 279.532C181.667 278.99 179.427 278.23 177.276 277.261C183.702 274.274 194.567 267.97 200.944 257.256" fill="#ECA93E" />
  <path d="M152.912 255.183C159.765 254.302 171.516 251.6 181.452 243.334C181.452 243.334 174.408 255.868 156.217 260.04C155.043 258.445 153.942 256.829 152.915 255.183" fill="#ECA93E" />
  <path d="M174.469 227.852C160.307 223.263 148.962 229.667 143.087 231.501C142.063 229.77 140.569 224.68 140.381 223.124C142.772 222.556 157.376 222.084 158.787 222.851C172.78 230.462 174.49 227.851 174.49 227.851" fill="#ECA93E" />
  <path d="M138.989 189.43C139.141 187.602 139.327 185.852 139.535 184.184C162.6 183.635 174.491 194.604 174.491 194.604C160.697 187.246 146.07 188.273 138.989 189.437" fill="#ECA93E" />
  <path d="M148.039 159.58C148.936 158.583 149.94 157.472 151.038 156.32C175.54 156.32 182.151 167.458 182.151 167.458C171.939 161.194 159.963 158.429 148.039 159.58" fill="#ECA93E" />
  <path d="M142.078 169.749C142.665 169.391 143.252 169.033 143.822 168.661C151.618 163.585 190.548 136.522 200.61 130.564C200.821 132.086 201.764 134.453 201.625 135.983C188.09 150.547 165.08 169.851 140.381 178.595C140.854 175.63 141.42 172.681 142.078 169.749Z" fill="#ECA93E" />
  <path d="M179.431 232.512C173.465 228.029 165.592 225.096 177.743 217.27C177.963 217.13 180.91 216.057 181.124 215.916C194.797 206.844 196.108 196.519 203.431 190.515C217.965 178.6 211.53 205.419 211.544 217.273C213.231 219.306 213.572 219.983 215.938 221.338C205.121 225.741 191.937 231.838 179.431 232.512Z" fill="#24578F" />
  <path d="M215.903 178.713C211.544 186.112 203.549 199.451 203.429 199.999C203.429 199.999 200.048 165.111 204.781 159.015C207.79 155.138 213.79 172.489 215.901 178.754" fill="#24578F" />
  <path d="M208.164 188.483C205.361 190.364 204.781 191.87 199.374 199.322C193.967 206.773 187.205 213.548 171.655 220.321C156.105 227.095 175.036 235.225 175.036 235.225C175.036 235.225 236.356 213.492 236.221 198.305C236.221 196.424 230.955 163.417 226.418 148.176C223.998 140.049 211.655 135.513 203.266 143.609C195.994 154.273 208.164 188.483 208.164 188.483Z" fill="#3C97FF" />
  <path d="M183.796 219.903C183.796 219.903 184.758 229.002 175.621 234.312C166.483 239.622 160.032 240.68 150.895 237.497C150.895 237.497 144.445 235.904 142.833 231.657C142.37 230.286 142.582 228.355 143.232 227.661C143.589 227.28 144.684 227.719 144.684 227.719C144.102 226.891 143.728 225.934 143.595 224.93C143.514 224.003 143.624 223.068 143.92 222.185C144.16 221.762 145.495 221.62 145.88 221.409C146.089 221.294 146.596 221.035 146.596 221.035C146.369 220.355 146.313 219.629 146.432 218.922C146.529 218.054 146.726 217.199 147.019 216.376C147.535 216.09 148.082 215.863 148.65 215.701C148.996 215.514 149.384 215.419 149.778 215.425C150.171 215.43 150.557 215.535 150.898 215.731C153.113 217.023 155.452 218.09 157.879 218.916C161.041 218.861 164.155 218.137 167.017 216.792C167.017 216.792 162.717 207.766 166.48 205.643C167.079 205.245 167.792 205.058 168.509 205.109C168.644 205.128 168.685 204.747 169.717 204.063C171.093 205.773 170.925 208.714 171.317 209.359C172.931 212.014 174.303 211.707 175.617 213.076C181.54 219.253 183.796 219.903 183.796 219.903Z" fill="#3C97FF" />
  <path d="M209.258 96.3495C209.258 96.3495 206.734 57.0343 190.739 54.6281C180.212 53.0794 173.471 65.961 173.471 65.961C173.471 65.961 164.936 64.4932 154.61 69.4853C154.61 69.4853 152.218 63.8548 146.993 65.0338C141.768 66.2129 135.16 76.811 135.215 95.4438C132.783 95.5498 130.406 96.2042 128.262 97.3582C126.119 98.5121 124.264 100.136 122.836 102.108C122.836 102.108 124.685 105.57 127.989 106.245C131.293 106.919 146.223 103.142 149.766 107.006C153.308 110.871 154.748 113.586 153.61 119.799C153.61 119.799 169.581 119.948 177.669 111.681C185.757 103.415 193.632 86.5317 209.26 96.3526" fill="#3C97FF" />
  <path d="M141.956 92.2815C141.956 92.2815 153.361 90.7653 158.411 91.2982C163.46 91.831 174.05 91.5864 174.05 91.5864C174.05 91.5864 188.377 91.4003 191.746 91.7558L196.462 92.2536L187.436 97.0809L139.438 96.7761L141.956 92.2815Z" fill="#3C97FF" />
  <path d="M154.256 93.2806C154.256 93.2806 151.735 79.3375 144.531 74.7901C143.581 81.3009 142.209 87.7432 140.424 94.0763C145.013 93.5241 149.633 93.2632 154.255 93.2952" fill="#F1F1F2" />
  <path d="M191.518 69.548C191.518 69.548 181.229 73.303 172.591 93.3898C172.591 93.3898 188.258 92.4592 194.969 93.7026C194.969 93.7026 189.969 81.2241 191.518 69.5473" fill="#F1F1F2" />
  <path d="M185.469 80.2773C183.086 80.0258 180.871 82.4704 180.524 85.7516C180.178 89.0328 181.834 91.886 184.217 92.1375C186.601 92.389 188.831 89.9386 189.173 86.6997C189.515 83.4608 187.864 80.5661 185.48 80.3146" fill="#24578F" />
  <path d="M148.453 92.02C150.264 92.2111 151.947 90.3312 152.212 87.821C152.477 85.3109 151.223 83.121 149.412 82.9299C147.6 82.7387 145.917 84.6187 145.652 87.1288C145.388 89.639 146.641 91.8289 148.453 92.02Z" fill="#24578F" />
  <path d="M190.128 104.671C190.128 104.671 197.598 97.6897 203.384 104.634C208.183 110.354 203.279 118.582 203.279 118.582C203.279 118.582 203.683 111.078 200.163 111.224C200.163 111.224 199.655 136.026 170.43 151.727C141.204 167.428 124.479 166.136 118.724 163.95C112.969 161.763 111.45 150.332 114.246 145.801C117.042 141.27 132.228 130.91 132.228 130.91C132.228 130.91 137.975 136.241 150.274 133.338C162.573 130.436 183.261 119.901 194.957 106.774C194.957 106.774 194.768 103.243 190.518 104.762" fill="#F47924" />
  <path d="M191.519 126.187C184.199 123.604 176.349 122.889 168.682 124.108C161.016 125.327 153.775 128.44 147.616 133.166L150.844 131.826C150.844 131.826 136.909 129.637 134.761 131.384C132.613 133.13 119.325 139.955 116.136 156.196C115.205 160.924 125.788 168.515 152.325 158.656C168.838 152.499 195.47 133.968 195.47 133.968" fill="#E05406" />
  <path d="M133.388 130.896C133.388 130.896 135.316 145.138 140.702 144.134C142.522 143.802 142.213 139.777 143.223 137.155C144.234 134.533 146.76 129.557 146.76 129.557L133.388 130.896Z" fill="white" />
  <path d="M107.971 122.908C107.971 122.908 107.57 137.27 113.063 137.176C114.912 137.142 115.265 133.1 116.681 130.701C118.098 128.301 121.406 123.772 121.406 123.772L107.971 122.908Z" fill="white" />
  <path d="M104.542 111.114C106.458 99.4158 119.017 96.838 127.999 104.922C136.143 104.001 145.557 99.6372 152.68 108.417C157.715 114.628 153.928 119.678 153.928 119.678C153.928 119.678 170.755 118.761 177.363 110.957C183.97 103.153 192.548 92.7005 200.744 92.7585C205.058 92.7899 212.302 92.9298 215.61 101.465C218.918 110 219.168 127.538 185.932 147.427C152.697 167.316 138.466 172.146 131.737 171.422C123.199 170.521 122.988 167.275 113.286 164.858C108.33 163.617 105.416 154.692 111.708 147.903C117.999 141.113 132.21 130.872 132.21 130.872C132.21 130.872 116.732 143.919 113.944 148.453C111.156 152.987 117.588 156.737 123.361 158.889C129.133 161.042 136.54 163.534 165.766 147.839C194.992 132.144 200.146 111.184 200.146 111.184C203.665 111.039 203.261 118.543 203.261 118.543C203.261 118.543 208.166 110.314 203.366 104.594C197.577 97.6858 190.11 104.631 190.11 104.631L190.509 104.673C194.756 103.154 194.948 106.685 194.948 106.685C183.241 119.814 162.571 130.342 150.263 133.237C137.955 136.131 132.217 130.808 132.217 130.808C132.217 130.808 119.643 129.273 115.503 127.68C111.364 126.087 102.626 122.811 104.542 111.114Z" fill="#FFCF00" />
  <path d="M143.171 112.907C140.49 111.726 137.97 115.23 141.449 117.24C141.815 118.666 140.835 120.049 138.535 120.366C145.496 122.577 146.603 114.568 143.171 112.907" fill="#ECA93E" />
  <path d="M112.001 108.461C114.359 107.992 115.795 111.232 112.643 112.256C112.097 113.34 112.65 114.648 114.479 115.322C108.504 115.905 108.968 109.255 112.024 108.5" fill="#ECA93E" />
  <path d="M217.128 238.572C215.353 235.967 212.917 233.88 210.07 232.526C207.223 231.172 204.066 230.6 200.925 230.868C182.942 233.211 189.984 254.477 194.285 266.971C197.272 275.955 198.994 285.311 199.402 294.77C199.358 309.592 195.015 312.996 201.897 317.624C211.352 324.312 216.972 325.322 228.136 324.56C234.494 323.61 239.755 322.004 240.481 317.624C241.54 311.24 239.755 307.767 230.849 303.884C228.478 302.85 225.957 300.101 224.805 296.399C220.874 286.225 220.576 277.015 220.931 266.791C221.18 259.69 221.784 245.489 217.129 238.389" fill="#3C97FF" />
  <path d="M226.241 324.615C224.784 324.982 222.236 324.615 221.143 324.615C222.236 318.36 222.964 309.529 220.415 305.849C225.148 309.529 227.333 319.096 226.241 324.615Z" fill="#24578F" />
  <path d="M229.23 307.201C234.761 310.584 238.674 315.157 239.401 320.219C238.307 321.51 236.495 322.027 235.042 322.751C235.042 322.751 236.495 315.88 229.23 307.201Z" fill="#24578F" />
  <path d="M90.2641 148.818C90.2641 148.818 89.9333 149.872 80.8727 153.981C71.7587 158.379 65.5219 158.916 57.0317 155.206C57.0317 155.206 50.9904 153.211 49.7631 149.038C49.4217 147.694 49.766 145.867 50.4378 145.252C50.8062 144.914 51.82 145.414 51.82 145.414C51.3248 144.58 51.0382 143.639 50.9844 142.671C50.9751 141.78 51.1496 140.896 51.4971 140.074C51.7573 139.688 53.0422 139.65 53.4248 139.477C53.6329 139.383 54.136 139.173 54.136 139.173C53.9695 138.507 53.9692 137.81 54.135 137.143C54.2916 136.321 54.5425 135.52 54.8825 134.755C55.3964 134.52 55.9353 134.344 56.4889 134.23C56.8334 134.078 57.211 134.016 57.5862 134.05C57.9614 134.084 58.3218 134.212 58.6333 134.424C60.6532 135.821 62.8078 137.011 65.065 137.978C68.0876 138.158 71.2278 137.012 74.0588 135.938C74.0588 135.938 70.5024 127.688 74.2511 125.937C74.8522 125.602 75.5474 125.475 76.2282 125.577C76.355 125.605 76.4229 125.244 77.4582 124.667C78.6462 126.4 79.2571 129.072 79.5838 129.717C80.9302 132.37 81.2748 132.302 82.4291 133.705C87.6306 140.038 90.2641 148.818 90.2641 148.818Z" fill="#2E93EE" />
  <circle r="36.6899" transform="matrix(-1 0 0 1 52.6899 50.3948)" fill="white" filter="drop-shadow(0px 4px 6px #8C8D8F)" />
  <circle r="7.70488" transform="matrix(-1 0 0 1 89.3795 90.7536)" fill="white" />
  <circle r="3.85244" transform="matrix(-1 0 0 1 24.9894 9.85244)" fill="white" />
  <path d="M55.2638 30.9277H33.1924V67.7135H55.2638V30.9277Z" fill="#FFD54C" />
  <path d="M40.2434 31.7894V50.4582H69.5129V31.7894H40.2434ZM64.6995 34.3129L54.8906 43.2022L45.2619 34.3148L64.6995 34.3129ZM42.766 47.9384V35.4487L54.8685 46.6205L66.9885 35.6436V47.9384H42.766Z" fill="#1F2044" />
  <path d="M69.513 52.9845C69.513 63.0206 65.4381 67.0238 55.1905 67.1149H54.8778V64.0874C63.4618 64.0874 66.5904 61.1602 66.6493 53.2274V52.9845H69.513Z" fill="#1F2044" />
  <path d="M63.9621 52.9845C63.9621 59.4119 61.571 61.5097 55.0802 61.5639H54.8788V58.4371H55.2237C59.7428 58.3819 61.0478 57.2416 61.1094 53.2871V52.9845H63.9621Z" fill="#1F2044" />
</svg>
