<svg width="238" height="269" viewBox="0 0 238 269" fill="none" xmlns="http://www.w3.org/2000/svg">
<g clip-path="url(#clip0_5306_2587)">
<g filter="url(#filter0_f_5306_2587)">
<path d="M118.216 263.598C180.742 263.598 231.428 256.886 231.428 248.607C231.428 240.327 180.742 233.615 118.216 233.615C55.6911 233.615 5.00439 240.327 5.00439 248.607C5.00439 256.886 55.6911 263.598 118.216 263.598Z" fill="black" fill-opacity="0.1"/>
</g>
<path fill-rule="evenodd" clip-rule="evenodd" d="M45.9034 57.687C45.9034 57.687 35.5497 91.7791 39.4769 99.0525C43.4043 106.326 94.04 133.829 100.518 113.366C102.557 106.928 100.765 95.2241 66.4599 87.7351C66.4599 87.7351 55.1449 75.5384 67.8811 61.7993" fill="#3C97FF"/>
<path fill-rule="evenodd" clip-rule="evenodd" d="M91.5244 183.394C98.514 191.023 105.339 201.269 112.328 208.898C107.594 227.376 114.069 236.042 105.229 242.224C102.036 244.455 83.2309 248.451 73.2475 241.851C73.6185 232.132 79.1285 229.58 85.0362 226.285C91.5484 214.334 90.6526 195.508 91.5244 183.394Z" fill="#3C97FF"/>
<path fill-rule="evenodd" clip-rule="evenodd" d="M83.3923 245.198C85.0431 240.103 88.1089 235.827 94.6349 233.552C89.3687 237.004 87.2681 241.034 87.3368 245.464C86.0185 245.437 84.6968 245.355 83.3923 245.198Z" fill="#2D578A"/>
<path fill-rule="evenodd" clip-rule="evenodd" d="M74.6379 242.662C76.3031 237.657 79.3758 233.466 85.8159 231.218C80.1135 234.958 78.1125 239.374 78.5755 244.243C77.2126 243.849 75.8909 243.322 74.6379 242.662Z" fill="#2D578A"/>
<path fill-rule="evenodd" clip-rule="evenodd" d="M179.975 153.294C179.927 155.289 180.421 157.256 181.399 158.994C182.982 161.888 184.022 161.618 179.481 163.739C176.611 165.08 173.013 165.908 168.839 166.322C162.594 166.948 164.084 166.35 167.17 160.756C168.516 158.241 170.081 155.846 171.849 153.605C178.348 145.627 180.16 146.308 179.975 153.294Z" fill="#3C97FF"/>
<path fill-rule="evenodd" clip-rule="evenodd" d="M202.07 151.772C204.053 156.083 200.569 156.524 196.031 157.796C194.346 158.268 192.608 158.543 190.857 158.617C185.828 158.847 187.167 158.207 189.601 154.314C191.091 151.926 192.715 149.623 194.469 147.417C203.981 135.443 199.169 145.467 202.07 151.772Z" fill="#3C97FF"/>
<path fill-rule="evenodd" clip-rule="evenodd" d="M221.095 151.071C221.009 152.028 220.985 152.99 221.019 153.951C221.132 157.444 221.558 156.88 217.222 156.996C215.297 157.078 213.367 156.938 211.472 156.582C206.021 155.419 208.146 153.633 211.211 150.622C212.269 149.586 213.419 148.645 214.648 147.817C226.035 140.147 221.572 145.761 221.095 151.071Z" fill="#3C97FF"/>
<path fill-rule="evenodd" clip-rule="evenodd" d="M89.7651 127.098C90.2013 122.863 90.7536 118.62 91.6055 114.446C94.1011 102.178 90.4995 90.0191 98.6906 80.395C105.361 72.5577 113.583 66.9022 122.536 61.9552C135.248 54.9281 149.114 49.3687 160.487 40.1828C159.262 34.8321 157.741 29.5567 155.928 24.3735C155.928 24.3735 186.073 42.2971 185.483 47.34C184.916 52.1946 177.061 51.2743 173.035 57.1074C173.134 57.535 173.23 57.9627 173.32 58.3937C176.725 61.1581 190.629 72.8242 189.214 78.0416C187.789 83.2967 178.18 81.5993 173.591 84.3196C173.313 86.0266 172.986 87.7302 172.609 89.427C173.028 93.3618 173.261 99.3004 171.332 101.99C169.495 104.552 169.015 104.165 167.974 104.682C166.879 107.539 165.685 110.351 164.391 113.119C161.229 119.896 156.601 126.03 153.807 132.928C151.795 137.721 151.102 142.959 151.791 148.107C152.269 151.778 153.618 155.288 156.309 157.916C159.584 161.114 164.064 162.23 168.541 162.213C174.875 162.189 181.037 159.243 186.691 156.667C201.655 149.862 221.007 151.306 232.336 162.996C234.436 165.152 236.033 167.741 237.014 170.581C237.389 171.597 236.997 172.733 236.077 173.308C233.746 174.933 231.123 172.997 229.177 171.963C225.422 169.965 220.245 165.538 212.184 168.049C205.002 170.287 196.811 176.281 191.287 181.203C186.512 185.46 181.119 188.245 176.656 192.822C169.859 199.794 164.411 202.959 156.165 208.245C134.884 221.885 117.191 216.859 101.956 198.59C89.7686 183.978 89.748 168.904 88.9964 150.334C88.7011 142.582 88.9587 134.816 89.7651 127.098Z" fill="#3C97FF"/>
<path fill-rule="evenodd" clip-rule="evenodd" d="M157.459 25.2942L150.933 21.3804L155.421 34.4287L160.652 35.3525L157.459 25.2942Z" fill="#226EB7"/>
<path fill-rule="evenodd" clip-rule="evenodd" d="M209.548 168.944C198.727 173.526 186.856 184.545 175.335 196.581C160.305 212.273 123.8 234.515 97.3208 194.374C72.3841 156.563 88.3438 106.724 90.2838 101.058C90.3559 100.866 90.428 100.675 90.5036 100.487C91.4921 99.3678 117.658 70.038 140.15 66.877C145.753 72.3715 146.341 81.4646 137.483 96.5383C122.584 121.893 109.597 159.406 131.72 184.315C135.042 188.055 139.049 191.1 143.789 192.992C160.216 199.544 169.725 189.954 180.821 180.83C189.959 173.313 199.575 169.793 209.548 168.944Z" fill="#FBCE3B"/>
<path fill-rule="evenodd" clip-rule="evenodd" d="M94.369 189.492C101.153 189.054 112.849 187.165 123.096 179.81C123.096 179.81 115.427 191.459 97.3215 194.371C96.2636 192.766 95.2854 191.137 94.369 189.492Z" fill="#ECA93E"/>
<path fill-rule="evenodd" clip-rule="evenodd" d="M141.397 194.733C141.397 194.733 135.427 206.605 123.13 215.547C120.878 214.877 118.698 213.991 116.614 212.907C123.195 210.371 134.393 204.846 141.397 194.733Z" fill="#ECA93E"/>
<path fill-rule="evenodd" clip-rule="evenodd" d="M177.185 194.668C176.567 195.301 175.949 195.938 175.335 196.577C175.057 196.868 174.768 197.162 174.476 197.457C175.064 194.703 175.174 192 174.182 190.056C175.29 191.521 176.293 193.064 177.185 194.668Z" fill="#ECA93E"/>
<path fill-rule="evenodd" clip-rule="evenodd" d="M164.813 205.651C163.543 206.56 162.221 207.443 160.852 208.298C162.008 204.165 162.66 199.827 161.4 197.296C163.042 200.59 164.277 203.276 164.813 205.651Z" fill="#ECA93E"/>
<path fill-rule="evenodd" clip-rule="evenodd" d="M189.142 183.232C188.191 184.08 187.237 184.945 186.279 185.828C186.433 183.881 186.347 181.921 186.018 179.995C187.144 180.991 188.188 182.071 189.142 183.232Z" fill="#ECA93E"/>
<path fill-rule="evenodd" clip-rule="evenodd" d="M116.834 159.283C103.284 154.015 90.112 155.821 84.2689 157.227C84.0868 155.701 83.9364 154.182 83.8196 152.674C105.467 149.009 116.834 159.283 116.834 159.283Z" fill="#ECA93E"/>
<path fill-rule="evenodd" clip-rule="evenodd" d="M84.9593 123.952C85.2272 122.139 85.5184 120.401 85.8207 118.749V118.745C108.458 119.598 119.423 131.263 119.423 131.263C106.367 123.08 91.9695 123.234 84.9593 123.952Z" fill="#ECA93E"/>
<path fill-rule="evenodd" clip-rule="evenodd" d="M86.1401 116.967C87.3176 110.083 88.1343 108.106 89.1613 104.616C89.7617 104.305 90.3628 103.987 90.946 103.658C98.9345 99.1454 133.934 80.8356 144.201 75.5977C144.318 76.9867 140.539 89.6725 140.305 91.2943C129.532 104.281 109.91 121.188 91.9139 116.974C87.6026 115.964 87.5477 117.104 86.1401 116.967Z" fill="#ECA93E"/>
<path fill-rule="evenodd" clip-rule="evenodd" d="M158.383 183.765C155.181 178.356 149.217 175.944 144.875 176.241C129.299 177.295 133.048 195.807 136.09 206.761C138.476 215.356 139.297 226.078 138.977 230.943C138.287 241.524 134.061 244.463 138.747 248.904C142.815 252.756 154.758 258.661 165.242 258.065C173.939 256.663 175.271 239.095 161.882 233.762C158.593 225.314 159.287 216.94 160.131 208.195C160.701 202.28 161.995 189.861 158.383 183.765Z" fill="#3C97FF"/>
<path fill-rule="evenodd" clip-rule="evenodd" d="M157.106 257.395C155.898 257.149 154.707 256.848 153.536 256.505C154.776 251.463 153.966 246.605 150.162 242.006C155.552 245.541 157.062 251.09 157.106 257.395Z" fill="#2D578A"/>
<path fill-rule="evenodd" clip-rule="evenodd" d="M165.394 258.032C166.781 252.759 166.145 246.639 162.242 241.921C167.265 245.216 168.919 250.252 169.159 256.026C168.143 257.07 166.825 257.771 165.394 258.032Z" fill="#2D578A"/>
<path fill-rule="evenodd" clip-rule="evenodd" d="M163.41 161.734C163.41 161.734 164.561 172.029 157.417 175.019C151.372 177.55 144.166 177.184 140.833 172.654C136.229 166.401 129.624 153.66 150.328 142.935C163.123 136.308 162.192 161.454 162.192 161.454L163.41 161.734Z" fill="#2D578A"/>
<path fill-rule="evenodd" clip-rule="evenodd" d="M164.753 112.791C161.797 118.252 159.188 122.456 159.048 122.836C159.048 122.836 144.166 101.943 147.376 98.8399C150.925 95.4051 162.511 108.231 164.753 112.791Z" fill="#2D578A"/>
<path fill-rule="evenodd" clip-rule="evenodd" d="M150.884 82.6985C132.562 98.2372 167.098 122.507 167.098 122.507C163.033 124.724 157.571 132.829 153.486 138.751C149.401 144.673 148.021 143.558 143.174 148.405C138.327 153.253 150.76 161.659 150.76 161.659C150.76 161.659 195.413 141.07 196.206 126.157C196.305 124.31 187.325 107.108 177.829 96.1983C173.057 90.7206 159.649 75.2644 150.884 82.6985Z" fill="#3C97FF"/>
<path fill-rule="evenodd" clip-rule="evenodd" d="M163.267 154.108C163.267 154.108 165.505 170.161 155.717 174.191C155.717 174.191 147.983 174.221 144.241 171.18C144.241 171.18 135.422 155.679 143.174 148.405C150.925 141.132 163.267 154.108 163.267 154.108Z" fill="#3C97FF"/>
<path fill-rule="evenodd" clip-rule="evenodd" d="M163.404 155.251C163.404 155.251 150.489 161.156 148.282 161.628C150.441 162.049 152.673 161.854 154.725 161.067C154.725 161.067 157.561 167.331 153.599 170.899C153.599 170.899 159.405 170.236 157.942 160.571L163.489 155.528L163.404 155.251Z" fill="#2D578A"/>
<path fill-rule="evenodd" clip-rule="evenodd" d="M161.003 38.6835C161.003 38.6835 149.997 -0.947441 133.557 0.0173332C122.75 0.650251 118.71 14.8653 118.71 14.8653C118.71 14.8653 109.932 15.1595 100.659 22.231C100.659 22.231 97.1093 17.1232 92.1488 19.3777C87.1884 21.6324 82.8146 33.5791 86.7385 52.1082C86.7385 52.1082 79.169 53.8667 75.6464 61.6327C75.6464 61.6327 78.2485 65.0574 81.6681 65.0061C85.087 64.9547 99.2484 58.8479 103.57 61.927C107.892 65.0061 110.501 67.6404 110.659 74.065C110.659 74.065 126.059 69.3374 132.4 59.4364C138.741 49.5354 143.413 32.1559 161.003 38.6835Z" fill="#3C97FF"/>
<path d="M105.259 46.0973C105.259 46.0973 99.9072 33.3123 91.8054 30.3906C91.8054 30.3906 92.4889 41.051 91.6439 49.6621C96.107 48.2012 100.655 47.0107 105.259 46.0973Z" fill="#EEEEEF"/>
<path d="M137.508 15.5459C137.508 15.5459 128.033 21.2901 123.543 42.5253C123.543 42.5253 139.619 39.501 146.554 39.3402C146.558 39.3402 138.363 27.1848 137.508 15.5459Z" fill="#EEEEEF"/>
<path fill-rule="evenodd" clip-rule="evenodd" d="M134.298 25.0841C131.871 25.327 130.175 28.2248 130.512 31.557C130.849 34.8892 133.09 37.3901 135.514 37.1472C137.937 36.9043 139.633 34.0066 139.3 30.6778C138.967 27.3489 136.725 24.8412 134.298 25.0841Z" fill="#2E578C"/>
<path fill-rule="evenodd" clip-rule="evenodd" d="M98.7916 44.8347C96.8791 45.0263 95.1254 43.1379 94.8712 40.613C94.617 38.0882 95.9593 35.8918 97.8718 35.7002C98.2386 35.6728 98.6095 35.7173 98.9564 35.8371C99.787 36.7368 100.775 37.5442 101.734 39.5935C101.751 39.703 101.782 39.8091 101.792 39.9219C102.049 42.4434 100.703 44.6432 98.7916 44.8347Z" fill="#2E578C"/>
<path d="M83.2742 102.534C85.2649 99.0975 85.4161 95.4704 83.6115 94.4318C81.8068 93.3938 78.7307 95.3372 76.7399 98.774C74.7492 102.21 74.5981 105.837 76.4027 106.875C78.2066 107.914 81.2834 105.97 83.2742 102.534Z" fill="#F4753E"/>
<path fill-rule="evenodd" clip-rule="evenodd" d="M133.936 72.6504L150.329 71.1206C156.501 71.1206 161.51 66.1328 161.51 59.9816C161.51 59.9816 161.51 59.9816 161.51 59.9781V52.9818C161.51 47.3163 156.903 42.7251 151.218 42.7251H149.446C143.762 42.7251 139.154 47.3163 139.154 52.9818L133.936 72.6504Z" fill="#F68B51"/>
<path fill-rule="evenodd" clip-rule="evenodd" d="M79.0982 104.033C78.3502 78.7299 130.97 69.0818 130.97 69.0818C138.756 69.0474 146.501 70.2619 153.899 72.6738C153.902 72.6738 110.115 121.594 79.0982 104.033Z" fill="#F26A23"/>
<path fill-rule="evenodd" clip-rule="evenodd" d="M103.22 97.1651C99.2546 98.7526 95.5265 90.0559 94.4796 87.3638C96.2719 87.9896 99.8316 88.7287 104.844 87.4524C104.586 88.5302 104.35 89.608 104.209 90.4323C103.779 92.974 104.799 96.5324 103.22 97.1651Z" fill="#E6E9EE"/>
<path fill-rule="evenodd" clip-rule="evenodd" d="M74.9669 86.2584C75.7769 86.3752 76.5936 86.4432 77.4145 86.4604C77.0848 87.2744 76.7825 88.0582 76.5662 88.6909C75.7391 91.1336 76.1822 94.8081 74.5204 95.1811C70.4317 96.1078 68.1386 87.2984 67.4795 84.2979C70.2188 85.6635 73.1644 85.9644 74.9669 86.2584Z" fill="#E6E9EE"/>
<path fill-rule="evenodd" clip-rule="evenodd" d="M91.2764 88.6566C87.301 90.7779 83.6039 93.3779 80.2605 96.3923C75.3853 100.983 77.0573 102.54 78.1489 102.947C78.9286 103.224 79.7625 103.303 80.58 103.17C84.1844 102.622 87.854 102.674 91.4413 103.324C100.031 105.226 109.726 99.7892 109.726 99.7892C151.322 78.3215 153.472 53.73 153.472 53.73C156.77 53.1484 157.841 60.2508 157.841 60.2508C160.983 49.652 154.155 46.3916 154.155 46.3916C147.474 42.0432 142.022 50.6031 142.022 50.6031C145.977 47.2058 148.703 51.4173 148.703 51.4173C141.628 68.5711 122.853 80.6715 114.751 85.2562C110.172 87.8666 105.022 89.3305 99.7492 89.5256C94.0194 89.7172 90.3566 88.3694 90.3566 88.3694C77.2703 89.8642 70.0436 86.8746 70.0436 86.8746C63.8818 84.7705 61.4512 80.8941 60.9672 77.1241C59.6146 66.5663 66.46 61.4755 74.6784 61.4687C78.1111 61.5166 81.4826 62.4027 84.4935 64.0517C94.7166 59.7034 97.7172 59.9771 97.7172 59.9771C113.941 60.2474 112.578 72.3409 112.578 72.3409C112.578 72.3409 126.21 70.6339 133.982 53.145C133.982 53.145 138.401 38.2355 150.481 36.453C158.113 35.3411 165.405 39.9837 167.601 47.3529C169.191 52.69 168.693 60.285 161.251 70.0012C161.251 70.0012 146.935 88.1029 127.851 100.737C108.767 113.371 105.764 116.088 92.5404 114.185C92.5404 114.185 86.9411 113.337 82.873 114.045C81.8089 114.247 80.7098 114.161 79.6904 113.802C77.9297 113.149 75.7322 111.445 74.8742 107.083C74.4414 104.925 74.62 102.687 75.3922 100.624C76.5016 97.6919 79.0556 93.323 84.9428 88.7665C84.9428 88.7665 86.9273 88.6772 87.5896 88.6325C88.2902 88.5851 90.3566 88.3729 90.3566 88.3729L91.2764 88.6566Z" fill="#FBCE3B"/>
<path fill-rule="evenodd" clip-rule="evenodd" d="M100.302 69.5903C97.6519 69.1699 96.2341 72.8643 99.7938 73.8329C100.456 75.0096 99.9141 76.4941 97.9432 77.2917C104.617 77.6235 103.738 70.2573 100.302 69.5903Z" fill="#ECA93E"/>
<path fill-rule="evenodd" clip-rule="evenodd" d="M69.0345 70.5212C71.0809 69.6729 72.9309 72.365 70.26 73.8296C69.9543 74.9005 70.6756 75.9879 72.4129 76.2517C67.1224 77.798 66.4084 71.7186 69.0345 70.5212Z" fill="#ECA93E"/>
<path fill-rule="evenodd" clip-rule="evenodd" d="M81.8295 42.4226C81.7402 42.0155 81.5925 41.6254 81.3968 41.2594C80.2846 39.1964 77.1879 34.2665 72.248 32.6722C72.248 32.6722 73.8514 31.314 79.3366 29.3776C79.3366 29.3776 82.6429 28.3924 81.4517 24.6564C80.2606 20.9205 75.8284 22.8911 75.8284 22.8911L70.1707 25.2996L73.3396 21.4952C73.3396 21.4952 76.0654 18.8678 73.1679 15.5458C73.1679 15.5458 70.8165 13.062 67.4074 15.5458C67.4074 15.5458 59.4464 24.7761 55.5878 31.9743C54.8841 33.2881 54.1116 34.5573 53.2946 35.806C51.2348 38.9501 47.2904 46.2509 45.9034 57.6879L65.1074 63.0112C65.1074 63.0112 68.9933 62.2586 72.1244 57.6708C74.1495 54.7046 77.3768 52.7785 77.3768 52.7785L76.7139 48.1599L72.4163 48.0915C72.4163 48.0915 71.1496 49.436 70.3768 47.6844C69.9852 46.8017 71.1256 46.0525 68.5369 41.061L70.4798 39.8738C70.4798 39.8738 71.7431 39.9354 74.9704 45.0192C75.2074 45.3956 75.4987 45.7343 75.8353 46.0285L81.8295 42.4226Z" fill="#3C97FF"/>
<path fill-rule="evenodd" clip-rule="evenodd" d="M158.448 25.0354C153.852 28.6071 149.509 32.4936 145.454 36.664C144.614 37.3551 144.222 38.4499 144.431 39.5172C144.737 41.4195 146.505 47.4099 141.16 51.2006C141.16 51.2006 131.589 58.6587 119.354 55.501C119.354 55.501 113.079 53.0856 106.483 47.1499C106.483 47.1499 103.775 46.5478 103.672 48.8913C103.672 48.8913 103.501 50.0134 104.252 52.9659C105.004 55.9184 102.447 59.3498 95.9682 60.3694C89.4903 61.3889 84.3135 61.0159 78.8242 54.697C78.8242 54.697 76.6617 52.0456 75.5941 51.9053C75.2438 51.8472 74.9347 51.6522 74.732 51.3614L72.5558 48.4123L86.2912 40.1604L86.4973 42.1995L82.6793 45.6651L103.504 42.0523L109.865 39.8799C109.865 39.8799 122.498 31.9086 142.948 32.4525L155.925 23.9988C156.395 23.6841 156.999 23.6498 157.501 23.9099C157.937 24.1664 158.269 24.5633 158.448 25.0354Z" fill="#030504"/>
<path fill-rule="evenodd" clip-rule="evenodd" d="M75.7734 45.9707C76.2783 46.412 76.8719 46.7405 77.5176 46.9252C78.434 47.192 79.4225 47.0484 80.2228 46.5284C80.964 46.0597 81.5101 45.3377 81.7574 44.4962C81.9559 43.8085 81.9765 43.0832 81.8192 42.3853L75.7734 45.9707Z" fill="#3C97FF"/>
</g>
<defs>
<filter id="filter0_f_5306_2587" x="1.63011" y="230.241" width="233.172" height="36.731" filterUnits="userSpaceOnUse" color-interpolation-filters="sRGB">
<feFlood flood-opacity="0" result="BackgroundImageFix"/>
<feBlend mode="normal" in="SourceGraphic" in2="BackgroundImageFix" result="shape"/>
<feGaussianBlur stdDeviation="1.68714" result="effect1_foregroundBlur_5306_2587"/>
</filter>
<clipPath id="clip0_5306_2587">
<rect width="237.683" height="268.595" fill="white"/>
</clipPath>
</defs>
</svg>
