<svg width="126" height="57" viewBox="0 0 126 57" fill="none" xmlns="http://www.w3.org/2000/svg">
<g clip-path="url(#clip0_1986_1732)">
<path fill-rule="evenodd" clip-rule="evenodd" d="M97.513 31.5542C97.513 31.5542 124.083 50.9156 123.108 55.6027C122.133 60.2898 114.373 58.4515 110.234 64.3637C110.234 64.3637 126.03 79.3446 124.021 84.7668C122.012 90.1891 111.025 86.4516 107.434 90.465C107.434 90.465 108.529 102.076 105.364 105.783C102.199 109.49 103.113 106.028 98.7905 110.717C98.7915 110.685 107.039 69.2049 97.513 31.5542Z" fill="#3C97FF"/>
<path fill-rule="evenodd" clip-rule="evenodd" d="M100.191 41.2659C100.191 41.2659 99.5826 4.6569 84.9434 1.77684C75.3258 -0.12239 68.5695 11.5494 68.5695 11.5494C68.5695 11.5494 60.8087 9.83395 51.1001 14.0005C51.1001 14.0005 49.1522 8.66985 44.2827 9.55854C39.4131 10.4472 32.8998 20.0053 32.139 37.3143C29.8974 37.3125 27.6844 37.8213 25.6659 38.8029C23.6475 39.7844 21.8759 41.2131 20.4841 42.9818C20.4841 42.9818 22.0347 46.2597 25.0495 46.9953C28.0643 47.7309 41.9407 44.9123 45.045 48.6191C48.1493 52.3259 49.3363 54.93 48.0278 60.6589C48.0278 60.6589 62.6975 61.4555 70.4873 54.1335C78.2771 46.8115 86.222 31.5235 100.191 41.2659Z" fill="#3C97FF"/>
<path d="M49.7299 36.1805C49.7299 36.1805 47.9342 23.6507 41.4819 19.239C41.4819 19.239 39.6862 28.8278 36.98 36.2721C41.2251 35.9824 45.4837 35.9517 49.7324 36.18L49.7299 36.1805Z" fill="#F1F1F2"/>
<path d="M84.8834 16.4204C84.8834 16.4204 75.2963 19.3614 66.5616 37.1604C66.5616 37.1604 80.9877 37.0093 87.1053 38.4468C87.1353 38.4473 83.0266 26.9281 84.8834 16.4204Z" fill="#F1F1F2"/>
<path fill-rule="evenodd" clip-rule="evenodd" d="M79.9218 24.1406C77.7304 23.8037 75.6 25.9789 75.1438 29.0115C74.6876 32.0441 76.0872 34.7711 78.2786 35.108C80.47 35.4448 82.6004 33.2697 83.0566 30.2371C83.5128 27.2044 82.1132 24.4774 79.9218 24.1406Z" fill="#24578F"/>
<path fill-rule="evenodd" clip-rule="evenodd" d="M44.3431 33.6064C42.6389 33.3305 41.5129 31.2782 41.8475 28.9807C42.1822 26.6832 43.8564 25.0594 45.5911 25.3051C45.9171 25.3638 46.2277 25.4889 46.504 25.6727C47.2779 26.8759 47.8152 28.2175 48.0867 29.6247C48.0916 29.7277 48.0813 29.8308 48.0562 29.9308C47.752 32.2278 46.0778 33.8516 44.3431 33.6064Z" fill="#24578F"/>
<path fill-rule="evenodd" clip-rule="evenodd" d="M82.2361 48.1896C82.2361 48.1896 89.3892 42.0318 94.4413 48.6801C98.6111 54.1945 93.741 61.6081 93.741 61.6081C93.741 61.6081 94.4413 54.6537 91.1844 54.6537C91.1844 54.6537 85.9192 71.4114 58.3755 84.7377C30.8318 98.064 24.1059 95.4624 18.9017 93.1931C13.6975 90.9238 7.91457 87.1888 10.6842 83.1139C13.4539 79.039 27.8495 70.063 27.8495 70.063C27.8495 70.063 32.9017 75.2406 44.345 73.0654C55.7884 70.8903 75.2667 62.0386 86.5885 50.3341C86.5885 50.3341 86.5579 47.0563 82.6013 48.2813" fill="#F47924"/>
<path fill-rule="evenodd" clip-rule="evenodd" d="M2.40435 49.2922C4.44372 40.1324 17.1956 37.9266 25.109 45.7999C32.6262 45.2793 41.4829 41.6334 47.6611 50.0888C52.0439 56.0629 48.3308 60.5965 48.3308 60.5965C48.3308 60.5965 63.8524 60.4454 70.2441 53.489C76.6359 46.5325 84.9744 37.191 92.5226 37.5892C96.4793 37.8037 103.145 38.2327 105.823 46.2898C108.501 54.3469 108.349 68.1637 76.94 85.1968C45.5312 102.23 32.231 106.121 26.0834 105.171C18.2616 103.945 18.2006 100.941 9.40532 98.3087C4.90341 96.9608 2.58794 88.5361 8.67502 82.4985C14.7621 76.461 27.9097 70.0619 27.9097 70.0619C27.9097 70.0619 13.5141 79.0379 10.7444 83.1128C7.97472 87.1877 13.7577 90.9247 18.9619 93.192C24.1661 95.4593 30.8924 98.0629 58.4356 84.7366C85.9788 71.4103 91.1835 54.6526 91.1835 54.6526C94.4094 54.6833 93.7401 61.607 93.7401 61.607C93.7401 61.607 98.6097 54.1934 94.4404 48.679C89.4188 42.0327 82.2352 48.1886 82.2352 48.1886L82.6004 48.2807C86.5571 47.0552 86.5876 50.3335 86.5876 50.3335C75.2658 62.036 55.818 70.9204 44.3747 73.0955C32.9313 75.2707 27.8792 70.0931 27.8792 70.0931C27.8792 70.0931 16.3743 68.1325 12.6312 66.4779C8.88811 64.8234 -0.365326 61.6992 2.40435 49.2922Z" fill="#FFCF00"/>
<path fill-rule="evenodd" clip-rule="evenodd" d="M38.7138 53.857C36.3093 52.6622 33.8443 55.787 36.9486 57.809C37.2227 59.1569 36.2483 60.4132 34.1474 60.597C40.417 62.9252 41.8171 55.5423 38.7128 53.857" fill="#ECA93E"/>
<path fill-rule="evenodd" clip-rule="evenodd" d="M10.2573 48.4035C12.4488 48.0359 13.6358 51.13 10.6835 51.9572C10.1333 52.9376 10.592 54.1938 12.2342 54.8368C6.72534 55.1127 7.42562 48.9855 10.2558 48.4035" fill="#ECA93E"/>
</g>
<defs>
<clipPath id="clip0_1986_1732">
<rect width="126" height="57" fill="white" transform="matrix(-1 0 0 1 126 0)"/>
</clipPath>
</defs>
</svg>
