<svg width="239" height="249" viewBox="0 0 239 249" fill="none" xmlns="http://www.w3.org/2000/svg">
<g id="Snappy">
<g id="Group 35">
<g id="Group 1532" opacity="0.11">
<path id="Elipse 1062" d="M2.32117 90.6083C3.12634 90.6083 3.77906 91.26 3.77906 92.064C3.77906 92.868 3.12634 93.5198 2.32117 93.5198C1.516 93.5198 0.863281 92.868 0.863281 92.064C0.863281 91.26 1.516 90.6083 2.32117 90.6083Z" fill="#EBEFF3"/>
<path id="Elipse 1062_2" d="M16.8993 90.6083C17.7045 90.6083 18.3572 91.26 18.3572 92.064C18.3572 92.868 17.7045 93.5198 16.8993 93.5198C16.0941 93.5198 15.4414 92.868 15.4414 92.064C15.4414 91.26 16.0941 90.6083 16.8993 90.6083Z" fill="#EBEFF3"/>
<path id="Elipse 1062_3" d="M31.4794 90.6083C32.2845 90.6083 32.9373 91.26 32.9373 92.064C32.9373 92.868 32.2845 93.5198 31.4794 93.5198C30.6742 93.5198 30.0215 92.868 30.0215 92.064C30.0215 91.26 30.6742 90.6083 31.4794 90.6083Z" fill="#EBEFF3"/>
<path id="Elipse 1062_4" d="M46.0575 90.6083C46.8627 90.6083 47.5154 91.26 47.5154 92.064C47.5154 92.868 46.8627 93.5198 46.0575 93.5198C45.2523 93.5198 44.5996 92.868 44.5996 92.064C44.5996 91.26 45.2523 90.6083 46.0575 90.6083Z" fill="#EBEFF3"/>
<path id="Elipse 1062_5" d="M60.6376 90.6083C61.4427 90.6083 62.0955 91.26 62.0955 92.064C62.0955 92.868 61.4427 93.5198 60.6376 93.5198C59.8324 93.5198 59.1797 92.868 59.1797 92.064C59.1797 91.26 59.8324 90.6083 60.6376 90.6083Z" fill="#EBEFF3"/>
<path id="Elipse 1062_6" d="M75.2177 90.6083C76.0228 90.6083 76.6755 91.26 76.6755 92.064C76.6755 92.868 76.0228 93.5198 75.2177 93.5198C74.4125 93.5198 73.7598 92.868 73.7598 92.064C73.7598 91.26 74.4125 90.6083 75.2177 90.6083Z" fill="#EBEFF3"/>
<path id="Elipse 1062_7" d="M89.7958 90.6083C90.6009 90.6083 91.2537 91.26 91.2537 92.064C91.2537 92.868 90.6009 93.5198 89.7958 93.5198C88.9906 93.5198 88.3379 92.868 88.3379 92.064C88.3379 91.26 88.9906 90.6083 89.7958 90.6083Z" fill="#EBEFF3"/>
<path id="Elipse 1062_8" d="M2.32117 76.0392C3.12634 76.0392 3.77906 76.6908 3.77906 77.4946C3.77906 78.2984 3.12634 78.95 2.32117 78.95C1.516 78.95 0.863281 78.2984 0.863281 77.4946C0.863281 76.6908 1.516 76.0392 2.32117 76.0392Z" fill="#EBEFF3"/>
<path id="Elipse 1062_9" d="M16.8993 76.042C17.7045 76.042 18.3572 76.6932 18.3572 77.4964C18.3572 78.2997 17.7045 78.9509 16.8993 78.9509C16.0941 78.9509 15.4414 78.2997 15.4414 77.4964C15.4414 76.6932 16.0941 76.042 16.8993 76.042Z" fill="#EBEFF3"/>
<path id="Elipse 1062_10" d="M31.4794 76.042C32.2845 76.042 32.9373 76.6932 32.9373 77.4964C32.9373 78.2997 32.2845 78.9509 31.4794 78.9509C30.6742 78.9509 30.0215 78.2997 30.0215 77.4964C30.0215 76.6932 30.6742 76.042 31.4794 76.042Z" fill="#EBEFF3"/>
<path id="Elipse 1062_11" d="M46.0575 76.042C46.8627 76.042 47.5154 76.6932 47.5154 77.4964C47.5154 78.2997 46.8627 78.9509 46.0575 78.9509C45.2523 78.9509 44.5996 78.2997 44.5996 77.4964C44.5996 76.6932 45.2523 76.042 46.0575 76.042Z" fill="#EBEFF3"/>
<path id="Elipse 1062_12" d="M60.6376 76.042C61.4427 76.042 62.0955 76.6932 62.0955 77.4964C62.0955 78.2997 61.4427 78.9509 60.6376 78.9509C59.8324 78.9509 59.1797 78.2997 59.1797 77.4964C59.1797 76.6932 59.8324 76.042 60.6376 76.042Z" fill="#EBEFF3"/>
<path id="Elipse 1062_13" d="M75.2177 76.042C76.0228 76.042 76.6755 76.6932 76.6755 77.4964C76.6755 78.2997 76.0228 78.9509 75.2177 78.9509C74.4125 78.9509 73.7598 78.2997 73.7598 77.4964C73.7598 76.6932 74.4125 76.042 75.2177 76.042Z" fill="#EBEFF3"/>
<path id="Elipse 1062_14" d="M89.7958 76.042C90.6009 76.042 91.2537 76.6932 91.2537 77.4964C91.2537 78.2997 90.6009 78.9509 89.7958 78.9509C88.9906 78.9509 88.3379 78.2997 88.3379 77.4964C88.3379 76.6932 88.9906 76.042 89.7958 76.042Z" fill="#EBEFF3"/>
<path id="Elipse 1062_15" d="M2.32117 61.4685C3.12634 61.4685 3.77906 62.1201 3.77906 62.924C3.77906 63.7278 3.12634 64.3794 2.32117 64.3794C1.516 64.3794 0.863281 63.7278 0.863281 62.924C0.863281 62.1201 1.516 61.4685 2.32117 61.4685Z" fill="#EBEFF3"/>
<path id="Elipse 1062_16" d="M16.8993 61.4685C17.7045 61.4685 18.3572 62.1201 18.3572 62.924C18.3572 63.7278 17.7045 64.3794 16.8993 64.3794C16.0941 64.3794 15.4414 63.7278 15.4414 62.924C15.4414 62.1201 16.0941 61.4685 16.8993 61.4685Z" fill="#EBEFF3"/>
<path id="Elipse 1062_17" d="M31.4794 61.4685C32.2845 61.4685 32.9373 62.1201 32.9373 62.924C32.9373 63.7278 32.2845 64.3794 31.4794 64.3794C30.6742 64.3794 30.0215 63.7278 30.0215 62.924C30.0215 62.1201 30.6742 61.4685 31.4794 61.4685Z" fill="#EBEFF3"/>
<path id="Elipse 1062_18" d="M46.0575 61.4685C46.8627 61.4685 47.5154 62.1201 47.5154 62.924C47.5154 63.7278 46.8627 64.3794 46.0575 64.3794C45.2523 64.3794 44.5996 63.7278 44.5996 62.924C44.5996 62.1201 45.2523 61.4685 46.0575 61.4685Z" fill="#EBEFF3"/>
<path id="Elipse 1062_19" d="M60.6376 61.4685C61.4427 61.4685 62.0955 62.1201 62.0955 62.924C62.0955 63.7278 61.4427 64.3794 60.6376 64.3794C59.8324 64.3794 59.1797 63.7278 59.1797 62.924C59.1797 62.1201 59.8324 61.4685 60.6376 61.4685Z" fill="#EBEFF3"/>
<path id="Elipse 1062_20" d="M75.2177 61.4685C76.0228 61.4685 76.6755 62.1201 76.6755 62.924C76.6755 63.7278 76.0228 64.3794 75.2177 64.3794C74.4125 64.3794 73.7598 63.7278 73.7598 62.924C73.7598 62.1201 74.4125 61.4685 75.2177 61.4685Z" fill="#EBEFF3"/>
<path id="Elipse 1062_21" d="M89.7958 61.4685C90.6009 61.4685 91.2537 62.1201 91.2537 62.924C91.2537 63.7278 90.6009 64.3794 89.7958 64.3794C88.9906 64.3794 88.3379 63.7278 88.3379 62.924C88.3379 62.1201 88.9906 61.4685 89.7958 61.4685Z" fill="#EBEFF3"/>
<path id="Elipse 1062_22" d="M2.32117 46.9C3.12634 46.9 3.77906 47.5513 3.77906 48.3548C3.77906 49.1583 3.12634 49.8097 2.32117 49.8097C1.516 49.8097 0.863281 49.1583 0.863281 48.3548C0.863281 47.5513 1.516 46.9 2.32117 46.9Z" fill="#EBEFF3"/>
<path id="Elipse 1062_23" d="M16.8993 46.9C17.7045 46.9 18.3572 47.5513 18.3572 48.3548C18.3572 49.1583 17.7045 49.8097 16.8993 49.8097C16.0941 49.8097 15.4414 49.1583 15.4414 48.3548C15.4414 47.5513 16.0941 46.9 16.8993 46.9Z" fill="#EBEFF3"/>
<path id="Elipse 1062_24" d="M31.4794 46.9C32.2845 46.9 32.9373 47.5513 32.9373 48.3548C32.9373 49.1583 32.2845 49.8097 31.4794 49.8097C30.6742 49.8097 30.0215 49.1583 30.0215 48.3548C30.0215 47.5513 30.6742 46.9 31.4794 46.9Z" fill="#EBEFF3"/>
<path id="Elipse 1062_25" d="M46.0575 46.9C46.8627 46.9 47.5154 47.5513 47.5154 48.3548C47.5154 49.1583 46.8627 49.8097 46.0575 49.8097C45.2523 49.8097 44.5996 49.1583 44.5996 48.3548C44.5996 47.5513 45.2523 46.9 46.0575 46.9Z" fill="#EBEFF3"/>
<path id="Elipse 1062_26" d="M60.6376 46.9C61.4427 46.9 62.0955 47.5513 62.0955 48.3548C62.0955 49.1583 61.4427 49.8097 60.6376 49.8097C59.8324 49.8097 59.1797 49.1583 59.1797 48.3548C59.1797 47.5513 59.8324 46.9 60.6376 46.9Z" fill="#EBEFF3"/>
<path id="Elipse 1062_27" d="M75.2177 46.9C76.0228 46.9 76.6755 47.5513 76.6755 48.3548C76.6755 49.1583 76.0228 49.8097 75.2177 49.8097C74.4125 49.8097 73.7598 49.1583 73.7598 48.3548C73.7598 47.5513 74.4125 46.9 75.2177 46.9Z" fill="#EBEFF3"/>
<path id="Elipse 1062_28" d="M89.7958 46.9C90.6009 46.9 91.2537 47.5513 91.2537 48.3548C91.2537 49.1583 90.6009 49.8097 89.7958 49.8097C88.9906 49.8097 88.3379 49.1583 88.3379 48.3548C88.3379 47.5513 88.9906 46.9 89.7958 46.9Z" fill="#EBEFF3"/>
<path id="Elipse 1062_29" d="M2.32117 32.33C3.12634 32.33 3.77906 32.9814 3.77906 33.7849C3.77906 34.5885 3.12634 35.2399 2.32117 35.2399C1.516 35.2399 0.863281 34.5885 0.863281 33.7849C0.863281 32.9814 1.516 32.33 2.32117 32.33Z" fill="#EBEFF3"/>
<path id="Elipse 1062_30" d="M16.8993 32.33C17.7045 32.33 18.3572 32.9814 18.3572 33.7849C18.3572 34.5885 17.7045 35.2399 16.8993 35.2399C16.0941 35.2399 15.4414 34.5885 15.4414 33.7849C15.4414 32.9814 16.0941 32.33 16.8993 32.33Z" fill="#EBEFF3"/>
<path id="Elipse 1062_31" d="M31.4794 32.33C32.2845 32.33 32.9373 32.9814 32.9373 33.7849C32.9373 34.5885 32.2845 35.2399 31.4794 35.2399C30.6742 35.2399 30.0215 34.5885 30.0215 33.7849C30.0215 32.9814 30.6742 32.33 31.4794 32.33Z" fill="#EBEFF3"/>
<path id="Elipse 1062_32" d="M46.0575 32.33C46.8627 32.33 47.5154 32.9814 47.5154 33.7849C47.5154 34.5885 46.8627 35.2399 46.0575 35.2399C45.2523 35.2399 44.5996 34.5885 44.5996 33.7849C44.5996 32.9814 45.2523 32.33 46.0575 32.33Z" fill="#EBEFF3"/>
<path id="Elipse 1062_33" d="M60.6376 32.33C61.4427 32.33 62.0955 32.9814 62.0955 33.7849C62.0955 34.5885 61.4427 35.2399 60.6376 35.2399C59.8324 35.2399 59.1797 34.5885 59.1797 33.7849C59.1797 32.9814 59.8324 32.33 60.6376 32.33Z" fill="#EBEFF3"/>
<path id="Elipse 1062_34" d="M75.2177 32.33C76.0228 32.33 76.6755 32.9814 76.6755 33.7849C76.6755 34.5885 76.0228 35.2399 75.2177 35.2399C74.4125 35.2399 73.7598 34.5885 73.7598 33.7849C73.7598 32.9814 74.4125 32.33 75.2177 32.33Z" fill="#EBEFF3"/>
<path id="Elipse 1062_35" d="M89.7958 32.33C90.6009 32.33 91.2537 32.9814 91.2537 33.7849C91.2537 34.5885 90.6009 35.2399 89.7958 35.2399C88.9906 35.2399 88.3379 34.5885 88.3379 33.7849C88.3379 32.9814 88.9906 32.33 89.7958 32.33Z" fill="#EBEFF3"/>
<path id="Elipse 1062_36" d="M2.32117 17.7582C3.12634 17.7582 3.77906 18.4098 3.77906 19.2135C3.77906 20.0173 3.12634 20.6689 2.32117 20.6689C1.516 20.6689 0.863281 20.0173 0.863281 19.2135C0.863281 18.4098 1.516 17.7582 2.32117 17.7582Z" fill="#EBEFF3"/>
<path id="Elipse 1062_37" d="M16.8993 17.7582C17.7045 17.7582 18.3572 18.4098 18.3572 19.2135C18.3572 20.0173 17.7045 20.6689 16.8993 20.6689C16.0941 20.6689 15.4414 20.0173 15.4414 19.2135C15.4414 18.4098 16.0941 17.7582 16.8993 17.7582Z" fill="#EBEFF3"/>
<path id="Elipse 1062_38" d="M31.4794 17.7582C32.2845 17.7582 32.9373 18.4098 32.9373 19.2135C32.9373 20.0173 32.2845 20.6689 31.4794 20.6689C30.6742 20.6689 30.0215 20.0173 30.0215 19.2135C30.0215 18.4098 30.6742 17.7582 31.4794 17.7582Z" fill="#EBEFF3"/>
<path id="Elipse 1062_39" d="M46.0575 17.7582C46.8627 17.7582 47.5154 18.4098 47.5154 19.2135C47.5154 20.0173 46.8627 20.6689 46.0575 20.6689C45.2523 20.6689 44.5996 20.0173 44.5996 19.2135C44.5996 18.4098 45.2523 17.7582 46.0575 17.7582Z" fill="#EBEFF3"/>
<path id="Elipse 1062_40" d="M60.6376 17.7582C61.4427 17.7582 62.0955 18.4098 62.0955 19.2135C62.0955 20.0173 61.4427 20.6689 60.6376 20.6689C59.8324 20.6689 59.1797 20.0173 59.1797 19.2135C59.1797 18.4098 59.8324 17.7582 60.6376 17.7582Z" fill="#EBEFF3"/>
<path id="Elipse 1062_41" d="M75.2177 17.7582C76.0228 17.7582 76.6755 18.4098 76.6755 19.2135C76.6755 20.0173 76.0228 20.6689 75.2177 20.6689C74.4125 20.6689 73.7598 20.0173 73.7598 19.2135C73.7598 18.4098 74.4125 17.7582 75.2177 17.7582Z" fill="#EBEFF3"/>
<path id="Elipse 1062_42" d="M89.7958 17.7582C90.6009 17.7582 91.2537 18.4098 91.2537 19.2135C91.2537 20.0173 90.6009 20.6689 89.7958 20.6689C88.9906 20.6689 88.3379 20.0173 88.3379 19.2135C88.3379 18.4098 88.9906 17.7582 89.7958 17.7582Z" fill="#EBEFF3"/>
<path id="Elipse 1062_43" d="M2.32117 3.1876C3.12634 3.1876 3.77906 3.83917 3.77906 4.64293C3.77906 5.44669 3.12634 6.09827 2.32117 6.09827C1.516 6.09827 0.863281 5.44669 0.863281 4.64293C0.863281 3.83917 1.516 3.1876 2.32117 3.1876Z" fill="#EBEFF3"/>
<path id="Elipse 1062_44" d="M16.8993 3.1876C17.7045 3.1876 18.3572 3.83917 18.3572 4.64293C18.3572 5.44669 17.7045 6.09827 16.8993 6.09827C16.0941 6.09827 15.4414 5.44669 15.4414 4.64293C15.4414 3.83917 16.0941 3.1876 16.8993 3.1876Z" fill="#EBEFF3"/>
<path id="Elipse 1062_45" d="M31.4794 3.1876C32.2845 3.1876 32.9373 3.83917 32.9373 4.64293C32.9373 5.44669 32.2845 6.09827 31.4794 6.09827C30.6742 6.09827 30.0215 5.44669 30.0215 4.64293C30.0215 3.83917 30.6742 3.1876 31.4794 3.1876Z" fill="#EBEFF3"/>
<path id="Elipse 1062_46" d="M46.0575 3.1876C46.8627 3.1876 47.5154 3.83917 47.5154 4.64293C47.5154 5.44669 46.8627 6.09827 46.0575 6.09827C45.2523 6.09827 44.5996 5.44669 44.5996 4.64293C44.5996 3.83917 45.2523 3.1876 46.0575 3.1876Z" fill="#EBEFF3"/>
<path id="Elipse 1062_47" d="M60.6376 3.1876C61.4427 3.1876 62.0955 3.83917 62.0955 4.64293C62.0955 5.44669 61.4427 6.09827 60.6376 6.09827C59.8324 6.09827 59.1797 5.44669 59.1797 4.64293C59.1797 3.83917 59.8324 3.1876 60.6376 3.1876Z" fill="#EBEFF3"/>
<path id="Elipse 1062_48" d="M75.2177 3.1876C76.0228 3.1876 76.6755 3.83917 76.6755 4.64293C76.6755 5.44669 76.0228 6.09827 75.2177 6.09827C74.4125 6.09827 73.7598 5.44669 73.7598 4.64293C73.7598 3.83917 74.4125 3.1876 75.2177 3.1876Z" fill="#EBEFF3"/>
<path id="Elipse 1062_49" d="M89.7958 3.1876C90.6009 3.1876 91.2537 3.83917 91.2537 4.64293C91.2537 5.44669 90.6009 6.09827 89.7958 6.09827C88.9906 6.09827 88.3379 5.44669 88.3379 4.64293C88.3379 3.83917 88.9906 3.1876 89.7958 3.1876Z" fill="#EBEFF3"/>
</g>
<path id="Vector 4" d="M50.6933 80.8917C51.5111 83.6941 55.0847 84.5942 54.6133 85.5765C62.3497 92.7118 78.475 107.251 81.0848 108.327C88.6991 102.948 103.999 96.7611 105.691 96.2672C107.731 102.273 109.879 115.537 102.157 120.545C94.0602 125.797 83.8462 128.637 77.297 128.565C75.0859 128.541 73.0706 127.479 71.3667 126.07C66.4372 121.993 63.7779 119.438 57.3808 112.661L40.6657 93.1944L39.5981 92.9991C34.0099 94.6298 27.5643 92.4559 23.0098 88.9699L50.6933 80.8917Z" fill="#2E93EE"/>
<path id="Vector" d="M55.8614 86.351C55.8614 86.351 55.583 87.2382 47.9556 90.6971C40.2833 94.3997 35.0331 94.8513 27.8859 91.7284C27.8859 91.7284 22.8002 90.0492 21.7671 86.5358C21.4797 85.4049 21.7696 83.8663 22.335 83.3485C22.6452 83.0645 23.4986 83.4849 23.4986 83.4849C23.0818 82.7832 22.8405 81.9913 22.7952 81.1764C22.7874 80.4257 22.9343 79.6815 23.2268 78.9901C23.4459 78.6647 24.5275 78.6328 24.8496 78.4873C25.0247 78.4082 25.4483 78.2314 25.4483 78.2314C25.3081 77.6705 25.3078 77.0837 25.4474 76.5227C25.5793 75.8307 25.7904 75.1561 26.0767 74.5125C26.5093 74.3145 26.9629 74.1663 27.429 74.0707C27.719 73.9423 28.0369 73.8899 28.3527 73.9185C28.6686 73.947 28.9719 74.0556 29.2342 74.2339C30.9345 75.4093 32.7484 76.4114 34.6485 77.2252C37.1929 77.3766 39.8364 76.4123 42.2196 75.5082C42.2196 75.5082 39.2257 68.5632 42.3814 67.089C42.8875 66.8068 43.4727 66.7002 44.0458 66.7858C44.1525 66.8094 44.2097 66.5059 45.0812 66.02C46.0813 67.4793 46.5956 69.7286 46.8706 70.2713C48.004 72.5049 48.2941 72.4473 49.2658 73.6285C53.6445 78.9596 55.8614 86.351 55.8614 86.351Z" fill="#2E93EE"/>
<g id="Group" filter="url(#filter0_f_11007_510)">
<path id="Vector_2" d="M137.226 238.772C191.459 238.772 235.424 232.95 235.424 225.769C235.424 218.587 191.459 212.766 137.226 212.766C82.9922 212.766 39.0273 218.587 39.0273 225.769C39.0273 232.95 82.9922 238.772 137.226 238.772Z" fill="black" fill-opacity="0.1"/>
</g>
<g id="Group_2">
<path id="Vector_3" opacity="0.1" d="M105.993 248.541C161.82 248.541 207.077 242.244 207.077 234.477C207.077 226.71 161.82 220.414 105.993 220.414C50.1653 220.414 4.9082 226.71 4.9082 234.477C4.9082 242.244 50.1653 248.541 105.993 248.541Z" fill="white"/>
<g id="Group_3">
<g id="Group_4">
<path id="Vector_4" d="M108.154 165.33C115.335 172.287 121.865 179.096 129.105 185.994C123.431 205.349 133.207 218.157 123.505 222.444C120.895 223.598 114.414 225.887 108.573 226.212C102.973 226.527 97.5832 226.186 92.7551 223.439C90.6147 214.54 95.5077 213.643 104.534 207.157C110.097 195.369 108.096 177.092 108.213 165.33" fill="#3C97FF"/>
<path id="Vector_5" d="M103.545 226.246C104.775 220.894 105.493 217.504 110.359 213.757C107.765 216.255 108.216 221.493 108.413 226.246C107.062 226.305 104.866 226.305 103.545 226.246Z" fill="#24578F"/>
<path id="Vector_6" d="M102.411 213.186C98.8795 216.946 98.9054 221.509 99.5219 225.72C98.1462 225.411 96.2603 225.369 95.0273 224.466C95.0273 224.466 95.6692 216.32 102.411 213.186Z" fill="#24578F"/>
</g>
<path id="Vector_7" d="M179.644 140.529C179.708 142.221 180.231 143.863 181.159 145.279C182.65 147.654 183.517 147.357 179.782 149.382C176.991 150.774 173.99 151.697 170.899 152.114C165.637 152.963 166.87 152.381 169.193 147.506C170.202 145.314 171.404 143.216 172.785 141.236C177.873 134.17 179.441 134.651 179.65 140.547" fill="#3C97FF"/>
<path id="Vector_8" d="M198.232 138.13C200.175 141.767 197.197 142.343 193.36 143.689C191.929 144.189 190.445 144.522 188.938 144.681C184.614 145.153 185.735 144.522 187.629 141.007C188.783 138.85 190.06 136.76 191.453 134.749C199.011 123.83 195.402 132.802 198.238 138.13" fill="#3C97FF"/>
<path id="Vector_9" d="M152.551 31.7226C152.551 31.7226 179.016 45.4521 178.784 49.7953C178.551 54.1385 171.323 53.5541 168.406 59.4317C168.406 59.4317 184.607 70.6971 183.561 75.8601C182.515 81.023 172.133 79.1519 169.457 83.2603C169.457 83.2603 172.016 93.538 169.685 97.2968C167.353 101.056 167.708 97.8151 164.441 102.628C164.441 102.628 166.193 64.2475 152.551 31.735" fill="#3C97FF"/>
<path id="Vector_10" d="M157.694 44.4733C148.335 53.3611 136.366 58.9546 125.579 65.8206C118.198 70.5134 111.482 75.7647 106.218 82.7684C99.7354 91.3986 103.456 101.565 101.997 112.176C101.49 115.779 101.249 119.42 101.098 123.051C100.825 129.67 101.027 136.301 101.701 142.891C103.329 158.669 104.149 171.512 115.334 183.317C129.311 198.081 144.386 199.113 161.824 186.372C168.583 181.43 173.365 180.761 178.798 174.465C182.361 170.326 186.817 167.67 190.67 163.794C195.118 159.305 201.795 153.766 207.807 151.486C214.554 148.923 219.21 152.422 222.52 153.923C224.238 154.703 226.584 156.215 228.483 154.709C228.855 154.448 229.125 154.065 229.245 153.627C229.365 153.189 229.328 152.722 229.141 152.308C228.15 149.938 226.646 147.817 224.739 146.097C214.446 136.734 197.852 136.522 185.437 143.096C180.751 145.586 175.645 148.425 170.241 148.779C166.418 149.031 162.535 148.311 159.568 145.778C157.24 143.641 155.698 140.783 155.19 137.664C154.327 133.313 154.642 128.811 156.101 124.623C158.121 118.622 161.745 113.13 164.084 107.188C172.069 86.9213 174.656 63.834 161.826 44.899L160.045 42.2706L157.694 44.4733Z" fill="#3C97FF"/>
<path id="Vector_11" d="M178.171 177.942C165.805 191.645 136.268 213.073 111.581 180.186C88.3299 149.212 99.2766 105.799 100.631 100.857C100.679 100.688 126.865 70.7738 145.865 66.8821C150.93 71.2803 151.882 79.0179 145.167 92.3625C133.819 114.804 122.714 150.318 142.886 170.419C145.886 173.489 149.651 173.023 153.715 174.407C157.039 175.502 155.28 176.595 163.118 176.116C170.955 175.638 189.627 154.119 205.289 152.757C205.289 152.757 189.332 165.576 178.171 177.942Z" fill="#FFCF00"/>
<path id="Vector_12" d="M179.506 176.225L177.962 177.99C177.736 178.261 177.497 178.532 177.253 178.808C177.626 176.348 177.565 174.005 176.576 172.362C177.641 173.58 178.62 174.871 179.506 176.225Z" fill="#ECA93E"/>
<path id="Vector_13" d="M168.371 186.285C167.104 187.335 165.777 188.357 164.409 189.358C165.352 184.869 165.752 180.239 164.27 177.637C166.199 181.025 167.657 183.8 168.371 186.285Z" fill="#ECA93E"/>
<path id="Vector_14" d="M186.498 168.26C186.53 166.679 186.346 165.102 185.951 163.572C186.989 164.312 187.968 165.131 188.881 166.021C188.091 166.754 187.295 167.504 186.498 168.26Z" fill="#EDB248"/>
<path id="Vector_15" d="M149.022 177.648C145.658 184.846 140.787 191.237 134.739 196.389C132.806 195.933 130.921 195.292 129.109 194.476C134.519 191.962 143.665 186.655 149.033 177.637" fill="#ECA93E"/>
<path id="Vector_16" d="M108.6 175.891C114.369 175.149 124.261 172.875 132.625 165.916C132.625 165.916 126.695 176.468 111.382 179.98C110.393 178.637 109.467 177.276 108.602 175.891" fill="#ECA93E"/>
<path id="Vector_17" d="M126.746 152.883C114.824 149.02 105.274 154.411 100.328 155.955C99.4666 154.498 98.2083 150.213 98.0508 148.903C100.063 148.425 112.357 148.028 113.544 148.674C125.324 155.081 126.764 152.882 126.764 152.882" fill="#ECA93E"/>
<path id="Vector_18" d="M96.8789 120.539C97.0062 119 97.1631 117.527 97.3385 116.123C116.755 115.661 126.765 124.895 126.765 124.895C115.152 118.701 102.839 119.566 96.8789 120.545" fill="#ECA93E"/>
<path id="Vector_19" d="M104.498 95.4114C105.253 94.572 106.099 93.6367 107.023 92.6669C127.649 92.6669 133.214 102.043 133.214 102.043C124.617 96.7701 114.536 94.4422 104.498 95.4114" fill="#ECA93E"/>
<path id="Vector_20" d="M99.479 103.971C99.9731 103.67 100.467 103.368 100.947 103.055C107.51 98.7819 140.281 76.0003 148.752 70.9844C148.929 72.2656 149.724 74.2583 149.606 75.5463C138.213 87.8062 118.843 104.057 98.0508 111.418C98.4486 108.922 98.9247 106.439 99.479 103.971Z" fill="#ECA93E"/>
<g id="Group_5">
<path id="Vector_21" d="M130.924 156.807C125.902 153.032 119.274 150.563 129.503 143.976C129.689 143.858 132.169 142.954 132.349 142.836C143.859 135.199 144.963 126.507 151.127 121.453C163.363 111.423 157.946 133.999 157.957 143.978C159.378 145.689 159.664 146.26 161.656 147.4C152.55 151.107 141.452 156.239 130.924 156.807Z" fill="#24578F"/>
<path id="Vector_22" d="M161.627 111.517C157.957 117.746 151.227 128.975 151.125 129.436C151.125 129.436 148.279 100.067 152.264 94.9352C154.796 91.6718 159.848 106.278 161.625 111.552" fill="#24578F"/>
<path id="Vector_23" d="M155.112 119.742C152.753 121.326 152.265 122.593 147.713 128.866C143.161 135.139 137.469 140.842 124.379 146.544C111.288 152.246 127.224 159.09 127.224 159.09C127.224 159.09 178.845 140.795 178.731 128.011C178.731 126.427 174.298 98.6412 170.479 85.8111C168.442 78.9698 158.051 75.1511 150.989 81.9664C144.868 90.9437 155.112 119.742 155.112 119.742Z" fill="#3C97FF"/>
<path id="Vector_24" d="M134.599 146.192C134.599 146.192 135.409 153.852 127.717 158.321C120.025 162.791 114.594 163.682 106.903 161.003C106.903 161.003 101.473 159.662 100.116 156.087C99.7258 154.932 99.9044 153.307 100.452 152.722C100.752 152.402 101.674 152.771 101.674 152.771C101.184 152.074 100.869 151.269 100.757 150.424C100.689 149.643 100.782 148.856 101.031 148.113C101.233 147.757 102.357 147.637 102.68 147.459C102.856 147.363 103.283 147.145 103.283 147.145C103.092 146.572 103.045 145.961 103.146 145.366C103.227 144.635 103.393 143.916 103.64 143.222C104.074 142.982 104.535 142.791 105.012 142.654C105.304 142.497 105.631 142.417 105.962 142.422C106.293 142.426 106.618 142.515 106.905 142.679C108.77 143.767 110.738 144.665 112.782 145.36C115.443 145.314 118.065 144.705 120.474 143.573C120.474 143.573 116.854 135.975 120.022 134.187C120.526 133.853 121.127 133.695 121.73 133.738C121.843 133.754 121.879 133.433 122.747 132.858C123.905 134.297 123.764 136.773 124.094 137.316C125.453 139.551 126.607 139.293 127.714 140.445C132.7 145.645 134.599 146.192 134.599 146.192Z" fill="#3C97FF"/>
</g>
<g id="Group_6">
<path id="Vector_25" d="M156.032 42.1826C156.032 42.1826 153.907 9.08655 140.442 7.06099C131.58 5.75726 125.906 16.6011 125.906 16.6011C125.906 16.6011 118.72 15.3655 110.028 19.568C110.028 19.568 108.015 14.8281 103.616 15.8207C99.2179 16.8132 93.6551 25.7348 93.7015 41.4202C91.6539 41.5094 89.6531 42.0603 87.8485 43.0317C86.0438 44.0032 84.4822 45.37 83.2802 47.03C83.2802 47.03 84.837 49.9449 87.6185 50.5125C90.4 51.0801 102.968 47.9007 105.95 51.1537C108.933 54.4068 110.144 56.6924 109.187 61.9224C109.187 61.9224 122.631 62.0478 129.44 55.0892C136.248 48.1306 142.878 33.9178 156.033 42.1853" fill="#3C97FF"/>
<path id="Vector_26" d="M99.3771 38.758C99.3771 38.758 108.978 37.4817 113.229 37.9303C117.48 38.3788 126.394 38.1729 126.394 38.1729C126.394 38.1729 138.455 38.0163 141.291 38.3156L145.261 38.7346L137.663 42.7983L97.2576 42.5417L99.3771 38.758Z" fill="#3C97FF"/>
<path id="Vector_27" d="M109.732 39.5999C109.732 39.5999 107.609 27.8623 101.546 24.0343C100.746 29.5152 99.5906 34.9384 98.0878 40.2697C101.951 39.8048 105.84 39.5852 109.731 39.6122" fill="#F1F1F2"/>
<path id="Vector_28" d="M141.098 19.6215C141.098 19.6215 132.437 22.7825 125.165 39.6918C125.165 39.6918 138.354 38.9084 144.003 39.9551C144.003 39.9551 139.794 29.4505 141.098 19.6208" fill="#F1F1F2"/>
<path id="Vector_29" d="M136.007 28.6528C134 28.4411 132.136 30.4991 131.844 33.2612C131.553 36.0234 132.947 38.4252 134.953 38.6369C136.959 38.8486 138.837 36.7858 139.125 34.0593C139.412 31.3328 138.023 28.896 136.016 28.6842" fill="#24578F"/>
<path id="Vector_30" d="M104.846 38.5387C106.371 38.6996 107.788 37.1171 108.011 35.004C108.234 32.8909 107.178 31.0474 105.654 30.8865C104.129 30.7256 102.712 32.3082 102.489 34.4213C102.266 36.5344 103.321 38.3778 104.846 38.5387Z" fill="#24578F"/>
<path id="Vector_31" d="M139.929 49.1878C139.929 49.1878 146.218 43.311 151.088 49.1566C155.128 53.9719 151 60.8988 151 60.8988C151 60.8988 151.339 54.5813 148.377 54.7043C148.377 54.7043 147.949 75.5831 123.346 88.8003C98.7439 102.018 84.6647 100.93 79.82 99.0896C74.9753 97.249 73.6963 87.626 76.0502 83.8118C78.4042 79.9976 91.1879 71.2762 91.1879 71.2762C91.1879 71.2762 96.0255 75.7641 106.379 73.3205C116.733 70.8769 134.149 62.0092 143.994 50.9585C143.994 50.9585 143.835 47.986 140.257 49.2647" fill="#F47924"/>
<path id="Vector_32" d="M141.099 67.3014C134.937 65.1269 128.329 64.5252 121.875 65.5511C115.421 66.5769 109.325 69.1977 104.141 73.1758L106.858 72.0481C106.858 72.0481 95.1276 70.2055 93.3193 71.6759C91.511 73.1463 80.3248 78.891 77.6402 92.5636C76.8567 96.5429 85.7655 102.933 108.105 94.6337C122.006 89.4508 144.425 73.8516 144.425 73.8516" fill="#E05406"/>
<path id="Vector_33" d="M92.1646 71.2643C92.1646 71.2643 93.7881 83.2536 98.3221 82.4083C99.8537 82.1287 99.5935 78.7403 100.444 76.5331C101.295 74.3259 103.421 70.1372 103.421 70.1372L92.1646 71.2643Z" fill="white"/>
<path id="Vector_34" d="M70.7678 64.5396C70.7678 64.5396 70.4304 76.6303 75.0538 76.5514C76.6105 76.5224 76.9074 73.12 78.1 71.0999C79.2927 69.0798 82.0771 65.2676 82.0771 65.2676L70.7678 64.5396Z" fill="white"/>
<path id="Vector_35" d="M67.8818 54.6118C69.4946 44.7644 80.0674 42.5944 87.628 49.3994C94.484 48.6239 102.409 44.9508 108.406 52.3415C112.644 57.5705 109.456 61.8218 109.456 61.8218C109.456 61.8218 123.621 61.0494 129.183 54.4801C134.746 47.9108 141.967 39.1114 148.866 39.1602C152.497 39.1866 158.596 39.3044 161.381 46.4892C164.166 53.6741 164.376 68.4383 136.397 85.1811C108.419 101.924 96.4399 105.99 90.7754 105.381C83.5879 104.622 83.4102 101.889 75.2424 99.8546C71.0707 98.8097 68.6175 91.2969 73.914 85.5814C79.2106 79.8659 91.1734 71.2444 91.1734 71.2444C91.1734 71.2444 78.1441 82.2281 75.7967 86.0449C73.4493 89.8616 78.8642 93.0184 83.7238 94.8301C88.5834 96.6418 94.8185 98.7397 119.421 85.5275C144.024 72.3152 148.362 54.6713 148.362 54.6713C151.325 54.5489 150.985 60.8658 150.985 60.8658C150.985 60.8658 155.114 53.9388 151.073 49.1235C146.2 43.3081 139.915 49.1548 139.915 49.1548L140.25 49.1902C143.825 47.9112 143.987 50.884 143.987 50.884C134.132 61.9355 116.731 70.7986 106.37 73.2352C96.0092 75.6719 91.179 71.1909 91.179 71.1909C91.179 71.1909 80.5943 69.8986 77.1095 68.5577C73.6247 67.2167 66.269 64.4592 67.8818 54.6118Z" fill="#FFCF00"/>
<path id="Vector_36" d="M100.4 56.1209C98.1424 55.127 96.0208 58.0763 98.9496 59.7682C99.258 60.9691 98.4329 62.1331 96.4967 62.4005C102.357 64.2618 103.289 57.5196 100.4 56.1209Z" fill="#ECA93E"/>
<path id="Vector_37" d="M74.1589 52.3787C76.1445 51.9836 77.3526 54.7107 74.6999 55.5731C74.24 56.486 74.7056 57.5866 76.2447 58.1542C71.2149 58.6452 71.6056 53.0465 74.1784 52.4113" fill="#ECA93E"/>
</g>
<g id="Group_7">
<path id="Vector_38" d="M162.657 161.908C161.163 159.714 159.113 157.958 156.716 156.818C154.319 155.678 151.662 155.197 149.018 155.422C133.879 157.395 139.807 175.297 143.428 185.814C145.942 193.377 147.392 201.253 147.736 209.215C147.698 221.693 144.042 224.558 149.836 228.454C157.795 234.085 162.527 234.935 171.924 234.293C177.276 233.494 181.705 232.142 182.316 228.454C183.208 223.08 181.705 220.157 174.208 216.888C172.212 216.018 170.09 213.703 169.12 210.587C165.811 202.022 165.56 194.269 165.859 185.662C166.069 179.685 166.577 167.73 162.658 161.753" fill="#3C97FF"/>
<path id="Vector_39" d="M170.328 234.34C169.102 234.649 166.956 234.34 166.037 234.34C166.956 229.074 167.569 221.64 165.424 218.542C169.408 221.64 171.248 229.693 170.328 234.34Z" fill="#24578F"/>
<path id="Vector_40" d="M172.846 219.68C177.501 222.529 180.796 226.378 181.407 230.639C180.486 231.726 178.961 232.161 177.738 232.771C177.738 232.771 178.961 226.986 172.846 219.68Z" fill="#24578F"/>
</g>
</g>
</g>
</g>
</g>
<defs>
<filter id="filter0_f_11007_510" x="35.6531" y="209.391" width="203.145" height="32.755" filterUnits="userSpaceOnUse" color-interpolation-filters="sRGB">
<feFlood flood-opacity="0" result="BackgroundImageFix"/>
<feBlend mode="normal" in="SourceGraphic" in2="BackgroundImageFix" result="shape"/>
<feGaussianBlur stdDeviation="1.68714" result="effect1_foregroundBlur_11007_510"/>
</filter>
</defs>
</svg>
