<svg xmlns="http://www.w3.org/2000/svg" xmlns:xlink="http://www.w3.org/1999/xlink" width="227.296" height="256.063" viewBox="0 0 227.296 256.063">
  <defs>
    <clipPath id="clip-path">
      <rect id="Ret칙ngulo_15862" data-name="Ret칙ngulo 15862" width="227.296" height="237.631" transform="translate(0 0)" fill="#fff" stroke="#707070" stroke-width="1"/>
    </clipPath>
    <filter id="email" x="-3.14" y="35.075" width="74.514" height="73.819" filterUnits="userSpaceOnUse">
      <feOffset input="SourceAlpha"/>
      <feGaussianBlur stdDeviation="1.5" result="blur"/>
      <feFlood flood-color="#2e578b" flood-opacity="0.169"/>
      <feComposite operator="in" in2="blur"/>
      <feComposite in="SourceGraphic"/>
    </filter>
    <linearGradient id="linear-gradient" x1="0.5" y1="1" x2="0.534" y2="-0.431" gradientUnits="objectBoundingBox">
      <stop offset="0" stop-color="#d8e7f6"/>
      <stop offset="1" stop-color="#7cb3ec"/>
    </linearGradient>
  </defs>
  <g id="Snappy_Mail" transform="translate(-1026.801 -251)">
    <ellipse id="Elipse_1064" data-name="Elipse 1064" cx="77.448" cy="16.536" rx="77.448" ry="16.536" transform="translate(1088.383 464.682) rotate(-1)" fill="#2e578b" opacity="0.05"/>
    <g id="Grupo_de_m치scara_13" data-name="Grupo de m치scara 13" transform="translate(1026.801 251)" clip-path="url(#clip-path)">
      <g id="Snappy-Default" transform="translate(-11.643 0.479)" style="mix-blend-mode: normal;isolation: isolate">
        <g id="Back_Leg" data-name="Back Leg" transform="translate(95.366 173.648)">
          <path id="Caminho_247742" data-name="Caminho 247742" d="M152.67,219.668c6.719,6.5,13.438,15.376,20.157,21.878-3.224,16.955,3.088,24.423-4.52,30.5-2.748,2.193-19.449,6.856-28.806,1.451-.213-8.8,4.6-11.416,9.738-14.72,5.189-11.16,3.327-28.117,3.431-39.11" transform="translate(-139.494 -219.668)" fill="#3c97ff"/>
          <path id="Caminho_247743" data-name="Caminho 247743" d="M157.9,287.917a15.318,15.318,0,0,1,9.465-11.15c-4.546,3.413-6.211,7.172-5.9,11.17C160.276,287.987,159.081,287.985,157.9,287.917Z" transform="translate(-148.573 -231.63)" fill="#24578f"/>
          <path id="Caminho_247744" data-name="Caminho 247744" d="M168.108,285.689a15.283,15.283,0,0,1,9.417-10.964c-4.922,3.7-6.473,7.8-5.784,12.169A18.811,18.811,0,0,1,168.108,285.689Z" transform="translate(-166.805 -231.202)" fill="#24578f"/>
        </g>
        <g id="Grupo_40060" data-name="Grupo 40060" transform="matrix(-0.819, 0.574, -0.574, -0.819, 144.355, 111.945)">
          <path id="arm-2" d="M51.65,18.637c-8.759-2.272-10.346-.909-19.736-4.222,1.514-5.239-3.577-2.819-3.336-4.506.486-3.4.525-7.1-4.325-9.909C21.776.977,13.788,7.884,11.58,9.368c0,0-13.527,11.8-11.341,15.841,1.451,2.685,9.019,11.854,18.039,6.185,2.667-1.676,4.359-.442,7.473,0,0,0,21.757,10.968,28.733,11.21s34.7-25.075,24.353-33.372C74.4,5.676,61.6,2.517,51.65,18.637Z" transform="translate(57.364 87.491) rotate(-135)" fill="#3c97ff"/>
          <g id="Grupo_40059" data-name="Grupo 40059" transform="translate(27.649 66.885)">
            <g id="Grupo_40057" data-name="Grupo 40057" transform="translate(0 0)">
              <rect id="fundo" width="59.842" height="38.232" transform="translate(0 0.105)" fill="#729ac8"/>
              <path id="aba" d="M30.057,21.6,59.842,0H0Z" transform="translate(0 38.244)" fill="#89aed8"/>
              <g transform="matrix(-0.82, -0.57, 0.57, -0.82, 16.58, 101.33)" filter="url(#email)">
                <rect id="email-2" data-name="email" width="48.206" height="45.375" transform="matrix(-0.82, 0.57, -0.57, -0.82, 66.87, 76.74)" fill="#fff"/>
              </g>
              <path id="dentro" d="M0,38.244,29.872,12.984l29.97,25.261V0H0Z" transform="translate(0 0)" fill="url(#linear-gradient)"/>
              <path id="fundo-2" data-name="fundo" d="M29.864,24.586,59.842,0H0Z" transform="translate(0 0)" fill="#cce1f8"/>
            </g>
          </g>
          <path id="thumb-2" d="M15.887,15.677c.595-5.933-.568-9.074-1.627-10.313-1.179-1.384-5.46-3.1-8.5-4.271C2.437-.5,1.843-.272.55,1.258a2.267,2.267,0,0,0-.343,2.4C1.1,5.315,7.426,8.237,7.083,10.419S-.281,19.4,5.476,25.937C9.307,30.305,15.241,25.214,15.887,15.677Z" transform="matrix(-0.407, -0.914, 0.914, -0.407, 41.475, 74.093)" fill="#3c97ff"/>
        </g>
        <g id="Body" transform="translate(98.845 26.395)">
          <g id="Tail_Spines" data-name="Tail Spines" transform="translate(74.396 103.626)">
            <path id="Caminho_247747" data-name="Caminho 247747" d="M75.878,177.732a10.029,10.029,0,0,0,1.6,5.07c1.588,2.526,2.508,2.224-1.459,4.393a29.791,29.791,0,0,1-9.433,2.929c-5.587.913-4.28.288-1.815-4.935a43.7,43.7,0,0,1,3.81-6.722c5.4-7.572,7.07-7.058,7.294-.734" transform="translate(-62.659 -166.241)" fill="#3c97ff"/>
            <path id="Caminho_247748" data-name="Caminho 247748" d="M53.37,173.359c2.028,3.782-1.082,4.375-5.1,5.778a20.486,20.486,0,0,1-4.611,1.03c-4.515.488-3.344-.165-1.371-3.818a67.061,67.061,0,0,1,3.993-6.5c7.889-11.349,4.12-2.025,7.085,3.511" transform="translate(-20.352 -164.479)" fill="#3c97ff"/>
            <path id="Caminho_247749" data-name="Caminho 247749" d="M30.222,171.879a21.18,21.18,0,0,0,.094,2.6c.3,3.149.65,2.617-3.247,2.964a22.672,22.672,0,0,1-5.2-.052c-4.971-.746-3.158-2.479-.57-5.368a21.835,21.835,0,0,1,2.935-2.726c9.82-7.567,6.118-2.244,5.986,2.577" transform="translate(19.881 -164.696)" fill="#3c97ff"/>
          </g>
          <path id="Caminho_247750" data-name="Caminho 247750" d="M.127,129.887c.156-3.85.415-7.715.946-11.532,1.558-11.223-2.365-22,4.468-31.156C11.1,79.747,18.185,74.177,25.966,69.207,37.012,62.148,49.18,56.349,58.9,47.414A134.733,134.733,0,0,0,53.913,33.39S82.047,47.895,81.8,52.482C81.561,56.9,74.442,56.507,71.145,62c.112.381.224.763.328,1.145,3.22,2.306,16.388,12.067,15.408,16.859-.987,4.826-9.732,3.832-13.71,6.544q-.23,2.337-.6,4.67c.6,3.531,1.14,8.884-.445,11.421-1.51,2.417-1.962,2.094-2.87,2.621q-1.238,3.962-2.753,7.822c-2.466,6.3-6.287,12.1-8.413,18.488a26.515,26.515,0,0,0-.963,13.825,14.823,14.823,0,0,0,4.615,8.608c3.129,2.705,7.221,3.463,11.25,3.2,5.7-.376,11.08-3.383,16.023-6.024,13.087-6.986,30.583-6.761,41.435,3.164a18.445,18.445,0,0,1,4.636,6.59,2.072,2.072,0,0,1-.689,2.516c-2.007,1.6-4.475,0-6.287-.83-3.491-1.594-8.4-5.3-15.513-2.586-6.337,2.422-13.375,8.3-18.067,13.05-4.061,4.112-8.756,6.929-12.515,11.314-5.726,6.681-10.452,9.843-17.577,15.079-18.386,13.512-34.592,9.963-49.33-5.69C3.324,181.269,2.458,167.655.74,150.921A148.249,148.249,0,0,1,.127,129.887Z" transform="translate(4.831 -33.39)" fill="#3c97ff"/>
          <g id="Grupo_40061" data-name="Grupo 40061" transform="translate(0 39.279)">
            <path id="Caminho_247751" data-name="Caminho 247751" d="M146.725,171.4c-9.483,4.743-19.547,15.364-29.241,26.877-12.645,15.02-44.256,37.154-70.335,2.372-24.564-32.761-13-78.676-11.571-83.9.054-.176.109-.353.164-.53.828-1.064,22.732-29.022,42.8-33.136,5.35,4.649,6.39,12.833-.736,26.945-11.987,23.736-21.57,58.352-.263,79.616A28.918,28.918,0,0,0,88.89,196.8c15.151,5,23.172-4.194,32.646-13.058A45.782,45.782,0,0,1,146.725,171.4Z" transform="translate(-31.617 -83.078)" fill="#ffcf00"/>
            <path id="Caminho_247752" data-name="Caminho 247752" d="M129.3,223.692c6.08-.775,16.5-3.134,25.31-10.353,0,0-6.25,10.953-22.38,14.6C131.186,226.544,130.215,225.127,129.3,223.692Z" transform="translate(-116.698 -110.367)" fill="#eca93e"/>
            <path id="Caminho_247753" data-name="Caminho 247753" d="M128.681,229.1a58.756,58.756,0,0,1-15.272,19.826A33.159,33.159,0,0,1,107.4,246.9C113.175,244.243,122.946,238.625,128.681,229.1Z" transform="translate(-73.461 -113.669)" fill="#eca93e"/>
            <path id="Caminho_247754" data-name="Caminho 247754" d="M69.61,225.433q-.781.909-1.558,1.828c-.234.278-.477.56-.724.842.375-2.519.321-4.968-.682-6.668A35.47,35.47,0,0,1,69.61,225.433Z" transform="translate(17.816 -112.063)" fill="#eca93e"/>
            <path id="Caminho_247755" data-name="Caminho 247755" d="M83.494,237.967c-1.092.892-2.234,1.766-3.417,2.613.809-3.8,1.155-7.752-.122-9.97A36.369,36.369,0,0,1,83.494,237.967Z" transform="translate(-6.587 -113.986)" fill="#eca93e"/>
            <path id="Caminho_247756" data-name="Caminho 247756" d="M56.833,211.848q-1.213,1.231-2.431,2.507a21.4,21.4,0,0,0-.563-5.254A25.734,25.734,0,0,1,56.833,211.848Z" transform="translate(40.714 -109.48)" fill="#eca93e"/>
            <path id="Caminho_247757" data-name="Caminho 247757" d="M167.975,188.887a50.936,50.936,0,0,0-29.424-.036q-.376-2.053-.661-4.087C157.171,180.24,167.975,188.887,167.975,188.887Z" transform="translate(-136.852 -104.106)" fill="#eca93e"/>
            <path id="Caminho_247758" data-name="Caminho 247758" d="M136.93,150.941c.139-1.654.3-3.239.484-4.748v0c20.419-.5,30.944,9.43,30.944,9.43C156.149,148.956,143.2,149.9,136.93,150.941Z" transform="translate(-136.477 -96.296)" fill="#eca93e"/>
            <path id="Caminho_247759" data-name="Caminho 247759" d="M128.247,117.567c.8-.906,1.686-1.9,2.659-2.95,21.705.006,27.562,10.084,27.562,10.084A48,48,0,0,0,128.247,117.567Z" transform="translate(-119.725 -89.685)" fill="#eca93e"/>
            <path id="Caminho_247760" data-name="Caminho 247760" d="M112.448,136.626a128.6,128.6,0,0,1,2.4-14.578c.523-.315,1.045-.635,1.551-.966,6.937-4.52,37.409-23.02,46.358-28.325a17.986,17.986,0,0,1,.1,4.089C153.366,109.9,132.334,132.119,112.448,136.626Z" transform="translate(-111.696 -85.106)" fill="#eca93e"/>
          </g>
        </g>
        <g id="Front_Leg" data-name="Front Leg" transform="translate(146.552 164.121)">
          <path id="Caminho_247761" data-name="Caminho 247761" d="M91.062,213.739a13.808,13.808,0,0,0-12.581-6.04c-13.956,1.822-9.543,18.336-6.193,28.061a79.238,79.238,0,0,1,3.955,21.683c-.027,9.6-3.665,12.49.8,16.239,3.876,3.252,14.958,7.919,24.361,6.793,7.749-1.754,7.961-17.7-4.389-21.765-3.434-7.447-3.28-15.05-3.012-23,.179-5.377.649-16.668-2.944-21.974" transform="translate(-68.878 -207.616)" fill="#3c97ff"/>
          <path id="Caminho_247762" data-name="Caminho 247762" d="M92.175,296.012c-1.1-.154-2.191-.36-3.263-.606A14.217,14.217,0,0,0,85.061,282.5C90.113,285.39,91.782,290.318,92.175,296.012Z" transform="translate(-67.011 -223.304)" fill="#24578f"/>
          <path id="Caminho_247763" data-name="Caminho 247763" d="M75.174,295.926a16.284,16.284,0,0,0-3.741-14.376c4.706,2.694,6.476,7.153,7.016,12.354A6.3,6.3,0,0,1,75.174,295.926Z" transform="translate(-42.515 -223.105)" fill="#24578f"/>
        </g>
        <g id="Front_Arm" data-name="Front Arm" transform="translate(147.312 77.258)">
          <path id="Caminho_247764" data-name="Caminho 247764" d="M109.148,185.2s1.611,9.236-4.648,12.336c-5.3,2.624-11.805,2.7-15.059-1.209-4.493-5.394-11.155-16.531,6.879-27.379,11.139-6.7,11.713,16.065,11.713,16.065Z" transform="translate(-84.432 -112.394)" fill="#24578f"/>
          <path id="Caminho_247765" data-name="Caminho 247765" d="M103.376,130.56c-2.353,5.1-4.467,9.041-4.572,9.394,0,0-14.565-18.042-11.85-21.025C89.957,115.629,101.1,126.566,103.376,130.56Z" transform="translate(-80.201 -102.045)" fill="#24578f"/>
          <path id="Caminho_247766" data-name="Caminho 247766" d="M54.1,99.839C38.484,114.9,70.926,134.895,70.926,134.895c-3.533,2.232-7.995,9.856-11.341,15.435s-4.648,4.649-8.738,9.3,7.57,11.55,7.57,11.55,39.033-21.1,38.909-34.61c-.015-1.673-9.061-16.711-18.22-26.036C74.507,105.849,61.57,92.635,54.1,99.839Z" transform="translate(-45.096 -97.733)" fill="#3c97ff"/>
          <path id="Caminho_247767" data-name="Caminho 247767" d="M105.61,179.443s2.915,14.377-5.669,18.563c0,0-6.961.461-10.5-2.077,0,0-8.806-13.51-2.237-20.515S105.61,179.443,105.61,179.443Z" transform="translate(-81.453 -113.519)" fill="#3c97ff"/>
          <path id="Caminho_247768" data-name="Caminho 247768" d="M98.273,182.422s-11.291,6.055-13.252,6.608a10.566,10.566,0,0,0,5.769-.866s2.9,5.5-.462,8.945c0,0,5.187-.925,3.328-9.572l4.71-4.866Z" transform="translate(-73.93 -115.475)" fill="#2e578c"/>
        </g>
        <g id="Head" transform="translate(69.309 0)">
          <path id="Caminho_247769" data-name="Caminho 247769" d="M173.749,35.238S167.879.6,153.5.01c-9.449-.391-14.207,11.658-14.207,11.658s-7.656-.511-16.333,4.851c0,0-2.637-4.765-7.146-3.234s-9.358,11.573-7.571,28.081a14.333,14.333,0,0,0-10.293,7.063s1.957,2.893,4.934,3.149,15.823-4.425,19.311-1.362,5.019,5.361,4.594,10.978c0,0,14.122-1.362,20.5-9.446S159.031,28.005,173.749,35.238Z" transform="translate(-81.528 0)" fill="#3c97ff"/>
          <path id="Caminho_247770" data-name="Caminho 247770" d="M171.947,43.8s-3.532-11.623-10.318-14.877a125.511,125.511,0,0,1-1.828,16.8A101.737,101.737,0,0,1,171.947,43.8Z" transform="translate(-128.605 -6.059)" fill="#f1f1f2"/>
          <path id="Caminho_247771" data-name="Caminho 247771" d="M128.741,17.588S120,21.773,114.24,39.9c0,0,13.757-2.232,19.8-1.767C134.04,38.138,128.463,27.816,128.741,17.588Z" transform="translate(-54.692 -3.685)" fill="#f1f1f2"/>
          <path id="Caminho_247772" data-name="Caminho 247772" d="M124.509,27.758c-2.13,0-3.858,2.379-3.858,5.315s1.728,5.315,3.858,5.315,3.857-2.379,3.857-5.315-1.728-5.315-3.857-5.315" transform="translate(-54.085 -5.815)" fill="#24578f"/>
          <path id="Caminho_247773" data-name="Caminho 247773" d="M165.966,43.5c-1.678,0-3.038-1.8-3.038-4.024s1.36-4.023,3.038-4.023a2.36,2.36,0,0,1,.932.213,10.8,10.8,0,0,1,2.086,3.519c.006.1.022.191.022.291C169.005,41.7,167.644,43.5,165.966,43.5Z" transform="translate(-128.135 -7.427)" fill="#24578f"/>
          <path id="Caminho_247774" data-name="Caminho 247774" d="M114.967,81.7s-11.248-.186-15.06-1.209-13.12-2.611-12.27-14.785c.627-8.982,12.481-12.934,21.174-6.61,7.113-1.581,15.015-6.324,22.128.79,5.032,5.033,2.154,9.88,2.154,9.88s14.781-2.387,19.893-9.918S164.7,42.247,171.951,41.534c3.809-.375,10.225-.93,13.944,6.323s5.578,20.363-21.938,41.1S124.3,115.278,118.314,115.27c-7.654-.011-8.119-2.857-16.918-4.092-4.494-.63-7.9-8.275-2.975-14.877S114.967,81.7,114.967,81.7Z" transform="translate(-87.583 -8.661)" fill="#ffcf00"/>
          <path id="Caminho_247775" data-name="Caminho 247775" d="M164.009,55.247s5.949-6.881,11.713-1.3c4.771,4.618,1.208,12.367,1.208,12.367s-.344-6.684-3.439-6.23c0,0-2.6,16.645-26.958,33.289s-31.14,15.156-36.439,13.761-11.341-4.091-9.3-8.368,14.5-14.877,14.5-14.877,5.578,4.184,16.175.465,27.888-14.971,37-27.71c0,0-.491-3.111-4.1-1.369" transform="translate(-87.915 -10.844)" fill="#f47924"/>
          <g id="Grupo_40062" data-name="Grupo 40062" transform="translate(51.423 66.187)">
            <path id="Caminho_247776" data-name="Caminho 247776" d="M149.436,83.728c-.166.085-.339.17-.523.255C149.088,83.9,149.261,83.811,149.436,83.728Z" transform="translate(-148.913 -83.728)" fill="#c56428"/>
          </g>
          <path id="Caminho_247777" data-name="Caminho 247777" d="M126.94,90.354c2.331.992,7.267,2.22,14.624-.363A82.239,82.239,0,0,0,161.017,79.23a41.166,41.166,0,0,1,15.9.477c-3.993,5.673-10.316,12.488-20.29,19.3-24.355,16.644-31.14,15.156-36.439,13.761a29.869,29.869,0,0,1-5.387-1.92C116.257,98.207,124.158,92.582,126.94,90.354Z" transform="translate(-98.006 -16.485)" fill="#e05406"/>
          <path id="Caminho_247778" data-name="Caminho 247778" d="M170.744,70.931c-2.473-.8-4.377,2.538-1.114,4,.458,1.228-.279,2.572-2.282,3.047,6.332,1.306,6.585-5.893,3.4-7.045" transform="translate(-135.372 -14.834)" fill="#eca93e"/>
          <path id="Caminho_247779" data-name="Caminho 247779" d="M203.363,69.64c2.041-.658,3.612,2.094.919,3.3-.379,1.013.231,2.123,1.884,2.515-5.225,1.077-5.435-4.862-2.8-5.813" transform="translate(-195.943 -14.569)" fill="#eca93e"/>
          <path id="Caminho_247780" data-name="Caminho 247780" d="M173.321,103.519c-3.967,1.168-6.75-7.585-7.508-10.285a17.33,17.33,0,0,0,9.976,1.046c-.348,1.02-.676,2.039-.887,2.824C174.25,99.522,174.9,103.054,173.321,103.519Z" transform="translate(-137.198 -19.532)" fill="#ebeef2"/>
          <path id="Caminho_247781" data-name="Caminho 247781" d="M203.109,90.177a19.665,19.665,0,0,0,2.337.43c-.4.754-.763,1.483-1.031,2.075-1.034,2.281-.963,5.873-2.6,6.076-4.026.5-5.383-8.233-5.726-11.2A23.958,23.958,0,0,0,203.109,90.177Z" transform="translate(-190.784 -18.344)" fill="#ebeef2"/>
        </g>
      </g>
    </g>
  </g>
</svg>
