<svg xmlns="http://www.w3.org/2000/svg" xmlns:xlink="http://www.w3.org/1999/xlink" width="90" height="40.449" viewBox="0 0 90 40.449">
  <defs>
    <clipPath id="clip-path">
      <rect id="Retângulo_15735" data-name="Retângulo 15735" width="90" height="40.449" fill="none"/>
    </clipPath>
  </defs>
  <g id="snappy-hero" clip-path="url(#clip-path)">
    <g id="Grupo_39728" data-name="Grupo 39728" transform="translate(1.285 1.132)">
      <path id="Caminho_247566" data-name="Caminho 247566" d="M90.47,125.551S71.5,139.291,72.193,142.618s6.245,2.019,9.2,6.207c0,0-11.28,10.622-9.856,14.487s9.272,1.187,11.84,4.043c0,0-.785,8.244,1.47,10.87s1.6.167,4.7,3.5C89.554,181.724,83.683,152.281,90.47,125.551Z" transform="translate(-71.414 -104.294)" fill="#3c97ff"/>
      <g id="Grupo_39727" data-name="Grupo 39727" transform="translate(12.385 0)">
        <path id="Caminho_247567" data-name="Caminho 247567" d="M150.332,55.931s.44-25.982,10.89-28.018c6.87-1.338,11.692,6.944,11.692,6.944A22.334,22.334,0,0,1,185.4,36.586s1.4-3.778,4.868-3.16,8.133,7.422,8.663,19.694a10.606,10.606,0,0,1,8.316,4.02,5.637,5.637,0,0,1-3.259,2.852c-2.149.518-12.068-1.475-14.279,1.153s-3.075,4.479-2.139,8.54c0,0-10.482.576-16.05-4.626S160.293,49,150.332,55.931Z" transform="translate(-145.561 -27.766)" fill="#3c97ff"/>
        <path id="Caminho_247568" data-name="Caminho 247568" d="M316.094,97.4s1.29-8.894,5.893-12.03a92.712,92.712,0,0,0,3.206,12.082,75.291,75.291,0,0,0-9.1-.053Z" transform="translate(-275.288 -72.85)" fill="#f1f1f2"/>
        <path id="Caminho_247569" data-name="Caminho 247569" d="M194.838,76.245s6.858,2.088,13.092,14.707c0,0-10.313-.1-14.681.912C193.248,91.864,196.18,83.694,194.838,76.245Z" transform="translate(-179.147 -65.706)" fill="#f1f1f2"/>
        <path id="Caminho_247570" data-name="Caminho 247570" d="M208.623,101.344c1.558-.237,3.087,1.31,3.414,3.457s-.673,4.08-2.231,4.316-3.086-1.311-3.413-3.457.672-4.08,2.23-4.316" transform="translate(-189.386 -85.331)" fill="#2e578c"/>
        <path id="Caminho_247571" data-name="Caminho 247571" d="M324.11,111.022c1.228-.187,2.022-1.655,1.775-3.281s-1.443-2.79-2.67-2.6a1.741,1.741,0,0,0-.658.259,7.981,7.981,0,0,0-1.134,2.806c.007.072.005.143.016.215C321.686,110.043,322.882,111.208,324.11,111.022Z" transform="translate(-279.457 -88.301)" fill="#2e578c"/>
        <path id="Caminho_247572" data-name="Caminho 247572" d="M173.577,173.266s-5.118-4.369-8.713.351c-2.976,3.908.492,9.18.492,9.18s-.492-4.927,1.823-4.939c0,0,3.756,11.883,23.425,21.345s24.468,7.618,28.189,6.009,7.841-4.255,5.869-7.155S212.4,188.79,212.4,188.79s-3.615,3.681-11.781,2.14-22.067-7.846-30.147-16.148c0,0,.013-2.329,2.85-1.458" transform="translate(-155.989 -140.194)" fill="#f47924"/>
        <path id="Caminho_247573" data-name="Caminho 247573" d="M208.032,237.137a30.592,30.592,0,0,1,29.072,3.277l-2.16-.784s9.09-1.846,10.551-.77,9.337,4.053,11.924,14.653c.754,3.088-6.4,5.982-24.123.284C222.245,250.245,208.032,237.137,208.032,237.137Z" transform="translate(-190.718 -189.854)" fill="#f26a23"/>
        <g id="Grupo_39726" data-name="Grupo 39726" transform="translate(37.678 46.316)">
          <path id="Caminho_247574" data-name="Caminho 247574" d="M301.7,240.82c.131.044.267.087.411.129C301.974,240.9,301.837,240.861,301.7,240.82Z" transform="translate(-301.7 -240.82)" fill="#c56428"/>
        </g>
        <path id="Caminho_247575" data-name="Caminho 247575" d="M352.558,249.843s-.835,9.437-4.413,8.951c-1.208-.164-1.125-2.82-1.87-4.516s-2.555-4.9-2.555-4.9Z" transform="translate(-296.909 -201.202)" fill="#ebeef2"/>
        <path id="Caminho_247576" data-name="Caminho 247576" d="M428.365,223.819s.7,9.448-2.907,9.547c-1.219.034-1.566-2.6-2.576-4.154s-3.313-4.421-3.313-4.421Z" transform="translate(-356.268 -181.199)" fill="#ebeef2"/>
        <path id="Caminho_247577" data-name="Caminho 247577" d="M203.013,153.607c-1.458-6.5-10.57-8.07-16.226-2.478-5.379-.365-11.688-2.954-16.1,3.041-3.12,4.241-.477,7.465-.477,7.465s-11.078-.1-15.656-5.04-10.527-11.572-15.911-11.286c-2.828.15-7.584.458-9.5,6.176S127.332,167,149.768,179.1s31.942,14.837,36.319,14.165c5.6-.859,5.622-2.992,11.921-4.875,3.217-.96,4.86-6.932.521-11.212s-13.729-8.835-13.729-8.835,10.293,6.366,12.264,9.265-2.148,5.545-5.869,7.155-8.52,3.453-28.189-6.009-23.425-21.345-23.425-21.345c-2.315.012-1.823,4.939-1.823,4.939s-3.468-5.27-.492-9.18c3.6-4.72,8.714-.349,8.714-.349l-.26.059c-2.836-.871-2.85,1.458-2.85,1.458,8.082,8.3,21.983,14.607,30.149,16.147s11.781-2.14,11.781-2.14,8.208-1.388,10.882-2.56S204.99,162.415,203.013,153.607Z" transform="translate(-128.392 -119.75)" fill="#ffcf00"/>
        <path id="Caminho_247578" data-name="Caminho 247578" d="M348.241,197.7c1.721-.858,3.485,1.37,1.26,2.8-.2.95.49,1.85,2.009,1.975-4.487,1.66-5.473-3.577-3.27-4.774" transform="translate(-299.562 -160.608)" fill="#eca93e"/>
        <path id="Caminho_247579" data-name="Caminho 247579" d="M440.225,180.557c-1.567-.254-2.41,1.934-.306,2.514.39.7.068,1.578-1.1,2.049,3.942.206,3.435-4.161,1.4-4.563" transform="translate(-371.211 -147.326)" fill="#eca93e"/>
      </g>
    </g>
  </g>
</svg>
