<svg xmlns="http://www.w3.org/2000/svg" width="306.228" height="246.926" viewBox="0 0 306.228 246.926">
  <g id="Grupo_40291" data-name="Grupo 40291" transform="translate(-760.772 -253)">
    <path id="Caminho_244510" data-name="Caminho 244510" d="M437.228,0V243.97H131Z" transform="translate(629.772 255.957)" fill="#ebeff3" opacity="0.5"/>
    <g id="Snappy-Default" transform="translate(876.85 253)">
      <g id="Back_Leg" data-name="Back Leg" transform="translate(23.728 147.723)">
        <path id="Caminho_244465" data-name="Caminho 244465" d="M150.7,219.668c5.716,5.532,11.432,13.081,17.148,18.612-2.743,14.424,2.627,20.777-3.846,25.947-2.338,1.865-16.545,5.832-24.505,1.235-.181-7.486,3.916-9.711,8.284-12.522,4.414-9.494,2.83-23.919,2.919-33.271" transform="translate(-139.494 -219.668)" fill="#3c97ff"/>
        <path id="Caminho_244466" data-name="Caminho 244466" d="M157.9,286.253a13.031,13.031,0,0,1,8.052-9.486c-3.867,2.9-5.284,6.1-5.018,9.5C159.921,286.312,158.9,286.31,157.9,286.253Z" transform="translate(-149.965 -238.369)" fill="#24578f"/>
        <path id="Caminho_244467" data-name="Caminho 244467" d="M168.108,284.052a13,13,0,0,1,8.011-9.327c-4.187,3.145-5.507,6.635-4.921,10.352A15.993,15.993,0,0,1,168.108,284.052Z" transform="translate(-167 -237.7)" fill="#24578f"/>
      </g>
      <g id="Back_Arm" data-name="Back Arm" transform="translate(0 69.657)">
        <path id="Caminho_244468" data-name="Caminho 244468" d="M194.319,106.954c2.943,4.284,4.261,13.305-19.225,26.507,0,0,9.873,17.048,12.99,20.166s5.092,11.434,1.975,15.592a37.2,37.2,0,0,1-5.4,6.029s-7.794,1.455-11.119-.416c0,0-6.6-6.393-2.234-16.684,0,0-19.8-20.737-18.55-26.975S184.967,93.337,194.319,106.954Z" transform="translate(-152.695 -103.581)" fill="#3c97ff"/>
        <path id="Caminho_244469" data-name="Caminho 244469" d="M174.455,184.724s8.022,6.613,10.039,7.76a23.479,23.479,0,0,1-4.666-2.017s-3.559,4.351-.949,8.029c0,0-4.784-2.73-1.581-9.058a37.758,37.758,0,0,1-2.939-4.284Z" transform="translate(-155.848 -130.157)" fill="#24578f"/>
      </g>
      <g id="Body" transform="translate(26.687 22.454)">
        <g id="Tail_Spines" data-name="Tail Spines" transform="translate(63.289 88.155)">
          <path id="Caminho_244470" data-name="Caminho 244470" d="M73.9,177.009a8.532,8.532,0,0,0,1.363,4.313c1.351,2.149,2.133,1.892-1.241,3.737A25.343,25.343,0,0,1,66,187.551c-4.752.777-3.641.245-1.544-4.2a37.18,37.18,0,0,1,3.241-5.719c4.6-6.442,6.014-6,6.205-.625" transform="translate(-62.659 -167.233)" fill="#3c97ff"/>
          <path id="Caminho_244471" data-name="Caminho 244471" d="M51.456,172.033c1.725,3.218-.92,3.722-4.335,4.916a17.425,17.425,0,0,1-3.922.876c-3.841.415-2.844-.141-1.166-3.248a57.047,57.047,0,0,1,3.4-5.531c6.712-9.655,3.5-1.723,6.027,2.987" transform="translate(-23.366 -164.479)" fill="#3c97ff"/>
          <path id="Caminho_244472" data-name="Caminho 244472" d="M28.507,170.929a18.018,18.018,0,0,0,.08,2.216c.254,2.679.553,2.226-2.762,2.522a19.281,19.281,0,0,1-4.422-.044c-4.229-.635-2.686-2.109-.485-4.567a18.567,18.567,0,0,1,2.5-2.319c8.354-6.437,5.2-1.909,5.093,2.192" transform="translate(14.116 -164.819)" fill="#3c97ff"/>
        </g>
        <path id="Caminho_244473" data-name="Caminho 244473" d="M.108,115.48c.132-3.275.353-6.563.8-9.81,1.326-9.547-2.012-18.719,3.8-26.5C9.445,72.826,15.47,68.088,22.089,63.86c9.4-6.005,19.749-10.939,28.019-18.539A114.613,114.613,0,0,0,45.863,33.39S69.8,45.729,69.587,49.632c-.2,3.757-6.259,3.424-9.063,8.1.1.324.191.649.279.974C63.542,60.666,74.744,68.97,73.91,73.046c-.84,4.106-8.279,3.26-11.663,5.567q-.2,1.988-.508,3.973c.508,3,.97,7.557-.379,9.716-1.285,2.056-1.669,1.781-2.441,2.23q-1.053,3.37-2.342,6.654c-2.1,5.359-5.349,10.293-7.157,15.727a22.556,22.556,0,0,0-.82,11.761A12.609,12.609,0,0,0,52.527,136c2.662,2.3,6.143,2.946,9.57,2.721,4.847-.319,9.426-2.878,13.631-5.124,11.133-5.943,26.017-5.752,35.249,2.692a15.691,15.691,0,0,1,3.944,5.606,1.762,1.762,0,0,1-.586,2.141c-1.707,1.359-3.807,0-5.348-.706-2.97-1.356-7.147-4.512-13.2-2.2-5.391,2.061-11.378,7.057-15.37,11.1-3.454,3.5-7.449,5.894-10.646,9.625-4.871,5.683-8.892,8.373-14.953,12.828-15.641,11.495-29.427,8.475-41.965-4.841C2.828,159.191,2.091,147.61.629,133.374A126.124,126.124,0,0,1,.108,115.48Z" transform="translate(4.11 -33.39)" fill="#3c97ff"/>
        <g id="Grupo_38038" data-name="Grupo 38038" transform="translate(0 33.414)">
          <path id="Caminho_244474" data-name="Caminho 244474" d="M129.54,158.213c-8.068,4.035-16.629,13.07-24.875,22.865-10.757,12.777-37.649,31.607-59.834,2.017-20.9-27.87-11.058-66.93-9.843-71.378.046-.15.093-.3.14-.451.7-.905,19.338-24.689,36.407-28.189C76.085,87.033,76.97,94,70.908,106c-10.2,20.193-18.35,49.64-.224,67.73a24.6,24.6,0,0,0,9.655,6.093c12.889,4.253,19.712-3.568,27.772-11.108A38.947,38.947,0,0,1,129.54,158.213Z" transform="translate(-31.617 -83.078)" fill="#ffcf00"/>
          <path id="Caminho_244475" data-name="Caminho 244475" d="M129.3,222.147c5.172-.659,14.037-2.666,21.532-8.808,0,0-5.317,9.317-19.039,12.417C130.9,224.572,130.078,223.367,129.3,222.147Z" transform="translate(-118.579 -125.74)" fill="#eca93e"/>
          <path id="Caminho_244476" data-name="Caminho 244476" d="M125.5,229.1a49.984,49.984,0,0,1-12.992,16.866,28.212,28.212,0,0,1-5.114-1.721C112.312,241.982,120.624,237.2,125.5,229.1Z" transform="translate(-78.527 -130.902)" fill="#eca93e"/>
          <path id="Caminho_244477" data-name="Caminho 244477" d="M69.167,224.836q-.665.774-1.325,1.555c-.2.237-.405.476-.616.716.319-2.143.273-4.227-.58-5.672A30.177,30.177,0,0,1,69.167,224.836Z" transform="translate(5.206 -128.392)" fill="#eca93e"/>
          <path id="Caminho_244478" data-name="Caminho 244478" d="M82.966,236.869c-.929.759-1.9,1.5-2.907,2.223.688-3.231.982-6.6-.1-8.481A30.941,30.941,0,0,1,82.966,236.869Z" transform="translate(-17.54 -131.397)" fill="#eca93e"/>
          <path id="Caminho_244479" data-name="Caminho 244479" d="M56.386,211.438q-1.032,1.047-2.068,2.133a18.2,18.2,0,0,0-.479-4.469A21.887,21.887,0,0,1,56.386,211.438Z" transform="translate(26.597 -124.353)" fill="#eca93e"/>
          <path id="Caminho_244480" data-name="Caminho 244480" d="M163.483,188.076a43.332,43.332,0,0,0-25.031-.031q-.32-1.746-.562-3.477C154.293,180.72,163.483,188.076,163.483,188.076Z" transform="translate(-137.007 -115.953)" fill="#eca93e"/>
          <path id="Caminho_244481" data-name="Caminho 244481" d="M136.93,150.229c.118-1.408.258-2.755.411-4.039v0c17.371-.422,26.324,8.022,26.324,8.022C153.28,148.541,142.263,149.344,136.93,150.229Z" transform="translate(-136.545 -103.742)" fill="#eca93e"/>
          <path id="Caminho_244482" data-name="Caminho 244482" d="M128.247,117.127c.677-.771,1.435-1.614,2.262-2.51,18.465,0,23.447,8.578,23.447,8.578A40.83,40.83,0,0,0,128.247,117.127Z" transform="translate(-120.998 -93.407)" fill="#eca93e"/>
          <path id="Caminho_244483" data-name="Caminho 244483" d="M112.448,130.077a109.385,109.385,0,0,1,2.041-12.4c.445-.268.889-.54,1.32-.822,5.9-3.845,31.824-19.583,39.437-24.1a15.3,15.3,0,0,1,.081,3.478C147.257,107.339,129.365,126.243,112.448,130.077Z" transform="translate(-111.808 -86.248)" fill="#eca93e"/>
        </g>
      </g>
      <g id="Front_Leg" data-name="Front Leg" transform="translate(67.272 139.619)">
        <path id="Caminho_244484" data-name="Caminho 244484" d="M87.75,212.825a11.747,11.747,0,0,0-10.7-5.138c-11.872,1.55-8.119,15.6-5.268,23.871A67.409,67.409,0,0,1,75.144,250c-.023,8.165-3.118,10.625.682,13.815,3.3,2.767,12.725,6.736,20.724,5.779,6.592-1.492,6.773-15.055-3.734-18.516-2.921-6.335-2.79-12.8-2.562-19.563.152-4.574.552-14.179-2.5-18.693" transform="translate(-68.878 -207.616)" fill="#3c97ff"/>
        <path id="Caminho_244485" data-name="Caminho 244485" d="M91.113,293.995c-.935-.131-1.864-.306-2.776-.515A12.1,12.1,0,0,0,85.061,282.5C89.359,284.959,90.778,289.15,91.113,293.995Z" transform="translate(-69.706 -232.141)" fill="#24578f"/>
        <path id="Caminho_244486" data-name="Caminho 244486" d="M74.616,293.78a13.853,13.853,0,0,0-3.183-12.23c4,2.292,5.509,6.085,5.969,10.51A5.357,5.357,0,0,1,74.616,293.78Z" transform="translate(-46.832 -231.831)" fill="#24578f"/>
      </g>
      <g id="Front_Arm" data-name="Front Arm" transform="translate(67.918 65.724)">
        <path id="Caminho_244487" data-name="Caminho 244487" d="M105.458,182.588s1.371,7.857-3.954,10.494c-4.508,2.233-10.043,2.294-12.811-1.028-3.822-4.588-9.489-14.063,5.852-23.292,9.476-5.7,9.964,13.667,9.964,13.667Z" transform="translate(-84.432 -120.652)" fill="#24578f"/>
        <path id="Caminho_244488" data-name="Caminho 244488" d="M100.874,128.732c-2,4.336-3.8,7.691-3.889,7.991,0,0-12.39-15.348-10.081-17.886C89.458,116.03,98.941,125.334,100.874,128.732Z" transform="translate(-81.159 -104.475)" fill="#24578f"/>
        <path id="Caminho_244489" data-name="Caminho 244489" d="M53.467,99.525C40.181,112.339,67.78,129.347,67.78,129.347c-3.005,1.9-6.8,8.385-9.647,13.131s-3.954,3.955-7.434,7.91,6.44,9.826,6.44,9.826,33.205-17.947,33.1-29.443c-.013-1.424-7.708-14.216-15.5-22.149C70.826,104.638,59.82,93.4,53.467,99.525Z" transform="translate(-45.806 -97.733)" fill="#3c97ff"/>
        <path id="Caminho_244490" data-name="Caminho 244490" d="M102.5,178.494s2.48,12.231-4.822,15.792c0,0-5.922.392-8.932-1.767,0,0-7.491-11.493-1.9-17.452S102.5,178.494,102.5,178.494Z" transform="translate(-81.948 -122.412)" fill="#3c97ff"/>
        <path id="Caminho_244491" data-name="Caminho 244491" d="M96.295,182.422s-9.605,5.151-11.274,5.621a8.988,8.988,0,0,0,4.908-.737s2.469,4.679-.393,7.61c0,0,4.413-.787,2.831-8.143l4.007-4.14Z" transform="translate(-75.586 -125.47)" fill="#2e578c"/>
      </g>
      <g id="Head" transform="translate(1.561)">
        <path id="Caminho_244492" data-name="Caminho 244492" d="M162.432,29.977S157.438.515,145.208.008c-8.038-.333-12.086,9.917-12.086,9.917a25.667,25.667,0,0,0-13.894,4.126S116.984,10,113.148,11.3s-7.961,9.845-6.441,23.889A12.193,12.193,0,0,0,97.951,41.2a6.477,6.477,0,0,0,4.2,2.679c2.533.217,13.461-3.765,16.428-1.159s4.27,4.561,3.908,9.339c0,0,12.013-1.159,17.441-8.036S149.912,23.824,162.432,29.977Z" transform="translate(-83.98 0)" fill="#3c97ff"/>
        <path id="Caminho_244493" data-name="Caminho 244493" d="M170.133,41.576s-3-9.888-8.778-12.656A106.769,106.769,0,0,1,159.8,43.211,86.546,86.546,0,0,1,170.133,41.576Z" transform="translate(-133.263 -9.472)" fill="#f1f1f2"/>
        <path id="Caminho_244494" data-name="Caminho 244494" d="M126.576,17.588s-7.433,3.56-12.336,18.985c0,0,11.7-1.9,16.844-1.5C131.084,35.07,126.339,26.289,126.576,17.588Z" transform="translate(-63.582 -5.76)" fill="#f1f1f2"/>
        <path id="Caminho_244495" data-name="Caminho 244495" d="M123.933,27.758c-1.812,0-3.282,2.024-3.282,4.522s1.47,4.521,3.282,4.521,3.281-2.024,3.281-4.521-1.47-4.522-3.281-4.522" transform="translate(-64.023 -9.091)" fill="#24578f"/>
        <path id="Caminho_244496" data-name="Caminho 244496" d="M165.512,42.3c-1.427,0-2.584-1.532-2.584-3.424s1.157-3.422,2.584-3.422a2.008,2.008,0,0,1,.793.181,9.189,9.189,0,0,1,1.774,2.994c0,.083.019.163.019.247C168.1,40.765,166.94,42.3,165.512,42.3Z" transform="translate(-133.329 -11.611)" fill="#24578f"/>
        <path id="Caminho_244497" data-name="Caminho 244497" d="M110.879,75.677s-9.569-.158-12.811-1.028S86.907,72.428,87.63,62.072c.533-7.641,10.618-11,18.013-5.623,6.051-1.345,12.774-5.38,18.824.672,4.281,4.282,1.833,8.4,1.833,8.4s12.574-2.03,16.923-8.437,9.964-14.977,16.132-15.584c3.241-.319,8.7-.791,11.862,5.379s4.745,17.323-18.663,34.963-33.737,22.392-38.828,22.386c-6.511-.009-6.907-2.43-14.393-3.481-3.823-.536-6.722-7.04-2.531-12.656S110.879,75.677,110.879,75.677Z" transform="translate(-87.583 -13.541)" fill="#ffcf00"/>
        <path id="Caminho_244498" data-name="Caminho 244498" d="M154.511,54.727s5.061-5.854,9.964-1.108c4.059,3.929,1.028,10.52,1.028,10.52s-.292-5.687-2.926-5.3c0,0-2.214,14.16-22.933,28.319s-26.491,12.894-31,11.707-9.648-3.48-7.908-7.119S113.073,79.09,113.073,79.09s4.745,3.559,13.76.4,23.724-12.736,31.474-23.573c0,0-.417-2.646-3.491-1.165" transform="translate(-89.778 -16.953)" fill="#f47924"/>
        <g id="Grupo_38039" data-name="Grupo 38039" transform="translate(43.746 56.306)">
          <path id="Caminho_244499" data-name="Caminho 244499" d="M149.358,83.728c-.141.072-.288.145-.445.217C149.061,83.872,149.209,83.8,149.358,83.728Z" transform="translate(-148.913 -83.728)" fill="#c56428"/>
        </g>
        <path id="Caminho_244500" data-name="Caminho 244500" d="M125.127,88.613c1.983.844,6.182,1.888,12.441-.309a69.961,69.961,0,0,0,16.548-9.155,35.02,35.02,0,0,1,13.523.406,66.788,66.788,0,0,1-17.261,16.422c-20.719,14.159-26.491,12.894-31,11.707a25.408,25.408,0,0,1-4.583-1.633C116.039,95.293,122.76,90.508,125.127,88.613Z" transform="translate(-100.513 -25.772)" fill="#e05406"/>
        <path id="Caminho_244501" data-name="Caminho 244501" d="M170.237,70.913c-2.1-.678-3.724,2.159-.948,3.4.39,1.045-.237,2.188-1.942,2.592,5.386,1.111,5.6-5.013,2.89-5.993" transform="translate(-140.145 -23.191)" fill="#eca93e"/>
        <path id="Caminho_244502" data-name="Caminho 244502" d="M203.116,69.625c1.737-.56,3.073,1.781.782,2.806-.322.862.2,1.806,1.6,2.139-4.445.916-4.623-4.136-2.385-4.945" transform="translate(-196.804 -22.776)" fill="#eca93e"/>
        <path id="Caminho_244503" data-name="Caminho 244503" d="M172.2,101.984c-3.375.993-5.742-6.452-6.387-8.75a14.742,14.742,0,0,0,8.486.89c-.3.868-.575,1.735-.755,2.4C172.99,98.583,173.544,101.588,172.2,101.984Z" transform="translate(-141.47 -30.536)" fill="#ebeef2"/>
        <path id="Caminho_244504" data-name="Caminho 244504" d="M202.061,89.786a16.721,16.721,0,0,0,1.988.366c-.337.642-.649,1.262-.877,1.765-.879,1.94-.819,5-2.209,5.169-3.425.426-4.579-7-4.871-9.525A20.378,20.378,0,0,0,202.061,89.786Z" transform="translate(-191.577 -28.678)" fill="#ebeef2"/>
      </g>
    </g>
  </g>
</svg>
