<svg width="92" height="82" viewBox="0 0 92 82" fill="none" xmlns="http://www.w3.org/2000/svg">
<path fill-rule="evenodd" clip-rule="evenodd" d="M71.9326 22.3818C71.9326 22.3818 91.9081 36.8501 91.1783 40.3534C90.4486 43.8568 84.6023 42.4794 81.4907 46.8894C81.4907 46.8894 93.3686 58.0744 91.8691 62.1442C90.3696 66.2141 82.1057 63.3942 79.4016 66.4015C79.4016 66.4015 80.2282 75.0825 77.8536 77.8477C75.4791 80.6129 76.1688 78.0235 72.9045 81.5332C72.8972 81.5321 79.0793 50.5286 71.9326 22.3818Z" fill="#3C97FF"/>
<path fill-rule="evenodd" clip-rule="evenodd" d="M73.9333 29.657C73.9333 29.657 73.47 2.29793 62.4662 0.154019C55.232 -1.2549 50.1545 7.46606 50.1545 7.46606C45.688 6.79795 41.1236 7.43001 37.0067 9.28671C37.0067 9.28671 35.5325 5.30846 31.8806 5.95922C28.2288 6.60997 23.3166 13.7746 22.7585 26.697C21.0742 26.6966 19.4115 27.0772 17.8951 27.8102C16.3786 28.5433 15.0477 29.6099 14.0017 30.9301C14.3475 31.6322 14.8287 32.259 15.4177 32.7744C16.0066 33.2898 16.6917 33.6837 17.4335 33.9333C19.6964 34.4787 30.1411 32.3801 32.4693 35.1474C34.7975 37.9147 35.7073 39.8638 34.7216 44.14C34.7216 44.14 45.7592 44.7466 51.6223 39.2688C57.4855 33.7911 63.4444 22.3587 73.9333 29.657Z" fill="#3C97FF"/>
<path d="M35.9882 25.8502C35.9882 25.8502 34.6298 16.4848 29.7828 13.1826C28.945 17.4945 27.8172 21.745 26.4069 25.905C29.597 25.6932 32.7969 25.6746 35.9893 25.8492L35.9882 25.8502Z" fill="#F1F1F2"/>
<path d="M62.4344 11.0974C62.4344 11.0974 55.213 13.2961 48.6485 26.5839C48.6485 26.5839 59.5082 26.4786 64.1077 27.5443C64.1087 27.5443 61.0213 18.9413 62.4344 11.0974Z" fill="#F1F1F2"/>
<path fill-rule="evenodd" clip-rule="evenodd" d="M58.7008 16.8612C57.0602 16.6116 55.4502 18.2406 55.1058 20.5014C54.7615 22.7622 55.8145 24.7977 57.4551 25.0462C59.0957 25.2947 60.7046 23.6657 61.049 21.4059C61.3933 19.1462 60.3414 17.1097 58.7008 16.8612Z" fill="#2E578C"/>
<path fill-rule="evenodd" clip-rule="evenodd" d="M31.9382 23.926C30.6451 23.7291 29.809 22.1833 30.0691 20.4711C30.3292 18.7589 31.5886 17.5332 32.8806 17.7333C33.1278 17.7759 33.3636 17.8687 33.5735 18.006C34.1563 18.9058 34.5616 19.9087 34.7676 20.9608C34.7602 21.0366 34.7623 21.1113 34.7507 21.1872C34.4906 22.8951 33.2313 24.1219 31.9382 23.926Z" fill="#2E578C"/>
<path fill-rule="evenodd" clip-rule="evenodd" d="M60.4374 34.8232C60.4374 34.8232 65.8267 30.2227 69.6123 35.1928C72.746 39.308 69.0942 44.8594 69.0942 44.8594C69.0942 44.8594 69.6122 39.6712 67.1745 39.6586C67.1745 39.6586 63.2195 52.1714 42.508 62.1349C21.7965 72.0984 16.7431 70.1567 12.8249 68.4624C8.90667 66.7682 4.56829 63.9819 6.64481 60.9282C8.72134 57.8745 19.5567 51.17 19.5567 51.17C19.5567 51.17 23.3633 55.0461 31.9622 53.4234C40.561 51.8008 55.1988 45.1616 63.707 36.4196C63.707 36.4196 63.6933 33.9671 60.7059 34.8843" fill="#F47924"/>
<path fill-rule="evenodd" clip-rule="evenodd" d="M60.7266 49.7881C55.7418 47.7605 50.3284 47.014 44.9809 47.6168C39.6334 48.2196 34.522 50.1524 30.1137 53.2388L32.3882 52.4133C32.3882 52.4133 22.8164 50.4694 21.2779 51.6025C19.7395 52.7355 11.446 55.8703 8.72193 67.0321C7.92796 70.2838 15.4611 73.3312 34.1235 67.3311C45.7602 63.5909 60.7266 49.7881 60.7266 49.7881Z" fill="#F26A23"/>
<path fill-rule="evenodd" clip-rule="evenodd" d="M39.2832 48.7706C39.1453 48.817 39.0021 48.8622 38.8504 48.9065C38.9947 48.8549 39.1389 48.8138 39.2832 48.7706Z" fill="#C56428"/>
<path fill-rule="evenodd" clip-rule="evenodd" d="M20.3586 51.2182C20.3586 51.2182 21.2379 61.1553 25.0055 60.6436C26.2775 60.4709 26.1901 57.6741 26.9746 55.8882C27.7591 54.1023 29.665 50.7285 29.665 50.7285L20.3586 51.2182Z" fill="#EBEEF2"/>
<path fill-rule="evenodd" clip-rule="evenodd" d="M3.0398 44.8778C3.0398 44.8778 2.30268 54.8266 6.10086 54.9308C7.38447 54.9667 7.74989 52.1931 8.81342 50.5567C9.87695 48.9203 12.302 45.9014 12.302 45.9014L3.0398 44.8778Z" fill="#EBEEF2"/>
<path fill-rule="evenodd" clip-rule="evenodd" d="M0.381546 35.6525C1.91682 28.808 11.5118 27.1548 17.4676 33.0432C23.1317 32.6588 29.7751 29.9326 34.4209 36.2453C37.7063 40.7111 34.9232 44.106 34.9232 44.106C34.9232 44.106 46.5883 44.0007 51.409 38.7989C56.2296 33.597 62.4939 26.6135 68.1633 26.9147C71.1412 27.0726 76.1493 27.397 78.1668 33.418C80.1844 39.4391 80.0738 49.7554 56.4487 62.4967C32.8235 75.238 22.8137 78.1201 18.2047 77.4125C12.3079 76.5079 12.2847 74.2619 5.65183 72.2791C2.26432 71.2682 0.534225 64.9797 5.1032 60.4728C9.67218 55.966 19.5599 51.1695 19.5599 51.1695C19.5599 51.1695 8.72134 57.873 6.64587 60.9256C4.5704 63.9783 8.90771 66.7645 12.8259 68.4598C16.7441 70.1552 21.7975 72.0959 42.509 62.1323C63.2205 52.1688 67.1756 39.656 67.1756 39.656C69.6133 39.6686 69.0952 44.8568 69.0952 44.8568C69.0952 44.8568 72.747 39.3075 69.6133 35.1902C65.8225 30.2201 60.4374 34.8227 60.4374 34.8227L60.7112 34.8849C63.6975 33.9677 63.7123 36.4201 63.7123 36.4201C55.2019 45.1601 40.5641 51.8013 31.9653 53.423C23.3665 55.0446 19.5599 51.1695 19.5599 51.1695C19.5599 51.1695 10.9168 49.708 8.1011 48.4739C5.28538 47.2397 -1.70023 44.9273 0.381546 35.6525Z" fill="#FFCF00"/>
<path fill-rule="evenodd" clip-rule="evenodd" d="M27.6989 39.0576C25.8867 38.1541 24.0292 40.5002 26.3721 42.006C26.5827 43.0064 25.8562 43.9541 24.2567 44.0857C28.9815 45.8337 30.0198 40.3191 27.7 39.0586" fill="#ECA93E"/>
<path fill-rule="evenodd" clip-rule="evenodd" d="M6.28551 34.9922C7.93557 34.7247 8.82325 37.0287 6.60773 37.6395C6.19706 38.3766 6.53613 39.3011 7.76604 39.797C3.6151 40.014 4.14898 35.4155 6.29184 34.9922" fill="#ECA93E"/>
</svg>
