<svg id="Snappy-Default" xmlns="http://www.w3.org/2000/svg" width="72" height="99.582" viewBox="0 0 72 99.582">
  <g id="Back_Leg" data-name="Back Leg" transform="translate(11.712 72.917)">
    <path id="Caminho_244465" data-name="Caminho 244465" d="M145.027,219.668c2.821,2.73,5.643,6.457,8.464,9.187-1.354,7.12,1.3,10.256-1.9,12.808-1.154.921-8.167,2.879-12.1.609-.089-3.7,1.933-4.794,4.089-6.181,2.179-4.686,1.4-11.807,1.441-16.423" transform="translate(-139.494 -219.668)" fill="#3c97ff" fill-rule="evenodd"/>
    <path id="Caminho_244466" data-name="Caminho 244466" d="M157.9,281.449a6.432,6.432,0,0,1,3.975-4.682c-1.909,1.433-2.608,3.012-2.477,4.69C158.9,281.478,158.394,281.478,157.9,281.449Z" transform="translate(-153.982 -257.814)" fill="#24578f" fill-rule="evenodd"/>
    <path id="Caminho_244467" data-name="Caminho 244467" d="M168.108,279.329a6.418,6.418,0,0,1,3.954-4.6c-2.067,1.552-2.718,3.275-2.429,5.11A7.893,7.893,0,0,1,168.108,279.329Z" transform="translate(-167.561 -256.449)" fill="#24578f" fill-rule="evenodd"/>
  </g>
  <g id="Back_Arm" data-name="Back Arm" transform="translate(0 34.383)">
    <path id="Caminho_244468" data-name="Caminho 244468" d="M173.241,105.246c1.452,2.114,2.1,6.567-9.49,13.084,0,0,4.873,8.415,6.412,9.954s2.513,5.644.975,7.7a18.365,18.365,0,0,1-2.667,2.976s-3.847.718-5.488-.205a7.428,7.428,0,0,1-1.1-8.235s-9.772-10.236-9.156-13.315S168.624,98.525,173.241,105.246Z" transform="translate(-152.695 -103.581)" fill="#3c97ff" fill-rule="evenodd"/>
    <path id="Caminho_244469" data-name="Caminho 244469" d="M174.406,184.724s3.96,3.264,4.955,3.83a11.591,11.591,0,0,1-2.3-1s-1.757,2.148-.469,3.963c0,0-2.361-1.347-.78-4.471a18.639,18.639,0,0,1-1.451-2.115Z" transform="translate(-165.221 -157.789)" fill="#24578f" fill-rule="evenodd"/>
  </g>
  <g id="Body" transform="translate(13.173 11.083)">
    <g id="Tail_Spines" data-name="Tail Spines" transform="translate(31.24 43.514)">
      <path id="Caminho_244470" data-name="Caminho 244470" d="M68.21,174.922a4.211,4.211,0,0,0,.673,2.129c.667,1.061,1.053.934-.613,1.845a12.511,12.511,0,0,1-3.961,1.23c-2.346.383-1.8.121-.762-2.072a18.355,18.355,0,0,1,1.6-2.823c2.268-3.18,2.969-2.964,3.063-.308" transform="translate(-62.659 -170.097)" fill="#3c97ff" fill-rule="evenodd"/>
      <path id="Caminho_244471" data-name="Caminho 244471" d="M45.931,168.208c.852,1.588-.454,1.837-2.14,2.426a8.6,8.6,0,0,1-1.936.433c-1.9.2-1.4-.069-.576-1.6a28.158,28.158,0,0,1,1.677-2.73c3.313-4.766,1.73-.85,2.975,1.474" transform="translate(-32.066 -164.479)" fill="#3c97ff" fill-rule="evenodd"/>
      <path id="Caminho_244472" data-name="Caminho 244472" d="M23.557,168.188a8.894,8.894,0,0,0,.039,1.094c.125,1.322.273,1.1-1.364,1.245a9.522,9.522,0,0,1-2.183-.022c-2.087-.313-1.326-1.041-.239-2.254a9.159,9.159,0,0,1,1.232-1.145c4.124-3.177,2.569-.942,2.514,1.082" transform="translate(-2.518 -165.172)" fill="#3c97ff" fill-rule="evenodd"/>
    </g>
    <path id="Caminho_244473" data-name="Caminho 244473" d="M.053,73.91c.065-1.617.174-3.239.4-4.842.654-4.713-.993-9.24,1.876-13.083A31.414,31.414,0,0,1,10.9,48.43c4.639-2.964,9.748-5.4,13.83-9.151a56.576,56.576,0,0,0-2.095-5.889s11.814,6.091,11.71,8.017c-.1,1.855-3.09,1.69-4.474,4,.047.16.094.32.138.481,1.352.968,6.882,5.067,6.47,7.079s-4.087,1.609-5.757,2.748q-.1.981-.251,1.961c.251,1.483.479,3.73-.187,4.8-.634,1.015-.824.879-1.2,1.1q-.52,1.664-1.156,3.285c-1.035,2.645-2.64,5.081-3.533,7.763a11.134,11.134,0,0,0-.4,5.805,6.224,6.224,0,0,0,1.938,3.615,6.415,6.415,0,0,0,4.724,1.343c2.393-.158,4.653-1.421,6.728-2.529,5.5-2.933,12.842-2.839,17.4,1.329a7.745,7.745,0,0,1,1.947,2.767A.87.87,0,0,1,56.436,88c-.843.671-1.879,0-2.64-.349-1.466-.669-3.528-2.227-6.514-1.086a24.587,24.587,0,0,0-7.587,5.48c-1.705,1.727-3.677,2.909-5.255,4.751-2.4,2.805-4.389,4.133-7.381,6.332-7.72,5.674-14.525,4.183-20.714-2.389C1.4,95.486,1.032,89.77.311,82.743A62.254,62.254,0,0,1,.053,73.91Z" transform="translate(2.029 -33.39)" fill="#3c97ff" fill-rule="evenodd"/>
    <g id="Grupo_38038" data-name="Grupo 38038" transform="translate(0 16.494)">
      <path id="Caminho_244474" data-name="Caminho 244474" d="M79.952,120.165c-3.982,1.992-8.208,6.451-12.278,11.286-5.31,6.307-18.584,15.6-29.535,1C27.825,118.69,32.681,99.41,33.28,97.214c.023-.074.046-.148.069-.222.348-.447,9.545-12.187,17.971-13.914,2.247,1.952,2.683,5.389-.309,11.315-5.033,9.967-9.057,24.5-.111,33.432a12.143,12.143,0,0,0,4.766,3.007c6.362,2.1,9.73-1.761,13.708-5.483A19.224,19.224,0,0,1,79.952,120.165Z" transform="translate(-31.617 -83.078)" fill="#ffcf00" fill-rule="evenodd"/>
      <path id="Caminho_244475" data-name="Caminho 244475" d="M129.3,217.686a21.236,21.236,0,0,0,10.628-4.347s-2.624,4.6-9.4,6.129C130.091,218.884,129.684,218.289,129.3,217.686Z" transform="translate(-124.008 -170.1)" fill="#eca93e" fill-rule="evenodd"/>
      <path id="Caminho_244476" data-name="Caminho 244476" d="M116.334,229.1a24.673,24.673,0,0,1-6.413,8.325,13.927,13.927,0,0,1-2.524-.849C109.823,235.458,113.926,233.1,116.334,229.1Z" transform="translate(-93.147 -180.628)" fill="#eca93e" fill-rule="evenodd"/>
      <path id="Caminho_244477" data-name="Caminho 244477" d="M67.89,223.114q-.328.382-.654.768c-.1.117-.2.235-.3.353a4.415,4.415,0,0,0-.286-2.8A14.9,14.9,0,0,1,67.89,223.114Z" transform="translate(-31.18 -175.508)" fill="#eca93e" fill-rule="evenodd"/>
      <path id="Caminho_244478" data-name="Caminho 244478" d="M81.441,233.7q-.688.562-1.435,1.1c.34-1.6.485-3.255-.051-4.186A15.276,15.276,0,0,1,81.441,233.7Z" transform="translate(-49.147 -181.638)" fill="#eca93e" fill-rule="evenodd"/>
      <path id="Caminho_244479" data-name="Caminho 244479" d="M55.1,210.255q-.509.517-1.021,1.053a8.986,8.986,0,0,0-.236-2.206A10.806,10.806,0,0,1,55.1,210.255Z" transform="translate(-14.135 -167.269)" fill="#eca93e" fill-rule="evenodd"/>
      <path id="Caminho_244480" data-name="Caminho 244480" d="M150.523,185.736a21.389,21.389,0,0,0-12.355-.015q-.158-.862-.277-1.716C145.986,182.1,150.523,185.736,150.523,185.736Z" transform="translate(-137.454 -150.135)" fill="#eca93e" fill-rule="evenodd"/>
      <path id="Caminho_244481" data-name="Caminho 244481" d="M136.93,148.175c.058-.695.127-1.36.2-1.994h0c8.574-.208,12.994,3.96,12.994,3.96A20.934,20.934,0,0,0,136.93,148.175Z" transform="translate(-136.74 -125.229)" fill="#eca93e" fill-rule="evenodd"/>
      <path id="Caminho_244482" data-name="Caminho 244482" d="M128.247,115.856c.334-.38.708-.8,1.117-1.239,9.114,0,11.574,4.234,11.574,4.234A20.154,20.154,0,0,0,128.247,115.856Z" transform="translate(-124.669 -104.148)" fill="#eca93e" fill-rule="evenodd"/>
      <path id="Caminho_244483" data-name="Caminho 244483" d="M112.448,111.178a53.991,53.991,0,0,1,1.008-6.122c.22-.132.439-.267.651-.406,2.913-1.9,15.708-9.666,19.466-11.894a7.558,7.558,0,0,1,.04,1.717C129.63,99.955,120.8,109.286,112.448,111.178Z" transform="translate(-112.132 -89.544)" fill="#eca93e" fill-rule="evenodd"/>
    </g>
  </g>
  <g id="Front_Leg" data-name="Front Leg" transform="translate(33.206 68.917)">
    <path id="Caminho_244484" data-name="Caminho 244484" d="M78.193,210.187a5.8,5.8,0,0,0-5.283-2.536c-5.86.765-4.007,7.7-2.6,11.783a33.274,33.274,0,0,1,1.661,9.1c-.011,4.03-1.539,5.245.336,6.819a15.927,15.927,0,0,0,10.23,2.852c3.254-.736,3.343-7.431-1.843-9.139-1.442-3.127-1.377-6.319-1.265-9.656.075-2.258.272-7-1.236-9.227" transform="translate(-68.878 -207.616)" fill="#3c97ff" fill-rule="evenodd"/>
    <path id="Caminho_244485" data-name="Caminho 244485" d="M88.048,288.173c-.462-.065-.92-.151-1.37-.254a5.97,5.97,0,0,0-1.617-5.421C87.182,283.713,87.883,285.782,88.048,288.173Z" transform="translate(-77.481 -257.642)" fill="#24578f" fill-rule="evenodd"/>
    <path id="Caminho_244486" data-name="Caminho 244486" d="M73,287.587a6.838,6.838,0,0,0-1.571-6.037c1.976,1.131,2.719,3,2.946,5.188A2.644,2.644,0,0,1,73,287.587Z" transform="translate(-59.29 -257.008)" fill="#24578f" fill-rule="evenodd"/>
  </g>
  <g id="Front_Arm" data-name="Front Arm" transform="translate(33.525 32.442)">
    <path id="Caminho_244487" data-name="Caminho 244487" d="M94.811,175.055s.677,3.878-1.952,5.18c-2.225,1.1-4.957,1.132-6.323-.508-1.887-2.265-4.684-6.942,2.888-11.5,4.677-2.814,4.918,6.746,4.918,6.746Z" transform="translate(-84.432 -144.483)" fill="#24578f" fill-rule="evenodd"/>
    <path id="Caminho_244488" data-name="Caminho 244488" d="M93.654,123.458c-.988,2.14-1.876,3.8-1.92,3.945,0,0-6.116-7.576-4.976-8.829C88.019,117.188,92.7,121.781,93.654,123.458Z" transform="translate(-83.923 -111.484)" fill="#24578f" fill-rule="evenodd"/>
    <path id="Caminho_244489" data-name="Caminho 244489" d="M51.635,98.617c-6.558,6.325,7.065,14.72,7.065,14.72-1.483.937-3.357,4.139-4.762,6.481s-1.952,1.952-3.669,3.9,3.179,4.85,3.179,4.85,16.39-8.859,16.338-14.533c-.006-.7-3.8-7.017-7.651-10.933C60.2,101.141,54.772,95.592,51.635,98.617Z" transform="translate(-47.854 -97.733)" fill="#3c97ff" fill-rule="evenodd"/>
    <path id="Caminho_244490" data-name="Caminho 244490" d="M93.521,175.755s1.224,6.037-2.38,7.8c0,0-2.923.194-4.409-.872,0,0-3.7-5.673-.939-8.615S93.521,175.755,93.521,175.755Z" transform="translate(-83.377 -148.073)" fill="#3c97ff" fill-rule="evenodd"/>
    <path id="Caminho_244491" data-name="Caminho 244491" d="M90.586,182.422s-4.741,2.543-5.565,2.775a4.436,4.436,0,0,0,2.422-.364s1.219,2.31-.194,3.756c0,0,2.178-.388,1.4-4.019l1.978-2.043Z" transform="translate(-80.364 -154.31)" fill="#2e578c" fill-rule="evenodd"/>
  </g>
  <g id="Head" transform="translate(0.771 0)">
    <path id="Caminho_244492" data-name="Caminho 244492" d="M129.779,14.8S127.314.254,121.277,0c-3.968-.164-5.966,4.9-5.966,4.9a12.669,12.669,0,0,0-6.858,2.037s-1.107-2-3-1.358-3.929,4.86-3.179,11.792a6.019,6.019,0,0,0-4.322,2.966,3.2,3.2,0,0,0,2.072,1.322c1.25.107,6.644-1.858,8.109-.572a4.665,4.665,0,0,1,1.929,4.61s5.93-.572,8.609-3.966S123.6,11.76,129.779,14.8Z" transform="translate(-91.055 0)" fill="#3c97ff" fill-rule="evenodd"/>
    <path id="Caminho_244493" data-name="Caminho 244493" d="M164.9,35.167s-1.483-4.881-4.333-6.247a52.7,52.7,0,0,1-.768,7.054A42.719,42.719,0,0,1,164.9,35.167Z" transform="translate(-146.701 -19.32)" fill="#f1f1f2"/>
    <path id="Caminho_244494" data-name="Caminho 244494" d="M120.329,17.588s-3.669,1.757-6.089,9.371a52.581,52.581,0,0,1,8.314-.742A19.914,19.914,0,0,1,120.329,17.588Z" transform="translate(-89.235 -11.75)" fill="#f1f1f2"/>
    <path id="Caminho_244495" data-name="Caminho 244495" d="M122.271,27.758c-.894,0-1.62,1-1.62,2.232s.726,2.232,1.62,2.232,1.62-1,1.62-2.232-.725-2.232-1.62-2.232" transform="translate(-92.699 -18.544)" fill="#24578f" fill-rule="evenodd"/>
    <path id="Caminho_244496" data-name="Caminho 244496" d="M164.2,38.83a1.757,1.757,0,0,1,0-3.379.991.991,0,0,1,.391.089,4.536,4.536,0,0,1,.876,1.478c0,.041.009.08.009.122A1.527,1.527,0,0,1,164.2,38.83Z" transform="translate(-148.318 -23.683)" fill="#24578f" fill-rule="evenodd"/>
    <path id="Caminho_244497" data-name="Caminho 244497" d="M99.082,58.291a43.1,43.1,0,0,1-6.324-.508c-1.6-.43-5.509-1.1-5.152-6.208.263-3.772,5.241-5.431,8.891-2.776,2.987-.664,6.305-2.656,9.292.332a3.424,3.424,0,0,1,.9,4.149s6.207-1,8.353-4.165,4.918-7.393,7.963-7.692c1.6-.157,4.294-.39,5.855,2.655s2.342,8.551-9.212,17.258S103,72.389,100.487,72.386c-3.214,0-3.409-1.2-7.1-1.718-1.887-.265-3.318-3.475-1.249-6.247S99.082,58.291,99.082,58.291Z" transform="translate(-87.583 -27.62)" fill="#ffcf00" fill-rule="evenodd"/>
    <path id="Caminho_244498" data-name="Caminho 244498" d="M127.1,53.226s2.5-2.89,4.918-.547c2,1.939.507,5.193.507,5.193s-.144-2.807-1.444-2.616c0,0-1.093,6.989-11.32,13.978s-13.076,6.364-15.3,5.778-4.762-1.718-3.9-3.514,6.089-6.247,6.089-6.247,2.342,1.757,6.792.2,11.71-6.286,15.536-11.636c0,0-.206-1.306-1.723-.575" transform="translate(-95.152 -34.581)" fill="#f47924" fill-rule="evenodd"/>
    <g id="Grupo_38039" data-name="Grupo 38039" transform="translate(21.593 27.793)">
      <path id="Caminho_244499" data-name="Caminho 244499" d="M149.133,83.728c-.07.036-.142.071-.22.107Z" transform="translate(-148.913 -83.728)" fill="#c56428" fill-rule="evenodd"/>
    </g>
    <path id="Caminho_244500" data-name="Caminho 244500" d="M119.9,83.587a8.4,8.4,0,0,0,6.141-.152,34.533,34.533,0,0,0,8.168-4.519,17.287,17.287,0,0,1,6.675.2,32.967,32.967,0,0,1-8.52,8.106c-10.227,6.989-13.076,6.364-15.3,5.778a12.541,12.541,0,0,1-2.262-.806A12.062,12.062,0,0,1,119.9,83.587Z" transform="translate(-107.746 -52.568)" fill="#e05406" fill-rule="evenodd"/>
    <path id="Caminho_244501" data-name="Caminho 244501" d="M168.774,70.86c-1.038-.335-1.838,1.066-.468,1.679.192.516-.117,1.08-.958,1.28,2.659.548,2.765-2.475,1.426-2.958" transform="translate(-153.92 -47.305)" fill="#eca93e" fill-rule="evenodd"/>
    <path id="Caminho_244502" data-name="Caminho 244502" d="M202.4,69.582c.857-.277,1.517.879.386,1.385-.159.426.1.892.791,1.056a1.357,1.357,0,0,1-1.177-2.441" transform="translate(-199.287 -46.457)" fill="#eca93e" fill-rule="evenodd"/>
    <path id="Caminho_244503" data-name="Caminho 244503" d="M168.965,97.553c-1.666.49-2.834-3.185-3.153-4.319a7.277,7.277,0,0,0,4.189.439c-.146.428-.284.856-.373,1.186C169.356,95.874,169.629,97.358,168.965,97.553Z" transform="translate(-153.797 -62.286)" fill="#ebeef2" fill-rule="evenodd"/>
    <path id="Caminho_244504" data-name="Caminho 244504" d="M199.038,88.659a8.25,8.25,0,0,0,.981.181c-.166.317-.321.623-.433.871-.434.958-.4,2.466-1.09,2.551-1.69.21-2.26-3.457-2.4-4.7A10.059,10.059,0,0,0,199.038,88.659Z" transform="translate(-193.863 -58.496)" fill="#ebeef2" fill-rule="evenodd"/>
  </g>
</svg>
