<svg xmlns="http://www.w3.org/2000/svg" width="319.6" height="279.417" viewBox="0 0 319.6 279.417">
  <g id="Grupo_39953" data-name="Grupo 39953" transform="translate(-1006.4 -618)">
    <path id="Caminho_244510" data-name="Caminho 244510" d="M450.6,0V254.623H131Z" transform="translate(875.4 642.793)" fill="#ebeff3" opacity="0.5"/>
    <g id="Snappy-Default" transform="translate(1102 618)">
      <g id="Back_Leg" data-name="Back Leg" transform="translate(26.41 164.421)">
        <path id="Caminho_244465" data-name="Caminho 244465" d="M151.97,219.668c6.362,6.157,12.724,14.559,19.086,20.715-3.053,16.055,2.924,23.126-4.28,28.88-2.6,2.076-18.415,6.492-27.275,1.374-.2-8.332,4.359-10.809,9.22-13.938,4.913-10.567,3.15-26.623,3.249-37.032" transform="translate(-139.494 -219.668)" fill="#3c97ff"/>
        <path id="Caminho_244466" data-name="Caminho 244466" d="M157.9,287.325a14.5,14.5,0,0,1,8.962-10.558c-4.3,3.232-5.881,6.791-5.585,10.576C160.149,287.39,159.018,287.389,157.9,287.325Z" transform="translate(-149.068 -234.029)" fill="#24578f"/>
        <path id="Caminho_244467" data-name="Caminho 244467" d="M168.108,285.106a14.471,14.471,0,0,1,8.917-10.381c-4.66,3.5-6.129,7.385-5.477,11.522A17.807,17.807,0,0,1,168.108,285.106Z" transform="translate(-166.874 -233.515)" fill="#24578f"/>
      </g>
      <g id="Back_Arm" data-name="Back Arm" transform="translate(0 77.53)">
        <path id="Caminho_244468" data-name="Caminho 244468" d="M199.024,107.336c3.275,4.768,4.743,14.809-21.4,29.5,0,0,10.989,18.974,14.458,22.445s5.668,12.727,2.2,17.355a41.406,41.406,0,0,1-6.015,6.71s-8.675,1.62-12.376-.463c0,0-7.345-7.116-2.487-18.569,0,0-22.034-23.081-20.647-30.024S188.614,92.179,199.024,107.336Z" transform="translate(-152.695 -103.581)" fill="#3c97ff"/>
        <path id="Caminho_244469" data-name="Caminho 244469" d="M174.466,184.724s8.929,7.36,11.173,8.637c0,0-4.049-1.32-5.193-2.246,0,0-3.961,4.843-1.057,8.937,0,0-5.325-3.038-1.76-10.082a42.022,42.022,0,0,1-3.271-4.769Z" transform="translate(-153.756 -123.989)" fill="#24578f"/>
      </g>
      <g id="Body" transform="translate(29.703 24.992)">
        <g id="Tail_Spines" data-name="Tail Spines" transform="translate(70.442 98.12)">
          <path id="Caminho_244470" data-name="Caminho 244470" d="M75.176,177.475a9.5,9.5,0,0,0,1.518,4.8c1.5,2.391,2.374,2.106-1.381,4.159a28.209,28.209,0,0,1-8.932,2.773c-5.29.864-4.053.272-1.719-4.673a41.385,41.385,0,0,1,3.607-6.365c5.115-7.17,6.694-6.683,6.907-.7" transform="translate(-62.659 -166.594)" fill="#3c97ff"/>
          <path id="Caminho_244471" data-name="Caminho 244471" d="M52.689,172.887c1.92,3.582-1.024,4.143-4.825,5.471a19.4,19.4,0,0,1-4.366.975c-4.275.462-3.166-.156-1.3-3.615a63.5,63.5,0,0,1,3.78-6.156c7.47-10.746,3.9-1.918,6.708,3.324" transform="translate(-21.425 -164.479)" fill="#3c97ff"/>
          <path id="Caminho_244472" data-name="Caminho 244472" d="M29.611,171.541a20.055,20.055,0,0,0,.089,2.466c.283,2.981.616,2.478-3.075,2.807a21.464,21.464,0,0,1-4.922-.049c-4.707-.707-2.99-2.347-.54-5.083a20.663,20.663,0,0,1,2.779-2.581c9.3-7.165,5.793-2.125,5.668,2.44" transform="translate(17.829 -164.74)" fill="#3c97ff"/>
        </g>
        <path id="Caminho_244473" data-name="Caminho 244473" d="M.12,124.759c.147-3.645.393-7.3.9-10.919C2.491,103.214-1.223,93,5.246,84.339c5.266-7.056,11.973-12.33,19.339-17.036,10.46-6.684,21.981-12.175,31.186-20.635A127.568,127.568,0,0,0,51.048,33.39s26.64,13.734,26.4,18.078c-.226,4.182-6.967,3.811-10.088,9.013.106.361.213.722.311,1.085,3.049,2.183,15.517,11.426,14.589,15.963-.935,4.57-9.215,3.629-12.981,6.2q-.218,2.213-.566,4.422c.566,3.344,1.08,8.412-.421,10.814-1.43,2.289-1.858,1.983-2.717,2.482q-1.172,3.751-2.606,7.406c-2.335,5.965-5.953,11.456-7.966,17.505a25.106,25.106,0,0,0-.912,13.09,14.035,14.035,0,0,0,4.37,8.15c2.962,2.561,6.837,3.279,10.652,3.028,5.4-.356,10.491-3.2,15.172-5.7,12.392-6.614,28.958-6.4,39.233,3a17.465,17.465,0,0,1,4.389,6.239,1.961,1.961,0,0,1-.652,2.382c-1.9,1.513-4.238,0-5.953-.786-3.305-1.51-7.954-5.022-14.689-2.448-6,2.293-12.664,7.855-17.107,12.357-3.845,3.894-8.291,6.561-11.85,10.713-5.422,6.326-9.9,9.32-16.643,14.278-17.409,12.794-32.753,9.433-46.708-5.388C3.147,173.411,2.327,160.521.7,144.676A140.379,140.379,0,0,1,.12,124.759Z" transform="translate(4.574 -33.39)" fill="#3c97ff"/>
        <g id="Grupo_38038" data-name="Grupo 38038" transform="translate(0 37.191)">
          <path id="Caminho_244474" data-name="Caminho 244474" d="M140.608,166.705c-8.979,4.491-18.508,14.547-27.687,25.449-11.973,14.221-41.9,35.179-66.6,2.245-23.258-31.02-12.308-74.5-10.956-79.445.051-.167.1-.335.156-.5.784-1.008,21.524-27.48,40.522-31.375,5.066,4.4,6.051,12.151-.7,25.513C64,131.066,54.925,163.842,75.1,183.977a27.382,27.382,0,0,0,10.746,6.781c14.345,4.734,21.941-3.971,30.911-12.364A43.349,43.349,0,0,1,140.608,166.705Z" transform="translate(-31.617 -83.078)" fill="#ffcf00"/>
          <path id="Caminho_244475" data-name="Caminho 244475" d="M129.3,223.142c5.757-.734,15.623-2.968,23.965-9.8,0,0-5.917,10.37-21.191,13.82C131.086,225.842,130.166,224.5,129.3,223.142Z" transform="translate(-117.368 -115.839)" fill="#eca93e"/>
          <path id="Caminho_244476" data-name="Caminho 244476" d="M127.55,229.1a55.634,55.634,0,0,1-14.461,18.772,31.4,31.4,0,0,1-5.692-1.915C112.868,243.438,122.12,238.119,127.55,229.1Z" transform="translate(-75.264 -119.802)" fill="#eca93e"/>
          <path id="Caminho_244477" data-name="Caminho 244477" d="M69.452,225.22q-.74.861-1.475,1.731c-.221.263-.451.53-.685.8.355-2.385.3-4.7-.646-6.314A33.588,33.588,0,0,1,69.452,225.22Z" transform="translate(13.327 -117.875)" fill="#eca93e"/>
          <path id="Caminho_244478" data-name="Caminho 244478" d="M83.306,237.576c-1.034.844-2.115,1.672-3.236,2.474.766-3.6,1.093-7.34-.115-9.44A34.437,34.437,0,0,1,83.306,237.576Z" transform="translate(-10.486 -120.183)" fill="#eca93e"/>
          <path id="Caminho_244479" data-name="Caminho 244479" d="M56.674,211.7q-1.148,1.165-2.3,2.374a20.263,20.263,0,0,0-.533-4.974A24.362,24.362,0,0,1,56.674,211.7Z" transform="translate(35.689 -114.773)" fill="#eca93e"/>
          <path id="Caminho_244480" data-name="Caminho 244480" d="M166.376,188.6a48.23,48.23,0,0,0-27.86-.034q-.356-1.943-.626-3.87C156.147,180.411,166.376,188.6,166.376,188.6Z" transform="translate(-136.908 -108.323)" fill="#eca93e"/>
          <path id="Caminho_244481" data-name="Caminho 244481" d="M136.93,150.688c.132-1.567.287-3.067.458-4.5v0c19.334-.47,29.3,8.929,29.3,8.929C155.128,148.808,142.866,149.7,136.93,150.688Z" transform="translate(-136.501 -98.946)" fill="#eca93e"/>
          <path id="Caminho_244482" data-name="Caminho 244482" d="M128.247,117.41c.754-.858,1.6-1.8,2.518-2.793,20.552.005,26.1,9.548,26.1,9.548A45.445,45.445,0,0,0,128.247,117.41Z" transform="translate(-120.178 -91.01)" fill="#eca93e"/>
          <path id="Caminho_244483" data-name="Caminho 244483" d="M112.448,134.295a121.744,121.744,0,0,1,2.272-13.8c.5-.3.989-.6,1.469-.915,6.568-4.28,35.421-21.8,43.895-26.819a17.032,17.032,0,0,1,.091,3.871C151.192,108.987,131.277,130.028,112.448,134.295Z" transform="translate(-111.736 -85.512)" fill="#eca93e"/>
        </g>
      </g>
      <g id="Front_Leg" data-name="Front Leg" transform="translate(74.876 155.4)">
        <path id="Caminho_244484" data-name="Caminho 244484" d="M89.883,213.414a13.074,13.074,0,0,0-11.912-5.719c-13.214,1.725-9.036,17.361-5.864,26.569a75.029,75.029,0,0,1,3.745,20.531c-.025,9.088-3.471,11.826.759,15.376,3.67,3.079,14.163,7.5,23.067,6.432,7.337-1.66,7.538-16.757-4.156-20.608-3.251-7.051-3.105-14.25-2.852-21.775.169-5.091.614-15.782-2.787-20.806" transform="translate(-68.878 -207.616)" fill="#3c97ff"/>
        <path id="Caminho_244485" data-name="Caminho 244485" d="M91.8,295.294c-1.041-.146-2.075-.341-3.09-.573A13.462,13.462,0,0,0,85.061,282.5C89.845,285.237,91.424,289.9,91.8,295.294Z" transform="translate(-67.97 -226.449)" fill="#24578f"/>
        <path id="Caminho_244486" data-name="Caminho 244486" d="M74.975,295.162a15.419,15.419,0,0,0-3.542-13.612c4.456,2.551,6.132,6.773,6.643,11.7A5.963,5.963,0,0,1,74.975,295.162Z" transform="translate(-44.051 -226.211)" fill="#24578f"/>
      </g>
      <g id="Front_Arm" data-name="Front Arm" transform="translate(75.595 73.153)">
        <path id="Caminho_244487" data-name="Caminho 244487" d="M107.835,184.27s1.526,8.745-4.4,11.68c-5.018,2.485-11.178,2.553-14.259-1.145-4.254-5.107-10.562-15.653,6.513-25.924,10.547-6.345,11.09,15.212,11.09,15.212Z" transform="translate(-84.432 -115.333)" fill="#24578f"/>
        <path id="Caminho_244488" data-name="Caminho 244488" d="M102.486,129.91c-2.228,4.826-4.23,8.561-4.329,8.894,0,0-13.791-17.083-11.221-19.908C89.779,115.771,100.334,126.128,102.486,129.91Z" transform="translate(-80.542 -102.91)" fill="#24578f"/>
        <path id="Caminho_244489" data-name="Caminho 244489" d="M53.875,99.727C39.088,113.99,69.806,132.92,69.806,132.92c-3.345,2.113-7.57,9.332-10.738,14.615s-4.4,4.4-8.274,8.8,7.168,10.936,7.168,10.936S94.921,147.3,94.8,134.5c-.014-1.585-8.579-15.823-17.252-24.653C73.2,105.418,60.947,92.906,53.875,99.727Z" transform="translate(-45.348 -97.733)" fill="#3c97ff"/>
        <path id="Caminho_244490" data-name="Caminho 244490" d="M104.5,179.105s2.76,13.613-5.367,17.577c0,0-6.591.436-9.942-1.967,0,0-8.338-12.793-2.118-19.425S104.5,179.105,104.5,179.105Z" transform="translate(-81.629 -116.685)" fill="#3c97ff"/>
        <path id="Caminho_244491" data-name="Caminho 244491" d="M97.569,182.422s-10.691,5.734-12.548,6.257a10,10,0,0,0,5.462-.82s2.748,5.208-.437,8.47c0,0,4.912-.876,3.151-9.064l4.46-4.608Z" transform="translate(-74.519 -119.033)" fill="#2e578c"/>
      </g>
      <g id="Head" transform="translate(1.738 0)">
        <path id="Caminho_244492" data-name="Caminho 244492" d="M169.721,33.366S164.162.573,150.55.009C141.6-.361,137.1,11.047,137.1,11.047s-7.249-.484-15.465,4.593c0,0-2.5-4.512-6.767-3.062s-8.86,10.958-7.169,26.589a13.571,13.571,0,0,0-9.746,6.688s1.853,2.739,4.672,2.981,14.982-4.19,18.285-1.29,4.752,5.076,4.35,10.394c0,0,13.371-1.29,19.412-8.944S155.785,26.517,169.721,33.366Z" transform="translate(-82.401 0)" fill="#3c97ff"/>
        <path id="Caminho_244493" data-name="Caminho 244493" d="M171.3,43.007S167.957,32,161.532,28.92A118.838,118.838,0,0,1,159.8,44.826,96.329,96.329,0,0,1,171.3,43.007Z" transform="translate(-130.263 -7.274)" fill="#f1f1f2"/>
        <path id="Caminho_244494" data-name="Caminho 244494" d="M127.97,17.588s-8.273,3.963-13.73,21.131c0,0,13.026-2.113,18.748-1.673C132.988,37.046,127.707,27.273,127.97,17.588Z" transform="translate(-57.857 -4.424)" fill="#f1f1f2"/>
        <path id="Caminho_244495" data-name="Caminho 244495" d="M124.3,27.758c-2.017,0-3.653,2.252-3.653,5.033s1.637,5.032,3.653,5.032,3.652-2.253,3.652-5.032-1.636-5.033-3.652-5.033" transform="translate(-57.623 -6.981)" fill="#24578f"/>
        <path id="Caminho_244496" data-name="Caminho 244496" d="M165.8,43.071c-1.589,0-2.876-1.705-2.876-3.811s1.288-3.809,2.876-3.809a2.235,2.235,0,0,1,.882.2,10.228,10.228,0,0,1,1.975,3.332c.005.093.021.181.021.275C168.682,41.366,167.393,43.071,165.8,43.071Z" transform="translate(-129.984 -8.916)" fill="#24578f"/>
        <path id="Caminho_244497" data-name="Caminho 244497" d="M113.512,79.558s-10.65-.176-14.259-1.144-12.422-2.472-11.618-14c.593-8.5,11.818-12.247,20.049-6.259,6.735-1.5,14.217-5.988,20.952.748,4.764,4.766,2.04,9.355,2.04,9.355s14-2.26,18.836-9.391S160.6,42.2,167.467,41.523c3.607-.355,9.682-.88,13.2,5.987s5.281,19.281-20.772,38.915-37.551,24.923-43.217,24.916c-7.247-.01-7.688-2.705-16.019-3.874-4.255-.6-7.482-7.835-2.817-14.087S113.512,79.558,113.512,79.558Z" transform="translate(-87.583 -10.398)" fill="#ffcf00"/>
        <path id="Caminho_244498" data-name="Caminho 244498" d="M160.629,55.062s5.633-6.516,11.09-1.233c4.517,4.373,1.144,11.709,1.144,11.709s-.326-6.329-3.257-5.9c0,0-2.464,15.76-25.526,31.52s-29.486,14.351-34.5,13.03-10.739-3.873-8.8-7.924,13.731-14.087,13.731-14.087,5.281,3.962,15.315.44,26.406-14.175,35.031-26.237c0,0-.465-2.945-3.885-1.3" transform="translate(-88.578 -13.019)" fill="#f47924"/>
        <g id="Grupo_38039" data-name="Grupo 38039" transform="translate(48.69 62.67)">
          <path id="Caminho_244499" data-name="Caminho 244499" d="M149.408,83.728c-.157.08-.321.161-.5.242C149.078,83.888,149.243,83.807,149.408,83.728Z" transform="translate(-148.913 -83.728)" fill="#c56428"/>
        </g>
        <path id="Caminho_244500" data-name="Caminho 244500" d="M126.3,89.734c2.207.939,6.88,2.1,13.847-.344A77.869,77.869,0,0,0,158.561,79.2a38.978,38.978,0,0,1,15.052.451c-3.781,5.372-9.767,11.824-19.212,18.278-23.061,15.76-29.486,14.351-34.5,13.03a28.278,28.278,0,0,1-5.1-1.818C116.179,97.17,123.66,91.844,126.3,89.734Z" transform="translate(-98.898 -19.79)" fill="#e05406"/>
        <path id="Caminho_244501" data-name="Caminho 244501" d="M170.563,70.924c-2.341-.754-4.145,2.4-1.055,3.785.434,1.163-.264,2.436-2.161,2.885,6,1.237,6.235-5.58,3.216-6.671" transform="translate(-137.071 -17.809)" fill="#eca93e"/>
        <path id="Caminho_244502" data-name="Caminho 244502" d="M203.275,69.635c1.933-.623,3.42,1.983.87,3.123-.358.96.218,2.01,1.784,2.381-4.948,1.019-5.146-4.6-2.654-5.5" transform="translate(-196.249 -17.49)" fill="#eca93e"/>
        <path id="Caminho_244503" data-name="Caminho 244503" d="M172.922,102.973c-3.756,1.106-6.391-7.182-7.109-9.739a16.408,16.408,0,0,0,9.446.99c-.329.966-.641,1.931-.84,2.674C173.8,99.188,174.418,102.533,172.922,102.973Z" transform="translate(-138.719 -23.449)" fill="#ebeef2"/>
        <path id="Caminho_244504" data-name="Caminho 244504" d="M202.736,90.038a18.609,18.609,0,0,0,2.213.407c-.375.714-.723,1.4-.977,1.965-.979,2.159-.911,5.561-2.459,5.753-3.812.474-5.1-7.8-5.421-10.6A22.682,22.682,0,0,0,202.736,90.038Z" transform="translate(-191.066 -22.022)" fill="#ebeef2"/>
      </g>
    </g>
  </g>
</svg>
