<svg width="126" height="142" viewBox="0 0 126 142" fill="none" xmlns="http://www.w3.org/2000/svg">
<g filter="url(#filter0_f_3139_7448)">
<ellipse cx="59.3637" cy="7.86121" rx="59.3637" ry="7.86121" transform="matrix(-1 0 0 1 122.01 122.504)" fill="black" fill-opacity="0.1"/>
</g>
<path fill-rule="evenodd" clip-rule="evenodd" d="M75.7205 98.8984C71.8945 102.608 68.0686 107.652 64.2427 111.362C66.0783 121.023 62.4843 125.274 66.8126 128.733C68.3778 129.989 77.8846 132.636 83.2177 129.564C83.3337 124.559 80.5898 123.071 77.6721 121.178C74.7157 114.801 75.7784 105.159 75.7205 98.8984Z" fill="#2E93EE"/>
<path fill-rule="evenodd" clip-rule="evenodd" d="M77.9033 130.956C77.227 128.289 75.7778 125.99 72.5122 124.599C75.1015 126.55 76.0483 128.676 75.8744 130.956C76.5507 130.995 77.2463 130.995 77.9033 130.956Z" fill="#1D5297"/>
<path fill-rule="evenodd" clip-rule="evenodd" d="M82.4836 129.931C81.788 127.303 80.3581 125.042 77.1118 123.689C79.9136 125.796 80.8025 128.134 80.3967 130.626C81.131 130.452 81.8266 130.221 82.4836 129.931Z" fill="#1D5297"/>
<path fill-rule="evenodd" clip-rule="evenodd" d="M67.7927 53.0356C70.4566 50.5046 76.4581 48.6465 87.1293 64.078C87.1293 64.078 97.9085 55.3159 99.7797 52.7777C101.651 50.2396 107.117 48.0012 110.158 49.806C111.759 50.7174 111.338 52.0447 112.717 53.3028C112.717 53.3028 113.559 56.7184 112.56 59.2726C112.56 59.2726 107.731 60.6329 104.099 64.2844C104.099 64.2844 91.589 80.4995 87.266 80.2456C82.9625 79.9887 59.2941 61.0808 67.7927 53.0356Z" fill="#2E93EE"/>
<path fill-rule="evenodd" clip-rule="evenodd" d="M31.3461 80.5857C31.3074 81.6098 30.9983 82.6146 30.4379 83.4648C29.5297 84.8947 29.008 84.7401 31.2688 85.9575C32.9499 86.8077 34.7662 87.368 36.6405 87.6192C39.8288 88.1409 39.0752 87.7738 37.684 84.8174C37.0656 83.4841 36.3507 82.2088 35.5198 80.9915C32.4281 76.7018 31.4813 76.9916 31.3461 80.5857Z" fill="#2E93EE"/>
<path fill-rule="evenodd" clip-rule="evenodd" d="M20.081 79.0972C18.9217 81.2613 20.6994 81.5898 22.9795 82.382C23.8297 82.6719 24.7185 82.8844 25.6074 82.9617C28.1773 83.2322 27.5203 82.8651 26.3803 80.7782C25.6847 79.5029 24.9311 78.2663 24.1002 77.0682C19.6173 70.6337 21.7621 75.9475 20.081 79.0972Z" fill="#2E93EE"/>
<path fill-rule="evenodd" clip-rule="evenodd" d="M10.3422 78.1314C10.3616 78.6338 10.3422 79.1168 10.2843 79.6192C10.1104 81.4163 9.91714 81.1071 12.1393 81.3003C13.1247 81.3969 14.1102 81.3969 15.0957 81.2617C17.9361 80.8366 16.8927 79.8511 15.4242 78.2087C14.9218 77.6483 14.3614 77.1266 13.7431 76.6628C8.15876 72.3538 10.265 75.3875 10.3422 78.1314Z" fill="#2E93EE"/>
<path fill-rule="evenodd" clip-rule="evenodd" d="M78.4236 69.9867C78.327 67.8032 78.1917 65.6004 77.8825 63.4169C76.9937 57.0211 79.2351 50.8764 75.3319 45.6785C72.163 41.4275 68.1245 38.2585 63.6996 35.4374C57.4003 31.4182 50.4827 28.114 44.937 23.0321C45.7293 20.3269 46.6761 17.6603 47.7775 15.0518C47.7775 15.0518 31.7588 23.3026 31.8941 25.9305C32.0293 28.4425 36.0872 28.23 37.9615 31.3603C37.9035 31.5728 37.8262 31.7854 37.7682 32.0172C35.9326 33.3312 28.4353 38.8962 28.9956 41.6207C29.556 44.3646 34.5413 43.8042 36.8021 45.35C36.8987 46.2389 36.9953 47.1277 37.1499 48.0166C36.8021 50.0262 36.4929 53.0792 37.4011 54.5284C38.2706 55.9003 38.5218 55.7264 39.0435 56.0163C39.5073 57.5235 40.029 59.0113 40.6087 60.4799C42.0193 64.0739 44.1834 67.3781 45.4008 71.0108C46.2703 73.5421 46.4635 76.2666 45.9418 78.8946C45.652 80.7882 44.7245 82.5079 43.3139 83.8026C41.5362 85.3484 39.1981 85.7735 36.8987 85.6189C33.6525 85.4064 30.5801 83.6866 27.7783 82.1795C20.3197 78.1989 10.3684 78.3342 4.18507 83.9765C3.04502 85.0199 2.13685 86.2952 1.53784 87.7251C1.30596 88.2275 1.47987 88.8265 1.9243 89.155C3.06435 90.0632 4.47492 89.155 5.49903 88.6913C7.48929 87.7831 10.2911 85.6769 14.3296 87.2227C17.943 88.5947 21.9428 91.9375 24.6094 94.662C26.9281 97.0001 29.5947 98.6039 31.7395 101.097C35.0051 104.903 37.6909 106.7 41.7488 109.676C52.2218 117.366 61.4388 115.357 69.8442 106.43C76.5493 99.2995 77.0517 91.551 78.0178 82.0249C78.4622 77.9864 78.5782 73.9865 78.4236 69.9867Z" fill="#2E93EE"/>
<path fill-rule="evenodd" clip-rule="evenodd" d="M15.6914 87.6957C21.1018 90.4009 26.8214 96.449 32.3477 102.999C39.5552 111.559 57.5448 124.158 72.404 104.352C86.3938 85.6861 79.8047 59.5423 78.9932 56.5665C78.9545 56.4699 78.9352 56.3733 78.8965 56.2574C78.4328 55.6584 65.9502 39.7363 54.5304 37.3789C51.4774 40.0261 50.8977 44.683 54.9555 52.7213C61.7765 66.2473 67.2448 85.9566 55.1101 98.0528C53.313 99.9077 51.0909 101.299 48.6562 102.13C40.0189 104.97 35.4587 99.7338 30.0676 94.6906C26.1064 90.9419 21.0825 88.4879 15.6914 87.6957Z" fill="#FFCF00"/>
<path fill-rule="evenodd" clip-rule="evenodd" d="M74.0658 101.935C70.607 101.491 64.6748 100.158 59.6509 96.042C59.6509 96.042 63.2063 102.283 72.404 104.351C72.9837 103.559 73.544 102.747 74.0658 101.935Z" fill="#ECA93E"/>
<path fill-rule="evenodd" clip-rule="evenodd" d="M49.7959 103.134C51.8441 107.481 54.8198 111.327 58.4912 114.418C59.6699 114.148 60.8099 113.761 61.9113 113.259C58.6265 111.752 53.0615 108.564 49.7959 103.134Z" fill="#ECA93E"/>
<path fill-rule="evenodd" clip-rule="evenodd" d="M31.4585 101.956C31.7483 102.304 32.0575 102.652 32.3473 102.999C32.4826 103.154 32.6179 103.328 32.7531 103.482C32.5406 102.052 32.5792 100.661 33.1396 99.6758C32.5213 100.41 31.9609 101.164 31.4585 101.956Z" fill="#ECA93E"/>
<path fill-rule="evenodd" clip-rule="evenodd" d="M37.4487 108.004C38.0671 108.506 38.724 109.008 39.4003 109.491C38.9366 107.327 38.7434 105.086 39.4776 103.811C38.6274 105.144 37.9511 106.535 37.4487 108.004Z" fill="#ECA93E"/>
<path fill-rule="evenodd" clip-rule="evenodd" d="M25.7002 95.695C26.1639 96.1588 26.6277 96.6419 27.0914 97.1249C27.0721 96.1201 27.1881 95.1153 27.4199 94.1299C26.7823 94.613 26.2219 95.1347 25.7002 95.695Z" fill="#ECA93E"/>
<path fill-rule="evenodd" clip-rule="evenodd" d="M63.5151 85.6859C70.626 83.4058 77.331 84.7584 80.2681 85.6665C80.4033 84.8936 80.5386 84.1207 80.6352 83.3478C69.6791 80.7585 63.5151 85.6859 63.5151 85.6859Z" fill="#ECA93E"/>
<path fill-rule="evenodd" clip-rule="evenodd" d="M80.9833 68.5265C80.906 67.5797 80.8094 66.6908 80.7128 65.8213C69.0804 65.5315 63.0903 71.1931 63.0903 71.1931C70.0466 67.3865 77.4086 67.9275 80.9833 68.5265Z" fill="#ECA93E"/>
<path fill-rule="evenodd" clip-rule="evenodd" d="M76.3844 53.2817C75.9399 52.76 75.4182 52.1996 74.8772 51.6006C62.5105 51.6006 59.187 57.3395 59.187 57.3395C64.3076 54.1126 70.3556 52.6827 76.3844 53.2817Z" fill="#ECA93E"/>
<path fill-rule="evenodd" clip-rule="evenodd" d="M80.809 66.7501C80.5192 63.9676 80.0554 61.1851 79.4371 58.4413C79.1472 58.2674 78.8381 58.0741 78.5482 57.9002C74.6064 55.3303 57.2351 44.7993 52.1532 41.7656C52.0372 42.5385 52.0372 43.3115 52.0952 44.1037C57.5056 51.5237 69.4858 64.1802 80.809 66.7501Z" fill="#ECA93E"/>
<path fill-rule="evenodd" clip-rule="evenodd" d="M41.4335 96.96C43.2498 94.2741 46.3801 93.2307 48.6023 93.5205C56.544 94.5639 54.032 103.955 52.1383 109.501C50.6505 113.848 49.8776 119.336 49.8776 121.848C49.8969 127.316 51.9644 128.959 49.4138 131.104C47.211 132.959 40.8924 135.606 35.54 134.968C31.1344 133.963 30.9991 124.882 38.0326 122.582C39.9842 118.35 39.907 114.003 39.7524 109.481C39.6558 106.409 39.4046 99.9743 41.4335 96.96Z" fill="#2E93EE"/>
<path fill-rule="evenodd" clip-rule="evenodd" d="M39.752 134.871C40.3703 134.775 41.0079 134.659 41.607 134.523C41.0659 131.857 41.8775 129.094 43.7904 127.181C40.9113 128.823 39.9645 131.625 39.752 134.871Z" fill="#1D5297"/>
<path fill-rule="evenodd" clip-rule="evenodd" d="M35.4817 134.928C34.9407 132.165 35.4624 129.035 37.6073 126.735C34.9214 128.262 33.9166 130.812 33.6074 133.769C34.0905 134.349 34.7475 134.754 35.4817 134.928Z" fill="#1D5297"/>
<path fill-rule="evenodd" clip-rule="evenodd" d="M39.5662 85.4542C39.5662 85.4542 38.6581 90.71 42.2135 92.4877C45.2278 93.9756 48.9378 94.0142 50.7928 91.7921C53.3434 88.7197 57.1501 82.3818 46.8703 76.1985C40.5324 72.3726 40.2039 85.3576 40.2039 85.3576L39.5662 85.4542Z" fill="#1D5297"/>
<path fill-rule="evenodd" clip-rule="evenodd" d="M40.4355 60.2385C41.7688 63.1369 42.9862 65.3783 43.0441 65.5909C43.0441 65.5909 51.3336 55.3111 49.7878 53.6107C48.0874 51.7364 41.7302 57.9584 40.4355 60.2385Z" fill="#1D5297"/>
<path fill-rule="evenodd" clip-rule="evenodd" d="M48.5125 45.2046C57.401 53.784 38.9283 65.1652 38.9283 65.1652C40.9379 66.4405 43.4885 70.7688 45.3822 73.9571C47.2758 77.1454 48.0294 76.6043 50.3675 79.2516C52.7055 81.8988 46.0585 85.8213 46.0585 85.8213C46.0585 85.8213 23.8372 73.8025 23.8951 66.112C23.8951 65.1652 29.0543 56.5858 34.2715 51.2913C36.8994 48.6248 44.2614 41.0889 48.5125 45.2046Z" fill="#2E93EE"/>
<path fill-rule="evenodd" clip-rule="evenodd" d="M39.8752 81.551C39.8752 81.551 38.2134 89.7439 43.1021 92.1206C43.1021 92.1206 47.0633 92.3911 49.0729 90.9419C49.0729 90.9419 54.0968 83.2514 50.3482 79.2515C46.6189 75.2517 39.8752 81.551 39.8752 81.551Z" fill="#2E93EE"/>
<path fill-rule="evenodd" clip-rule="evenodd" d="M39.7784 82.1309C39.7784 82.1309 46.2129 85.5703 47.3336 85.8988C46.2129 86.0534 45.0729 85.8795 44.0488 85.3964C44.0488 85.3964 42.387 88.5267 44.3193 90.4977C44.3193 90.4977 41.3629 89.976 42.4256 85.0486L39.7397 82.2854L39.7784 82.1309Z" fill="#2E578C"/>
<path fill-rule="evenodd" clip-rule="evenodd" d="M45.5371 20.0629C45.5371 20.0629 48.88 0.334238 57.0729 0.00574878C62.4446 -0.226126 65.1692 6.6335 65.1692 6.6335C65.1692 6.6335 69.5361 6.34365 74.4635 9.39667C74.4635 9.39667 75.9706 6.69146 78.5406 7.56099C81.1105 8.43052 83.8737 14.1501 82.8496 23.5603C85.3229 23.9275 87.4678 25.4153 88.7044 27.5795C88.7044 27.5795 87.5837 29.2219 85.9026 29.3765C84.2022 29.5311 76.8981 26.8645 74.9079 28.6036C72.9176 30.3427 72.0481 31.6566 72.2993 34.8642C72.2993 34.8642 64.261 34.0913 60.6283 29.4925C56.9956 24.8936 53.9232 15.9471 45.5371 20.0629Z" fill="#2E93EE"/>
<path d="M73.3813 21.4937C73.3813 21.4937 75.3909 14.8659 79.2555 13.0303C79.3908 16.2379 79.7386 19.4261 80.2989 22.5951C78.0188 22.0927 75.7001 21.7256 73.3813 21.4937Z" fill="#F1F1F2"/>
<path d="M55.8945 7.92773C55.8945 7.92773 60.8798 10.3044 64.1454 20.6422C64.1454 20.6422 56.3196 19.3669 52.8608 19.6374C52.8802 19.6181 56.0491 13.7439 55.8945 7.92773Z" fill="#F1F1F2"/>
<path fill-rule="evenodd" clip-rule="evenodd" d="M57.9621 12.5078C59.1794 12.5078 60.1649 13.8604 60.1649 15.5415C60.1649 17.2226 59.1794 18.5752 57.9621 18.5752C56.7447 18.5752 55.7593 17.2226 55.7593 15.5415C55.7593 13.8604 56.7447 12.5078 57.9621 12.5078Z" fill="#1D5297"/>
<path fill-rule="evenodd" clip-rule="evenodd" d="M76.5117 20.5451C77.4585 20.5451 78.2508 19.521 78.2508 18.2457C78.2508 16.9704 77.4779 15.9463 76.5117 15.9463C76.3378 15.9463 76.1446 15.9849 75.99 16.0622C75.4683 16.6419 75.0625 17.3375 74.8113 18.0718C74.8113 18.1298 74.792 18.1877 74.792 18.2457C74.792 19.521 75.5649 20.5451 76.5117 20.5451Z" fill="#1D5297"/>
<path fill-rule="evenodd" clip-rule="evenodd" d="M82.4631 41.6084C82.4631 41.6084 88.8783 41.5117 91.0424 40.9127C93.2066 40.333 98.5204 39.4249 98.018 32.488C97.6702 27.3674 90.9072 25.1259 85.9605 28.72C81.9027 27.8118 77.4005 25.1259 73.362 29.1644C70.5022 32.0242 72.1447 34.7874 72.1447 34.7874C72.1447 34.7874 63.7199 33.4348 60.8215 29.1451C57.9037 24.8554 54.1551 19.1165 50.02 18.7107C47.8558 18.4982 44.2038 18.189 42.0783 22.3048C39.9527 26.4399 38.9093 33.8985 54.5802 45.7048C70.251 57.5111 77.1686 60.6994 80.5694 60.6994C84.9364 60.6994 85.1876 59.0762 90.2116 58.3613C92.7622 57.9942 94.7138 53.6465 91.912 49.8979C89.0908 46.1492 82.4631 41.6084 82.4631 41.6084Z" fill="#FFCF00"/>
<path fill-rule="evenodd" clip-rule="evenodd" d="M54.7348 25.279C54.7348 25.279 51.3532 21.3565 48.0684 24.5447C45.3438 27.1727 47.3727 31.5783 47.3727 31.5783C47.3727 31.5783 47.566 27.7717 49.3243 28.0229C49.3243 28.0229 50.8122 37.5104 64.686 46.9786C78.5599 56.4468 82.4244 55.6159 85.4388 54.8237C88.4532 54.0315 91.8927 52.4856 90.7333 50.0509C89.5739 47.6163 82.4824 41.5875 82.4824 41.5875C82.4824 41.5875 79.3134 43.9642 73.2654 41.858C67.2367 39.7325 57.382 33.3367 52.2035 26.0713C52.2035 26.0713 52.474 24.2935 54.5415 25.2983" fill="#F47924"/>
<path fill-rule="evenodd" clip-rule="evenodd" d="M68.4814 37.7012C68.5781 37.7398 68.6747 37.7978 68.7713 37.8558C68.6747 37.7978 68.5781 37.7398 68.4814 37.7012Z" fill="#C56428"/>
<path fill-rule="evenodd" clip-rule="evenodd" d="M81.5935 42.0724C80.2602 42.6327 77.4584 43.3283 73.2653 41.8598C70.193 40.7777 66.1158 38.5749 62.1933 35.7345C59.1789 35.2321 56.1066 35.3287 53.1309 36.005C55.411 39.2319 59.005 43.1158 64.6859 46.9997C78.5598 56.4872 82.4243 55.637 85.4387 54.8448C86.5015 54.5743 87.5256 54.2071 88.511 53.7434C87.6608 46.5359 83.1779 43.3477 81.5935 42.0724Z" fill="#E05406"/>
<path fill-rule="evenodd" clip-rule="evenodd" d="M77.9225 31.9465C79.3331 31.5021 80.4152 33.3957 78.5602 34.2266C78.2897 34.9222 78.7148 35.6952 79.8548 35.9657C76.2414 36.6999 76.1062 32.6035 77.9225 31.9465Z" fill="#ECA93E"/>
<path fill-rule="evenodd" clip-rule="evenodd" d="M93.844 31.3675C92.6847 31.0004 91.7958 32.5655 93.3223 33.2418C93.5349 33.8215 93.1871 34.4592 92.2402 34.6717C95.216 35.2901 95.3319 31.9086 93.844 31.3675Z" fill="#ECA93E"/>
<path fill-rule="evenodd" clip-rule="evenodd" d="M77.497 47.8294C79.7578 48.4864 81.3422 43.5011 81.7673 41.9746C80.8205 42.419 78.9076 43.018 76.0864 42.5736C76.2797 43.1533 76.4729 43.733 76.5888 44.1774C76.956 45.5493 76.5888 47.5589 77.497 47.8294Z" fill="#EBEEF2"/>
<path fill-rule="evenodd" clip-rule="evenodd" d="M91.0427 40.9127C90.5983 41.0286 90.1539 41.1059 89.7095 41.1639C89.9413 41.589 90.1346 42.0141 90.2892 42.3426C90.8688 43.6372 90.8302 45.6854 91.777 45.8014C94.0764 46.0912 94.8494 41.1059 95.0426 39.4248C93.6127 40.3137 92.0089 40.6421 91.0427 40.9127Z" fill="#EBEEF2"/>
<path d="M99.0469 54.6213C99.0469 54.6213 100.399 59.8875 106.279 60.8153C112.158 61.7431 115.76 60.9065 119.905 57.117C119.905 57.117 122.966 54.8064 122.945 52.0911C122.908 51.2268 122.403 50.2021 121.92 49.9601C121.743 49.8715 121.493 49.9894 121.169 50.3137C121.305 49.6025 121.306 49.0064 121.173 48.5259C121.067 48.1437 120.717 47.3098 120.442 47.0733C120.229 46.891 119.5 47.1072 119.255 47.0754C119.166 47.0637 119.016 47.0473 118.803 47.0262C118.784 46.5794 118.655 46.1682 118.457 45.8138C118.416 45.7396 118.297 45.52 118.159 45.2819C117.972 44.9602 117.749 44.6048 117.63 44.5293C117.483 44.4369 117.115 44.316 116.72 44.3402C116.225 44.3706 115.763 44.63 115.462 45.0288C115.006 45.6326 113.921 47.0402 112.445 48.3428C111.316 48.8183 109.234 49.3552 107.216 49.1838C107.492 45.2084 106.827 43.1053 105.222 42.8736C104.691 42.7971 104.314 42.8648 104.048 43.0264C103.981 43.0669 103.882 42.8641 103.2 42.7124C102.827 43.9661 103.516 45.5626 103.442 46.0072C103.138 47.8377 102.353 47.9697 101.944 49.0217C100.098 53.7619 99.0469 54.6213 99.0469 54.6213Z" fill="#2E93EE"/>
<path fill-rule="evenodd" clip-rule="evenodd" d="M115.151 56.7125C115.151 56.7125 110.416 50.1427 107.089 48.9489C107.089 48.9489 110.03 51.1089 109.547 51.8818C109.547 51.8818 108.967 55.5531 104.433 53.7754C104.433 53.7754 107.711 55.843 110.531 52.909C110.531 52.909 110.223 52.3649 112.059 53.6209C113.895 54.8769 115.151 56.7125 115.151 56.7125Z" fill="#1D5297"/>
<path d="M115.054 50.2393C116.6 49.3698 117.276 48.5969 118.435 47.4375C118.435 47.4375 117.856 48.7901 116.503 49.7562C115.15 50.7224 114.184 51.1088 114.184 51.1088L113.315 51.0122C112.639 50.819 113.758 50.9682 115.054 50.2393Z" fill="#1D5297"/>
<path d="M117.576 53.8145C119.122 52.945 119.798 52.1721 120.958 51.0127C120.958 51.0127 120.378 52.3653 119.026 53.3314C117.673 54.2976 116.707 54.684 116.707 54.684L115.837 54.5874C115.161 54.3942 116.281 54.5434 117.576 53.8145Z" fill="#1D5297"/>
<defs>
<filter id="filter0_f_3139_7448" x="-0.0920436" y="119.13" width="125.476" height="22.4712" filterUnits="userSpaceOnUse" color-interpolation-filters="sRGB">
<feFlood flood-opacity="0" result="BackgroundImageFix"/>
<feBlend mode="normal" in="SourceGraphic" in2="BackgroundImageFix" result="shape"/>
<feGaussianBlur stdDeviation="1.68714" result="effect1_foregroundBlur_3139_7448"/>
</filter>
</defs>
</svg>
