<svg width="88" height="78" viewBox="0 0 88 78" fill="none" xmlns="http://www.w3.org/2000/svg">
<path fill-rule="evenodd" clip-rule="evenodd" d="M19.0573 21.2559C19.0573 21.2559 0.0873089 34.9959 0.780309 38.3229C1.47331 41.6499 7.02531 40.3419 9.98031 44.5299C9.98031 44.5299 -1.29969 55.1519 0.124311 59.0169C1.54831 62.8819 9.39631 60.2039 11.9643 63.0599C11.9643 63.0599 11.1793 71.3039 13.4343 73.9299C15.6893 76.5559 15.0343 74.0969 18.1343 77.4299C18.1413 77.4289 12.2703 47.9859 19.0573 21.2559Z" fill="#3C97FF"/>
<path fill-rule="evenodd" clip-rule="evenodd" d="M17.1572 28.1643C17.1572 28.1643 17.5972 2.18227 28.0472 0.146267C34.9172 -1.19173 39.7392 7.09026 39.7392 7.09026C43.9809 6.45578 48.3156 7.05602 52.2252 8.81927C52.2252 8.81927 53.6252 5.04127 57.0932 5.65927C60.5612 6.27727 65.2262 13.0813 65.7562 25.3533C67.3558 25.3529 68.9347 25.7143 70.3748 26.4104C71.8149 27.1066 73.0789 28.1195 74.0722 29.3733C73.7438 30.04 73.2868 30.6353 72.7275 31.1247C72.1682 31.6142 71.5177 31.9882 70.8132 32.2253C68.6642 32.7433 58.7452 30.7503 56.5342 33.3783C54.3232 36.0063 53.4592 37.8573 54.3952 41.9183C54.3952 41.9183 43.9132 42.4943 38.3452 37.2923C32.7772 32.0903 27.1182 21.2333 17.1572 28.1643Z" fill="#3C97FF"/>
<path d="M53.1924 24.5495C53.1924 24.5495 54.4824 15.6555 59.0854 12.5195C59.8811 16.6144 60.9522 20.6509 62.2914 24.6015C59.2619 24.4004 56.223 24.3827 53.1914 24.5485L53.1924 24.5495Z" fill="#F1F1F2"/>
<path d="M28.0773 10.5391C28.0773 10.5391 34.9353 12.6271 41.1693 25.2461C41.1693 25.2461 30.8563 25.1461 26.4883 26.1581C26.4873 26.1581 29.4193 17.9881 28.0773 10.5391Z" fill="#F1F1F2"/>
<path fill-rule="evenodd" clip-rule="evenodd" d="M31.6229 16.0123C33.1809 15.7753 34.7099 17.3223 35.0369 19.4693C35.3639 21.6163 34.3639 23.5493 32.8059 23.7853C31.2479 24.0213 29.7199 22.4743 29.3929 20.3283C29.0659 18.1823 30.0649 16.2483 31.6229 16.0123Z" fill="#2E578C"/>
<path fill-rule="evenodd" clip-rule="evenodd" d="M57.0385 22.7216C58.2665 22.5346 59.0606 21.0666 58.8136 19.4406C58.5666 17.8146 57.3706 16.6506 56.1436 16.8406C55.9088 16.881 55.6849 16.9692 55.4856 17.0996C54.9321 17.9541 54.5471 18.9065 54.3516 19.9056C54.3586 19.9776 54.3566 20.0486 54.3676 20.1206C54.6146 21.7426 55.8105 22.9076 57.0385 22.7216Z" fill="#2E578C"/>
<path fill-rule="evenodd" clip-rule="evenodd" d="M29.9738 33.0703C29.9738 33.0703 24.8558 28.7013 21.2608 33.4213C18.2848 37.3293 21.7528 42.6013 21.7528 42.6013C21.7528 42.6013 21.2608 37.6743 23.5758 37.6623C23.5758 37.6623 27.3318 49.5453 47.0008 59.0073C66.6698 68.4693 71.4688 66.6253 75.1898 65.0163C78.9108 63.4073 83.0308 60.7613 81.0588 57.8613C79.0868 54.9613 68.7968 48.5943 68.7968 48.5943C68.7968 48.5943 65.1818 52.2753 57.0158 50.7343C48.8498 49.1933 34.9488 42.8883 26.8688 34.5863C26.8688 34.5863 26.8818 32.2573 29.7188 33.1283" fill="#F47924"/>
<path fill-rule="evenodd" clip-rule="evenodd" d="M29.6992 47.2819C34.4331 45.3564 39.574 44.6474 44.6523 45.2199C49.7307 45.7923 54.5848 47.6279 58.7712 50.5589L56.6112 49.7749C56.6112 49.7749 65.7012 47.9289 67.1622 49.0049C68.6232 50.0809 76.4992 53.0579 79.0862 63.6579C79.8402 66.7459 72.6862 69.6399 54.9632 63.9419C43.9122 60.3899 29.6992 47.2819 29.6992 47.2819Z" fill="#F26A23"/>
<path fill-rule="evenodd" clip-rule="evenodd" d="M50.0635 46.3164C50.1945 46.3604 50.3305 46.4034 50.4745 46.4454C50.3375 46.3964 50.2005 46.3574 50.0635 46.3164Z" fill="#C56428"/>
<path fill-rule="evenodd" clip-rule="evenodd" d="M68.0353 48.6408C68.0353 48.6408 67.2003 58.0778 63.6223 57.5918C62.4143 57.4278 62.4973 54.7718 61.7523 53.0758C61.0073 51.3798 59.1973 48.1758 59.1973 48.1758L68.0353 48.6408Z" fill="#EBEEF2"/>
<path fill-rule="evenodd" clip-rule="evenodd" d="M84.4825 42.6191C84.4825 42.6191 85.1825 52.0671 81.5755 52.1661C80.3565 52.2001 80.0095 49.5661 78.9995 48.0121C77.9895 46.4581 75.6865 43.5911 75.6865 43.5911L84.4825 42.6191Z" fill="#EBEEF2"/>
<path fill-rule="evenodd" clip-rule="evenodd" d="M87.0069 33.8577C85.5489 27.3577 76.4369 25.7877 70.7809 31.3797C65.4019 31.0147 59.0929 28.4257 54.6809 34.4207C51.5609 38.6617 54.2039 41.8857 54.2039 41.8857C54.2039 41.8857 43.1259 41.7857 38.5479 36.8457C33.9699 31.9057 28.0209 25.2737 22.6369 25.5597C19.8089 25.7097 15.0529 26.0177 13.1369 31.7357C11.2209 37.4537 11.3259 47.2507 33.7619 59.3507C56.1979 71.4507 65.7039 74.1877 70.0809 73.5157C75.6809 72.6567 75.7029 70.5237 82.0019 68.6407C85.2189 67.6807 86.8619 61.7087 82.5229 57.4287C78.1839 53.1487 68.7939 48.5937 68.7939 48.5937C68.7939 48.5937 79.0869 54.9597 81.0579 57.8587C83.0289 60.7577 78.9099 63.4037 75.1889 65.0137C71.4679 66.6237 66.6689 68.4667 46.9999 59.0047C27.3309 49.5427 23.5749 37.6597 23.5749 37.6597C21.2599 37.6717 21.7519 42.5987 21.7519 42.5987C21.7519 42.5987 18.2839 37.3287 21.2599 33.4187C24.8599 28.6987 29.9739 33.0697 29.9739 33.0697L29.7139 33.1287C26.8779 32.2577 26.8639 34.5867 26.8639 34.5867C34.9459 42.8867 48.8469 49.1937 57.0129 50.7337C65.1789 52.2737 68.7939 48.5937 68.7939 48.5937C68.7939 48.5937 77.0019 47.2057 79.6759 46.0337C82.3499 44.8617 88.9839 42.6657 87.0069 33.8577Z" fill="#FFCF00"/>
<path fill-rule="evenodd" clip-rule="evenodd" d="M61.0644 37.0914C62.7854 36.2334 64.5494 38.4614 62.3244 39.8914C62.1244 40.8414 62.8144 41.7414 64.3334 41.8664C59.8464 43.5264 58.8604 38.2894 61.0634 37.0924" fill="#ECA93E"/>
<path fill-rule="evenodd" clip-rule="evenodd" d="M81.4002 33.2314C79.8332 32.9774 78.9902 35.1654 81.0942 35.7454C81.4842 36.4454 81.1622 37.3234 79.9942 37.7944C83.9362 38.0004 83.4292 33.6334 81.3942 33.2314" fill="#ECA93E"/>
</svg>
