<svg xmlns="http://www.w3.org/2000/svg" width="140.215" height="110.019" viewBox="0 0 140.215 110.019">
  <g id="Triangulo_Branco_Titan" data-name="Triangulo Branco + Titan" transform="translate(-1355.546 -519.642)">
    <path id="Caminho_247786" data-name="Caminho 247786" d="M36.385-1.845V108.175H-103.829Z" transform="translate(1459.375 521.486)" fill="#F1F3F6"/>
    <g id="Titan" transform="translate(1414.5 594)">
      <g id="Grupo_39997" data-name="Grupo 39997">
        <path id="Caminho_247789" data-name="Caminho 247789" d="M9.632-9.168V-10.72H.368v1.552h3.76V0H5.856V-9.168Zm2.6-2.192a1.045,1.045,0,0,0-1.072,1.04A1.014,1.014,0,0,0,12.232-9.3a1.009,1.009,0,0,0,1.056-1.024A1.041,1.041,0,0,0,12.232-11.36ZM13.064,0V-7.936H11.4V0ZM20.48-1.776a2.609,2.609,0,0,1-1.344.432c-.784,0-1.312-.48-1.312-1.472V-6.56h2.72V-7.936h-2.72V-10.72H16.16v2.784H14.448V-6.56H16.16V-2.7A2.636,2.636,0,0,0,19.024.224a3.553,3.553,0,0,0,1.968-.608ZM25.7-8.16a3.249,3.249,0,0,0-3.424,2.5l1.584.336A1.734,1.734,0,0,1,25.8-6.7,1.579,1.579,0,0,1,27.5-5.04v.24h-2.48c-2.048,0-3.184,1.024-3.184,2.512S23.016.224,24.792.224A3.5,3.5,0,0,0,27.5-.912V0H29.08V-5.168C29.08-7.088,27.736-8.16,25.7-8.16Zm-.656,7.04c-.976,0-1.616-.48-1.616-1.2,0-.7.576-1.2,1.552-1.2H27.5v.256A2.3,2.3,0,0,1,25.048-1.12ZM35.68-8.16a3.427,3.427,0,0,0-2.752,1.2v-.976H31.264V0h1.664V-3.664c0-2,.944-2.96,2.368-2.96a1.922,1.922,0,0,1,1.888,2.16V0h1.68V-4.8A3.115,3.115,0,0,0,35.68-8.16Z" transform="translate(32.5 19)" fill="#4a4a4a"/>
        <g id="logo-titan">
          <rect id="boundary" width="28" height="28" transform="translate(0.5)" fill="none"/>
          <path id="logo" d="M20.27,1.3a.506.506,0,0,0-.713-.452L9.928,5.041a.494.494,0,0,0-.3.452V17.8a.506.506,0,0,0,.733.442l6.081-2.966a.493.493,0,0,0,.28-.442V8.2l3.292-1.835a.493.493,0,0,0,.255-.406V1.3Zm-1.014.762v3.58L15.964,7.481a.493.493,0,0,0-.255.406v6.639L10.641,17V5.814ZM1.014,0a.993.993,0,0,0-1,1.179A.487.487,0,0,0,0,1.3V5.956a.493.493,0,0,0,.255.406L3.547,8.2v6.634a.493.493,0,0,0,.28.442L9.908,18.24a.506.506,0,0,0,.733-.442V5.806l9.025-3.914A.985.985,0,0,0,19.288,0H1.014Zm0,2.07,3.466,1.5,5.149,2.24V17L4.56,14.526V7.887a.493.493,0,0,0-.255-.406L1.013,5.646ZM1.027.989H19.255l-9.12,3.955L4.9,2.674ZM.2.989H0v.4H.2Zm20.068,0h-.2v.4h.2Z" transform="translate(3.501 4.5)" fill="#4a4a4a" stroke="#4a4a4a" stroke-width="0.7"/>
        </g>
      </g>
    </g>
  </g>
</svg>
