<svg xmlns="http://www.w3.org/2000/svg" xmlns:xlink="http://www.w3.org/1999/xlink" width="79" height="106" viewBox="0 0 79 106">
  <defs>
    <clipPath id="clip-path">
      <circle id="Elipse_1185" data-name="Elipse 1185" cx="31" cy="31" r="31" transform="translate(1373 -1131)" fill="#fff"/>
    </clipPath>
  </defs>
  <g id="titan_dark" transform="translate(-1191 -520)">
    <g id="Grupo_de_máscara_39720" data-name="Grupo de máscara 39720" transform="translate(-165 1672)" clip-path="url(#clip-path)">
      <g id="Grupo_36317" data-name="Grupo 36317" transform="translate(1316.786 -1158.408)">
        <circle id="Elipse_1062" data-name="Elipse 1062" cx="1.428" cy="1.428" r="1.428" transform="translate(0 0)" fill="#ccd6e3"/>
        <circle id="Elipse_1062-2" data-name="Elipse 1062" cx="1.428" cy="1.428" r="1.428" transform="translate(14.28 0)" fill="#ccd6e3"/>
        <circle id="Elipse_1062-3" data-name="Elipse 1062" cx="1.428" cy="1.428" r="1.428" transform="translate(28.56 0)" fill="#ccd6e3"/>
        <circle id="Elipse_1062-4" data-name="Elipse 1062" cx="1.428" cy="1.428" r="1.428" transform="translate(42.84 0)" fill="#ccd6e3"/>
        <circle id="Elipse_1062-5" data-name="Elipse 1062" cx="1.428" cy="1.428" r="1.428" transform="translate(57.121 0)" fill="#ccd6e3"/>
        <circle id="Elipse_1062-6" data-name="Elipse 1062" cx="1.428" cy="1.428" r="1.428" transform="translate(71.401 0)" fill="#ccd6e3"/>
        <circle id="Elipse_1062-7" data-name="Elipse 1062" cx="1.428" cy="1.428" r="1.428" transform="translate(85.681 0)" fill="#ccd6e3"/>
        <circle id="Elipse_1062-8" data-name="Elipse 1062" cx="1.428" cy="1.428" r="1.428" transform="translate(99.961 0)" fill="#ccd6e3"/>
        <circle id="Elipse_1062-9" data-name="Elipse 1062" cx="1.428" cy="1.428" r="1.428" transform="translate(114.241 0)" fill="#ccd6e3"/>
        <circle id="Elipse_1062-10" data-name="Elipse 1062" cx="1.428" cy="1.428" r="1.428" transform="translate(0 14.28)" fill="#ccd6e3"/>
        <circle id="Elipse_1062-11" data-name="Elipse 1062" cx="1.428" cy="1.428" r="1.428" transform="translate(14.28 14.28)" fill="#ccd6e3"/>
        <circle id="Elipse_1062-12" data-name="Elipse 1062" cx="1.428" cy="1.428" r="1.428" transform="translate(28.56 14.28)" fill="#ccd6e3"/>
        <circle id="Elipse_1062-13" data-name="Elipse 1062" cx="1.428" cy="1.428" r="1.428" transform="translate(42.84 14.28)" fill="#ccd6e3"/>
        <circle id="Elipse_1062-14" data-name="Elipse 1062" cx="1.428" cy="1.428" r="1.428" transform="translate(57.121 14.28)" fill="#ccd6e3"/>
        <circle id="Elipse_1062-15" data-name="Elipse 1062" cx="1.428" cy="1.428" r="1.428" transform="translate(71.401 14.28)" fill="#ccd6e3"/>
        <circle id="Elipse_1062-16" data-name="Elipse 1062" cx="1.428" cy="1.428" r="1.428" transform="translate(85.681 14.28)" fill="#ccd6e3"/>
        <circle id="Elipse_1062-17" data-name="Elipse 1062" cx="1.428" cy="1.428" r="1.428" transform="translate(99.961 14.28)" fill="#ccd6e3"/>
        <circle id="Elipse_1062-18" data-name="Elipse 1062" cx="1.428" cy="1.428" r="1.428" transform="translate(114.241 14.28)" fill="#ccd6e3"/>
        <circle id="Elipse_1062-19" data-name="Elipse 1062" cx="1.428" cy="1.428" r="1.428" transform="translate(0 28.56)" fill="#ccd6e3"/>
        <circle id="Elipse_1062-20" data-name="Elipse 1062" cx="1.428" cy="1.428" r="1.428" transform="translate(14.28 28.56)" fill="#ccd6e3"/>
        <circle id="Elipse_1062-21" data-name="Elipse 1062" cx="1.428" cy="1.428" r="1.428" transform="translate(28.56 28.56)" fill="#ccd6e3"/>
        <circle id="Elipse_1062-22" data-name="Elipse 1062" cx="1.428" cy="1.428" r="1.428" transform="translate(42.84 28.56)" fill="#ccd6e3"/>
        <circle id="Elipse_1062-23" data-name="Elipse 1062" cx="1.428" cy="1.428" r="1.428" transform="translate(57.121 28.56)" fill="#ccd6e3"/>
        <circle id="Elipse_1062-24" data-name="Elipse 1062" cx="1.428" cy="1.428" r="1.428" transform="translate(71.401 28.56)" fill="#ccd6e3"/>
        <circle id="Elipse_1062-25" data-name="Elipse 1062" cx="1.428" cy="1.428" r="1.428" transform="translate(85.681 28.56)" fill="#ccd6e3"/>
        <circle id="Elipse_1062-26" data-name="Elipse 1062" cx="1.428" cy="1.428" r="1.428" transform="translate(99.961 28.56)" fill="#ccd6e3"/>
        <circle id="Elipse_1062-27" data-name="Elipse 1062" cx="1.428" cy="1.428" r="1.428" transform="translate(114.241 28.56)" fill="#ccd6e3"/>
        <circle id="Elipse_1062-28" data-name="Elipse 1062" cx="1.428" cy="1.428" r="1.428" transform="translate(128.521 28.56)" fill="#ccd6e3"/>
        <circle id="Elipse_1062-29" data-name="Elipse 1062" cx="1.428" cy="1.428" r="1.428" transform="translate(0 42.84)" fill="#ccd6e3"/>
        <circle id="Elipse_1062-30" data-name="Elipse 1062" cx="1.428" cy="1.428" r="1.428" transform="translate(14.28 42.84)" fill="#ccd6e3"/>
        <circle id="Elipse_1062-31" data-name="Elipse 1062" cx="1.428" cy="1.428" r="1.428" transform="translate(28.56 42.84)" fill="#ccd6e3"/>
        <circle id="Elipse_1062-32" data-name="Elipse 1062" cx="1.428" cy="1.428" r="1.428" transform="translate(42.84 42.84)" fill="#ccd6e3"/>
        <circle id="Elipse_1062-33" data-name="Elipse 1062" cx="1.428" cy="1.428" r="1.428" transform="translate(57.121 42.84)" fill="#ccd6e3"/>
        <circle id="Elipse_1062-34" data-name="Elipse 1062" cx="1.428" cy="1.428" r="1.428" transform="translate(71.401 42.84)" fill="#ccd6e3"/>
        <circle id="Elipse_1062-35" data-name="Elipse 1062" cx="1.428" cy="1.428" r="1.428" transform="translate(85.681 42.84)" fill="#ccd6e3"/>
        <circle id="Elipse_1062-36" data-name="Elipse 1062" cx="1.428" cy="1.428" r="1.428" transform="translate(99.961 42.84)" fill="#ccd6e3"/>
        <circle id="Elipse_1062-37" data-name="Elipse 1062" cx="1.428" cy="1.428" r="1.428" transform="translate(114.241 42.84)" fill="#ccd6e3"/>
        <circle id="Elipse_1062-38" data-name="Elipse 1062" cx="1.428" cy="1.428" r="1.428" transform="translate(128.521 42.84)" fill="#ccd6e3"/>
        <circle id="Elipse_1062-39" data-name="Elipse 1062" cx="1.428" cy="1.428" r="1.428" transform="translate(0 57.121)" fill="#ccd6e3"/>
        <circle id="Elipse_1062-40" data-name="Elipse 1062" cx="1.428" cy="1.428" r="1.428" transform="translate(14.28 57.121)" fill="#ccd6e3"/>
        <circle id="Elipse_1062-41" data-name="Elipse 1062" cx="1.428" cy="1.428" r="1.428" transform="translate(28.56 57.121)" fill="#ccd6e3"/>
        <circle id="Elipse_1062-42" data-name="Elipse 1062" cx="1.428" cy="1.428" r="1.428" transform="translate(42.84 57.121)" fill="#ccd6e3"/>
        <circle id="Elipse_1062-43" data-name="Elipse 1062" cx="1.428" cy="1.428" r="1.428" transform="translate(57.121 57.121)" fill="#ccd6e3"/>
        <circle id="Elipse_1062-44" data-name="Elipse 1062" cx="1.428" cy="1.428" r="1.428" transform="translate(71.401 57.121)" fill="#ccd6e3"/>
        <circle id="Elipse_1062-45" data-name="Elipse 1062" cx="1.428" cy="1.428" r="1.428" transform="translate(85.681 57.121)" fill="#ccd6e3"/>
        <circle id="Elipse_1062-46" data-name="Elipse 1062" cx="1.428" cy="1.428" r="1.428" transform="translate(99.961 57.121)" fill="#ccd6e3"/>
        <circle id="Elipse_1062-47" data-name="Elipse 1062" cx="1.428" cy="1.428" r="1.428" transform="translate(114.241 57.121)" fill="#ccd6e3"/>
        <circle id="Elipse_1062-48" data-name="Elipse 1062" cx="1.428" cy="1.428" r="1.428" transform="translate(128.521 57.121)" fill="#ccd6e3"/>
        <circle id="Elipse_1062-49" data-name="Elipse 1062" cx="1.428" cy="1.428" r="1.428" transform="translate(0 71.401)" fill="#ccd6e3"/>
        <circle id="Elipse_1062-50" data-name="Elipse 1062" cx="1.428" cy="1.428" r="1.428" transform="translate(14.28 71.401)" fill="#ccd6e3"/>
        <circle id="Elipse_1062-51" data-name="Elipse 1062" cx="1.428" cy="1.428" r="1.428" transform="translate(28.56 71.401)" fill="#ccd6e3"/>
        <circle id="Elipse_1062-52" data-name="Elipse 1062" cx="1.428" cy="1.428" r="1.428" transform="translate(42.84 71.401)" fill="#ccd6e3"/>
        <circle id="Elipse_1062-53" data-name="Elipse 1062" cx="1.428" cy="1.428" r="1.428" transform="translate(57.121 71.401)" fill="#ccd6e3"/>
        <circle id="Elipse_1062-54" data-name="Elipse 1062" cx="1.428" cy="1.428" r="1.428" transform="translate(71.401 71.401)" fill="#ccd6e3"/>
        <circle id="Elipse_1062-55" data-name="Elipse 1062" cx="1.428" cy="1.428" r="1.428" transform="translate(85.681 71.401)" fill="#ccd6e3"/>
        <circle id="Elipse_1062-56" data-name="Elipse 1062" cx="1.428" cy="1.428" r="1.428" transform="translate(99.961 71.401)" fill="#ccd6e3"/>
        <circle id="Elipse_1062-57" data-name="Elipse 1062" cx="1.428" cy="1.428" r="1.428" transform="translate(114.241 71.401)" fill="#ccd6e3"/>
        <circle id="Elipse_1062-58" data-name="Elipse 1062" cx="1.428" cy="1.428" r="1.428" transform="translate(128.521 71.401)" fill="#ccd6e3"/>
        <circle id="Elipse_1062-59" data-name="Elipse 1062" cx="1.428" cy="1.428" r="1.428" transform="translate(0 85.681)" fill="#ccd6e3"/>
        <circle id="Elipse_1062-60" data-name="Elipse 1062" cx="1.428" cy="1.428" r="1.428" transform="translate(14.28 85.681)" fill="#ccd6e3"/>
        <circle id="Elipse_1062-61" data-name="Elipse 1062" cx="1.428" cy="1.428" r="1.428" transform="translate(28.56 85.681)" fill="#ccd6e3"/>
        <circle id="Elipse_1062-62" data-name="Elipse 1062" cx="1.428" cy="1.428" r="1.428" transform="translate(42.84 85.681)" fill="#ccd6e3"/>
        <circle id="Elipse_1062-63" data-name="Elipse 1062" cx="1.428" cy="1.428" r="1.428" transform="translate(57.121 85.681)" fill="#ccd6e3"/>
        <circle id="Elipse_1062-64" data-name="Elipse 1062" cx="1.428" cy="1.428" r="1.428" transform="translate(71.401 85.681)" fill="#ccd6e3"/>
        <circle id="Elipse_1062-65" data-name="Elipse 1062" cx="1.428" cy="1.428" r="1.428" transform="translate(85.681 85.681)" fill="#ccd6e3"/>
        <circle id="Elipse_1062-66" data-name="Elipse 1062" cx="1.428" cy="1.428" r="1.428" transform="translate(99.961 85.681)" fill="#ccd6e3"/>
        <circle id="Elipse_1062-67" data-name="Elipse 1062" cx="1.428" cy="1.428" r="1.428" transform="translate(114.241 85.681)" fill="#ccd6e3"/>
        <circle id="Elipse_1062-68" data-name="Elipse 1062" cx="1.428" cy="1.428" r="1.428" transform="translate(128.521 85.681)" fill="#ccd6e3"/>
        <circle id="Elipse_1062-69" data-name="Elipse 1062" cx="1.428" cy="1.428" r="1.428" transform="translate(57.121 99.961)" fill="#ccd6e3"/>
        <circle id="Elipse_1062-70" data-name="Elipse 1062" cx="1.428" cy="1.428" r="1.428" transform="translate(71.401 99.961)" fill="#ccd6e3"/>
        <circle id="Elipse_1062-71" data-name="Elipse 1062" cx="1.428" cy="1.428" r="1.428" transform="translate(85.681 99.961)" fill="#ccd6e3"/>
        <circle id="Elipse_1062-72" data-name="Elipse 1062" cx="1.428" cy="1.428" r="1.428" transform="translate(99.961 99.961)" fill="#ccd6e3"/>
        <circle id="Elipse_1062-73" data-name="Elipse 1062" cx="1.428" cy="1.428" r="1.428" transform="translate(114.241 99.961)" fill="#ccd6e3"/>
        <circle id="Elipse_1062-74" data-name="Elipse 1062" cx="1.428" cy="1.428" r="1.428" transform="translate(128.521 99.961)" fill="#ccd6e3"/>
      </g>
    </g>
    <circle id="Elipse_1182" data-name="Elipse 1182" cx="29" cy="29" r="29" transform="translate(1191 536)" fill="#fff"/>
    <circle id="Elipse_1183" data-name="Elipse 1183" cx="5" cy="5" r="5" transform="translate(1239 616)" fill="#fff"/>
    <circle id="Elipse_1184" data-name="Elipse 1184" cx="4" cy="4" r="4" transform="translate(1240 520)" fill="#fff"/>
    <circle id="Elipse_1186" data-name="Elipse 1186" cx="10" cy="10" r="10" transform="translate(1220 548)" fill="#cdd8df"/>
    <g id="icon_gmd_alternate_email" transform="translate(1204 549)">
      <path id="Caminho_247489" data-name="Caminho 247489" d="M0,0H32V32H0Z" fill="none"/>
      <path id="Caminho_247490" data-name="Caminho 247490" d="M16,1.95a14,14,0,0,0,0,28h7v-2.8H16A11.343,11.343,0,0,1,4.8,15.95,11.343,11.343,0,0,1,16,4.75a11.343,11.343,0,0,1,11.2,11.2v2a2.263,2.263,0,0,1-2.1,2.2,2.263,2.263,0,0,1-2.1-2.2v-2a7,7,0,1,0-2.044,4.942A5.184,5.184,0,0,0,25.1,22.95a4.918,4.918,0,0,0,4.9-5v-2a14.005,14.005,0,0,0-14-14Zm0,18.2a4.2,4.2,0,1,1,4.2-4.2A4.194,4.194,0,0,1,16,20.15Z" fill="#363636"/>
    </g>
  </g>
</svg>
