<svg id="Grupo_39732" data-name="Grupo 39732" xmlns="http://www.w3.org/2000/svg" width="180.621" height="21" viewBox="0 0 180.621 21">
  <g id="logoblue" transform="translate(0 3.073)">
    <path id="Path_4187" data-name="Path 4187" d="M133.887,43.993c.223-1.9,1.366-3.738,2.616-3.738,0,0,1.379,0,.944,2.742a7.434,7.434,0,0,1-.385,1.486,1.255,1.255,0,0,0-.963.35.873.873,0,0,0-.241.568,1.173,1.173,0,0,0,.175.755,1.891,1.891,0,0,1-1.257.652c-.9,0-1.113-.918-.891-2.817M87.578,34.451a6.488,6.488,0,0,1-1.807.57.443.443,0,0,0-.319.29c-.078.23-.409,1.365-.506,1.661a.423.423,0,0,1-.428.29c-.428-.03-2.058-.235-2.274-.253a.428.428,0,0,0-.409.23,5.091,5.091,0,0,0-.391,2.053.416.416,0,0,0,.337.344c.168.03,1.631.242,1.8.265a.421.421,0,0,1,.337.519c-1.264,4.953-1.082,8.188,3.207,8.188,3.562,0,6.257-4.469,7.508-8.727a9.714,9.714,0,0,1,.9.87.756.756,0,0,1,.024.882c-.9,1.329-4.042,6.445.517,6.976,1.661.187,3.075-.8,4.235-2.241.1.948.632,2.168,2.768,2.168,1.835,0,3.075-1.407,3.844-2.736-.03.121-.626,2.736,1.582,2.736a5.2,5.2,0,0,0,3.243-1.824c-.072.314-.143.628-.217.955a.586.586,0,0,0,.391.695A3.036,3.036,0,0,0,114.2,48.3a.585.585,0,0,0,.319-.4c.115-.514.4-1.77.866-3.516h.018c.415,2.374,1.829,4.149,4.175,4.149a5.282,5.282,0,0,0,4.206-2.519,2.748,2.748,0,0,0,2.906,2.6,5.316,5.316,0,0,0,4.224-2.536c.361,1.7,1.348,2.536,3.309,2.536a6.556,6.556,0,0,0,3.923-1.42c0-.006-.006-.006-.006-.012a3.135,3.135,0,0,1,2.394-4.535h.018q.018-.217.018-.417a3.6,3.6,0,0,0-3.628-3.769,6.12,6.12,0,0,0-6.185,5.538c-.856,1.462-1.9,2.621-3.075,2.8-1.937.29-1.427-3.032-.391-6.487a.349.349,0,0,1,.333-.248,17.892,17.892,0,0,0,2.683-.2.352.352,0,0,0,.265-.211,3.044,3.044,0,0,0,.217-1.208.349.349,0,0,0-.367-.344c-.626.042-1.287.054-1.943.048a.346.346,0,0,1-.325-.465,19.554,19.554,0,0,1,.77-2.041.469.469,0,0,0-.265-.628,3.882,3.882,0,0,0-2.268-.187.47.47,0,0,0-.333.272,15.17,15.17,0,0,0-.993,2.663.347.347,0,0,1-.355.242c-.355-.024-.632-.048-.812-.061a.339.339,0,0,0-.343.187,2.184,2.184,0,0,0-.175,1.275.339.339,0,0,0,.277.284c.143.03.282.054.421.079a.343.343,0,0,1,.277.43,26.974,26.974,0,0,0-.674,4.083,4.335,4.335,0,0,1-3.1,2.44c-1.342.2-2.406-1.268-2.575-3.328v-.006a8.535,8.535,0,0,0,4.314-4.945.473.473,0,0,0-.259-.58,3.327,3.327,0,0,0-2.34-.03.48.48,0,0,0-.319.35,4.764,4.764,0,0,1-3.056,3.781c-.03.012-.175.048-.295.078.487-1.957,2.045-6.124,2.148-6.4a.5.5,0,0,0-.433-.665,2.682,2.682,0,0,0-1.36.55,4,4,0,0,1-1.222.447.342.342,0,0,0-.259.235,1.587,1.587,0,0,0-.048.163c-.012.031-.018.054-.03.079a80.587,80.587,0,0,0-2.557,8.075c-.848,1.256-1.757,2.065-2.431,2.065-1.131,0-.048-3.316.319-4.349a.44.44,0,0,0-.175-.513,3.1,3.1,0,0,0-2.13-.411.5.5,0,0,0-.385.308c-2.828,6.77-4.229,5.49-4.09,3.461.133-2.059,2.154-4.784,4.146-4.784a6.435,6.435,0,0,1,3.164.87.49.49,0,0,0,.547-.042,2.518,2.518,0,0,0,.535-.573.556.556,0,0,0-.024-.634A4.424,4.424,0,0,0,108,38.388c-2.894,0-6.955,2.471-7.587,6.221-3.3,4.56-4.825,1.8-2.7-1.329,1.125-1.661,1.528-2.339-.391-3.859s-1.4-1.618-1.4-2.518-1.757-1.758-2.437.235A1.956,1.956,0,0,0,93.86,39.1c-.884,2.79-3.321,7.326-5.74,7.686-1.943.29-1.2-3.2-.175-6.656a.343.343,0,0,1,.333-.247,17.257,17.257,0,0,0,2.689-.2.335.335,0,0,0,.259-.205,6.571,6.571,0,0,0,.4-1.739.349.349,0,0,0-.367-.344c-.626.036-1.287.048-1.944.048a.346.346,0,0,1-.325-.465c.253-.725.662-2.053.782-2.387a.609.609,0,0,0-.529-.815h-.05a3.484,3.484,0,0,0-1.61.672" transform="translate(-81.443 -33.776)" fill="#fff"/>
    <path id="Path_4188" data-name="Path 4188" d="M1261.04,237.013a2.365,2.365,0,1,0,2.365-2.365,2.365,2.365,0,0,0-2.365,2.365" transform="translate(-1203.891 -225.301)" fill="#fe6e46"/>
  </g>
  <g id="Grupo_3" data-name="Grupo 3" transform="translate(87 3.56)">
    <g id="Grupo_1166" data-name="Grupo 1166">
      <path id="Caminho_2379" data-name="Caminho 2379" d="M6349.351,824.759c.138.849.909,1.165,1.757,1.165.83,0,1.492-.356,1.511-.79.03-.656-.484-1.045-1.214-1.186-.5-.1-2.013-.395-2.013-.395-1.836-.336-2.883-.867-2.883-2.427,0-2.033,1.757-3.356,4.265-3.356,2.468,0,4.105,1.125,4.5,2.843l-2.882.572a1.54,1.54,0,0,0-1.658-1.165c-.849,0-1.274.357-1.354.77-.051.272.081.5.979.691.58.125,2.329.474,2.329.474,1.875.395,2.743,1.52,2.743,2.981,0,2.191-1.895,3.336-4.5,3.336-2.33,0-4.323-.849-4.66-2.882Z" transform="translate(-6322.182 -814.501)" fill="#fff"/>
      <g id="Grupo_1165" data-name="Grupo 1165">
        <path id="Caminho_2380" data-name="Caminho 2380" d="M6438.858,809.172a9.844,9.844,0,0,1,.079,1.21,6.656,6.656,0,0,1-6.882,6.921,6.943,6.943,0,1,1-.059-13.881c2.953,0,5.552,1.388,6.485,3.986l-3.154.912a3.422,3.422,0,0,0-3.331-1.9,3.8,3.8,0,0,0-3.808,3.946,3.854,3.854,0,0,0,3.906,3.966,3.484,3.484,0,0,0,3.51-2.38h-4.065v-2.776Z" transform="translate(-6382.895 -803.421)" fill="#fff"/>
        <g id="Text-Default" transform="translate(0 0.072)">
          <g id="Grupo_1164" data-name="Grupo 1164">
            <g id="Grupo_1163" data-name="Grupo 1163">
              <path id="Caminho_2381" data-name="Caminho 2381" d="M6252.655,817.021H6249.4v-5.255h-5.592v5.255h-3.271V803.735h3.271v5.176h5.592v-5.176h3.252Z" transform="translate(-6240.54 -803.735)" fill="#fff"/>
              <path id="Caminho_2382" data-name="Caminho 2382" d="M6308.25,822.461a5.489,5.489,0,1,1-5.454-5.235A5.234,5.234,0,0,1,6308.25,822.461Zm-3.054,0a2.433,2.433,0,1,0-2.4,2.578A2.476,2.476,0,0,0,6305.2,822.461Z" transform="translate(-6284.355 -814.152)" fill="#fff"/>
              <path id="Caminho_2383" data-name="Caminho 2383" d="M6396.587,816.585a5.4,5.4,0,0,1-2.717.734c-2.478,0-3.965-1.349-3.965-3.966v-3.768h-1.8v-2.518h1.8v-2.648l3.172-.683v3.332h2.935v2.518h-2.935v3.45c0,1.031.5,1.448,1.329,1.448a3.242,3.242,0,0,0,1.448-.4Z" transform="translate(-6354.482 -803.735)" fill="#fff"/>
              <path id="Caminho_2384" data-name="Caminho 2384" d="M6497.574,821V827.3h-3.055v-.734a4.394,4.394,0,0,1-2.975,1.031c-2.22,0-3.707-1.289-3.707-3.252,0-1.943,1.487-3.212,4.145-3.212h2.537v-.2a1.326,1.326,0,0,0-1.406-1.388,1.449,1.449,0,0,0-1.666,1.249l-3-.615c.437-1.924,2.182-3.133,4.562-3.133C6495.808,817.052,6497.574,818.46,6497.574,821Zm-3.055,2.38v-.218h-2.181c-.793,0-1.288.417-1.288,1.031,0,.635.555,1.031,1.388,1.031A1.949,1.949,0,0,0,6494.519,823.378Z" transform="translate(-6431.496 -814.018)" fill="#fff"/>
              <path id="Caminho_2385" data-name="Caminho 2385" d="M6541.144,816.585a5.4,5.4,0,0,1-2.716.734c-2.479,0-3.967-1.349-3.967-3.966v-3.768h-1.8v-2.518h1.8v-2.648l3.174-.683v3.332h2.935v2.518h-2.935v3.45c0,1.031.5,1.448,1.328,1.448a3.247,3.247,0,0,0,1.448-.4Z" transform="translate(-6466.104 -803.735)" fill="#fff"/>
              <path id="Caminho_2386" data-name="Caminho 2386" d="M6578.7,822.461a5.489,5.489,0,1,1-5.452-5.235A5.234,5.234,0,0,1,6578.7,822.461Zm-3.053,0a2.433,2.433,0,1,0-2.4,2.578A2.476,2.476,0,0,0,6575.646,822.461Z" transform="translate(-6493.189 -814.152)" fill="#fff"/>
              <path id="Caminho_2387" data-name="Caminho 2387" d="M6626.659,817.827l-.14,3.173h-.575c-2.221,0-3.431,1.15-3.431,3.728v3.113h-3.173V818.57l3.173-.683v1.9a3.846,3.846,0,0,1,3.431-2.043A2.725,2.725,0,0,1,6626.659,817.827Z" transform="translate(-6533.038 -814.555)" fill="#fff"/>
            </g>
          </g>
        </g>
      </g>
    </g>
  </g>
  <text id="_" data-name="+" transform="translate(70.465)" fill="#fff" font-size="16" font-family="Roboto-Medium, Roboto" font-weight="500" letter-spacing="0.001em"><tspan x="0" y="17">+</tspan></text>
</svg>
