<svg xmlns="http://www.w3.org/2000/svg" width="118.91" height="28.543" viewBox="0 0 118.91 28.543">
  <g id="logoblue" transform="translate(-0.012 0.006)">
    <path id="Path_4187" data-name="Path 4187" d="M182.221,53.409c.428-3.644,2.625-7.184,5.026-7.184,0,0,2.65,0,1.815,5.269a14.285,14.285,0,0,1-.74,2.855,2.411,2.411,0,0,0-1.85.672,1.678,1.678,0,0,0-.463,1.091,2.254,2.254,0,0,0,.335,1.451,3.634,3.634,0,0,1-2.416,1.253c-1.723,0-2.139-1.764-1.712-5.413M93.232,35.072a12.467,12.467,0,0,1-3.473,1.094.851.851,0,0,0-.612.557c-.151.441-.786,2.623-.971,3.192a.812.812,0,0,1-.822.557c-.822-.058-3.954-.452-4.37-.487a.822.822,0,0,0-.787.441,9.784,9.784,0,0,0-.751,3.945.8.8,0,0,0,.648.661c.324.058,3.134.464,3.457.51a.81.81,0,0,1,.648,1c-2.428,9.517-2.08,15.734,6.163,15.734,6.845,0,12.024-8.589,14.428-16.771a18.669,18.669,0,0,1,1.723,1.671,1.452,1.452,0,0,1,.047,1.7c-1.736,2.553-7.768,12.385.994,13.4,3.191.36,5.908-1.544,8.139-4.306.183,1.822,1.214,4.167,5.319,4.167,3.527,0,5.908-2.7,7.388-5.258-.058.232-1.2,5.258,3.04,5.258,2.128,0,4.393-1.651,6.232-3.505-.139.6-.274,1.207-.417,1.835a1.125,1.125,0,0,0,.751,1.335,5.834,5.834,0,0,0,4.393-.116,1.125,1.125,0,0,0,.612-.777c.22-.987.775-3.4,1.665-6.756h.035c.8,4.561,3.515,7.973,8.024,7.973,3.284,0,5.94-1.927,8.082-4.84.531,2.983,2.161,4.992,5.584,4.992,3.3,0,5.966-1.95,8.116-4.874.694,3.272,2.59,4.874,6.359,4.874a12.6,12.6,0,0,0,7.539-2.728c0-.011-.012-.011-.012-.023a6.024,6.024,0,0,1,4.6-8.715h.035q.034-.417.035-.8c0-7.243-6.972-7.243-6.972-7.243-6.625,0-11.6,5.177-11.885,10.642-1.645,2.809-3.642,5.037-5.908,5.374-3.722.557-2.742-5.826-.751-12.465a.67.67,0,0,1,.64-.476,34.382,34.382,0,0,0,5.156-.383.677.677,0,0,0,.509-.406,5.848,5.848,0,0,0,.417-2.321.671.671,0,0,0-.706-.661c-1.2.082-2.474.1-3.734.092a.665.665,0,0,1-.624-.894,37.581,37.581,0,0,1,1.48-3.923.9.9,0,0,0-.509-1.207,7.461,7.461,0,0,0-4.359-.36.9.9,0,0,0-.64.522,29.152,29.152,0,0,0-1.907,5.118.666.666,0,0,1-.683.464c-.682-.046-1.215-.092-1.561-.117a.652.652,0,0,0-.659.36,4.2,4.2,0,0,0-.335,2.449.652.652,0,0,0,.532.546c.274.058.543.1.809.151a.659.659,0,0,1,.533.826,51.836,51.836,0,0,0-1.295,7.845c-1.688,2.925-3.656,4.34-5.966,4.689-2.578.383-4.624-2.437-4.948-6.4v-.011a16.4,16.4,0,0,0,8.291-9.5.909.909,0,0,0-.5-1.115,6.392,6.392,0,0,0-4.5-.058.923.923,0,0,0-.613.673c-1.26,5.606-5.109,7.045-5.873,7.266-.058.023-.335.092-.567.15.936-3.761,3.93-11.768,4.127-12.293a.952.952,0,0,0-.833-1.277,5.153,5.153,0,0,0-2.613,1.057,7.687,7.687,0,0,1-2.348.859.657.657,0,0,0-.5.452,3.051,3.051,0,0,0-.091.313c-.023.059-.035.1-.058.151a154.861,154.861,0,0,0-4.913,15.518c-1.63,2.414-3.376,3.969-4.671,3.969-2.173,0-.091-6.371.613-8.356a.846.846,0,0,0-.335-.986,5.948,5.948,0,0,0-4.092-.789.97.97,0,0,0-.74.592c-5.434,13.01-8.127,10.55-7.859,6.65.255-3.958,4.139-9.192,7.966-9.192a12.366,12.366,0,0,1,6.081,1.671.942.942,0,0,0,1.052-.082,4.838,4.838,0,0,0,1.029-1.1,1.068,1.068,0,0,0-.046-1.218c-.751-1-2.764-2.936-7.238-2.936-5.561,0-13.365,4.747-14.579,11.954-6.347,8.762-9.272,3.459-5.191-2.553,2.162-3.192,2.936-4.5-.751-7.416s-2.694-3.11-2.694-4.839-3.376-3.378-4.683.452a3.759,3.759,0,0,0,.716,3.772c-1.7,5.362-6.382,14.078-11.03,14.77-3.734.557-2.312-6.151-.335-12.79a.659.659,0,0,1,.64-.475,33.163,33.163,0,0,0,5.168-.383.645.645,0,0,0,.5-.394,12.627,12.627,0,0,0,.763-3.342.671.671,0,0,0-.706-.661c-1.2.07-2.474.092-3.735.092a.666.666,0,0,1-.624-.894c.486-1.393,1.272-3.945,1.5-4.587a1.169,1.169,0,0,0-1.017-1.567h-.1a6.694,6.694,0,0,0-3.094,1.291" transform="translate(-81.431 -33.782)" fill="#fff"/>
    <path id="Path_4188" data-name="Path 4188" d="M1261.04,239.193a4.545,4.545,0,1,0,4.545-4.545,4.545,4.545,0,0,0-4.545,4.545" transform="translate(-1151.208 -216.692)" fill="#fe6e46"/>
  </g>
</svg>
