<svg width="40" height="40" viewBox="0 0 40 40" fill="none" xmlns="http://www.w3.org/2000/svg">
<mask id="mask0_9226_8141" style="mask-type:alpha" maskUnits="userSpaceOnUse" x="0" y="0" width="40" height="40">
<rect width="40" height="40" fill="#D9D9D9"/>
</mask>
<g mask="url(#mask0_9226_8141)">
<path d="M20.0021 35.8331C17.8236 35.8331 15.7727 35.4175 13.8493 34.5864C11.926 33.7553 10.247 32.6228 8.81239 31.1888C7.37775 29.7548 6.2447 28.0765 5.41322 26.154C4.58175 24.2315 4.16602 22.1811 4.16602 20.0026C4.16602 17.8127 4.58157 15.7543 5.41268 13.8274C6.24379 11.9005 7.37635 10.2244 8.81035 8.79901C10.2443 7.37362 11.9226 6.24519 13.8451 5.41371C15.7676 4.58224 17.818 4.1665 19.9965 4.1665C22.1864 4.1665 24.2448 4.58206 26.1717 5.41317C28.0986 6.24428 29.7747 7.3722 31.2001 8.79692C32.6255 10.2217 33.7539 11.8971 34.5854 13.8231C35.4169 15.7492 35.8326 17.8071 35.8326 19.997C35.8326 22.1755 35.417 24.2264 34.5859 26.1498C33.7548 28.0731 32.6269 29.7521 31.2022 31.1867C29.7774 32.6214 28.102 33.7544 26.176 34.5859C24.2499 35.4174 22.192 35.8331 20.0021 35.8331ZM19.9993 33.7391C23.8269 33.7391 27.0737 32.4033 29.7397 29.7316C32.4057 27.06 33.7386 23.816 33.7386 19.9998C33.7386 16.1722 32.4057 12.9254 29.7397 10.2594C27.0737 7.59345 23.8269 6.26046 19.9993 6.26046C16.1831 6.26046 12.9391 7.59345 10.2675 10.2594C7.59581 12.9254 6.25997 16.1722 6.25997 19.9998C6.25997 23.816 7.59581 27.06 10.2675 29.7316C12.9391 32.4033 16.1831 33.7391 19.9993 33.7391Z" fill="#363636"/>
</g>
</svg>
