<svg width="109" height="83" viewBox="0 0 109 83" fill="none" xmlns="http://www.w3.org/2000/svg">
<g opacity="0.83">
<path d="M20.2476 48.9037C28.4828 48.9037 35.1587 42.454 35.1587 34.498C35.1587 26.5419 28.4828 20.0923 20.2476 20.0923C12.0124 20.0923 5.33643 26.5419 5.33643 34.498C5.33643 42.454 12.0124 48.9037 20.2476 48.9037Z" fill="#3C97FF"/>
</g>
<path d="M8.82201 25.5037C8.80167 29.7634 10.0905 33.933 12.5253 37.4843C14.9601 41.0356 18.4311 43.8088 22.4988 45.4524C26.5665 47.0961 31.0477 47.5363 35.3745 46.7173C39.7014 45.8983 43.6792 43.8569 46.8041 40.8518C49.9289 37.8466 52.0602 34.013 52.9277 29.8366C53.7953 25.6602 53.3602 21.329 51.6775 17.3918C49.9948 13.4545 47.1402 10.0884 43.4755 7.71989C39.8108 5.3514 35.5009 4.08714 31.0918 4.08728V4.08728C28.1741 4.08069 25.2835 4.62937 22.5853 5.702C19.8871 6.77462 17.4341 8.35016 15.3662 10.3387C13.2982 12.3272 11.6559 14.6898 10.5331 17.2915C9.41022 19.8932 8.82882 22.6831 8.82201 25.5019V25.5037ZM10.5346 25.5037C10.5347 22.7326 11.1413 19.9927 12.3145 17.4639L22.1185 43.2919C18.6507 41.6805 15.7239 39.1564 13.6747 36.0097C11.6255 32.8629 10.5371 29.2214 10.5346 25.5037ZM31.0898 45.2693C29.1244 45.2696 27.169 44.9993 25.2825 44.4667L31.4509 27.2381L37.7693 43.8793C37.8096 43.9728 37.8582 44.0628 37.9143 44.1484C35.7222 44.8925 33.4153 45.2719 31.0918 45.2703L31.0898 45.2693ZM47.7011 25.1325C48.6982 22.8947 49.2301 20.4892 49.2668 18.0531C49.2688 17.3727 49.2212 16.693 49.1246 16.019C51.6914 20.5407 52.3229 25.8539 50.8837 30.82C49.4445 35.7861 46.0491 40.01 41.425 42.5866L47.7011 25.1325ZM43.2693 19.0544C44.3489 20.6837 44.9363 22.5718 44.9656 24.5062C44.8454 26.7108 44.3153 28.8766 43.4008 30.8998L41.3501 37.4884L33.9214 16.238C35.1615 16.1731 36.2728 16.0524 36.2728 16.0524C36.4966 16.0359 36.7044 15.9342 36.8506 15.7697C36.9968 15.6052 37.0693 15.3913 37.0523 15.175C37.0352 14.9588 36.9299 14.758 36.7596 14.6168C36.5893 14.4756 36.3678 14.4055 36.144 14.422C36.144 14.422 32.814 14.6744 30.6691 14.6744C28.652 14.6744 25.2565 14.422 25.2565 14.422C25.0328 14.4051 24.8112 14.4749 24.6406 14.6158C24.47 14.7568 24.3644 14.9574 24.3469 15.1737C24.3295 15.3899 24.4016 15.6039 24.5475 15.7687C24.6934 15.9335 24.9012 16.0356 25.125 16.0524C25.125 16.0524 26.1758 16.1768 27.2832 16.238L30.4828 24.6751L25.9866 37.6461L18.5003 16.238C19.7403 16.1731 20.8545 16.0524 20.8545 16.0524C20.9653 16.0441 21.0734 16.0147 21.1724 15.9661C21.2715 15.9174 21.3597 15.8503 21.4319 15.7687C21.5042 15.6871 21.5591 15.5926 21.5935 15.4905C21.6279 15.3884 21.6412 15.2807 21.6325 15.1737C21.6239 15.0666 21.5935 14.9622 21.5431 14.8665C21.4927 14.7708 21.4233 14.6856 21.3388 14.6158C21.2544 14.546 21.1565 14.493 21.0509 14.4597C20.9452 14.4265 20.8337 14.4137 20.7229 14.422C20.7229 14.422 17.3985 14.6744 15.2479 14.6744C14.8636 14.6744 14.4103 14.6651 13.9271 14.6512C15.568 12.2563 17.7263 10.2329 20.2534 8.72025C22.7806 7.20758 25.6167 6.24143 28.567 5.88822C31.5173 5.53501 34.5118 5.80311 37.3447 6.67408C40.1776 7.54505 42.7816 8.99824 44.978 10.9338C44.8906 10.9273 44.8022 10.9171 44.7138 10.9171C43.7749 10.9407 42.884 11.3231 42.2367 11.9806C41.5893 12.638 41.2383 13.5167 41.2608 14.4239C41.2569 16.0459 42.2309 17.4277 43.2712 19.0553L43.2693 19.0544Z" fill="#4A4A4A"/>
<path d="M30.9978 46.7398C26.6362 46.7206 22.3782 45.4535 18.7613 43.0984C15.1444 40.7433 12.3307 37.4058 10.6754 33.5072C9.02007 29.6086 8.59734 25.3236 9.46054 21.1931C10.3237 17.0625 12.4342 13.2717 15.5255 10.2989C18.6168 7.3261 22.5503 5.30468 26.8297 4.48976C31.109 3.67485 35.5424 4.10298 39.5701 5.72009C43.5978 7.33721 47.0394 10.0708 49.4605 13.5759C51.8815 17.081 53.1735 21.2005 53.1734 25.4143C53.1533 31.0813 50.8073 36.5091 46.65 40.5071C42.4927 44.505 36.8637 46.7465 30.9978 46.7398ZM30.9978 6.02639C27.0329 6.04399 23.1622 7.19596 19.8743 9.3369C16.5864 11.4778 14.0287 14.5118 12.524 18.0558C11.0192 21.5999 10.635 25.4951 11.4197 29.2499C12.2044 33.0047 14.1228 36.4508 16.9328 39.1533C19.7429 41.8557 23.3187 43.6933 27.2089 44.4341C31.099 45.175 35.1292 44.7859 38.7906 43.316C42.452 41.846 45.5807 39.3611 47.7817 36.1749C49.9826 32.9887 51.1572 29.244 51.1572 25.4134C51.1394 20.2613 49.007 15.3265 45.2276 11.6916C41.4482 8.05668 36.3307 6.01861 30.9978 6.02454V6.02639Z" fill="#4A4A4A"/>
<path d="M101.924 46.4428H68.8784V78.368H101.924V46.4428Z" fill="#F47924"/>
<path d="M95.3247 46.5095L85.5759 32.9954L85.5073 33.1233V32.9954H54.9648V60.0227L67.612 78.3776L72.476 78.363L60.3539 60.0227H85.5073V40.1934L90.0755 46.5095H95.3247ZM81.1429 56.1619H59.3255V36.8562H81.1429V56.1619Z" fill="#4A4A4A"/>
</svg>
