<svg width="32" height="32" viewBox="0 0 32 32" fill="none" xmlns="http://www.w3.org/2000/svg">
<path d="M2.22012 15.8703C2.20753 18.576 3.00499 21.2245 4.5115 23.4803C6.01801 25.736 8.16573 27.4975 10.6826 28.5416C13.1994 29.5857 15.9722 29.8653 18.6494 29.3451C21.3266 28.8248 23.7879 27.5281 25.7214 25.6193C27.6549 23.7104 28.9736 21.2753 29.5104 18.6225C30.0472 15.9697 29.778 13.2185 28.7368 10.7176C27.6956 8.21665 25.9294 6.07851 23.6619 4.57406C21.3943 3.06961 18.7276 2.26655 15.9995 2.26664C14.1942 2.26245 12.4056 2.61098 10.7361 3.2923C9.06662 3.97362 7.54882 4.97441 6.26929 6.23751C4.98976 7.50062 3.97358 9.00131 3.27882 10.6539C2.58407 12.3065 2.22433 14.0786 2.22012 15.8691V15.8703ZM3.27977 15.8703C3.27987 14.11 3.65518 12.3697 4.38106 10.7634L10.4473 27.1692C8.30157 26.1457 6.49063 24.5424 5.2227 22.5436C3.95477 20.5448 3.2813 18.2317 3.27977 15.8703ZM15.9982 28.4253C14.7822 28.4255 13.5722 28.2538 12.405 27.9154L16.2217 16.9719L20.1311 27.5423C20.1561 27.6017 20.1861 27.6589 20.2209 27.7133C18.8645 28.1859 17.4371 28.4269 15.9995 28.4259L15.9982 28.4253ZM26.2765 15.6345C26.8934 14.213 27.2225 12.6851 27.2452 11.1377C27.2464 10.7055 27.217 10.2737 27.1572 9.84563C28.7454 12.7178 29.1362 16.0927 28.2457 19.2471C27.3551 22.4016 25.2542 25.0846 22.3931 26.7212L26.2765 15.6345ZM23.5343 11.7737C24.2023 12.8086 24.5657 14.0079 24.5838 15.2366C24.5094 16.637 24.1815 18.0127 23.6157 19.2979L22.3468 23.4829L17.7503 9.98475C18.5176 9.94348 19.2052 9.86685 19.2052 9.86685C19.3437 9.85638 19.4723 9.79178 19.5627 9.68726C19.6532 9.58275 19.6981 9.44687 19.6875 9.30954C19.6769 9.1722 19.6118 9.04466 19.5064 8.95496C19.401 8.86525 19.264 8.82074 19.1255 8.83121C19.1255 8.83121 17.0651 8.99153 15.7379 8.99153C14.4899 8.99153 12.3889 8.83121 12.3889 8.83121C12.2505 8.82051 12.1134 8.86479 12.0078 8.95433C11.9023 9.04386 11.8369 9.17132 11.8261 9.30866C11.8153 9.44599 11.86 9.58195 11.9502 9.68664C12.0405 9.79132 12.1691 9.85614 12.3075 9.86685C12.3075 9.86685 12.9577 9.94584 13.6429 9.98475L15.6227 15.3439L12.8406 23.5831L8.20852 9.98475C8.97579 9.94348 9.66516 9.86685 9.66516 9.86685C9.73372 9.86155 9.80061 9.84291 9.86191 9.81199C9.92321 9.78106 9.97776 9.73847 10.0225 9.68664C10.0672 9.6348 10.1011 9.57475 10.1224 9.50989C10.1437 9.44504 10.1519 9.37666 10.1466 9.30866C10.1412 9.24066 10.1224 9.17436 10.0912 9.11357C10.0601 9.05277 10.0171 8.99866 9.96486 8.95433C9.91259 8.90999 9.85207 8.8763 9.78668 8.85517C9.72129 8.83405 9.65232 8.82591 9.58376 8.83121C9.58376 8.83121 7.52677 8.99153 6.19609 8.99153C5.95836 8.99153 5.67784 8.98564 5.3789 8.9768C6.3942 7.45554 7.72962 6.17033 9.29327 5.20948C10.8569 4.24864 12.6118 3.63495 14.4373 3.41059C16.2628 3.18623 18.1156 3.35653 19.8684 3.90976C21.6213 4.463 23.2325 5.38606 24.5915 6.61552C24.5374 6.61139 24.4827 6.6049 24.4281 6.6049C23.8471 6.61988 23.2959 6.86283 22.8953 7.28043C22.4948 7.69803 22.2776 8.25618 22.2915 8.83239C22.2891 9.86273 22.8918 10.7404 23.5354 11.7743L23.5343 11.7737Z" fill="#4A4A4A"/>
<path d="M15.9413 29.3584C13.2425 29.3462 10.6079 28.5413 8.36992 27.0454C6.13197 25.5494 4.39101 23.4295 3.3668 20.9531C2.34259 18.4767 2.08102 15.7549 2.61512 13.1312C3.14922 10.5075 4.45507 8.09958 6.36779 6.21128C8.28051 4.32298 10.7144 3.03899 13.3622 2.52136C16.0101 2.00373 18.7532 2.27567 21.2453 3.30286C23.7375 4.33004 25.8669 6.06642 27.365 8.29284C28.863 10.5193 29.6624 13.1359 29.6623 15.8125C29.6499 19.4122 28.1983 22.8599 25.626 25.3994C23.0536 27.9389 19.5707 29.3626 15.9413 29.3584ZM15.9413 3.49742C13.488 3.5086 11.093 4.24032 9.05863 5.60024C7.02425 6.96016 5.44164 8.88731 4.51061 11.1385C3.57957 13.3896 3.34182 15.8639 3.82734 18.2489C4.31286 20.6339 5.49986 22.8229 7.23859 24.5394C8.97733 26.256 11.1898 27.4233 13.5968 27.8938C16.0039 28.3644 18.4975 28.1173 20.763 27.1836C23.0285 26.2499 24.9644 24.6715 26.3262 22.6476C27.688 20.6238 28.4148 18.2451 28.4148 15.812C28.4038 12.5394 27.0843 9.40479 24.7459 7.09591C22.4074 4.78704 19.241 3.49247 15.9413 3.49624V3.49742Z" fill="#4A4A4A"/>
</svg>
